<?xml version="1.0" encoding="UTF-8" standalone="no"?>
<!-- Created with Inkscape (http://www.inkscape.org/) -->

<svg
   version="1.1"
   id="svg2"
   width="722.97333"
   height="701.61334"
   viewBox="0 0 722.97333 701.61334"
   xmlns="http://www.w3.org/2000/svg"
   xmlns:svg="http://www.w3.org/2000/svg">
  <defs
     id="defs6" />
  <g
     id="g8"
     transform="matrix(1.3333333,0,0,-1.3333333,0,701.61333)">
    <g
       id="g10"
       transform="scale(0.1)">
      <path
         d="m 1330.96,3223.13 c 5.93,-11.06 12.51,-23.44 24.42,-27.39 8.51,-2.82 17.74,-0.59 26.61,0.73 49.87,7.41 99.18,-15.35 141.93,-42.08 51.75,-32.37 100.81,-73.49 126.33,-128.94 16.63,24.06 20.15,54.52 23.18,83.6 3.9,37.42 7.8,74.83 11.7,112.24 1.23,11.86 -200.12,64.04 -220.18,69.45 -37.9,10.2 -76.01,19.59 -114.31,28.14 -29.17,6.51 -82.32,27.46 -110.04,19.49 31.07,-38.87 66.17,-70.13 90.36,-115.24"
         style="fill:#b82327;fill-opacity:1;fill-rule:nonzero;stroke:none"
         id="path12" />
      <path
         d="m 2009.14,3085.72 c -0.39,-11.4 5.33,-22.02 10.88,-31.99 17.53,-31.5 35.06,-63 52.58,-94.5 17.79,5.01 35.57,10.01 53.35,15.02 -18.52,22.31 -16.15,56.44 -2.14,81.84 14,25.39 37.37,44.04 60.14,62 39.8,31.39 79.6,62.77 119.39,94.16 -7.4,-5.84 -28.67,-7.09 -38.14,-10.32 -13.74,-4.69 -27.14,-10.33 -40.35,-16.34 -26.64,-12.1 -52.36,-26.12 -78.78,-38.71 -25.91,-12.34 -52.57,-23.74 -80.66,-30.13 -19.67,-4.48 -55.29,-2.21 -56.27,-31.03"
         style="fill:#b82327;fill-opacity:1;fill-rule:nonzero;stroke:none"
         id="path14" />
      <path
         d="m 1525.83,2038.49 c 23.54,-28.69 60.77,-45.63 97.87,-44.52 8.6,0.26 17.65,1.35 25.42,-2.35 7.34,-3.49 12.15,-10.62 16.5,-17.48 9.03,-14.24 17.84,-29 30.55,-40.09 24.47,-21.38 59.15,-25.79 91.62,-27.05 41.79,-1.62 83.72,0.41 125.16,6.07 -33.85,-25.84 -67.69,-51.68 -101.54,-77.52 -43.05,-3.9 -86.73,-0.85 -128.83,9 -23.25,5.44 -48.37,12.81 -70.19,3.1 -5.49,-2.44 -10.88,-5.99 -16.89,-5.74 -3.29,0.14 -6.41,1.43 -9.45,2.7 -68.43,28.64 -136.87,57.28 -205.3,85.92 -8.43,3.53 -17.3,7.4 -22.6,14.85 -7.13,10.04 -5.8,23.66 -3.27,35.7 11.04,52.39 41.06,104.59 83.43,137.97 59.31,46.72 61.12,-48.38 87.52,-80.56"
         style="fill:#b82327;fill-opacity:1;fill-rule:nonzero;stroke:none"
         id="path16" />
      <path
         d="m 2230.89,2011.05 c -20.39,-36.28 -42.78,-71.42 -67.05,-105.22 -6.29,10.71 -12.59,21.42 -18.88,32.13 -1.7,2.9 -3.46,6.14 -2.77,9.43 0.94,4.47 5.78,6.72 9.74,8.99 17.51,10.08 25.29,30.86 31.77,50 7.65,22.59 21.44,118.55 55.45,113.62 49.29,-7.15 2.6,-89.61 -8.26,-108.95"
         style="fill:#b82327;fill-opacity:1;fill-rule:nonzero;stroke:none"
         id="path18" />
      <path
         d="m 668.066,2829.73 c -87.671,51.05 -164.347,120.88 -223.343,203.41 -7.625,10.67 -57.84,-82.93 -60.059,-91.7 -7.348,-29.02 -12.242,-81.95 8.746,-107.24 23.578,-28.42 85.004,-6.79 116.887,-4.25 52.476,4.18 105.348,5.41 157.769,-0.22"
         style="fill:#b82327;fill-opacity:1;fill-rule:nonzero;stroke:none"
         id="path20" />
      <path
         d="m 3411.27,2854.55 c 2.94,0.72 5.98,1.48 8.38,3.32 2.77,2.14 4.33,5.45 5.64,8.69 13.06,32.41 9.45,69.75 -3.28,102.3 -12.73,32.54 -33.9,61.05 -56.06,88.07 -62.82,-58.52 -99.01,-137.92 -146.79,-207.85 -5.73,-8.38 -32.73,-34.49 -22.8,-44.6 6.89,-7.01 59.13,12.22 69.18,14.66 48.58,11.81 97.16,23.61 145.73,35.41"
         style="fill:#b82327;fill-opacity:1;fill-rule:nonzero;stroke:none"
         id="path22" />
      <path
         d="m 2962.27,2027.3 c 3.46,3.55 6.99,7.2 9.11,11.68 3.14,6.65 2.84,14.31 3.44,21.63 1.69,20.78 10.98,40.48 11.83,61.31 1.37,33.77 -22.44,66.96 -54.88,76.47 11.63,-3.41 -41.65,-166.67 -46.15,-182.3 -3.65,-12.68 -21.27,-58.4 4.64,-60.55 14.67,-1.22 61.08,60.55 72.01,71.76"
         style="fill:#b82327;fill-opacity:1;fill-rule:nonzero;stroke:none"
         id="path24" />
      <path
         d="m 887.086,1829.63 c -29.492,84.6 -49.125,172.63 -58.387,261.75 -1.539,14.82 -2.922,30.12 -9.863,43.31 -6.941,13.19 -21.059,23.85 -35.828,21.86 -11.16,-35.93 -21.477,-72.11 -30.938,-108.52 -6.664,-25.64 -23.695,-60.17 -7.5,-84.02 15.575,-22.94 50.895,-41.1 71.516,-60.15 19.539,-18.04 62.137,-48.81 71,-74.23"
         style="fill:#b82327;fill-opacity:1;fill-rule:nonzero;stroke:none"
         id="path26" />
      <path
         d="m 1681.42,1696.72 c -6.47,-11.79 -12.93,-23.58 -19.4,-35.37 26.13,-4.21 50.45,12.3 73.21,25.8 28.76,17.06 59.71,30.41 91.85,39.61 -5.63,-15.58 -10.19,-31.55 -13.64,-47.76 -0.75,-3.52 -1.4,-7.38 0.3,-10.54 3.07,-5.73 11.27,-5.45 17.65,-4.21 51.91,10.02 101.33,29.86 152.07,44.68 67.26,19.64 137.08,30.46 207.13,32.09 -30.64,-38.68 -60.1,-78.28 -88.34,-118.74 -31.87,7.19 -60.39,25.72 -92.43,32.11 -60.73,12.13 -120.31,-20.74 -181.06,-32.78 -66.31,-13.14 -140.37,-2.67 -196.81,-39.87 -17.45,-11.51 -31.97,-26.95 -48.81,-39.34 -28.95,-21.29 -63.72,-32.87 -97.85,-44.13 -52.53,-17.32 -109.75,-34.67 -161.95,-16.41 -4.06,1.42 16.42,35.68 18.77,38.55 9.2,11.23 16.81,15.02 29.58,19.87 33.76,12.84 65.5,30.4 97.78,47.05 70.65,36.46 141.3,72.93 211.95,109.39"
         style="fill:#b82327;fill-opacity:1;fill-rule:nonzero;stroke:none"
         id="path28" />
      <path
         d="m 1121.3,1039 c 167.1,-84.039 324.66,-187.039 468.69,-306.379 33.66,-27.891 68.63,-57.699 111.5,-66.23 48.08,-9.571 96.82,9.379 145.7,13.129 29.19,2.242 87.16,-24.11 116.32,-26.649 114.73,-9.969 201.69,13.738 316.31,24.84 6.99,0.68 15.13,0.98 19.78,-4.281 3.29,-3.711 3.73,-9.078 3.91,-14.032 4.25,-115.429 -45.41,-231.718 -131.73,-308.468 -28.77,20.14 -61.31,34.152 -93.92,47.179 -184.89,73.86 -381.06,120.782 -557.3,213.411 -181.57,95.449 -335.04,235.769 -483.64,377.179 -18,17.121 -36.32,34.781 -47.264,57.081 -6.855,13.97 -12.566,34.4 -7.797,49.92 6.465,21.05 18.016,10.96 32.451,1.65 34.29,-22.11 70.59,-40.04 106.99,-58.35"
         style="fill:#b82327;fill-opacity:1;fill-rule:nonzero;stroke:none"
         id="path30" />
      <path
         d="m 2819.49,1043.71 c 188.56,79.23 396.63,111.55 600.35,93.27 -28.32,37.29 -74.12,57.51 -119.92,67.2 -45.81,9.69 -93.02,10.33 -139.39,16.8 -86.06,12.01 -167.85,43.86 -250.1,71.89 -6.61,2.26 -13.99,4.46 -20.37,1.63 -5.38,-2.4 -8.67,-7.8 -11.62,-12.9 -10.57,-18.24 -21.13,-36.47 -31.7,-54.71 -6.4,-11.04 -12.86,-22.23 -16.25,-34.53 -3.35,-12.16 -3.57,-24.94 -3.77,-37.55 -0.56,-35.78 -1.11,-71.55 -1.67,-107.33 15.35,11.17 30.69,22.33 46.04,33.5"
         style="fill:#b82327;fill-opacity:1;fill-rule:nonzero;stroke:none"
         id="path32" />
      <path
         d="m 2471.07,3008.68 c 26.59,-8.05 52.87,-20.99 69.82,-43 5.25,-6.82 15.47,-14.85 20.53,-7.89 1.34,1.84 1.61,4.22 1.82,6.49 1.74,18.86 2.25,37.84 1.54,56.77 -0.13,3.7 -0.39,7.62 -2.46,10.69 -1.71,2.53 -4.44,4.15 -7.16,5.54 -29.09,14.86 -64.03,11.12 -95.58,19.58 -17.23,4.61 -33.23,12.81 -49.52,20.06 -25.15,11.19 -51.26,20.2 -77.95,26.91 -4.49,1.12 -9.14,2.19 -13.69,1.39 -4.8,-0.85 -8.97,-3.68 -12.98,-6.44 -17.03,-11.73 -34.07,-23.46 -51.1,-35.19 1.12,-12.4 -1.06,-68 9.9,-73.42 9.04,-4.47 53.18,19.29 65.03,22.14 47.09,11.34 95.34,9.42 141.8,-3.63"
         style="fill:#5dcbf5;fill-opacity:1;fill-rule:nonzero;stroke:none"
         id="path34" />
      <path
         d="m 1300.97,3012.26 c 25.7,-2.33 53.01,-6.73 72.08,-24.12 0.08,20.5 -0.79,41 -2.59,61.42 -0.58,6.53 -1.32,13.27 -4.62,18.93 -3.91,6.69 -10.85,10.94 -17.51,14.91 -15.37,9.17 -30.75,18.34 -46.12,27.51 -2.32,1.39 -4.74,2.8 -7.43,3.02 -3.77,0.31 -7.28,-1.77 -10.51,-3.75 -53.19,-32.53 -111.65,-56.41 -172.41,-70.42 -3.16,-0.73 6.62,-51 13.39,-53.76 8.56,-3.48 43.44,17.1 54.31,19.93 39.44,10.3 81.09,10 121.41,6.33"
         style="fill:#5dcbf5;fill-opacity:1;fill-rule:nonzero;stroke:none"
         id="path36" />
      <path
         d="m 1415.95,4847.16 c 37.87,-7.46 80.59,-18.36 98.76,-52.42 35.75,25.94 71.51,51.87 107.26,77.8 -132.15,11.51 -241.32,104.05 -364.18,154.06 -15.27,6.21 -31,11.83 -47.4,13.53 -19.53,2.01 -39.15,-1.61 -58.45,-5.22 -60.85,-11.39 -121.68,-22.84 -182.506,-34.36 -10.485,-1.98 -21.727,-4.37 -28.954,-12.22 -5.425,-5.9 -7.691,-13.96 -9.777,-21.7 -5.223,-19.33 -13.406,-40.53 -13.973,-59.95 84.16,-6.7 167.89,-4.23 252.26,-15.81 82.78,-11.37 165.11,-26.97 246.96,-43.71"
         style="fill:#5dcbf5;fill-opacity:1;fill-rule:nonzero;stroke:none"
         id="path38" />
      <path
         d="m 1027.55,4729.48 c -4.37,-33.38 -32.726,-57.71 -59.136,-78.59 -144.348,-114.11 -290.285,-226.22 -437.754,-336.28 39.574,114.61 120.063,208.53 205.477,292.09 32.203,31.5 67.527,78.17 106.929,99.91 15.633,8.63 185.854,33.39 184.484,22.87"
         style="fill:#5dcbf5;fill-opacity:1;fill-rule:nonzero;stroke:none"
         id="path40" />
      <path
         d="m 1143.31,2844.26 c 6.92,-18.47 14.82,-36.59 23.64,-54.24 -30.45,0.73 -59.4,13.62 -85.16,29.87 -15.86,10 -108.606,84.82 -58.73,95.59 18.95,4.09 40.43,-23.6 54.1,-33.42 11.03,-7.92 62.69,-28.55 66.15,-37.8"
         style="fill:#5dcbf5;fill-opacity:1;fill-rule:nonzero;stroke:none"
         id="path42" />
      <path
         d="m 2724.65,2848.89 c -3.43,-16.9 6,-33.35 11.96,-49.53 0.68,-1.83 1.32,-3.76 1.06,-5.7 -0.78,-5.89 -8.43,-7.52 -14.37,-7.74 -72.19,-2.68 -144.19,-10.65 -215.21,-23.85 23.46,22.88 38.54,56.27 71.34,65.1 15.98,4.3 142.31,7.38 145.22,21.72"
         style="fill:#5dcbf5;fill-opacity:1;fill-rule:nonzero;stroke:none"
         id="path44" />
      <path
         d="m 1776.32,3133.61 c 3.29,3.75 6.71,7.61 11.22,9.75 4.24,2.01 9.07,2.32 13.76,2.6 74.72,4.44 149.44,8.88 224.17,13.32 2.74,0.17 5.81,0.22 7.83,-1.65 2.16,-2 2.2,-5.36 1.87,-8.29 -3.19,-28.34 -25.09,-50.51 -46.07,-69.84 -2.89,-2.66 -5.87,-5.37 -9.5,-6.91 -4.07,-1.73 -8.62,-1.84 -13.05,-1.93 -17.79,-0.35 -35.59,-0.69 -53.39,-1.04 -42.8,-0.83 -85.69,-1.71 -128.43,1.3 -61.97,4.35 -39.32,27.45 -8.41,62.69"
         style="fill:#5dcbf5;fill-opacity:1;fill-rule:nonzero;stroke:none"
         id="path46" />
      <path
         d="m 984.141,2038.02 c -45.719,70.47 -66.317,154.06 -81.657,236.65 -2.445,13.17 -4.953,26.8 -12.476,37.89 -6.188,9.11 -15.289,15.77 -24.203,22.24 -22.196,16.1 -44.387,32.21 -66.578,48.32 7.781,-5.65 2.242,-109.24 4.082,-124.96 3.371,-28.73 4.277,-68.64 16.961,-95.42 11.992,-25.31 37.898,-36.23 60.589,-50.67 35.754,-22.75 70.254,-47.49 103.282,-74.05"
         style="fill:#5dcbf5;fill-opacity:1;fill-rule:nonzero;stroke:none"
         id="path48" />
      <path
         d="m 1573.35,1083.49 c 22.98,-19.86 45.97,-39.71 68.96,-59.56 6.32,-5.46 13.06,-11.65 14.31,-19.91 0.96,-6.372 -1.58,-12.68 -4.07,-18.618 -26.71,-63.781 -53.41,-127.55 -80.11,-191.32 64.51,42 129.02,84 193.53,126 33.07,21.539 66.7,43.34 104.46,54.816 37.75,11.481 80.86,11.454 114.49,-9.187 -52.39,-68.352 -100.61,-139.902 -144.3,-214.121 43.06,-28.57 102.13,-7.719 143.07,23.82 40.94,31.539 75.25,73.621 123.17,92.988 -35.7,-65.589 -65.62,-134.316 -89.31,-205.136 -82.33,14.66 -166.49,19.027 -249.9,12.957 -26.58,-1.93 -53.76,-4.867 -79.53,1.91 -19.03,5 -36.27,15.062 -53.25,25 -53,31.043 -106.01,62.09 -159.02,93.141 -30.07,17.609 -61.79,36.949 -77.07,68.269 -41.55,85.141 118.14,180.341 174.57,218.951"
         style="fill:#5dcbf5;fill-opacity:1;fill-rule:nonzero;stroke:none"
         id="path50" />
      <path
         d="m 2812.27,1276.58 c -7.86,-30.48 -15.72,-60.96 -23.57,-91.44 -5.53,-21.44 -11.16,-43.13 -21.72,-62.59 -9.6,-17.69 -22.99,-32.99 -36.26,-48.13 -20.55,-23.44 -41.09,-46.87 -61.64,-70.3 -27.68,-31.569 -56.35,-63.921 -93.92,-82.64 6.51,3.25 13.63,98 16.56,111.1 8.31,37.17 16.81,89.53 37.99,121.74 35.77,54.38 126.08,91.57 182.56,122.26"
         style="fill:#5dcbf5;fill-opacity:1;fill-rule:nonzero;stroke:none"
         id="path52" />
      <path
         d="m 3337.94,3741.93 c -13.32,-101.88 -26.63,-203.75 -39.95,-305.63 -15.46,-118.27 -31.63,-238.97 -84.25,-346.01 -14.37,-29.23 -31.41,-57.32 -41.96,-88.13 -9.59,-27.98 -13.59,-57.51 -17.55,-86.81 -13.42,-99.55 -26.84,-199.1 -40.26,-298.65 -26.76,7.16 -54.89,9.15 -82.38,5.81 -24.27,72.96 -15.98,152.28 -6.21,228.55 22.59,176.37 51.67,351.84 80.74,527.26 11.46,69.15 11.4,148.97 52.92,207.08 21.73,30.41 178.9,134.72 178.9,156.53"
         style="fill:#5dcbf5;fill-opacity:1;fill-rule:nonzero;stroke:none"
         id="path54" />
      <path
         d="m 655.98,3697.44 c -3.695,-48.1 0.84,-96.82 13.348,-143.41 45.442,39.81 87.824,83.11 126.649,129.39 18.535,-52.51 32.832,-106.51 42.699,-161.31 1.535,-8.53 2.941,-17.48 0.301,-25.73 -2.5,-7.82 -8.317,-14.05 -13.84,-20.12 -67.719,-74.43 -115.918,-166.46 -138.528,-264.51 -10.039,-43.54 -15.183,-88.41 -30.382,-130.43 5.836,16.14 -73.442,132.22 -83.774,155.9 -25.781,59.12 -47.379,121.08 -61.398,184.11 -23.961,107.74 73.781,201.88 144.925,276.11"
         style="fill:#5dcbf5;fill-opacity:1;fill-rule:nonzero;stroke:none"
         id="path56" />
      <path
         d="m 2067.65,1596.13 c -1.69,11.1 -4.78,22 -9.18,32.33 -1.54,3.62 -3.44,7.39 -6.87,9.31 -3.25,1.81 -7.2,1.59 -10.9,1.3 -71.32,-5.63 -141.98,-19.39 -210.2,-40.93 -14.35,-4.53 -28.68,-9.44 -41.91,-16.62 -16.58,-9 -31.06,-21.37 -45.4,-33.63 -22.56,-19.3 -52.01,-38.36 -70.11,-61.5 27.17,-0.13 65.98,24.7 92.67,34.39 33.1,12.01 66.62,22.86 100.47,32.52 16.49,4.71 200.44,48.77 201.43,42.83"
         style="fill:#5dcbf5;fill-opacity:1;fill-rule:nonzero;stroke:none"
         id="path58" />
      <path
         d="M 982.871,945.082 C 874.887,1071.06 785.477,1212.94 718.43,1364.71 725.066,1349.68 600.883,1203.99 586.719,1183.94 541.383,1119.78 496.551,1055.26 449.926,992.02 404.734,930.719 358.078,870.43 307.992,813.031 274.129,774.219 166.574,695.84 163.82,649.98 c 134.606,33.141 269.348,111.411 400.922,159.379 137.699,50.2 277.192,95.493 418.129,135.723"
         style="fill:#5dcbf5;fill-opacity:1;fill-rule:nonzero;stroke:none"
         id="path60" />
      <path
         d="m 1576.2,3031 -169.9,128.6 c 28.4,14.8 43.7,22.7 43.7,22.7 0,0 122.6,-79.4 127.8,-95.8 2.5,-8.2 0.8,-32.8 -1.6,-55.5 z m -62.3,-52.7 c 0,0 -41.2,26.8 -65.9,18.5 -9.6,-3.2 -32.5,-14.3 -58.6,-26.7 3.4,20.5 8.9,61.9 4.1,90.4 28.3,-8.1 53.5,-14.8 63.7,-16.3 28.9,-4.1 81.4,-34 81.4,-34 z m -163.8,-26.4 c -29.3,-13.2 -56.6,-24.1 -68.9,-24.1 -20.4,0 -79.9,-2.3 -125.6,1.4 -7.4,26.8 -20.6,79.1 -18.7,107.7 19,4.5 38.9,10.3 59.4,17.9 -10,-10.5 -16.2,-24.8 -16.2,-40.5 0,-32.4 26.3,-58.7 58.7,-58.7 32.5,0 58.7,26.3 58.7,58.7 0,32.2 -25.8,58.3 -57.9,58.7 6.2,3 12.5,6 18.8,9.3 7.8,4.1 15.4,8.1 22.8,12 0,0 39.9,-12.4 82.2,-25 2.8,-29.9 1.3,-83.4 -13.3,-117.4 z m 116.4,117 -134.8,51.9 c 15.9,8.3 30.4,15.8 43.3,22.5 z M 980.199,3052.5 925.602,3037 c 0,0 98.898,77.3 202.998,106.1 104,28.9 266.8,33 266.8,33 0,0 -177.2,-96.1 -247.2,-115 -70.1,-18.9 -168.001,-8.6 -168.001,-8.6 z M 1618,3100.9 c -22.7,21.6 -143.2,104 -168,106.1 -24.7,2.1 -230.8,-9.3 -334.8,-48.4 -104.1,-39.2 -208.098,-88.6 -300.899,-169 v -26.8 l 25.801,-12.3 c 0,0 96.796,80.3 141.097,75.2 22.601,-2.7 62.401,-4.4 112.101,2.8 0,-16.2 1.7,-53.5 15.9,-90.7 -17.6,7.3 -45.7,21.1 -69.7,35.2 -22.3,13.1 -41,26.7 -44.398,35.7 3.398,-12.3 26.698,-78.6 131.798,-96.4 116,-19.5 158.3,-22.6 202.6,0 44.3,22.7 135,78.3 172,45.4 l -31.9,-45.4 c 0,0 -35,32 -52.5,22.7 -17.6,-9.3 -40.2,-102 -145.3,-102 -105.1,0 -137.1,22.6 -159.7,55.6 0,0 -20.6,-46.3 75.2,-70 95.8,-23.7 163.8,-3.1 186.5,19.6 22.7,22.6 54.1,51.2 56.7,74.1 2.5,23 23.6,-22.6 41.2,-26.8 17.5,-4.1 79.3,83.5 79.3,83.5 0,0 23.6,47.9 23.6,48.3 -2,-17.2 -4,-30.8 -4,-30.8 l 3.1,-15.4 -66,-103.1 c 0,0 -6.2,-12.3 2.1,-35 8.2,-22.7 10.3,-23.7 1,-39.1 -9.3,-15.5 -74.2,-119.6 -86.5,-139.1 -12.4,-19.6 -273.1,-318.4 -273.1,-318.4 0,0 -6.1,-23.7 12.4,-13.4 18.5,10.3 181.3,183.4 239,250.4 57.7,66.9 95.9,151.4 106.2,164.8 10.3,13.4 36,39.2 34,54.6 -2.1,15.5 -6.2,60.8 -6.2,60.8 0,0 85.5,141.2 86.5,155.6 0,0 35,-52.6 55.7,-47.4 20.6,5.1 -38.2,117.4 -60.8,139.1"
         style="fill:#111011;fill-opacity:1;fill-rule:nonzero;stroke:none"
         id="path62" />
      <path
         d="m 2143.34,2253.02 -11.14,-16.1 c 0,0 64.38,-77.99 68.09,-112.66 3.71,-34.66 -39.62,-147.32 -39.62,-147.32 h -39.62 c 0,0 -32.18,47.04 -65.61,47.04 -33.43,0 -40.86,-49.52 -70.57,-86.66 -29.71,-37.14 -224.08,-16.1 -264.94,-4.95 -40.85,11.14 -78,107.71 -78,107.71 l -28.47,4.95 -91.62,-82.95 -60.66,40.85 86.66,185.71 -47.04,1.24 c 0,0 -39.62,-105.24 -55.71,-151.04 -16.1,-45.81 9.9,-66.86 9.9,-66.86 0,0 35.9,-13.62 75.52,-49.53 39.62,-35.92 74.28,-9.89 74.28,-9.89 l 58.19,30.95 c 24.76,-52 75.52,-48.51 75.52,-48.51 0,0 61.9,2.7 104,0.22 42.09,-2.47 151.04,16.1 163.42,27.23 12.38,11.13 43.33,48.29 43.33,48.29 0,0 27.24,-8.66 53.23,-19.8 26,-11.15 77.38,8.66 77.38,8.66 0,0 53.86,146.09 47.67,179.52 -6.19,33.42 -84.19,113.9 -84.19,113.9"
         style="fill:#111011;fill-opacity:1;fill-rule:nonzero;stroke:none"
         id="path64" />
      <path
         d="m 1054.58,3385.24 c 18.45,-2.64 253.01,-108.06 253.01,-108.06 0,0 118.59,-39.53 189.75,-54.02 71.16,-14.5 115.96,-59.3 115.96,-59.3 0,0 141,7.9 154.18,36.89 13.17,28.99 9.22,120.35 14.49,160.33 5.27,39.97 -36.89,125.62 -36.89,125.62 0,0 14.49,-105.42 14.49,-131.77 0,-26.36 -19.77,-29.65 -19.77,-29.65 0,0 -201.61,44.14 -254.32,59.96 -52.71,15.81 -226.65,73.79 -287.26,84.33 -60.62,10.54 -109.38,11.86 -167.36,-35.58 -57.973,-47.44 -134.403,-117.28 -134.403,-117.28 0,0 139.683,71.16 158.123,68.53"
         style="fill:#111011;fill-opacity:1;fill-rule:nonzero;stroke:none"
         id="path66" />
      <path
         d="m 2564.4,3055.7 c 0,0 -103.7,7.3 -163.7,32.8 -60,25.4 -94.6,41.8 -94.6,41.8 0,0 -64.6,-31.1 -105.5,-69.2 -40.9,-38.1 -69.1,-57.2 -69.1,-57.2 0,0 -24.6,27.3 52.7,82.7 77.3,55.5 130.1,77.3 130.1,77.3 0,0 203.7,-92.7 250.1,-108.2 z m -16.4,-80.9 c -6.4,-27.2 -28.6,-58.9 -37.8,-71.1 -56.1,-10 -104.9,-17.3 -144.5,-19.6 -21.2,10.6 -69.3,39.7 -86,91.6 -10.2,31.7 -3.5,61.4 6.4,84.2 l 53.6,32.2 c 13.3,-11.6 32.9,-21.1 55,-29 -22.9,-3.7 -40.4,-23.4 -40.4,-47.4 0,-26.6 21.6,-48.2 48.2,-48.2 26.6,0 48.2,21.6 48.2,48.2 0,14 -6.1,26.5 -15.6,35.3 42.3,-10.7 85.6,-16.5 108.3,-19.1 4.3,-11.5 10.2,-33.4 4.6,-57.1 z m -264.6,-83.7 c -51.9,20 -38.2,42.8 -60.1,71.9 -21.8,29.1 -59.1,23.6 -59.1,23.6 l 72.6,43.6 c -3.9,-24.9 -3.8,-63.2 22.9,-95.4 21.4,-25.9 39.9,-41.2 53.2,-50.1 -11.3,1.2 -21.4,3.3 -29.5,6.4 z m 467.1,511.3 c 0,0 -189.7,-31.7 -300.4,-62 -110.7,-30.3 -449.4,-102.7 -449.4,-102.7 l -9.2,25 v 210.8 l -24.2,-15.8 c 0,0 -10.1,-129.1 -7.4,-197.6 1.5,-40.5 27.5,-102.7 48.5,-146.7 l -35.9,-29.5 h -247.6 l -11.2,-15 c 0,0 198.1,-17.9 239,-8.4 0,0 2.5,-324.6 28.5,-504.2 2.2,-14.9 4.3,-30.2 6.5,-45.6 v -0.1 c 24.2,-170.5 49.2,-364 49.2,-364 h 18.5 c 0,0 -20.4,243.6 -31.6,387.1 -2.3,29.8 -4.2,55.3 -5.5,73.4 -7.4,105.2 -24.8,440.7 -24.8,440.7 l 29.6,35.7 c 7.1,-13.8 11.9,-22.4 11.9,-22.4 0,0 64.2,29.2 138.6,59.6 -17.1,-11.9 -33.6,-24.8 -47.6,-38.6 -62.7,-61.8 -5.4,-102.8 -5.4,-102.8 -19.1,-22.7 -4.6,-51.8 23.6,-55.4 28.2,-3.7 55.5,35.4 55.5,35.4 18.2,1.8 20.9,-45.5 33.6,-61.8 12.8,-16.4 91.9,-45.5 117.4,-45.5 25.4,0 214.6,22.7 262.8,37.3 3.4,1 6.2,2.1 8.6,3.1 h 0.1 c 3.2,1.4 5.7,2.9 7.5,4.3 l 0.1,0.1 c 15.5,12.5 -21.8,25.2 -21.8,25.2 -19,-3.7 -37.5,-7.2 -55.4,-10.6 8.7,13.7 20.6,36.2 21.8,57.9 1.1,21.9 -3.2,44.6 -6.5,58.2 89.7,-28.7 232,-23.6 232,-23.6 l -40.9,20.9 c 0,0 -97.3,23.6 -223.7,72.8 -82.6,32 -141,67.9 -171.6,89 127,33.7 311.7,70.8 311.7,70.8 13.2,-31.6 137,-93.5 137,-93.5 l 5.3,-25.1 35.6,13.2 c -22.4,87 -102.8,250.4 -102.8,250.4"
         style="fill:#111011;fill-opacity:1;fill-rule:nonzero;stroke:none"
         id="path68" />
      <path
         d="m 2621.67,2842.93 c 0,0 -110.95,-15.48 -208.26,-31.85 -97.32,-16.37 -106.41,1.82 -127.33,20.01 -20.91,18.18 -35.46,10 -35.46,10 0,0 28.19,-24.56 45.47,-39.11 17.28,-14.55 55.47,-28.19 85.49,-24.55 30.01,3.64 247.36,36.38 247.36,36.38 0,0 11.83,1.82 10.01,17.28 -1.82,15.46 -17.28,11.84 -17.28,11.84"
         style="fill:#111011;fill-opacity:1;fill-rule:nonzero;stroke:none"
         id="path70" />
      <path
         d="m 2279.52,2548.91 c -85.42,86.66 -107.71,184.47 -138.66,241.42 -30.95,56.95 -66.85,32.18 -66.85,32.18 0,0 -3.71,32.19 -8.05,55.72 -4.33,23.52 16.72,145.96 16.72,145.96 l -33.43,-6.62 -12.38,-201.25 c 0,0 38.38,-18.57 53.23,-18.57 14.86,0 70.57,-139.89 115.14,-217.89 44.57,-78 128.76,-149.8 159.71,-165.9 30.95,-16.09 61.9,-70.57 73.04,-80.47 11.14,-9.9 35.9,11.14 35.9,11.14 -2.47,28.48 -108.94,117.62 -194.37,204.28"
         style="fill:#111011;fill-opacity:1;fill-rule:nonzero;stroke:none"
         id="path72" />
      <path
         d="m 3410.5,2827.6 c -15.4,35.4 -35.1,67.1 -53.4,57.1 -37.9,-20.7 48.4,-139.6 48.4,-139.6 0,0 -28,-171.9 -33.9,-221.5 -5.8,-49.5 -209.8,-218.5 -300.1,-308.9 -53.6,-53.6 -91.8,-37.4 -114,-15.4 53.7,100 148.9,284.5 148.9,330.1 0,34.7 8,67 24.7,103.5 l 3.8,2.7 c 0,0 0.5,2.8 1.4,7.8 9.2,18.8 20.4,38.8 34.3,60.9 43.7,69.9 201,332.7 201,332.7 l 52.5,-66.9 c 0,0 -11.7,123.8 -61.2,124.2 -34.8,0.3 -122,-103 -171,-164.7 10.6,49.2 20.6,90.8 27.9,110.7 25.2,69.5 110.1,164.6 110.1,164.6 0,0 68,-82.9 94.2,-167.9 20.6,-66.8 -2.7,-168.8 -13.6,-209.4 z m -422.9,-988.7 c 3.9,-47.8 -9.9,-102.4 -16.9,-126.4 -26.4,0.7 -52.1,2.6 -76.9,5.2 0.8,86.7 5.5,375.9 36.3,431.5 2.5,4.3 5.4,9.6 8.7,15.6 8.9,-10.6 18.1,-17.5 27.3,-21.6 l -7.6,-165.4 c 0,0 24,-75.4 29.1,-138.9 z m -262.1,-729.5 c -14.1,-34.2 -118.7,-132.701 -118.7,-132.701 l 80.5,201.101 c 0,4.2 -1,7.3 -2.8,9.5 -12.4,15.9 -63.6,-13.5 -63.6,-13.5 l -87.3,-175.499 -0.1,-0.199 -59.6,-120 c -84.7,-60.301 -136.6,-164.903 -136.6,-164.903 0,0 -23.3,-3.199 -55.6,-8 h -0.1 c -44.9,-6.801 -107.3,-16.801 -149.4,-26.199 -72.4,-16.098 -173,-8 -253.4,16.102 C 1798.3,719.301 1683.7,679 1683.7,679 l -48.3,30.199 C 1723.9,749.398 1699.8,852 1699.8,852 l 92.5,267.5 -44.3,18.1 -189,-307.702 c -26.2,92.5 -119.2,108.602 -119.2,108.602 27.7,58.301 30.7,199.1 30.7,199.1 l -30.7,26.1 -130.2,-179.001 C 1074.3,1002.8 974.699,1218 974.699,1218 c 39.201,36.2 73.401,100.6 73.401,100.6 l -73.401,36.2 -39.199,-50.3 c -46.898,39.8 -65.699,134.8 -72.602,187.1 24,-22.5 62.102,-53.3 94.704,-58.4 52.298,-8 150.898,22.2 199.098,32.2 48.3,10.1 144.8,0 144.8,0 0,0 20.2,-34.2 36.2,-32.2 16.1,2.1 44.3,16.1 44.3,16.1 0,0 0,0 10,-16.1 10.1,-16 150.9,38.3 150.9,38.3 0,0 10,-24.2 32.2,-34.2 22.1,-10.1 66.3,10 66.3,10 0,0 6.1,-16.1 26.2,-44.2 20.1,-28.2 90.5,-2 90.5,-2 14.1,-42.3 50.3,-52.3 179,-56.4 128.7,-4 126.7,-46.2 148.8,-26.1 22.1,20.1 -4,110.6 -4,110.6 l 44.2,-2 c 0,0 44.3,-36.2 146.9,-38.2 102.5,-2 156.8,56.3 156.8,56.3 0,0 175,-16.1 193.1,28.2 18.1,44.2 -63.2,92.5 -63.2,92.5 0,0 208,-12.1 293.6,6 19.2,4.1 43.3,10.8 69.9,19 -18.6,-43.6 -47.1,-111 -69.9,-167.8 -2.1,-5.2 -4.3,-10.8 -6.7,-16.6 -38.9,-96.6 -107.8,-264.9 -121.1,-297.2 z M 2604.6,904.5 c 46.2,48.602 121.2,130.1 191.9,217.6 -0.9,-151.299 1.1,-597.6 1.1,-597.6 z M 2517.8,507.102 C 2479.9,338 2462.4,64.1016 2462.4,64.1016 c 0,0 -241.8,125.2964 -387.5,215.6994 -31,19.199 -74.2,43.301 -123,69.398 -180.2,96.301 -436.6,219.102 -436.6,219.102 0,0 -340,244.699 -424.9,335.097 -85,90.301 -297.701,265.202 -300.701,422.502 -0.801,47.5 -2.597,142.2 -4.5,251.3 -3.801,206.1 -8.398,463.6 -10,551.2 l 30.903,-22.1 c 10.296,-85.4 30.296,-293.8 8.199,-492 -0.403,-3.3 -0.699,-6.5 -1,-9.7 C 788.898,1354.2 913.398,1254.2 913.398,1254.2 967.699,980.699 1237.2,944.5 1237.2,944.5 L 1355.8,844 c 0,0 239.4,-148.898 299.7,-183.102 60.4,-34.199 197.1,2.004 197.1,2.004 83.9,-36.004 283.6,-26.101 283.6,-26.101 0,0 45,6.199 97.3,14.801 59.5,9.796 128.5,22.796 152.1,33.5 44.2,20.097 36.2,66.296 70.4,92.5 15.3,11.699 37.8,29.097 57.9,44.699 10.8,-48.801 34,-181.102 3.9,-315.199 z M 728.301,2253 c -34.102,35 -215.199,182.6 -215.199,255.6 0,73 10.097,207.8 -18.102,246 h -34.102 l 8,-46.2 -74.398,134.9 c 0,0 10,149.6 50.301,174.3 0,0 144.801,-160.1 185,-207.5 25.398,-30 63.597,-46.6 88.398,-54.8 -3.301,-24.1 -5.398,-44.9 -5.898,-61 -3.602,-113.1 -27.199,-206 65.199,-307.3 l 19.199,-198.5 c -21,18.9 -49.097,44.8 -68.398,64.5 z m -257.403,841.3 c 0,0 88,-56.8 122.704,-89.5 l 143.796,-135.5 c -4.296,-22.4 -8.199,-44 -11.597,-64.3 -31.801,30.6 -96.903,92.2 -138.199,122.1 -56.403,40.7 -102.602,106.7 -130.801,109.9 -28.102,3.2 -56.102,-16.9 -50.301,-48.9 0,0 -30.102,73.8 64.398,106.2 z m 57.602,809.3 c 2.301,73.4 91.801,275.3 91.801,275.3 H 595 L 484.898,3988.5 c 0,0 27.5,252.4 105.5,403.8 78.102,151.4 201.903,257 263.903,300.59 61.898,43.61 25.199,84.81 -6.903,59.61 -32.097,-25.2 -41.296,13.8 -41.296,13.8 0,0 34.398,75.7 55.097,98.59 20.602,23 146.801,32.21 146.801,32.21 l 6.9,43.5 -80.298,-16 c 0,0 9.199,43.6 29.796,61.9 20.704,18.39 222.602,45.89 222.602,45.89 l 348.7,-188.09 c 0,0 -468,-192.7 -639.2,-660.8 -171.301,-468 -82.199,-681.4 -82.199,-681.4 C 791,3482 771,3456.2 753.801,3427.6 c -74.5,-124.6 -94.5,-303 -94.5,-303 -24.602,75.1 -44.903,152.7 -61.602,228.6 -56.398,256.6 -71,493.7 -69.199,550.4 z m 358.699,-2178.7 13.199,-38.1 18.204,-52.7 c -8.903,-7.1 -16.801,-14.2 -23.704,-21.1 l -4.5,64.6 v 0.1 z m 142.401,-25 c -6.4,-2.9 -12.9,-6 -19.7,-9.2 -8.2,-4 -15.9,-8 -23.298,-12 -5.204,14.4 -13.704,38.2 -23.102,65.7 -17,49.9 -36.699,111.8 -44.102,150.6 -14.097,73.5 -49.898,165.7 -49.898,165.7 l -60.898,295.8 c 4.597,-4 9.296,-8.1 14.296,-12.2 14.903,-12.2 28.704,-23.2 41.5,-33.2 l 142.702,-528 z m 607.8,-208.3 -28.1,8 14,56.3 146.9,42.3 z m 154.9,74.4 244.6,44.2 28.9,-44.2 118.7,-39.9 c 0,0 -30.2,-74.8 -70.4,-74.8 -40.3,0 -116.2,14.1 -178.8,14.1 -62.6,0 -126.9,-2 -197.3,-32.2 -70.4,-30.1 -80.5,18.1 -80.5,18.1 z m 557.1,124.7 c -76.4,20.1 -203.1,80.4 -203.1,80.4 l -32.2,-10 c 0,0 285.6,-195.1 412.3,-211.2 0,0 -122.7,-12.1 -257.5,34.2 -134.7,46.2 -259.4,150.8 -259.4,150.8 l -158.9,-44.2 2,30.1 c 0,0 -86.5,-16 -189,-84.4 -99.1,-66.1 -285.9,-147.1 -298.4,-152.6 9.2,5.5 105.3,63.4 120,128.4 l 53.4,32.2 v 24.2 c 0,0 -64.1,-10.6 -110.4,-43.5 -46.2,-33 -187.5,-105.4 -267.7,-73.2 0,0 -132.5,-34.2 -185.801,-36.2 -53.301,-2 -105.199,-10.1 -105.199,-10.1 l 15.699,20.5 128.701,126.4 c 0,0 68.4,52.3 211.2,52.3 142.8,0 241.4,76.4 241.4,76.4 l 124.7,-46.3 144.7,58.2 c -1.1,-2.7 -20.6,-50.4 32.2,-60.2 54.3,-10 89.6,68.4 122.2,76.4 0,0 22.7,-32.1 101.1,-28.1 0,0 10.5,-42.3 45.5,-32.2 34.9,10.1 34.9,60.3 34.9,60.3 l -18.1,28.2 c 0,0 134.8,8 239.4,-14.1 104.6,-22.1 181,-30.2 285.6,-74.4 104.3,-44.1 333,-96.3 387.8,-82.6 -7.3,-3.7 -152.4,-73.8 -301.4,-41.3 -152.8,33.4 -239.3,45.5 -315.7,65.6 z m 6,-248.3 c 0,0 -76.5,-51.1 -150.8,-19.1 l 88.5,38.1 z m -104.8,115.5 c 0,0 137,-26.1 223.3,-31.8 82.3,-5.3 77.1,16.6 76.5,18.7 56,-51.2 34.3,-61.3 34.3,-61.3 -110.6,-78.5 -334.1,74.4 -334.1,74.4 z m 792.5,1544.2 c 4.6,-81.8 -9.2,-149.9 -32.1,-250.1 -21.7,-94.7 -16.7,-278.1 36.2,-274.6 -23,-39.9 -69.4,-115.1 -124.3,-176.2 0,0 -54.7,-282.6 -69.6,-370.1 -12.6,-73.6 -43.5,-246.4 -53,-299.1 -45.3,8.9 -83.1,19.2 -109,27.1 -92.5,28.1 -311.7,130.7 -398.2,163.4 -86.5,32.6 -241.4,0 -241.4,0 -15,-42.4 -96.5,-38.7 -130.7,-38.7 -34.2,0 -154.9,-16.1 -207.3,-14.1 -52.3,2 -56.2,52.8 -56.2,52.8 0,0 -130.7,-64.9 -177,-107.1 -46.2,-42.3 -257.4,-76.5 -257.4,-76.5 0,0 -31.4,21.8 -135.4,-15.3 l -26,107.1 -99.802,411.2 c 35.5,-21.8 48.402,-24.3 48.402,-24.3 l 21.7,24.2 c 0,0 -150.801,110.6 -209.102,183 -58.398,72.4 -88.5,197.1 -60.398,374.1 27.199,170.4 58.102,436.2 60.199,455.4 -3.699,-14.6 -43.097,-175.7 -73.801,-326.7 l -27.699,39.9 c 0,0 6.903,337.3 114.699,447.4 l 25.301,71.8 c 0,0 -0.097,0.7 -0.398,2 -5.102,29.1 -61.903,374.5 85.301,701.7 153.698,341.9 646.998,594.2 646.998,594.2 l 43.6,-29.8 c 0,0 248.2,2.3 330.6,29.8 0,0 73.2,-78 98.4,-156 25.2,-78 149.1,-162.9 185.8,-149.1 36.8,13.8 105.6,45.89 174.4,139.89 68.8,94.11 247.8,149.21 247.8,149.21 0,0 120.6,-87.21 179.6,-105.6 59,-18.3 153.1,-107.8 189.8,-243.2 9.5,-34.8 16,-67.7 21.1,-98.1 14.9,-87.8 18.1,-153.9 45.4,-179.5 0,0 34.4,-273 0,-495.6 0,0 25.3,-135.3 -11.4,-243.2 -34,-99.5 -56.1,-202.3 -55.7,-281.9 v -0.1 c 0,-6.6 0.2,-13 0.6,-19.3 z M 1577,5174.7 c 87.2,11.4 289.1,-55.1 337.3,-23 0,0 176.6,-199.6 231.7,-160.6 0,0 9.2,36.7 0,66.6 -9.2,29.8 -94.1,146.8 -160.6,146.8 0,0 -103.2,-11.5 -151.4,0 l 11.4,25.2 289.1,-16 c 0,0 59.7,-52.81 101,-34.4 0,0 78.5,-56.8 181.2,-268.5 0,0 75.7,-68.8 130.8,-20.6 0,0 55.1,-27.6 29.8,25.19 -25.2,52.81 -73.4,201.91 -73.4,201.91 0,0 176.7,-49.2 220.3,-65.91 43.6,-16.69 110.1,-85.5 162.9,-236.89 l 41.3,-11.5 c 0,0 199.6,-142.3 279.9,-215.7 42,-38.41 104.6,-102.41 148,-188.6 39.6,-78.7 63.1,-175.8 40.1,-288.6 -48.2,-236.3 -59.6,-268.4 -59.6,-268.4 0,0 -23,-11.5 -62,-208.8 -29.1,-147.3 -67.2,-347.5 -84.7,-439.5 v -0.1 c -5.9,-31.2 -9.4,-50 -9.4,-50 l -25.2,-18.7 -61.9,-471.4 -36.7,-29.8 c 0,0 55,434.2 48.1,519.9 0,0 0.7,3.6 1.9,10.2 10.8,59.6 65.4,367.6 71.6,539 6.8,190.5 11.4,413 -39.1,504.8 0,0 -7.2,61.6 -20.9,137.09 v 0.11 c -17.3,95.39 -45.2,212.8 -82.3,255.1 -66.5,75.7 -282.2,153.7 -314.3,190.4 l -66.6,18.39 c 0,0 -151.4,-29.79 -220.2,-121.59 -68.8,-91.8 -133.1,-165.2 -181.3,-156 -48.1,9.2 -114.7,36.7 -192.7,217.9 0,0 -82.6,128.5 -257,185.9 l -16,-13.8 c 0,0 -190.4,142.3 -302.9,121.59 0,0 4.6,130.81 91.8,142.31 z M 3438.6,3092.1 c 0,0 -52.5,120.1 -102.2,148.1 1.1,5.9 2.3,12.4 3.6,19.5 18.8,104.1 58.6,332.9 72.5,476.4 18.3,190.5 48.2,550.7 0,658.5 -2.6,5.9 -6.1,12.5 -10.2,19.6 -70.1,122 -338.6,404.8 -338.6,404.8 0,0 -18.3,112.5 -84.9,176.7 -66.5,64.3 -394.6,218 -564.4,181.3 0,0 -236.3,89.39 -371.6,84.89 -135.4,-4.59 -229.5,0.11 -229.5,0.11 l -27.5,-46 c 0,0 -174.4,18.3 -224.9,-2.3 -50.4,-20.7 -121.5,-55.1 -121.5,-156 0,0 -167.5,27.5 -316.7,2.3 -149.098,-25.3 -174.302,-29.9 -190.399,-48.2 -16.102,-18.41 -48.199,-107.91 -48.199,-107.91 0,0 -50.5,18.41 -87.204,-66.5 -36.699,-84.89 -45.796,-123.89 -11.398,-126.19 0,0 -158.301,-123.9 -263.898,-348.7 -105.5,-224.9 -100.903,-484.1 -71.102,-738.8 11.898,-101.4 21.898,-206 29.699,-295.1 7.403,-84.7 12.801,-155.4 15.801,-196.3 -49.199,2.4 -113.602,-2.6 -125.699,-114.7 -12,-112.1 -22.102,-186.6 -22.102,-186.6 l 30.199,-36.2 c 0,0 40.102,-134.7 106.5,-138.7 0,0 -46.296,-136.8 0,-207.2 40,-60.7 221.903,-251.5 271.204,-302.8 -16.403,-17.8 -41.301,-59.2 -65.403,-155.8 -40.801,-163.2 -157.398,-574 -137,-635.2 0,0 -169,-154.5 -282.699,-358.498 C 157.398,792.602 110.801,737.301 110.801,737.301 L 0,553.699 h 102 l 413.801,459.201 224.398,248.9 c 0,0 193.301,-317.601 350.201,-425.499 156.9,-107.801 442.4,-370 646.4,-477.903 40,-21.199 92.2,-47.796 150.2,-77 C 2124.4,161.898 2459.5,0 2459.5,0 l 43.7,29.1016 c 0,0 37.2,384.6994 56.5,577.0004 13.3,132.699 2.2,211.296 -6,247.296 3.7,2.903 6,4.602 6,4.602 0,0 7.8,7.898 21,21.602 46.4,-109.2 188.3,-432.204 234.3,-410.403 46.5,22 33.5,544.801 28.1,712.301 16.6,21.9 32.4,43.9 47.1,65.4 79.8,-43.5 267.2,-34.6 267.2,-34.6 l 231.7,-55.4 49.5,46.6 -476.4,170 c 51,116.1 47,201 39.2,243.7 73.4,26.2 147.5,56.3 180.6,73.5 58.4,30.1 44.3,62.3 44.3,62.3 -54.2,-21.9 -111.8,-33.5 -168.6,-38.2 -12.5,-1 -25.1,-1.7 -37.5,-2.1 7,50.7 -14.1,209.8 -14.1,209.8 0,0 -9.9,57 -19.7,89.6 -7.2,24.1 7,93.2 14.9,127.5 34.2,6.7 61.4,39 61.4,39 0,0 297.3,231.4 342.8,313 45.5,81.6 33.1,256.4 33.1,256.4 0,0 -6.8,24.4 -17.3,52.6 20.2,32.7 52.6,94.6 54.9,156.8 3.3,90.8 -37.6,134.7 -37.6,134.7"
         style="fill:#111011;fill-opacity:1;fill-rule:nonzero;stroke:none"
         id="path74" />
      <path
         d="m 1268.99,3030.98 c 0,-11.2 -9.08,-20.29 -20.29,-20.29 -11.21,0 -20.29,9.09 -20.29,20.29 0,11.21 9.08,20.3 20.29,20.3 11.21,0 20.29,-9.09 20.29,-20.3"
         style="fill:#ffffff;fill-opacity:1;fill-rule:nonzero;stroke:none"
         id="path76" />
      <path
         d="m 2432.36,3024.19 c 0,-7.46 -6.04,-13.5 -13.5,-13.5 -7.45,0 -13.49,6.04 -13.49,13.5 0,7.45 6.04,13.49 13.49,13.49 7.46,0 13.5,-6.04 13.5,-13.49"
         style="fill:#ffffff;fill-opacity:1;fill-rule:nonzero;stroke:none"
         id="path78" />
      <path
         d="m 3656.88,2285.32 c -5.9,0.53 -11.94,-4.3 -18.11,-14.49 -6.17,-10.2 -11.54,-23.07 -16.1,-38.63 -4.56,-15.57 -8.19,-28.77 -10.86,-39.64 -2.69,-10.87 -4.7,-20.32 -6.04,-28.37 v -3.22 c 19.85,13.95 36.22,35.82 49.09,65.6 10.47,24.67 13.69,42.25 9.66,52.72 -1.61,3.75 -4.16,5.76 -7.64,6.03 z m 14.09,16.9 c 16.36,-2.15 24,-13.82 22.93,-35.01 -1.34,-23.88 -11.81,-49.5 -31.39,-76.86 -16.64,-23.34 -35.81,-41.05 -57.55,-53.12 -1.35,-59.3 1.48,-91.09 8.46,-95.38 -2.16,-6.44 -8.25,-12.14 -18.31,-17.1 -10.07,-4.97 -18.99,-7.58 -26.77,-7.85 -9.66,-0.27 -17.44,4.9 -23.34,15.49 -5.91,10.6 -9.66,24.48 -11.27,41.65 -1.61,17.17 -2.41,36.62 -2.41,58.36 0,21.72 1.01,43.66 3.02,65.79 2.01,22.14 3.68,43.4 5.03,63.79 1.33,20.39 2.55,37.76 3.62,52.12 1.07,14.34 0.66,24.74 -1.21,31.18 1.07,0.27 2.55,0.54 4.43,0.81 1.88,0.26 5.43,0.53 10.67,0.8 5.23,0.27 10.19,0.07 14.89,-0.6 4.69,-0.68 9.85,-2.21 15.49,-4.63 5.63,-2.41 10.39,-5.63 14.28,-9.66 3.89,-4.02 6.98,-9.79 9.26,-17.3 2.28,-7.52 3.02,-16.37 2.21,-26.56 -0.8,-10.47 -1.6,-22.81 -2.41,-37.03 17.44,37.03 37.56,54.06 60.37,51.11"
         style="fill:#111011;fill-opacity:1;fill-rule:nonzero;stroke:none"
         id="path80" />
      <path
         d="m 3852.46,1955.33 c 5.36,16.63 7.98,34.34 7.84,53.12 -0.13,18.78 -1.4,33.14 -3.81,43.06 -2.42,9.92 -5.1,19.04 -8.05,27.36 -0.55,-54.46 0.8,-95.64 4.02,-123.54 z m 69.22,216.5 8.05,-4.82 -69.22,-87.73 c 6.97,-29.25 11.27,-55.54 12.88,-78.88 1.6,-23.35 1.27,-41.38 -1.01,-54.13 -2.28,-12.74 -5.84,-23.6 -10.67,-32.59 -4.82,-8.99 -8.98,-14.96 -12.47,-17.91 -3.49,-2.95 -6.71,-4.97 -9.66,-6.04 -4.02,-1.87 -8.86,-3.08 -14.49,-3.62 -10.46,-0.81 -18.85,6.31 -25.15,21.33 -6.31,15.02 -10.26,34.07 -11.87,57.14 -1.61,23.08 -2.76,48.16 -3.42,75.26 -0.67,27.09 -0.47,52.31 0.61,75.65 -14.5,-41.04 -36.63,-61.03 -66.41,-59.96 -12.07,0.53 -21.12,5.49 -27.16,14.89 -6.04,9.39 -9.26,20.99 -9.66,34.81 -0.41,13.82 0.06,27.57 1.41,41.25 1.34,13.69 2.88,26.42 4.63,38.23 1.74,11.8 2.2,19.05 1.4,21.73 0.8,0.27 1.95,0.47 3.42,0.6 1.48,0.14 4.29,0.27 8.46,0.41 4.15,0.13 8.05,0 11.67,-0.41 3.62,-0.4 7.58,-1.34 11.86,-2.81 4.3,-1.48 7.91,-3.49 10.87,-6.04 2.95,-2.55 5.17,-6.17 6.64,-10.86 1.48,-4.7 1.81,-10.27 1.01,-16.7 -6.98,-49.1 -7.38,-76.2 -1.21,-81.3 3.76,-2.95 9.92,0 18.51,8.86 15.02,15.29 22.54,40.91 22.54,76.86 l -0.81,16.1 c 1.08,0.27 2.42,0.61 4.03,1.01 1.61,0.4 4.69,0.8 9.25,1.2 4.56,0.41 8.99,0.47 13.29,0.2 4.28,-0.27 8.98,-1.4 14.08,-3.41 5.1,-2.02 9.46,-4.9 13.08,-8.66 3.63,-3.76 6.7,-9.19 9.26,-16.3 2.54,-7.11 3.68,-15.63 3.42,-25.55 0,-4.83 -0.07,-13.42 -0.21,-25.75 -0.13,-12.35 -0.19,-22.01 -0.19,-28.98 13.41,14.49 26.22,28.98 38.43,43.46 12.2,14.49 21.13,25.35 26.75,32.6 l 8.06,10.86"
         style="fill:#111011;fill-opacity:1;fill-rule:nonzero;stroke:none"
         id="path82" />
      <path
         d="m 3989.69,2172.64 c -5.1,1.61 -10.87,0 -17.31,-4.83 0.54,-1.08 1.62,-2.42 3.23,-4.03 2.14,-2.15 4.42,-3.76 6.83,-4.83 1.34,-1.07 2.83,-1.74 4.43,-2.01 3.22,-0.8 4.96,-1.2 5.23,-1.2 3.22,-0.81 6.44,-1.21 9.66,-1.21 -1.88,10.19 -5.9,16.23 -12.07,18.11 z m -29.79,-93.36 c 6.71,-2.16 13.82,0.6 21.33,8.24 7.51,7.65 13.28,17.91 17.31,30.79 1.07,3.22 2.15,7.51 3.22,12.88 -5.37,-0.54 -9.52,-0.67 -12.47,-0.4 -0.55,0 -1.42,0.06 -2.62,0.2 -1.21,0.13 -2.28,0.26 -3.22,0.4 -0.94,0.13 -1.81,0.33 -2.62,0.6 -1.87,0.27 -4.7,0.94 -8.45,2.02 -4.57,1.34 -9.25,3.75 -14.08,7.24 -1.61,1.07 -2.68,1.87 -3.22,2.42 -0.54,-1.35 -1.89,-4.7 -4.02,-10.07 -4.03,-12.87 -5.17,-24.62 -3.42,-35.21 1.74,-10.6 5.83,-16.97 12.26,-19.11 z m 131.2,101.81 4.83,-8.45 c -1.35,-1.08 -3.22,-2.42 -5.64,-4.02 -0.27,-0.28 -0.8,-0.61 -1.61,-1.01 -0.8,-0.4 -1.33,-0.74 -1.61,-1.01 l -3.61,-2.41 c -0.27,-0.27 -0.88,-0.68 -1.82,-1.21 -0.94,-0.54 -1.68,-0.94 -2.2,-1.21 -0.55,-0.27 -1.35,-0.8 -2.43,-1.6 -1.07,-0.81 -1.87,-1.35 -2.41,-1.62 -2.96,-1.34 -4.7,-2.28 -5.23,-2.81 -0.54,-0.55 -1.48,-1.15 -2.82,-1.82 -1.34,-0.67 -2.28,-1.14 -2.82,-1.4 -0.26,-0.27 -0.74,-0.61 -1.4,-1.01 -0.68,-0.4 -1.15,-0.6 -1.41,-0.6 l -1.61,-0.81 c -0.28,0 -0.54,-0.14 -0.8,-0.4 -0.28,-0.27 -0.55,-0.4 -0.81,-0.4 -1.08,-0.27 -2.15,-0.8 -3.22,-1.61 -1.08,-0.27 -2.15,-0.81 -3.22,-1.61 -2.96,-1.34 -7.65,-3.36 -14.08,-6.04 -4.03,-1.61 -8.99,-3.36 -14.89,-5.23 -0.81,-0.27 -1.96,-0.6 -3.42,-1.01 -1.49,-0.4 -2.49,-0.6 -3.03,-0.6 -0.8,-4.83 -2.01,-9.66 -3.61,-14.49 -6.71,-20.92 -18.12,-36.96 -34.21,-48.09 -16.1,-11.13 -32.33,-14.15 -48.7,-9.05 -16.37,5.09 -27.9,16.83 -34.6,35.21 -6.71,18.38 -6.71,38.16 0,59.36 6.7,20.92 18.1,36.95 34.2,48.09 16.1,11.13 32.33,14.15 48.7,9.06 10.99,-3.5 19.98,-10.54 26.96,-21.13 6.97,-10.6 11,-22.88 12.07,-36.82 h 1.21 c 6.7,1.33 11.26,2.27 13.68,2.81 2.14,0.27 6.57,1.47 13.29,3.62 1.6,0.54 2.67,0.94 3.21,1.21 1.61,0.53 2.67,0.8 3.22,0.8 l 1.61,0.81 c 0.27,0 0.53,0.06 0.8,0.2 0.27,0.14 0.54,0.2 0.81,0.2 0.27,0.27 0.74,0.54 1.41,0.81 0.66,0.26 1.13,0.4 1.41,0.4 l 6.03,2.42 c 1.61,0.53 3.35,1.2 5.24,2.01 2.13,1.07 3.75,1.74 4.82,2.01 2.15,1.07 3.62,1.74 4.43,2.01 0.27,0.27 0.87,0.6 1.81,1.01 0.94,0.4 1.54,0.74 1.82,1 l 3.61,1.21 6.04,3.22"
         style="fill:#111011;fill-opacity:1;fill-rule:nonzero;stroke:none"
         id="path84" />
      <path
         d="m 4220.28,2172.64 8.85,-6.44 c -0.8,-2.15 -1.87,-4.9 -3.21,-8.25 -1.35,-3.36 -4.37,-10.06 -9.05,-20.12 -4.7,-10.06 -9.6,-19.59 -14.7,-28.57 -5.1,-9 -11.6,-18.92 -19.51,-29.78 -7.92,-10.87 -15.97,-20.13 -24.15,-27.77 -8.19,-7.65 -17.65,-13.88 -28.37,-18.71 -10.73,-4.83 -21.47,-6.85 -32.2,-6.04 -6.43,0.27 -11.94,3.49 -16.49,9.66 -4.57,6.17 -7.99,15.22 -10.27,27.16 -2.28,11.94 -4.02,24.35 -5.23,37.22 -1.21,12.89 -1.68,28.51 -1.41,46.89 0.27,18.37 0.67,34.67 1.2,48.9 0.54,14.21 1.35,30.85 2.43,49.9 -1.62,0 -3.9,-0.07 -6.85,-0.21 -2.95,-0.13 -5.1,-0.33 -6.44,-0.6 -5.9,0 -10.2,-0.14 -12.88,-0.4 h -18.91 -5.64 -1.6 l -1.21,12.47 c 0.54,0 1.21,0.13 2.01,0.41 0.28,0 2.01,0.26 5.24,0.8 1.33,0.27 2.95,0.54 4.82,0.8 1.88,0.27 4.23,0.61 7.04,1.02 2.82,0.4 5.17,0.73 7.05,1 0.8,0 2.68,0.2 5.63,0.6 2.95,0.41 5.23,0.74 6.84,1.01 2.95,0.53 7.65,1.07 14.08,1.61 0.54,0.26 1.08,0.4 1.62,0.4 3.48,53.12 4.16,83.71 2.01,91.76 1.07,0.26 2.41,0.53 4.02,0.8 1.61,0.27 4.77,0.47 9.46,0.6 4.69,0.14 9.12,-0.06 13.29,-0.6 4.15,-0.54 8.71,-1.88 13.68,-4.03 4.96,-2.14 9.18,-5.02 12.67,-8.65 3.49,-3.62 6.24,-8.79 8.25,-15.49 2.02,-6.71 2.61,-14.62 1.81,-23.74 -0.27,-4.83 -0.95,-16.64 -2.01,-35.42 1.06,0 2.95,0.07 5.63,0.2 2.68,0.14 4.57,0.2 5.64,0.2 2.95,0.27 7.1,0.41 12.47,0.41 1.34,0 3.22,0.06 5.63,0.2 2.43,0.13 4.17,0.2 5.24,0.2 h 8.45 7.24 l 0.81,-12.48 c -1.61,-0.54 -3.89,-1.07 -6.84,-1.61 -2.41,-0.53 -5.24,-0.94 -8.45,-1.2 -1.08,0 -2.75,-0.2 -5.04,-0.61 -2.27,-0.4 -4.09,-0.74 -5.43,-1 -1.35,0 -3.42,-0.2 -6.24,-0.6 -2.81,-0.41 -5.03,-0.75 -6.64,-1.01 -1.07,0 -3.15,-0.2 -6.23,-0.61 -3.09,-0.4 -5.44,-0.74 -7.04,-1 -1.08,-21.2 -1.89,-44.54 -2.42,-70.03 0.26,-48.83 0.67,-76.32 1.21,-82.49 1.87,-22 6.57,-32.87 14.08,-32.6 3.49,0 7.51,1.87 12.08,5.64 7.77,6.43 17.03,17.96 27.76,34.6 10.73,16.64 19.46,31.8 26.17,45.48 l 10.05,20.12"
         style="fill:#111011;fill-opacity:1;fill-rule:nonzero;stroke:none"
         id="path86" />
      <path
         d="m 4403.79,2160.17 8.86,0.4 c 3.75,-0.81 5.09,-2.96 4.02,-6.45 0,-0.26 -0.95,-3.61 -2.82,-10.05 -1.88,-6.44 -3.89,-13.42 -6.04,-20.93 -2.14,-7.52 -5.23,-16.7 -9.25,-27.56 -4.03,-10.87 -8.26,-21.27 -12.68,-31.2 -4.42,-9.92 -9.85,-19.99 -16.3,-30.18 -6.43,-10.19 -13.07,-18.91 -19.92,-26.15 -6.84,-7.25 -14.69,-13.09 -23.54,-17.51 -8.85,-4.43 -17.97,-6.37 -27.37,-5.84 -7.23,0.27 -13.28,2.62 -18.1,7.05 -4.84,4.42 -8.19,10.53 -10.06,18.31 -1.89,7.78 -3.09,16.09 -3.63,24.95 -0.54,8.85 -0.2,19.17 1.01,30.99 1.2,11.8 2.48,22.46 3.82,31.99 1.34,9.52 2.88,20.18 4.63,31.99 1.75,11.81 3.02,20.93 3.83,27.37 -16.91,0.26 -30.26,1.81 -40.05,4.63 -9.8,2.81 -16.03,6.36 -18.71,10.66 -2.69,4.29 -4.37,9.12 -5.03,14.49 -0.68,5.36 -0.4,10.93 0.81,16.7 1.2,5.76 0.73,11.47 -1.42,17.1 1.61,0.81 3.69,1.61 6.24,2.41 2.55,0.81 7.11,1.75 13.68,2.82 6.58,1.07 12.34,1.07 17.31,0 4.96,-1.07 9.26,-4.16 12.88,-9.25 3.62,-5.1 5.03,-12.48 4.23,-22.14 -0.55,-6.98 5.22,-10.46 17.3,-10.46 4.29,0.26 8.58,0.26 12.87,0 4.29,-0.27 9.4,-1.41 15.3,-3.42 5.89,-2.01 10.8,-4.9 14.68,-8.65 3.89,-3.76 7.04,-9.33 9.47,-16.7 2.41,-7.39 2.95,-16.04 1.61,-25.96 -6.45,-49.37 -9.4,-79.42 -8.86,-90.15 0.54,-20.38 7.51,-23.34 20.93,-8.85 9.38,9.93 18.31,25.69 26.76,47.29 8.45,21.59 14.55,40.7 18.31,57.34 l 5.23,24.96"
         style="fill:#111011;fill-opacity:1;fill-rule:nonzero;stroke:none"
         id="path88" />
      <path
         d="m 4579.65,2044.67 c -2.16,-6.44 -8.25,-12.14 -18.31,-17.11 -10.07,-4.96 -18.99,-7.58 -26.77,-7.84 -9.66,-0.27 -17.44,4.89 -23.34,15.49 -5.91,10.59 -9.66,24.48 -11.27,41.65 -1.61,17.17 -2.41,36.62 -2.41,58.35 0,21.73 1.01,43.67 3.02,65.8 2.01,22.13 3.68,43.32 5.03,63.58 1.34,20.26 2.55,37.56 3.62,51.92 1.07,14.35 0.66,24.75 -1.21,31.19 1.07,0.26 2.55,0.53 4.43,0.8 1.88,0.27 5.43,0.54 10.67,0.81 5.23,0.26 10.19,0.06 14.89,-0.6 4.69,-0.68 9.85,-2.22 15.49,-4.63 5.63,-2.42 10.39,-5.64 14.28,-9.66 3.89,-4.03 6.98,-9.8 9.26,-17.31 2.28,-7.51 3.02,-16.36 2.21,-26.56 -11.81,-156.41 -11.67,-238.38 0.41,-245.88"
         style="fill:#111011;fill-opacity:1;fill-rule:nonzero;stroke:none"
         id="path90" />
      <path
         d="m 4663.75,2210.87 c 9.12,12.61 14.76,26.96 16.91,43.06 v 2.42 c 0,1.33 0.05,2.74 0.19,4.22 0.14,1.47 0.14,3.49 0,6.04 -0.14,2.54 -0.33,5.09 -0.59,7.64 -0.28,2.55 -0.68,5.3 -1.22,8.25 -0.53,2.95 -1.14,5.84 -1.8,8.66 -0.68,2.81 -1.68,5.63 -3.02,8.45 -1.35,2.82 -2.82,5.43 -4.43,7.85 -2.69,-35.69 -4.7,-67.89 -6.04,-96.59 z m -16.9,-164.6 c -4.03,-1.88 -8.45,-2.81 -13.28,-2.81 -0.8,-0.27 -2.15,-0.4 -4.03,-0.4 h -0.4 c -24.41,0.26 -34.33,58.75 -29.77,175.45 1.06,23.88 3.07,54.2 6.03,90.96 2.68,26.29 5.36,42.25 8.05,47.89 3.22,6.16 8.05,9.11 14.48,8.85 9.12,0 18.38,-3.22 27.77,-9.66 7.78,-5.1 14.9,-12.61 21.33,-22.54 6.98,-12.07 11.67,-26.15 14.08,-42.25 4.57,-29.78 1.08,-55.14 -10.45,-76.06 -4.84,-8.86 -10.74,-16.77 -17.71,-23.74 -1.35,-29.78 -1.75,-56.08 -1.21,-78.88 0.8,-12.88 2.28,-20.32 4.42,-22.33 2.15,-2.02 7.25,-0.61 15.3,4.22 10.99,6.97 21.39,16.03 31.19,27.16 9.79,11.14 16.83,20.46 21.12,27.97 l 6.45,11.27 11.27,-4.43 c -0.81,-2.41 -4.3,-8.39 -10.47,-17.9 -6.17,-9.53 -13.88,-20.47 -23.14,-32.8 -9.26,-12.34 -20.47,-24.35 -33.6,-36.02 -13.16,-11.67 -25.63,-19.65 -37.43,-23.95"
         style="fill:#111011;fill-opacity:1;fill-rule:nonzero;stroke:none"
         id="path92" />
      <path
         d="m 4897.16,1955.33 c 5.36,16.63 7.98,34.34 7.84,53.12 -0.14,18.78 -1.4,33.14 -3.82,43.06 -2.41,9.92 -5.09,19.04 -8.04,27.36 -0.55,-54.46 0.8,-95.64 4.02,-123.54 z m 69.22,216.5 8.05,-4.82 -69.22,-87.73 c 6.97,-29.25 11.27,-55.54 12.88,-78.88 1.6,-23.35 1.27,-41.38 -1.01,-54.13 -2.28,-12.74 -5.84,-23.6 -10.67,-32.59 -4.83,-8.99 -8.99,-14.96 -12.47,-17.91 -3.49,-2.95 -6.71,-4.97 -9.66,-6.04 -4.02,-1.87 -8.86,-3.08 -14.49,-3.62 -10.46,-0.81 -18.85,6.31 -25.15,21.33 -6.31,15.02 -10.26,34.07 -11.87,57.14 -1.62,23.08 -2.76,48.16 -3.42,75.26 -0.68,27.09 -0.47,52.31 0.6,75.65 -14.49,-41.04 -36.62,-61.03 -66.4,-59.96 -12.07,0.53 -21.13,5.49 -27.16,14.89 -6.05,9.39 -9.26,20.99 -9.66,34.81 -0.41,13.82 0.06,27.57 1.41,41.25 1.33,13.69 2.88,26.42 4.63,38.23 1.73,11.8 2.2,19.05 1.4,21.73 0.8,0.27 1.94,0.47 3.42,0.6 1.47,0.14 4.29,0.27 8.46,0.41 4.15,0.13 8.04,0 11.67,-0.41 3.62,-0.4 7.57,-1.34 11.86,-2.81 4.3,-1.48 7.91,-3.49 10.87,-6.04 2.95,-2.55 5.17,-6.17 6.64,-10.86 1.48,-4.7 1.81,-10.27 1.01,-16.7 -6.99,-49.1 -7.39,-76.2 -1.21,-81.3 3.76,-2.95 9.92,0 18.51,8.86 15.02,15.29 22.54,40.91 22.54,76.86 l -0.81,16.1 c 1.07,0.27 2.42,0.61 4.02,1.01 1.62,0.4 4.7,0.8 9.26,1.2 4.56,0.41 8.99,0.47 13.28,0.2 4.29,-0.27 8.99,-1.4 14.08,-3.41 5.1,-2.02 9.47,-4.9 13.09,-8.66 3.62,-3.76 6.7,-9.19 9.26,-16.3 2.54,-7.11 3.68,-15.63 3.42,-25.55 0,-4.83 -0.07,-13.42 -0.21,-25.75 -0.14,-12.35 -0.19,-22.01 -0.19,-28.98 13.4,14.49 26.22,28.98 38.42,43.46 12.21,14.49 21.14,25.35 26.76,32.6 l 8.06,10.86"
         style="fill:#111011;fill-opacity:1;fill-rule:nonzero;stroke:none"
         id="path94" />
      <path
         d="m 4994.94,2229.78 c -5.9,-5.9 -13,-8.85 -21.33,-8.85 -8.32,0 -15.42,2.95 -21.32,8.85 -5.9,5.9 -8.85,13.02 -8.85,21.33 0,8.32 2.95,15.43 8.85,21.33 5.9,5.9 13,8.86 21.32,8.86 8.33,0 15.43,-2.96 21.33,-8.86 5.9,-5.9 8.86,-13.01 8.86,-21.33 0,-8.31 -2.96,-15.43 -8.86,-21.33 z m 78.48,-59.96 11.67,-4.43 c -0.26,-0.26 -2.08,-4.16 -5.43,-11.67 -3.36,-7.51 -6.98,-15.36 -10.87,-23.54 -3.89,-8.18 -9.39,-17.51 -16.49,-27.97 -7.12,-10.46 -14.43,-19.65 -21.94,-27.56 -7.52,-7.92 -16.5,-14.56 -26.96,-19.92 -10.47,-5.38 -21.06,-7.92 -31.8,-7.65 -12.07,0.54 -21.12,5.43 -27.16,14.69 -6.04,9.25 -9.25,20.79 -9.65,34.61 -0.41,13.81 0.06,27.56 1.4,41.25 1.34,13.68 2.88,26.42 4.63,38.23 1.74,11.8 2.21,19.05 1.41,21.73 1.61,0.27 3.75,0.6 6.43,1.01 2.69,0.4 7.45,0.4 14.29,0 6.85,-0.41 12.68,-1.61 17.51,-3.63 4.82,-2.01 8.98,-5.83 12.47,-11.47 3.49,-5.63 4.56,-12.87 3.22,-21.73 -7.24,-49.1 -6.03,-75.52 3.63,-79.28 4.02,-1.61 9.52,0 16.49,4.83 8.58,5.9 17.65,15.76 27.17,29.58 9.52,13.82 16.96,26.09 22.33,36.82 l 7.65,16.1"
         style="fill:#111011;fill-opacity:1;fill-rule:nonzero;stroke:none"
         id="path96" />
      <path
         d="m 5141.44,2188.73 c 19.31,-6.17 23.47,-22.8 12.48,-49.89 -1.89,0 -3.69,0.33 -5.44,1 -1.75,0.67 -2.88,1.41 -3.42,2.21 l -1.21,0.81 c 0.26,0.53 0.54,1.34 0.81,2.41 0.26,1.07 0.53,2.95 0.8,5.64 0.26,2.68 0.21,5.03 -0.19,7.04 -0.42,2.01 -1.56,3.88 -3.43,5.63 -1.88,1.75 -4.56,2.75 -8.05,3.02 -1.61,0.27 -3.02,0.34 -4.23,0.21 -1.2,-0.15 -3.21,-0.95 -6.03,-2.42 -2.82,-1.48 -5.37,-3.69 -7.65,-6.64 -2.28,-2.96 -4.63,-7.58 -7.04,-13.88 -2.41,-6.31 -4.3,-13.89 -5.64,-22.74 -4.56,-28.45 1.08,-41.85 16.91,-40.25 16.09,2.15 38.49,17.44 67.21,45.88 17.96,17.71 29.37,31.53 34.2,41.45 l 8.05,-6.44 c -22.27,-41.59 -50.57,-72.57 -84.91,-92.96 -28.71,-16.9 -53.4,-22 -74.05,-15.29 -20.39,6.7 -30.18,23.47 -29.38,50.3 0.27,4.83 0.8,9.92 1.61,15.3 1.88,11.53 5.24,21.73 10.06,30.58 4.84,8.85 10.32,15.83 16.51,20.93 6.16,5.09 12.67,9.32 19.51,12.67 6.84,3.35 13.68,5.5 20.52,6.44 6.85,0.94 12.94,1.27 18.32,1.01 5.36,-0.27 9.92,-0.95 13.68,-2.02"
         style="fill:#111011;fill-opacity:1;fill-rule:nonzero;stroke:none"
         id="path98" />
      <path
         d="m 5412.27,2158.95 7.64,-2.41 c -0.81,-2.68 -2.08,-6.17 -3.82,-10.46 -1.75,-4.29 -5.23,-11.87 -10.46,-22.74 -5.24,-10.87 -10.47,-20.32 -15.7,-28.37 -5.23,-8.05 -11.47,-15.09 -18.72,-21.13 -7.23,-6.03 -14.22,-8.39 -20.92,-7.04 -7.79,1.61 -13.95,9.39 -18.51,23.34 -4.57,13.95 -7.52,28.84 -8.86,44.67 -1.34,15.83 -3.76,30.18 -7.23,43.06 -3.5,12.88 -8.2,19.32 -14.1,19.32 -4.82,0 -8.58,-5.37 -11.27,-16.1 -2.68,-10.73 -4.96,-23.68 -6.83,-38.84 -1.89,-15.16 -4.43,-30.32 -7.65,-45.47 -3.22,-15.16 -8.99,-27.97 -17.3,-38.43 -8.32,-10.47 -19.06,-15.56 -32.2,-15.29 -8.58,-0.27 -15.49,4.76 -20.72,15.09 -5.24,10.32 -8.6,23.94 -10.06,40.84 -1.49,16.91 -2.22,35.88 -2.22,56.95 0,21.06 0.94,42.32 2.81,63.79 1.88,21.46 3.43,42.05 4.63,61.77 1.21,19.71 2.28,36.42 3.23,50.1 0.93,13.68 0.6,23.34 -1.01,28.98 1.87,0.53 4.35,1 7.44,1.41 3.09,0.4 8.46,0.26 16.1,-0.41 7.65,-0.67 14.29,-2.41 19.93,-5.23 5.63,-2.82 10.59,-8.19 14.88,-16.1 4.29,-7.91 5.9,-18.04 4.83,-30.38 -4.57,-59.56 -7.38,-109.46 -8.45,-149.7 10.19,48.02 25.08,72.03 44.67,72.03 10.46,0 18.58,-7.31 24.35,-21.93 5.76,-14.63 9.19,-30.79 10.26,-48.5 1.07,-17.7 2.88,-34.34 5.43,-49.9 2.55,-15.56 6.37,-24.01 11.47,-25.35 6.17,-1.61 14.09,3.62 23.75,15.69 9.66,12.08 17.84,24.55 24.55,37.43 l 10.06,19.31"
         style="fill:#111011;fill-opacity:1;fill-rule:nonzero;stroke:none"
         id="path100" />
      <path
         d="m 3755.07,1910.86 c 0.26,-1.08 0.54,-2.56 0.81,-4.43 0.26,-1.88 0.53,-5.43 0.8,-10.66 0.26,-5.24 0.07,-10.2 -0.6,-14.9 -0.68,-4.69 -2.21,-9.86 -4.63,-15.49 -2.42,-5.63 -5.71,-10.4 -9.86,-14.29 -4.16,-3.89 -10,-6.97 -17.51,-9.25 -7.51,-2.29 -16.36,-3.02 -26.56,-2.21 l -14.08,1.2 c -10.2,-145.14 -9.66,-221.33 1.61,-228.58 -2.15,-6.44 -8.25,-12.13 -18.31,-17.1 -10.06,-4.97 -18.98,-7.58 -26.77,-7.85 -23.34,-0.53 -35.68,30.58 -37.02,93.36 -0.54,27.9 2.28,80.09 8.46,156.55 0.26,3.76 0.53,7.11 0.8,10.06 -32.74,2.15 -51.38,-0.54 -55.94,-8.05 -6.43,2.15 -12.14,8.25 -17.1,18.31 -4.97,10.07 -7.59,18.98 -7.85,26.77 -0.26,13.41 5.97,23.14 18.71,29.17 12.74,6.04 28.57,8.65 47.49,7.85 18.92,-0.8 39.1,-2.15 60.57,-4.03 21.45,-1.88 40.7,-4.09 57.74,-6.64 17.04,-2.55 30.12,-2.48 39.24,0.21"
         style="fill:#111011;fill-opacity:1;fill-rule:nonzero;stroke:none"
         id="path102" />
      <path
         d="m 3812.62,1758.73 c 19.32,-6.17 23.48,-22.8 12.48,-49.89 -1.89,0 -3.69,0.33 -5.44,1 -1.75,0.67 -2.88,1.41 -3.42,2.21 l -1.21,0.81 c 0.26,0.53 0.54,1.34 0.81,2.41 0.26,1.07 0.53,2.95 0.8,5.64 0.27,2.68 0.21,5.03 -0.19,7.04 -0.41,2.01 -1.56,3.88 -3.43,5.63 -1.88,1.75 -4.56,2.75 -8.05,3.02 -1.61,0.27 -3.02,0.34 -4.23,0.21 -1.2,-0.15 -3.21,-0.95 -6.03,-2.42 -2.81,-1.48 -5.37,-3.69 -7.65,-6.64 -2.27,-2.96 -4.63,-7.58 -7.04,-13.88 -2.41,-6.31 -4.3,-13.89 -5.63,-22.74 -4.56,-28.45 1.07,-41.85 16.9,-40.25 16.09,2.15 38.5,17.44 67.21,45.88 17.97,17.71 29.37,31.53 34.21,41.45 l 8.04,-6.44 c -22.27,-41.59 -50.57,-72.57 -84.91,-92.96 -28.71,-16.9 -53.4,-22 -74.05,-15.29 -20.39,6.7 -30.18,23.47 -29.38,50.3 0.27,4.83 0.8,9.92 1.61,15.3 1.88,11.53 5.24,21.73 10.06,30.58 4.84,8.85 10.33,15.83 16.51,20.93 6.16,5.09 12.67,9.32 19.51,12.67 6.84,3.35 13.68,5.5 20.53,6.44 6.84,0.94 12.94,1.27 18.31,1.01 5.36,-0.27 9.92,-0.95 13.68,-2.02"
         style="fill:#111011;fill-opacity:1;fill-rule:nonzero;stroke:none"
         id="path104" />
      <path
         d="m 4083.46,1728.95 7.64,-2.41 c -0.81,-2.68 -2.08,-6.17 -3.82,-10.46 -1.75,-4.29 -5.23,-11.87 -10.46,-22.74 -5.24,-10.87 -10.47,-20.32 -15.7,-28.37 -5.23,-8.05 -11.47,-15.09 -18.72,-21.13 -7.23,-6.03 -14.21,-8.39 -20.91,-7.04 -7.8,1.61 -13.96,9.39 -18.52,23.34 -4.57,13.95 -7.52,28.84 -8.86,44.67 -1.34,15.83 -3.76,30.18 -7.23,43.06 -3.5,12.88 -8.2,19.32 -14.1,19.32 -4.82,0 -8.58,-5.37 -11.26,-16.1 -2.69,-10.73 -4.97,-23.68 -6.84,-38.84 -1.89,-15.16 -4.42,-30.32 -7.65,-45.47 -3.22,-15.16 -8.99,-27.97 -17.3,-38.43 -8.32,-10.47 -19.05,-15.56 -32.2,-15.29 -8.58,-0.27 -15.49,4.76 -20.72,15.09 -5.24,10.32 -8.6,23.94 -10.06,40.84 -1.48,16.91 -2.22,35.88 -2.22,56.95 0,21.06 0.94,42.32 2.82,63.79 1.87,21.46 3.42,42.05 4.62,61.77 1.22,19.71 2.28,36.42 3.23,50.1 0.93,13.68 0.6,23.34 -1.01,28.98 1.88,0.53 4.36,1 7.44,1.41 3.09,0.4 8.46,0.26 16.11,-0.41 7.64,-0.67 14.28,-2.41 19.92,-5.23 5.63,-2.82 10.59,-8.19 14.88,-16.1 4.29,-7.91 5.9,-18.04 4.83,-30.38 -4.57,-59.56 -7.38,-109.46 -8.45,-149.7 10.19,48.02 25.09,72.03 44.68,72.03 10.45,0 18.57,-7.31 24.34,-21.93 5.76,-14.63 9.19,-30.79 10.26,-48.5 1.07,-17.7 2.89,-34.34 5.43,-49.9 2.55,-15.56 6.37,-24.01 11.47,-25.35 6.17,-1.61 14.09,3.62 23.75,15.69 9.66,12.08 17.84,24.55 24.55,37.43 l 10.06,19.31"
         style="fill:#111011;fill-opacity:1;fill-rule:nonzero;stroke:none"
         id="path106" />
      <path
         d="m 4100.34,1704.41 c -0.53,-13.68 5.24,-18.51 17.31,-14.49 9.66,3.48 19.58,10.73 29.78,21.73 1.07,10.19 2.01,17.84 2.82,22.94 -4.29,0 -8.66,-0.34 -13.08,-1.01 -4.42,-0.67 -9.66,-1.88 -15.69,-3.62 -6.04,-1.74 -11.01,-4.82 -14.9,-9.25 -3.88,-4.43 -5.97,-9.86 -6.24,-16.3 z m 185.93,39.44 h 13.28 c -1.07,-3.76 -2.68,-8.66 -4.83,-14.69 -2.15,-6.04 -6.97,-16.77 -14.48,-32.2 -7.52,-15.43 -15.57,-29.11 -24.15,-41.04 -8.59,-11.95 -19.99,-22.74 -34.2,-32.4 -14.23,-9.66 -28.99,-14.49 -44.27,-14.49 -9.93,0 -17.65,3.56 -23.15,10.67 -5.49,7.1 -8.78,15.62 -9.86,25.55 -1.07,9.92 -1.2,22.13 -0.4,36.62 -18.78,-18.25 -38.63,-25.62 -59.56,-22.13 -13.14,2.41 -21.6,8.98 -25.35,19.72 -3.75,10.72 -2.88,22.26 2.62,34.61 5.49,12.34 14.01,22.13 25.55,29.38 19.05,11.8 40.65,15.69 64.79,11.67 0.81,12.33 0.53,21.32 -0.8,26.96 1.06,0.26 2.41,0.53 4.02,0.8 1.61,0.27 4.76,0.47 9.45,0.61 4.7,0.13 9.12,-0.07 13.28,-0.61 4.16,-0.54 8.73,-1.88 13.69,-4.02 4.96,-2.15 9.19,-5.03 12.68,-8.66 3.48,-3.61 6.23,-8.78 8.24,-15.49 2.02,-6.71 2.62,-14.62 1.82,-23.74 -4.02,-55.81 -0.95,-83.85 9.26,-84.11 4.02,-0.27 8.98,2.95 14.88,9.66 10.73,12.07 20.06,25.41 27.97,40.04 7.91,14.62 13.21,26.22 15.9,34.81 l 3.62,12.48"
         style="fill:#111011;fill-opacity:1;fill-rule:nonzero;stroke:none"
         id="path108" />
      <path
         d="m 4326.1,1799.78 c -5.89,-5.9 -13,-8.85 -21.32,-8.85 -8.32,0 -15.43,2.95 -21.33,8.85 -5.9,5.9 -8.85,13.02 -8.85,21.33 0,8.32 2.95,15.43 8.85,21.33 5.9,5.9 13.01,8.86 21.33,8.86 8.32,0 15.43,-2.96 21.32,-8.86 5.9,-5.9 8.86,-13.01 8.86,-21.33 0,-8.31 -2.96,-15.43 -8.86,-21.33 z m 78.48,-59.96 11.67,-4.43 c -0.26,-0.26 -2.08,-4.16 -5.43,-11.67 -3.36,-7.51 -6.98,-15.36 -10.87,-23.54 -3.88,-8.18 -9.39,-17.51 -16.49,-27.97 -7.12,-10.46 -14.43,-19.65 -21.94,-27.56 -7.51,-7.92 -16.5,-14.56 -26.96,-19.92 -10.47,-5.38 -21.06,-7.92 -31.79,-7.65 -12.08,0.54 -21.13,5.43 -27.16,14.69 -6.05,9.25 -9.26,20.79 -9.66,34.61 -0.41,13.81 0.06,27.56 1.4,41.25 1.34,13.68 2.89,26.42 4.63,38.23 1.74,11.8 2.21,19.05 1.41,21.73 1.61,0.27 3.75,0.6 6.44,1.01 2.68,0.4 7.45,0.4 14.28,0 6.85,-0.41 12.68,-1.61 17.51,-3.63 4.83,-2.01 8.99,-5.83 12.47,-11.47 3.49,-5.63 4.56,-12.87 3.23,-21.73 -7.25,-49.1 -6.04,-75.52 3.62,-79.28 4.02,-1.61 9.52,0 16.49,4.83 8.59,5.9 17.65,15.76 27.17,29.58 9.52,13.82 16.96,26.09 22.34,36.82 l 7.64,16.1"
         style="fill:#111011;fill-opacity:1;fill-rule:nonzero;stroke:none"
         id="path110" />
      <path
         d="m 4480.65,1767.19 c -4.83,0 -8.32,-4.1 -10.46,-12.28 -2.15,-8.18 -4.43,-20.72 -6.85,-37.63 -0.54,-4.29 -0.94,-7.51 -1.2,-9.65 16.36,21.99 24.8,39.03 25.35,51.1 0,5.64 -2.28,8.46 -6.84,8.46 z m 92.96,-18.91 6.84,-3.63 c -0.27,-1.61 -0.8,-3.82 -1.61,-6.64 -0.8,-2.82 -2.62,-8.25 -5.43,-16.3 -2.81,-8.04 -5.77,-15.69 -8.86,-22.94 -3.08,-7.24 -7.23,-15.29 -12.47,-24.14 -5.23,-8.85 -10.73,-16.5 -16.5,-22.94 -5.77,-6.44 -12.61,-11.87 -20.52,-16.3 -7.92,-4.42 -16.17,-6.64 -24.76,-6.64 -8.04,-0.54 -15.29,1.67 -21.72,6.64 -6.44,4.96 -10.87,10.13 -13.29,15.49 l -3.22,7.65 c -9.12,-31.12 -24.81,-46.28 -47.08,-45.47 -8.59,-0.27 -15.5,4.76 -20.72,15.09 -5.24,10.32 -8.53,23.94 -9.86,40.84 -1.35,16.91 -2.02,35.88 -2.02,56.95 0,21.06 0.87,42.32 2.62,63.79 1.74,21.46 3.22,42.05 4.43,61.77 1.21,19.71 2.27,36.42 3.22,50.1 0.94,13.68 0.6,23.34 -1.01,28.98 1.07,0.26 2.41,0.53 4.03,0.8 1.61,0.26 4.75,0.46 9.45,0.61 4.7,0.13 9.12,-0.08 13.28,-0.61 4.16,-0.54 8.72,-1.88 13.68,-4.02 4.96,-2.16 9.19,-5.04 12.68,-8.65 3.48,-3.63 6.24,-8.8 8.25,-15.5 2.01,-6.71 2.75,-14.49 2.22,-23.34 -4.57,-59.56 -7.39,-109.46 -8.46,-149.7 10.19,48.02 24.95,72.03 44.27,72.03 15.83,0 25.08,-7.79 27.77,-23.34 3.22,-18.25 -2.82,-39.04 -18.12,-62.38 -7.23,-10.73 -15.95,-20.66 -26.15,-29.78 0,-2.68 0.21,-5.57 0.61,-8.65 0.4,-3.09 1.27,-7.85 2.61,-14.29 1.34,-6.44 4.22,-11.67 8.66,-15.69 4.42,-4.03 9.85,-6.04 16.3,-6.04 9.92,0 19.44,3.62 28.56,10.86 9.12,7.25 16.71,16.1 22.74,26.57 6.04,10.46 11.4,20.92 16.1,31.39 4.69,10.46 8.11,19.32 10.26,26.56 l 3.22,10.87"
         style="fill:#111011;fill-opacity:1;fill-rule:nonzero;stroke:none"
         id="path112" />
      <path
         d="m 4639.2,1742.64 c -5.1,1.61 -10.87,0 -17.3,-4.83 0.53,-1.08 1.61,-2.42 3.22,-4.03 2.14,-2.15 4.42,-3.76 6.83,-4.83 1.34,-1.07 2.83,-1.74 4.43,-2.01 3.22,-0.8 4.96,-1.2 5.23,-1.2 3.23,-0.81 6.44,-1.21 9.66,-1.21 -1.87,10.19 -5.9,16.23 -12.07,18.11 z m -29.78,-93.36 c 6.7,-2.16 13.81,0.6 21.32,8.24 7.51,7.65 13.28,17.91 17.31,30.79 1.07,3.22 2.15,7.51 3.22,12.88 -5.37,-0.54 -9.52,-0.67 -12.47,-0.4 -0.55,0 -1.42,0.06 -2.62,0.2 -1.21,0.13 -2.28,0.26 -3.22,0.4 -0.94,0.13 -1.81,0.33 -2.62,0.6 -1.87,0.27 -4.69,0.94 -8.44,2.02 -4.57,1.34 -9.26,3.75 -14.09,7.24 -1.61,1.07 -2.68,1.87 -3.22,2.42 -0.54,-1.35 -1.88,-4.7 -4.02,-10.07 -4.03,-12.87 -5.17,-24.62 -3.42,-35.21 1.74,-10.6 5.83,-16.97 12.27,-19.11 z m 131.2,101.81 4.82,-8.45 c -1.35,-1.08 -3.22,-2.42 -5.63,-4.02 -0.28,-0.28 -0.8,-0.61 -1.62,-1.01 -0.8,-0.4 -1.33,-0.74 -1.61,-1.01 l -3.61,-2.41 c -0.27,-0.27 -0.88,-0.68 -1.82,-1.21 -0.93,-0.54 -1.68,-0.94 -2.2,-1.21 -0.55,-0.27 -1.35,-0.8 -2.43,-1.6 -1.07,-0.81 -1.87,-1.35 -2.41,-1.62 -2.96,-1.34 -4.69,-2.28 -5.23,-2.81 -0.54,-0.55 -1.48,-1.15 -2.81,-1.82 -1.35,-0.67 -2.29,-1.14 -2.83,-1.4 -0.26,-0.27 -0.74,-0.61 -1.4,-1.01 -0.68,-0.4 -1.15,-0.6 -1.41,-0.6 l -1.61,-0.81 c -0.27,0 -0.54,-0.14 -0.8,-0.4 -0.27,-0.27 -0.55,-0.4 -0.81,-0.4 -1.08,-0.27 -2.15,-0.8 -3.21,-1.61 -1.09,-0.27 -2.16,-0.81 -3.23,-1.61 -2.96,-1.34 -7.64,-3.36 -14.08,-6.04 -4.03,-1.61 -8.99,-3.36 -14.89,-5.23 -0.81,-0.27 -1.95,-0.6 -3.42,-1.01 -1.48,-0.4 -2.49,-0.6 -3.03,-0.6 -0.8,-4.83 -2.01,-9.66 -3.61,-14.49 -6.71,-20.92 -18.12,-36.96 -34.21,-48.09 -16.1,-11.13 -32.33,-14.15 -48.7,-9.05 -16.37,5.09 -27.9,16.83 -34.6,35.21 -6.71,18.38 -6.71,38.16 0,59.36 6.7,20.92 18.11,36.95 34.2,48.09 16.1,11.13 32.33,14.15 48.7,9.06 11,-3.5 19.98,-10.54 26.96,-21.13 6.98,-10.6 11,-22.88 12.07,-36.82 h 1.21 c 6.7,1.33 11.26,2.27 13.69,2.81 2.13,0.27 6.56,1.47 13.28,3.62 1.6,0.54 2.67,0.94 3.21,1.21 1.61,0.53 2.68,0.8 3.22,0.8 l 1.61,0.81 c 0.27,0 0.53,0.06 0.81,0.2 0.26,0.14 0.53,0.2 0.81,0.2 0.26,0.27 0.73,0.54 1.4,0.81 0.67,0.26 1.13,0.4 1.41,0.4 l 6.03,2.42 c 1.61,0.53 3.35,1.2 5.24,2.01 2.14,1.07 3.75,1.74 4.82,2.01 2.15,1.07 3.62,1.74 4.44,2.01 0.26,0.27 0.86,0.6 1.8,1.01 0.94,0.4 1.55,0.74 1.82,1 l 3.61,1.21 6.05,3.22"
         style="fill:#111011;fill-opacity:1;fill-rule:nonzero;stroke:none"
         id="path114" />
      <path
         d="m 4810.24,1737.81 c 4.28,-3.22 7.51,-5.5 9.65,-6.84 0.27,1.34 0.75,3.75 1.41,7.24 0.67,3.49 1.14,6.17 1.42,8.05 0,0.54 0.05,1.27 0.19,2.22 0.14,0.93 0.21,1.53 0.21,1.81 0.26,0.8 0.4,2.14 0.4,4.02 0.53,2.41 0.53,4.83 0,7.24 0,5.37 -1.08,9.52 -3.23,12.48 -1.6,3.22 -4.02,5.23 -7.23,6.04 -3.22,0.8 -6.85,0.26 -10.87,-1.61 -3.76,-2.15 -6.44,-4.83 -8.05,-8.05 -1.35,-2.96 -1.61,-6.58 -0.81,-10.87 1.08,-4.02 3.36,-7.92 6.85,-11.67 2.41,-3.22 5.76,-6.58 10.06,-10.06 z m 82.5,0.81 8.04,-2.42 c 0,-0.54 -0.13,-1.35 -0.4,-2.42 -0.27,-1.07 -0.94,-3.08 -2.01,-6.03 -1.07,-2.96 -2.41,-5.5 -4.02,-7.65 -1.61,-2.15 -3.97,-4.76 -7.04,-7.85 -3.09,-3.08 -6.71,-5.09 -10.87,-6.03 -4.16,-0.94 -9.26,-1.75 -15.3,-2.42 -6.03,-0.67 -12.95,0.21 -20.72,2.62 -3.22,-12.88 -6.71,-23.88 -10.47,-33 -4.56,-10.74 -9.79,-20.26 -15.69,-28.57 -5.64,-7.79 -11.93,-14.76 -18.92,-20.93 -5.09,-4.29 -10.32,-8.05 -15.69,-11.26 -8.58,-5.37 -19.05,-9.13 -31.39,-11.27 -11.8,-1.88 -21.46,1.27 -28.97,9.45 -7.52,8.18 -12.68,19.98 -15.5,35.42 -2.81,15.42 -4.7,30.24 -5.63,44.47 -0.94,14.21 -1.41,29.64 -1.41,46.28 0,16.63 -0.14,27.09 -0.4,31.38 1.87,0.81 4.29,1.61 7.25,2.42 2.94,0.81 8.25,1.47 15.89,2.01 7.65,0.54 14.49,-0.14 20.52,-2.01 6.04,-1.88 11.81,-6.51 17.31,-13.88 5.49,-7.39 8.65,-17.25 9.46,-29.58 2.95,-38.91 6.43,-64.8 10.46,-77.67 4.56,4.02 8.86,8.45 12.88,13.28 5.63,6.97 10.32,14.35 14.08,22.13 4.29,8.59 8.05,18.11 11.27,28.58 0,0.53 0.26,1.6 0.8,3.21 -1.87,0.81 -6.83,3.76 -14.88,8.86 -5.11,3.75 -9.53,7.64 -13.28,11.67 -4.3,4.56 -7.92,10.19 -10.87,16.9 -0.8,2.14 -1.48,5.77 -2.01,10.86 0,3.49 0.66,7.51 2.01,12.08 2.67,7.5 7.78,13.41 15.29,17.71 7.25,4.56 15.29,6.29 24.15,5.23 4.29,-0.81 8.45,-2.42 12.47,-4.83 3.22,-2.15 6.3,-5.23 9.26,-9.26 1.87,-2.68 3.75,-6.44 5.63,-11.27 l 2.42,-10.86 c 0.26,-2.42 0.4,-5.9 0.4,-10.47 v -5.22 c -0.27,-1.35 -0.4,-2.96 -0.4,-4.83 -0.8,-8.6 -2.02,-16.91 -3.63,-24.95 1.08,-0.55 2.55,-1.15 4.43,-1.82 1.87,-0.67 5.3,-1.48 10.26,-2.41 4.96,-0.95 9.46,-1.01 13.49,-0.2 4.02,0.8 8.17,3.21 12.47,7.24 4.29,4.03 7.38,9.79 9.26,17.31"
         style="fill:#111011;fill-opacity:1;fill-rule:nonzero;stroke:none"
         id="path116" />
      <path
         d="m 4908.83,1602.59 c 2.42,-2.67 6.04,-5.63 10.87,-8.85 l 2.41,-1.21 c 9.12,-3.22 14.76,-1.34 16.91,5.64 2.14,7.24 1.81,15.09 -1.01,23.54 -2.81,8.45 -6.38,15.9 -10.66,22.33 -4.3,6.44 -10.87,15.56 -19.72,27.37 -1.35,1.61 -2.29,2.82 -2.82,3.62 -2.15,-4.57 -3.89,-9.8 -5.23,-15.7 -1.61,-7.78 -2.28,-15.16 -2.01,-22.13 0.26,-2.15 0.66,-5.63 1.2,-10.46 0.26,-0.81 0.54,-1.88 0.81,-3.22 0.27,-1.35 0.53,-2.55 0.8,-3.62 0.27,-1.08 0.54,-2.02 0.8,-2.82 1.35,-5.09 3.89,-9.92 7.65,-14.49 z m 123.95,121.53 1.62,-9.65 c -1.62,0.8 -3.9,1.94 -6.85,3.42 -2.95,1.47 -8.52,3.69 -16.7,6.64 -8.18,2.95 -15.9,5.03 -23.14,6.24 -7.24,1.21 -15.09,1.27 -23.54,0.2 -8.46,-1.08 -15.36,-4.03 -20.73,-8.86 2.95,-4.56 7.18,-10.8 12.68,-18.71 5.49,-7.91 9.93,-14.35 13.28,-19.31 3.36,-4.97 7.38,-11.14 12.08,-18.51 4.68,-7.39 8.25,-13.56 10.66,-18.52 2.41,-4.97 4.89,-10.6 7.44,-16.9 2.55,-6.31 3.89,-11.81 4.02,-16.5 0.14,-4.69 -0.26,-9.46 -1.2,-14.29 -0.94,-4.83 -3.09,-9.25 -6.44,-13.28 -3.36,-4.02 -7.72,-7.64 -13.08,-10.86 -19.05,-9.12 -35.14,-12.21 -48.29,-9.26 h -0.4 c -0.81,0 -1.35,0.14 -1.61,0.4 -3.5,0.54 -6.85,1.48 -10.06,2.82 -3.76,1.08 -8.46,3.36 -14.09,6.84 -6.17,4.03 -11.27,8.59 -15.29,13.69 -5.1,6.43 -8.85,13.68 -11.27,21.72 0,0.55 -0.07,1.15 -0.2,1.82 -0.14,0.66 -0.2,1.13 -0.2,1.41 l -0.4,0.8 v 0.8 l -0.4,1.61 -0.4,1.21 v 1.61 c -0.28,0.81 -0.42,1.88 -0.42,3.22 -0.8,4.02 -1.2,8.32 -1.2,12.88 0,9.66 1.07,18.64 3.22,26.96 2.42,8.31 5.9,16.77 10.47,25.36 0,0.26 0.12,0.4 0.4,0.4 l 0.4,0.8 c -4.29,5.9 -8.72,12.34 -13.29,19.32 -7.5,11.8 -12.67,22.74 -15.48,32.8 -2.83,10.06 -3.49,18.44 -2.02,25.15 1.47,6.7 4.03,12.74 7.65,18.11 3.62,5.36 7.98,9.59 13.08,12.68 5.1,3.08 9.86,5.69 14.28,7.84 4.43,2.15 8.26,3.49 11.47,4.03 l 4.83,1.2 c -6.98,-16.9 0.14,-42.39 21.33,-76.46 8.31,4.56 17.36,7.31 27.17,8.25 9.78,0.94 18.64,0.47 26.55,-1.41 7.92,-1.87 15.3,-4.16 22.14,-6.84 6.85,-2.68 12.14,-5.23 15.9,-7.64 l 6.03,-3.23"
         style="fill:#111011;fill-opacity:1;fill-rule:nonzero;stroke:none"
         id="path118" />
      <path
         d="m 5115.68,1767.19 c -4.83,0 -8.33,-4.1 -10.46,-12.28 -2.15,-8.18 -4.43,-20.72 -6.85,-37.63 -0.54,-4.29 -0.94,-7.51 -1.2,-9.65 16.36,21.99 24.8,39.03 25.35,51.1 0,5.64 -2.28,8.46 -6.84,8.46 z m 92.96,-18.91 6.84,-3.63 c -0.27,-1.61 -0.8,-3.82 -1.61,-6.64 -0.8,-2.82 -2.62,-8.25 -5.43,-16.3 -2.81,-8.04 -5.77,-15.69 -8.86,-22.94 -3.08,-7.24 -7.23,-15.29 -12.47,-24.14 -5.23,-8.85 -10.73,-16.5 -16.5,-22.94 -5.77,-6.44 -12.61,-11.87 -20.52,-16.3 -7.92,-4.42 -16.17,-6.64 -24.76,-6.64 -8.04,-0.54 -15.29,1.67 -21.73,6.64 -6.43,4.96 -10.86,10.13 -13.28,15.49 l -3.22,7.65 c -9.12,-31.12 -24.81,-46.28 -47.08,-45.47 -8.59,-0.27 -15.5,4.76 -20.72,15.09 -5.24,10.32 -8.53,23.94 -9.86,40.84 -1.35,16.91 -2.02,35.88 -2.02,56.95 0,21.06 0.87,42.32 2.62,63.79 1.74,21.46 3.22,42.05 4.42,61.77 1.22,19.71 2.28,36.42 3.23,50.1 0.93,13.68 0.6,23.34 -1.01,28.98 1.07,0.26 2.41,0.53 4.02,0.8 1.62,0.26 4.76,0.46 9.46,0.61 4.69,0.13 9.12,-0.08 13.28,-0.61 4.16,-0.54 8.72,-1.88 13.68,-4.02 4.96,-2.16 9.19,-5.04 12.68,-8.65 3.48,-3.63 6.24,-8.8 8.25,-15.5 2.01,-6.71 2.75,-14.49 2.22,-23.34 -4.58,-59.56 -7.39,-109.46 -8.46,-149.7 10.19,48.02 24.95,72.03 44.27,72.03 15.83,0 25.08,-7.79 27.77,-23.34 3.22,-18.25 -2.82,-39.04 -18.12,-62.38 -7.23,-10.73 -15.95,-20.66 -26.15,-29.78 0,-2.68 0.21,-5.57 0.61,-8.65 0.4,-3.09 1.27,-7.85 2.61,-14.29 1.34,-6.44 4.22,-11.67 8.66,-15.69 4.42,-4.03 9.85,-6.04 16.3,-6.04 9.92,0 19.44,3.62 28.56,10.86 9.12,7.25 16.71,16.1 22.74,26.57 6.04,10.46 11.4,20.92 16.1,31.39 4.69,10.46 8.11,19.32 10.26,26.56 l 3.22,10.87"
         style="fill:#111011;fill-opacity:1;fill-rule:nonzero;stroke:none"
         id="path120" />
      <path
         d="m 5345.07,1525.33 c 5.36,16.63 7.98,34.34 7.84,53.12 -0.14,18.78 -1.4,33.14 -3.82,43.06 -2.41,9.92 -5.09,19.04 -8.04,27.36 -0.55,-54.46 0.8,-95.64 4.02,-123.54 z m 69.22,216.5 8.05,-4.82 -69.22,-87.73 c 6.97,-29.25 11.27,-55.54 12.88,-78.88 1.6,-23.35 1.27,-41.38 -1.01,-54.13 -2.28,-12.74 -5.84,-23.6 -10.67,-32.59 -4.83,-8.99 -8.99,-14.96 -12.47,-17.91 -3.49,-2.95 -6.71,-4.97 -9.66,-6.04 -4.02,-1.87 -8.86,-3.08 -14.49,-3.62 -10.46,-0.81 -18.85,6.31 -25.15,21.33 -6.31,15.02 -10.26,34.07 -11.87,57.14 -1.62,23.08 -2.76,48.16 -3.42,75.26 -0.68,27.09 -0.47,52.31 0.6,75.65 -14.49,-41.04 -36.62,-61.03 -66.4,-59.96 -12.07,0.53 -21.13,5.49 -27.16,14.89 -6.05,9.39 -9.26,20.99 -9.66,34.81 -0.41,13.82 0.06,27.57 1.41,41.25 1.33,13.69 2.88,26.42 4.63,38.23 1.73,11.8 2.2,19.05 1.4,21.73 0.8,0.27 1.94,0.47 3.42,0.6 1.47,0.14 4.29,0.27 8.46,0.41 4.15,0.13 8.04,0 11.67,-0.41 3.62,-0.4 7.57,-1.34 11.86,-2.81 4.3,-1.48 7.91,-3.49 10.87,-6.04 2.95,-2.55 5.17,-6.17 6.64,-10.86 1.48,-4.7 1.81,-10.27 1.01,-16.7 -6.99,-49.1 -7.39,-76.2 -1.21,-81.3 3.76,-2.95 9.92,0 18.51,8.86 15.02,15.29 22.54,40.91 22.54,76.86 l -0.81,16.1 c 1.07,0.27 2.42,0.61 4.02,1.01 1.62,0.4 4.7,0.8 9.26,1.2 4.56,0.41 8.99,0.47 13.28,0.2 4.29,-0.27 8.99,-1.4 14.09,-3.41 5.09,-2.02 9.46,-4.9 13.08,-8.66 3.62,-3.76 6.7,-9.19 9.26,-16.3 2.54,-7.11 3.68,-15.63 3.42,-25.55 0,-4.83 -0.07,-13.42 -0.21,-25.75 -0.14,-12.35 -0.19,-22.01 -0.19,-28.98 13.4,14.49 26.22,28.98 38.42,43.46 12.21,14.49 21.14,25.35 26.76,32.6 l 8.06,10.86"
         style="fill:#111011;fill-opacity:1;fill-rule:nonzero;stroke:none"
         id="path122" />
    </g>
  </g>
</svg>
