<?xml version="1.0" encoding="UTF-8" standalone="no"?>
<!-- Created with Inkscape (http://www.inkscape.org/) -->

<svg
   version="1.1"
   id="svg2"
   xml:space="preserve"
   width="616.62665"
   height="749.21332"
   viewBox="0 0 616.62665 749.21332"
   xmlns="http://www.w3.org/2000/svg"
   xmlns:svg="http://www.w3.org/2000/svg"><defs
     id="defs6" /><g
     id="g8"
     transform="matrix(1.3333333,0,0,-1.3333333,0,749.21333)"><g
       id="g10"
       transform="scale(0.1)"><path
         d="m 2606.61,3381.84 c 53.04,22.68 152.3,44.43 197.3,49.75 13.46,1.7 18.68,12.13 17.55,25.7 -3.17,37.55 -21.74,32.23 -44.52,30.15 -29.06,-2.68 -163.97,-21.82 -179.06,-30.14 0,0 4.32,-27.99 8.73,-75.46"
         style="fill:#b82327;fill-opacity:1;fill-rule:nonzero;stroke:none"
         id="path12" /><path
         d="m 2552.58,3403.87 c -0.06,-0.08 -0.12,-0.16 -0.18,-0.25 0.29,-1.06 0.59,-2.13 0.88,-3.19 -0.23,1.14 -0.47,2.29 -0.7,3.44"
         style="fill:#b82327;fill-opacity:1;fill-rule:nonzero;stroke:none"
         id="path14" /><path
         d="m 3724.11,3511.53 c 2.38,0.55 2.49,0.58 0,-0.03 z m -5.53,-23.82 c 38.88,10.76 107.46,23.23 134.81,26.4 85.28,9.83 98.04,5.09 97.19,19.78 -0.52,7.71 -7.46,10.91 -14.21,14.26 -74.99,38.15 -83.57,41.7 -167.96,37.61 -5.62,-0.26 -34.64,-1.28 -39.9,-2.37 -29.59,-6.05 -29.28,-50.71 -23.55,-80.37 -4.31,-8.23 2.38,-18.43 13.62,-15.31"
         style="fill:#b82327;fill-opacity:1;fill-rule:nonzero;stroke:none"
         id="path16" /><path
         d="m 4035.22,3076.9 c 13.59,51.81 14.79,44.61 25.78,95.8 18.79,87.2 -54.94,-29.62 -191.49,-29.62 -8.85,-1.36 -11.82,-12.05 -6.48,-17.44 l -0.03,-0.01 c 1.21,-3.88 6.74,-8.8 9.83,-11.98 58.24,-59.23 60.58,-73.44 92.85,-133.17 15.01,-28.05 28.53,-24.63 35.04,-10.8 1.11,2.34 28.43,81.12 31.81,96.97 l 0.03,-0.01 c 0.13,0.5 0.09,0.32 0.17,0.82 l 0.04,-0.01 c 0.48,1.8 0.66,2.49 0.85,3.23 l -0.03,-0.06 c 0.01,0.05 0.05,0.18 0.06,0.22 h 0.01 c 0,0 0.04,0.19 0.04,0.22 l 0.05,0.16 -0.04,-0.13 c 0,0.05 0.03,0.18 0.02,0.18 0.69,2.39 1.53,5.76 1.53,5.76 -0.02,-0.06 -0.1,-0.35 -0.1,-0.35 l 0.05,0.22 h 0.01"
         style="fill:#b82327;fill-opacity:1;fill-rule:nonzero;stroke:none"
         id="path18" /><path
         d="m 3848.25,3175.87 c -0.09,0.11 -0.17,0.22 -0.26,0.32 0.24,0.06 0.47,0.13 0.7,0.2 -0.14,-0.17 -0.29,-0.34 -0.44,-0.52 z m -19.88,38.58 c -5.68,-1.49 -11.41,-2.41 -14.91,-7.1 -6.05,-8.14 -0.89,-18.31 5.05,-26.58 2.88,-3.97 20.18,-27.03 24.74,-28.85 2.79,-1.14 5.53,-0.87 8.32,0.12 78.44,28.29 191.08,135.87 234.21,258.37 5.05,14.4 5.87,18.3 13.31,38.64 3.38,9.21 7.84,15.53 0.35,21.87 -14.74,12.43 -17.75,-13.98 -58.52,-73 -2.41,-0.99 -4.45,-2.92 -5.58,-5.46 -6.7,-15.26 -45.11,-68.98 -101.1,-116.52 -19.73,-16.81 -69.04,-50.34 -105.87,-61.49"
         style="fill:#b82327;fill-opacity:1;fill-rule:nonzero;stroke:none"
         id="path20" /><path
         d="m 3808.23,2522.37 c 6.06,0.88 12.02,7.89 10.72,15.39 -1.87,11.08 -11.31,26.35 -17.37,35.96 -23.74,37.55 -25.69,39.12 -74.56,38.98 -110.23,0 -161.29,43.83 -212.68,96.43 -5.54,5.69 -15.46,17.48 -23.17,15.87 -7.88,1.58 -14.47,-5.79 -12.91,-12.27 6.19,-25.91 29.62,-119.26 40.54,-143.68 25.12,-56.76 140.51,-47.87 190.02,-46.49 -0.47,0.05 -0.95,0.05 -1.42,0.05 5.88,0.02 95.21,-1.07 100.83,-0.24"
         style="fill:#b82327;fill-opacity:1;fill-rule:nonzero;stroke:none"
         id="path22" /><path
         d="m 3902.77,2462.25 c -2.83,4.12 -8.59,5.85 -13.43,3.72 -10.95,-4.82 -8.61,-7.9 20.52,-94.12 6.16,-18.42 8.22,-26.04 46.13,-45.61 18.21,-9.4 50.19,-20.16 68.67,-20.16 10.59,0 11.68,1.66 43.46,17.49 39.75,19.73 48.21,20.3 70.1,90.87 12.84,41.35 19.78,58.83 19.78,58.83 5.56,5.63 3.02,14.78 -3.73,17.52 -5.4,2.23 -11.87,0.74 -17.59,-0.59 -118.64,-27.36 -167.93,-22.9 -233.91,-27.95"
         style="fill:#b82327;fill-opacity:1;fill-rule:nonzero;stroke:none"
         id="path24" /><path
         d="m 3841.96,2127.37 c -4.41,-5.19 -2.06,-14.83 5.63,-17.17 0.7,-5.72 7.11,-9.96 11.89,-8.66 2.25,0.55 3.85,0.93 5.66,2.42 2.89,1.41 5.43,2.44 8.3,3.66 31.08,12.99 45.28,19.58 69.61,20.14 60.82,-2.09 81.38,-26.8 122.31,-24.96 48.22,1.9 47.53,17.79 50.95,42.96 5.97,43.85 12.35,72.73 -5.9,72.73 -14.35,0 -68.1,-48.72 -86.77,-67.99 0,0 -25.97,68.2 -25.97,68.22 -4.18,10.58 -10.57,25.96 -24.37,20.39 -16.1,-6.43 -73.24,-58.28 -92.86,-75 -2.54,-2.15 -8.31,-7.09 -12.07,-10.35 -10.31,-8.95 -18.95,-17.58 -26.41,-26.39"
         style="fill:#b82327;fill-opacity:1;fill-rule:nonzero;stroke:none"
         id="path26" /><path
         d="m 4084.68,1951.85 c -15.7,0 -172.47,5.36 -187.69,7.34 -16.13,2.11 -16.83,5.72 -132.54,-132.92 -4.62,-5.44 -9.69,-11.66 -5.76,-18.35 4.85,-8.29 13.24,-7.46 22.95,-5.74 23.1,4.1 27.73,6.9 63.81,12.44 28.17,4.26 32.03,3.17 35.87,8.45 2.14,2.94 2.76,6.79 1.2,10.39 21.8,6.37 270.12,86.72 289.07,92.85 10.58,3.34 12.34,12.37 7.77,18.14 -8.39,10.59 -34.92,7.4 -94.68,7.4"
         style="fill:#b82327;fill-opacity:1;fill-rule:nonzero;stroke:none"
         id="path28" /><path
         d="m 3565.89,1384.82 c -158.67,65.3 -174.66,46.1 -270.73,87.11 -61.45,26.13 -119.7,34.67 -198.62,63.63 l 1.04,-0.46 c -10.59,4.56 -33.55,12.31 -67.04,27.13 -60.97,26.8 -362.52,181.01 -393.68,200.15 -144.71,88.68 -84.64,71.48 -151.53,-111.5 -2.59,-6.54 -5.33,-12.68 -5.98,-19.42 -6.48,-67.75 169.89,-196.06 188.73,-158.94 3.94,0.93 7.09,4.03 8.19,8.09 10.86,40.45 7.29,33.25 135.91,2.96 0.04,-0.01 94.03,-18.2 198.13,-43.47 238.14,-57.77 196.36,-41.92 317.25,-72.69 166.58,-42.62 283.1,-49.89 301.52,-49.5 10.6,0.23 18,9.25 11.31,20.9 -11.27,19.38 -58.37,39.34 -74.5,46.01"
         style="fill:#b82327;fill-opacity:1;fill-rule:nonzero;stroke:none"
         id="path30" /><path
         d="m 1837.79,2628.21 c -40.01,9.34 -71.48,28.52 -132.61,45.09 -23.71,6.39 -36.2,11.53 -58.86,21.68 -5.8,2.56 -13,-1.71 -14.27,-7.87 -9.62,-5.23 -6.84,-16.77 -6.79,-33.65 -0.04,-46.43 2.08,-60.48 13.69,-98.88 18.83,-62.44 121.7,-257.27 142.96,-197.86 3.83,10.59 18.51,58.41 70.98,162.3 25,49.66 38.16,68.48 36.22,86.55 -3.98,13.07 -9.06,13.52 -51.32,22.64"
         style="fill:#b82327;fill-opacity:1;fill-rule:nonzero;stroke:none"
         id="path32" /><path
         d="m 1139.74,3824.67 c 4.88,-39.44 10.46,-77.83 29.65,-72.6 7.31,2.04 8.42,5.71 15.86,16.3 6.6,9.38 33.22,46.02 45.88,62.61 16.52,21.63 32.39,43.6 50.3,72.7 17.34,27.79 20.92,37.18 18.75,50.37 -9.92,58.25 -72.9,245.58 -60.46,417.7 25.95,357.8 166.47,564.79 167.94,575.38 4.53,6.63 6.26,9.2 12.89,15.2 9.7,8.84 -4.07,24.97 -14.94,14.94 -10.59,-9.79 -118.88,-141.61 -189.12,-375.65 -78.91,-262.12 -121.92,-411.79 -76.75,-776.95"
         style="fill:#b82327;fill-opacity:1;fill-rule:nonzero;stroke:none"
         id="path34" /><path
         d="m 1229.33,3411.21 c 47.94,-40.81 41.11,-16.89 86.19,45.7 60.33,83.91 122.02,133.56 101.73,153.88 -5.06,5.02 -10.87,3.28 -17.82,1.7 -75.16,-16.72 -183.73,-35.78 -247.65,56.12 1.84,6.98 -3.14,13.42 -10.16,13.42 -9.63,0 -16.07,-10.9 -20.97,-19.1 -24.92,-42.03 -27.41,-48 -23.64,-63.61 9.27,-38.48 38.67,-72.24 48.03,-85.61 23.18,-33.13 42.09,-66.49 84.29,-102.5"
         style="fill:#b82327;fill-opacity:1;fill-rule:nonzero;stroke:none"
         id="path36" /><path
         d="m 1741.33,2986.26 c 7.77,-2.07 56.08,-23.57 71.46,-30.98 7.67,-3.68 17.57,5.35 13.2,14.5 -0.97,1.98 -2.37,3.42 -4.56,4.68 0,0 -19.5,75.21 -25.45,141.21 -2.5,27.5 -5.23,60.35 -9.46,70.94 -10.82,26.55 -31.81,0.56 -65.78,-33.17 -38.35,-37.6 -86.73,-101.73 -118.27,-144.69 1.28,6.37 -1.77,11.57 -7.31,15.32 -2.83,1.95 -9.17,1.99 -12.63,2.03 -135.13,1.34 -310.52,87.43 -375.71,209.36 -8.65,16.14 -9.38,23.37 -18.6,23.37 -6.61,0 -11.11,-5.54 -10.55,-11.37 -11.45,-9.34 -101.45,-174.11 45.69,-383.45 15.89,-22.66 36.26,-39.66 46.85,-48.82 23.54,-20.39 58.69,-41.43 90.43,-44.59 20.13,-2 31.96,5.61 47.57,17.91 22.64,17.84 70.34,71.29 150.41,159.5 -40.99,-56.73 -31.2,-66.72 5.66,-128.23 16.62,-27.65 21.78,-39.15 33.03,-36.96 8.88,1.67 7.97,8.9 34.56,60.69 19.52,35.85 88.25,139.17 109.46,142.75"
         style="fill:#b82327;fill-opacity:1;fill-rule:nonzero;stroke:none"
         id="path38" /><path
         d="m 4457.74,3978.83 c -14.2,-5.04 -15.46,-18.7 -13.98,-50.5 2.95,-58.51 -1.01,-111.54 -21.57,-169.51 -17.1,-48.29 -40.94,-126.2 -115.4,-194.01 -86.33,-78.76 -111.98,-86.43 -99.63,-100.49 -14.65,-27.07 -59.87,-156.92 -50.73,-186.52 8.17,-26.63 32.3,-2.5 148.97,90.24 57.94,46.09 79.8,67.72 111.28,92.73 47.63,37.91 70.73,45.07 113.39,76.13 170.4,124.12 15.56,473.27 -72.33,441.93"
         style="fill:#b82327;fill-opacity:1;fill-rule:nonzero;stroke:none"
         id="path40" /><path
         d="m 2481.22,3416.45 c -18.04,-9.48 -46.7,-26.74 -59.02,-41.54 -8.29,-9.94 -3.42,-20.18 4.75,-21.62 6.99,-1.21 58.33,9.44 58.97,10.21 40.68,7.2 93.69,12.66 93.69,12.66 5.6,-1.24 6.48,-3.03 12.32,0.2 5.47,3.07 5.95,9.55 4.1,15.61 -25.91,83.76 -51.72,57.47 -114.81,24.48"
         style="fill:#5dcbf5;fill-opacity:1;fill-rule:nonzero;stroke:none"
         id="path42" /><path
         d="m 2932.9,3452.58 c -24.69,6.97 -54.59,10.09 -65.18,12.54 -0.46,2.4 -0.52,2.62 -0.96,4.64 22.87,0.38 45.51,-7.33 66.14,-17.18 z m 32.34,-18.41 c 0.33,-0.23 0.66,-0.46 0.98,-0.69 l -1.04,0.32 c 0.02,0.13 0.05,0.25 0.06,0.37 z m 23,-18.48 c 2.43,-2.12 4.85,-4.25 7.25,-6.41 -3.07,1.04 -6.13,2.08 -9.2,3.11 0.95,1.03 1.66,2.32 1.95,3.3 z m 30.32,-30.25 c 1.05,-1.3 4.74,-6.16 5.74,-7.49 -0.4,0.14 -0.79,0.27 -1.19,0.4 -1.13,3.9 -3.26,4.96 -6.04,6.33 0.52,0.22 1.02,0.47 1.49,0.76 z m -47.35,-8.36 c 52.7,-18.49 82.66,-37.02 81.15,-9.45 -1.6,28.48 -114.86,135.69 -198.3,121.51 -4.06,-1.94 -5.26,-2.19 -7.78,-6.84 -8.59,-5.52 -4.28,-11.29 1.91,-59.26 4.21,-32.26 4.24,-5.1 123.02,-45.96"
         style="fill:#5dcbf5;fill-opacity:1;fill-rule:nonzero;stroke:none"
         id="path44" /><path
         d="m 3748.12,3275.36 c 1.76,-1.5 3.93,-2.34 6.12,-2.46 2.76,-7.26 12.22,-8.62 17.11,-2.72 7.02,0.05 9.3,5.48 12.88,11.61 7.39,12.84 19.38,32.46 28.36,43.67 9.08,11.28 -6.89,27.6 -18.87,11.31 -2.46,1.09 -5.39,1.21 -8.12,0.06 -2.3,1.2 -4.88,1.42 -7.21,0.74 -4.98,3.13 -10.22,1.26 -14.1,-3.19 -10.59,-0.12 -29.73,3.79 -43.43,-0.94 -10.2,-3.49 -13.38,-14.25 -5.75,-22.13 7.77,-8.15 32.71,-35.7 33.01,-35.95"
         style="fill:#5dcbf5;fill-opacity:1;fill-rule:nonzero;stroke:none"
         id="path46" /><path
         d="m 4058.56,3471.47 c -1.92,-0.7 -8.17,-0.15 -10.31,0 -0.49,-3.84 -3.39,-7.01 -8.31,-7.4 -48.15,-38.59 -40.87,-28.14 -52.24,-78.03 -1.66,-4.92 -5.69,-14.73 -4.12,-19.34 1.65,-4.77 6.58,-7.7 11.63,-6.7 3.26,-6.41 11.87,-6.91 15.81,-2.05 8.01,9.9 66.27,99.29 64.34,112.22 -0.13,0.01 -0.26,0.01 -0.4,0.02 0.12,-0.02 0.24,-0.02 0.37,-0.03 -3.84,0.08 -7.25,0.08 -16.77,1.31"
         style="fill:#5dcbf5;fill-opacity:1;fill-rule:nonzero;stroke:none"
         id="path48" /><path
         d="m 4017.56,3515.19 c 0.63,-0.17 1.27,-0.33 1.9,-0.5 l -1.96,-0.19 c 0.02,0.23 0.05,0.46 0.06,0.69 z m 43.86,-12.04 c 0.01,0 0.01,0 0.03,-0.01 h -0.03 z m -95.41,4 c 10.59,-2.07 88.62,-23.14 111.41,-19.95 4.91,5.82 12.56,12.65 12.02,19.6 -1.29,16.79 -49.8,20.09 -87.94,33.66 -2.61,0.94 -6.83,2.58 -9.6,2.58 -7.55,0 -13.07,-8.23 -9.36,-15.14 -9.45,-7.19 -20.23,-9.49 -16.53,-20.75"
         style="fill:#5dcbf5;fill-opacity:1;fill-rule:nonzero;stroke:none"
         id="path50" /><path
         d="m 3598.72,3450.74 c -2.38,-6.13 2.09,-12.86 8.78,-12.8 1.66,-3.76 3.15,-7.42 1.99,-11.36 0,-0.01 0,-0.01 0,-0.01 0,-3.04 -1.47,-2.53 0.02,-6.63 1.77,-4.91 7.75,-8.49 12.9,-6.28 2.56,1.08 3.1,1.71 5.22,3.52 59.34,51.34 86.08,54.1 76.11,69.04 -2.16,3.26 -6.06,4.91 -9.79,4.5 0.17,2.49 -0.63,5.05 -2.45,7.05 4.52,9.09 12.35,19.32 5.34,26.07 1.55,5.03 -1.1,11.23 -5.73,13.14 8.17,8.43 2.01,17.49 -5.48,17.49 -6.08,0 -8.57,-3.06 -13.27,-6.54 -68.45,-51.05 -80.47,-64.81 -81.34,-80.77 -6.81,-8.54 -0.24,-17.06 7.7,-16.42"
         style="fill:#5dcbf5;fill-opacity:1;fill-rule:nonzero;stroke:none"
         id="path52" /><path
         d="m 3756.94,3599.5 c 6.86,-4.26 13.97,1.36 21.18,5.01 0.86,-4.87 5.04,-8.22 9.85,-8.33 1.91,-7.51 11.01,-10.37 16.4,-6.31 62.7,47.07 107.65,54.01 118.24,58.67 10.69,4.66 8.84,17.99 -2.53,20.59 -6.3,1.42 -41.66,-8.6 -47.93,-10.63 -5.05,5.13 -14.18,2.65 -20.9,0.32 -5.64,10.59 -20.16,2.27 -37.97,-5.79 -6.97,1.96 -16.36,-3.39 -22.7,-6.61 -5.03,-2.48 -62.87,-31.92 -67.29,-35.94 -2.48,-2.24 -2.92,-6.57 -1.88,-9.56 3.64,-10.6 16.08,-5.95 35.53,-1.42"
         style="fill:#5dcbf5;fill-opacity:1;fill-rule:nonzero;stroke:none"
         id="path54" /><path
         d="m 3009.6,3183.87 c -0.02,0.02 -0.03,0.05 -0.05,0.06 0.55,0.47 1.1,0.94 1.65,1.41 -0.53,-0.5 -1.07,-0.97 -1.6,-1.47 z m -1.07,395.63 c 0.05,-0.03 0.11,-0.07 0.16,-0.1 -0.07,0.04 -0.17,0.11 -0.16,0.1 z m 96.34,-195.05 c 7.8,46.41 15.17,53.69 28.26,114.07 3.16,14.41 3.51,18.32 -12.51,27.55 -2.57,11.51 -10.46,13.27 -16.07,9.2 -2.36,1.37 -4.7,2.77 -7.06,4.15 -1.4,3.85 -4.95,6.75 -10.17,5.97 -43.54,25.62 -92.55,53.93 -140.3,76.65 -2.08,2.22 -3.81,3.92 -7.54,3.76 -48.36,25.7 -36.44,22.78 -108.53,62.65 -4.02,2.21 -9.47,0.89 -12.43,-2.54 -0.87,-1.01 -1.54,-2.23 -1.97,-3.54 -1.13,-0.6 -2.15,-1.39 -2.98,-2.35 -3.5,-4.06 -3.9,-10.28 1.12,-15.21 44.52,-43.77 129.76,-140.36 121.59,-131.64 16.32,-17.4 43.91,-22.85 119.71,-122.47 -1.16,-5.15 -3.57,-14.17 -0.61,-18.52 3.18,-4.69 10.12,-5.61 14.28,-0.54 2.12,-3.1 4.07,-6.31 5.96,-9.55 -1.28,-2.34 -1.26,-5.05 -0.34,-7.45 -1.96,-0.41 -3.85,-1.16 -5.34,-2.61 -9.1,-8.82 1.52,-17.01 10.17,-26.13 -24.47,-79.98 -76.53,-132.17 -216.17,-221.55 -25.54,-16.35 -92.31,-54.09 -129.69,-72.67 -2.62,-2.07 -5.26,-4.13 -7.9,-6.18 58.18,6.7 25.07,3.18 83.03,8.71 0,0.01 0,0.01 0.01,0.01 8.02,0.76 16.04,1.55 24.04,2.46 131.81,60.4 202.26,109.2 245.13,177.79 55.87,89 45.2,96.24 13.42,130.12 10.11,0.25 11.23,10.1 12.89,19.86"
         style="fill:#5dcbf5;fill-opacity:1;fill-rule:nonzero;stroke:none"
         id="path56" /><path
         d="m 4251.46,3830.71 c 4.8,0 7.63,2.33 10.95,5.59 72.46,71.26 73.53,70.28 66.37,104.54 -23.62,114.01 -34.2,160.29 -13.38,260.2 4.76,0.08 8.7,3.74 9.39,7.1 6.63,32.61 13.58,36.9 -4.38,51.66 -31.19,25.83 -88.98,54.16 -109.56,39.79 -16.12,-9.67 -7.75,-30.14 1.29,-104.41 11.03,-90.37 5.38,-51.15 9.68,-89.7 25.26,-227.91 2.99,-274.77 29.64,-274.77"
         style="fill:#5dcbf5;fill-opacity:1;fill-rule:nonzero;stroke:none"
         id="path58" /><path
         d="m 4241.51,3736.81 c 1.16,12.39 5.53,22.94 11.43,33.91 -3.69,-10.59 -4.99,-14.63 -11.43,-33.91 z m 3.23,-55.44 c -0.06,0.71 -0.12,1.42 -0.19,2.13 0.19,-0.28 0.38,-0.56 0.6,-0.82 -0.14,-0.44 -0.27,-0.87 -0.41,-1.31 z m -1.04,11.63 c -0.1,1.15 -0.21,2.29 -0.31,3.44 0.33,0.05 0.66,0.11 0.98,0.19 -0.23,-1.21 -0.45,-2.42 -0.67,-3.63 z m 95.24,192.25 c -7.43,-10.74 -14.56,-21.73 -21.12,-33.04 -4.82,0.16 -7.92,-2.68 -9.76,-7.14 -1.69,-0.1 -3.26,-0.65 -4.66,-1.5 -0.14,0.11 -0.29,0.23 -0.44,0.34 0.64,1.53 1.27,3.06 1.9,4.6 2.54,6.24 -3.16,14.59 -12.05,12.91 -7.19,-1.35 -12.13,-10.91 -16.41,-17.05 -58.96,-84.46 -58.29,-94.38 -53.72,-141.67 4.96,-51.44 8.59,-118.2 8,-112.99 0.15,-3.01 0.11,-5.15 1.41,-7.58 2.06,-5.27 8.22,-7.45 12.51,-6.42 15.46,3.69 22.2,94.65 48.59,170.75 19.02,55.15 38.31,90.96 63.76,127.4 7.51,10.79 -9.54,23.61 -18.01,11.39"
         style="fill:#5dcbf5;fill-opacity:1;fill-rule:nonzero;stroke:none"
         id="path60" /><path
         d="m 1808.28,4003.19 c -1.36,16.69 -0.36,26.74 -12.22,26.74 -6.63,0 -11.39,-5.89 -10.99,-10.6 0.22,-2.68 0.45,-5.35 0.69,-8.02 -1.8,-4.1 -0.82,-6.48 0.96,-10.53 2.54,-27.8 10.27,-186.69 -11.66,-240.45 l 0.06,0.11 c -25.69,-55.21 -72.97,-80.53 -89.57,-78.58 -5.75,1.3 -5.15,2.28 -10.99,1.67 -6.79,-0.7 -12.35,-7.81 -7.57,-20.62 5.42,-14.5 36.99,-81.86 70.29,-102.9 18.52,-11.69 43.13,-14.51 65.84,-0.23 68.43,42.73 68.89,204.38 59.47,282.3 -7.46,61.08 -27.66,106.2 -54.31,161.11"
         style="fill:#5dcbf5;fill-opacity:1;fill-rule:nonzero;stroke:none"
         id="path62" /><path
         d="m 1551.55,3952.89 c 149.49,0 63.06,429.64 0.48,483.25 -5.34,12.06 -24.05,5.51 -20.3,-7.56 15.54,-69.14 34.75,-227.1 17.36,-289.99 -17.41,-62.12 -51.34,-89.38 -77.82,-96.54 -9.99,-2.82 -13.4,-9.2 -11.13,-17.57 5.18,-19.15 49.27,-71.59 91.41,-71.59"
         style="fill:#5dcbf5;fill-opacity:1;fill-rule:nonzero;stroke:none"
         id="path64" /><path
         d="m 1638.54,2356.65 c 15.62,-4.43 28.31,4.14 21.16,29.28 -1.76,6.26 -74.17,198.61 -100.94,301.28 l 0.02,-0.37 c -32.83,135.22 -26.21,174.61 -31.83,223.11 -0.8,6.68 -3.95,9.81 -7.87,11.45 -5.94,2.68 -11.38,-1.06 -16.16,-5.44 -32.41,-29.41 -141.2,-119.25 -95.24,-125.42 -17.56,-98.18 -17.61,-155.41 -8.97,-236.32 6.52,-60.53 8.82,-54.93 33.79,-75.34 36.66,-29.95 55.19,-41.82 76.46,-56.81 47.56,-33.57 107.22,-59.02 129.58,-65.42"
         style="fill:#5dcbf5;fill-opacity:1;fill-rule:nonzero;stroke:none"
         id="path66" /><path
         d="m 1741.97,2243.51 c -5.27,33.28 -4.4,37.24 -9.22,41.27 -6.66,33.23 -13.32,45.2 -29.24,41.56 -28.44,-6.6 -105,-42.15 -115.77,-47.21 -42.11,-19.66 -73.54,-32.84 -81.93,-52.8 -4.37,-10.36 0.1,-16.73 6.19,-28.73 52.79,-104.74 91.42,-178.09 91.42,-178.09 34.22,-68.15 45.78,-78.09 79.67,-140.21 47.62,-87.33 55.51,-107.2 102.81,-76.05 14.84,9.76 41.53,33.34 52.16,49.92 14.55,22.68 8.82,35.05 3.92,46.55 -20.7,48.98 -62.18,104.55 -100.01,343.79"
         style="fill:#5dcbf5;fill-opacity:1;fill-rule:nonzero;stroke:none"
         id="path68" /><path
         d="m 2011.35,5116.43 c 1.69,-6.11 9.88,-9.18 14.75,-6.47 3.26,1.83 5.99,3.26 8.61,4.51 177.64,-26.87 182.51,-25.29 229.52,-36.65 468.96,-128.11 591.67,-429.78 864.76,-501.48 l -0.52,0.19 c 0.75,-0.2 7.76,-2.09 8.45,-2.22 l -0.01,-0.03 c 146.87,-38.05 264.75,59.7 353.59,181.81 16.01,22 21.28,31.79 27.2,43.6 17.79,35.51 46.56,120.78 53.05,143.33 32.18,111.8 15.11,194.95 -17.99,157.23 -165.89,-188.37 -537.28,-189.79 -781.14,-102.39 -65.41,23.59 -369.1,157.38 -670.78,149.39 -20.23,-0.49 -53.55,-3.47 -71.73,-11.22 -5.77,0.63 -17.32,2.17 -21.7,-1.33 -6.97,-5.62 -3.94,-16.46 3.94,-18.27"
         style="fill:#5dcbf5;fill-opacity:1;fill-rule:nonzero;stroke:none"
         id="path70" /><path
         d="M 4097.33,648.742 C 3913.23,639.719 3778.44,620.371 3281.92,854.949 3029.75,974.23 2266.27,1544.28 2133.26,1550.07 v -0.03 l -0.07,0.03 c -34.6,-0.92 -53.91,-48.08 -73.34,-91.12 -49.09,-108.31 -52.65,-107.28 -54.08,-126.17 -9.48,-8.62 -17.26,-33.76 -3.04,-37.54 2.78,-0.73 5.75,-0.33 8.22,1.11 5.6,3.21 4.94,7.64 6.56,14.07 5.45,-1 11.88,4.32 11.49,11.16 9.56,2.46 18.89,1.81 28.64,0.6 252.36,-39.96 942.97,-663.598 1830.19,-696.328 161.31,-6.2 184.97,-18.411 179.98,2.347 19.28,0.653 68.68,3.731 94.47,3.731 14.06,-0.051 16.46,11.031 10.35,17.179 -5.07,5.102 -6.83,3.043 -75.3,-0.367"
         style="fill:#5dcbf5;fill-opacity:1;fill-rule:nonzero;stroke:none"
         id="path72" /><path
         d="m 2721.28,3340.26 c 8.45,0 17.78,1.81 23.71,7.79 3.81,2.09 10.38,12.48 10.81,14.62 19.49,38.14 -1.38,84.72 -39.09,84.96 -57.63,0 -69.8,-107.37 4.57,-107.37"
         style="fill:#111011;fill-opacity:1;fill-rule:nonzero;stroke:none"
         id="path74" /><path
         d="m 2552.94,3421.33 c -2.28,-34.67 5,-68.2 26.94,-97.68 l 0.1,-0.07 c -59.38,15.61 -124.67,44.19 -135.26,48.46 0,0 31.93,24.9 108.22,49.29 z m 75.78,94.95 c 1.23,0.14 2.5,0.57 3.77,1.28 6.06,1.43 43.93,6.06 72.38,7.37 217.82,10.49 255.93,-27.08 321.37,-94.67 -86.16,56.75 -106.75,69.13 -177.05,75.63 -64.92,8.29 -120.96,-13.34 -156.37,-19.55 -10.59,-1.84 -118.89,-17.33 -166.02,-31.99 29,19.8 78.91,49.76 101.92,61.93 z m 236.84,-165.67 c 11.96,32.65 12.55,84.24 -1.7,113.66 11.94,-4.59 74.57,-1.55 161.54,-95.31 -11.81,0 -128.17,-13.25 -159.84,-18.35 z m -124.82,110.02 0.99,-0.27 0.38,0.14 c 0,0 39.9,5.4 48.77,6.1 23.86,-22.63 31.06,-91.51 -5.45,-131.07 -25.21,-5.07 -62.49,-13.87 -97.15,-19.43 -52.94,30.68 -76.98,84.83 -74.15,117.49 0.83,1.13 1.43,2.41 1.76,3.8 10.79,2.21 58.45,13.51 125.87,22.96 z m 217.77,-155.24 c -157.35,-89.17 -341.05,-75.51 -464.89,3.35 10.59,-4.18 121.76,-43.45 192.76,-43.45 90.79,0 67.32,17.14 295.23,52.9 -8.98,-4.79 -14.65,-8.02 -23.1,-12.8 z m -17.31,487.68 c -74.43,55.36 -160.67,94.64 -206.41,106.15 -41.04,9.97 -63.05,14.96 -161.74,2.07 -149.69,-19.67 -202.99,-110.12 -242.65,-162.51 -10.11,-13.53 -19.91,-26.33 -29.59,-43.07 -13.09,-22.49 -18.7,-40.97 -21.49,-61.63 -1.1,-7.18 6.18,-13.85 13.73,-11.63 4.2,-0.53 8.55,-0.79 12.91,-0.79 36.5,0 91.97,30.49 123.14,49.41 110.8,67.31 154.75,141.49 310.9,38.3 -35.21,-2.77 -200.65,-64.95 -286.91,-168.96 -28.2,-35.94 -69.81,-87.34 -59.14,-129.78 0.68,-3.33 3.33,-8.74 7.03,-12.12 -1.77,-4.69 -5.8,-22.14 -4.81,-27.28 -16.51,-154.07 347.4,-326.71 602.91,-138.99 36.24,26.54 60.63,52.89 72.93,71.7 4.04,6.17 27.28,44.37 26.06,51.64 8.49,19.73 1.05,36 -5.96,49.31 -82.41,154.4 -210.99,159.51 -370.87,159.83 -153.64,0 -144.79,-14.3 -272.64,-120.72 20.46,20.47 100.94,213.57 398.64,191.06 233.83,-156.58 222.49,-162.96 252.54,-160.06 22.47,2.2 35.34,4.28 58.64,35.13 16.73,21.98 24.09,36.09 21.68,70.16 -4.13,56.63 -93.43,105.32 -238.9,212.78"
         style="fill:#111011;fill-opacity:1;fill-rule:nonzero;stroke:none"
         id="path76" /><path
         d="m 3816.68,3454.16 c 10.98,-5.97 48.21,6.87 56.43,34.99 6.15,21 -1.33,45.7 -21.74,59.47 -29.24,19.65 -63.04,2.83 -73.48,-15.94 -18.49,-33.33 9.83,-75.16 38.79,-78.52"
         style="fill:#111011;fill-opacity:1;fill-rule:nonzero;stroke:none"
         id="path78" /><path
         d="m 3851.39,804.531 c -30.21,2.219 -62.5,4.758 -93.89,8.34 -56.85,6.391 -72.89,9.5 -99.29,15.008 -719.68,162.601 -1077.7,555.371 -1341.31,713.801 -36.63,22.05 -162.01,110.69 -176.7,87.57 -41.71,-4.34 -63.62,-11.54 -181.77,-309.66 -49.76,-125.33 -37.96,-73.1 -87.4,-211.1 24.84,142.24 55.54,219.34 63.43,247.83 l 0.03,-0.01 c 0,0 70.72,202.02 93.15,264.56 47.52,132.46 125.53,300.56 90.33,378.53 -4.42,9.93 -15.23,20.54 -24.06,13.66 -2.54,-0.26 -11.99,-5.87 -14.72,-7.25 -10.59,-5.43 -133.03,-59.07 -303.32,-161.04 -21.63,28.76 -36.53,41.18 -92.57,153.91 -42.06,84.15 -87.41,189.74 -119.55,235.3 111.04,-2.48 418.94,-29.44 418.94,-29.44 -134.99,97.47 -243.49,237.98 -300.5,369.32 -13.48,31.05 -25.9,72.46 -34.99,104.84 l 0.22,-0.49 c 72.31,-50.14 160.04,-77.15 228.63,-79.46 90.4,-281.38 300.66,-509.62 527.49,-696.4 -19.09,-109.86 -7.46,-182.71 -0.44,-227.18 17.67,-112.37 145.26,-216.88 237.1,-283.81 380.28,-277.72 512.55,-263.92 1396.41,-528.399 72.24,-21.648 123.92,-35.941 194.82,-63.18 -113.51,-9.968 -122.04,-14.172 -380.04,4.75 z M 1680.73,1654.9 c -16.97,61.03 208.61,178.21 267.03,211.67 C 1809.11,1694.9 1698.14,1616.41 1680.73,1654.9 Z M 1255,2787.69 c 17.26,-14.84 47.83,-30.95 71.64,-32.69 33.64,-2.32 65.54,18.02 91.04,36.18 19.62,14 70.84,54.65 87.83,69.46 -10.08,-44.2 -10.26,-266.71 97.82,-439.34 -167.61,58.07 -307.67,218.95 -348.33,366.39 z m -23.27,483.72 c 7.84,10.98 190.27,258.72 375.67,433.38 9.06,-131.82 159.52,-257.31 244.74,-166.43 40.68,42.61 79.89,94.75 36.99,291.38 -3.57,16.2 -5.74,21.99 -8.42,32.58 -23.36,84.44 -58.46,201.92 -116.82,201.92 -9.62,0 -14.37,-12.19 -8.27,-18.57 0.12,-20.76 91.92,-191.43 67.84,-341.41 -5.17,-31.09 -25.46,-106.7 -56.82,-108.22 -53.82,1.03 -99.48,138.51 -104.7,182.12 -3.88,37.08 -8.62,39.81 -85.42,-10.4 -76.87,-49.91 -237.48,-234.26 -292,-298.25 -5.08,1.79 -10.48,3.46 -15.64,5.07 -97.17,29.75 -141.51,108.76 -134.21,134.53 9.59,26.32 76.82,109.71 85.75,120.32 68.21,81.59 185.42,201.84 207.9,221.97 0.26,-2.54 8.59,-16.6 10.1,-18.84 23.73,-35.49 43.9,-51.86 87.67,-54.57 56.67,-2.73 103.41,36.24 127.85,87.69 78.8,165.64 -63.2,435.32 -85.97,461.26 -12.26,14 -29.86,34.55 -54.72,50.78 6.6,-33.08 101.38,-205.58 83.49,-380.37 -10.79,-113.23 -92.37,-134.64 -127.48,-4.61 -0.68,2.49 -3.11,4.59 -5.23,5.58 -6.94,16.53 -24.2,-1.52 -54.68,-26.64 -77.19,-63.04 -174.92,-178.66 -228.92,-241.16 -1.09,10.59 -56.84,299.09 13.72,557.93 1.75,6.66 5.92,23.32 7.61,30.04 73.2,312.87 242.69,669.78 524.42,861.45 176.23,119.81 318.97,185.44 578.68,224.22 l -2.24,0.45 c 0,0 174.75,22.73 335.52,17.45 10.6,-0.36 480.33,3.44 632.48,-45.99 262.51,-95.02 314.28,-229 284.47,-442.05 -15.01,-104.44 -56.31,-197.81 -75.43,-239.56 -15.21,-33.57 -45.16,-71.81 -69.9,-97.17 -37.73,-39.49 -65.34,-47.29 -90.62,-56.75 -117.56,-41.89 -237.89,38.42 -366.5,125.75 l 0.61,-1.24 c -199.51,150.94 -691.64,445.7 -975.69,369.48 -11.05,-2.95 -22.05,-6.11 -35.66,-10.24 -32.32,-9.52 -76.72,-23.38 -106.69,-38.19 -61.71,-29.97 -183.87,-112.22 -240.81,-216.25 -28.57,-51.99 -68.45,-247.21 2.6,-403.21 16.04,-36.24 41.61,-71.09 68.97,-117.1 93.95,-158.63 215.87,-256.35 257.52,-480.33 13.58,-84.52 9.69,-162.99 11.38,-201.3 3.21,-65.2 -2.86,-72.5 -21.49,-141.38 -31.35,-115.96 -45.82,-106.16 -89.32,-177.96 -63.99,-104.1 -186.65,-236.32 -224.57,-284.13 -62.86,-79.92 -145.61,-162.99 -231.28,-221.12 -177.18,106.19 -224.67,304.61 -136.48,428.09 z M 1854,2665.7 c -127.88,2.03 -261.1,108.4 -294.92,247.36 6.17,4.55 41.75,41.25 66.09,65.06 63.73,61.97 77.11,79.84 139.01,148.01 3.15,-39.42 31.15,-257.67 89.82,-460.43 z M 3264.35,1190.39 c -429.2,185.67 -667.51,389.42 -697.27,448.06 -15.28,39.05 -4.08,65.31 18.44,129.45 27.78,-17.86 263.06,-196.37 510.56,-260.87 242.63,-79.32 263.05,-95.98 456.84,-129.89 -37.71,-73.06 -97.13,-246.48 -101.77,-260.29 -68.27,20.96 -183.13,71.91 -183.13,71.91 -0.76,0.38 -2.54,1.09 -3.78,1.69 z m 490.32,2134.46 c 48.61,0.6 104.2,4.34 167.6,33.64 79.02,35.51 117.86,74.29 136.67,93.75 -3.57,-4.4 -2.62,-3.49 -6.15,-8.16 -79.96,-106.33 -241.89,-145.37 -297.79,-149.63 -0.37,0.6 -26.6,30.23 -27.07,30.74 0.88,-0.88 25.48,-0.35 26.74,-0.34 z m 165.62,225.21 c 3.2,-6.05 3.97,-7.09 5.38,-15.19 14.77,-143.52 -241.3,-165.95 -185.87,31.58 10.59,-1.81 84.74,19.2 180.49,-16.39 z m 135.01,-47.97 -1.76,-0.68 c -10.45,-10.58 -60.93,-83.55 -164.56,-118.94 47.9,23.2 90.58,71.06 102.73,139.32 -0.33,-2.35 45.84,-16.18 48.35,-16.75 5.78,-1.37 10.77,-2.33 15.24,-2.95 z m -309.4,109.31 c 3.94,3.87 13.32,12.87 22.51,21.43 139.92,36.22 300.6,-9.8 308.5,-91.52 l -0.29,0.6 c -96.79,11.9 -205.1,92.59 -330.72,69.49 z m -70.01,-85.43 c 15.97,-131.78 107.64,-166.86 176.67,-155.37 -38.53,-9.7 -122.19,-9.02 -162.79,-3.84 -19.8,23.28 -60.46,62.59 -94.66,111.05 25.9,2.88 57.84,36.98 80.14,60.21 -0.36,-4.05 0.15,-7.97 0.64,-12.05 z m -46.47,1688.9 c 296.25,-255.63 475.36,-488.99 533.41,-1051.49 47.63,-470.6 -30.39,-1049.86 -142.89,-1219.44 -5.6,10.6 -78.44,131.16 -171.06,244.29 10.6,2.91 67.57,32.64 99.5,59.45 44.21,37.8 87.23,87.86 122.91,147.37 15.75,25.3 52.73,53.89 50.76,117.98 0.59,0 2.17,1.49 2.6,1.9 8.9,8.83 15.52,33.08 3.62,63.9 -3.34,8.7 -12.7,20.78 -18.46,28.22 -59.52,74.06 -188.59,78.38 -282.96,71.02 l -0.21,-0.64 c -0.14,0.86 -10.72,-0.25 -11.59,-0.33 l 2.28,0.42 c 17.43,12.17 16.56,22.92 122.41,90.83 65.3,41.46 71.5,25.59 140.29,-0.95 10.59,-4.02 25.32,-9.9 38.84,-17.95 4.12,-2.24 5.74,-4.87 10.34,-4.87 5.23,0 10.01,3.74 11.09,8.16 25.26,-2.34 -47.4,222.91 -189.15,215.74 l 0.27,-1.15 c -3.3,4.83 -59.77,-12.69 -65.28,-14.71 -182.47,-65.72 -357.69,-226.41 -377.96,-279.67 -2.15,0 -6.74,-5.15 -6.6,-9.58 0.01,-0.27 0.38,-12.55 0.4,-12.83 0.03,-0.57 0.07,-1.37 0.1,-1.83 0.81,-20.06 1.58,-33.53 5.87,-55.54 18.25,-87.77 41.65,-107.14 60.69,-132.08 225.32,-295.63 295.38,-299.18 429.57,-589.53 l 1.06,0.14 c 16.86,-52.64 46.7,-75.84 112.89,-318.34 -1.71,0 -2.9,-0.34 -4.52,-1.93 -76.09,-59.35 -162.5,-38.59 -212.8,12.99 -62.49,64.28 -36.78,105.46 -222.62,88.95 -105.43,-9.49 -201.75,78.09 -102.58,155.25 29.44,21.2 38.49,7.23 33.56,46.77 -2.93,22.19 -9.11,58.51 -11.26,69.3 -3.97,19.01 -2.05,22.85 -9.05,26.39 -105.74,-25.29 -253.01,-325.68 61.85,-371.42 29.58,-3.99 53.93,-2.75 67.44,-3.99 25.92,-2.98 27.9,-29.29 74.01,-79.36 50.57,-53.71 64.89,-63.24 105.51,-83.51 74.93,-37.77 173.24,-49.88 236.36,27.68 5.56,6.73 4.01,7.08 4.83,0.41 14.8,-123.81 13.13,-215.96 13.09,-211.48 0,0 -22.46,20.11 -44.16,47.1 -22.28,27.85 -34.15,18.32 -57.69,-8.55 -4.07,-4.45 -12.62,-14.9 -17.65,-18.13 -139.92,56.48 -44.11,46.01 -212.43,-29.81 -13.44,-6.03 -29.12,-12.93 -46.21,-18.98 -30.49,-10.89 -27.48,-12.91 -62.08,-25.16 -152.05,74.35 -152.78,139.29 -200.92,139.29 -48.05,13.36 -134.81,-103.75 -118.25,-134.92 8.35,-16.84 32.9,-30.88 69.06,-0.1 27.83,24.15 52.86,55.64 63.9,71.62 0.52,-1.73 7.16,-12.51 8.16,-14.18 15.96,-26.57 22.59,-35.64 36.44,-47.36 -0.79,-0.15 -1.51,-1.12 -2.11,-2.83 -3.2,-8.06 -1.97,-16.06 -0.32,-24.47 22.58,-108.96 109.08,-95.69 212.15,-137.54 27.08,-11.72 15.94,-13.21 18.79,-31.64 11.98,-72.46 94.64,-71.41 175.19,-84.9 60.53,-8.78 109.73,-14.56 170.51,-5.85 l -0.98,-1.58 c -9.91,-55.73 -28.64,-106.37 -49.41,-158.78 -8.47,34.76 -109.69,138.23 -239.18,120.65 -18.08,-2.72 -36.03,-6.75 -54.86,-12.33 -107.17,-30.7 -226.91,-139.45 -235.61,-161.14 -9.26,-10.02 5.3,-24.14 14.83,-16.18 24.98,21.59 171,120.58 270.81,128 25.27,2.05 53.91,2.27 79.26,-1.71 59.58,-9.03 99.06,-26.93 114.33,-85.38 8.5,-40.17 -7.64,-83.35 -18.06,-112.45 -24.31,-68.03 -75.18,-99.7 -139.72,-131.87 -14.88,-7.75 -36.16,-16.24 -62.36,-23.2 -119.5,-26.86 -341.29,22.89 -466.33,53.91 -224.53,56.93 -589.61,234.33 -787.59,351.12 -1.2,7.05 -4.2,5.29 -55.24,34.54 -1.91,1.09 -3.79,2.17 -5.7,3.27 -320.58,231.89 -492.42,495.49 -611.8,864.21 -60.38,202.04 -88.74,402.05 -89.88,412.68 160.96,180.75 169.31,223.54 196.34,293.21 l 0.04,0.48 c 4.59,7.4 30.71,88.73 39.7,127.01 5.56,23.82 8.32,46.74 9.84,70.52 12.83,205.47 -45.08,358.35 -123.64,518.79 -118.31,241.9 -262.36,333.51 -259.16,574.02 1.76,43.91 8.3,79.6 13.71,90.19 23.53,44.07 57.43,81.49 94.56,114.25 142.09,116.36 349.24,128.7 516.67,66.68 60.02,-22.16 78.28,-31.32 88.87,-36.09 225.71,-105.19 232.22,-85.59 397.85,-216 30.42,-23.95 60.98,-45.12 87.27,-67.69 18.01,-14.72 33.49,-28.38 66.21,-51.7 53.96,-38.85 121.19,-90.02 227.12,-104.98 67.19,-9.22 99.98,-0.19 118.97,4.64 280.65,69.94 385.09,438.45 354.2,664.78 z m 522.25,-3061.43 c 0.16,-0.78 4.08,-8.95 4.42,-9.66 -1.76,3.4 -33.36,5.89 -37.27,5.89 -26.88,0 -39.02,-8.82 -51.89,-13.02 l -0.33,0.09 c -28.92,-1.39 -79.43,59.2 -124.22,42.26 -64.29,-22.76 -35.74,-54.89 -160.4,-26.5 0.05,0 1.78,-0.26 1.82,-0.26 195.62,91.22 111.96,117.15 226.73,43.55 22.89,-15.2 27.98,0.56 45.71,27.61 2.88,4.09 5.42,7.45 8.44,10.55 9.84,-24.76 63.06,-66.12 86.99,-80.51 z m 31.98,-69.37 c 1.86,-4 4.75,-9.74 6.09,-13.65 0.7,-2.27 1.21,-3.92 2.98,-5.89 -0.97,-10.59 1.09,-15.19 -1.74,-29.55 -6.46,-34.19 -36.41,-45.47 -68.89,-51.68 -54.92,-10.23 -226.81,-2.78 -251.28,22.68 -19.65,24.03 -19.41,56.2 -36.45,75.73 0.34,-0.33 0.85,-0.45 1.38,-0.56 49.57,-8.71 65.84,18.04 93.27,37.84 40.01,28.3 63.59,-25.16 128.83,-35.61 33.76,-3.49 63.24,26.5 102.23,13.39 13.22,-5.28 18.62,-8.95 23.58,-12.7 z m 42.62,1350.42 -0.03,0.01 c 14.75,96.42 30.6,254.01 32.41,348.13 10.58,9.14 39.51,47.02 159.65,146.78 15.46,12.73 20.84,18.9 40.49,14.47 85.52,-27.95 143.77,-190.19 66.9,-319.38 -46.84,-75.99 -196.31,-187.2 -316.16,-284.26 6.56,27.22 12.44,66.08 16.74,94.25 z m 178.63,552.7 c -10.59,-5.57 -106.15,-79.19 -146.03,-120.19 -0.5,149.71 -9.73,266.52 -30.89,410.78 10.3,-10.58 155.45,-94.85 176.92,-290.59 z M 3919.64,998.629 c -111.02,32.491 -143.87,35.701 -313.64,78.841 15.05,61.35 71.2,215.63 108.88,278.55 135.05,-4.71 240.13,45.01 305.4,117.45 15.58,17.21 29.69,41.39 47.76,70.5 7.79,12.19 37.07,54.43 37.07,104.9 40.86,85.88 74.5,178.3 90.23,272.93 36.65,16.09 66.39,79.26 24.86,167.15 32.3,112.37 0.23,354.11 -33.69,470.64 -32.93,115.58 -85.52,244 -135.34,332.45 74.34,126.77 104.18,212.12 139.29,356.06 103.46,97.36 310.87,221.24 373.51,299.01 25.59,32.2 43.33,74.53 50.52,111.06 15.19,67.24 -2.05,132.42 -6.94,162.89 -7.23,45.93 -14.24,51.57 -26.8,76.62 -16.84,31.18 -41.59,63.49 -52.18,71.88 -7.19,10.59 -34.66,32.52 -64.4,35.15 4.77,14.24 -11.87,119.44 -82.97,213.93 -34.24,45.09 -77.35,95.81 -164.71,131.07 l 0.11,0.36 c -1.97,16.27 -21.5,125.79 -51.74,220.18 -28.52,88.53 -59.61,151.27 -91.4,212.85 -130.54,259.35 -337.44,415.44 -470.61,521.14 -21.1,42.75 -70.56,105.33 -102.71,131.05 -22.31,17.7 -56.2,41.31 -115.58,75.16 -48.2,27.84 -82.25,42.93 -136.08,52.14 -223.66,36.62 -384.49,59.68 -540.63,56.17 -498.61,-12.79 -970.06,-157.21 -1267.29,-550.17 -157.28,-207.37 -175.47,-296.75 -255.95,-515.68 -1.02,-2.7 -0.02,-5.82 0.46,-7.04 -9.48,-16.63 -124.89,-443.06 -57.96,-777.42 -35.43,-39.93 -26.93,-29.84 -60.26,-68.45 -1.57,-10.59 -8.07,-54.25 -6.88,-65.05 11.71,-99.27 62.57,-204.72 156.49,-250.94 -143.78,-181.01 -181.66,-351.35 -38.53,-526.54 25.1,-177.79 131.49,-349.9 343.03,-478.61 -35.61,0.17 -172.09,-49.21 -178.02,-61.2 -1.16,-2.35 -1.43,-5.07 -0.73,-7.67 -10.53,-25.93 66.57,-349.73 296.48,-569.03 -53.16,-52.65 -24.61,-150.27 44.17,-150.27 72.13,0 204.62,115.05 258.19,171.71 -136.43,-480.45 -168.59,-755.25 -165.97,-791.259 3.78,-48.911 62.85,-39.84 90.56,-23.711 35.29,20.679 43.22,51.929 73.56,143.5 10.89,32.72 84.68,203.99 101.07,232.58 l -0.39,-0.34 c 26.6,51.36 30.82,75.74 66.4,151.8 154.28,-9.08 385.45,-339.06 926.15,-608.029 13.58,-6.781 21.94,-11.019 42.92,-20.839 380.94,-178.821 808.46,-299.321 1225.35,-221.813 141.6,26.281 309.88,93.231 317.49,104.582 3.59,1.688 4.44,3.809 5.67,6.731 20.51,74.269 -354.98,160.937 -704.22,263.027"
         style="fill:#111011;fill-opacity:1;fill-rule:nonzero;stroke:none"
         id="path80" /><path
         d="m 2715.82,3448.72 c 0,-8.47 -6.86,-15.34 -15.33,-15.34 -8.47,0 -15.33,6.87 -15.33,15.34 0,8.46 6.86,15.33 15.33,15.33 8.47,0 15.33,-6.87 15.33,-15.33"
         style="fill:#ffffff;fill-opacity:1;fill-rule:nonzero;stroke:none"
         id="path82" /><path
         d="m 3873.27,3513.21 c 0,-8.47 -6.86,-15.33 -15.33,-15.33 -8.47,0 -15.33,6.86 -15.33,15.33 0,8.47 6.86,15.33 15.33,15.33 8.47,0 15.33,-6.86 15.33,-15.33"
         style="fill:#ffffff;fill-opacity:1;fill-rule:nonzero;stroke:none"
         id="path84" /><path
         d="m 262.383,817.992 c 0.262,-0.281 2.551,-1.082 6.836,-2.422 -2.41,5.641 -3.887,8.852 -4.422,9.66 -1.613,2.68 -3.227,5.09 -4.824,7.25 -1.887,2.141 -3.496,3.622 -4.836,4.422 l -0.801,0.399 -0.398,0.398 h -0.415 -0.398 -0.398 -0.403 c -0.273,0.27 -0.676,0.41 -1.211,0.41 -0.273,-0.269 -0.8,-0.41 -1.609,-0.41 l -0.805,-0.797 c -0.808,-0.273 -1.211,-1.211 -1.211,-2.82 -0.269,-0.801 -0.133,-2.281 0.403,-4.422 0.808,-1.621 1.875,-3.09 3.222,-4.43 2.149,-2.148 3.887,-3.621 5.235,-4.417 0.8,-0.551 2.812,-1.493 6.035,-2.821 z m 74.453,0.809 4.023,-15.711 h -1.613 c -0.269,-0.258 -0.808,-0.399 -1.609,-0.399 -0.274,-0.269 -0.535,-0.402 -0.801,-0.402 -0.547,-0.269 -0.945,-0.398 -1.211,-0.398 -8.32,-1.879 -13.281,-2.961 -14.895,-3.219 -14.214,-1.883 -21.863,-2.813 -22.937,-2.813 0.535,-1.078 0.812,-2.16 0.812,-3.23 1.336,-5.09 2.809,-12.477 4.422,-22.129 2.676,-15.289 4.161,-30.051 4.422,-44.27 0.539,-15.019 0.141,-29.511 -1.199,-43.46 -1.074,-11.809 -3.223,-25.219 -6.445,-40.239 -3.758,-14.761 -7.649,-26.57 -11.668,-35.41 -5.102,-11.269 -10.332,-20.801 -15.696,-28.582 -4.824,-6.976 -10.461,-13.41 -16.906,-19.309 -1.875,-1.89 -6.297,-5.371 -13.277,-10.468 -2.153,-1.071 -3.488,-1.883 -4.028,-2.41 l -1.199,-0.813 v 0.41 c -7.519,-4.57 -13.828,-7.386 -18.918,-8.457 -9.121,-2.14 -17.371,-0.801 -24.746,4.02 -7.383,4.84 -13.484,12.539 -18.308,23.148 -4.832,10.59 -8.797,21.86 -11.875,33.801 -3.086,11.941 -5.84,25.961 -8.25,42.059 -2.153,-7.79 -4.973,-15.969 -8.45,-24.559 -3.496,-8.582 -8.593,-18.84 -15.293,-30.781 C 124.48,573.242 115.762,562.852 105.027,553.992 94.2969,545.129 82.6289,539.5 70.0195,537.09 c -0.539,0 -1.2812,-0.059 -2.2187,-0.199 -0.9375,-0.129 -1.6797,-0.34 -2.207,-0.602 -13.9532,-2.148 -25.1524,5.774 -33.6016,23.742 C 23.5352,578 17.9023,601.281 15.0898,629.852 12.2656,658.43 10.3242,687.262 9.25,716.379 8.18359,745.48 7.04297,772.512 5.83203,797.461 4.61719,822.41 2.67578,838.109 0,844.551 c 1.07422,0.262 2.55078,0.66 4.42578,1.211 1.875,0.527 5.4961,1.269 10.85552,2.207 5.375,0.933 10.5273,1.402 15.5,1.402 4.9609,0 10.5273,-0.801 16.6992,-2.41 6.1718,-1.609 11.4765,-4.09 15.8984,-7.441 4.4219,-3.36 8.3125,-8.457 11.668,-15.29 3.3515,-6.851 5.1679,-15.089 5.4297,-24.75 3.7617,-97.39 9.3945,-165.14 16.9062,-203.23 2.1485,-9.93 6.1722,-11.41 12.0702,-4.43 0.535,1.071 1.27,2.539 2.219,4.43 0.933,1.871 2.82,6.09 5.633,12.672 2.812,6.578 5.293,13.34 7.441,20.328 2.149,6.969 4.434,15.762 6.848,26.352 2.41,10.597 4.285,21.257 5.633,32 1.336,10.73 1.875,22.8 1.613,36.218 -0.277,13.41 -1.485,26.7 -3.625,39.84 l 2.414,-5.629 c -0.539,1.61 -1.352,3.481 -2.414,5.629 2.14,0.801 4.89,1.809 8.254,3.02 3.347,1.211 9.511,2.34 18.504,3.422 8.984,1.07 17.109,0.808 24.343,-0.813 7.247,-1.609 14.094,-6.168 20.532,-13.68 6.433,-7.519 10.457,-17.847 12.066,-30.98 5.899,-50.977 12.481,-89.207 19.731,-114.699 0.261,-0.27 0.398,-0.801 0.398,-1.61 1.609,-5.898 4.629,-8.718 9.055,-8.449 4.422,0.258 8.914,4.559 13.472,12.871 0.278,0.539 0.676,1.418 1.211,2.617 0.539,1.211 0.942,2.082 1.211,2.621 0,0.532 0.129,0.93 0.403,1.211 l 0.402,0.399 c 0,0.262 0,0.539 0,0.801 3.484,7.511 6.844,16.898 10.058,28.172 3.219,13.148 5.497,25.488 6.844,37.019 1.336,10.738 2.012,24.148 2.012,40.25 0,14.75 -0.945,28.57 -2.813,41.449 -0.808,6.981 -2.019,13.809 -3.625,20.52 -0.269,1.879 -0.945,4.699 -2.007,8.461 -0.547,0 -1.078,0.117 -1.614,0.398 l -8.457,1.211 c -3.484,0.801 -6.574,1.738 -9.25,2.809 -4.297,1.609 -7.382,3.09 -9.257,4.429 -3.219,1.61 -6.305,3.883 -9.254,6.84 -3.489,4.02 -5.774,7.371 -6.848,10.063 -2.41,5.097 -3.215,9.789 -2.41,14.09 0,1.867 0.535,4.429 1.609,7.648 1.336,2.672 2.949,4.961 4.824,6.832 1.614,2.148 3.887,3.891 6.844,5.238 1.613,0.801 4.289,1.461 8.051,2.012 h 4.019 2.012 l 0.813,-0.402 h 0.8 0.403 0.41 l 0.398,-0.41 h 0.403 0.398 0.403 c 0.261,-0.258 0.601,-0.399 1.003,-0.399 0.411,0 0.743,-0.141 1.004,-0.402 0.539,-0.27 1.211,-0.539 2.024,-0.797 0.801,-0.281 1.34,-0.551 1.601,-0.813 1.875,-1.347 3.758,-2.82 5.633,-4.429 1.875,-1.071 3.488,-2.551 4.836,-4.418 1.875,-2.422 4.149,-5.782 6.836,-10.071 4.023,-6.711 7.246,-13.82 9.656,-21.332 0.266,-0.257 0.41,-0.668 0.41,-1.199 h 3.618 c 6.98,0.27 14.214,0.942 21.738,2.012 1.336,0.269 3.074,0.598 5.223,1.008 2.148,0.402 3.886,0.73 5.234,1.011 1.34,0.258 2.551,0.52 3.625,0.801 1.07,0 1.734,0.129 2.012,0.399 0.808,0 1.336,0.129 1.609,0.41 h 1.211"
         style="fill:#111011;fill-opacity:1;fill-rule:nonzero;stroke:none"
         id="path86" /><path
         d="m 420.535,680.359 c -5.097,1.602 -10.867,0 -17.305,-4.828 0.54,-1.082 1.614,-2.422 3.223,-4.031 2.141,-2.148 4.426,-3.758 6.84,-4.828 1.336,-1.082 2.82,-1.75 4.422,-2.012 3.223,-0.801 4.961,-1.199 5.234,-1.199 3.223,-0.82 6.438,-1.219 9.656,-1.219 -1.875,10.199 -5.894,16.227 -12.07,18.117 z m -29.781,-93.367 c 6.707,-2.152 13.816,0.61 21.324,8.25 7.512,7.649 13.281,17.91 17.309,30.778 1.074,3.23 2.144,7.511 3.218,12.882 -5.371,-0.531 -9.519,-0.672 -12.468,-0.402 -0.547,0 -1.414,0.063 -2.617,0.199 -1.211,0.141 -2.286,0.262 -3.223,0.41 -0.938,0.133 -1.809,0.332 -2.617,0.602 -1.875,0.269 -4.7,0.93 -8.45,2.019 -4.57,1.329 -9.253,3.75 -14.082,7.231 -1.609,1.078 -2.683,1.879 -3.218,2.418 -0.539,-1.34 -1.887,-4.688 -4.028,-10.059 -4.019,-12.871 -5.164,-24.621 -3.418,-35.211 1.743,-10.597 5.832,-16.968 12.27,-19.117 z m 131.199,101.821 4.824,-8.454 c -1.347,-1.078 -3.222,-2.418 -5.632,-4.019 -0.278,-0.277 -0.801,-0.61 -1.614,-1.02 -0.801,-0.398 -1.34,-0.73 -1.609,-1.011 l -3.613,-2.407 c -0.278,-0.261 -0.879,-0.672 -1.821,-1.203 -0.933,-0.547 -1.675,-0.949 -2.207,-1.207 -0.547,-0.273 -1.343,-0.801 -2.422,-1.613 -1.074,-0.797 -1.875,-1.348 -2.41,-1.609 -2.961,-1.348 -4.695,-2.278 -5.234,-2.809 -0.535,-0.551 -1.477,-1.148 -2.813,-1.82 -1.347,-0.68 -2.285,-1.141 -2.824,-1.411 -0.262,-0.269 -0.738,-0.601 -1.402,-1 -0.676,-0.398 -1.145,-0.609 -1.406,-0.609 l -1.614,-0.801 c -0.273,0 -0.539,-0.14 -0.801,-0.398 -0.273,-0.27 -0.546,-0.41 -0.808,-0.41 -1.074,-0.262 -2.152,-0.801 -3.215,-1.602 -1.086,-0.281 -2.156,-0.808 -3.223,-1.609 -2.961,-1.352 -7.644,-3.36 -14.082,-6.039 -4.035,-1.61 -8.996,-3.36 -14.89,-5.231 -0.813,-0.281 -1.953,-0.609 -3.418,-1.011 -1.489,-0.399 -2.492,-0.598 -3.031,-0.598 -0.797,-4.832 -2.008,-9.66 -3.614,-14.492 -6.707,-20.918 -18.113,-36.957 -34.207,-48.09 -16.101,-11.129 -32.336,-14.149 -48.699,-9.051 -16.367,5.082 -27.902,16.832 -34.602,35.211 -6.711,18.371 -6.711,38.152 0,59.359 6.7,20.922 18.106,36.954 34.2,48.09 16.101,11.121 32.336,14.141 48.703,9.051 10.996,-3.488 19.976,-10.531 26.961,-21.129 6.972,-10.59 10.996,-22.871 12.07,-36.82 h 1.211 c 6.699,1.34 11.262,2.281 13.684,2.82 2.136,0.258 6.558,1.469 13.281,3.621 1.597,0.539 2.676,0.938 3.211,1.207 1.609,0.531 2.676,0.801 3.222,0.801 l 1.614,0.801 c 0.261,0 0.523,0.07 0.797,0.211 0.265,0.129 0.539,0.199 0.812,0.199 0.266,0.269 0.731,0.531 1.406,0.801 0.664,0.269 1.133,0.398 1.407,0.398 l 6.035,2.43 c 1.613,0.519 3.347,1.199 5.234,2.012 2.141,1.058 3.75,1.738 4.824,2.007 2.149,1.063 3.621,1.743 4.434,2.012 0.266,0.258 0.871,0.598 1.808,1.008 0.938,0.402 1.54,0.73 1.817,1 l 3.609,1.203 6.047,3.231"
         style="fill:#111011;fill-opacity:1;fill-rule:nonzero;stroke:none"
         id="path88" /><path
         d="m 543.281,718.582 c 9.121,12.609 14.754,26.957 16.907,43.07 v 2.411 c 0,1.339 0.054,2.738 0.195,4.226 0.137,1.461 0.137,3.492 0,6.031 -0.141,2.551 -0.332,5.09 -0.598,7.653 -0.273,2.547 -0.676,5.289 -1.211,8.246 -0.539,2.953 -1.14,5.832 -1.804,8.66 -0.676,2.812 -1.68,5.633 -3.02,8.441 -1.348,2.821 -2.82,5.43 -4.434,7.852 -2.683,-35.68 -4.699,-67.883 -6.035,-96.59 z m -16.902,-164.59 c -4.024,-1.883 -8.449,-2.82 -13.281,-2.82 -0.801,-0.262 -2.153,-0.402 -4.028,-0.402 h -0.398 c -24.414,0.261 -34.336,58.761 -29.777,175.46 1.066,23.879 3.078,54.2 6.039,90.961 2.671,26.278 5.359,42.25 8.046,47.891 3.219,6.16 8.043,9.109 14.481,8.84 9.121,0 18.379,-3.211 27.773,-9.652 7.774,-5.098 14.895,-12.61 21.329,-22.54 6.972,-12.07 11.667,-26.16 14.082,-42.25 4.558,-29.781 1.074,-55.14 -10.457,-76.058 -4.836,-8.859 -10.735,-16.77 -17.708,-23.742 -1.347,-29.789 -1.75,-56.09 -1.21,-78.879 0.8,-12.879 2.277,-20.321 4.421,-22.34 2.153,-2.02 7.247,-0.602 15.293,4.219 10.996,6.98 21.399,16.039 31.196,27.172 9.793,11.128 16.836,20.449 21.121,27.968 l 6.445,11.27 11.27,-4.43 c -0.813,-2.418 -4.297,-8.39 -10.469,-17.898 -6.172,-9.543 -13.875,-20.473 -23.137,-32.813 -9.258,-12.34 -20.469,-24.34 -33.601,-36.008 -13.157,-11.671 -25.625,-19.66 -37.43,-23.949"
         style="fill:#111011;fill-opacity:1;fill-rule:nonzero;stroke:none"
         id="path90" /><path
         d="m 661.582,755.211 c 8.047,11.801 13.145,25.348 15.293,40.648 v 2.012 c 0,1.609 0.066,3.141 0.203,4.629 0.129,1.461 0.129,3.469 0,6.031 -0.137,2.539 -0.34,5.09 -0.601,7.649 -0.278,2.539 -0.676,5.289 -1.211,8.242 -0.539,2.949 -1.145,5.84 -1.809,8.648 -0.676,2.832 -1.68,5.641 -3.019,8.461 -1.344,2.809 -2.821,5.43 -4.43,7.84 -2.414,-47.211 -3.891,-78.609 -4.426,-94.16 z m 99.004,-80.492 -2.012,-7.637 -73.254,15.688 c 4.563,-27.641 7.051,-52.918 7.453,-75.86 0.403,-22.941 -0.671,-41.648 -3.222,-56.14 -2.547,-14.481 -6.375,-27.301 -11.465,-38.43 -5.098,-11.129 -10.137,-19.379 -15.098,-24.75 -4.961,-5.371 -10.527,-9.86 -16.699,-13.481 -6.172,-3.617 -10.598,-5.769 -13.281,-6.437 -2.688,-0.672 -5.098,-1.141 -7.238,-1.41 h -0.411 c -11.531,0.269 -19.851,19.66 -24.949,58.148 -5.097,38.5 -7.168,82.563 -6.23,132.199 0.937,49.641 2.207,92.821 3.816,129.59 1.613,36.75 2.824,58.481 3.625,65.18 2.676,26.57 5.359,42.672 8.047,48.312 3.223,6.161 7.91,9.11 14.082,8.84 8.855,0 18.242,-3.359 28.176,-10.062 8.582,-5.629 15.554,-13.137 20.926,-22.528 7.246,-11.269 12.07,-25.359 14.492,-42.261 4.289,-28.969 0.801,-54.188 -10.469,-75.649 -4.297,-7.789 -9.656,-15.16 -16.094,-22.14 -3.496,-96.051 -4.023,-164.871 -1.609,-206.45 9.383,22 14.949,46.821 16.695,74.45 1.738,27.629 1.145,49.629 -1.804,66 l -4.434,24.949 c 9.922,-1.348 22.473,-3.688 37.629,-7.039 15.152,-3.36 27.832,-6.379 38.035,-9.051 l 15.293,-4.031"
         style="fill:#111011;fill-opacity:1;fill-rule:nonzero;stroke:none"
         id="path92" /><path
         d="m 828.184,473.5 c 1.062,31.941 0.937,70.832 -0.403,116.711 -49.898,-39.441 -69.218,-70.148 -57.945,-92.16 10.992,-20.649 22.793,-34.602 35.406,-41.852 12.336,-7.25 19.719,-3.488 22.141,11.27 0.527,1.871 0.801,3.902 0.801,6.031 z m -61.973,166.211 c -0.273,-13.422 6.973,-18.109 21.727,-14.09 13.417,4.031 25.617,11.809 36.625,23.34 0.261,0.269 0.535,0.539 0.808,0.809 v 0.402 c -0.808,9.66 -1.348,16.91 -1.609,21.73 -4.297,0 -9.055,-0.402 -14.289,-1.203 -5.235,-0.808 -11.336,-2.16 -18.313,-4.027 -6.98,-1.883 -12.808,-5.172 -17.508,-9.863 -4.699,-4.688 -7.175,-10.399 -7.441,-17.098 z m 200.41,49.102 3.621,-10.063 c -26.297,-13.418 -54.195,-29.391 -83.711,-47.891 6.449,-84.238 8.586,-142.597 6.449,-175.058 -3.222,-48.828 -14.23,-73.379 -33,-73.641 -3.222,-0.539 -6.914,-0.609 -11.074,-0.211 -4.16,0.403 -10.593,2.352 -19.316,5.84 -8.723,3.492 -17.305,8.59 -25.75,15.281 -8.457,6.719 -18.047,17.309 -28.781,31.801 -10.735,14.488 -20.657,31.801 -29.778,51.918 -15.562,30.852 11.809,71.363 82.102,121.531 -0.547,8.051 -0.813,14.219 -0.813,18.512 -9.656,-9.652 -21.597,-18.043 -35.808,-25.152 -14.231,-7.11 -27.637,-9.59 -40.242,-7.438 -13.418,2.41 -22.075,9.11 -25.957,20.11 -3.887,11 -3.02,22.808 2.617,35.418 5.625,12.609 14.343,22.671 26.148,30.179 11.535,7.25 24.746,11.672 39.641,13.281 14.89,1.61 24.609,1.34 29.179,-0.8 -1.074,13.679 -2.148,22.672 -3.222,26.961 0.808,0.269 1.941,0.539 3.418,0.8 1.472,0.27 4.297,0.61 8.457,1.008 4.148,0.41 8.183,0.332 12.07,-0.199 3.887,-0.539 8.313,-1.879 13.281,-4.02 4.961,-2.16 9.258,-5.031 12.879,-8.648 3.625,-3.621 6.836,-9 9.66,-16.113 2.813,-7.098 4.629,-15.477 5.43,-25.137 l 1.211,-21.332 c 13.137,7.5 26.484,14.879 40.039,22.129 13.547,7.25 23.809,12.48 30.789,15.691 l 10.461,5.243"
         style="fill:#111011;fill-opacity:1;fill-rule:nonzero;stroke:none"
         id="path94" /><path
         d="m 963.801,642.129 c -0.539,-13.68 5.23,-18.52 17.304,-14.5 9.657,3.492 19.575,10.742 29.785,21.73 1.06,10.204 2.01,17.852 2.81,22.942 -4.29,0 -8.65,-0.328 -13.07,-1 -4.431,-0.68 -9.661,-1.879 -15.696,-3.621 -6.039,-1.739 -11.008,-4.828 -14.895,-9.25 -3.887,-4.438 -5.976,-9.867 -6.238,-16.301 z m 185.929,39.434 h 13.28 c -1.08,-3.762 -2.69,-8.653 -4.84,-14.692 -2.14,-6.031 -6.97,-16.762 -14.48,-32.191 -7.52,-15.43 -15.56,-29.121 -24.15,-41.051 -8.58,-11.938 -19.99,-22.727 -34.2,-32.387 -14.23,-9.66 -28.98,-14.492 -44.27,-14.492 -9.93,0 -17.64,3.563 -23.14,10.66 -5.5,7.11 -8.79,15.629 -9.86,25.559 -1.08,9.922 -1.2,22.133 -0.4,36.621 -18.783,-18.25 -38.639,-25.629 -59.565,-22.129 -13.144,2.41 -21.601,8.98 -25.351,19.719 -3.75,10.722 -2.883,22.261 2.617,34.609 5.496,12.332 14.016,22.121 25.559,29.371 19.043,11.809 40.64,15.692 64.78,11.672 0.81,12.328 0.54,21.328 -0.8,26.957 1.07,0.274 2.41,0.543 4.03,0.813 1.61,0.269 4.75,0.461 9.45,0.597 4.7,0.141 9.12,-0.07 13.28,-0.597 4.16,-0.539 8.72,-1.883 13.68,-4.032 4.96,-2.148 9.19,-5.031 12.69,-8.648 3.47,-3.621 6.23,-8.793 8.24,-15.492 2.01,-6.707 2.62,-14.629 1.82,-23.739 -4.03,-55.812 -0.95,-83.851 9.25,-84.109 4.03,-0.281 8.99,2.949 14.89,9.66 10.73,12.071 20.05,25.41 27.97,40.039 7.91,14.61 13.21,26.219 15.89,34.809 l 3.63,12.473"
         style="fill:#111011;fill-opacity:1;fill-rule:nonzero;stroke:none"
         id="path96" /><path
         d="m 1296.61,677.941 8.45,-4.031 c -11.81,-23.07 -20.12,-38.769 -24.95,-47.078 -4.03,-7.781 -8.19,-14.223 -12.47,-19.312 -3.76,-4.297 -6.85,-7.391 -9.26,-9.258 -0.27,-0.27 -0.74,-0.61 -1.41,-1.012 -0.67,-0.398 -1.14,-0.738 -1.4,-1 -0.28,-0.281 -0.81,-0.539 -1.61,-0.809 -0.82,-0.269 -1.35,-0.539 -1.62,-0.8 -0.27,0 -0.94,-0.282 -2.01,-0.801 h -1.21 l -0.4,-0.41 h -1.61 -0.4 -0.4 -0.4 -1.21 c -1.88,0 -3.49,0.531 -4.83,1.609 -1.88,0.813 -3.22,2.152 -4.03,4.024 -0.8,1.066 -1.88,4.019 -3.21,8.859 -0.55,3.75 -0.81,8.98 -0.81,15.687 0.26,6.704 0.93,16.512 2.01,29.383 0.54,6.438 0.81,11.129 0.81,14.09 0,5.898 -0.14,9.918 -0.4,12.07 -0.28,1.059 -0.95,1.868 -2.01,2.411 -0.81,0.539 -1.89,0.136 -3.23,-1.204 l -2.41,-2.418 c -1.88,-2.41 -3.76,-5.64 -5.63,-9.66 -1.35,-2.41 -3.09,-6.039 -5.24,-10.859 -4.02,-10.473 -6.58,-17.442 -7.64,-20.93 -3.49,-10.203 -6.71,-21.062 -9.66,-32.601 l -3.63,-13.282 c -5.37,-20.918 -17.04,-31.66 -35,-32.187 -11.01,-0.27 -18.99,3.949 -23.95,12.668 -4.97,8.723 -7.11,19.859 -6.44,33.41 0.67,13.539 1.87,28.23 3.62,44.063 1.75,15.828 3.62,30.589 5.63,44.269 2.01,13.68 1.95,25.207 -0.19,34.609 0.8,0.258 2.01,0.539 3.62,0.801 1.61,0.27 4.56,0.539 8.85,0.809 4.28,0.258 8.39,0.058 12.27,-0.602 3.89,-0.679 8.12,-2.289 12.68,-4.828 4.56,-2.558 8.46,-6.039 11.67,-10.469 3.22,-4.422 5.7,-10.66 7.45,-18.711 1.74,-8.05 2.34,-17.441 1.81,-28.171 v -2.008 c 13.94,24.148 26.29,36.078 37.02,35.82 7.51,-0.281 11.8,-6.242 12.88,-17.91 1.07,-11.672 0.54,-22.473 -1.61,-32.402 0,-2.149 -0.27,-5.09 -0.8,-8.848 V 638.5 c -0.55,-3.219 -1.08,-8.32 -1.61,-15.289 0,-6.172 0.13,-10.469 0.4,-12.879 0.53,-2.152 0.93,-3.492 1.21,-4.019 l 0.4,-0.403 0.4,-0.398 h 0.4 0.41 l 1.2,0.398 h 0.81 0.4 c 0,0.262 0.26,0.403 0.8,0.403 0.26,0.257 0.54,0.398 0.81,0.398 0.53,0.262 0.94,0.41 1.2,0.41 l 0.81,0.801 c 0.54,0.258 0.94,0.539 1.2,0.797 0.82,0.543 3.23,2.82 7.25,6.84 4.56,5.371 8.58,11.273 12.07,17.711 l 24.15,44.671"
         style="fill:#111011;fill-opacity:1;fill-rule:nonzero;stroke:none"
         id="path98" /><path
         d="m 1368.64,473.5 c 1.07,31.941 0.94,70.832 -0.4,116.711 -49.9,-39.441 -69.22,-70.148 -57.95,-92.16 11,-20.649 22.8,-34.602 35.41,-41.852 12.34,-7.25 19.72,-3.488 22.14,11.27 0.53,1.871 0.8,3.902 0.8,6.031 z m -61.97,166.211 c -0.27,-13.422 6.97,-18.109 21.73,-14.09 13.42,4.031 25.61,11.809 36.62,23.34 0.26,0.269 0.54,0.539 0.81,0.809 v 0.402 c -0.81,9.66 -1.35,16.91 -1.61,21.73 -4.3,0 -9.05,-0.402 -14.29,-1.203 -5.23,-0.808 -11.34,-2.16 -18.31,-4.027 -6.98,-1.883 -12.81,-5.172 -17.51,-9.863 -4.7,-4.688 -7.18,-10.399 -7.44,-17.098 z m 200.41,49.102 3.62,-10.063 c -26.3,-13.418 -54.2,-29.391 -83.71,-47.891 6.45,-84.238 8.59,-142.597 6.45,-175.058 -3.23,-48.828 -14.23,-73.379 -33,-73.641 -3.22,-0.539 -6.91,-0.609 -11.07,-0.211 -4.16,0.403 -10.6,2.352 -19.32,5.84 -8.72,3.492 -17.31,8.59 -25.75,15.281 -8.46,6.719 -18.05,17.309 -28.78,31.801 -10.73,14.488 -20.66,31.801 -29.78,51.918 -15.56,30.852 11.81,71.363 82.1,121.531 -0.55,8.051 -0.81,14.219 -0.81,18.512 -9.66,-9.652 -21.6,-18.043 -35.81,-25.152 -14.23,-7.11 -27.64,-9.59 -40.24,-7.438 -13.42,2.41 -22.07,9.11 -25.96,20.11 -3.89,11 -3.02,22.808 2.62,35.418 5.62,12.609 14.34,22.671 26.15,30.179 11.53,7.25 24.75,11.672 39.64,13.281 14.89,1.61 24.61,1.34 29.18,-0.8 -1.08,13.679 -2.15,22.672 -3.23,26.961 0.82,0.269 1.95,0.539 3.42,0.8 1.48,0.27 4.3,0.61 8.46,1.008 4.15,0.41 8.18,0.332 12.07,-0.199 3.89,-0.539 8.31,-1.879 13.28,-4.02 4.96,-2.16 9.26,-5.031 12.88,-8.648 3.63,-3.621 6.84,-9 9.66,-16.113 2.81,-7.098 4.63,-15.477 5.43,-25.137 l 1.21,-21.332 c 13.14,7.5 26.49,14.879 40.04,22.129 13.55,7.25 23.81,12.48 30.79,15.691 l 10.46,5.243"
         style="fill:#111011;fill-opacity:1;fill-rule:nonzero;stroke:none"
         id="path100" /><path
         d="m 1660.8,681.961 c 4.83,-0.539 8.45,-0.801 10.87,-0.801 0.26,4.02 0.73,10.262 1.41,18.711 0.66,8.461 1.13,14.828 1.4,19.121 0.27,1.879 0.73,6.77 1.41,14.688 0.67,7.91 1.14,14.222 1.41,18.922 0.27,4.679 0.6,10.988 1.01,18.898 0.4,7.91 0.46,14.359 0.2,19.332 -0.27,4.957 -0.8,9.988 -1.62,15.09 -0.8,5.078 -2.14,8.84 -4.02,11.269 -1.87,2.411 -4.16,3.622 -6.83,3.622 -24.96,-1.094 -44.01,-45.352 -57.15,-132.801 0.8,0 1.47,-0.153 2.01,-0.41 l 10.87,-1.211 c 0.52,-0.27 1.46,-0.399 2.81,-0.399 1.34,0 2.41,-0.14 3.22,-0.41 0.8,-0.262 1.88,-0.461 3.23,-0.59 1.33,-0.152 2.41,-0.211 3.21,-0.211 2.67,-0.269 6.97,-0.672 12.88,-1.211 3.22,-0.531 7.77,-1.07 13.68,-1.609 z m 80.09,111.078 c -5.37,-146.488 -2.01,-223.219 10.06,-230.187 -2.15,-6.981 -8.12,-13.282 -17.91,-18.922 -9.8,-5.629 -18.59,-8.848 -26.36,-9.649 -15.83,-1.082 -26.3,10.051 -31.39,33.391 -5.1,23.34 -6.58,55.141 -4.43,95.379 -5.37,0.531 -9.26,0.808 -11.67,0.808 l -13.68,1.211 c -5.91,0.52 -10.33,0.801 -13.28,0.801 -0.8,0 -1.95,0.129 -3.42,0.399 -1.48,0.261 -2.48,0.402 -3.02,0.402 -0.55,0 -1.48,0.07 -2.82,0.199 -1.34,0.141 -2.41,0.211 -3.21,0.211 -2.69,0.258 -6.45,0.66 -11.27,1.199 -0.28,0 -0.68,0.071 -1.21,0.199 -0.54,0.129 -0.94,0.211 -1.21,0.211 -1.88,-13.691 -4.17,-32.332 -6.84,-55.949 -2.69,-23.601 -4.97,-41.441 -6.85,-53.512 -1.87,-12.078 -3.76,-20.128 -5.62,-24.148 -2.16,-7.25 -8.25,-13.742 -18.32,-19.531 -10.06,-5.762 -18.98,-8.77 -26.76,-9.051 6.17,39.18 12.74,74.992 19.72,107.449 6.98,32.461 13.76,60.172 20.32,83.114 6.57,22.937 13.61,43.316 21.13,61.167 7.51,17.833 14.22,32.262 20.12,43.262 5.9,11 12.54,20.258 19.92,27.77 7.37,7.508 13.42,12.937 18.12,16.289 4.68,3.351 10.25,5.64 16.7,6.851 6.43,1.2 10.99,1.739 13.68,1.598 2.67,-0.129 6.3,-0.469 10.87,-1 1.33,0 3.07,-0.27 5.22,-0.801 h 0.81 c 21.19,-5.097 32.05,-22.41 32.6,-51.918 v -1.609 -0.801 -0.41 -4.422"
         style="fill:#111011;fill-opacity:1;fill-rule:nonzero;stroke:none"
         id="path102" /><path
         d="m 2064.84,662.641 7.65,-1.602 c -1.61,-3.219 -3.83,-7.578 -6.64,-13.078 -2.81,-5.5 -8.86,-15.301 -18.11,-29.379 -9.25,-14.082 -18.58,-26.492 -27.96,-37.223 -9.4,-10.738 -21.08,-20.527 -35.02,-29.379 -13.95,-8.859 -27.5,-13.281 -40.65,-13.281 -8.05,0 -13.95,3.223 -17.7,9.66 -3.76,6.43 -5.57,14.821 -5.43,25.153 0.12,10.328 1.06,21.597 2.81,33.801 1.75,12.207 3.68,24.347 5.84,36.429 2.14,12.071 3.68,23 4.63,32.789 0.94,9.801 0.19,17.371 -2.22,22.739 -2.41,5.371 -6.84,7.382 -13.28,6.043 l -0.4,-0.411 c -4.02,-1.339 -7.78,-3.761 -11.27,-7.242 -4.3,-4.828 -7.65,-9.801 -10.06,-14.89 -2.68,-5.629 -5.1,-12.618 -7.24,-20.93 -1.89,-8.59 -3.49,-16.758 -4.84,-24.551 -0.26,-0.797 -0.54,-1.937 -0.8,-3.41 -0.27,-1.477 -0.4,-2.617 -0.4,-3.418 0,-0.551 -0.14,-1.211 -0.4,-2.012 -0.27,-0.82 -0.41,-1.347 -0.41,-1.617 -0.54,-1.07 -0.8,-1.883 -0.8,-2.41 -0.54,-1.082 -1.08,-2.02 -1.61,-2.82 l -2.01,-2.012 c -0.28,-0.281 -0.61,-0.399 -1.01,-0.399 -0.4,0 -0.74,-0.14 -1.01,-0.402 l -0.8,-0.41 c -0.27,0 -0.54,0 -0.81,0 h -0.8 c -1.61,0 -3.08,0.41 -4.42,1.211 -0.55,0.262 -1.21,0.801 -2.02,1.609 -0.8,1.063 -1.48,2.141 -2.02,3.223 -0.53,1.07 -0.8,1.867 -0.8,2.41 -0.53,1.879 -1.07,4.43 -1.61,7.648 -0.27,1.61 -0.6,4.02 -1,7.25 -0.4,3.211 -0.75,5.622 -1.01,7.231 l -1.21,14.09 c -0.26,1.34 -0.6,3.48 -1.01,6.441 -0.4,2.949 -0.74,5.227 -1,6.848 -2.15,6.973 -3.35,10.723 -3.61,11.262 -0.28,0.527 -0.68,1.07 -1.22,1.609 l -1.21,-1.199 c -0.26,-0.551 -0.74,-1.352 -1.4,-2.43 -0.68,-1.07 -1.15,-1.871 -1.41,-2.41 l -4.83,-10.871 -3.63,-11.262 c -2.41,-7.519 -4.42,-14.758 -6.03,-21.738 -1.08,-4.559 -2.48,-10.52 -4.22,-17.91 -1.75,-7.371 -2.89,-12.411 -3.43,-15.078 -0.54,-3.493 -1.2,-7.25 -2.01,-11.274 -5.1,-20.668 -17.04,-31.387 -35.81,-32.187 -11.01,-0.27 -18.98,4.218 -23.95,13.48 -4.97,9.25 -7.04,20.918 -6.24,35.008 0.8,14.09 2.02,29.301 3.63,45.672 1.61,16.367 3.42,31.398 5.43,45.078 2.01,13.68 1.94,24.812 -0.2,33.402 0.8,0.258 2.01,0.528 3.61,0.809 1.62,0.262 4.57,0.519 8.86,0.801 4.29,0.257 8.38,0.07 12.28,-0.61 3.88,-0.672 8.11,-2.152 12.67,-4.422 4.56,-2.289 8.45,-5.371 11.67,-9.257 3.23,-3.891 5.7,-9.524 7.44,-16.903 1.75,-7.39 2.36,-16.039 1.82,-25.961 0,-2.687 -0.27,-6.168 -0.8,-10.457 0.53,1.059 1.13,2.617 1.81,4.629 0.66,2.008 1.13,3.418 1.4,4.231 1.88,4.55 3.89,8.847 6.04,12.867 2.15,3.761 3.62,6.031 4.43,6.84 l 3.21,3.222 c 1.34,1.348 3.09,2.551 5.24,3.621 1.06,0.539 2.27,0.809 3.62,0.809 0.54,0 0.94,0.129 1.21,0.398 h 0.4 0.4 l 0.8,-0.398 h 1.22 c 2.67,-0.551 4.82,-1.352 6.43,-2.41 1.88,-1.352 3.36,-2.821 4.43,-4.43 0.27,-0.539 0.67,-1.269 1.21,-2.211 0.53,-0.949 0.93,-1.68 1.21,-2.219 0.8,-1.878 1.74,-4.421 2.81,-7.652 0.54,-1.879 1.07,-4.418 1.61,-7.637 0.54,-3.492 1.08,-8.453 1.61,-14.89 0.54,-6.442 0.8,-11.141 0.8,-14.09 v -1.211 c 0.27,0.809 0.94,3.16 2.01,7.039 1.08,3.891 1.88,6.781 2.43,8.66 2.41,8.051 5.49,15.43 9.25,22.129 3.22,6.18 7.5,11.672 12.88,16.512 4.02,3.48 8.72,6.16 14.09,8.051 l 0.8,0.398 c 0.54,0 0.94,0 1.21,0 2.95,0.531 5.97,1 9.05,1.402 3.08,0.399 8.45,0.137 16.1,-0.8 7.64,-0.95 14.15,-2.891 19.52,-5.84 5.36,-2.949 9.99,-8.321 13.88,-16.09 3.88,-7.793 5.43,-17.711 4.62,-29.793 -0.53,-8.039 -1.6,-19.18 -3.21,-33.399 -2.69,-26.828 -2.96,-42.519 -0.81,-47.078 2.95,-5.632 10.87,-3.222 23.75,7.239 11,8.859 21.79,19.582 32.39,32.199 10.6,12.609 18.45,22.941 23.55,30.98 l 8.04,12.071"
         style="fill:#111011;fill-opacity:1;fill-rule:nonzero;stroke:none"
         id="path104" /><path
         d="m 2078.92,642.129 c -0.54,-13.68 5.23,-18.52 17.3,-14.5 9.66,3.492 19.58,10.742 29.79,21.73 1.06,10.204 2.01,17.852 2.81,22.942 -4.29,0 -8.65,-0.328 -13.08,-1 -4.42,-0.68 -9.66,-1.879 -15.69,-3.621 -6.04,-1.739 -11.01,-4.828 -14.89,-9.25 -3.89,-4.438 -5.98,-9.867 -6.24,-16.301 z m 185.92,39.434 h 13.29 c -1.08,-3.762 -2.69,-8.653 -4.84,-14.692 -2.15,-6.031 -6.97,-16.762 -14.48,-32.191 -7.52,-15.43 -15.57,-29.121 -24.15,-41.051 -8.59,-11.938 -19.99,-22.727 -34.2,-32.387 -14.23,-9.66 -28.99,-14.492 -44.27,-14.492 -9.93,0 -17.65,3.563 -23.14,10.66 -5.5,7.11 -8.79,15.629 -9.87,25.559 -1.07,9.922 -1.2,22.133 -0.4,36.621 -18.78,-18.25 -38.63,-25.629 -59.56,-22.129 -13.14,2.41 -21.6,8.98 -25.35,19.719 -3.75,10.722 -2.88,22.261 2.62,34.609 5.5,12.332 14.01,22.121 25.55,29.371 19.05,11.809 40.65,15.692 64.79,11.672 0.81,12.328 0.54,21.328 -0.8,26.957 1.06,0.274 2.41,0.543 4.02,0.813 1.61,0.269 4.76,0.461 9.46,0.597 4.69,0.141 9.12,-0.07 13.28,-0.597 4.16,-0.539 8.72,-1.883 13.68,-4.032 4.96,-2.148 9.19,-5.031 12.68,-8.648 3.48,-3.621 6.23,-8.793 8.25,-15.492 2.01,-6.707 2.61,-14.629 1.81,-23.739 -4.02,-55.812 -0.94,-83.851 9.26,-84.109 4.02,-0.281 8.99,2.949 14.88,9.66 10.74,12.071 20.06,25.41 27.97,40.039 7.91,14.61 13.22,26.219 15.9,34.809 l 3.62,12.473"
         style="fill:#111011;fill-opacity:1;fill-rule:nonzero;stroke:none"
         id="path106" /><path
         d="m 2287.78,649.77 c -0.81,-10.2 2.68,-15.161 10.46,-14.891 9.12,0.543 18.64,7.113 28.58,19.723 5.08,6.711 9.25,14.218 12.47,22.539 -32.74,1.058 -49.91,-8.051 -51.51,-27.371 z m 171.84,19.722 9.66,-6.851 c -12.88,-34.602 -30.05,-59.02 -51.52,-73.239 -16.64,-10.73 -35.41,-15.55 -56.33,-14.48 -9.94,0.539 -17.38,4.019 -22.34,10.457 -4.97,6.441 -7.45,14.293 -7.45,23.543 0,9.258 0.67,19.379 2.01,30.379 -5.62,-10.192 -14.55,-18.981 -26.76,-26.352 -12.2,-7.39 -24.48,-9.597 -36.82,-6.636 -12.87,2.949 -20.92,9.917 -24.14,20.917 -3.22,11 -1.75,22.54 4.42,34.61 6.17,12.07 15.16,21.332 26.96,27.769 19.86,10.731 41.59,13.282 65.2,7.641 2.68,20.672 4.76,45.281 6.24,73.852 1.46,28.578 2.21,50.769 2.21,66.597 0,15.832 -0.14,26.703 -0.4,32.602 1.07,0 2.41,0.07 4.02,0.211 1.61,0.117 4.83,0 9.66,-0.403 4.83,-0.398 9.39,-1.218 13.68,-2.429 4.3,-1.2 8.99,-3.207 14.09,-6.028 5.09,-2.812 9.32,-6.23 12.68,-10.273 3.35,-4.02 5.9,-9.59 7.64,-16.688 1.74,-7.109 2.07,-15.089 1.01,-23.949 -0.81,-7.242 -2.41,-19.582 -4.83,-37.023 -10.46,-72.168 -14.22,-118.18 -11.27,-138.039 2.42,-17.438 8.85,-22.66 19.32,-15.688 9.66,6.438 18.04,13.75 25.15,21.93 7.11,8.187 11.87,14.828 14.29,19.918 l 3.62,7.652"
         style="fill:#111011;fill-opacity:1;fill-rule:nonzero;stroke:none"
         id="path108" /><path
         d="m 2528.85,671.902 c -1.61,0 -3.1,0 -4.44,0 -1.34,0 -3.41,-0.742 -6.24,-2.203 -2.81,-1.488 -5.29,-3.57 -7.44,-6.238 -2.15,-2.691 -4.42,-7.051 -6.83,-13.082 -2.43,-6.047 -4.3,-13.219 -5.64,-21.527 19.85,-1.352 33.26,5.078 40.25,19.308 1.06,2.41 1.86,5.301 2.41,8.649 0.54,3.351 -0.14,6.703 -2.01,10.062 -1.89,3.348 -5.24,5.031 -10.06,5.031 z m 83.3,1.61 8.05,-6.43 c -22.28,-41.59 -50.31,-73.391 -84.12,-95.383 -28.71,-18.777 -52.98,-25.078 -72.84,-18.918 -20.65,6.711 -29.77,26.16 -27.36,58.36 0.26,4.289 0.81,8.711 1.61,13.281 2.41,13.68 6.78,25.48 13.08,35.41 6.31,9.918 13.28,17.367 20.92,22.34 7.65,4.957 15.83,8.578 24.55,10.867 8.72,2.274 16.43,3.34 23.15,3.211 6.7,-0.141 12.33,-0.871 16.89,-2.211 5.9,-1.879 10.74,-5.168 14.5,-9.859 3.75,-4.7 5.89,-10.801 6.43,-18.309 0.54,-7.512 -2.15,-15.969 -8.05,-25.351 -9.39,-15.301 -26.83,-22.54 -52.31,-21.731 -2.96,-26.57 2.81,-38.777 17.31,-36.617 15.82,2.41 37.95,19.039 66.39,49.891 16.37,17.976 26.96,31.796 31.8,41.449"
         style="fill:#111011;fill-opacity:1;fill-rule:nonzero;stroke:none"
         id="path110" /><path
         d="m 2816.57,682.77 8.85,0.8 c 4.02,-0.257 5.49,-2.269 4.43,-6.031 0,-0.277 -0.68,-3.289 -2.01,-9.059 -1.35,-5.769 -2.76,-11.671 -4.23,-17.699 -1.48,-6.039 -3.83,-13.621 -7.04,-22.742 -3.23,-9.129 -6.58,-17.707 -10.06,-25.758 -3.5,-8.039 -7.99,-16.359 -13.49,-24.949 -5.5,-8.59 -11.34,-15.902 -17.51,-21.93 -6.17,-6.043 -13.47,-11 -21.92,-14.89 -8.46,-3.891 -17.38,-5.832 -26.77,-5.832 -25.75,0 -38.37,22.531 -37.83,67.601 -13.68,-21.199 -31.12,-31.261 -52.31,-30.179 -12.07,0.527 -21.12,5.437 -27.16,14.687 -6.04,9.25 -9.26,20.793 -9.66,34.602 -0.41,13.82 0.06,27.57 1.41,41.25 1.34,13.699 2.88,26.429 4.63,38.238 1.74,11.801 2.21,19.051 1.4,21.742 1.62,0.258 3.75,0.59 6.44,1 2.69,0.399 7.45,0.399 14.29,0 6.84,-0.41 12.67,-1.609 17.51,-3.621 4.82,-2.008 8.98,-5.84 12.47,-11.48 3.48,-5.629 4.56,-12.868 3.22,-21.731 -6.98,-49.098 -7.38,-76.199 -1.21,-81.277 3.76,-2.961 9.92,0 18.52,8.84 8.3,8.589 14.28,20.66 17.9,36.218 3.62,15.559 5.16,28.981 4.63,40.25 l -0.81,16.899 c 1.07,0.273 2.42,0.543 4.02,0.801 1.61,0.269 4.77,0.472 9.47,0.609 4.68,0.141 9.11,-0.066 13.28,-0.609 4.15,-0.528 8.78,-1.868 13.87,-4.02 5.1,-2.148 9.33,-5.027 12.69,-8.648 3.35,-3.633 6.09,-8.789 8.24,-15.493 2.15,-6.707 2.82,-14.629 2.01,-23.75 -0.53,-7.25 -1.47,-17.308 -2.81,-30.179 -2.96,-31.93 -3.22,-50.051 -0.81,-54.328 2.95,-4.563 9.39,-1.082 19.32,10.468 8.85,10.461 16.36,24.071 22.54,40.852 6.17,16.75 10.05,30.91 11.67,42.449 l 2.82,16.899"
         style="fill:#111011;fill-opacity:1;fill-rule:nonzero;stroke:none"
         id="path112" /><path
         d="m 2850.77,540.313 c 2.42,-2.684 6.04,-5.633 10.87,-8.864 l 2.41,-1.199 c 9.12,-3.219 14.75,-1.348 16.9,5.641 2.15,7.23 1.82,15.078 -1,23.531 -2.82,8.457 -6.38,15.898 -10.67,22.34 -4.29,6.437 -10.87,15.551 -19.71,27.367 -1.35,1.601 -2.29,2.812 -2.83,3.613 -2.15,-4.562 -3.88,-9.793 -5.22,-15.691 -1.61,-7.781 -2.29,-15.16 -2.01,-22.129 0.26,-2.152 0.66,-5.633 1.2,-10.473 0.26,-0.797 0.54,-1.867 0.81,-3.207 0.26,-1.351 0.53,-2.562 0.8,-3.621 0.26,-1.082 0.54,-2.019 0.8,-2.832 1.35,-5.078 3.89,-9.918 7.65,-14.476 z m 123.95,121.527 1.61,-9.649 c -1.61,0.801 -3.89,1.938 -6.84,3.411 -2.95,1.48 -8.52,3.687 -16.7,6.64 -8.19,2.949 -15.9,5.028 -23.15,6.238 -7.23,1.219 -15.08,1.27 -23.53,0.211 -8.46,-1.082 -15.36,-4.031 -20.73,-8.859 2.95,-4.57 7.17,-10.801 12.68,-18.711 5.49,-7.922 9.92,-14.351 13.27,-19.32 3.36,-4.969 7.39,-11.141 12.08,-18.512 4.69,-7.379 8.26,-13.559 10.67,-18.519 2.41,-4.957 4.89,-10.59 7.44,-16.891 2.55,-6.309 3.89,-11.816 4.02,-16.5 0.14,-4.688 -0.26,-9.457 -1.2,-14.289 -0.95,-4.828 -3.09,-9.258 -6.44,-13.277 -3.36,-4.032 -7.72,-7.653 -13.08,-10.864 -19.05,-9.117 -35.15,-12.207 -48.29,-9.258 h -0.4 c -0.81,0 -1.35,0.141 -1.61,0.399 -3.5,0.539 -6.85,1.469 -10.06,2.812 -3.76,1.09 -8.46,3.36 -14.09,6.848 -6.18,4.02 -11.27,8.59 -15.3,13.68 -5.09,6.441 -8.84,13.679 -11.27,21.73 0,0.551 -0.06,1.153 -0.19,1.809 -0.14,0.672 -0.21,1.14 -0.21,1.41 l -0.4,0.812 v 0.801 l -0.4,1.61 -0.4,1.199 v 1.621 c -0.27,0.808 -0.41,1.867 -0.41,3.219 -0.8,4.019 -1.2,8.308 -1.2,12.879 0,9.66 1.07,18.64 3.21,26.96 2.43,8.309 5.9,16.762 10.47,25.352 0,0.27 0.13,0.398 0.4,0.398 l 0.4,0.809 c -4.28,5.891 -8.72,12.34 -13.28,19.313 -7.51,11.808 -12.67,22.75 -15.49,32.8 -2.82,10.059 -3.48,18.45 -2.01,25.161 1.47,6.699 4.03,12.726 7.65,18.109 3.62,5.359 7.98,9.59 13.07,12.668 5.1,3.09 9.87,5.699 14.29,7.851 4.43,2.141 8.25,3.481 11.47,4.028 l 4.83,1.203 c -6.98,-16.902 0.14,-42.391 21.33,-76.461 8.31,4.551 17.36,7.309 27.17,8.25 9.78,0.93 18.64,0.461 26.55,-1.41 7.92,-1.879 15.29,-4.16 22.14,-6.84 6.84,-2.68 12.14,-5.231 15.9,-7.641 l 6.03,-3.23"
         style="fill:#111011;fill-opacity:1;fill-rule:nonzero;stroke:none"
         id="path114" /><path
         d="m 297.395,340.5 c -5.375,-126.629 -2.012,-193.031 10.054,-199.199 -2.144,-5.91 -8.113,-11.27 -17.898,-16.102 -9.805,-4.828 -18.582,-7.508 -26.367,-8.047 -8.321,-0.531 -15.223,1.95 -20.723,7.45 -5.496,5.488 -9.324,13.609 -11.465,24.339 -2.156,10.731 -3.625,22.34 -4.433,34.809 -0.801,12.48 -0.606,26.961 0.605,43.461 1.211,16.508 2.41,31.531 3.621,45.07 1.215,13.551 2.746,28.578 4.633,45.078 1.875,16.5 3.074,29.18 3.621,38.032 0.535,5.359 -0.676,8.859 -3.621,10.468 -2.961,1.602 -6.379,1.403 -10.266,-0.609 -3.894,-2.008 -7.043,-4.758 -9.453,-8.25 -1.074,-1.609 -1.75,-2.809 -2.012,-3.621 -3.496,-5.637 -6.308,-11.137 -8.457,-16.5 -4.824,-11 -8.996,-24.68 -12.468,-41.047 -2.153,-10.203 -3.625,-17.98 -4.438,-23.34 -1.598,-8.051 -2.808,-16.23 -3.609,-24.551 l -3.625,-25.75 c 0,-1.351 -0.274,-3.628 -0.813,-6.851 0,-0.258 -0.136,-0.801 -0.398,-1.598 -0.274,-0.812 -0.403,-1.492 -0.403,-2.012 0,-0.281 -0.269,-0.949 -0.808,-2.019 0,-0.809 -0.137,-1.34 -0.402,-1.609 -0.262,-0.27 -0.399,-0.543 -0.399,-0.813 l -0.398,-0.398 -0.403,-0.399 v -0.402 l -0.808,-0.809 c -0.539,-0.539 -1.074,-0.941 -1.614,-1.199 -0.539,-0.551 -1.335,-0.812 -2.414,-0.812 h -0.796 -1.614 c -0.547,0.261 -1.211,0.539 -2.011,0.812 l -0.403,0.398 c -0.547,0 -0.808,0.129 -0.808,0.403 l -1.204,1.207 c -0.269,0 -0.543,0.269 -0.808,0.801 l -0.402,0.8 v 0.411 c -0.274,0.269 -0.399,0.531 -0.399,0.8 -0.547,1.078 -0.945,1.739 -1.211,2.02 0,0.258 -0.066,0.598 -0.207,1 -0.137,0.398 -0.191,0.73 -0.191,1.008 -1.075,3.222 -1.75,5.5 -2.016,6.84 -0.269,1.882 -0.738,4.293 -1.402,7.242 -0.676,2.949 -1.157,5.097 -1.418,6.449 -0.266,1.328 -0.598,3.48 -1.004,6.43 -0.402,2.949 -0.742,5.238 -1.008,6.851 -0.535,2.668 -1.269,7.039 -2.207,13.071 -0.945,6.039 -1.68,10.667 -2.219,13.886 -0.535,2.68 -1.277,7.043 -2.215,13.082 -0.937,6.032 -1.679,10.52 -2.207,13.481 -0.273,1.597 -0.742,3.879 -1.418,6.84 -0.664,2.949 -1.14,5.097 -1.406,6.429 -0.801,3.489 -1.875,7.649 -3.211,12.481 -0.547,-1.61 -0.808,-2.551 -0.808,-2.821 -0.278,-0.8 -0.61,-1.871 -1.008,-3.211 -0.403,-1.347 -0.742,-2.289 -1.004,-2.82 l -1.215,-6.039 c -0.535,-1.351 -1.07,-3.359 -1.601,-6.031 -2.684,-14.219 -5.235,-30.188 -7.645,-47.891 -0.547,-3.758 -1.211,-8.66 -2.012,-14.687 -0.808,-6.039 -1.484,-11.41 -2.011,-16.102 -0.547,-4.691 -1.082,-9.058 -1.614,-13.078 -2.957,-23.613 -4.429,-35.812 -4.429,-36.621 l -4.426,-28.582 c 0,-0.527 -0.071,-1.399 -0.196,-2.598 -0.144,-1.218 -0.339,-2.09 -0.605,-2.621 -0.547,-2.687 -0.812,-4.441 -0.812,-5.238 -0.262,-0.531 -0.797,-3.082 -1.61,-7.641 0,-1.351 -0.137,-2.289 -0.398,-2.82 v -0.41 C 107.18,117.961 102.883,110.852 96.1797,105.48 89.4648,100.121 83.1641,96.6992 77.2656,95.2109 71.3555,93.75 65.4492,93.0117 59.5508,93.0117 49.8945,92.7422 42.1094,97.9023 36.2109,108.492 c -5.8984,10.61 -9.6601,24.488 -11.2578,41.66 -1.6133,17.161 -2.4218,36.629 -2.4218,58.348 0,21.73 1.0039,43.672 3.0156,65.801 2.0117,22.129 3.7578,43.328 5.2344,63.59 1.4765,20.25 2.746,37.558 3.8281,51.91 1.0625,14.351 0.664,24.75 -1.211,31.179 1.0664,0.27 2.5508,0.54 4.4258,0.809 1.875,0.27 5.4375,0.531 10.6602,0.813 5.2344,0.257 10.1953,0.058 14.8945,-0.61 4.6875,-0.672 9.8633,-2.211 15.5,-4.633 5.625,-2.41 10.3906,-5.629 14.2774,-9.66 3.8828,-4.019 6.9807,-9.789 9.2537,-17.297 2.278,-7.511 3.02,-16.371 2.219,-26.55 -3.223,-36.77 -5.2345,-78.223 -6.0352,-124.36 0.8007,2.68 1.8042,6.5 3.0152,11.469 1.204,4.961 2.075,8.512 2.621,10.66 2.672,10.192 4.825,17.981 6.434,23.348 0.535,2.672 1.609,6.703 3.223,12.07 l 3.625,12.473 c 0,0.539 0.191,1.539 0.593,3.019 0.411,1.469 0.743,2.61 1.004,3.43 1.079,2.672 1.75,4.68 2.012,6.031 0.539,1.61 1.352,3.75 2.426,6.438 0.801,2.41 1.734,4.691 2.808,6.84 0.54,1.609 1.079,2.812 1.614,3.621 0.261,0.808 0.937,2.019 2.011,3.621 l 2.012,2.019 c 1.074,1.059 2.012,1.86 2.821,2.41 0.8,0.801 1.742,1.2 2.816,1.2 0.262,0.269 0.934,0.41 2.012,0.41 h 0.808 0.801 c 1.34,0 2.551,-0.27 3.621,-0.809 1.067,-0.531 1.875,-1.07 2.414,-1.609 1.074,-0.801 1.875,-1.602 2.41,-2.414 0.539,-0.539 1.075,-1.348 1.614,-2.41 0.539,-1.079 1.074,-2.418 1.613,-4.028 1.336,-2.679 2.144,-4.968 2.41,-6.84 1.875,-7.25 2.949,-11.808 3.223,-13.679 0.539,-3.231 1.34,-7.789 2.414,-13.692 1.07,-6.168 2.41,-15.148 4.019,-26.961 0.266,-1.347 0.61,-3.55 1.008,-6.636 0.41,-3.094 0.742,-5.434 1.008,-7.043 0.262,-1.61 0.601,-3.899 1.004,-6.848 0.41,-2.953 0.742,-5.09 1.008,-6.43 l 1.211,-9.66 c 0.261,1.34 0.601,3.078 1.003,5.227 0.403,2.14 0.606,3.75 0.606,4.832 l 3.625,24.949 c 0.523,4.563 2.012,12.609 4.422,24.152 0.539,2.137 1.406,5.758 2.617,10.86 1.211,5.097 2.219,8.98 3.02,11.668 3.75,11.011 6.168,17.84 7.246,20.531 1.875,5.359 4.824,11.531 8.843,18.512 2.954,5.359 6.711,10.597 11.274,15.699 4.558,4.558 8.855,7.91 12.879,10.047 l 0.398,0.41 c 0.539,0 0.813,0.133 0.813,0.41 4.289,2.133 9.25,3.75 14.882,4.82 0.54,0 0.938,0.141 1.211,0.403 1.336,0.258 3.223,0.539 5.633,0.808 2.414,0.262 6.699,0.059 12.871,-0.609 6.172,-0.672 11.606,-2.281 16.301,-4.828 4.695,-2.551 9.063,-7.313 13.086,-14.293 4.023,-6.969 6.16,-15.688 6.438,-26.149 v -1.211 -0.8 -0.399 -4.031"
         style="fill:#111011;fill-opacity:1;fill-rule:nonzero;stroke:none"
         id="path116" /><path
         d="m 407.258,250.359 c -5.102,1.602 -10.871,0 -17.309,-4.828 0.539,-1.082 1.614,-2.422 3.227,-4.031 2.137,-2.148 4.422,-3.758 6.836,-4.828 1.336,-1.082 2.82,-1.75 4.422,-2.012 3.222,-0.801 4.961,-1.199 5.234,-1.199 3.223,-0.82 6.437,-1.219 9.656,-1.219 -1.875,10.199 -5.894,16.227 -12.066,18.117 z m -29.785,-93.367 c 6.707,-2.152 13.816,0.61 21.328,8.25 7.508,7.649 13.277,17.91 17.304,30.778 1.075,3.23 2.149,7.511 3.219,12.882 -5.371,-0.531 -9.519,-0.672 -12.469,-0.402 -0.546,0 -1.417,0.063 -2.617,0.199 -1.211,0.141 -2.285,0.262 -3.222,0.41 -0.938,0.133 -1.805,0.332 -2.618,0.602 -1.875,0.269 -4.699,0.93 -8.449,2.019 -4.566,1.333 -9.258,3.75 -14.082,7.231 -1.609,1.078 -2.683,1.879 -3.222,2.418 -0.536,-1.34 -1.883,-4.688 -4.024,-10.059 -4.019,-12.871 -5.164,-24.621 -3.418,-35.211 1.738,-10.597 5.832,-16.968 12.27,-19.117 z m 131.199,101.817 4.824,-8.45 c -1.348,-1.078 -3.223,-2.418 -5.637,-4.019 -0.269,-0.277 -0.796,-0.61 -1.609,-1.02 -0.801,-0.398 -1.34,-0.73 -1.609,-1.007 l -3.618,-2.411 c -0.269,-0.261 -0.878,-0.672 -1.812,-1.203 -0.941,-0.547 -1.684,-0.949 -2.207,-1.207 -0.551,-0.273 -1.352,-0.801 -2.426,-1.613 -1.07,-0.797 -1.875,-1.348 -2.41,-1.609 -2.957,-1.348 -4.695,-2.278 -5.234,-2.809 -0.539,-0.551 -1.473,-1.148 -2.813,-1.82 -1.348,-0.68 -2.285,-1.141 -2.82,-1.411 -0.266,-0.269 -0.742,-0.601 -1.406,-1 -0.676,-0.398 -1.145,-0.609 -1.411,-0.609 l -1.609,-0.801 c -0.273,0 -0.535,-0.14 -0.801,-0.398 -0.273,-0.27 -0.547,-0.41 -0.808,-0.41 -1.078,-0.262 -2.153,-0.801 -3.215,-1.602 -1.082,-0.281 -2.156,-0.808 -3.223,-1.609 -2.961,-1.352 -7.644,-3.36 -14.082,-6.039 -4.031,-1.61 -8.992,-3.36 -14.891,-5.231 -0.812,-0.281 -1.957,-0.609 -3.417,-1.011 -1.489,-0.399 -2.493,-0.598 -3.032,-0.598 -0.801,-4.832 -2.011,-9.66 -3.609,-14.492 -6.711,-20.918 -18.117,-36.957 -34.211,-48.09 -16.106,-11.129 -32.332,-14.149 -48.699,-9.051 -16.367,5.082 -27.903,16.832 -34.602,35.211 -6.711,18.371 -6.711,38.152 0,59.359 6.699,20.922 18.106,36.95 34.199,48.09 16.106,11.121 32.332,14.141 48.704,9.051 10.996,-3.488 19.98,-10.531 26.96,-21.129 6.973,-10.59 10.997,-22.871 12.071,-36.82 h 1.211 c 6.699,1.34 11.258,2.281 13.679,2.82 2.141,0.262 6.567,1.469 13.286,3.621 1.597,0.539 2.671,0.938 3.21,1.207 1.614,0.531 2.676,0.801 3.223,0.801 l 1.61,0.801 c 0.265,0 0.531,0.07 0.8,0.211 0.266,0.129 0.539,0.199 0.813,0.199 0.262,0.269 0.73,0.531 1.406,0.801 0.664,0.269 1.133,0.398 1.406,0.398 l 6.035,2.43 c 1.614,0.519 3.348,1.199 5.235,2.012 2.137,1.058 3.75,1.738 4.824,2.007 2.148,1.063 3.621,1.743 4.434,2.012 0.261,0.258 0.871,0.598 1.804,1.008 0.942,0.402 1.543,0.73 1.821,1 l 3.613,1.203 6.043,3.227"
         style="fill:#111011;fill-opacity:1;fill-rule:nonzero;stroke:none"
         id="path118" /><path
         d="m 547.297,64.0313 c 10.191,34.3476 3.223,68.2697 -20.93,101.8207 -42.121,-30.051 -58.75,-54.063 -49.902,-72.0434 8.32,-16.3594 19.582,-28.9766 33.808,-37.8281 16.094,-9.918 27.5,-9.3907 34.207,1.6093 1.067,1.8829 2.012,4.0313 2.817,6.4415 z m 6.031,119.1207 C 591.965,163.289 611.016,130.563 610.48,84.9609 610.203,71.2813 608.398,59.1992 605.051,48.7422 601.688,38.2695 597.668,30.1602 592.969,24.3906 588.27,18.6211 582.703,13.8711 576.27,10.1094 569.836,6.35156 564.133,3.80859 559.172,2.46094 554.199,1.12109 549.172,0.3125 544.07,0.0507813 508.926,-1.30078 478.074,26.6016 451.516,83.75 c -12.075,24.949 10.066,55.801 66.406,92.559 l -9.262,9.254 -2.012,11.269 c 1.34,0.539 3.079,1.207 5.239,2.02 2.136,0.8 6.093,2.738 11.863,5.828 5.77,3.082 11.199,6.3 16.301,9.652 5.094,3.359 10.332,7.648 15.691,12.879 5.371,5.238 9.524,10.531 12.481,15.898 6.972,12.883 5.898,19.18 -3.223,18.922 -8.047,0 -27.898,-6.98 -59.562,-20.929 -10.997,-4.832 -19.852,-4.161 -26.551,2.007 -6.719,6.172 -10.742,13.411 -12.078,21.731 l -2.012,12.883 c 2.41,0 8.25,2.007 17.508,6.039 9.258,4.019 19.375,8.179 30.383,12.468 10.996,4.301 22.195,7.852 33.601,10.661 11.399,2.82 21.594,2.761 30.586,-0.192 8.984,-2.957 14.824,-9.398 17.512,-19.316 10.183,-36.762 -12.485,-68.024 -68.02,-93.774 4.563,-1.07 8.86,-2.41 12.879,-4.019 17.172,10.191 36.02,20.25 56.547,30.18 20.516,9.929 36.812,17.441 48.895,22.531 l 17.707,7.25 2.808,-8.852 C 625.77,223.801 588.477,204.609 553.328,183.152"
         style="fill:#111011;fill-opacity:1;fill-rule:nonzero;stroke:none"
         id="path120" /><path
         d="m 661.98,212.129 c -0.535,-13.68 5.239,-18.52 17.305,-14.5 9.66,3.492 19.582,10.742 29.785,21.73 1.067,10.2 2.016,17.852 2.817,22.942 -4.289,0 -8.657,-0.328 -13.078,-1 -4.422,-0.68 -9.661,-1.879 -15.696,-3.621 -6.035,-1.739 -11.004,-4.828 -14.89,-9.25 -3.887,-4.438 -5.977,-9.867 -6.243,-16.301 z m 185.93,39.434 h 13.281 c -1.074,-3.762 -2.683,-8.653 -4.836,-14.692 -2.144,-6.031 -6.968,-16.762 -14.48,-32.191 -7.52,-15.43 -15.566,-29.117 -24.148,-41.047 -8.586,-11.942 -19.993,-22.731 -34.204,-32.391 -14.226,-9.66 -28.98,-14.492 -44.265,-14.492 -9.934,0 -17.649,3.563 -23.145,10.66 -5.5,7.11 -8.789,15.629 -9.863,25.559 -1.074,9.922 -1.199,22.133 -0.398,36.621 -18.782,-18.25 -38.633,-25.629 -59.563,-22.129 -13.144,2.41 -21.601,8.98 -25.351,19.719 -3.75,10.722 -2.879,22.261 2.617,34.609 5.5,12.332 14.011,22.121 25.554,29.371 19.043,11.809 40.649,15.692 64.786,11.672 0.812,12.328 0.539,21.328 -0.797,26.957 1.062,0.27 2.41,0.543 4.019,0.813 1.613,0.269 4.758,0.461 9.453,0.597 4.7,0.141 9.121,-0.066 13.285,-0.597 4.161,-0.543 8.719,-1.883 13.68,-4.032 4.961,-2.148 9.192,-5.031 12.688,-8.648 3.472,-3.621 6.226,-8.793 8.242,-15.492 2.012,-6.707 2.613,-14.629 1.812,-23.739 -4.019,-55.812 -0.945,-83.851 9.258,-84.109 4.028,-0.281 8.985,2.949 14.887,9.66 10.73,12.067 20.058,25.41 27.969,40.039 7.91,14.61 13.211,26.219 15.894,34.809 l 3.625,12.473"
         style="fill:#111011;fill-opacity:1;fill-rule:nonzero;stroke:none"
         id="path122" /><path
         d="m 995.203,237.879 8.857,0.402 c 3.75,-0.801 5.09,-2.949 4.03,-6.441 0,-0.27 -0.95,-3.617 -2.83,-10.051 -1.87,-6.449 -3.88,-13.418 -6.03,-20.93 -2.152,-7.519 -5.238,-16.699 -9.257,-27.57 -4.028,-10.867 -8.254,-21.269 -12.676,-31.187 -4.426,-9.922 -9.856,-19.993 -16.301,-30.18 -6.433,-10.192 -13.074,-18.9103 -19.922,-26.1603 -6.836,-7.25 -14.687,-13.082 -23.535,-17.5117 -8.855,-4.418 -17.976,-6.3711 -27.371,-5.8281 -7.238,0.2695 -13.281,2.6172 -18.105,7.039 -4.836,4.418 -8.184,10.5391 -10.059,18.3086 -1.887,7.7813 -3.086,16.1015 -3.625,24.9535 -0.547,8.859 -0.203,19.179 1.008,30.988 1.199,11.809 2.476,22.469 3.816,31.988 1.34,9.524 2.883,20.192 4.629,31.992 1.746,11.809 3.02,20.93 3.828,27.379 -16.902,0.262 -30.254,1.801 -40.051,4.629 -9.793,2.813 -16.023,6.364 -18.711,10.66 -2.683,4.293 -4.363,9.114 -5.027,14.481 -0.676,5.359 -0.398,10.93 0.813,16.699 1.199,5.774 0.73,11.481 -1.418,17.113 1.613,0.797 3.691,1.61 6.242,2.411 2.547,0.796 7.105,1.738 13.68,2.816 6.574,1.07 12.332,1.07 17.304,0 4.961,-1.078 9.258,-4.168 12.879,-9.25 3.625,-5.109 5.031,-12.477 4.231,-22.137 -0.547,-6.98 5.222,-10.461 17.304,-10.461 4.285,0.258 8.574,0.258 12.871,0 4.286,-0.269 9.395,-1.422 15.293,-3.429 5.899,-2.012 10.801,-4.891 14.688,-8.653 3.887,-3.758 7.043,-9.328 9.465,-16.699 2.41,-7.379 2.949,-16.039 1.609,-25.961 -6.445,-49.359 -9.394,-79.41 -8.855,-90.137 0.535,-20.3825 7.507,-23.3434 20.925,-8.851 9.383,9.922 18.313,25.679 26.758,47.281 8.457,21.598 14.551,40.707 18.313,57.348 l 5.23,24.949"
         style="fill:#111011;fill-opacity:1;fill-rule:nonzero;stroke:none"
         id="path124" /><path
         d="m 1133.24,250.359 8.85,-6.449 c -0.8,-2.14 -1.88,-4.89 -3.21,-8.25 -1.35,-3.347 -4.37,-10.058 -9.06,-20.121 -4.69,-10.047 -9.6,-19.578 -14.69,-28.566 -5.1,-8.993 -11.6,-18.922 -19.51,-29.774 -7.92,-10.867 -15.97,-20.129 -24.16,-27.777 -8.18,-7.641 -17.64,-13.883 -28.36,-18.711 -10.74,-4.82 -21.47,-6.84 -32.2,-6.031 -6.44,0.269 -11.947,3.48 -16.498,9.652 -4.566,6.18 -7.984,15.227 -10.261,27.168 -2.286,11.941 -4.024,24.352 -5.235,37.219 -1.211,12.883 -1.679,28.5 -1.406,46.883 0.266,18.378 0.664,34.679 1.199,48.898 0.539,14.219 1.352,30.852 2.422,49.902 -1.609,0 -3.894,-0.07 -6.844,-0.203 -2.949,-0.136 -5.097,-0.328 -6.433,-0.597 -5.91,0 -10.207,-0.141 -12.883,-0.411 h -18.914 -5.637 -1.601 l -1.211,12.481 c 0.539,0 1.211,0.129 2.011,0.398 0.274,0 2.012,0.27 5.235,0.809 1.34,0.273 2.949,0.531 4.824,0.801 1.875,0.269 4.227,0.609 7.043,1.011 2.82,0.399 5.164,0.731 7.051,1.008 0.801,0 2.676,0.203 5.625,0.602 2.949,0.398 5.23,0.73 6.843,1.008 2.95,0.531 7.649,1.062 14.083,1.613 0.539,0.258 1.074,0.398 1.613,0.398 3.484,53.121 4.16,83.7 2.012,91.762 1.074,0.258 2.41,0.52 4.023,0.797 1.609,0.262 4.766,0.473 9.461,0.601 4.688,0.129 9.108,-0.07 13.278,-0.601 4.15,-0.539 8.71,-1.887 13.68,-4.027 4.97,-2.141 9.18,-5.032 12.68,-8.653 3.49,-3.617 6.24,-8.789 8.25,-15.5 2.01,-6.707 2.61,-14.617 1.81,-23.738 -0.27,-4.82 -0.95,-16.641 -2.01,-35.41 1.06,0 2.95,0.058 5.63,0.199 2.68,0.129 4.56,0.199 5.64,0.199 2.95,0.27 7.1,0.403 12.47,0.403 1.34,0 3.22,0.058 5.63,0.207 2.42,0.132 4.16,0.191 5.24,0.191 h 8.44 7.25 l 0.81,-12.469 c -1.61,-0.539 -3.9,-1.07 -6.84,-1.609 -2.42,-0.543 -5.24,-0.953 -8.45,-1.211 -1.09,0 -2.76,-0.191 -5.04,-0.602 -2.28,-0.398 -4.09,-0.738 -5.43,-1.007 -1.35,0 -3.42,-0.2 -6.24,-0.602 -2.81,-0.41 -5.03,-0.738 -6.64,-1 -1.08,0 -3.16,-0.211 -6.23,-0.609 -3.09,-0.399 -5.44,-0.739 -7.04,-1 -1.09,-21.2 -1.89,-44.539 -2.43,-70.032 0.27,-48.828 0.68,-76.328 1.22,-82.488 1.87,-22 6.57,-32.871 14.08,-32.601 3.48,0 7.51,1.859 12.08,5.632 7.77,6.438 17.03,17.969 27.76,34.61 10.72,16.629 19.45,31.789 26.16,45.468 l 10.06,20.129"
         style="fill:#111011;fill-opacity:1;fill-rule:nonzero;stroke:none"
         id="path126" /></g></g></svg>
