<?xml version="1.0" encoding="utf-8"?>
<svg viewBox="0 639.223 456.363 48.976" width="456.363" height="48.976" xmlns="http://www.w3.org/2000/svg">
  <path id="path108" d="m 37.5195,82.7813 0.8125,-0.8125 c 2.4102,-4.8282 5.3594,-9.7891 8.8477,-14.8868 2.6836,-3.7617 4.832,-6.5703 6.4453,-8.4414 0.2617,0 0.3984,-0.1406 0.3984,-0.4218 h 0.4024 C 57.375,54.7422 60.1953,53 62.8828,53 c 2.6758,0 4.8242,3.2109 6.4336,9.6602 v 1.1992 c 0,0.5429 0.1289,0.9414 0.4024,1.2109 1.875,17.9688 3.4843,41.8597 4.832,71.6287 -5.9063,-2.949 -10.332,-5.367 -13.2813,-7.238 -4.832,-2.68 -9.5312,-6.039 -14.0898,-10.059 -4.5625,-4.031 -7.9102,-7.91 -10.0586,-11.672 -1.0742,-2.148 -1.875,-4.16 -2.4141,-6.039 -0.5351,-1.351 -0.8007,-3.4801 -0.8007,-6.4293 0,-1.8906 0.4023,-4.0312 1.2031,-6.4531 0.2617,-0.5391 0.5351,-1.1367 0.8086,-1.8086 0.2656,-0.668 0.4023,-1.1406 0.4023,-1.3984 v -0.4102 h 0.3985 v -0.4023 -0.3985 h 0.4023 v -0.3984 l 0.3984,-0.8125 z m 177.8825,103.4177 3.223,-15.687 c -3.496,-0.551 -14.895,-1.821 -34.211,-3.832 -19.316,-2.008 -31.258,-3.551 -35.82,-4.629 -1.074,-0.531 -2.149,-0.801 -3.211,-0.801 C 147.52,53.3984 133.965,0.152344 104.727,1.49219 99.3555,2.01953 93.3203,3.5 86.6211,5.91016 L 85.0117,6.71875 C 79.6406,8.60156 76.2891,9.92969 74.9531,10.7383 67.4336,14.5 61.2695,18.25 56.4375,22.0117 50.8008,26.0391 45.4297,30.8594 40.3438,36.5 36.0469,41.332 31.6211,46.832 27.0625,53 23.8398,57.8203 20.3516,64 16.6016,71.5117 l -0.4102,1.2071 -0.3984,0.8007 v 0.4102 l -0.4024,0.4023 -0.3984,0.7969 -0.4024,0.8125 v 0.3984 0.3985 c -1.082,1.8828 -1.746,3.7617 -2.0195,5.6406 -1.0742,3.4805 -1.6015,7.6406 -1.6015,12.4805 0,5.082 0.5273,9.3786 1.6015,12.8706 1.0742,3.762 2.8203,7.512 5.2344,11.27 2.1484,3.75 4.5586,6.969 7.2461,9.648 1.6094,1.883 4.2851,4.434 8.0469,7.653 3.7578,2.949 9.6562,6.851 17.7031,11.668 5.3711,2.683 11.5351,5.64 18.5156,8.863 2.9492,1.059 4.8242,1.738 5.6367,2.008 0.8008,46.14 -0.1367,86.789 -2.8242,121.93 -3.7578,-0.27 -15.6914,-1.2 -35.8086,-2.809 -9.1211,-0.813 -16.5742,0.801 -22.3359,4.828 -5.76956,4.02 -9.46096,9.25 -11.07424,15.691 -1.60157,6.442 -2.546879,12.942 -2.8125037,19.52 -0.2617193,6.57 0,12.141 0.8007817,16.699 l 1.613282,7.25 c 2.68359,-0.808 9.46098,-0.539 20.32028,0.801 10.8711,1.34 22.4024,2.422 34.6094,3.219 12.207,0.801 24.5508,0.472 37.0313,-1.008 12.4723,-1.469 23.0003,-6.172 31.5823,-14.082 8.586,-7.918 13.281,-19.117 14.093,-33.598 v -4.031 c 0.262,-7.52 1.004,-24.609 2.207,-51.309 1.211,-26.699 2.079,-47.691 2.618,-62.98 4.832,1.07 16.972,2.41 36.425,4.019 19.442,1.61 30.782,2.692 34.004,3.219" style="fill:#111011;fill-opacity:1;fill-rule:nonzero;stroke:none" transform="matrix(0.133333, 0, 0, -0.133333, 0, 688.200012)"/>
  <path id="path110" d="m 264.895,177.762 c -5.098,1.597 -10.872,0 -17.305,-4.84 0.535,-1.07 1.609,-2.41 3.223,-4.024 2.136,-2.148 4.421,-3.757 6.835,-4.839 1.336,-1.071 2.821,-1.739 4.422,-2.008 3.223,-0.801 4.961,-1.199 5.235,-1.199 3.222,-0.813 6.437,-1.211 9.66,-1.211 -1.875,10.199 -5.899,16.23 -12.07,18.121 z M 235.109,84.3906 c 6.707,-2.1484 13.817,0.6016 21.329,8.25 7.507,7.6484 13.281,17.9104 17.304,30.7814 1.074,3.219 2.149,7.508 3.223,12.879 -5.371,-0.539 -9.524,-0.672 -12.473,-0.403 -0.547,0 -1.414,0.063 -2.617,0.204 -1.211,0.128 -2.285,0.257 -3.223,0.41 -0.937,0.117 -1.804,0.328 -2.617,0.59 -1.875,0.277 -4.695,0.937 -8.445,2.019 -4.57,1.34 -9.258,3.75 -14.082,7.238 -1.613,1.071 -2.688,1.871 -3.223,2.422 -0.539,-1.351 -1.887,-4.699 -4.023,-10.07 -4.024,-12.871 -5.168,-24.621 -3.418,-35.199 1.738,-10.6136 5.828,-16.9729 12.265,-19.1214 z m 131.2,101.8084 4.824,-8.437 c -1.348,-1.09 -3.223,-2.43 -5.633,-4.032 -0.273,-0.269 -0.801,-0.601 -1.613,-1.011 -0.801,-0.399 -1.336,-0.739 -1.61,-1.008 l -3.613,-2.41 c -0.273,-0.262 -0.879,-0.672 -1.816,-1.199 -0.938,-0.551 -1.68,-0.954 -2.207,-1.211 -0.547,-0.282 -1.348,-0.801 -2.422,-1.61 -1.074,-0.812 -1.875,-1.351 -2.414,-1.621 -2.957,-1.34 -4.696,-2.269 -5.235,-2.808 -0.535,-0.551 -1.472,-1.141 -2.812,-1.813 -1.348,-0.68 -2.285,-1.148 -2.82,-1.41 -0.266,-0.27 -0.743,-0.609 -1.407,-1.008 -0.676,-0.402 -1.144,-0.601 -1.406,-0.601 l -1.613,-0.801 c -0.274,0 -0.535,-0.137 -0.801,-0.399 -0.273,-0.281 -0.547,-0.41 -0.809,-0.41 -1.074,-0.269 -2.148,-0.801 -3.214,-1.609 -1.083,-0.27 -2.157,-0.809 -3.223,-1.61 -2.957,-1.339 -7.645,-3.359 -14.082,-6.031 -4.031,-1.609 -8.992,-3.359 -14.891,-5.238 -0.812,-0.274 -1.953,-0.602 -3.418,-1 -1.484,-0.402 -2.492,-0.613 -3.027,-0.613 -0.801,-4.817 -2.012,-9.661 -3.613,-14.477 -6.711,-20.934 -18.118,-36.9609 -34.211,-48.1015 -16.102,-11.1289 -32.332,-14.1485 -48.7,-9.0508 -16.367,5.0898 -27.902,16.8398 -34.601,35.2223 -6.707,18.368 -6.707,38.149 0,59.348 6.699,20.93 18.105,36.961 34.199,48.102 16.106,11.117 32.336,14.14 48.703,9.046 10.996,-3.5 19.981,-10.539 26.961,-21.128 6.973,-10.598 10.996,-22.868 12.07,-36.821 h 1.211 c 6.7,1.34 11.262,2.281 13.684,2.813 2.137,0.269 6.563,1.48 13.281,3.629 1.602,0.531 2.676,0.929 3.211,1.211 1.613,0.527 2.676,0.796 3.223,0.796 l 1.613,0.801 c 0.262,0 0.527,0.071 0.801,0.199 0.262,0.141 0.535,0.211 0.809,0.211 0.265,0.262 0.734,0.532 1.406,0.801 0.664,0.262 1.133,0.399 1.406,0.399 l 6.035,2.421 c 1.613,0.532 3.352,1.2 5.235,2.012 2.14,1.067 3.75,1.738 4.824,2.02 2.148,1.058 3.625,1.73 4.433,2.008 0.266,0.261 0.871,0.589 1.809,1 0.937,0.402 1.543,0.742 1.816,1.011 l 3.614,1.199 6.043,3.219" style="fill:#111011;fill-opacity:1;fill-rule:nonzero;stroke:none" transform="matrix(0.133333, 0, 0, -0.133333, 0, 688.200012)"/>
  <path id="path112" d="m 540.969,164.059 7.644,-2.411 c -0.808,-2.679 -2.078,-6.168 -3.828,-10.457 -1.746,-4.289 -5.222,-11.871 -10.457,-22.742 -5.234,-10.859 -10.469,-20.32 -15.695,-28.367 -5.235,-8.0507 -11.473,-15.0898 -18.719,-21.1211 -7.238,-6.039 -14.219,-8.3906 -20.918,-7.039 -7.793,1.5976 -13.957,9.3789 -18.516,23.3398 -4.57,13.9373 -7.519,28.8283 -8.859,44.6603 -1.336,15.828 -3.758,30.187 -7.234,43.058 -3.496,12.879 -8.196,19.321 -14.094,19.321 -4.824,0 -8.582,-5.371 -11.27,-16.102 -2.683,-10.73 -4.96,-23.679 -6.835,-38.828 -1.883,-15.16 -4.422,-30.332 -7.645,-45.469 C 401.32,86.7305 395.547,73.9297 387.238,63.4609 378.918,53 368.184,47.8984 355.039,48.1719 c -8.582,-0.2735 -15.488,4.7578 -20.723,15.0898 -5.234,10.3281 -8.593,23.9492 -10.058,40.8403 -1.485,16.91 -2.215,35.878 -2.215,56.949 0,21.058 0.937,42.32 2.812,63.789 1.875,21.461 3.426,42.051 4.629,61.769 1.211,19.723 2.274,36.422 3.223,50.102 0.938,13.68 0.606,23.34 -1.008,28.98 1.875,0.528 4.356,1 7.442,1.411 3.086,0.398 8.457,0.269 16.105,-0.411 7.645,-0.671 14.285,-2.41 19.922,-5.222 5.633,-2.828 10.594,-8.199 14.883,-16.11 4.285,-7.91 5.898,-18.039 4.832,-30.379 -4.57,-59.558 -7.383,-109.46 -8.457,-149.699 10.195,48.02 25.09,72.039 44.679,72.039 10.458,0 18.575,-7.32 24.344,-21.941 5.762,-14.629 9.192,-30.789 10.266,-48.488 1.062,-17.711 2.879,-34.352 5.43,-49.911 2.546,-15.558 6.367,-24.0112 11.464,-25.3511 6.172,-1.6094 14.09,3.6328 23.75,15.7031 9.657,12.07 17.84,24.547 24.551,37.418 l 10.059,19.309" style="fill:#111011;fill-opacity:1;fill-rule:nonzero;stroke:none" transform="matrix(0.133333, 0, 0, -0.133333, 0, 688.200012)"/>
  <path id="path114" d="m 557.863,139.52 c -0.539,-13.68 5.235,-18.508 17.305,-14.489 9.656,3.489 19.578,10.731 29.785,21.731 1.063,10.199 2.012,17.84 2.813,22.937 -4.289,0 -8.653,-0.328 -13.078,-1.008 -4.422,-0.671 -9.657,-1.871 -15.692,-3.609 -6.035,-1.75 -11.008,-4.832 -14.894,-9.262 -3.887,-4.429 -5.977,-9.859 -6.239,-16.3 z m 185.926,39.441 h 13.281 c -1.074,-3.762 -2.683,-8.66 -4.832,-14.691 -2.148,-6.04 -6.972,-16.77 -14.484,-32.2 -7.52,-15.429 -15.566,-29.109 -24.149,-41.0387 -8.585,-11.9493 -19.992,-22.7422 -34.199,-32.3907 -14.23,-9.6601 -28.984,-14.5 -44.269,-14.5 -9.93,0 -17.645,3.5703 -23.145,10.668 -5.496,7.1133 -8.789,15.6211 -9.863,25.5508 -1.074,9.9297 -1.199,22.1326 -0.399,36.6206 -18.781,-18.2495 -38.632,-25.6206 -59.562,-22.1206 -13.145,2.4101 -21.602,8.9806 -25.352,19.7106 -3.75,10.731 -2.878,22.27 2.618,34.61 5.5,12.34 14.015,22.129 25.558,29.379 19.043,11.8 40.645,15.691 64.785,11.671 0.809,12.329 0.536,21.321 -0.8,26.961 1.062,0.258 2.41,0.539 4.023,0.809 1.609,0.262 4.754,0.461 9.453,0.602 4.695,0.128 9.121,-0.071 13.281,-0.602 4.161,-0.551 8.719,-1.879 13.68,-4.031 4.961,-2.149 9.191,-5.028 12.688,-8.66 3.476,-3.61 6.23,-8.778 8.242,-15.477 2.011,-6.711 2.617,-14.633 1.816,-23.742 -4.023,-55.809 -0.949,-83.8478 9.258,-84.1212 4.023,-0.2696 8.984,2.9531 14.883,9.6601 10.73,12.0701 20.058,25.4101 27.969,40.0431 7.91,14.617 13.21,26.219 15.898,34.82 l 3.621,12.469" style="fill:#111011;fill-opacity:1;fill-rule:nonzero;stroke:none" transform="matrix(0.133333, 0, 0, -0.133333, 0, 688.200012)"/>
  <path id="path116" d="m 890.664,175.332 8.449,-4.023 c -11.808,-23.079 -20.117,-38.77 -24.953,-47.079 -4.023,-7.781 -8.183,-14.23 -12.469,-19.32 -3.761,-4.289 -6.847,-7.3787 -9.257,-9.2498 -0.274,-0.2813 -0.743,-0.6094 -1.407,-1.0118 -0.675,-0.3984 -1.144,-0.7382 -1.406,-1.0078 -0.273,-0.2695 -0.812,-0.5312 -1.613,-0.8086 -0.809,-0.2617 -1.348,-0.5312 -1.61,-0.8007 -0.273,0 -0.949,-0.2696 -2.011,-0.8008 h -1.211 l -0.403,-0.4102 h -1.609 -0.402 -0.399 -0.402 -1.211 c -1.875,0 -3.484,0.5391 -4.824,1.6094 -1.883,0.8125 -3.223,2.1523 -4.031,4.0312 -0.801,1.0704 -1.875,4.0191 -3.215,8.8481 -0.547,3.75 -0.809,8.992 -0.809,15.703 0.262,6.699 0.938,16.5 2.012,29.367 0.535,6.453 0.808,11.141 0.808,14.09 0,5.902 -0.136,9.933 -0.398,12.082 -0.273,1.058 -0.949,1.871 -2.012,2.41 -0.812,0.531 -1.886,0.129 -3.222,-1.199 l -2.414,-2.43 c -1.883,-2.41 -3.758,-5.633 -5.633,-9.652 -1.348,-2.418 -3.086,-6.039 -5.235,-10.86 -4.023,-10.468 -6.582,-17.441 -7.648,-20.929 -3.484,-10.211 -6.707,-21.071 -9.656,-32.602 L 788.848,88.0117 C 783.477,67.082 771.809,56.3516 753.84,55.8086 c -11.008,-0.2578 -18.985,3.9609 -23.945,12.6836 -4.973,8.7187 -7.11,19.8476 -6.438,33.4098 0.664,13.539 1.867,28.227 3.613,44.059 1.75,15.828 3.625,30.59 5.637,44.269 2.012,13.68 1.941,25.211 -0.195,34.61 0.801,0.262 2.011,0.531 3.621,0.801 1.613,0.269 4.562,0.531 8.847,0.808 4.29,0.262 8.391,0.063 12.278,-0.609 3.887,-0.668 8.113,-2.281 12.676,-4.82 4.558,-2.559 8.457,-6.051 11.668,-10.469 3.222,-4.422 5.703,-10.66 7.453,-18.711 1.738,-8.051 2.343,-17.438 1.804,-28.18 v -2.012 c 13.946,24.153 26.289,36.094 37.024,35.821 7.508,-0.27 11.805,-6.239 12.879,-17.91 1.074,-11.668 0.539,-22.469 -1.61,-32.387 0,-2.16 -0.265,-5.102 -0.8,-8.863 v -2.411 c -0.547,-3.218 -1.075,-8.316 -1.614,-15.289 0,-6.168 0.137,-10.468 0.403,-12.879 0.535,-2.148 0.937,-3.492 1.211,-4.031 l 0.398,-0.398 0.402,-0.403 h 0.399 0.41 l 1.203,0.403 h 0.809 0.402 c 0,0.269 0.262,0.398 0.801,0.398 0.262,0.27 0.535,0.403 0.808,0.403 0.528,0.269 0.938,0.41 1.204,0.41 l 0.808,0.797 c 0.539,0.273 0.938,0.543 1.203,0.812 0.809,0.527 3.223,2.82 7.246,6.84 4.559,5.359 8.582,11.269 12.071,17.711 l 24.148,44.66" style="fill:#111011;fill-opacity:1;fill-rule:nonzero;stroke:none" transform="matrix(0.133333, 0, 0, -0.133333, 0, 688.200012)"/>
  <path id="path118" d="m 1024.27,175.332 8.45,-4.023 c -11.81,-23.079 -20.12,-38.77 -24.96,-47.079 -4.02,-7.781 -8.178,-14.23 -12.467,-19.32 -3.758,-4.289 -6.844,-7.3787 -9.258,-9.2498 -0.273,-0.2813 -0.742,-0.6094 -1.406,-1.0118 -0.672,-0.3984 -1.141,-0.7382 -1.406,-1.0078 -0.274,-0.2695 -0.809,-0.5312 -1.61,-0.8086 -0.812,-0.2617 -1.347,-0.5312 -1.613,-0.8007 -0.273,0 -0.945,-0.2696 -2.012,-0.8008 h -1.211 l -0.398,-0.4102 h -1.613 -0.399 -0.402 -0.399 -1.211 c -1.875,0 -3.488,0.5391 -4.824,1.6094 -1.886,0.8125 -3.222,2.1523 -4.035,4.0312 -0.801,1.0704 -1.875,4.0191 -3.211,8.8481 -0.547,3.75 -0.812,8.992 -0.812,15.703 0.265,6.699 0.937,16.5 2.011,29.367 0.539,6.453 0.813,11.141 0.813,14.09 0,5.902 -0.137,9.933 -0.402,12.082 -0.274,1.058 -0.946,1.871 -2.012,2.41 -0.809,0.531 -1.883,0.129 -3.223,-1.199 l -2.41,-2.43 c -1.887,-2.41 -3.762,-5.633 -5.637,-9.652 -1.347,-2.418 -3.086,-6.039 -5.234,-10.86 -4.024,-10.468 -6.582,-17.441 -7.645,-20.929 -3.488,-10.211 -6.711,-21.071 -9.66,-32.602 L 922.453,88.0117 C 917.082,67.082 905.41,56.3516 887.441,55.8086 c -11.003,-0.2578 -18.984,3.9609 -23.945,12.6836 -4.969,8.7187 -7.109,19.8476 -6.433,33.4098 0.664,13.539 1.863,28.227 3.613,44.059 1.746,15.828 3.621,30.59 5.633,44.269 2.011,13.68 1.945,25.211 -0.196,34.61 0.801,0.262 2.012,0.531 3.625,0.801 1.61,0.269 4.559,0.531 8.848,0.808 4.285,0.262 8.387,0.063 12.273,-0.609 3.887,-0.668 8.118,-2.281 12.676,-4.82 4.563,-2.559 8.457,-6.051 11.672,-10.469 3.223,-4.422 5.703,-10.66 7.449,-18.711 1.739,-8.051 2.344,-17.438 1.809,-28.18 v -2.012 c 13.945,24.153 26.289,36.094 37.019,35.821 7.512,-0.27 11.809,-6.239 12.883,-17.91 1.074,-11.668 0.535,-22.469 -1.613,-32.387 0,-2.16 -0.262,-5.102 -0.801,-8.863 v -2.411 c -0.547,-3.218 -1.074,-8.316 -1.609,-15.289 0,-6.168 0.136,-10.468 0.398,-12.879 0.539,-2.148 0.938,-3.492 1.211,-4.031 l 0.402,-0.398 0.399,-0.403 h 0.402 0.41 l 1.2,0.403 h 0.812 0.399 c 0,0.269 0.265,0.398 0.8,0.398 0.266,0.27 0.539,0.403 0.813,0.403 0.527,0.269 0.937,0.41 1.199,0.41 l 0.813,0.797 c 0.535,0.273 0.937,0.543 1.199,0.812 0.812,0.527 3.222,2.82 7.246,6.84 4.562,5.359 8.586,11.269 12.073,17.711 l 24.15,44.66" style="fill:#111011;fill-opacity:1;fill-rule:nonzero;stroke:none" transform="matrix(0.133333, 0, 0, -0.133333, 0, 688.200012)"/>
  <path id="path120" d="m 1258.48,79.9609 c 1.06,-14.4921 -2.42,-26.3515 -10.47,-35.6093 -8.05,-9.2618 -18.65,-15.5625 -31.79,-18.9219 -13.15,-3.3477 -26.37,-5.6289 -39.65,-6.8399 -13.27,-1.1992 -25.89,-2.0195 -37.82,-2.4179 -11.94,-0.4024 -19.26,-1.2735 -21.93,-2.6094 -0.54,1.8789 -1.28,4.2891 -2.22,7.2383 -0.94,2.9609 -1.87,8.2578 -2.81,15.8984 -0.94,7.6524 -0.81,14.4219 0.4,20.3203 1.21,5.9024 4.49,11.4024 9.86,16.5 5.36,5.1016 13.01,7.9102 22.94,8.4493 45.07,2.1406 70.56,6.4414 76.46,12.8906 2.68,2.9414 2.68,6.9726 0,12.0706 -3.76,7.242 -10.06,14.742 -18.92,22.531 -8.85,7.781 -17.7,14.961 -26.55,21.531 -8.86,6.567 -17.91,13.887 -27.17,21.93 -9.26,8.047 -16.3,16.91 -21.12,26.558 -4.84,9.661 -7.52,20.391 -8.06,32.2 -0.54,11.8 3.43,25.812 11.87,42.05 8.45,16.231 21.26,34.012 38.44,53.321 7.5,7.508 12.74,12.48 15.7,14.898 16.09,12.883 30.71,17.16 43.85,12.883 23.62,-7.25 31.8,-26.031 24.55,-56.352 -3.21,-12.339 -5.96,-26.96 -8.25,-43.859 -2.27,-16.902 -3.42,-28.98 -3.42,-36.223 h -16.49 c 2.41,28.161 4.55,51.243 6.44,69.223 0.26,3.211 -0.95,4.149 -3.63,2.809 -2.41,-1.071 -8.04,-5.899 -16.9,-14.481 -13.68,-13.679 -23.48,-26.699 -29.38,-39.039 -5.91,-12.351 -8.04,-23.34 -6.43,-33 1.61,-9.66 5.03,-18.781 10.26,-27.359 5.23,-8.602 11.87,-16.84 19.91,-24.75 8.06,-7.922 15.77,-15.5 23.15,-22.75 7.37,-7.231 13.94,-15.153 19.71,-23.742 5.78,-8.5902 8.92,-17.0395 9.47,-25.3481" style="fill:#111011;fill-opacity:1;fill-rule:nonzero;stroke:none" transform="matrix(0.133333, 0, 0, -0.133333, 0, 688.200012)"/>
  <path id="path122" d="m 1360.29,169.301 c -1.61,0 -3.09,0 -4.43,0 -1.35,0 -3.42,-0.742 -6.24,-2.211 -2.81,-1.481 -5.29,-3.559 -7.44,-6.238 -2.15,-2.68 -4.43,-7.043 -6.84,-13.071 -2.42,-6.051 -4.29,-13.23 -5.63,-21.539 19.84,-1.351 33.26,5.09 40.24,19.317 1.07,2.41 1.87,5.293 2.41,8.652 0.54,3.348 -0.13,6.699 -2.01,10.059 -1.88,3.351 -5.23,5.031 -10.06,5.031 z m 83.3,1.609 8.05,-6.441 c -22.27,-41.59 -50.3,-73.3792 -84.11,-95.3792 -28.71,-18.7812 -52.99,-25.0703 -72.84,-18.9101 -20.66,6.7109 -29.78,26.1601 -27.36,58.3593 0.26,4.281 0.81,8.711 1.61,13.281 2.41,13.68 6.77,25.481 13.07,35.41 6.31,9.918 13.28,17.36 20.93,22.329 7.65,4.961 15.83,8.593 24.55,10.871 8.71,2.281 16.43,3.351 23.15,3.211 6.7,-0.129 12.33,-0.86 16.89,-2.2 5.9,-1.89 10.73,-5.179 14.49,-9.871 3.75,-4.691 5.9,-10.8 6.44,-18.308 0.54,-7.512 -2.15,-15.961 -8.05,-25.352 -9.39,-15.289 -26.83,-22.539 -52.31,-21.73 -2.96,-26.5589 2.81,-38.7816 17.3,-36.6214 15.82,2.4102 37.96,19.0508 66.4,49.9024 16.37,17.969 26.96,31.789 31.79,41.449" style="fill:#111011;fill-opacity:1;fill-rule:nonzero;stroke:none" transform="matrix(0.133333, 0, 0, -0.133333, 0, 688.200012)"/>
  <path id="path124" d="m 1492.69,75.9414 c 17.7,12.3281 32.19,31.9176 43.46,58.7496 9.11,22 11.27,36.879 6.44,44.668 -1.35,2.153 -3.22,3.36 -5.64,3.621 -7.24,0.54 -14.55,-8.109 -21.93,-25.96 -7.38,-17.84 -12.94,-35.879 -16.7,-54.122 z m 56.33,121.5276 c 14.5,-1.879 20.93,-12.61 19.33,-32.188 -1.61,-22.011 -11.68,-44.949 -30.18,-68.8201 -18.78,-24.4218 -40.12,-40.6523 -63.99,-48.6914 -5.63,-2.4179 -11.68,-3.6289 -18.11,-3.6289 -8.59,-0.2617 -15.49,4.7696 -20.73,15.0977 -5.23,10.3203 -8.59,23.9414 -10.06,40.8437 -1.48,16.898 -2.21,35.879 -2.21,56.938 0,21.07 0.93,42.332 2.81,63.789 1.87,21.472 3.43,42.05 4.63,61.781 1.21,19.719 2.27,36.422 3.22,50.101 0.94,13.68 0.61,23.34 -1,28.969 1.06,0.27 2.41,0.539 4.02,0.809 1.61,0.273 4.76,0.461 9.46,0.601 4.69,0.141 9.11,-0.07 13.27,-0.601 4.16,-0.539 8.72,-1.879 13.69,-4.02 4.97,-2.16 9.18,-5.039 12.68,-8.648 3.48,-3.629 6.23,-8.801 8.24,-15.5 2.01,-6.711 2.62,-14.629 1.82,-23.742 -5.91,-79.418 -8.72,-140.047 -8.46,-181.911 4.3,12.344 8.93,23.344 13.89,33 4.96,9.661 11.74,18.383 20.32,26.161 8.59,7.781 17.71,11 27.36,9.66" style="fill:#111011;fill-opacity:1;fill-rule:nonzero;stroke:none" transform="matrix(0.133333, 0, 0, -0.133333, 0, 688.200012)"/>
  <path id="path126" d="m 1623.87,139.52 c -0.54,-13.68 5.23,-18.508 17.3,-14.489 9.66,3.489 19.58,10.731 29.79,21.731 1.06,10.199 2.01,17.84 2.81,22.937 -4.29,0 -8.65,-0.328 -13.08,-1.008 -4.42,-0.671 -9.65,-1.871 -15.69,-3.609 -6.03,-1.75 -11,-4.832 -14.89,-9.262 -3.89,-4.429 -5.98,-9.859 -6.24,-16.3 z m 185.93,39.441 h 13.28 c -1.08,-3.762 -2.69,-8.66 -4.84,-14.691 -2.15,-6.04 -6.97,-16.77 -14.48,-32.2 -7.52,-15.429 -15.57,-29.109 -24.15,-41.0387 -8.58,-11.9493 -19.99,-22.7422 -34.2,-32.3907 -14.23,-9.6601 -28.98,-14.5 -44.27,-14.5 -9.93,0 -17.64,3.5703 -23.14,10.668 -5.5,7.1133 -8.79,15.6211 -9.86,25.5508 -1.08,9.9297 -1.21,22.1326 -0.4,36.6206 -18.78,-18.2495 -38.64,-25.6206 -59.57,-22.1206 -13.14,2.4101 -21.6,8.9806 -25.35,19.7106 -3.75,10.731 -2.88,22.27 2.62,34.61 5.5,12.34 14.01,22.129 25.56,29.379 19.04,11.8 40.64,15.691 64.78,11.671 0.81,12.329 0.54,21.321 -0.8,26.961 1.07,0.258 2.41,0.539 4.02,0.809 1.62,0.262 4.76,0.461 9.46,0.602 4.7,0.128 9.12,-0.071 13.28,-0.602 4.16,-0.551 8.72,-1.879 13.68,-4.031 4.96,-2.149 9.19,-5.028 12.69,-8.66 3.47,-3.61 6.23,-8.778 8.24,-15.477 2.01,-6.711 2.62,-14.633 1.82,-23.742 -4.03,-55.809 -0.95,-83.8478 9.25,-84.1212 4.03,-0.2696 8.99,2.9531 14.89,9.6601 10.73,12.0701 20.05,25.4101 27.96,40.0431 7.91,14.617 13.22,26.219 15.9,34.82 l 3.63,12.469" style="fill:#111011;fill-opacity:1;fill-rule:nonzero;stroke:none" transform="matrix(0.133333, 0, 0, -0.133333, 0, 688.200012)"/>
  <path id="path128" d="m 1836.35,37.7109 c 2.42,-2.6796 6.04,-5.6406 10.87,-8.8593 l 2.41,-1.1993 c 9.12,-3.2226 14.76,-1.3515 16.9,5.629 2.15,7.2382 1.82,15.0898 -1,23.539 -2.81,8.461 -6.38,15.8985 -10.67,22.3281 -4.29,6.4532 -10.86,15.5625 -19.71,27.3826 -1.35,1.598 -2.29,2.809 -2.82,3.61 -2.15,-4.559 -3.89,-9.801 -5.23,-15.6918 -1.61,-7.789 -2.28,-15.1601 -2.01,-22.1289 0.26,-2.1484 0.66,-5.6406 1.2,-10.4687 0.26,-0.8008 0.54,-1.8828 0.81,-3.211 0.26,-1.3515 0.53,-2.5586 0.8,-3.6289 0.27,-1.0703 0.54,-2.0117 0.8,-2.8203 1.35,-5.0898 3.89,-9.9219 7.65,-14.4805 z m 123.95,121.5271 1.62,-9.656 c -1.62,0.797 -3.9,1.949 -6.85,3.418 -2.95,1.469 -8.52,3.691 -16.7,6.641 -8.18,2.949 -15.9,5.031 -23.14,6.238 -7.24,1.211 -15.09,1.269 -23.54,0.211 -8.46,-1.09 -15.36,-4.039 -20.73,-8.86 2.95,-4.57 7.18,-10.8 12.68,-18.71 5.49,-7.918 9.93,-14.36 13.28,-19.321 3.35,-4.969 7.38,-11.14 12.08,-18.508 4.68,-7.3902 8.25,-13.5621 10.66,-18.5191 2.41,-4.961 4.89,-10.6016 7.44,-16.8906 2.55,-6.3125 3.89,-11.8204 4.02,-16.5118 0.14,-4.6875 -0.26,-9.4492 -1.2,-14.289 -0.94,-4.8203 -3.09,-9.25 -6.44,-13.2813 -3.36,-4.0195 -7.72,-7.6367 -13.08,-10.8594 -19.05,-9.12105 -35.15,-12.19918 -48.29,-9.24996 h -0.4 c -0.81,0 -1.35,0.12891 -1.61,0.40235 -3.5,0.52734 -6.85,1.46875 -10.06,2.80859 -3.76,1.07813 -8.46,3.35938 -14.09,6.84762 -6.17,4.0235 -11.27,8.5938 -15.29,13.6836 -5.1,6.4297 -8.85,13.6797 -11.27,21.7188 0,0.5508 -0.07,1.1601 -0.2,1.8203 -0.14,0.668 -0.2,1.1289 -0.2,1.4102 l -0.4,0.8085 v 0.8008 l -0.41,1.6094 -0.4,1.1992 v 1.6094 c -0.27,0.8125 -0.41,1.8828 -0.41,3.2305 -0.8,4.0195 -1.2,8.3125 -1.2,12.8828 0,9.6484 1.07,18.6367 3.22,26.957 2.42,8.3121 5.89,16.7621 10.46,25.3511 0,0.262 0.13,0.399 0.4,0.399 l 0.41,0.801 c -4.29,5.902 -8.73,12.351 -13.29,19.32 -7.51,11.801 -12.67,22.742 -15.48,32.801 -2.83,10.058 -3.49,18.449 -2.02,25.16 1.47,6.699 4.03,12.73 7.65,18.098 3.62,5.363 7.98,9.589 13.08,12.683 5.09,3.078 9.86,5.688 14.28,7.848 4.43,2.14 8.26,3.48 11.47,4.019 l 4.83,1.2 c -6.98,-16.887 0.14,-42.387 21.33,-76.45 8.31,4.551 17.36,7.301 27.17,8.243 9.78,0.937 18.64,0.468 26.55,-1.403 7.92,-1.879 15.29,-4.16 22.14,-6.84 6.85,-2.687 12.14,-5.23 15.9,-7.648 l 6.03,-3.223" style="fill:#111011;fill-opacity:1;fill-rule:nonzero;stroke:none" transform="matrix(0.133333, 0, 0, -0.133333, 0, 688.200012)"/>
  <path id="path130" d="m 2092.32,177.762 8.84,-6.453 c -0.8,-2.149 -1.87,-4.887 -3.21,-8.25 -1.35,-3.348 -4.36,-10.059 -9.05,-20.118 -4.7,-10.062 -9.6,-19.589 -14.7,-28.57 -5.1,-9 -11.6,-18.9218 -19.51,-29.7812 -7.92,-10.871 -15.97,-20.121 -24.15,-27.7695 -8.19,-7.6484 -17.65,-13.8789 -28.37,-18.7109 -10.73,-4.8281 -21.47,-6.8477 -32.2,-6.0391 -6.43,0.2813 -11.94,3.4883 -16.49,9.6602 -4.57,6.1679 -7.99,15.2304 -10.27,27.1679 -2.28,11.9336 -4.02,24.3438 -5.23,37.2226 -1.21,12.879 -1.68,28.5 -1.41,46.879 0.27,18.379 0.67,34.68 1.2,48.902 0.54,14.219 1.35,30.848 2.43,49.899 -1.61,0 -3.9,-0.071 -6.85,-0.211 -2.95,-0.129 -5.1,-0.328 -6.43,-0.59 -5.91,0 -10.21,-0.148 -12.89,-0.41 h -18.91 -5.64 -1.6 l -1.21,12.48 c 0.54,0 1.21,0.129 2.01,0.399 0.28,0 2.01,0.261 5.24,0.812 1.33,0.258 2.95,0.528 4.82,0.801 1.88,0.258 4.23,0.609 7.04,1.008 2.82,0.402 5.17,0.73 7.05,1 0.8,0 2.68,0.211 5.63,0.609 2.95,0.403 5.23,0.731 6.84,1 2.95,0.539 7.65,1.071 14.09,1.61 0.53,0.273 1.07,0.41 1.61,0.41 3.48,53.121 4.16,83.703 2.01,91.75 1.07,0.273 2.41,0.531 4.02,0.801 1.61,0.269 4.77,0.472 9.47,0.609 4.68,0.133 9.11,-0.07 13.28,-0.609 4.15,-0.528 8.71,-1.879 13.68,-4.02 4.96,-2.148 9.18,-5.031 12.67,-8.648 3.49,-3.633 6.24,-8.793 8.26,-15.5 2.01,-6.711 2.6,-14.622 1.8,-23.743 -0.27,-4.82 -0.94,-16.64 -2.01,-35.41 1.07,0 2.95,0.063 5.64,0.192 2.67,0.14 4.56,0.211 5.63,0.211 2.95,0.257 7.1,0.398 12.47,0.398 1.34,0 3.22,0.059 5.64,0.211 2.42,0.121 4.16,0.187 5.23,0.187 h 8.45 7.24 l 0.81,-12.468 c -1.61,-0.551 -3.89,-1.071 -6.84,-1.61 -2.41,-0.539 -5.24,-0.949 -8.45,-1.211 -1.08,0 -2.75,-0.199 -5.04,-0.609 -2.27,-0.398 -4.09,-0.73 -5.43,-1 -1.35,0 -3.42,-0.199 -6.24,-0.602 -2.81,-0.41 -5.03,-0.738 -6.64,-1.007 -1.07,0 -3.15,-0.2 -6.23,-0.602 -3.08,-0.398 -5.44,-0.738 -7.04,-1.008 -1.08,-21.199 -1.88,-44.539 -2.42,-70.031 0.26,-48.82 0.67,-76.32 1.21,-82.488 1.87,-22.0003 6.57,-32.8714 14.08,-32.5901 3.49,0 7.51,1.8594 12.08,5.6289 7.77,6.4414 17.03,17.9687 27.76,34.6092 10.73,16.629 19.46,31.789 26.17,45.469 l 10.06,20.133" style="fill:#111011;fill-opacity:1;fill-rule:nonzero;stroke:none" transform="matrix(0.133333, 0, 0, -0.133333, 0, 688.200012)"/>
  <path id="path132" d="m 2136.17,234.891 c -5.9,-5.891 -13,-8.84 -21.33,-8.84 -8.32,0 -15.42,2.949 -21.32,8.84 -5.9,5.898 -8.85,13.019 -8.85,21.328 0,8.32 2.95,15.429 8.85,21.332 5.9,5.898 13,8.859 21.32,8.859 8.33,0 15.43,-2.961 21.33,-8.859 5.9,-5.903 8.86,-13.012 8.86,-21.332 0,-8.309 -2.96,-15.43 -8.86,-21.328 z m 78.48,-59.961 11.67,-4.418 c -0.26,-0.27 -2.08,-4.16 -5.43,-11.672 -3.36,-7.52 -6.98,-15.36 -10.87,-23.539 -3.89,-8.192 -9.39,-17.512 -16.49,-27.969 -7.12,-10.4609 -14.43,-19.6601 -21.94,-27.5703 -7.52,-7.9101 -16.5,-14.5508 -26.96,-19.9219 -10.47,-5.371 -21.06,-7.9101 -31.8,-7.6484 -12.07,0.5391 -21.12,5.4375 -27.16,14.6875 -6.04,9.2617 -9.25,20.793 -9.65,34.6131 -0.41,13.809 0.06,27.559 1.4,41.25 1.34,13.688 2.88,26.418 4.63,38.227 1.74,11.812 2.21,19.051 1.41,21.742 1.61,0.258 3.75,0.59 6.43,1 2.69,0.398 7.45,0.398 14.29,0 6.85,-0.41 12.68,-1.609 17.51,-3.621 4.82,-2.008 8.98,-5.84 12.47,-11.469 3.49,-5.641 4.56,-12.879 3.22,-21.73 -7.24,-49.102 -6.03,-75.5316 3.63,-79.2816 4.02,-1.6094 9.52,0 16.49,4.8203 8.59,5.9023 17.65,15.7693 27.17,29.5823 9.52,13.82 16.96,26.097 22.33,36.828 l 7.65,16.09" style="fill:#111011;fill-opacity:1;fill-rule:nonzero;stroke:none" transform="matrix(0.133333, 0, 0, -0.133333, 0, 688.200012)"/>
  <path id="path134" d="m 2225.51,139.52 c -0.54,-13.68 5.23,-18.508 17.3,-14.489 9.66,3.489 19.58,10.731 29.79,21.731 1.06,10.199 2.01,17.84 2.81,22.937 -4.29,0 -8.65,-0.328 -13.07,-1.008 -4.43,-0.671 -9.66,-1.871 -15.7,-3.609 -6.03,-1.75 -11,-4.832 -14.89,-9.262 -3.89,-4.429 -5.98,-9.859 -6.24,-16.3 z m 185.93,39.441 h 13.28 c -1.08,-3.762 -2.69,-8.66 -4.84,-14.691 -2.14,-6.04 -6.97,-16.77 -14.48,-32.2 -7.52,-15.429 -15.56,-29.109 -24.15,-41.0387 -8.58,-11.9493 -19.99,-22.7422 -34.2,-32.3907 -14.23,-9.6601 -28.98,-14.5 -44.27,-14.5 -9.93,0 -17.64,3.5703 -23.14,10.668 -5.5,7.1133 -8.79,15.6211 -9.86,25.5508 -1.08,9.9297 -1.2,22.1326 -0.4,36.6206 -18.78,-18.2495 -38.64,-25.6206 -59.56,-22.1206 -13.15,2.4101 -21.61,8.9806 -25.36,19.7106 -3.75,10.731 -2.88,22.27 2.62,34.61 5.5,12.34 14.01,22.129 25.56,29.379 19.04,11.8 40.64,15.691 64.78,11.671 0.81,12.329 0.54,21.321 -0.8,26.961 1.07,0.258 2.41,0.539 4.03,0.809 1.61,0.262 4.75,0.461 9.45,0.602 4.7,0.128 9.12,-0.071 13.28,-0.602 4.16,-0.551 8.72,-1.879 13.68,-4.031 4.96,-2.149 9.19,-5.028 12.69,-8.66 3.47,-3.61 6.23,-8.778 8.24,-15.477 2.01,-6.711 2.62,-14.633 1.82,-23.742 -4.03,-55.809 -0.95,-83.8478 9.25,-84.1212 4.03,-0.2696 8.99,2.9531 14.89,9.6601 10.73,12.0701 20.05,25.4101 27.97,40.0431 7.91,14.617 13.21,26.219 15.89,34.82 l 3.63,12.469" style="fill:#111011;fill-opacity:1;fill-rule:nonzero;stroke:none" transform="matrix(0.133333, 0, 0, -0.133333, 0, 688.200012)"/>
  <path id="path136" d="m 2558.32,175.332 8.45,-4.023 c -11.81,-23.079 -20.12,-38.77 -24.95,-47.079 -4.03,-7.781 -8.19,-14.23 -12.47,-19.32 -3.76,-4.289 -6.85,-7.3787 -9.26,-9.2498 -0.27,-0.2813 -0.74,-0.6094 -1.41,-1.0118 -0.67,-0.3984 -1.14,-0.7382 -1.4,-1.0078 -0.28,-0.2695 -0.81,-0.5312 -1.61,-0.8086 -0.82,-0.2617 -1.35,-0.5312 -1.62,-0.8007 -0.27,0 -0.94,-0.2696 -2.01,-0.8008 h -1.21 l -0.4,-0.4102 h -1.61 -0.4 -0.4 -0.4 -1.21 c -1.88,0 -3.49,0.5391 -4.83,1.6094 -1.88,0.8125 -3.22,2.1523 -4.03,4.0312 -0.8,1.0704 -1.88,4.0191 -3.21,8.8481 -0.55,3.75 -0.81,8.992 -0.81,15.703 0.26,6.699 0.93,16.5 2.01,29.367 0.54,6.453 0.81,11.141 0.81,14.09 0,5.902 -0.14,9.933 -0.4,12.082 -0.28,1.058 -0.95,1.871 -2.01,2.41 -0.81,0.531 -1.89,0.129 -3.23,-1.199 l -2.41,-2.43 c -1.88,-2.41 -3.76,-5.633 -5.63,-9.652 -1.35,-2.418 -3.09,-6.039 -5.24,-10.86 -4.02,-10.468 -6.58,-17.441 -7.64,-20.929 -3.49,-10.211 -6.71,-21.071 -9.66,-32.602 l -3.63,-13.2773 c -5.37,-20.9297 -17.04,-31.6601 -35,-32.2031 -11.01,-0.2578 -18.99,3.9609 -23.95,12.6836 -4.97,8.7187 -7.11,19.8476 -6.44,33.4098 0.67,13.539 1.87,28.227 3.62,44.059 1.75,15.828 3.62,30.59 5.63,44.269 2.01,13.68 1.95,25.211 -0.19,34.61 0.8,0.262 2.01,0.531 3.62,0.801 1.61,0.269 4.56,0.531 8.85,0.808 4.28,0.262 8.39,0.063 12.27,-0.609 3.89,-0.668 8.12,-2.281 12.68,-4.82 4.56,-2.559 8.46,-6.051 11.67,-10.469 3.22,-4.422 5.7,-10.66 7.45,-18.711 1.74,-8.051 2.34,-17.438 1.81,-28.18 v -2.012 c 13.94,24.153 26.29,36.094 37.02,35.821 7.51,-0.27 11.8,-6.239 12.88,-17.91 1.07,-11.668 0.54,-22.469 -1.61,-32.387 0,-2.16 -0.27,-5.102 -0.8,-8.863 v -2.411 c -0.55,-3.218 -1.08,-8.316 -1.61,-15.289 0,-6.168 0.13,-10.468 0.4,-12.879 0.53,-2.148 0.93,-3.492 1.21,-4.031 l 0.4,-0.398 0.4,-0.403 h 0.4 0.41 l 1.2,0.403 h 0.81 0.4 c 0,0.269 0.26,0.398 0.8,0.398 0.26,0.27 0.54,0.403 0.81,0.403 0.53,0.269 0.94,0.41 1.2,0.41 l 0.81,0.797 c 0.54,0.273 0.94,0.543 1.2,0.812 0.82,0.527 3.23,2.82 7.25,6.84 4.56,5.359 8.58,11.269 12.07,17.711 l 24.15,44.66" style="fill:#111011;fill-opacity:1;fill-rule:nonzero;stroke:none" transform="matrix(0.133333, 0, 0, -0.133333, 0, 688.200012)"/>
  <path id="path138" d="m 2770.79,293.25 c -5.9,0.27 -11.94,-4.691 -18.11,-14.891 -6.17,-10.199 -11.54,-23.07 -16.1,-38.629 -4.56,-15.57 -8.19,-28.781 -10.86,-39.64 -2.69,-10.871 -4.7,-20.32 -6.04,-28.379 v -2.813 c 19.85,13.942 36.22,35.821 49.1,65.594 10.46,24.68 13.68,42.258 9.65,52.719 -1.61,3.758 -4.16,5.769 -7.64,6.039 z M 2727.33,49.7813 c 2.14,0.8085 5.09,2.1484 8.85,4.0195 3.76,1.8789 10.33,5.8398 19.72,11.8789 9.39,6.0312 17.64,12.4023 24.75,19.1094 7.1,6.7109 13.48,15.2929 19.11,25.7619 5.64,10.461 8.32,21.187 8.05,32.191 -0.26,6.438 -2.61,11.328 -7.04,14.688 -4.43,3.351 -9.99,5.031 -16.7,5.031 -6.71,0 -14.02,-1.07 -21.93,-3.223 -7.92,-2.148 -15.7,-5.226 -23.34,-9.258 -7.65,-4.019 -14.43,-8.441 -20.33,-13.281 -1.07,-53.9177 1.88,-82.8982 8.86,-86.9177 z M 2788.9,189.02 c 19.32,0 32.66,-5.829 40.04,-17.5 7.37,-11.668 8.92,-25.77 4.63,-42.258 -4.3,-16.5 -12.88,-32.5432 -25.76,-48.1018 -31.12,-37.5508 -72.98,-56.3282 -125.56,-56.3282 -9.66,-0.2734 -17.43,4.8985 -23.33,15.4883 -5.91,10.6016 -9.66,24.4805 -11.27,41.6485 -1.61,17.1718 -2.41,36.6332 -2.41,58.3512 0,21.731 1,43.672 3.01,65.809 2.01,22.121 3.68,43.32 5.03,63.582 1.34,20.25 2.55,37.559 3.63,51.91 1.07,14.348 0.66,24.75 -1.22,31.188 1.08,0.273 2.55,0.531 4.44,0.812 1.87,0.258 5.43,0.527 10.66,0.801 5.23,0.258 10.19,0.058 14.89,-0.602 4.69,-0.668 9.85,-2.218 15.49,-4.629 5.63,-2.421 10.39,-5.632 14.29,-9.66 3.88,-4.019 6.97,-9.801 9.25,-17.301 2.28,-7.519 3.02,-16.371 2.21,-26.558 -0.8,-10.473 -1.6,-22.82 -2.41,-37.031 17.17,37.031 37.28,54.191 60.37,51.507 18.77,-3.488 26.01,-18.378 21.73,-44.668 -4.3,-26.3 -17.31,-52.589 -39.04,-78.878 6.44,1.617 13.55,2.418 21.33,2.418" style="fill:#111011;fill-opacity:1;fill-rule:nonzero;stroke:none" transform="matrix(0.133333, 0, 0, -0.133333, 0, 688.200012)"/>
  <path id="path140" d="m 2894.73,139.52 c -0.53,-13.68 5.24,-18.508 17.31,-14.489 9.66,3.489 19.58,10.731 29.78,21.731 1.07,10.199 2.01,17.84 2.82,22.937 -4.29,0 -8.66,-0.328 -13.08,-1.008 -4.42,-0.671 -9.66,-1.871 -15.69,-3.609 -6.04,-1.75 -11.01,-4.832 -14.9,-9.262 -3.88,-4.429 -5.97,-9.859 -6.24,-16.3 z m 185.93,39.441 h 13.28 c -1.07,-3.762 -2.68,-8.66 -4.83,-14.691 -2.15,-6.04 -6.97,-16.77 -14.48,-32.2 -7.52,-15.429 -15.57,-29.109 -24.16,-41.0387 -8.58,-11.9493 -19.99,-22.7422 -34.19,-32.3907 -14.23,-9.6601 -28.99,-14.5 -44.27,-14.5 -9.93,0 -17.65,3.5703 -23.15,10.668 -5.49,7.1133 -8.79,15.6211 -9.86,25.5508 -1.07,9.9297 -1.2,22.1326 -0.4,36.6206 -18.78,-18.2495 -38.63,-25.6206 -59.56,-22.1206 -13.15,2.4101 -21.6,8.9806 -25.35,19.7106 -3.75,10.731 -2.88,22.27 2.61,34.61 5.5,12.34 14.02,22.129 25.56,29.379 19.04,11.8 40.65,15.691 64.79,11.671 0.81,12.329 0.53,21.321 -0.8,26.961 1.06,0.258 2.41,0.539 4.02,0.809 1.61,0.262 4.76,0.461 9.45,0.602 4.7,0.128 9.12,-0.071 13.28,-0.602 4.16,-0.551 8.72,-1.879 13.69,-4.031 4.96,-2.149 9.18,-5.028 12.68,-8.66 3.48,-3.61 6.23,-8.778 8.24,-15.477 2.01,-6.711 2.62,-14.633 1.82,-23.742 -4.02,-55.809 -0.95,-83.8478 9.26,-84.1212 4.02,-0.2696 8.98,2.9531 14.88,9.6601 10.73,12.0701 20.06,25.4101 27.97,40.0431 7.91,14.617 13.21,26.219 15.9,34.82 l 3.62,12.469" style="fill:#111011;fill-opacity:1;fill-rule:nonzero;stroke:none" transform="matrix(0.133333, 0, 0, -0.133333, 0, 688.200012)"/>
  <path id="path142" d="m 3144.23,193.852 c 19.32,-6.172 23.48,-22.801 12.49,-49.903 -1.89,0 -3.7,0.332 -5.44,1 -1.75,0.672 -2.89,1.41 -3.42,2.223 l -1.21,0.797 c 0.26,0.543 0.53,1.34 0.81,2.41 0.26,1.082 0.52,2.953 0.8,5.641 0.26,2.679 0.2,5.031 -0.2,7.039 -0.41,2.023 -1.55,3.89 -3.42,5.632 -1.88,1.75 -4.57,2.758 -8.05,3.02 -1.61,0.269 -3.02,0.34 -4.23,0.211 -1.2,-0.141 -3.21,-0.953 -6.04,-2.422 -2.81,-1.48 -5.37,-3.691 -7.64,-6.641 -2.28,-2.961 -4.63,-7.578 -7.04,-13.879 -2.42,-6.308 -4.3,-13.89 -5.64,-22.738 -4.56,-28.4412 1.08,-41.8514 16.91,-40.242 16.09,2.1406 38.49,17.43 67.2,45.879 17.97,17.703 29.38,31.519 34.21,41.441 l 8.05,-6.429 c -22.28,-41.59 -50.58,-72.5824 -84.91,-92.9613 -28.71,-16.9102 -53.4,-22 -74.06,-15.2891 -20.39,6.6914 -30.17,23.461 -29.37,50.3004 0.26,4.821 0.8,9.918 1.61,15.289 1.88,11.532 5.24,21.731 10.06,30.59 4.83,8.84 10.32,15.821 16.5,20.922 6.17,5.09 12.68,9.317 19.52,12.68 6.84,3.348 13.68,5.488 20.52,6.437 6.85,0.93 12.94,1.27 18.31,1 5.36,-0.269 9.92,-0.949 13.68,-2.007" style="fill:#111011;fill-opacity:1;fill-rule:nonzero;stroke:none" transform="matrix(0.133333, 0, 0, -0.133333, 0, 688.200012)"/>
  <path id="path144" d="m 3415.07,164.059 7.65,-2.411 c -0.81,-2.679 -2.08,-6.168 -3.83,-10.457 -1.75,-4.289 -5.22,-11.871 -10.46,-22.742 -5.23,-10.859 -10.46,-20.32 -15.69,-28.367 -5.23,-8.0507 -11.47,-15.0898 -18.72,-21.1211 -7.24,-6.039 -14.22,-8.3906 -20.92,-7.039 -7.79,1.5976 -13.95,9.3789 -18.51,23.3398 -4.57,13.9373 -7.52,28.8283 -8.86,44.6603 -1.34,15.828 -3.76,30.187 -7.24,43.058 -3.49,12.879 -8.19,19.321 -14.09,19.321 -4.82,0 -8.58,-5.371 -11.27,-16.102 -2.68,-10.73 -4.96,-23.679 -6.83,-38.828 -1.89,-15.16 -4.43,-30.332 -7.65,-45.469 -3.22,-15.1715 -9,-27.9723 -17.31,-38.4411 -8.32,-10.4609 -19.05,-15.5625 -32.19,-15.289 -8.59,-0.2735 -15.49,4.7578 -20.73,15.0898 -5.23,10.3281 -8.59,23.9492 -10.05,40.8403 -1.49,16.91 -2.22,35.878 -2.22,56.949 0,21.058 0.94,42.32 2.81,63.789 1.88,21.461 3.43,42.051 4.63,61.769 1.21,19.723 2.28,36.422 3.22,50.102 0.94,13.68 0.61,23.34 -1,28.98 1.87,0.528 4.35,1 7.44,1.411 3.08,0.398 8.46,0.269 16.1,-0.411 7.65,-0.671 14.29,-2.41 19.92,-5.222 5.64,-2.828 10.6,-8.199 14.89,-16.11 4.28,-7.91 5.89,-18.039 4.83,-30.379 -4.57,-59.558 -7.38,-109.46 -8.46,-149.699 10.2,48.02 25.09,72.039 44.68,72.039 10.46,0 18.58,-7.32 24.35,-21.941 5.76,-14.629 9.19,-30.789 10.26,-48.488 1.07,-17.711 2.88,-34.352 5.43,-49.911 2.55,-15.558 6.37,-24.0112 11.47,-25.3511 6.17,-1.6094 14.09,3.6328 23.75,15.7031 9.65,12.07 17.84,24.547 24.55,37.418 l 10.05,19.309" style="fill:#111011;fill-opacity:1;fill-rule:nonzero;stroke:none" transform="matrix(0.133333, 0, 0, -0.133333, 0, 688.200012)"/>
</svg>