<?xml version="1.0" encoding="UTF-8" standalone="no"?>
<!-- Created with Inkscape (http://www.inkscape.org/) -->

<svg
   version="1.1"
   id="svg2"
   xml:space="preserve"
   width="4000"
   height="4000"
   viewBox="0 0 4000 4000"
   xmlns="http://www.w3.org/2000/svg"
   xmlns:svg="http://www.w3.org/2000/svg"><defs
     id="defs6" /><g
     id="g8"
     transform="matrix(1.3333333,0,0,-1.3333333,0,4000)"><g
       id="g10"
       transform="scale(0.1)"><path
         d="M 30000,0 H 0 V 30000 H 30000 V 0"
         style="fill:#ffffff;fill-opacity:1;fill-rule:nonzero;stroke:none"
         id="path12" /><path
         d="m 1935.46,2425.2 c 0,-3.8 0,-9.5 0,-13.3 221.09,154.4 358.32,581.3 242.05,588.9 -121.98,7.6 -224.9,-482.2 -242.05,-575.6 z M 2352.87,2288 c -7.63,162 -283.99,87.7 -423.13,-28.6 -3.81,-215.4 5.72,-390.7 41.93,-411.7 0,0 390.73,162 381.2,440.3 z m 0,-291.6 c -131.52,-158.2 -322.11,-266.9 -594.67,-266.9 -339.26,-9.5 -72.42,1360.9 -125.79,1553.4 0,0 365.94,82 337.36,-270.6 -3.82,-51.5 -7.63,-110.6 -11.44,-175.4 62.9,135.3 158.19,259.2 285.89,244 184.89,-24.8 116.27,-345 -81.95,-585.2 30.49,7.7 64.8,11.5 101.02,11.5 287.8,0 270.65,-291.6 89.58,-510.8"
         style="fill:#100f0d;fill-opacity:1;fill-rule:nonzero;stroke:none"
         id="path14" /><path
         d="m 2857.9,2209.8 c 123.88,-7.6 171.53,53.4 190.59,91.5 13.34,26.7 28.59,110.6 -45.74,112.5 -22.87,1.9 -108.64,7.6 -144.85,-204 z m 577.51,181.1 c -322.11,-600.4 -960.62,-771.9 -865.32,-202 57.18,343.1 369.76,360.2 466.97,329.7 76.24,-24.8 144.85,-118.2 60.99,-253.5 -57.18,-93.4 -179.16,-104.8 -247.78,-102.9 -51.46,-459.3 480.31,122 547.02,259.2 l 38.12,-30.5"
         style="fill:#100f0d;fill-opacity:1;fill-rule:nonzero;stroke:none"
         id="path16" /><path
         d="m 3690.76,2838.8 c 0,11.5 13.34,160.1 -51.46,253.5 -9.53,-125.8 -20.97,-291.6 -28.59,-457.4 36.21,49.5 68.61,114.3 80.05,203.9 z m -223,-996.8 c -5.72,-1.9 -11.44,-1.9 -19.06,-1.9 -1.91,0 -1.91,0 -1.91,0 -234.43,1.9 -116.26,1216 -112.45,1261.7 17.15,169.7 22.87,272.6 106.73,268.8 1.91,0 64.81,0 131.52,-45.8 40.02,-26.6 72.42,-62.9 101.01,-106.7 32.41,-55.3 55.28,-122 66.71,-200.1 20.97,-137.2 5.72,-259.2 -49.55,-360.2 -24.78,-45.8 -55.28,-83.9 -83.87,-112.5 -5.71,-139.1 -7.62,-270.7 -5.71,-373.6 7.62,-118.1 17.15,-135.3 93.39,-85.7 177.26,112.4 278.27,314.4 278.27,314.4 l 53.37,-20.9 c -9.53,-34.3 -253.5,-436.5 -495.55,-524.2 -20.97,-9.5 -43.84,-13.3 -62.9,-13.3"
         style="fill:#100f0d;fill-opacity:1;fill-rule:nonzero;stroke:none"
         id="path18" /><path
         d="m 4239.66,2307.1 c 3.81,38.1 7.62,74.3 13.34,108.6 -57.18,0 -232.53,-11.4 -236.34,-143 -5.72,-139.1 139.14,-57.1 223,34.4 z m 720.46,152.4 c 0,0 -186.79,-638.5 -577.51,-638.5 -150.57,0 -169.64,162 -158.2,345 -64.8,-62.9 -152.48,-125.8 -282.09,-104.8 -196.31,34.3 -152.47,293.5 13.35,396.4 121.98,76.3 249.68,64.8 306.86,55.3 3.81,51.5 3.81,97.2 -3.81,127.7 0,0 324.01,72.4 299.23,-242.1 -22.87,-314.4 -7.62,-487.9 114.36,-352.6 173.45,194.4 224.91,413.6 224.91,413.6 h 62.9"
         style="fill:#100f0d;fill-opacity:1;fill-rule:nonzero;stroke:none"
         id="path20" /><path
         d="m 5724.33,2425.2 c 0,-3.8 0,-9.5 0,-13.3 221.09,154.4 358.32,581.3 242.06,588.9 -121.99,7.6 -224.91,-482.2 -242.06,-575.6 z M 6141.74,2288 c -7.62,162 -283.99,87.7 -423.13,-28.6 -3.81,-215.4 5.72,-390.7 41.93,-411.7 0,0 390.73,162 381.2,440.3 z m 0,-291.6 c -131.52,-158.2 -322.11,-266.9 -594.66,-266.9 -339.27,-9.5 -72.43,1360.9 -125.8,1553.4 0,0 365.95,82 337.36,-270.6 -3.82,-51.5 -7.63,-110.6 -11.44,-175.4 62.9,135.3 158.2,259.2 285.9,244 184.88,-24.8 116.26,-345 -81.96,-585.2 30.5,7.7 64.8,11.5 101.02,11.5 287.8,0 270.65,-291.6 89.58,-510.8"
         style="fill:#100f0d;fill-opacity:1;fill-rule:nonzero;stroke:none"
         id="path22" /><path
         d="m 6776.37,2307.1 c 3.82,38.1 7.62,74.3 13.34,108.6 -57.18,0 -232.53,-11.4 -236.34,-143 -5.71,-139.1 139.14,-57.1 223,34.4 z m 720.46,152.4 c 0,0 -186.79,-638.5 -577.51,-638.5 -150.57,0 -169.63,162 -158.2,345 -64.8,-62.9 -152.47,-125.8 -282.08,-104.8 -196.32,34.3 -152.48,293.5 13.34,396.4 121.99,76.3 249.69,64.8 306.86,55.3 3.82,51.5 3.82,97.2 -3.81,127.7 0,0 324.02,72.4 299.24,-242.1 -22.87,-314.4 -7.62,-487.9 114.36,-352.6 173.44,194.4 224.91,413.6 224.91,413.6 h 62.89"
         style="fill:#100f0d;fill-opacity:1;fill-rule:nonzero;stroke:none"
         id="path24" /><path
         d="m 8192.5,2366.1 c -15.25,-45.7 -188.7,-819.5 -558.46,-802.4 -253.49,11.5 -116.26,543.2 -87.67,817.7 -423.13,9.5 -264.93,169.6 -304.96,301.1 0,0 276.37,118.2 257.31,-123.9 -3.81,-51.4 80.05,-49.5 81.96,-49.5 81.95,5.7 285.89,-7.6 255.4,-259.2 -40.03,-312.6 -93.39,-630.9 57.18,-468.9 150.57,160.1 238.24,613.7 238.24,613.7 0,0 76.24,17.2 61,-28.6"
         style="fill:#100f0d;fill-opacity:1;fill-rule:nonzero;stroke:none"
         id="path26" /><path
         d="m 8827.18,2423.3 c 0,0 -247.78,-688 -621.35,-659.5 -188.69,7.7 -167.73,585.2 -141.04,1040.7 -22.88,-1.9 -43.84,-1.9 -62.9,-3.8 -20.97,0 -41.93,0 -60.99,-1.9 -38.12,0 -68.61,0 -89.58,0 -11.44,0 -20.97,0 -26.69,0 -5.71,0 -7.62,0 -7.62,0 l -5.72,59.1 c 0,0 3.81,0 9.53,1.9 5.72,0 13.35,1.9 24.78,3.8 20.97,3.8 51.46,7.6 89.58,13.3 17.15,1.9 38.12,5.8 59.09,7.7 20.96,3.8 43.83,5.7 66.71,7.6 3.81,1.9 5.71,1.9 7.62,1.9 13.34,209.6 22.87,381.2 9.53,434.6 0,0 324.01,72.4 299.24,-242.1 -1.91,-45.8 -5.72,-104.8 -9.53,-167.7 17.15,0 36.21,1.9 53.37,1.9 20.96,1.9 40.02,1.9 59.08,1.9 19.06,0 36.21,1.9 51.46,1.9 15.25,0 28.59,0 40.03,0 20.96,0 34.3,0 34.3,0 l 3.82,-59.1 c 0,0 -11.44,-3.8 -32.4,-7.6 -11.44,-1.9 -24.79,-3.8 -40.03,-5.7 -15.25,-1.9 -32.4,-5.8 -49.55,-7.7 -19.07,-1.9 -40.03,-5.7 -61,-7.6 -19.06,-1.9 -41.93,-5.7 -62.9,-7.6 -5.71,-102.9 -9.52,-219.2 -11.43,-331.7 1.91,-333.5 -19.06,-640.4 129.61,-518.4 125.79,101 303.04,474.6 303.04,474.6 l 41.94,-30.5"
         style="fill:#100f0d;fill-opacity:1;fill-rule:nonzero;stroke:none"
         id="path28" /><path
         d="m 9097.78,2430.9 c 3.82,-7.6 9.53,-13.3 15.25,-19 9.53,-9.5 19.06,-17.2 32.4,-22.9 5.72,-3.8 13.34,-7.6 20.97,-9.5 7.62,-1.9 15.25,-5.7 24.78,-5.7 15.25,-3.8 30.49,-5.8 45.74,-5.8 -7.62,43.9 -26.68,76.3 -57.18,85.8 -24.77,7.6 -53.36,-1.9 -81.96,-22.9 z m 123.89,-234.4 c 7.63,21 11.44,40 15.25,61 -19.06,-1.9 -40.03,-3.8 -59.08,-1.9 -13.34,1.9 -26.69,1.9 -40.03,5.7 -13.34,1.9 -26.68,5.7 -40.03,9.5 -24.77,7.7 -47.64,21 -66.71,34.3 -5.71,3.9 -11.43,7.7 -15.24,11.5 -7.63,-15.3 -13.34,-32.4 -19.06,-47.7 -38.12,-121.9 -19.06,-238.2 41.93,-257.3 62.9,-19 144.85,62.9 182.97,184.9 z m 461.25,257.3 c 0,0 -9.53,-7.6 -26.68,-19 -3.81,-3.9 -9.54,-5.8 -15.25,-9.6 -5.72,-3.8 -11.44,-7.6 -17.16,-11.4 -5.71,-3.8 -13.34,-7.6 -19.05,-11.4 -7.63,-5.8 -15.25,-9.6 -22.88,-15.3 -7.62,-3.8 -17.15,-7.6 -24.78,-13.3 -7.62,-5.8 -17.15,-9.6 -26.68,-15.3 -3.81,-1.9 -9.53,-5.7 -13.34,-7.6 -3.81,-1.9 -5.72,-1.9 -7.62,-3.8 -1.91,-1.9 -5.72,-1.9 -7.63,-3.8 -5.72,-1.9 -9.53,-3.8 -15.24,-7.7 -5.72,-1.9 -9.53,-3.8 -15.25,-7.6 -20.97,-9.5 -43.84,-19 -66.71,-28.6 -22.87,-9.5 -45.74,-17.1 -70.52,-24.8 -11.44,-1.9 -20.97,-5.7 -30.5,-7.6 -3.81,-22.8 -9.53,-45.7 -17.15,-68.6 -62.9,-198.2 -238.25,-320.2 -392.63,-270.6 -154.39,47.6 -226.81,247.7 -163.92,447.9 62.9,198.2 238.25,318.3 392.63,270.6 106.74,-34.3 175.36,-144.8 184.88,-274.4 1.91,0 3.81,0 5.72,0 20.97,3.8 43.84,7.6 64.8,13.3 20.97,3.8 43.84,11.4 62.9,17.2 5.72,1.9 11.43,3.8 15.25,5.7 5.72,1.9 11.43,3.8 15.25,3.8 3.81,1.9 5.72,1.9 7.62,3.8 1.91,0 5.72,1.9 7.63,1.9 3.81,1.9 9.52,3.8 13.34,5.7 9.53,3.8 19.05,7.6 28.59,11.5 7.62,1.9 17.15,5.7 24.78,9.5 7.62,3.8 15.24,7.6 22.87,9.5 7.62,3.8 15.24,7.6 20.96,9.5 5.72,3.9 13.34,5.8 17.16,9.6 5.71,1.9 11.43,3.8 17.15,5.7 17.15,9.5 28.59,15.2 28.59,15.2 l 22.87,-40"
         style="fill:#100f0d;fill-opacity:1;fill-rule:nonzero;stroke:none"
         id="path30" /><path
         d="m 9875.4,2288 c 102.92,139.1 158.2,284 87.67,282.1 -55.27,0 -66.71,-131.5 -87.67,-282.1 z m 560.4,175.3 c 0,0 -131.6,-548.9 -427,-548.9 -129.59,-7.6 -181.05,141.1 -181.05,141.1 -36.21,-122 -101.02,-219.2 -223,-215.4 -301.14,-7.6 -62.9,1332.3 -110.55,1503.8 0,0 324.02,72.4 301.15,-240.2 -13.34,-169.6 -34.31,-465 -40.03,-709 36.22,169.7 99.11,341.2 209.66,341.2 207.72,0 171.52,-324 -78.14,-547 0,-13.4 -1.91,-211.6 133.46,-211.6 249.6,0 383.1,503.2 383.1,503.2 l 32.4,-17.2"
         style="fill:#100f0d;fill-opacity:1;fill-rule:nonzero;stroke:none"
         id="path32" /><path
         d="m 14908.9,3232.4 c -131.6,104.1 -270.9,196.7 -417.6,278.4 -86.8,48.4 -173.1,97.7 -257.8,149.6 -516.2,316.4 -1030.2,636.5 -1548.4,949.6 -422.1,255 -848.6,503 -1259.6,776 -47.5,31.5 -96.5,61.6 -140,98.2 -104.2,87.7 -111.9,63.5 -89.5,224.1 23.9,171 58.7,340.7 93.1,510.1 42.2,207.3 85.8,414.4 153.5,615.5 14.1,41.7 24.4,84.8 33.4,127.9 6.9,33.4 17.2,60.8 46,83.8 42.9,34.3 54.8,81.2 32.9,134 -4.2,10.2 -7,20.9 -10.5,31.4 -16.1,47.6 -45.6,62.1 -93.9,46.4 -22.7,-7.4 -45.1,-15.7 -68.1,-21.5 -114,-28.9 -228.6,-55.8 -342.3,-85.9 -108.4,-28.7 -215.7,-61.9 -324.2,-90.6 -108.4,-28.7 -217.5,-55.1 -326.8,-80.7 -50,-11.7 -101,-19.4 -151.8,-28 -39.9,-6.8 -72.3,6.2 -95.8,40.1 -18.8,27.2 -39.6,53.2 -57.4,81.1 -103.83,162.9 -209.82,324.6 -309.84,489.9 -215.32,355.9 -427.23,713.8 -641.12,1070.5 -36.89,61.5 -75.07,122.4 -115.7,181.5 -22.77,33.1 -49.53,64.3 -78.53,92.1 -48.48,46.6 -104.88,55.3 -168.08,28.4 -91.39,-38.9 -183.78,-75.4 -275.95,-112.5 -178.46,-71.7 -364.34,-115.1 -553.52,-147.2 -40.15,-6.8 -63.78,6.1 -90.34,33.8 -58.42,61.1 -119.59,119.7 -182.71,175.9 -37.47,33.4 -70.62,35.4 -94.78,16.2 -25.6,-20.4 -29.18,-56.9 -2.22,-100.6 30.82,-50 64.21,-98.9 101.01,-144.7 199.77,-248.3 381.84,-509.5 567.23,-768.4 204.68,-285.8 406.54,-573.9 620.91,-852.3 270.53,-351.4 552.57,-694 829.4,-1040.5 60.3,-75.5 138.99,-97.5 227.07,-67.7 69.18,23.4 137.47,53.9 200.17,91.4 276.5,165 553.1,330 801.8,537.2 74.5,62.1 157.5,114.1 236.5,170.7 3.4,-2.6 6.8,-5.2 10.1,-7.8 -5.1,-17.2 -9.3,-34.7 -15.4,-51.6 -51.6,-141.7 -102.1,-283.8 -155.5,-424.9 -141.3,-373.4 -284.3,-746 -425.4,-1119.5 -50.1,-132.4 -27.5,-223.2 78.4,-317.1 38.3,-34 81.5,-63 124.4,-91.4 155.8,-103 325.8,-179.1 496.6,-251.9 565.3,-240.9 1132.3,-477.7 1698,-717.5 443.8,-188.1 886.7,-378.3 1330.1,-567.4 144,-61.4 290.5,-115.5 444.9,-145.8 46.7,-9.2 93.1,-21 138.6,-34.9 52.3,-15.9 97.8,-6.2 124.3,31 27.2,38 23.4,90.8 -13.9,131.7 -24.6,27 -52.9,51.1 -81.7,73.9"
         style="fill:#b11d23;fill-opacity:1;fill-rule:nonzero;stroke:none"
         id="path34" /><path
         d="m 11781.7,18336.2 c -16.2,-34.8 -28.9,-71.6 -39.8,-108.5 -88.1,-297.1 -139.1,-602 -187.3,-907.2 -39.9,-252.5 -74.3,-505.9 -109.1,-759.1 -20,-145.7 -35.9,-291.9 -53.7,-437.8 -4.9,-143.7 42.8,-268.6 120,-385.4 90.1,-136.4 201.7,-253 328.1,-355.6 150,-121.8 299.1,-244.7 452.6,-361.9 415.5,-317 820.8,-646.7 1222,-981.5 26.8,-22.4 51.1,-48 79.1,-68.6 59.5,-43.9 136,-15.5 148.6,57.2 5.2,29.4 1,63 -8.3,91.7 -19.1,59.4 -41.4,118.2 -67.8,174.7 -115.7,248.4 -233.1,496.1 -350.4,743.8 -86.7,183.1 -201.5,346.3 -348.4,486.3 -86.6,82.5 -174.7,163.3 -260.8,246.3 -127.1,122.5 -255.1,244.2 -379,370 -127,129 -204.1,286.1 -246,461.8 -49.1,206.1 -85.1,414.3 -109.8,624.6 -15.6,133.3 -26.7,267.2 -44.9,400.2 -8.4,61.4 -24.1,122.8 -45.6,180.9 -10.8,29 -16.1,53.3 -11.1,83.6 22.3,134.2 42.6,268.8 62.9,403.3 2.7,18 4.1,37.1 0.8,54.8 -10.1,54.7 -65.3,76.8 -109.2,42.4 -18,-14.1 -33.1,-35 -42.9,-56"
         style="fill:#b11d23;fill-opacity:1;fill-rule:nonzero;stroke:none"
         id="path36" /><path
         d="m 19897.3,21333.8 c -44,25.3 -93.6,43.4 -142.9,56.7 -112.2,30.3 -227.3,46.1 -343.6,47 -167.5,1.2 -335,2.3 -502.4,-1.7 -152.5,-3.6 -305.7,-7 -457.2,-23 -304,-32.2 -519.6,-221 -573.1,-530.7 -29.5,-171.1 -41.8,-343.1 -39.6,-516.2 0,-73.6 -2.8,-147.3 0.7,-220.7 4.5,-94.3 22.2,-187.1 64.8,-272 23.7,-47.2 53.4,-92.8 88,-132.5 52.4,-60.5 124.2,-62.2 186.5,-12.5 11.4,9.1 23.6,17.3 36.3,24.4 75.4,42.1 153.5,80 226.2,126.3 408.2,260 810.8,528.6 1203.1,812.1 82,59.3 160.9,122.8 239.7,186.3 46.1,37.1 84.6,81.8 110.1,136.3 57.5,122.9 20.6,252.5 -96.6,320.2"
         style="fill:#b11d23;fill-opacity:1;fill-rule:nonzero;stroke:none"
         id="path38" /><path
         d="m 15182.5,10754.6 c -52.5,30.4 -105,61.2 -159.4,87.9 -185,90.6 -370.8,179.6 -556.3,269.1 -36.6,17.6 -71.1,35.3 -84.5,79.8 -5.2,17.5 -24.2,32.1 -39.3,45.1 -36.3,31.2 -72.6,62.6 -111.3,90.5 -236.2,169.8 -463.2,351.4 -691.4,531.6 -271.4,214.5 -547.3,423.6 -802.4,657.9 -32.2,29.5 -60.7,63.9 -86.9,99 -40.7,54.7 -80.2,109.3 -136.2,150.8 -29,21.5 -51.8,51.2 -77.7,77.4 39.2,30.8 41.6,39.9 20.4,77.8 -8.9,16 -19.7,31.1 -30.1,46.2 -63.5,92.6 -127.6,184.7 -190.2,277.9 -10.5,15.8 -16.8,35.4 -21.1,54.1 -7.6,33.6 -7.4,69.7 -19.2,101.5 -21.1,56.8 -47.7,111.6 -73.9,166.3 -205.1,428 -410.5,855.8 -616.3,1283.5 -19.1,39.7 -40.2,78.6 -61.9,117 -22.5,39.8 -43.8,44.6 -80.2,20.6 -59.2,-38.9 -70.4,-64.9 -54.8,-134.7 7,-31.2 17.2,-61.6 27.7,-98.7 -27.3,22.5 -47.3,41.3 -69.7,56.7 -19.2,13.2 -41.8,16.5 -61.7,0.4 -18,-14.5 -18.4,-34.9 -13,-55.6 3.8,-14.2 8.1,-28.3 12.9,-42.2 6.3,-18.4 8.5,-34.5 -8.7,-49.9 -17.9,-16.2 -19.2,-37.9 -14.9,-61.3 2.2,-11.5 0.9,-25.8 -4.3,-36.1 -17.2,-34.5 -12.5,-68.2 0.5,-101.6 9.2,-23.8 21.2,-46.4 33.9,-73.8 -40.9,-22.4 -40.2,-59.4 -28.2,-100.6 -12.2,6.2 -18.8,12.1 -25.5,18.1 -20.7,18.2 -40,38.2 -62.3,54.1 -22.8,16.3 -49,17.9 -71.5,-1.6 -21.9,-19 -27.1,-44.1 -14.9,-70.2 10.9,-23.1 23.4,-45.9 37.9,-66.9 23,-33.1 48.2,-64.7 71.6,-95.8 -23.2,-50.2 -24.8,-54.3 4.7,-97.9 37.1,-54.8 76.1,-108.5 116.6,-160.8 224,-289.6 451.4,-576.7 672.5,-868.5 203.5,-268.5 405,-538.3 626.6,-792.2 197.7,-226.5 410,-437.7 657.4,-611.3 227.8,-159.9 464.8,-304.4 711.3,-433.3 341.3,-178.5 695.3,-328 1055.9,-462.5 55.1,-20.6 110.3,-41.1 166,-60.1 17,-5.9 35.8,-8.4 53.9,-9.2 21.8,-0.9 38.7,9.4 48.6,30 10,20.9 5.5,40.6 -8.5,56.5 -11.9,13.6 -26.5,26 -42.1,35"
         style="fill:#b11d23;fill-opacity:1;fill-rule:nonzero;stroke:none"
         id="path40" /><path
         d="m 16541.8,19738 c 45.3,57.2 83.9,121.1 117.1,186.3 47,92.5 59.3,192.4 42.4,295.7 -18.2,110.9 -62.2,211.5 -120.1,306.4 -70.1,115 -149.8,223.2 -242,321.5 -94.4,100.8 -191.3,199.1 -285.8,299.8 -85.5,91.1 -187.1,116.1 -301,68.6 -72.6,-30.1 -144.6,-65.7 -209.2,-110 -112.2,-76.9 -219.7,-160.9 -326.6,-245.2 -54.7,-43.1 -105.6,-91.5 -154.3,-141.3 -22.2,-22.8 -41.4,-30.7 -72,-23.4 -50,12 -100.6,23.4 -151.6,28.5 -29.8,2.9 -63.8,-0.4 -90.7,-12.6 -41.5,-18.8 -39.2,-68.7 0.2,-91.6 7.9,-4.6 16.5,-8.3 25.2,-11.1 117.3,-37.7 233.2,-80.5 352.2,-111.1 141.5,-36.3 279.5,-77.4 406.4,-152.6 105.5,-62.6 157.2,-151.2 152.6,-273.4 -3.5,-120.3 -29.7,-236.8 -60.4,-352.6 -42.9,-161.9 -90.2,-322.9 -109.4,-489.8 -5.1,-44.9 -3.4,-92.5 5.8,-136.6 16.4,-78.7 80.7,-123.4 161.5,-122.4 53.9,0.7 101.6,20.5 143.2,51.7 76.5,57.4 154.2,114 224.6,178.3 179.7,164.3 340.9,346.3 491.9,536.9"
         style="fill:#b11d23;fill-opacity:1;fill-rule:nonzero;stroke:none"
         id="path42" /><path
         d="m 18355.7,11310.1 c -38.3,3.8 -77.4,8.5 -115.4,5.1 -190.4,-16.8 -382.3,-26 -570.6,-56.6 -546.6,-89 -1056.8,-282.8 -1534.9,-561.3 -61.6,-35.9 -118.2,-80.9 -175.7,-123.5 -18.9,-14 -35.4,-32.5 -49.5,-51.5 -20.1,-27.2 -19.3,-55.8 -2.2,-76.5 17.4,-21.2 42.3,-25.8 75.3,-11.4 25,10.9 48.9,24.4 77.8,39.1 30.9,-46.7 80.1,-56.8 129.7,-61.3 69.4,-6.3 139.2,-11.7 208.8,-11.8 93.8,-0.2 187.5,4.9 281.3,7.9 284.9,9.4 569.7,19.3 854.6,28 78.9,2.4 157.9,-0.9 236.7,2.6 37.9,1.7 75.3,13.1 112.9,20.4 19.6,3.8 39,11.6 58.5,11.7 80.6,0.4 152.6,23.3 211.8,78.7 120.6,113 240.7,226.5 360,340.8 33.7,32.3 55.5,73.1 67.2,118.7 10.8,42.2 10.8,84.2 -6.1,124.6 -41.3,98.4 -109,165.3 -220.2,176.3"
         style="fill:#b11d23;fill-opacity:1;fill-rule:nonzero;stroke:none"
         id="path44" /><path
         d="m 9982.08,18133 c 113.72,-139.5 228.12,-278.4 343.02,-418.6 67.3,13 107.7,48.3 132.1,101.2 12.2,26.5 19.2,55.5 27.3,83.7 23.3,81.3 42.4,164 69.4,244.1 193.9,576.3 422.9,1137.9 693.2,1683.1 160.1,323 310.9,650.8 461.7,978.4 41.4,89.8 69.6,185.8 100.2,280.1 9.3,28.9 9.6,61.8 8.2,92.6 -0.8,16.1 -10.6,37.3 -23.3,46 -19.7,13.4 -39.2,-2.7 -52.2,-18.4 -27,-32.4 -55.6,-64.4 -77,-100.4 -101.8,-170.6 -201.8,-342.4 -301.6,-514.2 -16,-27.7 -30.3,-50.5 -67.4,-56.2 -23.1,-3.6 -47,-21.6 -64.5,-39.2 -31.1,-31 -60.1,-64.9 -85.6,-100.8 -57.5,-81 -115.3,-162 -167.9,-246.3 -261.8,-420.1 -523.3,-840.4 -782.1,-1262.4 -91.4,-148.9 -175.6,-302.2 -261.47,-454.5 -21.58,-38.3 -37.13,-80 -54.83,-120.4 -9.71,-22.2 -5.73,-40.8 11.06,-60.4 32.28,-37.7 60.34,-78.9 91.72,-117.4"
         style="fill:#b11d23;fill-opacity:1;fill-rule:nonzero;stroke:none"
         id="path46" /><path
         d="m 16566.3,16368.1 c 51.2,-181 121.9,-354.6 183.8,-531.5 3,-8.6 7.8,-16.8 13.1,-24.2 26.1,-36.2 61.3,-52.3 105.5,-43.6 42.4,8.3 68.6,35.8 76.9,77.1 4.5,22.9 3.4,47.5 1.6,71 -10.7,135.7 -23,271.2 -33,406.9 -1.6,20.9 0.3,45.9 10.5,63 19.2,32 23.5,65 23.6,100.3 0.1,79.1 -1.2,158.3 1.3,237.3 7.1,217 15.5,433.9 24.1,650.7 2.3,56.9 -7.8,106.8 -68.9,138.6 7.6,34.8 13.7,65.2 20.8,95.4 47.6,204.1 96.8,407.9 142.2,612.5 11.4,51.5 13.6,105.6 15,158.6 0.7,28.9 -16.2,53.2 -47.1,61 -30.6,7.7 -55.2,-5.2 -70.7,-30.8 -16.1,-26.6 -31.5,-54.5 -41.4,-83.7 -49.9,-146.2 -101,-292 -145.8,-439.7 -96.6,-319.2 -149.7,-648.4 -220.4,-973.6 -39.7,-182.7 -42.8,-362.7 8.9,-545.3"
         style="fill:#b11d23;fill-opacity:1;fill-rule:nonzero;stroke:none"
         id="path48" /><path
         d="m 8843.74,18032.9 c 7.72,-65.6 22.01,-130.6 25.72,-196.3 4.13,-72.9 14.92,-141.9 60.65,-200.8 -51.58,-49.4 -51.46,-49.3 -28.13,-118.2 2.29,-6.7 1.42,-14.5 2.99,-21.6 7.68,-34.8 23.23,-51.2 59.33,-54.2 25.35,-2.1 51.62,-0.3 76.79,3.9 90.54,15.2 180.8,32 276.28,49.1 5.71,-19 10.26,-31 12.84,-43.3 28.72,-137.7 81.46,-267.3 132.52,-397.5 28.55,-72.8 78.55,-123.3 149.69,-153.7 21.98,-9.4 44.09,-18.6 66.58,-26.7 72.7,-26.2 145.39,-52.4 218.53,-77.3 46.96,-16 83.47,-42.7 111.47,-84.8 36.7,-55.1 77.7,-107.3 117.8,-160.1 12.1,-15.9 25.8,-31.7 41.6,-43.7 36.9,-28 88.5,-28.1 124,-2.9 36.6,25.9 51.6,71.1 36.5,117.8 -40.1,124 -129.3,211.5 -223.2,294.5 -16.9,14.9 -43.4,19 -65.4,28.2 -120.49,50.2 -241.48,99.3 -361,151.8 -19.69,8.7 -39.87,29.2 -47.94,49.1 -40.82,100.6 -78.1,202.5 -115.67,304.4 -9.11,24.6 -11.77,50.3 7.17,73.1 44.23,53.2 44.22,120.5 48.02,182.5 4.93,80.5 -10.31,161.3 -35.44,239 -21.05,65.1 -62.91,113.1 -125.64,138.7 -42.21,17.2 -87.03,30.2 -131.91,38.2 -89.15,16 -176.38,37 -259.85,72.6 -15.19,6.5 -30.79,12.4 -46.69,16.8 -69.55,19.3 -122.01,-13.6 -130.8,-85.3 -3.74,-30.6 -0.45,-62.5 3.19,-93.3"
         style="fill:#b11d23;fill-opacity:1;fill-rule:nonzero;stroke:none"
         id="path50" /><path
         d="m 20851.8,19421.4 c -7.5,119.3 -12.5,238.7 -21.5,357.9 -1.6,22.2 -12.1,48 -27.2,63.9 -27.4,29.1 -57.6,60.1 -93.1,76.1 -85.3,38.3 -174,69.5 -262.1,101.1 -29.2,10.5 -60.7,15.5 -91.6,20 -56.7,8.2 -112.8,-29.1 -135.1,-83.8 -14.8,-36.2 -1,-94.5 50.8,-120.9 4.8,-2.4 9,-6.2 11.3,-7.9 -5.8,-58 -0.1,-73.8 47.6,-95.8 44.9,-20.7 91.7,-38.9 139.3,-52 39.3,-10.7 64.6,-32.7 81.8,-67.3 8.2,-16.5 16.6,-32.9 23.8,-49.8 49.5,-115.9 98.7,-232 151.7,-356.8 35.7,48.9 63,92.4 96.6,130.4 23,26.1 29.7,52.2 27.7,84.9"
         style="fill:#b11d23;fill-opacity:1;fill-rule:nonzero;stroke:none"
         id="path52" /><path
         d="m 7777.97,17857.3 c 12.24,3 24.95,8.2 34.9,15.7 68.9,52.2 138.09,104.2 204.98,158.9 19.3,15.8 31.87,40.1 46.6,61.1 15.5,22.1 29.91,45 47.04,70.9 18.08,-51.2 33.74,-95.5 51.34,-145.3 -1.95,-5.4 -7.92,-17.2 -10.33,-29.6 -9.26,-48 17.99,-85.5 66.71,-87.3 23.09,-0.8 48.09,3.9 69.41,12.8 30.29,12.7 59.37,29.6 86.52,48.3 68.17,46.9 110.86,110.7 121.71,200 14.52,-1.1 25.34,-2.9 36.07,-2.5 86.25,3.3 172.67,4.7 258.64,11.7 39.25,3.1 59.67,27.3 60.21,54.1 0.55,27.1 -18.13,47.2 -58.58,55.5 -35.92,7.4 -72.67,12.1 -109.28,14.5 -83.28,5.6 -165.79,1.1 -243,-34.8 -18,-8.4 -30.6,-3.3 -46.35,3.3 -14.1,5.9 -34.53,14.6 -44.78,8.9 -63.98,-35.8 -138.97,-9.6 -199.51,-44.8 -40.03,60.9 -61.57,68.7 -109.23,37.9 -118.36,-76.5 -222.63,-168.8 -305.63,-283.5 -11.68,-16.1 -22.16,-34.4 -27.8,-53.3 -14.53,-48.8 20.99,-84.7 70.36,-72.5"
         style="fill:#b11d23;fill-opacity:1;fill-rule:nonzero;stroke:none"
         id="path54" /><path
         d="m 13126.7,18961.7 c 7.3,0.6 14.7,1.6 21.8,3.4 137.9,35.9 250.1,114 345.7,216.6 41.4,44.5 35.3,86.6 -9.4,129.4 -3.9,3.7 -7.3,7.9 -13.7,15.1 7.4,26.1 14.2,48.9 20.4,71.9 4.4,15.9 9.7,31.9 11.7,48.1 4.8,39.8 -18.1,73.1 -52.5,78.7 -33.4,5.5 -63,-14.4 -74.5,-51.1 -3.3,-10.4 -6.3,-21.7 -5.8,-32.4 1.5,-33.3 -14.6,-58.6 -31.1,-85.9 -43.4,-71.2 -92.3,-133.1 -167.4,-176.7 -44.3,-25.6 -77.6,-71.9 -111.8,-112.4 -18.7,-22 -19.1,-51.3 -1.4,-77.3 16.5,-24.1 40.9,-29.5 68,-27.4"
         style="fill:#b11d23;fill-opacity:1;fill-rule:nonzero;stroke:none"
         id="path56" /><path
         d="m 17206.9,8232.7 c -30.9,-11.3 -62.6,-24.2 -89.1,-43.2 -95.7,-68.4 -191,-137.6 -283.5,-210.3 -200.1,-157 -412.2,-296.9 -622.6,-439.1 -56.2,-38 -116.2,-71 -176.3,-102.8 -103.4,-54.6 -206.9,-57.8 -309.7,5.2 -117.6,72.1 -239,138.3 -354.2,214.1 -451.7,297.1 -868.4,638.8 -1267.1,1002.9 -174,158.8 -346.8,318.9 -514.9,483.8 -210.3,206.1 -417.8,415.2 -621.6,627.7 -188.5,196.5 -371.4,398.3 -555.1,599.3 -168.8,184.7 -337.9,369.3 -502.2,557.9 -199.3,228.9 -398.8,458 -589.2,694.3 -330.2,409.5 -619.1,846.7 -852.4,1319.2 -35.9,72.6 -72,145.1 -108.5,217.4 -9.9,19.7 -20.1,39.5 -32.7,57.5 -13.9,19.7 -31.1,39.6 -59.1,30.4 -24.8,-8.3 -29.3,-31.9 -29.5,-54.5 -0.1,-27.5 0.5,-55.3 4.7,-82.4 4.7,-30.8 10.5,-62.2 21.5,-91.2 30.3,-79.7 31.3,-161.9 26.7,-244.9 -1.7,-29.4 -7,-58.6 -7.4,-88 -3,-195 -5.2,-390 -8,-611.1 2.1,-119.2 4.6,-264.5 7.2,-409.9 0.1,-5.5 0.5,-11 0.8,-16.5 6.9,-148.8 14.9,-297.6 20.4,-446.4 4.3,-116.6 34,-225.5 94.3,-325.1 31.4,-51.9 65.3,-102.6 101.7,-151.1 138.4,-184.5 302.6,-346.2 461.3,-512.6 119.3,-125.1 246.2,-242.9 369.6,-364.2 177.2,-174.4 362.1,-339.9 553.5,-498.6 279.3,-231.6 565.9,-453.4 866.3,-657 324.5,-220 650.7,-437.6 974.7,-658.3 216.1,-147 429.4,-298 644.4,-446.6 240.8,-166.4 482,-332 722.8,-498.2 19.6,-13.5 40,-26.9 56.7,-43.6 191.8,-193 411.8,-350.2 636.1,-501.8 35,-23.7 75.6,-40.2 107.4,-67.3 40.9,-34.8 86.1,-38.7 134.5,-34.5 43.6,3.9 63.1,24.6 76,67.6 8.8,29.5 20,59.1 35.4,85.5 59.2,101.8 121.3,201.9 181.1,303.4 94.3,160.4 192.6,317.9 307.2,465 38.3,49 70.5,103 102.9,156.3 33.3,54.8 60.7,112.3 113.4,154.2 118.1,93.9 234.4,190.1 349,288.1 44.5,38 85.9,80.9 122.6,126.4 32.4,40.3 30.7,86.4 6.7,118 -23.7,30.9 -68.3,42.3 -115.8,25"
         style="fill:#5fcbf5;fill-opacity:1;fill-rule:nonzero;stroke:none"
         id="path58" /><path
         d="m 11353.6,20735.4 c 88.4,146.5 174.9,294.1 260.2,442.4 16.2,28.1 27.4,61 32.8,93 11.7,68.6 -38.3,130 -106.8,134.2 -45.4,2.8 -81.9,-16.6 -109.5,-52.9 -63.6,-83.5 -124.8,-168.9 -191.3,-249.9 -155.4,-189 -312.7,-376.5 -470.4,-563.7 -231.3,-274.7 -447.3,-561.2 -658.2,-851.7 -7.9,-10.9 -17.4,-20.6 -26.2,-30.9 -2.6,21.1 1.2,38.6 7.2,55.3 56.3,157.7 113.6,315.1 169.5,473 83.5,235.9 166.5,472 249.1,708.3 18.9,54.1 30.9,109.6 28.6,167.7 -4.6,119.2 -106.2,177.6 -209.3,116.8 -36,-21.1 -69,-49.4 -98.4,-79.2 -206.7,-209.8 -412.59,-420.4 -617.56,-631.8 -60.15,-62.1 -116.34,-127.9 -174.67,-191.8 -34.14,-37.3 -68.92,-74.1 -103.4,-111.1 -2.37,1.3 -4.73,2.6 -7.09,3.9 3.13,11.9 5.42,24.1 9.52,35.7 50.35,142.3 103.48,283.6 150.81,426.9 47.88,144.9 91.15,291.4 133.86,437.9 8.53,29.3 9.28,62.2 6.94,93 -8.53,112.4 -99.42,178.4 -208.91,151.1 -37.01,-9.3 -74.01,-23.8 -106.94,-42.8 -50.81,-29.5 -99.91,-62.6 -146.61,-98.3 -421.26,-321.6 -841.38,-644.7 -1240.23,-994.4 -185.55,-162.7 -368.19,-328.2 -537.45,-507.8 -47.88,-50.9 -92.21,-105.1 -136.87,-158.9 -12.73,-15.3 -22.88,-33.6 -30.72,-52 -13.92,-32.6 -13.69,-65.6 13.4,-92.1 27.04,-26.4 59.87,-26 92.41,-11.6 16.68,7.5 32.71,17.3 47.21,28.4 21.77,16.7 44.38,21.4 71.98,19.2 60.52,-4.8 115.52,19.3 170,41.4 12.22,4.9 21.75,18.9 30.24,30.3 34.86,47.2 64.56,99 104,141.9 102.23,111.1 229.27,163 381.59,140.6 38.08,-5.6 75.01,-19.3 113.13,-24.2 109.31,-13.9 209.77,-56.3 309.34,-98.5 109.97,-46.6 215.33,-103.9 323.89,-154 94.3,-43.5 167.56,-112.5 236.6,-187 31.39,-33.9 50.88,-76 40.48,-121.4 -10.75,-46.9 6.13,-76.6 38.86,-105.5 37.75,-33.3 49.87,-75.6 52.59,-127.3 6.38,-121 21.33,-241.5 33.36,-362.2 5.82,-58.5 16.32,-116.7 18.6,-175.2 3.35,-86.2 27,-157.4 107.38,-203.8 48.91,-28.2 95.79,-61.5 110.2,-124 5.26,-22.8 27.91,-36.8 52.3,-30.3 30.98,8.2 53.08,-4.2 75.75,-21.4 16.11,-12.2 32.99,-23.6 50.47,-33.7 61.82,-35.8 109.73,-18.2 124.74,51.1 28.39,130.9 61.81,261.7 49.18,397.9 -0.28,3 3.17,6.4 5.77,11.2 5.27,2.5 11.57,7 18.51,8.4 82.5,17 129.34,72.1 158.74,146.6 9.5,24 20.5,47.4 31.9,70.5 184.7,375.4 395.2,736.2 626.5,1084.6 215.9,325 441.1,643.8 642.9,978.1"
         style="fill:#5fcbf5;fill-opacity:1;fill-rule:nonzero;stroke:none"
         id="path60" /><path
         d="m 23173.3,20288.3 c -34.9,66.6 -73.5,132 -117.6,192.8 -221.9,305.2 -441.2,612.1 -644,930.5 -221.6,347.9 -431.8,702.5 -614.1,1072.6 -115.5,234.4 -222.5,472.9 -328.5,711.7 -74.8,168.3 -138.9,341 -167.4,524.6 -2,12.6 -5.1,25.5 -10.3,37.1 -9.7,22.1 -28.5,24.3 -41.9,4.3 -8,-11.9 -14.9,-26.5 -16.3,-40.5 -4.5,-43.6 -9.6,-87.7 -8.3,-131.5 2.4,-79.7 28.8,-159.8 -8,-238.2 -1.5,-3.1 -1.4,-7.2 -1.5,-10.8 -2.3,-126.8 -12,-254.1 -4.9,-380.3 10.1,-178 31.6,-355.3 50.1,-532.7 25.6,-244.2 77.5,-483.4 153.6,-716.6 82.4,-252.1 153.4,-507.1 215.4,-764.9 48.5,-201.4 59.5,-401.6 22.1,-606.9 -34,-187.2 -83.1,-369.5 -140,-550.5 -52,-165 -99.2,-331 -123.9,-503.2 -32.8,-229 44.6,-423.4 177.9,-602.1 11.9,-15.9 28.4,-28.9 43.9,-41.7 94.8,-78.2 205.5,-114 326.8,-115.1 255.2,-2.2 505.9,37 754.6,90 33.6,7.2 66.9,21.5 97.1,38.3 112.8,62.4 137.3,175.1 63.2,280.3 -20.1,28.6 -43.1,55.5 -60.2,85.7 -70.9,124.8 -140,250.6 -209.4,376.2 -3.9,7 -4.7,15.9 -10.4,36.7 27.1,-17.6 43.3,-28.6 60,-38.7 25.2,-15.2 49.3,-33.6 76.3,-43.8 93.5,-35.5 174,26.2 165.4,125.5 -1.7,19.8 -7.4,39.8 -14.3,58.7 -10.8,29.3 -23.9,57.8 -36.4,86.4 -101.2,232.9 -202.5,465.7 -303.4,698.6 -7.8,17.9 -12.7,37 -18.9,55.5 3.7,2.8 7.3,5.6 11,8.4 16.4,-7.4 33.6,-13.6 49.2,-22.5 134.2,-76.7 267.6,-154.7 402.4,-230.1 33.3,-18.7 69.9,-34.4 106.9,-42.7 65,-14.4 124,32 124.6,98.3 0.4,33.7 -5.4,71.3 -20.8,100.6"
         style="fill:#5fcbf5;fill-opacity:1;fill-rule:nonzero;stroke:none"
         id="path62" /><path
         d="m 19217.2,26460.8 c 3.7,19.4 10.6,32.3 26.7,44.9 39.7,31.2 34.3,69.3 -13.6,86.6 -30.6,11 -64.3,15.5 -97,18.1 -80.7,6.2 -161.5,10.1 -242.3,14.1 -207.6,10.1 -415.1,26.4 -622.7,28 -356.9,2.7 -713.8,-3.3 -1070.7,-7 -119.5,-1.3 -239.1,-5.5 -358.5,-10.6 -244.3,-10.5 -488.7,-20.9 -732.9,-34.4 -170.7,-9.5 -341.5,-19.9 -511.6,-37.2 -237.8,-24.3 -475.1,-53.9 -712.2,-84 -471.5,-60 -937.6,-150.3 -1397.9,-267.8 -429.7,-109.7 -857.6,-225.3 -1274.4,-379.9 -428.2,-158.9 -851.4,-328.9 -1262.3,-528.7 -170.4,-82.8 -338.4,-170.7 -506.5,-258.2 -236.7,-123.2 -472.55,-248 -708.67,-372.3 -13,-6.8 -25.98,-14 -37.92,-22.5 -35.11,-25.1 -47.9,-59.5 -36.67,-95.7 10.48,-33.8 38.26,-54.6 81.17,-52.7 30.75,1.4 61.78,8.6 91.57,17.1 159.2,45.5 318.02,92.4 477.12,138.3 18.7,5.4 38.4,7.4 57.6,11 2,-4.3 3.9,-8.6 5.9,-12.8 -10.4,-12.3 -20.7,-24.6 -31.2,-36.8 -80.1,-93.6 -162.3,-185.5 -240,-281.1 -173.32,-213.2 -322.01,-443.6 -468.07,-675.8 -73.48,-116.8 -149.06,-232.3 -222.22,-349.3 -18.39,-29.4 -33.39,-61.5 -45.91,-93.9 -16.59,-43 -9.17,-84.8 23.21,-117.9 34.07,-34.8 77.06,-41.9 122.37,-25 23.97,8.9 47.68,19.9 69.26,33.6 38.85,24.5 77.26,50.1 113.66,78.1 264.05,203.2 531.4,402.1 810.5,584.1 246.6,160.8 497.1,315.6 744.9,474.6 47.7,30.6 92.6,66.4 135.6,103.5 34.4,29.6 53.2,70.2 58.2,115.9 3.8,34.7 9.8,69.7 8.9,104.4 -3.9,143.6 38,276.7 93.8,405.7 64.4,148.7 154.3,281.4 280.8,384.3 168.1,136.8 357,240.8 555.9,325.1 237.7,100.7 484.8,173.3 735.1,236.2 312.8,78.6 629,137.7 949.5,172.8 215.7,23.5 431.5,47.2 647.5,67.1 184.9,17 370.3,29.2 555.5,42.8 121,8.9 242.1,17.1 363.2,24.4 167,10.2 334,23.9 501.2,27.8 305.3,7.2 610.8,7.8 916.1,12.2 152.7,2.2 305.4,6.2 458,10.4 286.8,8 573.6,16.4 860.4,25.6 60.6,1.9 121.1,7.9 181.6,12.3 144.9,10.4 289.7,20.9 434.5,31.7 42.2,3.1 84.5,5.5 126.4,11.4 61.7,8.8 95.8,41.4 107.1,101.5"
         style="fill:#5fcbf5;fill-opacity:1;fill-rule:nonzero;stroke:none"
         id="path64" /><path
         d="m 7755.26,23430.2 c 80.99,151.1 152,306.6 213.31,466.6 9.08,23.6 13.92,49.4 17.33,74.7 3.1,23 -3.76,44.1 -26.65,55.9 -22.68,11.8 -44.64,6.3 -61.38,-9.5 -21.17,-20 -42.66,-41.5 -57.39,-66.2 -52.65,-88.6 -102.91,-178.5 -153.31,-268.4 -52.22,-93.1 -103.68,-186.6 -155.22,-280 -11.92,-21.7 -23.99,-41.9 -53.55,-39.8 -44.96,3.2 -77.15,-19.7 -103.97,-52.4 -17.48,-21.4 -35.43,-42.5 -51.07,-65.2 -204.65,-296.5 -451.58,-557 -698.06,-817.7 -120.07,-127 -245.06,-249.4 -364.47,-377 -76.6,-81.9 -147.62,-169 -220.15,-254.6 -66.32,-78.3 -78.28,-161.1 -27.57,-254.9 51.58,-95.4 92.93,-196.3 143.88,-292.1 34.41,-64.7 75.36,-126.2 117.77,-186.1 30.48,-43.1 72.41,-73.5 127.81,-73.6 36.09,1.2 68.39,10.6 90.72,37.3 19.75,23.7 37.62,49.9 51.18,77.5 83.55,170.1 161.66,343 249.04,511 182.51,351 369.55,699.7 554.92,1049.2 135.36,255.2 270.34,510.7 406.83,765.3"
         style="fill:#5fcbf5;fill-opacity:1;fill-rule:nonzero;stroke:none"
         id="path66" /><path
         d="m 16808.5,12847.2 c -43.3,28.3 -91.8,37.1 -142.3,34.6 -32.5,-1.6 -61,5.7 -89.3,21.9 -98.1,56.3 -204.6,80.4 -314.4,78.2 -249,4 -465.4,-115.5 -619.3,-295.2 -93.7,-109.4 -172.4,-230.3 -234.2,-359.9 -37.7,-78.8 -66.7,-164.2 -84.2,-249.8 -36.4,-178.5 87.7,-320.5 270.2,-321 75.6,-0.2 144.6,25.8 212.9,52.8 171.1,67.4 341.3,136.9 511.7,206.2 136.9,55.6 268.1,121.6 381.9,217.7 99.7,84.2 163,185.8 139.3,322.4 -7,40.2 -4.8,73 16.3,109.6 38.4,66.7 16,140.4 -48.6,182.5"
         style="fill:#5fcbf5;fill-opacity:1;fill-rule:nonzero;stroke:none"
         id="path68" /><path
         d="m 16964.8,15671.8 c -32.8,-16.2 -68.3,-27 -100.9,-43.6 -35.8,-18.2 -69.1,-41.2 -104.5,-60.4 -55,-29.8 -112.8,-54.7 -165.5,-87.9 -54.1,-34.1 -103.5,-75.7 -154.9,-114 -7.2,-5.4 -14.6,-10.4 -27.4,-19.5 -48.9,50.6 -59.7,114.5 -92.9,173.4 18.7,12.7 35.6,25.9 54,36.5 105.4,60.1 210,121.9 317.2,178.6 74.6,39.5 152.5,72.9 230,106.7 39.8,17.3 49.6,12.5 75.3,-20.5 1.1,-1.4 2.1,-3 3.2,-4.5 62.9,-85.3 60.2,-98.7 -33.6,-144.8 z m 1590.8,202.1 c -32.3,0.6 -66.4,-4.7 -97,-15.4 -182.4,-63.3 -363.9,-129.6 -546.1,-193.8 -93.4,-32.9 -187.6,-63.6 -289.1,-97.8 -20.1,59.4 -59.3,59 -101.8,46.6 -53,-15.5 -105.4,-33 -158.5,-47.8 -12.6,-3.4 -27.3,0.7 -41,1.3 2.2,13.1 1.6,27.5 7,39.2 19.1,41 15.7,57.4 -25.9,70.4 -25.3,8 -33.4,24.7 -42.5,45.5 -24.1,55.7 -45.2,113.4 -76.5,164.8 -25.3,41.6 -59.4,80.3 -97,111.2 -73.1,60.2 -157,51.2 -241,22.7 -184.9,-62.7 -352.8,-156.2 -504.8,-278.3 -32.9,-26.4 -66.1,-53.6 -93.4,-85.5 -47.5,-55.6 -40.4,-99.4 17,-144.2 2.6,-2 3.5,-6.3 5.2,-9.5 0,-11 -0.5,-22 0.1,-33 7.2,-139.5 62.8,-247.9 196.6,-306.1 5.1,-2.2 9.8,-5.4 15.1,-6.8 83.4,-22.1 165.7,-50.8 250.5,-64.4 131.1,-21.1 263.9,-15.8 396.1,-3.2 245.7,23.3 489.5,55.6 728.1,122.1 146.3,40.8 286.6,94.6 416.2,173.8 90.9,55.5 180.1,113.8 269,172.6 77.3,51.2 122.5,119.7 112.2,217.7 -6.1,58.1 -39.4,96.7 -98.5,97.9"
         style="fill:#5fcbf5;fill-opacity:1;fill-rule:nonzero;stroke:none"
         id="path70" /><path
         d="m 9739.86,16057.1 c -112.19,147 -240.2,278.8 -385.72,392.8 -214.46,168.1 -426.65,338.4 -617.56,533.9 -158.72,162.5 -303.81,335.3 -422.81,529.3 -28.86,47.1 -58.24,93.8 -88.66,139.9 -26.5,40.1 -64.26,60.9 -112.91,53.6 -46.42,-7 -77.24,-36 -88.69,-80.5 -12.76,-49.6 -20.49,-100.5 -30,-148.8 7.33,-43.5 12.71,-83.6 21.11,-123 6.89,-32.3 24.99,-59.1 58.19,-67.8 30.35,-8 44.42,-28.5 58.42,-53.5 101.45,-180.6 225.6,-344.5 368.29,-494.5 129.69,-136.5 276.34,-253.9 419.53,-375.1 175.66,-148.6 355.16,-292.6 550.01,-415.9 59.04,-37.3 119.38,-72.8 180.57,-106.5 46.11,-25.5 96.35,-17.8 127.42,14.5 31.3,32.6 37.19,75.8 13.03,122.6 -14.27,27.6 -31.33,54.3 -50.22,79"
         style="fill:#5fcbf5;fill-opacity:1;fill-rule:nonzero;stroke:none"
         id="path72" /><path
         d="m 13553,19121.1 c 22.2,-15.4 51.8,-12.8 81,11.5 91.4,75.8 194.5,132.5 301.6,181.5 190,86.8 387.4,125.8 595.6,78.6 12.5,-2.8 25.5,-4.2 38.3,-5 86.8,-5.4 134.4,36 131.1,122.5 -2.2,60.3 -12.9,120.4 -22.9,180.1 -24.2,145.1 -62.5,179.4 -208.7,191.3 -9.1,0.7 -18.3,0.1 -36.4,0.1 -57.1,-3.3 -124,-1.8 -189,-12 -154.3,-24.3 -307.8,-53.6 -461.5,-82 -122.5,-22.7 -196.4,-97.2 -216.6,-219.4 -13.1,-79.5 -17.7,-160.4 -25.2,-240.8 -1.4,-14.4 -1.9,-31 3.8,-43.5 12.9,-28.3 7.2,-51.3 -6.2,-77.9 -17.1,-33.9 -8,-69 15.1,-85"
         style="fill:#5fcbf5;fill-opacity:1;fill-rule:nonzero;stroke:none"
         id="path74" /><path
         d="m 20216.5,19834.3 c -32.3,100.1 -107.7,141.2 -204.2,148.6 -91.5,7 -183.4,8.5 -275.2,9 -51.2,0.3 -102.5,-6.2 -153.8,-9.7 -0.1,1.1 -0.1,2.2 -0.2,3.3 -31.3,0 -62.5,-0.5 -93.8,0.1 -52.8,1 -97.3,-17.8 -133,-56.1 -76.6,-82.3 -115,-187.3 -164.3,-285.3 -10.8,-21.5 7.5,-57 -2.1,-80 -10.5,-25.1 -39.6,-41.7 -57.4,-64.6 -14.4,-18.5 -15.8,-41.3 -2.5,-62.2 13.2,-20.8 33.8,-28.5 57.2,-25 16.2,2.5 31.9,8.4 47.5,13.7 83.5,28.3 166.3,59.2 250.6,85 183.7,56.3 371.2,73 561.4,42.3 43.2,-7 84.7,-23.9 127.2,-35.4 64.6,-17.4 116.7,19.9 115.2,86.6 -0.7,32.3 -9.6,65.4 -20,96.3 -15.2,45.3 -38,88 -52.6,133.4"
         style="fill:#5fcbf5;fill-opacity:1;fill-rule:nonzero;stroke:none"
         id="path76" /><path
         d="m 8367.2,18227.5 c -86,2.1 -191.44,-17.2 -231.37,-40.4 38.68,-92.8 227.78,-399.8 277.72,-446.9 -13.72,165.8 -26.06,325.6 -46.35,487.3 z m 2010.6,-4590.4 c 66.2,-289.8 206.6,-529.8 380.8,-754.1 -54.8,231 -109.7,461.9 -163.6,689.2 -73.1,21.9 -139.7,41.8 -217.2,64.9 z m -1516.48,4543.5 c 0,-10.7 -1.07,-21.3 0.18,-31.6 7.94,-65.7 15.06,-131.5 24.93,-196.9 31.29,-207.3 68.48,-413.4 131.22,-614 31.37,-100.4 69.9,-197.4 123.22,-288.3 106.29,-181.3 260.32,-302.7 461.02,-362.7 146.69,-43.9 296.98,-70.4 450.51,-71.7 66.7,-0.6 131.9,-6.9 196.2,-24.4 18.5,-5.1 38.2,-5.4 57.1,-7.8 16.6,38.5 5,68.9 -12.2,94.1 -50.7,74.2 -103.5,147.1 -158.3,218.4 -10.9,14.3 -33.3,22.5 -52,27.6 -74.4,20.3 -149.7,37.2 -224.07,57.6 -54.81,15 -110.34,29.5 -162.59,51.2 -98.61,41.1 -158.6,117 -178.47,222.3 -7.14,37.9 -12.55,76.4 -14.07,114.8 -4.86,123.1 -6.89,246.3 -11.31,369.5 -2.69,75.2 -11.22,149.7 -33.52,218.7 -163.67,95.4 -490.87,217.8 -597.85,223.2 z m 15582.78,2475.8 c -37.2,36.6 -70.3,65.9 -99.6,98.7 -30.6,34.2 -59.9,70 -85.8,107.9 -103.8,152 -205,305.7 -309,457.5 -98.8,144.2 -199.3,287.3 -300.1,430.1 -63.2,89.6 -143.1,157.8 -251,188.6 -15.8,4.5 -31.2,11.1 -46.2,18.1 -94.7,44.6 -128.2,124.6 -93.5,223.6 6.7,19 15,37.7 24.6,55.5 23.4,43.7 49.3,86.2 71.9,130.4 30.9,60.5 60.6,121.7 88.9,183.5 7.8,17.2 8.6,37.6 13.1,58.7 -74,24.2 -144.3,37.3 -215.1,47.2 -114.8,16.2 -230.1,28.2 -344.7,45.9 -68.8,10.6 -137.4,25.7 -204.6,44.3 -68.4,18.8 -115.5,64.7 -133.5,134.7 -25.1,97.9 -49.9,196 -70.6,294.9 -20.2,96.5 12.7,173.6 96.6,227.8 60.3,38.9 121.2,77 180.1,117.9 96.6,67.2 194.6,132.9 286.8,205.8 110.2,87.2 205.5,190.1 281.1,309.2 31.4,49.5 56.6,103.1 81.1,156.4 11.1,24 21.8,51.6 4.7,78.7 -5.4,3.2 -9.8,6.6 -14.8,8.7 -204,84.3 -405.6,175 -612.4,251.6 -486,179.9 -918,447.2 -1310,783.3 -282.2,242 -564.6,483.9 -851,720.8 -136,112.5 -280.7,214.5 -423,319 -73.1,53.7 -154.6,92.4 -242.5,116.6 -55.9,15.4 -111.7,19.2 -169.2,8.2 -104.9,-20 -199.6,-62.9 -287.5,-122.2 -11.5,-7.8 -20.9,-18.7 -37.9,-34.2 35.7,-13.1 64.7,-23.3 93.3,-34.3 200.9,-76.7 390,-175.5 551.9,-318.1 244.7,-215.6 476.6,-443.2 677.1,-702.5 180.9,-233.9 308,-492.3 386,-775.5 91.4,-332.2 122.8,-673.1 129.7,-1016 4.4,-217 -4.7,-434.3 -7.1,-651.4 -0.6,-51.5 -2.8,-103.4 2.4,-154.4 22.2,-218.5 61.4,-433.8 136.9,-640.7 63,-172.8 124.8,-345.9 177.4,-522.3 90.5,-303.4 176.5,-607.8 206.8,-924.6 12.8,-133 9.5,-265.1 -36,-392.7 -30.2,-84.8 -59.2,-170.5 -95.8,-252.6 -138.7,-311.6 -198.9,-637.9 -191,-977.8 0.5,-20 2.2,-39.9 3.2,-58.7 78.2,-66.9 152.8,-132.5 229.2,-196 134.6,-111.8 117.7,-124.5 335.1,-95 193.2,26.3 386.1,55.4 579.1,83.5 30.3,4.4 60.4,9.9 96.3,15.9 -11.4,19.6 -19,33.6 -27.3,47.1 -63.7,103.4 -126.8,207.2 -191.4,310 -62.6,99.7 -126.3,198.7 -190.4,297.5 -39.1,60.1 -79.9,119.2 -119.8,178.8 -5.1,7.6 -10,15.6 -13.6,23.9 -13.5,30.7 -8,60.7 14.1,81 21.4,19.7 55.7,25.7 81.8,7 26.5,-19.1 49.6,-43.5 71.9,-67.7 162.9,-177.7 325.3,-355.9 488,-533.7 7.7,-8.4 17.2,-15.1 25.8,-22.6 -10.3,41.3 -28.7,76.7 -45.6,112.8 -21.1,44.8 -43.5,89.4 -60.7,135.8 -13.5,36.2 -1.4,69.7 25.2,88.8 30.6,22.1 62.9,20.5 92.8,0.5 21.2,-14.2 40.3,-32 58.7,-49.9 89.8,-87.2 177.7,-176.3 268.8,-262.1 69.5,-65.5 146.3,-123.4 203.1,-201.8 2,-2.7 6.1,-3.9 13.3,-8.3 12,4.7 26.6,10.4 46.2,18 -9.2,30.9 -15.8,59.3 -26.1,86.2 -33.1,86.3 -80.3,165.2 -130.2,242.8 -34.7,54.1 -69.1,108.7 -100,165.1 -32.9,59.9 -23.2,107.6 25.3,154.4 6.7,6.4 13.9,12.1 20.9,18.1 106.4,90.7 214.4,179.6 318.8,272.6 275.1,245.1 531.8,508.9 784.7,776.5 22.5,23.9 42.8,49.9 64.3,75.2 z M 15994,6502.4 c 25.6,24.5 49.1,42.6 67.2,65 56.6,70.1 114.9,139.3 165.8,213.5 126.2,183.5 249,369.3 372.4,554.7 189.6,285 378.4,570.5 567.7,855.6 11.2,16.9 22.8,33.5 35.3,49.4 61,77.9 141.2,116.9 240,112.2 42.1,-1.9 84.4,-8.1 125.6,-17.2 167.4,-36.6 329.1,-93.1 491.8,-146.1 797.1,-259.7 1572.3,-574.7 2334.2,-923.4 5.8,-2.7 12.7,-3 27.6,-6.2 -8.8,28.6 -14.7,51.1 -22.4,73 -139.7,395.6 -278.1,791.6 -420,1186.4 -151.2,420.9 -295.1,844.1 -405.6,1277.9 -7.9,31.1 -22.6,60.5 -34.1,90.6 -166.9,-65.6 -328.5,-126.7 -488.3,-192.5 -187.9,-77.3 -381.6,-134.2 -581.2,-170.9 -244.5,-44.9 -491.1,-74.3 -737.9,-103 -438.4,-51 -875.3,-30.5 -1310.2,30.6 -447.3,62.8 -884.4,174.4 -1316.1,305.6 -738.6,224.4 -1433.7,543.5 -2085,958.8 -347.9,221.8 -686.8,456.1 -1015.3,705.6 -390.4,296.6 -761.9,615 -1105.6,965 -225.7,229.7 -421.1,482.2 -567.9,770.3 -3.8,7.5 -9,14.4 -20,31.6 -1.4,-25.4 -3.3,-39 -2.8,-52.6 3.6,-93.8 8.4,-187.6 11.3,-281.4 11.5,-367.9 23,-735.8 33.4,-1103.7 4.8,-169.3 10.4,-338.6 9.1,-507.9 -0.8,-90.1 24.7,-167 82.4,-233.2 64,-73.4 126.5,-149.2 197.9,-215 164.9,-152.3 332.5,-301.9 503.3,-447.6 317.8,-271.2 643.8,-533 957.1,-809.2 816.4,-719.5 1645.4,-1423.2 2511.6,-2082.6 377.9,-287.7 758.6,-571.4 1157.3,-830 49.4,-32 99.7,-62.8 150.5,-92.4 20.2,-11.8 43,-19 70.9,-30.9 z m -4339.4,14871.9 c -21,14.9 -35.6,25.8 -50.8,35.8 -89.3,58.3 -180.1,114.6 -268,175 -162.2,111.6 -292,252.4 -377.5,431.3 -89.7,187.6 -114.6,382.2 -66.7,585.9 34,144.8 92.4,279.1 167.4,406.8 79.3,135.3 172.2,261 268.3,384.7 75.7,97.3 150.7,195.2 224.9,293.7 25.5,33.8 47.8,69.9 71.1,105.2 30.9,46.7 30.9,92.3 -3.7,137.9 -27.8,36.6 -53.8,74.6 -80.4,112.2 -71.8,101.5 -124.4,212.4 -162.2,330.7 -26.6,83.4 -37.9,168.6 -30.8,255.9 17.5,217.6 100.1,409.4 231.8,581.3 63,82.2 137.1,153.8 215.6,221 246.6,211.3 528.2,359.8 834.8,462.8 341.6,114.7 693.9,181.4 1049.9,229.4 394.2,53.3 791,78.8 1188,99.1 362.1,18.5 724.4,32.6 1086.6,47.7 263,10.9 525.9,22.5 789,29.8 454.4,12.7 908.9,24.1 1363.5,32.7 346.3,6.6 690.7,38.6 1035.2,70.5 15.7,1.5 31,6.2 44.7,9 0,60.4 6.4,116.2 -1.2,170.1 -29.3,210.3 -128.1,385.5 -281.3,530.7 -99.9,94.6 -215.4,166.2 -338.4,226.3 -215.2,105.3 -436.9,194.5 -665.6,266.1 -395.3,123.8 -801.7,189.8 -1212.8,228.6 -386.9,36.6 -775.1,49.4 -1163.7,43 -202.4,-3.4 -404.8,-10.9 -607.1,-17.5 -430.8,-14 -859.6,-50.7 -1286.8,-108.8 -579.5,-78.8 -1147,-208.5 -1703.5,-388.8 -569.4,-184.4 -1116.7,-415.1 -1622.2,-740.4 -374.29,-240.8 -730.1,-503.5 -1043.27,-821.3 -189.77,-192.5 -353.1,-404.7 -480.84,-643.5 -138.19,-258.4 -293,-506.6 -461.45,-746.2 -298.53,-424.6 -599.05,-847.7 -897.79,-1272.1 -165.55,-235.2 -348.04,-456.2 -540.88,-669.6 -233.13,-257.9 -491.77,-486.3 -771.42,-691.8 -13.01,-9.6 -25.13,-20.3 -39.62,-32.1 18.56,-48.9 33.89,-96.1 54.15,-141.1 62.62,-139.3 126.48,-278 191.03,-416.4 192.14,-411.8 384.81,-823.4 577.43,-1235 9.02,-19.3 19.49,-37.9 30.51,-59.2 20.83,14.5 36.59,24.1 50.81,35.5 131.77,106.2 267.88,207.6 394.05,320.2 518.02,461.9 1022.14,938.7 1510.48,1432 78.99,79.8 158.06,159.5 237.33,239 11.65,11.7 23.64,23.5 37.19,32.8 26.09,17.8 55.81,16.7 76.91,-0.7 21.81,-17.9 28.65,-45.8 15.85,-75 -6.55,-15 -15.9,-29.1 -26.05,-42 -19.35,-24.6 -39.96,-48.2 -60.41,-71.9 -251.69,-291.2 -521.4,-565.7 -790.1,-840.9 -371.74,-380.9 -734.04,-770.1 -1068.74,-1184.3 -48.37,-59.9 -96.77,-119.7 -149.53,-185 130.34,-26.9 255.51,-52.8 372.02,-76.9 65.66,74.2 125.22,141.4 184.72,208.7 8.54,9.7 16.98,19.4 25.23,29.3 132.23,158.5 273.29,308.7 420.7,453 344.63,337.4 685.36,678.6 1017.25,1028.6 11.38,12 22.8,24.3 35.78,34.4 29.02,22.6 61.79,23.4 86.4,3.9 24.83,-19.7 33.11,-51.3 16.57,-84.7 -13.75,-27.8 -31.3,-54.2 -50.41,-78.7 -86,-110.3 -173.82,-219.2 -259.76,-329.6 -204.68,-262.8 -408.9,-526 -612.71,-789.5 -34.71,-44.9 -66.45,-92 -103.33,-143.4 65.59,-15.5 125.44,-29.6 182.36,-43 6.74,6 9.87,8.1 12.13,10.9 229.05,283.4 458.05,566.9 686.97,850.4 15.02,18.6 28.14,38.9 44.42,56.3 20.56,22 47.38,26 70.25,14.1 22.8,-12 35.36,-36.4 28.47,-65.8 -4.97,-21.1 -13.84,-42 -24.72,-60.9 -41.37,-71.7 -84.61,-142.3 -126.52,-213.8 -112.66,-191.9 -225.04,-384.1 -337.43,-576.3 -19.49,-33.3 -38.56,-66.9 -57.63,-100.4 -5.92,-10.5 -11.18,-21.3 -17.36,-33.1 63.94,-38.7 124.52,-75.4 186.67,-113.1 9.71,14.4 16.97,24.8 23.85,35.4 95.04,146.7 189.89,293.6 285.13,440.2 24.06,37 48.39,73.9 74.39,109.6 19.12,26.2 42.87,33.7 66.95,25.6 26.84,-9.2 43.41,-32.2 39.37,-65.2 -3.28,-27 -10.53,-54.5 -21.56,-79.3 -59.75,-134.4 -119.77,-268.8 -182.74,-401.8 -31.36,-66.2 -69.2,-129.4 -108.94,-202.8 8.02,-4.9 18.49,-9.5 26.82,-16.6 171.26,-146.5 325.41,-309.6 464.68,-486.3 92.23,-117 178.5,-238.7 267.62,-358.2 17.14,-23 35.15,-45.3 56.65,-73 8.22,18.8 14.18,29.9 18.1,41.7 59.82,180.1 136.57,353.5 209.67,528.3 177,422.8 396,822.1 664.9,1193.4 192.2,265.3 387.4,528.4 581.7,792.2 67.7,91.9 137.2,182.4 205,274.1 18.5,25 34.2,51.9 54.6,83.2 z m -905.2,-5086.5 c -9.5,18.7 -18.2,34.9 -26,51.5 -39.8,84.9 -80.5,169.5 -118.3,255.4 -12.3,28.1 -18.9,59.5 -23.9,90.1 -3.4,20.8 5.2,40.6 27.5,48.9 20,7.5 36.6,-1.4 49.1,-16.2 13,-15.4 25.1,-31.8 35.6,-49.1 30.4,-50.3 62.3,-100.1 89.1,-152.4 43.5,-84.6 99.4,-161.4 145.3,-244.9 241.9,-440.7 471.9,-887.3 664.4,-1351.8 254,-612.8 550.3,-1204.7 860.4,-1790.3 21.2,-40.1 48.1,-72.7 84.5,-99.7 87.1,-64.8 175.3,-128.5 258.7,-197.9 400,-333.6 801.4,-665.7 1196.8,-1004.7 306.1,-262.5 613.8,-522.9 934.2,-767.7 147.6,-112.7 300.5,-218.8 453.2,-324.6 102.3,-70.9 216.8,-118.3 338.5,-143.7 84.4,-17.6 170.5,-30.4 256.4,-37.2 161.4,-12.9 323.3,-19.8 484.9,-29.4 435.8,-26 871.8,-34.8 1308.1,-17.5 27.4,1.1 55,4.6 82,10 241.9,48.5 478.9,116.3 715,187.3 52.7,15.8 104.5,36 154.9,58.2 22.5,9.9 45.1,26.4 60.1,45.7 156.7,202.1 307.7,408.9 468.5,607.7 277.2,342.4 522.2,707.8 778.2,1065.4 13.2,18.3 20.4,36.8 20,61 -1.6,80.8 -2.9,161.9 1.7,242.6 4.2,75.2 18.2,149.8 24,225 20.1,262.4 37.6,525 57.9,787.4 20.8,269.7 41.4,539.7 88,806.5 27.8,159.3 51.7,319.6 102.7,474.3 16.6,50.1 22,104.1 31.1,156.5 6.3,36.3 9.7,73 15.2,109.4 34.9,230.2 97.8,453.5 177.5,671.4 109.3,299.2 243.5,588 386.2,872.8 83.3,166.1 168.4,331.3 250.5,498.1 59.4,120.8 103.5,247.6 137.7,377.9 33.2,126.7 29.6,251.3 -17.8,374 -27.9,72 -54.6,144.5 -83.6,216.1 -70.4,174.3 -133.5,350.5 -166.8,536.5 -24.9,139.4 -22.6,274.6 38.3,405.2 17.8,38.4 32.6,78.2 50.2,116.6 47.8,103.6 95.9,207 144.6,310.1 134.5,284.6 265.5,570.6 363.9,870.1 7.9,23.8 14.7,50.2 12.5,74.6 -5.2,58.5 -13.2,117.2 -25.1,174.7 -68.4,330.2 -164,652.7 -274.4,971.1 -50,144.2 -105.6,286.9 -147.4,433.4 -61.9,216.6 -90.2,439.2 -95.4,664.9 -7,305.4 -0.4,611.2 -27.7,916 -16,179.8 -38.3,358.5 -77.8,535 -73.8,329.3 -217.1,622.7 -433.5,883.2 -170.1,204.6 -356.7,391.6 -555.8,567.2 -99.9,88 -207.6,164.8 -325.2,227.1 -112.1,59.5 -224.8,118 -337.5,176.4 -44,22.7 -88.7,44 -120.5,59.8 -158.3,-16.6 -302.6,-34.4 -447.4,-46.2 -187.1,-15.2 -374.4,-30.5 -561.9,-36.8 -421.2,-14.1 -842.7,-21 -1263.9,-33.9 -303.6,-9.2 -607,-22.8 -910.3,-35.8 -296.1,-12.8 -592,-28.7 -888.1,-40.7 -400.9,-16.2 -801.3,-40.2 -1201,-76.7 -354.9,-32.4 -702.8,-99.4 -1044.3,-201.1 -220.8,-65.7 -437.4,-142.4 -640.5,-253.1 -196.9,-107.3 -375.6,-238.9 -526.3,-406.2 -107.3,-119.2 -188.1,-253.5 -236.1,-407.6 -57.4,-184.1 -33.9,-356.1 70.7,-517.3 22,-34 45,-67.4 69.5,-99.6 39.1,-51.2 78.8,-102 120.1,-151.3 59.7,-71.3 72.5,-151.8 46.8,-238.3 -13.1,-43.9 -30,-87.4 -51.7,-127.5 -35,-64.6 -73.4,-127.7 -114.2,-188.8 -48,-71.9 -100.1,-141.2 -150.4,-211.5 -95.4,-133.3 -190.2,-267.1 -263.9,-414 -33.8,-67.2 -64.3,-136.6 -89.9,-207.3 -29.7,-81.9 -42.6,-167.5 -32.9,-255.2 19.4,-175 94.5,-323.2 215.6,-449.5 88.7,-92.4 190.9,-167.1 300.4,-232.4 55.3,-33 112.3,-63.4 166.1,-98.6 86.8,-57 117,-140.9 85.6,-240 -12.7,-39.9 -30.8,-79.2 -53,-114.7 -40.9,-65.5 -83.8,-130.2 -130.8,-191.3 -188.5,-245.2 -378.3,-489.3 -568.8,-732.9 -278.7,-356.3 -524.6,-733.4 -720.5,-1141.8 -136.9,-285.3 -270.6,-572.1 -405.3,-858.5 -33.93,-72 -83.69,-85.4 -142.71,-30.5 -37.3,34.8 -67.94,77 -99.48,117.5 -30.5,39.1 -55.69,82.6 -87.8,120.2 -128.92,151.3 -257.05,303.3 -390.44,450.6 -119.89,132.4 -249.73,255.2 -386.77,370.1 -123.18,103.2 -253.97,195.1 -400.85,262 -127.27,58 -259.87,88.5 -400.94,87.5 -257.22,-1.8 -407.6,-198.7 -442.04,-363.3 -33.62,-160.7 -58.02,-322.8 -44.82,-487.7 9.54,-119.2 20.75,-238.2 34.85,-356.9 6.57,-55.3 14.6,-111.3 34.98,-164 5.02,1.6 7.61,1.6 8.24,2.7 5.35,9.5 10.98,18.9 15.33,28.9 48.74,111.3 125.71,196.9 228.58,261.9 170.83,108.1 357.49,144.4 555.17,122.2 187.84,-21.1 366.27,-76.3 536.73,-160.2 281.23,-138.4 514.99,-339.9 744.44,-547.9 10.8,-9.8 20.67,-21.3 28.6,-33.5 26,-40 13.58,-70.9 -32.14,-82.4 -34.98,-8.7 -69.34,-5.3 -103.39,5.4 -20.31,6.3 -40.78,12.1 -62.87,18.6 -1.81,-10.9 -4.3,-16.4 -3.28,-21.2 24.75,-116.2 20.96,-234.2 24.94,-351.8 2.6,-77 11.15,-154.1 21.73,-230.4 8.8,-63.5 47.86,-107.1 108.31,-128.3 46.77,-16.3 94.32,-31.4 142.58,-42.4 77.08,-17.5 155.05,-31.1 232.65,-46.4 45.9,-9.1 88.6,-23.8 119.1,-63 61.2,-78.6 119.3,-159.7 156.6,-252.5 18.2,-45.5 32.5,-94.7 36.9,-143.3 10.2,-113.4 -66,-179.9 -178.9,-163.9 -87.3,12.4 -175.1,21.7 -262.2,35.3 -114.46,17.9 -229.91,32.5 -342.32,59.4 -297.7,71.2 -519.82,241.8 -658.82,517.6 -63.37,125.7 -109.23,257.3 -140.54,394 -40.7,177.8 -64.07,358.5 -88.3,539 -9.73,72.6 -24.09,144.5 -35.82,213.6 -76.31,25.3 -182,32.6 -226.29,17.1 0,-18.1 -1.54,-36.5 0.27,-54.6 7.86,-78.7 18.34,-157.2 24.79,-236 8.7,-106.3 15.47,-212.8 21.01,-319.3 1.31,-25.2 -1.6,-52.2 -9.55,-76.1 -17.32,-52 -74.32,-66.4 -115.9,-30.6 -15.08,13 -26.97,30.1 -38.86,46.4 -130.51,178.6 -247.22,365.8 -351.28,561 -9.21,17.3 -19.76,33.9 -30.06,51.4 -49.91,-20 -89.74,-43.3 -123.55,-79.6 -21.79,-23.4 -52.63,-38.5 -79.78,-56.8 -8.71,-5.8 -18.59,-10 -30.88,-16.4 9.77,-22.4 17.31,-43 27.5,-62.3 76.51,-144.7 150.9,-290.7 230.93,-433.4 201.26,-359 451.07,-680.7 750.88,-963 336.99,-317.3 710.22,-578.7 1150,-734.7 72.47,-25.7 148.17,-43.5 223.67,-58.7 68.7,-13.8 139,-16.6 208.3,1 125.6,32 214,109.7 274.1,222.7 50.6,95.1 76.4,198.7 105.1,305.6 z m 6538.3,-8311.6 c -15.3,-20.6 -31.6,-40.3 -45.7,-61.5 -90.8,-136.4 -181,-273.1 -271.6,-409.6 -179.1,-269.8 -356.8,-540.7 -538.7,-808.7 -60.7,-89.6 -130.4,-173.5 -199.5,-257.1 -49.6,-60 -113.7,-99.6 -185.1,-134.7 -79.7,-39.1 -162.2,-57.1 -246.3,-76 -37.5,-8.4 -75.1,-18.8 -111,-32.4 -62.2,-23.5 -119.3,-14.5 -173.7,20.4 -18.5,11.8 -36.3,25.2 -53.2,39.3 -116,96.5 -231.2,194.1 -347.9,289.7 -39.7,32.6 -81.3,63.8 -125.2,90.2 -658.5,395.3 -1266.7,859.1 -1852.9,1353.4 -686,578.6 -1329.7,1202.4 -1955.8,1844.3 -262.2,268.8 -511.2,550.3 -738.9,849.6 -53.4,70.3 -106.6,141.1 -154.4,215.2 -32.6,50.6 -57.4,106.6 -82.4,161.6 -20.2,44.4 -19.9,92.9 -18.2,141.1 4.7,143.5 13.5,287 11.7,430.4 -1.9,148.9 -14.3,297.7 -22.3,446.5 -0.3,5 -3.2,9.8 -5.9,17.8 -23.6,-8.8 -33.2,-29.5 -45.4,-46.1 -218.3,-296.4 -439.68,-590.6 -652.94,-890.6 -162.03,-227.9 -314.37,-462.7 -469.37,-695.6 -42.78,-64.2 -80,-132.2 -119.01,-198.9 -13.91,-23.8 -25.11,-49.2 -38.36,-73.4 -21.41,-39.1 -20.74,-75.7 4.33,-114 32.18,-49.2 61.44,-100.4 91.32,-151.1 130.82,-221.9 264.68,-442.1 391.35,-666.4 210.88,-373.3 415.69,-750 625.99,-1123.6 82.09,-145.9 169.99,-288.6 259.49,-430.1 45.1,-71.3 99.5,-136.8 150.6,-204.2 16.6,-21.9 36.2,-41.4 54.5,-62.1 32.4,3.7 59.6,6.1 86.6,10.1 223.9,32.6 447.5,67.2 671.7,97.9 144,19.7 288.4,37.7 433.2,49.7 178.5,14.8 356.9,10.5 533.1,-26.9 34.1,-7.3 68.2,-16.3 100.6,-29 103.7,-40.7 149.2,-119.3 135.3,-231.5 -6.3,-51.1 -15.1,-101.9 -21.9,-153 -38.5,-286.3 -78.7,-572.4 -114.1,-859.1 -13.2,-107.6 -15.3,-216.5 -22.3,-324.9 -0.9,-14.5 -0.1,-29.1 -0.1,-54.2 19.8,-17 44.3,-36.5 67.1,-57.7 351.5,-327.6 703.7,-654.3 1053.6,-983.4 241.4,-227 477.7,-459.4 719.7,-685.6 164,-153.3 334.5,-299.8 501.2,-450.2 98.4,-88.7 196.1,-178.3 292.5,-269.2 63.1,-59.6 117.7,-127 163.4,-200.8 17.2,-27.7 33.2,-58.4 40.2,-89.9 18.5,-83.3 -53.4,-145.5 -133.8,-117.7 -20.5,7.1 -40.9,17.9 -57.9,31.4 -231.5,184.2 -493.5,320.8 -744,474.9 -550.1,338.6 -1105.1,669.4 -1645.5,1023.5 -337.1,220.9 -677.4,437.4 -1000.9,678.2 -109.2,81.2 -213.5,169 -318.8,255.3 -28.3,23.2 -53.3,50.7 -77.6,78.3 -62.8,71.2 -74.5,154.4 -49.7,243.1 35.2,125.8 68.8,252.2 110.3,376 97.3,289.9 183,582.7 241.5,883.1 4.5,22.9 7.3,46.3 12.2,78.5 -28.3,-9 -48.6,-15.2 -68.7,-22 -280.6,-94.8 -561,-190.1 -841.8,-284.2 -87.3,-29.3 -175.2,-56.9 -267.3,-66.5 -27.3,-2.9 -55.1,-2.8 -82.4,-0.5 -58.4,4.8 -105.9,31.4 -138.1,80.7 -53.31,81.6 -109.39,161.8 -156.49,247 -154.99,280.1 -307.83,561.5 -458.92,843.8 -153.69,287.1 -304.32,575.9 -456.36,863.9 -10.12,19.2 -20.86,38 -30.98,56.4 -9.87,-1.7 -15.56,-1.6 -20.24,-3.7 -116.13,-52.4 -238.33,-86.6 -360.08,-122.9 -361.7,-107.6 -717.48,-233 -1070.06,-367.1 -590,-224.6 -1185.07,-434.5 -1784.63,-632 -127.5,-42 -252.36,-92 -378.61,-137.8 -34.56,-12.6 -69.38,-24.8 -104.82,-34.4 -21.01,-5.7 -43.72,-9.5 -65.26,-8.1 -63.33,4.1 -95.11,68.9 -58.51,120.8 14.37,20.4 35.63,37.2 56.6,51.4 266.37,181.1 533.83,360.5 799.88,542.1 386.18,263.4 770.98,528.9 1157.2,792.3 298.03,203.3 596.55,405.8 896.47,606.3 119.28,79.7 242.92,152.9 364.56,229.1 9.23,5.8 18.41,11.7 31.15,19.8 -6.66,15.7 -12.09,30.7 -19.19,44.9 -33.78,67.4 -69.35,134 -101.77,202.1 -38.92,81.7 -66.81,167.1 -78.41,257.6 -13.69,106.8 12.8,200.6 85.19,280.8 34.53,38.3 68.89,76.7 103.81,114.6 206.99,224.7 413.25,450.1 621.4,673.8 329.82,354.4 660.92,707.5 991.49,1061.2 58.98,63.1 118.18,126.2 177.38,189.4 -2.9,85.7 -8.7,170.2 -7.9,254.7 1.9,187.6 5.7,375.3 11.8,562.9 1.8,54.9 11.3,109.9 21.8,164 16.8,85.9 90.6,129.6 174.6,103.1 45.4,-14.4 88.9,-35 133.2,-53.1 20.3,-8.3 40.2,-17.4 67.1,-29.1 -1,18.4 0.2,32.1 -2.8,44.9 -87,371.1 -143.9,747.8 -206.5,1123.4 -26.3,157.9 -49.3,316.3 -72.4,474.7 -6.6,45 -8.4,90.8 -12.7,139.1 -36,4.1 -68.7,6.6 -101,11.8 -129.6,20.9 -253.57,60.8 -374.69,111.3 -312.21,130.1 -590.14,314.9 -850.43,528.4 -393.83,323 -728.53,696.1 -973.47,1145.7 -103,189.1 -208.87,376.6 -291.6,575.9 -51.61,124.3 -94.14,251.3 -123.23,382.9 -21.81,98.8 -52,195.7 -72.21,294.7 -26.5,129.9 -42.4,261.4 -40.95,391.3 -4.79,5.3 -7.16,10.2 -9.66,10.3 -79.85,2.2 -148.83,38.7 -219.4,69.7 -59.48,26.1 -103.44,68.7 -131.98,127.7 -112.18,231.8 -229.04,461.5 -336.59,695.5 -226.67,493.2 -449.55,988.1 -671.62,1483.3 -45.07,100.5 -80.25,205.5 -118.84,308.9 -8.29,22.2 -13.33,46 -16.79,69.5 -4.51,30.7 3.7,57.9 27.79,79.8 113.03,102.7 223.33,208.6 339.15,308 121.81,104.6 235.65,216.1 343.12,335.4 245.54,272.7 469.4,562.1 684.42,859 295.81,408.5 592.12,816.6 874.77,1234.4 146.51,216.5 287.25,436.8 413.33,665.9 169.59,308.2 391.25,573 649.69,810.4 664.36,610.2 1426.99,1054 2274.29,1357.4 543,194.5 1094.1,359.6 1660.5,470.9 262,51.5 526.1,88.7 791.4,118.4 527.4,59.2 1056.6,84 1587,90.7 252.5,3.2 504,-13.5 755.4,-34.1 522.6,-42.7 1034.8,-143 1540.5,-278.8 299.5,-80.4 586,-196.2 864.4,-331.9 217.9,-106.1 398.4,-255.9 525.5,-466 95.9,-158.6 150.4,-326.9 131.9,-514.5 -1,-10.3 -0.1,-20.7 -0.1,-39.2 17.6,12.2 29.2,19.9 40.4,28.1 105.8,76.9 222,129.3 350.9,153.8 73.9,14 146.4,10.3 218.8,-7.7 103,-25.6 198.8,-68.2 284.9,-129.5 137.9,-98.2 276.6,-195.6 409.1,-300.7 308.7,-244.9 600.4,-509.9 899.5,-766.2 108.9,-93.3 223.4,-180.4 337.6,-267.2 267.5,-203.1 566.9,-347.8 876.1,-474.6 166.9,-68.4 334.6,-134.1 507.6,-185.9 56.3,-16.9 111.6,-37.5 166.1,-59.6 90.8,-36.8 131.2,-107.6 131.4,-203.8 0.1,-60.2 -13.3,-118.1 -40.4,-170.5 -33.7,-65.1 -69.6,-130.2 -113.2,-188.9 -144.4,-194.4 -322.3,-352.7 -531.6,-475.1 -68.3,-39.9 -137.5,-78.4 -206.2,-117.6 -15.8,-9.1 -31.3,-18.6 -49.9,-29.8 7.2,-113.6 42.5,-220 68.5,-333 42.7,-7.9 83.8,-17 125.3,-22.7 151.3,-21 302.7,-40.9 454.1,-61 25.5,-3.4 51.2,-5.3 76.8,-8.1 32.9,-3.6 66.1,-5.8 98.7,-11.5 133.5,-23.4 197.3,-108.3 182.8,-242.5 -6.3,-59.3 -24.6,-115.6 -51.8,-168 -39,-75 -81.7,-148.2 -123,-222 -8.7,-15.6 -18.4,-30.6 -30,-49.8 19.4,-7.6 34.1,-14.2 49.4,-19.1 125,-39.6 226.8,-112.4 307.2,-215.3 30.5,-39.1 60.2,-79.2 87,-120.9 163.9,-255.7 326.9,-511.9 490.1,-768 27.7,-43.4 55.7,-86.7 82,-131 29.4,-49.7 66.9,-92.5 111.6,-127.9 31.8,-25.1 39.7,-55.9 35.1,-92.6 -4.9,-39.8 -24.2,-72.1 -52.1,-101 -214.9,-222.3 -429.9,-444.5 -643.6,-668 -123.5,-129.2 -250.5,-254.5 -390,-366.5 -48.6,-39 -99.6,-75.2 -152.4,-114.9 6.6,-12.6 12.9,-25.2 19.7,-37.5 66.8,-120.7 134.8,-240.8 199.9,-362.4 18.9,-35.3 33.4,-74.1 43,-113.1 19.7,-79.5 -12.4,-147.6 -86,-183.7 -32.7,-16 -68.4,-28.4 -104.2,-35.2 -251.2,-47.4 -501.8,-99.9 -754.6,-137 -227.4,-33.3 -457.3,-49.1 -686.2,-72.2 -21.8,-2.2 -44.1,-1.6 -66.2,-1.1 -77.9,1.9 -147.9,24.5 -207.5,77.1 -58,51.2 -117.7,100.3 -176.7,150.3 -11,9.3 -22.2,18.3 -38.5,31.6 0,-15.9 -1.7,-25.8 0.2,-35 32.5,-149.2 66.7,-297.9 97.6,-447.4 22.4,-108 43.3,-216.5 59.8,-325.6 22.4,-148.1 -4.5,-293.3 -34.6,-437.9 -94.7,-453.7 -238.5,-891.8 -415.5,-1319.5 -55.7,-134.7 -120.8,-264.7 -199.9,-387.1 -83.9,-129.7 -167.5,-259.9 -257.1,-385.7 -104.9,-147 -174.3,-306.2 -194,-486.4 -26.2,-239.6 -55.2,-479 -78.8,-718.8 -17.6,-179.4 -30,-359.4 -42.4,-539.3 -16.9,-244.2 -30,-488.6 -47.8,-732.7 -12.9,-177.2 -51.3,-349.2 -118.1,-514.5 -64.2,-158.8 -132.9,-315.4 -220,-463.3 -7.5,-12.7 -15,-25.4 -21.7,-38.5 -165.8,-324.5 -377.9,-618 -603.8,-902.4 -95,-119.7 -186.2,-241.9 -256.6,-378.7 -24.2,-47.1 -58.9,-88.8 -89.1,-132.7 -63.6,-92.2 -159.4,-126.3 -263.7,-142.2 -54.4,-8.3 -109.7,-11.2 -164.7,-15.2 -240.5,-17.2 -480.7,-39.1 -721.5,-49.5 -248.1,-10.6 -496.9,-16.9 -745.2,-12.2 -277.7,5.2 -555.3,22.3 -832.6,39.3 -168.9,10.4 -337.4,28.8 -505.8,46.2 -204.5,21.2 -393.8,87.5 -569.7,194.9 -59.3,36.2 -125.1,61.8 -188.3,91.6 -24.9,11.7 -51.6,20 -76,32.7 -283.8,148.1 -571.5,289.1 -839.6,465.8 -204.8,135.1 -396.5,287.1 -584,444.6 -286,240.6 -564.6,489.7 -835.3,747.3 -74.6,71 -146.3,145.3 -216.1,221.1 -81.6,88.7 -146.4,188.8 -189.6,302.2 -37.4,98 -76.2,195.3 -114.8,292.8 -8.8,22.2 -17.6,44.7 -29.3,65.3 -285.1,503.7 -530.3,1026.4 -748.9,1561.9 -12.5,30.7 -26.3,60.8 -39.8,91 -1.3,2.8 -5.4,4.4 -13.5,10.7 -64.3,-401.8 -112.8,-802.3 -157.5,-1203.3 -44.8,-402.2 -92.7,-804 -139.5,-1208.1 16.2,-16.7 31.1,-32.6 46.7,-47.9 231.3,-227.4 475.1,-440.6 731.1,-639.8 404.1,-314.4 821,-610.3 1254.3,-883.7 596.6,-376.5 1230.1,-670.5 1903.8,-879.4 318.3,-98.6 638,-191.5 964.1,-260.7 362.7,-76.9 729.2,-121.2 1099.5,-140.3 304.5,-15.7 606.7,1.5 909.4,30.9 249.4,24.3 496.7,60.2 743.4,103 158.3,27.5 312.3,69.1 461.4,128.9 87.1,34.9 174.7,68.4 262.5,101.7 22.8,8.6 41.3,20.1 58,39.2 39,44.8 95.9,47.6 143.2,10.9 30.5,-23.7 50.4,-55.4 54.7,-93 9.2,-81.4 40.1,-156.5 63.4,-233.9 10,-33.4 22.2,-66.3 34.6,-98.9 196.3,-516.1 364.9,-1042 548.4,-1562.6 74,-209.9 138.8,-423 205.4,-635.5 21.5,-68.2 37,-138.5 51.7,-208.7 6.4,-30.1 7.2,-62.4 4.6,-93.3 -4.9,-59.4 -42,-98.2 -99.7,-109.2 -79.5,-15.2 -159.2,-29.3 -238.6,-44.6 -44.1,-8.4 -87.9,-9.6 -131.2,3.3 -65.2,19.3 -131.3,36.3 -195.1,59.7 -570.1,208.8 -1140,418.5 -1709.6,628.8 -208.8,77.1 -415.8,159.4 -625.4,234.3 -115.8,41.5 -235.2,72.8 -353.1,108.5 -8.6,2.6 -17.6,3.9 -30.2,6.7"
         style="fill:#231f20;fill-opacity:1;fill-rule:nonzero;stroke:none"
         id="path78" /><path
         d="m 14234.9,13294.8 c -1.3,-66.5 -52.4,-100.5 -103.5,-73.2 -26.6,14.3 -51.4,36.7 -69.7,60.9 -52.1,68.9 -103.6,138.7 -149.7,211.6 -204.5,323.6 -396.1,654.5 -567.4,997.2 -129.2,258.2 -263.6,513.8 -396.8,770 -26.2,50.6 -57,98.8 -86.7,147.4 -25.3,41.6 -59.6,74.4 -102,98.8 -35.1,20.2 -69.6,41.4 -104.6,61.6 -116.7,67.2 -225.4,145.8 -329.3,231.3 -241.7,198.8 -386.3,454.9 -445.9,760 -47.1,240.8 -68.8,484.5 -68.4,729.7 0.4,218.9 6.6,437.8 9.8,656.7 1.1,69.9 1.6,139.8 0.8,209.7 -0.6,66.4 -1,132.4 21.4,196.3 4.2,11.9 3.8,25.4 5.8,38.1 2.9,18.2 4.9,36.6 9.4,54.4 7.8,31.4 25.8,49.2 46.3,46.2 27.8,-4 33.5,-26.3 36,-48.8 6.1,-54.7 14.9,-109.6 15.4,-164.5 1.2,-131.4 24.1,-259.7 46.8,-388.4 66.4,-377.4 203.4,-727.8 393.6,-1059.8 145.6,-254.1 343.7,-453 594.2,-601.3 109.2,-64.6 219.2,-128.1 337.4,-175.7 62.2,-25.1 109.6,-67.7 141.1,-126.2 21.8,-40.4 41.2,-82.3 58.2,-124.8 81.6,-203.6 138.3,-415.2 195.8,-626.3 149.7,-550 297.9,-1100.4 447.1,-1650.6 16.4,-60.3 36,-119.7 53.4,-179.7 5.6,-19.3 9,-39.3 11.5,-50.6"
         style="fill:#231f20;fill-opacity:1;fill-rule:nonzero;stroke:none"
         id="path80" /><path
         d="m 15724,21038.3 c -155.1,-144.7 -351.2,-243.5 -522.6,-376.8 -44.9,-34.9 -99.3,-45.9 -153.9,-56.3 -339.7,-64.9 -679.1,-131.7 -1019,-195.2 -202.5,-37.9 -405.7,-72.5 -609,-105.7 -181.5,-29.7 -363.3,-58.1 -545.7,-81.6 -98.3,-12.7 -198.1,-15.6 -297.3,-19.7 -93.7,-3.8 -131.9,55.8 -88.1,140.6 27.7,53.7 61.1,105.4 98.6,152.8 127.9,161.6 258.8,320.8 388.6,480.9 9.2,11.4 23.7,20.8 27.9,33.7 15,45.2 53.1,57.1 91.5,71.3 280.4,103.6 568.6,176.8 863.3,227 342.7,58.3 684.2,124.4 1027.1,181.4 134,22.2 270.6,28.6 406,42.5 53.4,5.5 102.8,-9.8 149.1,-32.5 75.8,-37.3 151.5,-75.6 223.6,-119.3 83.3,-50.5 162.8,-107.4 243.9,-161.6 7.6,-5.1 15.1,-10.7 21.6,-17.1 37.2,-37.1 32.7,-90 -14.3,-116.2 -28.2,-15.7 -61.3,-26.2 -93.4,-30.7 -61.7,-8.6 -124.3,-11.4 -197.9,-17.5"
         style="fill:#231f20;fill-opacity:1;fill-rule:nonzero;stroke:none"
         id="path82" /><path
         d="m 17128.8,16219.8 c 18.8,-25 38.5,-54 61,-80.6 88.8,-105.6 178.4,-210.6 268.1,-315.4 14.4,-16.8 30.4,-32.1 46.3,-47.5 54.6,-52.6 119.6,-76.2 195.7,-72.6 65.4,3.2 127,18.6 185.7,47.3 89.8,43.7 174.1,95.8 249.8,161.2 114.2,98.5 228.1,197.4 341.8,296.6 53,46.3 99.9,36.8 124,-28.7 11.3,-30.9 17.8,-63.8 23.6,-96.3 12.6,-70.6 22.8,-141.7 35.3,-212.3 5.1,-28.8 12.2,-57.4 20.9,-85.3 9.3,-30.1 12.1,-58.4 -13.1,-81.7 -24.9,-22.9 -53.7,-22 -82.1,-7.1 -75.3,39.5 -142.3,20.5 -205.2,-28.1 -51.6,-39.8 -93.8,-88.5 -126.1,-144.8 -26.5,-46.2 -51.7,-93.5 -72.9,-142.3 -25.9,-59.5 -68.8,-93.2 -131.9,-104.4 -255.2,-45.5 -511.3,-60.5 -769.1,-23.7 -79.9,11.4 -110.1,38.5 -123.4,116.8 -5.3,30.8 -4.9,62.5 -10.7,93.1 -7.7,41.3 -13.3,84.4 -29.8,122.4 -30.4,70.1 -86.7,93.3 -158.2,67.3 -49.9,-18.1 -99.5,-39.5 -145.3,-66.2 -119.5,-69.7 -232.4,-148.6 -323.1,-255.3 -31.9,-37.6 -75.8,-46.1 -120.7,-37.1 -29.9,5.9 -60,18.8 -85.9,35.1 -71.2,44.5 -119.9,108.4 -144.2,189 -15.9,52.7 -30.6,106.1 -40.7,160.2 -4.5,23.9 0.6,51.1 7.3,75.2 6.8,24.4 20.3,47.1 32.1,70 97.3,188.3 208.8,367.8 336.6,537.7 -5.1,106.5 -9.1,213.1 -15.6,319.5 -19.6,323.7 -14.2,647.5 -0.2,971.2 6.6,154.4 16.8,308.6 26.1,462.9 2.7,45.9 7.7,91.6 12.4,137.4 1.2,10.8 3.7,22 8.5,31.7 14.3,28.7 49.8,31 66.2,3.3 8,-13.7 12.2,-30.8 14,-46.9 6.7,-60.3 12,-120.8 17.4,-181.3 27.3,-306 53.6,-612.1 82,-918 16.4,-175.8 34.9,-351.5 54.8,-526.9 12,-104.9 -12.2,-200.9 -61.2,-292.1 -61.1,-113.7 -131.3,-221.5 -208.2,-325.2 -27.3,-36.9 -54.5,-74.2 -78.2,-113.5 -52,-86.3 -48.4,-178.9 -24.6,-272.5 2.1,-8.4 8.7,-15.7 15,-26.5 12.6,4.7 25.4,6.9 35.2,13.5 36.7,24.5 73.5,49.2 108.4,76.1 93.4,72.1 189.7,139.5 295.6,192.3 8.2,4 15.8,9.1 25.5,14.8 0,12.6 1.3,25.4 -0.2,37.7 -19.8,155.6 -22.9,312.1 -23.9,468.4 -1.4,230.2 8.5,459.9 30.6,689.1 20.9,216.1 40.1,432.4 61.7,648.3 12.5,124.5 27.8,248.6 43,372.7 2.9,23.5 7.3,48.5 18.3,68.9 15.4,28.4 14.4,55.5 9.7,85.2 -55.6,350.8 -130.7,697.7 -208.1,1044.2 -71.4,319.5 -133.4,641 -174.4,966.1 -4.8,38.3 -11.8,76.4 -16.1,114.7 -3.1,27 -3.2,54.3 -4.8,85.5 17.5,3.9 30.4,6.8 44.7,10.1 7.6,-15.1 15.6,-25.8 18.4,-37.7 9.9,-43 17,-86.7 27.1,-129.6 5.8,-24.8 15.9,-48.5 23.1,-73 21.7,-74 47.3,-147.1 63.5,-222.4 67.9,-314.5 133.2,-629.6 198.8,-944.7 67.4,-324.1 134.8,-648.2 200.1,-972.7 10.5,-51.8 14.5,-105.9 13.5,-158.8 -3.4,-174.8 -6.8,-349.7 -16.8,-524.2 -18.1,-314.3 -23.4,-628.8 -27,-943.5 -0.9,-79.1 -0.1,-158.2 -0.1,-246.6"
         style="fill:#231f20;fill-opacity:1;fill-rule:nonzero;stroke:none"
         id="path84" /><path
         d="m 17980.3,21106.3 c -16.6,28.1 -9.8,52.6 7.8,73.4 22.4,26.6 47,51.4 71.7,76 28.7,28.4 60.4,54 87.5,83.8 121.1,133.6 243.5,266 376.5,388 43.3,39.7 87.7,78.6 134.5,114.1 74.2,56.4 158.6,79.5 252.8,78.6 348.7,-3.3 693.8,-38.4 1035.7,-106.6 151.5,-30.2 303.9,-55.6 455.8,-83.5 21.6,-4 43,-9.7 64.5,-14.5 87.9,-19.7 159.1,-64.8 213.4,-137.2 32,-42.6 66.7,-83.3 99.2,-125.5 103.3,-134.3 212.4,-263.3 329.8,-385.7 63.6,-66.3 122.2,-137.5 180.8,-208.3 23.3,-28 43,-59.8 59.7,-92.3 10.5,-20.5 16.4,-45.4 17,-68.6 1.5,-53.7 -41.9,-91.4 -94.3,-79.9 -35.4,7.8 -71.3,20.9 -102.3,39.5 -265.1,159.9 -550.6,280 -823.3,424.9 -120.6,64.1 -248.8,84.3 -384.6,70.2 -210.4,-21.9 -421,-42.4 -631.8,-58.9 -286,-22.5 -572.4,-40.6 -858.6,-60.7 -58.7,-4.2 -117.3,-10.9 -176.1,-13.1 -53.2,-1.9 -106.7,-1.5 -159.8,2.2 -45.9,3.2 -91.4,10 -117.5,58.3 -6.8,12.5 -26.4,18.1 -38.4,25.8"
         style="fill:#231f20;fill-opacity:1;fill-rule:nonzero;stroke:none"
         id="path86" /><path
         d="m 17401.6,13154.9 c -194.8,0.2 -374.8,48.1 -535.5,161.8 -40.4,28.6 -83.7,53.5 -127,77.6 -52.8,29.3 -109,43.4 -170.1,31 -122.4,-25 -245.4,-47.7 -367.5,-74.4 -136.9,-29.9 -275.1,-49.4 -414.4,-62.6 -18.3,-1.8 -36.8,-1.4 -55.1,-2.6 -96.9,-6.5 -180.3,22 -252.3,88.9 -92.9,86.4 -189.3,169.1 -282.7,255 -22.8,20.8 -43,46 -58.9,72.4 -31.6,52.4 -6.3,97.7 55,96.8 55.1,-0.9 110.4,-5.8 164.9,-13.4 259.1,-35.8 518.1,-28.8 776.1,5.5 151.1,20.1 300.8,51.7 451,78.8 19.7,3.6 39.1,10.4 57.9,17.9 56,22.2 111.4,21.1 166.6,-1.9 74.7,-31.1 148.3,-65.1 224,-93.6 70.4,-26.4 141.5,-53.7 214.7,-68.8 135.9,-28.1 271.5,-12.5 404,25.1 123,34.8 238.2,87.4 340.1,166.2 37.8,29.2 80.3,44.1 127.8,44.9 84.6,1.3 169.3,3.5 253.9,2.9 77.3,-0.6 154.5,-4.8 231.7,-6.9 158.2,-4.2 316.4,-8.4 474.6,-11.8 64.3,-1.4 128.7,1.2 192.9,-1.6 70.8,-3.1 98.1,-49.9 65.2,-113.4 -15.8,-30.5 -38.3,-58.3 -61.7,-83.9 -30.9,-33.9 -67,-63.1 -98.4,-96.6 -86.7,-92.6 -198.3,-128.9 -319.2,-147.2 -158.7,-24 -318.7,-29 -478.8,-32 -107.5,-2 -206.9,-26.5 -298.7,-83.9 -56.1,-35 -113.6,-68.2 -172.4,-98.6 -159,-82.4 -327.4,-130.9 -507.7,-131.6"
         style="fill:#231f20;fill-opacity:1;fill-rule:nonzero;stroke:none"
         id="path88" /><path
         d="m 20116.4,19908.9 c -10.4,1.5 -19.4,3.9 -28.4,4 -193.1,1.6 -386.3,4.2 -579.5,3.5 -67.9,-0.3 -129.1,-27.5 -183.9,-67.4 -11.5,-8.4 -23,-19.3 -29.6,-31.7 -69.3,-129.9 -105.5,-268.2 -81,-415 27.3,-163.2 116.5,-280.9 280.1,-329.6 137.9,-41.1 275.4,-40.5 411.1,14.3 43.4,17.6 83,39 117.8,70 126,112.4 188.9,256.3 204.5,421.4 4.3,44.9 -2.6,91.7 -10.2,136.7 -12.2,72.9 -57.2,130.4 -100.9,193.8 z m -1346.3,-911.3 c -69.9,4.6 -135.8,11.6 -201.9,12.4 -47,0.5 -92.9,16.5 -141.5,2.9 -26.9,-7.4 -43.3,19.2 -48.7,43.2 -10.5,46.5 -22,93.7 -24.1,141 -2.1,43.5 6.9,87.7 12.3,131.5 4.9,39.8 28.7,62.5 67.9,68.9 27.2,4.4 54.6,11.7 81.9,11.5 49.4,-0.1 81,23.8 109.6,61.6 57.6,76.2 116.4,151.8 178.9,224.1 72.2,83.5 148.5,163.4 223.6,244.3 73.2,78.8 157.7,133 267.8,151.9 157.6,27.2 312.9,68.1 473.5,76.6 137.8,7.3 275.7,17.6 413.6,18.6 214,1.5 413.9,-59.8 603.4,-155.7 40.5,-20.5 77,-50.1 113,-78.4 50.8,-39.9 74.4,-94.6 77.4,-158.6 5.4,-116.6 -4.4,-231.8 -34.5,-344.7 -13.7,-51.4 -31.1,-101.9 -49.1,-152.1 -6.6,-18.7 -17.6,-36.5 -29.8,-52.3 -17.3,-22.3 -42,-29.2 -69.4,-21.7 -24.3,6.7 -43.8,29.2 -42.4,58.4 5.4,115.2 -23.2,226.4 -38,339.2 -12.2,92.7 -52.7,171.8 -121.4,235.4 -11.7,10.9 -27.1,22.8 -41.8,24.4 -80.2,8.8 -160.5,18.5 -247.4,15.6 6.8,-19.7 11.4,-35.1 17.2,-50 46.8,-120.3 56,-242.8 23.6,-368.2 -30.1,-116.7 -72.3,-227.6 -148.4,-323.5 -64.3,-81 -142,-143.4 -238.1,-182.6 -71.6,-29.2 -142.8,-58.8 -221.9,-62.2 -137.3,-6 -267.6,20.8 -388.9,84.8 -104.4,55 -168.4,145.9 -211.5,253 -49.8,123.5 -56,250.2 -26.7,379.3 5.5,24.7 10.9,49.5 18,82.1 -19,-12.1 -31.9,-18.5 -42.5,-27.6 -37.6,-32.3 -75.2,-64.8 -111.5,-98.7 -83.3,-78 -166,-156.6 -248.6,-235.4 -32.2,-30.7 -66.3,-47.6 -114.1,-40.1 -41.2,6.5 -84.2,1.3 -131.1,1.3 4.1,-60.2 7.8,-116 11.7,-173.9 13.6,-13.7 32.9,-6.5 50.6,-7.7 60.5,-4.3 121.2,-6.9 181.4,-13.2 25.2,-2.6 49.7,-12.7 74.3,-19.8 20.9,-6 41.3,-14.1 62.4,-18.7 22.9,-5.1 39.7,-17.2 54.9,-34.4 48.7,-55.1 99.2,-108.7 147.3,-164.4 26.8,-31.1 57.3,-45.7 99.5,-48.6 233.3,-15.8 466.6,-26.1 700.6,-25.1 113.8,0.5 227.6,-9.2 342.1,-14.4 96.5,72 204,124.8 309.6,180.6 37.2,19.7 77,35 117.1,48 22,7.1 47.5,9.2 70.5,6.2 48.5,-6.4 70.8,-51.9 47.7,-94.8 -8.5,-15.8 -20.8,-30.8 -34.5,-42.3 -97.3,-81.6 -194.1,-163.9 -293.7,-242.6 -75.9,-60 -167.3,-82.3 -261.6,-94.2 -166,-20.8 -330.8,-3.9 -495.2,16.5 -175.3,21.6 -349.9,48.5 -525.4,68.2 -79,8.8 -141.4,42.7 -187.8,102.7 -50.5,65.3 -94.3,135.8 -141,204 -13.3,19.5 -26.4,39.2 -38.9,57.7"
         style="fill:#231f20;fill-opacity:1;fill-rule:nonzero;stroke:none"
         id="path90" /><path
         d="m 16665.7,12638.5 c -41.7,24 -77.2,47 -114.8,65.4 -93.1,45.6 -179.4,101.5 -259.4,166.9 -26.9,21.9 -51.9,47.1 -73.3,74.3 -36.9,46.8 -50.1,102 -43.3,161.1 8.3,71.1 56.8,98 121.8,67.8 61.6,-28.7 121.7,-60.7 184.1,-87.7 177.6,-76.9 365.1,-110.3 556.9,-126.8 173.6,-14.9 345.8,2.1 517.8,18.4 153.8,14.6 306.9,36.4 460.5,52.7 109.7,11.6 219.8,19.6 329.8,28.5 16.4,1.4 33.3,0.9 49.5,-1.6 17,-2.5 34.5,-10.8 33.8,-30.2 -0.5,-12.4 -8.7,-28.1 -18.5,-36.1 -62.3,-51 -134.4,-81.6 -212.8,-98.6 -46.6,-10.1 -92.9,-21.5 -145,-33.6 8.9,-14.2 14.1,-24.8 21.4,-33.7 22.3,-26.9 46,-52.7 68.1,-79.8 77.9,-95.5 117.5,-206.9 133.8,-327.7 1.7,-12.7 1.8,-25.7 2,-38.6 1.3,-75.3 -48.1,-121.9 -125.9,-117.1 -208,12.9 -415.6,-1.4 -622.3,-25.5 -283.2,-33.1 -566.1,-69 -849.1,-103.3 -20,-2.5 -40.6,-3.7 -60.6,-1.9 -45.9,4.1 -73.8,35.1 -72.9,80.7 0.3,18.2 4.1,36.7 9.1,54.2 28.9,100.7 58.7,201.2 88.2,301.8 6.2,20.9 12.5,41.8 21.1,70.4"
         style="fill:#231f20;fill-opacity:1;fill-rule:nonzero;stroke:none"
         id="path92" /><path
         d="m 13568.3,19566.8 c -3.3,-50.7 -8.6,-101.8 -9.6,-153.1 -1.8,-84.2 16.7,-164.9 56.9,-238.8 104.1,-191.2 289.1,-306 509.7,-271.3 161.9,25.5 291,108.1 383.5,245.1 56.3,83.5 91.7,175.7 110.8,274.1 19.8,102.2 5.5,201.4 -32.2,297.3 -9.3,23.5 -24.2,44.7 -35.9,65.8 -15.2,1.4 -26.1,3.5 -36.9,3.3 -263.8,-3.9 -524.1,-36.4 -781,-96 -36.5,-8.4 -69.1,-24.8 -95.3,-52.2 -22.9,-23.8 -45.3,-47.9 -70,-74.2 z m 1238.2,231.5 c -37,-1.6 -66.1,-2.9 -103.3,-4.6 8.1,-25.6 14.9,-45.7 20.8,-66.1 119.9,-414.2 -110.3,-772.6 -444,-897.3 -211.6,-79.1 -413.5,-49.1 -595.7,87 -89.7,67 -147.8,159.6 -181.4,264.7 -23.8,74.8 -35.6,153.5 -53.4,233.3 -15,1.8 -19.8,-18 -29,-29.5 -75,-93.2 -148.4,-187.6 -223.9,-280.5 -25.4,-31.3 -54.1,-60.2 -83.3,-88.2 -27.3,-26.2 -54.7,-28.9 -79.5,-12.1 -21.3,14.5 -30.3,42.6 -19.3,74.3 8.5,24 19.7,47.7 33.4,69.3 52.1,82.4 103.3,165.5 159.3,245.3 105.7,150.5 215.2,298.4 321.4,448.6 22,31.2 48.9,49.2 85.2,54.3 30.9,4.3 62,8.9 93.2,10 126.8,4.6 253,11.5 378.9,32.8 179.5,30.4 360.5,51.9 540.7,78.1 52.7,7.7 104.9,19.4 157.6,27.9 25.2,4 51.6,8.8 76.5,5.6 20.4,-2.6 44.3,-12 58,-26.5 68.1,-72.1 134.5,-145.9 199.2,-221.2 44.3,-51.6 82.8,-108.3 127.3,-159.8 75.1,-87 137.6,-182 187,-285.4 19.3,-40.4 46.1,-69 88.3,-85.1 61.6,-23.4 107.4,-69.7 154.6,-113 35.9,-32.9 41.8,-76.6 23.3,-121.2 -27.3,-66 -82.2,-101.8 -143.3,-129.6 -25.5,-11.6 -54.8,3 -65.1,34.9 -9.9,30.9 -12.4,64.5 -16.6,97.1 -2,16.1 -0.3,32.6 -0.3,54.1 -22.6,6.2 -44.8,13.7 -67.5,18.4 -54.3,11.3 -94.6,35.7 -109.6,94.5 -7.1,27.9 -22.2,54.9 -38.6,79 -96.6,141.4 -196,280.9 -322.2,398.3 -41.6,38.8 -85.6,75.1 -128.7,112.6"
         style="fill:#231f20;fill-opacity:1;fill-rule:nonzero;stroke:none"
         id="path94" /><path
         d="m 14079.5,18288 c -152.3,9.7 -295.5,17.9 -438.5,28.8 -36.3,2.7 -72.4,12.3 -107.8,21.9 -34.6,9.5 -62.9,30.5 -83.2,60.4 -65.9,97.4 -131.5,194.9 -196.8,292.7 -19.4,29 -37.8,58.8 -55.9,88.7 -8.5,14.1 -17.3,28.6 -22.2,44.2 -12.4,38.7 13,74 53.2,68.5 28.1,-3.8 57.6,-14.9 81.2,-30.7 77.9,-52.1 153.7,-107.4 229.6,-162.3 37.2,-26.9 73,-55.9 109.6,-83.7 27.3,-20.7 57.9,-29 92.6,-29.2 180.3,-0.8 360.6,-2.5 540.8,-4.9 88.3,-1.2 176.5,-4.5 264.8,-6.8 7.3,-0.2 14.7,-0.6 22,-1.2 94.8,-7.6 181.8,11.6 261.3,66.8 66.4,46.1 136.2,87.4 204.6,130.6 13.9,8.8 28,17.5 42.8,24.9 18.3,9 36.2,5.8 51.6,-7 17.2,-14.3 23.7,-34 16.2,-54.6 -6.1,-16.9 -16.1,-33 -26.9,-47.6 -75.8,-102.2 -161.2,-195.9 -252.2,-284.8 -42.9,-42 -90.6,-62.8 -152.4,-63.9 -73.2,-1.4 -146.1,-16.3 -219.4,-22.1 -141,-11 -282.3,-19.7 -415,-28.7"
         style="fill:#231f20;fill-opacity:1;fill-rule:nonzero;stroke:none"
         id="path96" /><path
         d="m 19718.7,20448.4 c -0.5,55.1 32.9,80.7 79.4,93.2 19.3,5.2 39.7,7.3 59.7,8.5 101,5.9 202.2,8 302.8,17.2 160.6,14.6 319.9,11.3 478.3,-19.7 89,-17.4 174,-47.2 252.7,-93 48.1,-28 91.1,-62.4 123.4,-108.6 31.6,-45.1 48.5,-94.6 44.4,-150.4 -2.1,-28.6 -11.8,-53.9 -32,-74.4 -35.8,-36.4 -87.4,-35.8 -122.4,1.2 -6.2,6.6 -10.7,14.9 -16.6,22 -45,55.1 -98.8,98.2 -165.4,125 -103.7,41.9 -211.5,63.5 -322.6,67.8 -169.2,6.7 -338.5,10.8 -507.7,16.4 -44.1,1.5 -88.2,4.7 -132.3,7.4 -12.8,0.9 -25.7,2.6 -38.3,4.8 -16.9,3 -32.6,8.8 -38,27.4 -6.2,21.6 5.2,34.9 22.4,45.2 3.1,1.8 5.6,4.5 12.2,10"
         style="fill:#231f20;fill-opacity:1;fill-rule:nonzero;stroke:none"
         id="path98" /><path
         d="m 14710.3,14312.1 c -8.7,-124.4 -17.5,-232.6 -23.3,-341 -5.2,-97.3 -6.9,-194.8 -10.6,-292.2 -1,-27.5 -0.9,-55.6 -6.5,-82.3 -9,-42.6 -43.1,-69.1 -81.9,-69 -36.9,0.1 -67.8,24.2 -81,63.6 -2.4,6.9 -4.2,14.1 -5.5,21.4 -35.4,193.9 -94.3,381.4 -153.8,568.8 -11.1,35 -21.1,70.4 -30.7,105.9 -11.1,41.3 -3.6,80.9 17,117.2 15.3,27 32.8,53.5 53,77.1 48,55.7 98.1,109.6 147.4,164.2 4.9,5.4 10.3,10.6 16,15.2 59.9,48.3 138,23.9 154.7,-51.2 8.3,-37.2 7.6,-76.7 8.5,-115.2 0.7,-33 -2.6,-66.1 -3.2,-99.2 -0.6,-33.1 -0.1,-66.2 -0.1,-83.3"
         style="fill:#231f20;fill-opacity:1;fill-rule:nonzero;stroke:none"
         id="path100" /><path
         d="m 8503.77,17313.6 c 5.42,-2.9 15.89,-6.6 24.13,-13.1 8.5,-6.7 15.55,-15.6 22,-24.5 111.95,-153.8 244.57,-288.9 382.97,-418.3 167.83,-157 338.06,-311.3 506.9,-467.1 40.51,-37.4 80.17,-75.8 119.19,-114.7 12.83,-12.8 24.36,-27.8 32.97,-43.7 9.21,-17 8.41,-36.3 -4.85,-51.8 -14.78,-17.3 -34.66,-21.7 -54.93,-12.1 -21.45,10.2 -42.64,21.8 -61.96,35.6 -164.72,117.4 -326.11,239.2 -475.24,376.3 -128.67,118.2 -252.51,241.4 -365.65,374.7 -42.7,50.4 -82.59,103.5 -119.29,158.3 -21.13,31.6 -35.46,68.4 -48.59,104.4 -6.58,18 -6.57,39.9 -4.2,59.4 2.82,23.3 21.61,37.2 46.55,36.6"
         style="fill:#231f20;fill-opacity:1;fill-rule:nonzero;stroke:none"
         id="path102" /><path
         d="m 14507.5,20240.5 c 12.3,6.2 21.6,14.1 31.6,15.3 58.1,7 116.3,16.7 174.5,17.1 48.4,0.3 95.5,3.4 141.3,17.6 85.5,26.4 170.9,18.3 256.4,2 35.7,-6.7 63.4,-26.1 83.4,-57.9 110.6,-175.7 218.3,-353.2 312.8,-538.3 20,-39.2 37.8,-79.6 54.1,-120.5 6.6,-16.5 8.5,-35.7 8.7,-53.6 0.2,-20.2 -12.3,-34.3 -30.8,-41.8 -19.2,-7.8 -36.1,-1.9 -50.6,11.5 -5.4,4.9 -9.7,11.1 -13.8,17.1 -75.7,108.4 -152.2,216.3 -226.7,325.5 -60.1,88 -119.2,176.6 -175.7,266.9 -22.1,35.3 -49.7,48.5 -89.7,51.8 -141,11.9 -281.7,26.5 -422.4,40.5 -40.2,4 -41.6,5.9 -53.1,46.8"
         style="fill:#231f20;fill-opacity:1;fill-rule:nonzero;stroke:none"
         id="path104" /><path
         d="m 20007.4,19498.5 c -0.7,-134.3 -82.2,-249.4 -205.1,-290 -48.8,-16.1 -97.5,-16.7 -145.6,1.6 -99.3,37.8 -163.6,109.5 -195.7,209.5 -16.2,50.5 -11.5,102.4 9.8,150.8 52.3,118.5 141.5,194.4 268.5,223 21.1,4.7 44,4.5 65.6,2.3 13.6,-1.4 34,-7.7 38.2,-17.4 14.5,-34 47.4,-44.1 72.5,-64.2 57.1,-45.7 92.3,-127.8 91.8,-215.6"
         style="fill:#231f20;fill-opacity:1;fill-rule:nonzero;stroke:none"
         id="path106" /><path
         d="m 14375.2,19377.5 c -4.4,-91.6 -60.8,-183.5 -168,-240.8 -102.8,-55.1 -233.2,-23.2 -311.5,75.3 -72.1,90.5 -78.1,190.9 -33.6,295.9 43.5,102.8 121.5,159.5 232,168.2 149.4,11.9 281.5,-115.3 281.1,-298.6"
         style="fill:#231f20;fill-opacity:1;fill-rule:nonzero;stroke:none"
         id="path108" /><path
         d="m 14023.9,19476.9 c 0,-58.5 -47.4,-106 -106,-106 -58.5,0 -105.9,47.5 -105.9,106 0,58.5 47.4,106 105.9,106 58.6,0 106,-47.5 106,-106"
         style="fill:#ffffff;fill-opacity:1;fill-rule:nonzero;stroke:none"
         id="path110" /><path
         d="m 19663.3,19676.9 c 0,-58.5 -47.5,-106 -106,-106 -58.5,0 -106,47.5 -106,106 0,58.5 47.5,106 106,106 58.5,0 106,-47.5 106,-106"
         style="fill:#ffffff;fill-opacity:1;fill-rule:nonzero;stroke:none"
         id="path112" /></g></g></svg>
