<?xml version="1.0" encoding="utf-8"?>
<svg viewBox="0 -0.004 509.345 660.051" xmlns="http://www.w3.org/2000/svg">
  <g id="g8" transform="matrix(1.333333, 0, 0, -1.333333, 0, 720.493347)">
    <g id="g10" transform="scale(0.1)">
      <path d="m 1276.53,3956.9 c 0,0 26.85,5.91 51.87,14.74 2.92,1.01 5.2,3.38 6.11,6.35 5.81,1.66 12.83,3.85 18.25,5.09 11.16,2.6 7.2,22.33 -6.09,18.26 -71.65,-21.9 -61.76,-26.65 -111.09,-30.45 -178.93,-14.21 -165.31,39.93 -316.557,-43.96 -67.543,-37.25 -153.835,-156.92 -184.214,-208.44 -96.942,-163.81 -175.758,-453.87 -194.891,-594.35 -14.617,-105.55 0.969,-206.65 28.375,-233.33 -1.285,-5.67 5.664,-12.69 13.137,-10.18 5.472,1.84 6.093,5.93 8.047,11.36 l 1.445,4.02 -0.512,-0.93 c 168.973,456.94 106.633,163.65 127.656,484.81 13.7,156.3 179.864,416.27 558.464,577.01" style="fill:#b82327;fill-opacity:1;fill-rule:nonzero;stroke:none" id="path12"/>
      <path d="m 1251.14,2618.14 c 17.48,-35.71 49.32,-94.1 51.48,-97.5 9.68,-15.28 13.78,-13.5 121.41,-21.99 -0.85,-1.15 -58.44,-175.16 -58.9,-176.52 -16.1,-48.49 -6.4,-130.39 -11.3,-165.66 -12.32,-57.98 -93.56,-156.5 -86.7,-201.46 0.88,-6.01 7.86,-48.88 10.33,-55.16 3.33,-8.38 13.33,-9.21 18.86,-2.77 5.53,6.46 107.79,204.98 110.77,211.27 10.05,21.17 9.25,40.11 5.28,83.18 -7.51,80.88 -1.38,193.05 -1.38,183.05 0,3.57 -2.19,6.94 -5.58,8.58 31.33,97.15 44.15,110.6 32.23,118.34 13.41,10.71 -0.57,11.85 -71.87,152.87 -15.56,30.73 -124.65,239.79 -157.32,251.01 -3.52,1.22 -7.68,1.72 -11.41,2.23 -30.3,4.4 -66.43,4.08 -127.8,14.98 -5.6,0.96 -9.48,1.72 -15.5,2.54 -3.65,11.85 -24.48,4.38 -49.68,6.75 -10.001,0.94 -21.767,1.97 -37.595,4.82 -0.375,1.43 -0.774,2.89 -1.184,4.34 -0.121,-0.19 -10.89,-19.97 -12.308,-22.53 -0.004,0 -0.004,-0.01 0,-0.02 0.007,-0.02 0.582,-0.14 0.597,-0.14 29.024,-112.05 13.774,-99.46 67.57,-103.9 205.82,-16.19 172.44,-78.51 230,-196.31" style="fill:#b82327;fill-opacity:1;fill-rule:nonzero;stroke:none" id="path14"/>
      <path d="m 1629.31,1397.86 c 0.35,47.98 7.95,117.58 -17.89,90.92 -6.38,-6.59 -159.21,-82.87 -167.39,-86.92 -2.75,93.6 6.23,128.49 -26.27,114.04 -72.78,-32.4 -143.91,-82.81 -203.79,-135.06 -2.96,-2.59 -4.04,-5.61 -3.66,-8.73 -5.12,-3.73 -5.86,-12.19 2.01,-16.31 26.57,-13.93 52.45,-20.84 165.59,-9.7 164.92,16.34 165,13.33 219.75,27.67 5.9,1.54 10.17,2.63 16.1,3.24 17.94,1.92 22.24,12.75 17.22,19.2 -0.48,0.62 -1.05,1.17 -1.67,1.65" style="fill:#b82327;fill-opacity:1;fill-rule:nonzero;stroke:none" id="path16"/>
      <path d="m 3125.78,1627.61 c 9.02,-3.66 17.05,6.54 11.59,14.54 0.18,14.6 31.71,134.27 -17.11,158.84 -14.95,7.5 -40.27,-3.55 -114.66,-10.04 -16.59,-1.44 -31.54,-1.7 -45.63,-1.86 -87.15,-0.88 -94.96,-17.71 -117.97,-71.72 -37,-86.55 -31.16,-94.25 -55.29,-139.4 -5.35,-10 -166.54,-304.22 -222.94,-374.94 -76.97,-96.07 -100.81,-115.26 -161.63,-160.72 l 1.97,1.38 c -194.15,-141.678 -261.54,-89.67 -442.89,-333.1 -37.68,-50.508 -63.41,-77.481 -63.41,-92.039 0,-8.403 6.28,-12.36 11.27,-11.781 9.66,1.101 38.57,9.57 64.56,22.242 42.43,20.687 84.04,25.488 192.03,80.289 10,5.058 59.23,28.808 127.23,53.679 45.38,16.442 43.56,20.469 55.92,37.809 35.75,50.262 93.58,119.582 135.35,169.762 567.95,682.159 381.47,493.679 641.61,657.059" style="fill:#b82327;fill-opacity:1;fill-rule:nonzero;stroke:none" id="path18"/>
      <path d="m 1884.04,4036.68 c 0.8,-7.07 8.94,-11.94 16.5,-5.76 168.03,136.74 312.13,213.11 679.45,268.56 61.71,7.87 69.01,1.17 74.12,16.3 10.35,30.51 -122.62,64.89 -154.8,73.58 -181.7,49.12 -400.08,-4.57 -497.11,-83.88 -111.81,-90.93 -127.96,-255.34 -118.16,-268.8" style="fill:#b82327;fill-opacity:1;fill-rule:nonzero;stroke:none" id="path20"/>
      <path d="m 1960.68,4546.58 c 5.94,10 11.35,18.77 14.12,25.87 10.67,27.05 -24.5,44.24 -59.87,34.75 -23.83,-6.43 -48.69,-25.52 -66.91,-40.72 -75.49,-62.39 -126.07,-189.71 -138.15,-288.26 -15.66,-126.47 -6.75,-165.67 30.68,-228.17 3.68,-6.15 9.34,-8.14 15.79,-7.11 1.63,-2.58 4.75,-4.38 8.16,-4.38 15.41,0 6.93,19.02 20.64,101.11 34.52,206.89 77.05,241.34 175.54,406.91" style="fill:#b82327;fill-opacity:1;fill-rule:nonzero;stroke:none" id="path22"/>
      <path d="m 1475.28,4234.7 c 0.9,-1.14 1.78,-2.27 2.66,-3.39 -1.33,1.68 -1.61,2.01 -2.66,3.39 z m 222.52,-89.32 c -3.64,16.02 -6.23,39.83 -9.94,57.43 -10.07,47.73 -29.61,28.77 -130.82,95.54 -69.46,45.73 -89.46,74.6 -128.45,132.28 -125.75,185.87 -74.9,332.88 -74.9,342.88 0,4.73 -3.54,9.29 -8.75,9.93 5.49,19.54 12.13,39.34 17.32,53.33 3.71,10 -12.94,17.64 -17.6,4.86 -18.39,-50.93 -32.64,-115.77 -35.37,-131.78 -60.26,-351.16 329.05,-716.6 407.46,-672.86 21.02,11.75 -3.9,42.3 -18.95,108.39" style="fill:#b82327;fill-opacity:1;fill-rule:nonzero;stroke:none" id="path24"/>
      <path d="m 683.734,4370.23 c -1.937,-7.77 8.996,-52.19 12.079,-63.27 13.492,-48.23 17.468,-65.61 47.406,-88.5 39.109,-30.01 91.609,-37.13 141.472,-34.16 88.934,5.84 167.719,58.02 234.649,111.44 l -0.06,-0.04 c 206.86,162.16 157.77,194.82 129.17,267.31 -28.29,71.89 -33.1,62.6 -58.45,38.76 -99.68,-93.63 -328.637,-196.36 -415.824,-210.45 -31.188,-4.55 -62.492,-3.17 -97.242,-1.06 -7.778,0.47 -13.282,-10.35 -6.629,-16.87 3.289,-3.22 8.488,-2.89 13.429,-3.16" style="fill:#b82327;fill-opacity:1;fill-rule:nonzero;stroke:none" id="path26"/>
      <path d="m 3507.71,2840.58 c -25.99,96.71 -35.17,147.7 -43.79,216.03 -40.4,320.96 7.42,318.92 36.27,686.53 9.19,115.53 7.5,212.1 -76.52,291.68 2.03,8.38 -1.86,13 -7.75,13.67 -11.05,1.33 -10.6,-9.33 -17.01,-36.53 -43.9,-186.45 -209.78,-519.51 -127.89,-835.12 17.28,-68.21 42.58,-92.63 92.8,-172.75 41.16,-67.12 42.1,-72.59 75.95,-120.71 50.35,-71.65 61.7,-84.59 70.83,-72 5.13,7.06 2.11,10.67 -2.89,29.2" style="fill:#b82327;fill-opacity:1;fill-rule:nonzero;stroke:none" id="path28"/>
      <path d="m 2910.67,3591.16 v -0.01 l 1.32,-4.61 -1.34,4.65 c 0,-0.01 0,-0.01 0.01,-0.01 -0.01,0.04 -0.02,0.1 -0.02,0.1 0.01,-0.04 0.02,-0.09 0.03,-0.12 z m -439.39,913.98 c 40.93,-37.14 72.91,-55.6 204.2,-185.82 168.76,-167.03 164.8,-84.62 187.03,-540.32 3.17,-66.2 10.43,-120.94 29.3,-188.47 43.69,-157.48 199.92,-382.68 265.41,-427.61 19.48,-13.39 55.62,-32.73 55.62,-9.06 0,5.96 -8.6,19.63 -11.65,25.32 -141.51,262.72 -84.03,407.11 -149.62,783.94 -44.1,253.44 -146.25,384.02 -354.18,498.61 l 0.24,-0.21 c -73.82,41.16 -113,56.18 -217.99,62.77 -5.4,11.75 -23.07,2.75 -17.6,-9.41 0.13,-4.71 3.5,-9.4 9.24,-9.74" style="fill:#b82327;fill-opacity:1;fill-rule:nonzero;stroke:none" id="path30"/>
      <path d="m 3337.11,1557.44 c -218.33,31.42 -200.87,6.86 -209.45,-38.1 -18.57,-95.98 -16.08,-180.58 -24.61,-254.38 -1.76,-15.11 -3.51,-28.6 0.48,-44.24 2.42,-9.63 12.54,-15.51 21.61,-6.67 0,0 7.18,8.58 17.15,19.8 92.16,103.92 402.84,293.32 194.82,323.59" style="fill:#b82327;fill-opacity:1;fill-rule:nonzero;stroke:none" id="path32"/>
      <path d="m 2116.75,2907.13 c -0.99,2.61 -2.72,3.86 -5.19,5.54 -15.74,11.03 -229.16,-78.11 -216.09,-104.3 -14.64,-84.04 -11.82,-151.64 -22.71,-225.42 -2.89,-19.63 -7.03,-38.6 -2.68,-48.16 2.14,-4.76 9.59,-6.78 13.95,-4.15 10,6.05 244.26,350.9 232.72,376.49" style="fill:#b82327;fill-opacity:1;fill-rule:nonzero;stroke:none" id="path34"/>
      <path d="m 2142.87,2607.28 c 13.05,1.64 114.01,18.55 185.14,-4.05 16.84,-5.24 27.07,5.01 5.69,36.93 -34.49,51.47 -41.89,65.7 -72.49,64.71 -77.93,-2.42 -71.73,10.28 -124.03,-73.04 -3.72,-5.89 -5.95,-8.02 -5.95,-14.79 0,-5.94 5.23,-10.56 11.64,-9.76" style="fill:#b82327;fill-opacity:1;fill-rule:nonzero;stroke:none" id="path36"/>
      <path d="m 1027.2,2711.96 c -9.13,0.77 -19.24,0.21 -28.516,-0.16 -42.079,-1.5 -38.356,2.84 -85.887,-55.08 -2.828,-3.41 -5.188,-6.47 -7.625,-10.23 -0.75,-1.15 -1.125,-2.31 -1.371,-3.48 -7.34,-2.26 -8.875,-11.19 -3.93,-16.17 5.996,-6.04 28.063,0.3 47.414,2.1 45.738,4.24 105.265,7.51 149.595,-4.16 8.94,-2.28 16.43,3.17 14.82,16.64 -6.96,64.57 -4.32,63.74 -84.5,70.54" style="fill:#b82327;fill-opacity:1;fill-rule:nonzero;stroke:none" id="path38"/>
      <path d="m 755.973,2584.46 c 1.906,1.57 3.843,3.01 5.812,4.5 54.789,36.98 104.356,36.05 126.637,38.44 7.555,0.78 10.461,3.76 14.609,8.99 6.27,7.93 19.832,43.67 18.43,53.85 -3.332,12.7 -16.926,9.85 -29.758,7.85 -35.805,-5.41 -45.297,-5.12 -60.344,-13 -54.273,-28.44 -94.355,-82.76 -94.355,-90.44 0,-2.62 1.238,-5.34 3.305,-7.27 2.761,-5.77 10.269,-7.33 15.664,-2.92" style="fill:#5dcbf5;fill-opacity:1;fill-rule:nonzero;stroke:none" id="path40"/>
      <path d="m 1243.5,2589.75 c -0.05,0.02 -0.11,0.03 -0.11,0.03 -4.6,6.24 -5.4,7.23 0.11,-0.03 z m -15.72,-14.77 c 7.22,-2.52 7.42,-2.6 14.17,-4.74 4.4,-1.38 10.74,-3.84 15.02,-3.71 6.97,0.16 11.38,4.24 12.18,10.8 1.85,15.68 -32.27,51.22 -43.98,61.3 -65.71,57.02 -100.04,101.37 -117.96,58 -1.69,-1.73 -2.62,-3.93 -2.62,-6.17 0.09,-5.06 -0.51,-1.27 -0.51,-5.59 0,-1.22 0.22,-2.36 0.66,-3.46 0.92,-91.08 -23.45,-55.21 123.04,-106.43" style="fill:#5dcbf5;fill-opacity:1;fill-rule:nonzero;stroke:none" id="path42"/>
      <path d="m 1932.56,2544.92 c -2.49,-2.28 -3.74,-5.54 -3.36,-8.73 -1.1,-4.85 1.61,-9.87 6.38,-11.55 6.87,-2.44 11.46,2.21 35.65,17.57 l -0.39,-0.2 c 135.69,84.07 157.7,36.73 173.07,114.92 2.01,10.32 5,19.46 0.54,24.39 -25.89,28.91 -183.28,-110.17 -211.89,-136.4" style="fill:#5dcbf5;fill-opacity:1;fill-rule:nonzero;stroke:none" id="path44"/>
      <path d="m 2361.44,2571.97 c 20.88,-9.05 110.28,-27.85 122.13,-23.25 29.29,11.22 -42.52,71.79 -66.56,90.6 -10,7.87 -79.36,56.79 -92.42,55.04 -7.42,-0.98 -10.87,-10.53 -5.42,-16.3 32.47,-87.86 29.93,-100.69 42.27,-106.09" style="fill:#5dcbf5;fill-opacity:1;fill-rule:nonzero;stroke:none" id="path46"/>
      <path d="m 364.551,2642.14 c 54.66,36.07 60.004,42.06 70.648,54.09 134.266,152.02 166.703,451.21 131.031,517.2 1.375,3.98 0.09,8.61 -3.484,11.22 -11.973,8.75 -3.984,1.26 -151.531,-142.39 -58,-56.4 -76.965,-81.77 -142.324,-150.59 l 0.144,0.13 C 232.828,2895.61 82.3398,2727.57 73.6172,2717.57 c -11.8711,-13.6 -12.0742,-31.73 -6.6055,-77.49 32.4414,-271.52 -19.2461,-207.21 297.5393,2.06" style="fill:#5dcbf5;fill-opacity:1;fill-rule:nonzero;stroke:none" id="path48"/>
      <path d="m 221.395,3269.3 c 13.527,-20.69 25.023,-9.24 42.179,3.81 46.141,35.15 92.793,64.38 171.602,114.89 49.273,31.6 46.812,34.94 46.734,59.51 0,54.19 7.656,119.74 25.379,172.78 4.848,14.54 14.477,36.38 4.465,43.72 -10,9.5 -24.02,-4.82 -79.168,-39.46 -71.422,-43.89 -236.223,-129.79 -283.16,-156.35 -6.844,-3.82 -7.082,-10.76 -3.461,-15.15 -17.891,-22.14 59.785,-159.78 75.43,-183.75" style="fill:#5dcbf5;fill-opacity:1;fill-rule:nonzero;stroke:none" id="path50"/>
      <path d="m 3372.8,2368.01 c -69.97,80.55 -36.49,46.66 -120.25,137.94 -37.18,40.51 -47.25,70.28 -63.81,63.76 -14.44,-5.53 -47.55,-102.24 -67.81,-133.17 -3,-1.46 -5,-4.43 -5.34,-7.92 -4.69,-6.88 -8.28,-13.5 -1.03,-18.44 1.13,-0.77 2.39,-1.27 3.74,-1.49 26.2,-171.57 70.71,-379.06 73.36,-386.43 2.49,-6.97 9.11,-9.98 16.47,-10.31 32.78,-2.4 108.8,55.15 128.84,73.67 20.54,18.82 122.76,137.73 120.08,168.63 -1.52,19.53 -18.73,38.41 -84.25,113.76" style="fill:#5dcbf5;fill-opacity:1;fill-rule:nonzero;stroke:none" id="path52"/>
      <path d="m 3701.38,2230.47 c -181.46,191.06 -178.55,214.65 -195.95,208.78 -6.64,-2.24 -7.59,-8.06 -8.25,-15.01 -1.36,-12.52 -3.21,-22.7 -6.91,-40.42 -11.62,-51.65 -16.48,-57.27 -10.85,-63.54 4.08,-10.02 22.39,-65.55 22.39,-65.55 l -0.02,-0.01 c 20.26,-61.36 34.15,-79.03 67.05,-167.24 10.81,-29.06 27.25,-85.47 46.63,-49.77 97.91,176.7 103.7,173.99 85.91,192.76" style="fill:#5dcbf5;fill-opacity:1;fill-rule:nonzero;stroke:none" id="path54"/>
      <path d="M 653.246,1195.78 C 773.203,1083.84 917.316,947.211 1030.35,826.922 l -0.4,0.5 c 14.61,-16.133 36.98,-40.922 50.31,-53.75 4.33,-4.16 9.09,-9.742 14.9,-9.223 4.96,0.449 9.28,4.223 9.28,10.633 0,3.719 -3.17,10.137 -4.68,13.258 -4.78,10 -37.48,70.719 -61.68,126.68 -117.826,272.48 -41.783,196.67 -168.361,376.85 -83.059,118.27 -60.75,162.48 -142.739,60.02 -14.621,-18.28 -28.421,-42.66 -38.378,-58.66 -27.379,-44.05 -25.039,-49.2 -34.481,-82.41 -2.816,-1.77 -4.508,-5.06 -4.215,-8.67 0.211,-2.39 1.301,-4.47 3.34,-6.37" style="fill:#5dcbf5;fill-opacity:1;fill-rule:nonzero;stroke:none" id="path56"/>
      <path d="m 1066.69,687.199 c -77.526,27.61 -376.78,165.481 -519.752,132.41 -15.879,-3.668 -24.293,-5.961 -34.297,-8.789 -116.727,-33.148 -109.84,-42.718 -243.672,-110.851 -18.153,-9.25 -40.989,-20.86 -59.465,-30.949 -0.984,6.179 -8.406,9.539 -14.289,5.312 -90.887,-65.082 -98.5236,-79.031 -93.781,-89.98 5.367,-12.262 26.199,-7.27 77.289,0.886 42.39,6.864 284.574,37.684 378.445,41.614 189.184,8.14 582.902,-33.051 566.612,29.988 -2.82,11.18 -6.48,12.461 -57.09,30.359" style="fill:#5dcbf5;fill-opacity:1;fill-rule:nonzero;stroke:none" id="path58"/>
      <path d="m 1607.04,1180.82 c -10,3.22 -21.25,7.16 -33.96,10.46 -92.58,23.94 -337.96,-45.97 -336.45,-69.59 -50.31,-47.96 -68.92,-150.67 -43.69,-154.811 8.63,-1.418 80.3,38.801 87.93,43.081 179.03,90.97 238.28,93.4 322.7,124.74 34.72,12.84 45.66,32.52 3.47,46.12" style="fill:#5dcbf5;fill-opacity:1;fill-rule:nonzero;stroke:none" id="path60"/>
      <path d="m 1262.48,2811.12 c 266.77,-446.34 136.47,-344.14 266.62,-59.72 12.92,28.06 7.69,20.85 -47.34,105.66 -63.1,97.14 -37.44,57.91 -120.53,49.7 -52.53,-5.11 -53.36,0.63 -107.19,1.18 -20.03,0.19 -18.23,0.76 -24.47,1.86 -8.04,7.96 -20.98,-1.69 -15.7,-11.64 23.69,-44.76 34.99,-64.24 48.61,-87.04" style="fill:#5dcbf5;fill-opacity:1;fill-rule:nonzero;stroke:none" id="path62"/>
      <path d="m 1861.05,1847.86 c -4.95,-1.63 -25.6,-7.15 -31.48,-8.82 -149.34,-42.05 -108.91,-12.83 -147.6,-38.1 -20.33,-13.29 -37.72,-29.95 -60.86,-37.91 -28.78,-7.87 -117.53,-3.41 -146.85,2.22 -20.26,4.99 -21.22,5.98 -41.89,30.31 -29.09,34.24 -40.87,39.81 -62.52,47.66 -19.97,7.33 -32.79,12.5 -59.12,26.09 -2.04,1.07 -5.03,0.74 -7.07,-0.06 -3.47,2.68 -7.34,5.55 -11.79,8.76 43.58,-95.06 52.84,-111.55 90.47,-153.92 37.5,-12.05 127.81,3.25 295.06,10.02 10.85,0.5 65.09,4.53 67.91,4.78 10.19,0.92 92.78,9.92 103.59,17.97 6.61,4.96 8.18,12.63 13.33,28.85 6.82,21.42 3.43,14.83 14.4,40.76 2.67,6.38 6.41,14.76 2.12,20.11 -4.46,5.52 -11.05,3.56 -17.7,1.28" style="fill:#5dcbf5;fill-opacity:1;fill-rule:nonzero;stroke:none" id="path64"/>
      <path d="m 2749.88,2142.18 c -0.5,-1.32 -2.03,-9.25 -2.37,-10.79 -2.85,-12.66 -8.82,-25.05 -14.17,-36.56 l 0.1,0.16 c -35.17,-71.6 -63.42,-88.78 -111.21,-159.23 -159.29,-234.45 -268.67,-292.01 -319.48,-627.22 -5.08,-33.53 12.93,-36.18 22.51,-18.99 33.7,60.59 82.21,132.86 133.86,195.08 l -0.4,-0.41 c 111.38,133.01 103.45,118.03 163.18,179.05 13.15,13.42 15.4,16.17 21.09,22.92 3.56,4.24 3.77,4.41 7.47,9.47 3.72,5.04 8.88,12.72 11.75,18.28 0.35,0.67 0.69,1.33 1.04,1.98 22.48,41.1 106.61,354.59 106.08,419.64 -0.15,17.12 -15.71,16.62 -19.45,6.62" style="fill:#5dcbf5;fill-opacity:1;fill-rule:nonzero;stroke:none" id="path66"/>
      <path d="m 721.215,1691.25 c -1.817,-5.09 0.695,-8.27 3.051,-12.96 4,-7.91 0.015,-0.21 4.937,-9.71 46.789,-97.63 27.274,-82.21 145.363,-307.38 1.102,-2.43 2.176,-4.77 3.582,-6.89 3.176,-4.94 8.118,-5.76 12.071,-3.64 10,5.4 1.484,16.5 -6.008,31.06 5.883,4.89 2.387,10.35 -0.66,17.05 0.472,2.63 -0.293,5.41 -2.203,7.46 -1.868,2.62 -3.637,5.7 -5.118,8.59 -1.695,3.7 -3.386,7.4 -5.078,11.1 0.403,12.65 -87.964,255.82 -92.089,265.83 -2.383,4.37 -7.836,5.58 -11.715,3.02 -4.868,9.14 -14.133,7.59 -17.047,1.4 -3.524,9.43 -5.637,21.9 -15.438,19.6 -1.543,-0.37 -2.976,-1.23 -4.113,-2.38 -7.762,4.51 -17.844,-2.8 -13.492,-12.91 1.324,-3.08 2.637,-6.16 3.957,-9.24" style="fill:#5dcbf5;fill-opacity:1;fill-rule:nonzero;stroke:none" id="path68"/>
      <path d="m 2720.31,3892.03 c -217.75,184.75 -330.88,288.06 -605.78,195.81 -19.34,-6.49 -26.44,-12 -42.59,-20.14 0,0 -62.65,-29.03 -62.66,-29.03 -5.42,-2.5 -14.04,-5.15 -15.79,-10.78 -4.87,-7.07 1.6,-16.65 8.98,-15.06 29.07,6.37 41.58,8.13 55.96,10 301.86,39.69 786.3,-404.55 938.37,-707.38 4.86,-9.62 16.2,-6.64 17.84,1.73 21.27,17.27 -103.31,412.8 -294.33,574.85" style="fill:#5dcbf5;fill-opacity:1;fill-rule:nonzero;stroke:none" id="path70"/>
      <path d="m 2128.54,4742.64 c 51.61,-13.87 52.49,-2.59 141.95,4.93 143.69,8.48 262.2,-22.88 283.81,-25.32 v 0.03 c 0,0 -8.02,2.81 143.76,-34.12 16.08,-3.9 42.35,-8.9 42.35,7.66 0,7.58 -5.86,11.22 -12.04,15.49 -303.45,211.68 -627.54,257.53 -1006.9,230.77 -10,-0.68 -11.36,-18.07 0.37,-19.52 -1.14,-5.34 5.43,-11.71 11.79,-10 l -0.01,-0.03 c 34.17,-9.47 72.53,-32.16 82.56,-37.87 59.27,-33.7 57.13,-26.91 146.28,-62.64 80.45,-32.18 122.14,-57.68 166.08,-69.38" style="fill:#5dcbf5;fill-opacity:1;fill-rule:nonzero;stroke:none" id="path72"/>
      <path d="m 3569.39,3962.35 c 30.77,-25.97 46.18,-39.3 61.9,-28.83 17.03,11.35 14.9,42.47 10.89,61.31 -29.2,135.87 -34.25,159.72 -48.05,184.56 5.37,7.08 -1.27,16.65 -9.33,14.89 -2.64,-0.57 -4.84,-1.15 -7.83,-1.86 -2.4,0.34 -3.22,0.36 -4.74,0.41 -2.86,18.52 -24.09,1.81 -150.39,-30.86 -9.83,-2.54 -19.85,-5.7 -19.85,-15.89 0,-5.65 1.27,-7.1 3.11,-8.8 -15.19,-28.85 67.3,-93.04 164.29,-174.93" style="fill:#5dcbf5;fill-opacity:1;fill-rule:nonzero;stroke:none" id="path74"/>
      <path d="m 769.469,2721.47 c 3.816,2.11 7.164,5.15 10.652,7.81 5.188,3.52 10.617,6.67 16.043,9.81 6.656,3.85 13.242,7.82 20.047,11.42 75.383,39.83 173.684,53.12 230.289,47.88 54.08,-5.04 65.78,-22.32 114.54,-34.6 17.21,-4.31 38.43,-10.64 45.73,1.1 4.37,7.02 0.38,16.19 -5.17,21.22 -4.58,4.15 -9.89,7.28 -15.22,10.34 -45.94,26.37 -123.3,43.3 -169.01,45.13 -92.718,3.74 -189.327,-34.56 -235.807,-79.8 -3.645,-2 -7.274,-4.04 -10.848,-6.18 -8.879,-5.32 -21.106,-11.92 -21.106,-22.08 0,-3.39 1.297,-6.77 3.594,-9.27 3.918,-4.23 11.141,-5.92 16.266,-2.78" style="fill:#111011;fill-opacity:1;fill-rule:nonzero;stroke:none" id="path76"/>
      <path d="m 1269.64,2520.32 c -0.05,0.16 -0.1,0.32 -0.14,0.48 0.91,-3.21 0.87,-2.97 0.14,-0.48" style="fill:#111011;fill-opacity:1;fill-rule:nonzero;stroke:none" id="path78"/>
      <path d="m 984.73,2574.98 c 24.53,-19.97 73.94,-3.85 75.78,33.72 1.2,22.15 -18.97,51.58 -47.88,47.24 -22.392,5.58 -69.872,-46.71 -27.9,-80.96" style="fill:#111011;fill-opacity:1;fill-rule:nonzero;stroke:none" id="path80"/>
      <path d="m 828.543,2655.41 c 14.414,6.58 52.445,11.78 69.379,13.4 -25.852,-44.17 -10.223,-107.47 17.871,-135.03 108.827,-106.71 243.397,36.79 207.587,138.1 31.35,-2.96 34.11,-3.57 34.11,-3.57 10,-8.45 75.22,-64.87 95.56,-85.84 11.91,-45.27 4.45,-20.02 20.67,-76.21 -2.68,-1.41 -4.8,-2.66 -7.42,-1.51 -4.41,3.01 -10.78,11.13 -14.57,22.95 -6.49,25.09 8.2,39.46 -7.61,47.64 -14.43,7.49 -29.94,-16.74 -22.03,-52.16 -0.05,-0.04 -0.09,-0.09 -0.14,-0.14 -45.4,-23.44 -111.87,-54.51 -251.204,-37.16 -32.484,3.98 -83.891,25.16 -111.051,40.31 -33.48,20.23 -62.632,47.77 -86.715,79.21 20.825,22.22 47.958,44.97 55.563,50.01 z m 255.877,19.56 c 45.04,-59.43 -24.51,-194.8 -122.639,-148.6 -50.906,28.01 -65.722,94.36 -22.176,145.56 29.875,1.86 104.265,5.55 144.815,3.04 z M 820.855,2520.8 c 77.844,-49.76 109.329,-50.32 185.905,-60.52 22.11,-2.92 41.86,-4.85 66.24,-3.76 -9.89,-2.84 -17.09,-4.93 -27.09,-7.61 l 2.25,0.61 c -48.859,-13.17 -117.551,-17.96 -130.43,-18.32 -28.289,0.46 -68.589,40.18 -111.367,78.52 7.317,8.5 10.5,9.72 14.492,11.08 z m 421.445,36.83 c -0.21,-0.06 -0.42,-0.13 -0.63,-0.19 v 0.01 c 0.21,0.07 0.42,0.13 0.63,0.18 z m -8.61,-64.53 c 27.86,-50.08 85.58,-34.49 72.86,22.44 -0.35,1.7 -0.66,3.12 -1.45,4.62 -7.2,40.53 -8.72,57.64 -15.6,73.48 -2.34,5.4 -56.84,112.12 -68.07,130.78 -85.91,14.25 1.19,9.48 -251.11,12.65 -80.441,1.31 -88.203,-0.18 -111.41,-1.28 -37.199,-1.72 -32.976,0.64 -113.625,-84.1 v 0.02 c -74.676,-74.74 -31.769,-32.38 -83.41,-85.49 -14.766,-14.69 -21.895,-17.58 -20.668,-25.64 -2.172,-8.65 4.188,-18.59 13.16,-19.22 38.449,-2.74 34.449,-17.05 64.422,21.26 65.309,-51.4 115.098,-104.37 165.383,-132.34 2.058,-6.24 7.711,-5.82 14.25,-6.71 33.25,-11.14 100.617,1 135.988,7.49 127.4,23.2 137.42,49.67 199.28,82.04" style="fill:#111011;fill-opacity:1;fill-rule:nonzero;stroke:none" id="path82"/>
      <path d="m 1107.26,2236.64 c 0.03,0.03 0.05,0.07 0.08,0.1 5.97,2.86 12.53,6.24 25.18,15.02 48.77,49.79 77.25,80.84 77.25,80.84 10,5.37 72.97,36.26 82.59,46.16 -5.59,8.97 -16.91,28.45 -20.98,37.45 0,0 -39,-23.39 -58.68,-32.63 -9.33,-4.35 -8.93,-3.43 -13.58,-11.56 -17.15,-27.44 -101.85,-122.25 -118.94,-137.33 -2.54,-2.22 -4.02,-5.43 -3.37,-8.77 6.08,0.95 5.4,0.95 7.3,1.55 0,-0.01 0,-0.02 0,-0.03 9.89,3.1 16.05,5.79 23.15,9.2" style="fill:#111011;fill-opacity:1;fill-rule:nonzero;stroke:none" id="path84"/>
      <path d="m 1290.34,1864.04 c 11.62,-10.95 51.78,-37.04 80.82,-42.22 1.73,-2.83 44.56,-61.88 49.33,-67.31 8.3,-9.28 13.15,-17.82 56.63,-19.04 147.73,-3.17 172.8,8.93 198.7,16.84 4.02,4.64 8.3,9.94 13.48,16.71 95.74,44.68 67.81,-0.05 177.86,57.33 8.12,4.25 17.27,9.44 22.12,16.68 0.91,1.36 1.68,2.72 2.49,4.13 5.66,10.01 6.65,9.86 14.34,27.96 5.46,12.89 10.21,25.6 14.26,49.15 1.39,7.98 2.97,14.23 4.11,21.78 0.81,5.53 1.87,13.03 2.9,18.31 1.97,10.13 1.92,10.17 4.23,25.12 0.16,1.01 0.32,2.01 0.48,3.02 0.69,4.45 1.7,10.78 1.7,15.23 0,6.01 -1.23,10.58 -3.57,16.11 -3.31,7.86 -9.32,17.19 -14.01,24.3 -9.05,13.91 -17,25.84 -27.02,34.62 -6.59,5.77 -9.92,6.71 -17.52,7.8 -9.31,1.43 -17.99,1.64 -27.41,1.85 -28.95,0.75 -33.44,2.78 -58.56,1.77 l -0.61,-0.03 c -3.53,-0.14 -7.13,-0.46 -10.61,-0.76 l -1.77,-0.14 -1.28,-0.12 -0.47,-0.04 c -4.14,-0.36 -9.11,-0.79 -13.69,-1.66 -1.4,-0.28 -2.75,-0.57 -4.12,-0.98 -2.97,-0.82 -6.87,-2.48 -8.6,-5.74 -0.78,-1.48 -1.55,-3.09 -1.9,-4.8 -0.39,-1.93 -0.62,-3.91 -0.83,-5.65 l -0.04,-0.33 c -0.13,-1.14 -0.27,-2.29 -0.44,-3.42 l -0.06,-0.42 c -0.48,-2.74 -0.91,-5.3 -1.19,-7.92 -0.99,-10 -1.3,-19.83 8.91,-20.23 1.12,-0.05 2.28,0.14 3.43,0.56 0,0 50.72,6.32 89.2,6.02 20.71,0 23.36,0.73 38.21,-18.89 3.56,-4.89 8.78,-11.23 8.78,-16.93 0,-14.51 -3.32,-34.23 -6.12,-48.53 0,0 -1.26,-6.31 -2.59,-13.7 -3.89,-22.62 -7.08,-30.37 -11.07,-50.76 -1.56,-8.02 -4.17,-21.58 -8.75,-28.31 -5.52,-6.08 -35.96,-26.03 -40.59,-28.48 0,0 -35,1.01 -89.23,-2.31 5.94,10.01 21.62,60.01 17.81,73.88 0.98,12.14 -17.17,14.51 -19.71,3.06 -4.77,-21.06 -9.62,-31.22 -14.42,-41.23 -1.64,-3.42 -4.3,-9.03 -5.81,-12.45 -3.8,-8.47 -8.19,-16.36 -13.6,-25.61 -5.88,-10 -27.55,-43.54 -44.83,-64.11 -40.08,-1.36 -145.27,-4.25 -184.76,1.84 -29.59,41.65 -52.57,95.21 -65.84,120.01 -21.24,39.46 -5.41,29.28 -54.83,35.13 -5.43,0 -10.32,2.46 -15.05,-0.88 -1.41,-0.58 -2.76,-1.55 -3.73,-2.7 -17.12,-9.43 15.19,-53.7 24.95,-69.55 -0.03,0.02 -15.14,6.06 -25.74,11.74 -31.43,19.67 -18.17,42.48 1.63,71.7 28.31,42.2 20.98,35.52 68.46,118.26 65.9,114.96 43.75,104.72 34.46,213.19 -6.15,62.68 -6.93,86.81 13,148.1 34.29,105.13 32.83,135.88 60.3,214.54 59.46,167.2 58.67,160.28 163.57,157.89 5.66,-0.2 10.42,-0.57 15,-1.17 9.63,-1.21 17.64,-4.24 26.63,-7.77 17.89,-43.91 21.15,-130.63 28.62,-191.09 23.26,-186.5 4.28,-160.99 -11.74,-425.01 0.67,-2.02 23.81,-39.96 24.92,-41.78 l 0.45,0.12 c 0.81,0.63 1.53,1.52 2.2,2.71 1.15,2 1.31,4.35 1.31,6.39 0,0.69 -0.03,1.39 -0.05,2.09 l -0.02,1.1 -0.09,3.19 -0.08,3.18 c -6.88,249.71 39.92,147.19 -11.24,618.35 -1.6,14.46 -4.41,50.54 -18.93,51.29 -6.71,3.1 -30.15,6.55 -41.68,7.71 -83.35,8.37 -90.53,27.88 -159.76,-21.32 -18.8,-13.34 -22.44,-19.97 -28.45,-32.35 -4.81,-10 -12.37,-37.98 -17.42,-61.9 -21.51,-105 -3.58,-22.38 -55.07,-197.23 -26.04,-88.94 -36.07,-104.23 -37.26,-140.61 -3.65,-132.92 25.79,-171.99 -9.12,-253.68 -49.29,-115.8 -144.5,-194.49 -84.01,-251.6" style="fill:#111011;fill-opacity:1;fill-rule:nonzero;stroke:none" id="path86"/>
      <path d="m 1899.11,2695.04 c 0.61,8.75 2.8,24.93 -2.8,31.25 -23.29,1.65 -19.97,-0.51 -35.77,-0.96 -1.2,-10 -4.79,-29.75 -6.75,-57.36 -0.12,-1.68 -0.53,-3.17 -1.52,-4.45 -3.48,-30.68 -10.48,-143.05 -11.12,-153.06 -9.94,-151.96 11.67,-337.8 43.39,-374.56 2,-4.96 8.64,-7.55 13.68,-4.34 -13.91,91.18 -6.71,458.36 0.89,563.48" style="fill:#111011;fill-opacity:1;fill-rule:nonzero;stroke:none" id="path88"/>
      <path d="m 2079.02,2759.25 c 81.62,55 164.45,86.28 318.78,4.8 10.41,-5.52 24.31,-14.03 33.84,-20.29 1.24,0.51 2.81,1.93 4.01,2.89 3.65,2.96 7.79,5.85 8.69,10.45 0.64,3.12 -0.43,6.59 -3.06,9.06 -4.5,4.27 -59.48,37.83 -103.51,57.33 -75.77,33.55 -170.11,37.07 -254.31,-10.37 -28.53,-16.07 -96.9,-74.71 -96.9,-87.56 0,-2.45 0.9,-4.88 2.51,-6.67 21.4,-45.07 28.51,0.72 89.95,40.36" style="fill:#111011;fill-opacity:1;fill-rule:nonzero;stroke:none" id="path90"/>
      <path d="m 2259.04,2547.49 c 35.39,7.45 47.48,40.95 29.95,64.94 -4.23,15.77 -26.79,31.68 -56.7,24.31 -51.68,-12.58 -37.23,-102.65 26.75,-89.25" style="fill:#111011;fill-opacity:1;fill-rule:nonzero;stroke:none" id="path92"/>
      <path d="m 2147.99,2406.32 c 0,0 -6.97,15.54 -9.34,23.57 10.01,-0.55 197.66,0.71 221.44,5.01 -10.18,-12.58 -19.99,-16.83 -30,-20.3 -45.3,-14.21 -135.12,-14.36 -182.1,-8.28 z m -33.84,69.15 c -38.54,30.06 -33,23.27 -69.36,63.09 -11.65,12.76 -14.03,15.31 -14.03,15.31 -3.66,4.02 -7.78,9.29 -13.04,9.7 -11.79,0.9 -12.61,-14.37 -14.55,-24.52 -2.69,-9.11 -24.63,-23.91 -32.66,-27.12 -5.31,-1.45 -6.29,-1.08 -10.73,2.68 -2.2,2.09 -4.28,4.3 -6.18,6.58 48.03,48.96 83.38,91.44 160.06,132.36 l -0.45,-0.36 c -36.57,-74.18 24.7,-179.07 135,-167.31 83.09,9.4 157.68,65.65 109.96,167.91 14.74,-9.12 -7.02,15.22 84.67,-62.63 -4.65,-10 -5.15,-19.22 -22.82,-45.32 -60.89,-89.48 -27.97,-70.99 -219.02,-80.34 l 0.06,-0.03 c -79.11,-6.92 -74.34,0.14 -86.91,10 z m 43.86,156.09 c 6.15,15.09 18.39,24.62 43.04,36.35 0.46,0.23 0.9,0.52 1.29,0.85 26.34,-0.18 54.92,-1.65 85.47,-4.89 22.11,-17.98 36.65,-40.63 43.32,-73.92 11.34,-73.17 -85.92,-98.1 -131.62,-71.91 -45.43,26.12 -58.9,63.89 -41.5,113.52 z m 345.71,-84.22 c 1.2,-0.76 15.01,-8.8 16.26,-9.53 4.01,0.53 7.75,4.46 7.75,9.54 0,6.79 -76.9,118.75 -80.73,124.36 -18.05,26.38 -13.83,23.4 -43.07,33.65 -72.46,26.04 -179.87,40.8 -277.4,27.07 -58.47,-8.35 -76.33,-11.69 -156.44,-122.25 -3.11,-4.29 -59.23,-79.66 -59.23,-84.95 6.52,-17.65 43.82,-39.76 55.98,-42.27 21.73,-4.33 37.37,10.62 49.86,15.7 34.29,-32.36 88.33,-107.13 128.43,-117.27 32.6,-8.35 86.98,-5.72 120.45,-3.17 128.18,6.43 114.52,9.14 238.14,169.12" style="fill:#111011;fill-opacity:1;fill-rule:nonzero;stroke:none" id="path94"/>
      <path d="m 2059.16,2296.71 c -32.14,26.71 -24.76,83.03 -55.46,120.83 -13.53,9.51 -31.54,15.12 -46.89,16.8 -6.72,-3.19 -8.23,-12.41 -0.84,-17.37 26.69,-18.04 19.44,-47.98 40.38,-105.61 8.97,-24.75 23.93,-42.29 31.76,-46.85 12.78,5.95 25.57,10.96 37.81,18.74 2.22,6.08 -1.69,9.83 -6.76,13.46" style="fill:#111011;fill-opacity:1;fill-rule:nonzero;stroke:none" id="path96"/>
      <path d="m 1809.76,2821.62 c 38.49,-48.42 53.45,-46.21 70.14,-38.3 35.06,16.5 77.61,69.81 160.86,99.58 126.79,45.15 315.37,23.86 429.73,-72.6 11.71,-9.87 21.36,-18.03 36.73,-28.13 47.75,-31.43 143.24,-9.54 104.32,79.9 -41.95,95.99 -156.43,159.28 -258.77,183.73 -38.26,9.16 -42.69,11.46 -59.98,0.54 -33.62,-21.03 -44.49,-44.69 -87.92,-85.32 7.84,102.86 16.97,90.86 -55.98,109.62 -40.28,10.38 -56.9,10.1 -82.28,12.29 -19.03,1.67 -26.42,6.08 -38.33,-14.05 -15.67,-26.17 -34.09,-88.5 -41.28,-116.88 -10.63,22.03 -34.24,62.96 -50.34,83.23 -13.37,16.79 -19.1,20.48 -37.86,14.22 -11.81,-3.9 -42,-22.58 -48.72,-32.33 -13.37,-19.46 -5.37,-66.62 -3.03,-159.03 -105.9,129.83 -106.85,104.08 -87.2,283.8 2.07,19.03 2.83,50.68 0.11,74.88 -0.38,3.32 -2.6,6.26 -5.79,7.67 -6.13,5.97 -16.11,2.1 -16.87,-6.43 -2.75,-30.98 -3.09,-19.32 -7.24,-56.06 -2.49,-21.92 -16.81,-180 -12.3,-199.68 13.97,-61.79 76.02,-120.56 92,-140.65" style="fill:#111011;fill-opacity:1;fill-rule:nonzero;stroke:none" id="path98"/>
      <path d="m 1234.55,1401.73 0.39,0.07 c 33.89,28.9 90.43,94.55 111.19,107.79 54.62,-24.32 49.88,-101.06 172.09,-22.69 41.34,25.92 39.74,30.03 76.07,-2.42 22.11,-19.66 23.97,-19.8 53.91,-48.97 -190.55,-14.35 41.74,9.38 -413.65,-33.78 z m 189.19,-241.12 c 79.38,12.69 116.65,19.99 189.62,-13.68 59.82,-29.64 118.74,-96.92 132.52,-59.21 14.19,38.76 -76.41,106.9 -124.69,124.82 12.58,12.96 80.79,83.83 87.46,105.9 2.75,8.76 -1.32,19.18 -10.85,22.64 -31.89,11.95 -52.81,-43.43 -87.66,-65.69 -29.57,-18.59 -71.93,-24.62 -197.3,-21.69 -67.77,1.55 -103.9,0.87 -131.18,31.72 -9.89,12.62 -17.35,26.88 -19.47,42.84 51.12,-2.23 483.13,30.65 514.6,35.46 29.73,4.65 38.66,7.77 62.28,10.54 10.01,1.31 33.33,2.94 52.71,15.11 7.45,4.6 16.39,10.07 13.23,18.03 14.19,8.13 -0.36,40.91 -49.54,39.11 -67.94,-2.87 -49.35,-43.22 -121.16,5.42 -81.53,58.14 -116.11,106.35 -130.89,119.85 3.97,10.01 33.08,115.66 -1.03,113.89 -17.1,-1.46 -7.76,-25.73 -42.34,-104.61 -0.64,-0.14 -2.23,-0.62 -2.89,-0.81 -15.19,-4.32 -48.06,-17.61 -74.04,-32.03 -41.44,-21.98 -40.61,-18.84 -49.33,-8.25 37.1,51.75 61.82,132.43 40.97,140.44 -7.69,3.01 -12.03,-1.1 -16.35,-7.93 -1.01,-1.59 -0.88,-1.38 -1.72,-2.66 -23.39,-35.2 -72.77,-82.22 -91.69,-95.92 -57.58,-12.03 -179.64,-136.7 -189.64,-144.39 -2.43,2.17 -6.26,5.05 -8.27,6.36 l 0.46,-0.73 c -22.93,17.83 -69.79,29.66 -71.98,1.07 -1.06,-13.51 5.77,-22.58 15.43,-32.07 5.04,-12.01 15.26,-21.77 26.23,-32.17 15.03,-14.38 34.93,-37.49 76.36,-41.74 17.53,-54.08 41.45,-97.98 92.8,-123.08 -30.08,-11.97 -101.18,-57.68 -101.18,-90.08 0,-4.89 1.55,-9.48 4.35,-12.92 19.07,-23.32 56.26,1.6 185.65,47.43 6.13,2.22 22.11,8.02 28.53,9.03" style="fill:#111011;fill-opacity:1;fill-rule:nonzero;stroke:none" id="path100"/>
      <path d="m 2770.1,2164.85 c 0,-0.05 -0.01,-0.1 -0.01,-0.15 v 0 c -0.02,0 0.01,0.13 0.01,0.15 z M 2432.9,1832.2 c -43.62,-35.07 -73.29,-140.79 -168.58,-573.03 -1.79,-8.05 -2.88,-10.74 -4.81,-20.63 -1.73,-2.59 -1.95,-5.23 -1.72,-5.46 0.03,-0.99 0.23,-1.98 0.59,-2.94 -0.16,-2.86 0.12,-9.98 0.76,-13.59 0.92,-5.17 8.05,-9.29 13.96,-5.56 17.87,11.06 64.79,125.47 72.45,145.28 13.92,35.98 69.01,167 66.21,160.18 63.91,155.38 73.88,146.33 113.78,182.91 160.43,146.86 241.04,366.36 244.59,465.49 h -0.03 c 0,0.02 0.01,0.06 0.01,0.06 v -0.01 c 0.19,1.02 1,8.93 1.03,9.79 h 0.03 c 0.07,0.69 0.06,0.45 0.08,1.08 h -0.03 c 0.08,0.2 0.1,0.35 0.11,0.49 0.01,0 0.01,0 0.01,0 -0.01,0.03 0,0 0,0.04 v -0.01 c 7.1,71.02 2.19,85.84 -4.68,125.02 -1.29,7.43 -17.57,12.19 -21,-1.84 -18.06,-73.56 -13.59,-164.99 -130.05,-303.13 -62.13,-73.68 -120.53,-113.85 -182.71,-164.14" style="fill:#111011;fill-opacity:1;fill-rule:nonzero;stroke:none" id="path102"/>
      <path d="m 3654.17,3358.44 c -2.54,-10 -11.99,-50.33 -20.59,-79.25 -33.24,-109.12 -110.35,-257.9 -119.66,-426.56 -42.05,99.69 -104.04,155.34 -137.54,184.78 -108.1,441.87 64.29,834.02 73.69,977.56 75.9,-65.41 111.4,-93.27 162.64,-178.39 119.3,-198.42 71.27,-358.42 41.46,-478.14 z M 3584,2098.73 c -57.57,-62.39 -129.95,-55.06 -169.96,-14.16 46.09,64.08 105.24,217.49 125.8,309.85 0.78,2.25 6.15,30.38 6.59,32.86 11.92,68.54 12.81,82.55 15.79,152.67 34.23,-90.94 93.39,-178.52 93.39,-322.58 0,-46.45 -11.92,-94.19 -71.61,-158.64 z m -365.87,-33.42 c -52.17,-20.51 -75.34,-24.71 -148.61,-1.9 -56.72,17.74 -107.4,40.17 -94.04,106.95 7.08,29.88 31.13,50.45 105.49,109.83 54.05,42.17 129.18,75.18 191.58,201.23 52.55,108.12 34.53,206.23 4.39,322.9 -28.56,111.13 -121.36,257.17 -146.59,319.05 145.73,-144.78 345.11,-265.38 323.65,-559.13 -7.69,-114.53 19.93,-398.16 -235.87,-498.93 z m -259.81,-237.94 c 0,0 47.09,144.76 55.06,168.34 52.79,-35.87 139.18,-42.41 202.92,-35.68 -56.12,-108.12 -175.33,-148.02 -257.98,-132.66 z m 382.86,-397.22 c 42.7,-15.11 66.24,-18.86 91.56,-46.73 25.92,-27.62 64.77,-88.03 64.77,-88.03 l 0.6,-1.21 0.5,0.5 c 9.63,-17.57 42.05,-65.65 31.72,-78.35 -39.21,-37.67 -232.67,29.87 -378.74,128.17 6.21,30.15 23.8,171.64 24.89,181.66 5.87,-10.01 49.43,-55.45 164.7,-96.01 z M 2974.62,978.859 c -121.61,-12.25 -293.86,-68.019 -390.69,-94.687 -224.24,-61.5 -460.95,-135.07 -654.05,-236.883 52.36,52.063 96.33,85.231 137.31,123.371 2.23,2.059 1.21,1.121 3.24,3.012 4.87,4.648 15.75,14.738 23.79,21.937 85.43,46.129 257.11,166.922 288.53,189.75 l -1.31,0.25 c 231.24,146.331 356.53,409.121 436.7,542.281 51.01,86.23 88.84,164.28 106.86,207.86 82.63,-26.58 138.71,-22.89 193.43,-6.9 C 3032.6,1414.82 2986.79,1113.3 2974.62,978.859 Z M 1710.55,499.52 c -4.47,10 -197.65,172.75 -256.88,211.492 15.51,3.84 29.38,20.879 67.52,9.109 136.73,-41.91 249.5,-61.422 428.51,6.938 C 1890.81,679.84 1720.57,509.172 1710.55,499.52 Z m -344.73,172.199 c 3.51,-0.52 41.26,15.793 44.5,17.332 21.51,-13.77 27.92,-7.903 135.34,-96.653 -36.01,15.614 -169.84,74.891 -179.84,79.321 z m -154.97,89.332 c -197.73,78.847 -192.36,350.559 -302.245,739.639 -30.257,113.08 -40.429,160.66 -40.429,160.66 -0.215,2.67 -5.328,20.21 -11.188,33.02 -18.886,42.84 -62.113,53.54 -101.965,88.11 -97.425,84.86 -170.418,177.84 -195.21,303.54 l 0.027,0.31 c -0.723,3.64 -0.758,4.97 -0.758,4.97 -8.016,50.59 11.969,129.02 17.418,210.78 0.715,11.51 20.676,219.34 21.598,227.28 12.179,116.13 -22.274,226.43 -25.7,264.66 43.325,42.8 19.883,39.83 83.168,70.92 169.309,82.47 213.004,45.93 380.194,26.52 152.5,-18.52 288,-45.17 385.13,-8.71 99.08,35.72 139.67,200.86 138.93,235.63 -0.48,25.9 -8.73,25.55 -36.51,25.39 -21.97,-0.62 -33.61,3.54 -33.43,-19.2 0,-13.98 -0.27,-53.38 -3.01,-67.25 -3.98,-26.23 -18.54,-89.22 -44.38,-109.27 -10,-7.14 -21.73,-15.26 -74.75,-26.01 l 0.32,1.11 c -2.27,8.02 -4.39,17.54 -4.39,17.54 -0.06,0.7 -0.02,0.47 -0.2,1 l 0.01,0.3 c -18.71,65.77 -7.8,125.38 -57.18,77.16 -26.8,-26.24 -32.75,-44.49 -46.24,-66.53 -0.71,8.87 -19.51,71.23 -28.5,89.34 -12.41,25.84 -24.95,29.27 -45.61,32.41 -12.94,2.22 -38.38,7.88 -44.89,8.83 -24.53,3.63 -25.23,-5.06 -25.39,-27.87 0,-33.55 3.62,-43.93 6.28,-57.35 -4.4,11.86 -50.13,68.89 -64.52,81.46 -21.47,18.86 -21.72,16.31 -139.508,-4.51 -108.43,-19.05 -281.188,-70.17 -343.977,-160.63 l 1.2,3.38 c 0.644,36.27 -2.266,70.54 10.382,165.36 15.008,117.34 68.758,391.25 116.059,497.73 33.863,77.67 34.488,109.22 135.148,209.9 39.02,39.43 90.411,99.08 209.326,136.89 119.31,39.01 390.82,-8.62 516.31,136 54.21,-27.97 187.09,-62 196.29,-33.85 41.28,9.72 -11.65,94.55 -11.65,147.24 0,66.19 21.02,162.04 35.91,205.63 13.2,38.88 36.86,77.15 61.72,109.61 32.8,42.86 67.69,76.28 95.18,96.72 9.79,7.33 27.56,17.28 37.56,22.84 0.63,0.36 1.57,0.88 2.26,1.27 100.63,56.02 209.56,108.49 423.11,82.8 -59.95,-12.12 -191.58,-34.67 -301.2,-120.62 -128.86,-101.2 -226.31,-260.04 -234.81,-421.54 l 0.13,1.07 c -1.22,-16.77 -11.61,-98.96 -6.22,-110.96 0.75,-9.69 0.14,-18.18 9.84,-18.89 3.75,-1.36 7.7,-0.35 9.52,1.45 20.08,19.91 29.79,37.42 41.84,56.64 38.91,62.79 30.16,87.85 131.36,170.29 56.3,45.77 148.89,90.5 226.01,100.46 34.92,4.5 162.39,9.58 246.66,-27.64 52.05,-22.94 83.72,-44.06 120.32,-76.99 201.12,-181.25 188.15,-334.27 200.26,-451.35 -70.39,127.84 -205.95,260.08 -378.01,322.85 -75.81,28.52 -84.87,40.34 -206.47,40.59 -143.3,0.39 -260.82,-87.65 -286.86,-133.18 -10,3.94 -17.25,-12.5 -6.36,-18.17 1.47,-6.14 8.65,-9.33 14.28,-5.77 57.03,-21.41 95.91,41.98 220.94,73.63 74.06,18.72 149.51,-6.71 215.47,-35.86 0.91,-0.39 0.54,-0.23 1.67,-0.74 44.58,-19.73 119.61,-41.66 255.57,-158.86 l -1.11,1.59 c 100.41,-95.3 128.79,-146.72 160.66,-202.34 82.54,-143.55 100.63,-207.83 135.94,-368.95 89.47,-419.55 253.92,-511.61 72.83,-861.37 -12.38,-23.53 -26.69,-46.08 -50.49,-74.53 l 0.92,0.38 c -7.27,-5.86 -35.64,-41.79 -41.45,-49.45 -39.25,-51.65 -43.85,-83.37 -47.51,-104.04 -11.15,-68.52 -7.96,-115.62 41.62,-173.14 -45.77,-93.81 -51.86,-99.59 -63.31,-131.97 -72.03,-196.43 -235.17,-532.92 -246.9,-554.59 -0.3,-0.56 -1.99,-3.71 -2.74,-5.12 -87.23,-161.9 -138.17,-196.61 -217.62,-254.62 -131.3,-94.67 -452.49,-353.248 -631.08,-391.029 -53.27,-11.25 -162.67,5.949 -191.95,13.39 -39.67,24.829 -33.28,29.43 -62.34,109.938 -11.19,31.293 -23.61,61.601 -57.98,66.113 -8.78,1.11 -18.73,-1.371 -26.07,-8.371 -37.79,-38.211 47.01,-149.691 -83.82,-162.641 -77.37,-4.218 -120.31,16.54 -153.44,29.571 z M 574.504,938.59 c 83.434,220.76 152.367,344.1 209.723,441.58 6.796,-14.79 68.664,-132.31 107.429,-189.78 C 964.156,906.359 1003.64,855.031 1048.82,796.801 792.59,880.309 596.246,931.699 574.504,938.59 Z m 98.844,782.93 1.851,-3.15 c 71.098,-67.65 67.367,-75.72 112.446,-94.21 4.902,-18.11 21.492,-34.86 40.582,-157.38 13.066,-82.7 22.371,-115.09 34.515,-163.12 -99.308,173.72 -152.75,315.73 -189.394,417.86 z m -85,1983.05 c 55.781,56.12 112.613,78.51 188.277,98.52 -74.711,-86.24 -170.141,-271.62 -213.051,-517.53 -4.41,41.51 -148.121,249.17 24.774,419.01 z m 796.342,322.49 c -22.73,-9.99 -104.63,-53.08 -214.97,-46.67 16.18,4.61 107.77,60.11 214.97,46.67 z M 496.105,2915.47 c -5.64,-14.96 -12.039,-23.88 -17.207,-41.28 -8.953,-13.78 -169.574,-198.04 -113.222,-398.83 10.75,-39.04 47.906,-107.88 52.527,-224.62 l -0.562,0.94 c -127.114,102.36 -285.328,292.19 -288.68,456.11 0.582,54.97 10.125,75.03 17.566,94.92 19.305,47.04 87.118,134.04 112.434,164.01 56.746,68.22 141.148,166.34 74.289,309.5 -34.121,73.86 -46.605,74.77 -74.227,128 -50.207,97.79 -38.531,192.76 13.875,290.41 0.399,0.74 0.278,0.52 0.571,1.07 0.523,1.05 1.89,3.57 2.496,4.71 226.754,423.78 435.281,295.08 703.973,475.51 44.552,30.23 187.792,111.62 270.472,224.89 3.19,-10 29.53,-75.75 83.54,-142.59 35.21,-43.27 60.38,-65.59 105.8,-108.76 -44.32,16.34 -170.62,54.61 -236.4,57.64 -277.967,13.34 -295.842,-191.89 -529.116,-217.13 -15.164,-1.62 -121.972,-6.82 -131.289,-15.84 -4.328,-0.78 -7.742,-4.85 -7.742,-9.45 0,-21.49 155.891,-97.1 380.5,53.59 l -0.406,0.33 1.316,0.19 c 156.757,101.37 230.057,147.51 406.687,80.15 -16.22,1.93 -122.36,-10.84 -246.42,-80.64 -187.665,-105.17 -190.153,-39.72 -383.634,-123.41 -176.824,-75.97 -259.734,-256.74 -248.531,-442.6 13.664,-217.03 126.055,-338.16 51.39,-536.82 z M 1252.49,4836.3 c -35.23,-27.24 -97.81,-208.48 -35.75,-370.35 -37.52,-73.21 -113.45,-159.48 -202.24,-207.95 -481.715,49.38 -341.586,515.44 237.99,578.3 z m 440.92,-722.78 c 2.46,-10 4.68,-19.1 11.68,-36.98 -122.99,67.75 -161.37,120.87 -247.98,232.88 -66.62,85.9 -75.54,167.12 -80.01,193.21 -10.02,58.23 -30.22,135.73 32.7,214.07 46.35,59.01 157.5,87.75 231.62,83.68 119.59,-6.44 248.87,-51.44 340.09,-98.36 -186.85,-100.2 -251.14,-196.23 -302.44,-387.78 -24.2,-91.52 8.98,-179.12 14.34,-200.72 z M 1374.63,5137.5 c 19.61,43.02 64.54,75.13 105.37,102.81 19.43,13.17 18.3,12.21 38.44,21.36 410.76,178.7 619.16,-154.55 932.43,-132.67 12.92,0.94 33.19,3.09 45.28,7.96 6.87,2.76 36.9,18.95 41.46,24.39 12.73,4.81 5.17,22.2 -6.04,17.11 -56.24,4.14 -91.29,19.54 -158.93,46.06 10,-0.73 99.2,20.14 234.24,-1.83 373.05,-66.85 490.71,-198.46 582.66,-398.14 61.21,-133.1 55.62,-334.66 64.78,-390.38 l -0.18,0.4 c -94.71,91.43 -244.41,167.54 -382.46,181.57 -114.39,88.09 -209.42,136.75 -472.77,167.23 -76.74,8.96 -205.4,-5.82 -240.84,-15.24 -180.04,128.78 -302.24,166.14 -423.4,195.11 l 1.38,-0.74 c -114.31,32.35 -258.21,23.31 -366.15,-37.09 -35.62,107.44 -26.37,152.18 4.73,212.09 z m 1310.14,-523.61 3.27,-1.6 c -0.37,-0.05 -0.26,-0.04 -1.24,-0.16 -0.56,0.68 -1.25,1.28 -2.03,1.76 z m -307.06,-95.27 c -128.89,-1.95 -286,-75.53 -350.36,-134.47 53.78,86.68 153.84,159.32 242.66,194.57 121,47.82 306.85,44.17 376.94,27.57 -17.13,-2.53 -85.23,-15.98 -123.45,-25.16 -43.21,-10.32 -126.3,-50.24 -145.79,-62.51 z m 972.8,-448.14 c -3.34,-304.18 -234.64,-478.92 -181.93,-862.21 -58.17,56.51 -128.91,73.16 -223.14,365.47 -64.95,199.94 30.76,526.1 -109.62,700.8 -92.14,114.01 -171.52,194.58 -335.24,233.64 47.07,19.03 36.01,17.5 75.14,27.41 200.1,50.14 338.27,40.97 541.2,-107.17 118.28,-87.78 227.72,-209.51 233.59,-357.94 z m 103.73,221.48 c 80.07,-105.48 125.25,-229 135.44,-308.25 -65.72,61.46 -57.76,49.1 -139.54,110.84 -5.85,90.68 -67.05,197.73 -117.23,255.61 -11.11,62.02 -5.91,87.59 -9.79,140.2 47.94,-99.56 71.15,-118.78 131.12,-198.4 z m 365.19,-857.24 h 0.02 c -5.73,174.24 -51.22,326.96 -160.49,468.83 9.44,19.62 26.41,112.83 10.99,180.72 -30.36,132.89 -222.51,336.93 -252.33,377.78 -114.51,172.27 -22.95,454.54 -410.84,726.53 -137.34,96.63 -405.78,123.57 -571.22,105.1 -8.69,-0.63 -16,-1.07 -23.01,-1.4 -54.17,-2.31 -128.3,-17.3 -152.43,-21.3 -213.02,90.57 -438.44,197.83 -737.8,82.61 -55.14,-21.14 -104.44,-54.13 -150.85,-90.59 -38.49,-30.11 -93.15,-117.91 -108.32,-180.03 -14.54,-59.41 19.36,-140 51.99,-192.83 -0.64,-0.35 -1.32,-0.86 -1.98,-1.37 -210.46,4.2 -463,-58.46 -617.617,-212.81 -36.262,-36.42 -67.809,-76.83 -90.246,-123.53 -53.93,-114.86 -35.442,-312.78 111.43,-397.44 -16.93,-1.06 -90.993,-17.59 -162.075,-47.02 -352.8,-144.49 -638.32,-497.85 -457.9879,-834.91 28.9139,-54.53 60.0779,-73.48 77.1909,-132.55 38.493,-160.66 -198.4019,-192.67 -171.75734,-509.3 6.08203,-67.69 19.18754,-124.49 28.53904,-151.39 7.8946,-23.03 17.2696,-45.51 32.0625,-73.07 17.5274,-33.04 46.0348,-78.35 76.8278,-115.64 46.118,-55.83 146.633,-130.03 254.547,-168.43 -67.746,-138 -305.1287,-160.92 -295.7185,-0.73 0,10.63 -18.1367,14.35 -18.9688,-1.97 -5.0547,-3.63 -10.1289,-57.77 -10.1289,-64.13 0,-92.18 87.1602,-164.91 265.1132,-89.95 71.039,29.99 131.668,84.46 148.629,264.86 8.176,60.2 -10.27,136.81 -9.867,146.81 -41.028,168.9 -23.68,279.67 35.879,391.98 0,-19.32 15.187,-65.64 18.043,-76.47 51.25,-164.11 -4.895,-386.4 -22.981,-512.25 -17.304,-115.66 -18.371,-150.41 33.223,-264.39 16.644,-38.41 21.062,-40.19 31.113,-65.94 72.352,-184.1 81.055,-206.06 190.942,-422.45 -125.575,-156.5 -146.336,-184.81 -232.485,-427.32 -2.34,-7.839 -1.722,-8.371 -12.426,-16.519 C 486.684,965.32 311.227,874.648 120.961,663.23 l -0.285,-0.39 C 73.3906,610.57 70.4805,606.148 86.4922,581.148 104.621,552.18 107.875,552.281 159.117,576.25 584.848,777.75 439.02,790.141 774.363,735.082 l 0.52,-0.121 c 10.023,-1.852 18.222,-3.109 40.519,-7.441 20.676,-4.071 28.969,-5.29 38.969,-7.219 527.709,-93.84 787.029,-229.981 835.689,-246.77 4.63,-3.859 17.68,-13.191 25.54,-17.539 3.12,-1.801 9.12,-4.332 14.31,-1.062 0.82,-0.61 24.84,6.48 25.9,6.82 14.39,4.219 39.7,18.23 52.63,25.672 l -1.19,0.289 c 48.19,21.039 575.2,350.23 1235.66,410.68 18.7,1.98 46.54,4.05 90.86,14.23 0,0 -9.05,71.52 -3.04,228.689 4.13,-7.28 33.32,-21.74 45.81,-25.71 60.86,-20.66 128.46,-10.13 188.41,-2.94 184.91,21.92 219.39,-82.39 296.05,-49.63 18.76,7.95 31.3,21.03 33.37,41.13 5.84,96.06 -78.31,212.54 -132.34,283.08 -176.82,230.93 -272.06,271.05 -356.79,326.74 l 0.32,0.14 c 5.8,21.53 9.66,42.72 13.24,64.75 47.24,31.65 68.51,59.63 130.55,164.73 98.46,-127.43 294.87,-42.45 356.68,39.87 32.5,43.29 59.69,105.8 70.05,178.31 0.25,1.77 0.8,7.95 1,9.96 0.8,8.28 0.41,4.43 0.91,12.15 0.19,4.31 0.47,6.98 0.49,11.78 0,0.03 0.05,9.09 0.05,9.13 0,6.23 -0.14,7.77 -0.6,17.77 -0.06,1.77 -0.09,2.76 -0.53,7.19 -32.97,319.87 -198.46,319.54 -43.09,749.14 16.07,44.27 29.28,81.57 42.7,129.3 27.91,99.19 46.93,284.19 42.42,326.52" style="fill:#111011;fill-opacity:1;fill-rule:nonzero;stroke:none" id="path104"/>
      <path d="m 1026.4,2608.88 c 3.89,-0.01 7.18,3.23 7.18,7.13 0,3.91 -3.23,7.17 -7.13,7.18 -3.9,0.01 -7.18,-3.24 -7.18,-7.13 0,-3.91 3.22,-7.17 7.13,-7.18" style="fill:#fefefe;fill-opacity:1;fill-rule:nonzero;stroke:none" id="path106"/>
      <path d="m 1014.07,2607.01 c 1.08,-1.5 2.26,-3.04 3.97,-3.9 1.08,-0.53 2.19,-0.99 3.33,-1.36 2.46,-0.81 5.21,-0.27 7.69,0.07 4.78,0.67 8.89,3.92 11.24,8.03 2.74,4.78 1.72,10.7 -1.13,15.18 -2.75,4.3 -7.38,7.76 -12.72,7.24 -3.12,-0.31 -6.25,-1.3 -8.5,-3.61 -1.95,-1.99 -2.88,-3.92 -3.82,-6.5 -0.32,-0.87 -0.51,-1.82 -0.6,-2.78 -0.91,-1.9 -1.44,-3.99 -1.44,-6.06 0,-2.22 0.6,-4.41 1.98,-6.31" style="fill:#fefefe;fill-opacity:1;fill-rule:nonzero;stroke:none" id="path108"/>
      <path d="m 2243.34,2592.47 c 0.5,-2.65 1.64,-4.82 3.32,-6.89 1.08,-1.35 2.49,-2.45 4.01,-3.24 2.4,-1.27 4.76,-1.52 7.41,-1.85 1.93,-0.24 4.06,0.26 5.92,0.61 1.78,0.34 3.58,1.2 5.1,2.16 3.57,2.25 6.25,5.89 7.56,9.88 1.46,4.52 0.62,9.37 -1.67,13.44 -0.94,1.66 -3.19,4.25 -4.99,5.07 -0.93,0.43 -1.89,0.84 -2.85,1.19 -0.86,0.23 -1.73,0.35 -2.61,0.44 -0.23,0.16 -0.45,0.32 -0.67,0.47 -0.54,0.53 -1.14,0.98 -1.78,1.35 -2.17,1.24 -4.78,1.58 -7.19,0.95 -2.25,-0.57 -3.89,-1.84 -5.25,-3.57 -0.32,-0.25 -0.63,-0.51 -0.93,-0.79 -2.78,-2.52 -4.62,-5.96 -5.21,-9.66 -0.13,-0.78 -0.21,-1.54 -0.23,-2.28 -0.09,-0.5 -0.16,-1.02 -0.22,-1.53 -0.06,-0.65 -0.09,-1.29 -0.09,-1.93 0,-1.27 0.12,-2.54 0.37,-3.82" style="fill:#fefefe;fill-opacity:1;fill-rule:nonzero;stroke:none" id="path110"/>
    </g>
  </g>
</svg>