<?xml version="1.0" encoding="utf-8"?>
<svg viewBox="0 -0.003 540.453 745.737" xmlns="http://www.w3.org/2000/svg">
  <g id="g8" transform="matrix(1.333333, 0, 0, -1.333333, 0, 745.733337)">
    <g id="g10" transform="scale(0.1)">
      <path d="m 1348.95,3222.88 c -5.37,36.39 -7.02,73.32 -4.91,110.05 -96.73,-23.72 -208.55,-56.21 -291.95,-112.18 12.52,-57.25 82.57,-13.98 118.15,-6.02 16.29,3.64 175.97,26.72 178.71,8.15" style="fill:#5dcbf5;fill-opacity:1;fill-rule:nonzero;stroke:none" id="path12"/>
      <path d="m 2415.47,3275.82 c 40.97,-6.12 84.55,-20 107.67,-54.36 9.51,20.65 17.68,41.92 24.44,63.63 0.55,1.77 1.08,3.75 0.26,5.42 -0.74,1.48 -2.34,2.28 -3.84,2.98 -36.21,16.95 -72.41,33.9 -108.62,50.85 -26.1,12.22 -52.41,24.51 -80.36,31.54 -6.98,1.76 -14.31,3.18 -21.35,1.66 -11.66,-2.52 -20.14,-12.52 -26.5,-22.62 -19.14,-30.43 -33.36,-73.87 -34.16,-109.69 40.93,33.53 91.37,38.22 142.46,30.59" style="fill:#5dcbf5;fill-opacity:1;fill-rule:nonzero;stroke:none" id="path14"/>
      <path d="m 2215.81,2867.8 c 3.7,-11.47 7.41,-22.95 11.11,-34.42 0.71,-2.21 1.4,-4.69 0.34,-6.75 -1.17,-2.27 -3.97,-3.06 -6.45,-3.72 -25.94,-6.83 -49.13,-23.64 -63.69,-46.17 -26.3,86 -52.9,174.35 -46.94,264.09 13.61,3.08 37.56,13.96 48.04,5.4 9.6,-7.83 14.86,-46.03 18.82,-58.31 12.92,-40.04 25.85,-80.08 38.77,-120.12" style="fill:#5dcbf5;fill-opacity:1;fill-rule:nonzero;stroke:none" id="path16"/>
      <path d="m 1178.35,2779.98 c 37.54,-6.43 74.71,-15.06 111.24,-25.84 -8.23,2.43 58.01,183.11 46.39,202.2 -58.56,-47.67 -107.44,-119.41 -157.63,-176.36" style="fill:#5dcbf5;fill-opacity:1;fill-rule:nonzero;stroke:none" id="path18"/>
      <path d="m 3612.59,3134.13 c 21.22,71.84 37.04,145.27 47.3,219.47 0.95,6.88 1.61,14.68 -2.86,20.01 -3.33,3.97 -8.67,5.48 -13.69,6.79 -27.52,7.18 -55.04,14.36 -82.57,21.54 -92.24,-85.65 -172.17,-208.97 -194.51,-334.7 -10.19,-57.33 33.65,-58.59 76.8,-33.81 28.37,16.29 52.82,40.05 81.1,57.07 13.29,8 85.57,33.94 88.43,43.63" style="fill:#5dcbf5;fill-opacity:1;fill-rule:nonzero;stroke:none" id="path20"/>
      <path d="m 1096.69,1209.61 c 4.44,-7.19 9.04,-15.86 5.79,-23.66 -3.17,-7.62 -12.22,-10.55 -20.2,-12.63 -258.471,-67.12 -512.186,-152.55 -758.616,-255.429 0.32,44.379 34.57,80.308 67.094,110.519 109.344,101.56 226.66,196.73 357.801,268.88 49.863,27.43 149.273,93.36 207.859,88.82 63.642,-4.93 105.322,-119.92 140.272,-176.5" style="fill:#5dcbf5;fill-opacity:1;fill-rule:nonzero;stroke:none" id="path22"/>
      <path d="m 1597.9,872.93 c 6.04,3.121 12.81,6.23 19.4,4.55 13.3,-3.39 14.67,-21.57 12.83,-35.16 -19.13,-141.379 -72.59,-285.648 -32.88,-422.679 81.32,62.937 162.64,125.879 243.95,188.82 -23.94,-72.961 -33.69,-150.539 -28.54,-227.141 1.47,-21.968 7.51,-48.242 28.39,-55.191 12.44,-4.141 25.9,0.383 38.33,4.551 48.71,16.32 99.11,27.59 150.14,33.558 12.11,1.41 26.06,1.934 34.64,-6.738 6.67,-6.75 7.92,-17 8.81,-26.449 6.99,-74.602 13.99,-149.199 20.99,-223.801 -167.69,3.148 -339.93,-8.6797 -498.83,45.008 -144.21,48.73 -295.69,180 -297.24,344.254 -1.47,156.187 171.91,310.308 300.01,376.418" style="fill:#5dcbf5;fill-opacity:1;fill-rule:nonzero;stroke:none" id="path24"/>
      <path d="m 1747.43,3500.28 c 35.76,2.21 71.87,-1.21 106.58,-10.09 -30.47,113.5 -61.15,228.45 -62.5,345.95 -9.76,-0.53 -17.84,-8.51 -21.49,-17.57 -3.65,-9.07 -3.75,-19.11 -3.79,-28.88 -0.11,-22.36 -0.2,-288.4 -18.8,-289.41" style="fill:#5dcbf5;fill-opacity:1;fill-rule:nonzero;stroke:none" id="path26"/>
      <path d="m 1953.92,3478.36 c 28.57,-4.98 56.78,-12.04 84.33,-21.12 -10.56,60.72 -21.12,121.44 -31.69,182.17 -3.3,18.98 -6.8,39.39 -20.23,53.65 -24.92,-22.81 -31.61,-59.17 -31.7,-91.41 -0.03,-12.75 1.05,-123.6 -0.71,-123.29" style="fill:#5dcbf5;fill-opacity:1;fill-rule:nonzero;stroke:none" id="path28"/>
      <path d="m 1212.38,3392.23 c 9.07,-5.25 18.35,-10.58 28.63,-12.59 18.83,-3.68 38.73,4.22 57.27,-0.69 28.42,-7.53 40.81,-40.17 61.89,-60.65 29.68,-28.82 77.58,-33.58 105,-64.56 28.3,-31.98 27.2,-83.71 58.68,-112.57 72.58,83.04 142.98,167.98 211.11,254.71 -144.53,15.08 -288.43,36.11 -431.22,63.03 -37.54,7.08 -75.09,14.59 -113.08,18.91 -30.98,3.53 -83.65,13.17 -111.43,-1.6 6.98,-18.99 41.8,-31.09 58.76,-40.91 24.8,-14.36 49.59,-28.72 74.39,-43.08" style="fill:#b82327;fill-opacity:1;fill-rule:nonzero;stroke:none" id="path30"/>
      <path d="m 2027.89,3246.56 c -0.15,-43.11 -1.9,-86.21 -5.26,-129.18 74.36,48.49 131.75,117.68 184.51,188.03 17.33,23.1 65.87,69.31 25.22,94.16 -32.82,20.06 -73.37,-23.28 -95.26,-42.1 -19.69,-16.94 -38.68,-34.69 -56.9,-53.2 -9.81,-9.95 -52.27,-44.35 -52.31,-57.71" style="fill:#b82327;fill-opacity:1;fill-rule:nonzero;stroke:none" id="path32"/>
      <path d="m 915.949,2592.45 c 19.731,-12.08 40.75,-23.47 54.821,-41.84 10.664,-13.91 16.515,-30.81 22.437,-47.3 47.963,-133.61 111.473,-261.62 188.843,-380.64 -44.64,-52.97 -102.39,-94.81 -166.63,-120.73 20.95,8.45 -145.635,439.64 -162.295,479.48 -13.691,32.73 -114.336,200.4 -100.719,226.43 15.84,30.27 55.02,-30.1 67.821,-42.17 29.281,-27.61 61.39,-52.21 95.722,-73.23" style="fill:#b82327;fill-opacity:1;fill-rule:nonzero;stroke:none" id="path34"/>
      <path d="m 659.02,3775.94 c -18.372,-90.53 -15.426,-225.5 -64.715,-301.92 -27.707,-42.96 -72.559,-79.95 -108.821,-115.56 -13.351,-13.11 -95.507,-78.59 -93.242,-92.48 -16.672,102.14 -20.711,232.66 41.895,319.64 29.383,40.83 63.879,77.94 102.371,110.32 15.945,13.41 119.867,66.96 122.512,80" style="fill:#b82327;fill-opacity:1;fill-rule:nonzero;stroke:none" id="path36"/>
      <path d="m 797.273,4071.03 c 38.727,58.69 77.454,117.39 116.176,176.08 93.181,141.22 197.581,291.44 357.531,346.62 -39.31,-13.66 -151.68,152.39 -173.23,177.66 -100.68,-37.58 -123.922,-211.47 -157.711,-303.26 -48.594,-132 -96.184,-264.37 -142.766,-397.1" style="fill:#b82327;fill-opacity:1;fill-rule:nonzero;stroke:none" id="path38"/>
      <path d="m 3475.29,3570.28 c -41.21,13.73 -81.65,29.78 -121.06,48.05 -8.04,-132.49 4.64,-266.23 37.44,-394.85 -64.1,82.07 -130.31,168.75 -147.82,271.41 -10.66,62.54 -2.32,126.59 -3.95,190.02 -2.74,106.52 -60.01,200.55 -51.63,307.15 0.92,11.68 2.93,24.65 12.18,31.84 10.83,8.44 27.46,4.74 37.6,-4.52 10.14,-9.25 15.36,-22.57 20.25,-35.4 33.92,-89.03 83.08,-161.48 122.1,-247.11 18.34,-40.25 47.39,-150.76 94.89,-166.59" style="fill:#b82327;fill-opacity:1;fill-rule:nonzero;stroke:none" id="path40"/>
      <path d="m 2866.85,1334.79 c -2.16,-15.92 -4.41,-32.29 -12.26,-46.3 -7.97,-14.21 -21.01,-24.75 -33.73,-34.93 -62.66,-50.13 -125.33,-100.26 -187.99,-150.38 18.8,147.99 71.09,289.2 137.96,421.84 33.05,65.56 69.8,129.18 108.2,191.73 26.2,42.69 69.55,147.41 117.69,163.56 -58.79,-181.01 -104.21,-356.08 -129.87,-545.52" style="fill:#b82327;fill-opacity:1;fill-rule:nonzero;stroke:none" id="path42"/>
      <path d="m 1561.6,2072.96 c -4.87,-24.77 -9.75,-49.55 -14.62,-74.32 -1.77,-8.98 -2.83,-20.01 4.39,-25.64 6.57,-5.13 16.05,-2.56 23.9,0.26 125.91,45.26 251.49,98.44 384.85,109.34 -33.26,-46.2 -56.1,-99.85 -66.35,-155.84 38.65,-3.05 77.03,-9.45 114.57,-19.11 -7.5,-19.85 -15.01,-39.7 -22.52,-59.56 -110.05,35.37 -230.02,70.71 -338.68,31.29 -26.93,-9.76 -52.63,-24.03 -80.99,-28.08 -25.43,-3.64 -51.28,1.21 -76.96,0.59 -65.29,-1.57 -121.06,-39.76 -174.94,-72.47 -57.04,-34.63 -119.19,-56.19 -180.75,-82.56 80.65,90.91 137.71,169.15 235.45,243.84 28.21,21.55 187,103.52 192.65,132.26" style="fill:#b82327;fill-opacity:1;fill-rule:nonzero;stroke:none" id="path44"/>
      <path d="m 1930.69,3480.35 c 37.51,-15.58 72.79,-43.1 84.93,-81.85 -36.91,14.25 -77.19,16.77 -116.74,17.91 -35.23,1.01 -262.85,-30.03 -227.13,41.8 15.43,31.02 87.72,36.63 117.99,39.89 47.62,5.14 96.45,0.72 140.95,-17.75" style="fill:#b82327;fill-opacity:1;fill-rule:nonzero;stroke:none" id="path46"/>
      <path d="m 1138.16,2831.64 c 14.54,0 64.77,7.93 84.6,7.93 19.83,0 79.32,17.19 89.89,44.95 10.58,27.76 39.66,76.67 62.13,100.46 22.47,23.8 10.58,47.59 10.58,47.59 l -34.37,-9.25 c -48.91,-91.21 -103.11,-99.14 -103.11,-99.14 0,0 40.98,-7.94 14.54,-14.55 -26.44,-6.61 -166.56,31.73 -166.56,31.73 l -10.58,-18.51 -126.901,116.33 -15.863,-6.61 c 0,0 17.183,-60.81 27.757,-74.02 10.579,-13.22 46.267,-31.73 46.267,-31.73 55.52,-87.25 107.08,-95.18 121.62,-95.18" style="fill:#111011;fill-opacity:1;fill-rule:nonzero;stroke:none" id="path48"/>
      <path d="m 1431.6,3199.11 c 0,0 -25.6,-44.2 -106,-56.7 1.8,1.3 43.9,33.7 45.2,69.9 0.9,25.2 -2.5,60.7 -4.7,80.9 39.7,-20.1 86.5,-36.8 90.6,-48.7 5.3,-15 15.9,-53.3 15.9,-53.3 z m -175.7,-62.1 c -38.6,-1.9 -80.5,-3.4 -119.4,-4.4 -20.2,13.7 -50.9,41.8 -53.6,87 12.7,5 25.9,10.5 39.4,16.5 16.8,7.5 32.5,15.1 47.4,22.6 -5.7,-7.8 -9.1,-17.4 -9.1,-27.9 0,-26.3 21.3,-47.6 47.6,-47.6 26.3,0 47.7,21.3 47.7,47.6 0,26.3 -21.3,47.7 -47.6,47.7 54.9,28.5 94.3,48.3 122.6,34.6 10.9,-46.5 10.9,-143 -75,-176.1 z m -248.6,-6.6 c -47.601,0 -80.601,41 -80.601,41 0,0 45.5,8.9 110.701,31.4 5.6,-18.8 18.1,-52.4 39.3,-71.6 -29.9,-0.6 -54.6,-0.8 -69.4,-0.8 z m 48.9,132.2 c 121.6,58.1 236.6,93.8 256.5,96.5 19.8,2.6 23.7,-29.1 23.7,-29.1 0,0 -67.8,5.3 -148.2,-34.4 -80.4,-39.6 -245.7,-96.5 -245.7,-96.5 0,0 -7.898,5.3 113.7,63.5 z m 436.2,-45 c -7.9,18.5 -13.2,39.7 -38.3,54.2 -25.1,14.6 -76.7,33.1 -76.7,33.1 l 5.3,9.2 c 0,0 -13.2,33.1 -38.3,54.2 -25.1,21.2 -76.7,23.8 -163.9,-18.5 -87.3,-42.3 -251.199,-109.7 -272.398,-121.6 -21.102,-11.9 -27.704,-51.6 -27.704,-51.6 l 22.5,-5.2 c 0,0 26.403,-39.7 39.602,-46.3 13.199,-6.6 97.8,-19.8 193,-22.5 95.2,-2.6 239.3,27.8 271,39.7 31.7,11.9 39.7,43.6 39.7,43.6 l 46.2,-23.8 c 0,0 8,37 0,55.5" style="fill:#111011;fill-opacity:1;fill-rule:nonzero;stroke:none" id="path50"/>
      <path d="m 2604.2,3270.81 -191.5,98.1 34.2,14.9 z m -73.5,-111.7 c 7.8,10 15.6,23.1 19,38.5 4.9,22.5 8.1,47.5 9.8,62.9 64.9,-42.1 119.7,-82.1 119.7,-82.1 0,0 -67.1,-12.4 -148.5,-19.3 z m -67.7,-4.1 c -27.8,-0.9 -55.7,-0.7 -81.7,1.1 -14.5,1.1 -27.6,2 -39.4,2.9 -22.3,15.7 -52,44.1 -56.1,86.5 -4.2,44.5 15.6,77.7 30.1,95.6 13.7,9.6 30.5,15.9 52.8,15.2 28.3,-0.9 84.2,-30 140.9,-64.4 3.7,-38.1 -10.8,-104 -46.6,-136.9 z m -225.6,12 c 0,0 -14.4,38.4 -35.3,38.4 -20.9,0 -51,-23.1 -51,-23.1 l -8.7,10 c 0,0 71.9,60.6 105.9,79.8 2.3,1.3 4.6,2.9 6.7,4.6 -4.4,-37 0.7,-81.9 39.8,-114.2 -48.9,3.7 -57.4,4.5 -57.4,4.5 z m 10.9,167.5 17.5,-3.9 -5.2,-24.2 v -0.1 l -69.5,-40.5 c 4.5,4.4 57.2,68.7 57.2,68.7 z m 596.1,121.4 c 0,0 -44.6,-2 -86.5,-6.6 -41.9,-4.7 -102.5,21.9 -102.5,21.9 20.9,13.2 80,72.3 110.1,103.1 h 0.1 c 11,11.3 18.2,18.7 18.2,18.7 l -30.6,4 c -32.7,-16.3 -68.9,-31.9 -106.7,-46.5 -190,-73.4 -418.2,-122.5 -418.2,-122.5 0,0 -18.2,-8.7 -27.5,-21.3 -9.3,-12.7 7.1,-82.6 7.1,-82.6 l -90.2,-106.3 c 4,-4.1 -6.6,-58.3 18.5,-63.6 25.1,-5.3 64.8,23.8 64.8,23.8 0,0 14.5,-34.4 41,-42.3 26.4,-8 272.3,-22.8 330.4,-33.2 0,0 152.1,6.7 203.6,68.9 0,0 -198.7,176 -295.2,225.9 28.8,13.6 84.1,38.5 102,38 24.7,-0.7 175.7,-14 175.7,-14 0,0 45.3,7.3 75.3,7.3 29.9,0 10.6,27.3 10.6,27.3" style="fill:#111011;fill-opacity:1;fill-rule:nonzero;stroke:none" id="path52"/>
      <path d="m 2385.99,3206.14 c 30.04,0 54.39,24.35 54.39,54.39 0,30.03 -24.35,54.38 -54.39,54.38 -30.03,0 -54.38,-24.35 -54.38,-54.38 0,-30.04 24.35,-54.39 54.38,-54.39" style="fill:#111011;fill-opacity:1;fill-rule:nonzero;stroke:none" id="path54"/>
      <path d="m 2647.95,2978 c -19.26,2.4 -106.73,-72.23 -129.2,-88.28 -22.47,-16.05 -72.23,-3.21 -170.94,0 -98.71,3.21 -89.09,36.11 -108.34,69.02 -19.27,32.9 -65.01,97.1 -65.01,97.1 0,0 -21.67,-10.43 -24.08,-10.43 0,0 34.51,-82.66 52.97,-170.94 18.46,-88.28 49.76,-91.49 49.76,-91.49 0,0 244.77,1.61 277.61,15.25 32.84,13.64 117.23,165.32 117.23,165.32 0,0 19.26,12.04 0,14.45" style="fill:#111011;fill-opacity:1;fill-rule:nonzero;stroke:none" id="path56"/>
      <path d="m 1968.21,2728.32 -14.7,-34.3 c 0,0 48.06,-5.69 80.03,-42.46 32.66,-37.56 68.59,-84.92 99.62,-155.14 31.03,-70.23 99.62,-151.89 212.31,-127.39 l -8.17,16.33 c 0,0 -42.46,-11.43 -127.38,125.75 -84.93,137.19 -117.59,174.75 -117.59,174.75 0,0 -13.06,27.76 -65.32,27.76 -52.26,0 -58.8,14.7 -58.8,14.7" style="fill:#111011;fill-opacity:1;fill-rule:nonzero;stroke:none" id="path58"/>
      <path d="m 1805.59,3562.79 -30.48,375.96 -23.22,-10.17 -30.49,-358.54 c 30.49,-30.48 84.19,-7.25 84.19,-7.25" style="fill:#111011;fill-opacity:1;fill-rule:nonzero;stroke:none" id="path60"/>
      <path d="m 2008.21,3500.37 c -32.54,31.93 -45.84,287.41 -45.84,287.41 h -21.78 l -11.61,-269.99 c 4.35,-42.1 79.23,-17.42 79.23,-17.42" style="fill:#111011;fill-opacity:1;fill-rule:nonzero;stroke:none" id="path62"/>
      <path d="m 3423.6,3496.41 c 0,0 32.9,-75.2 94,-82.3 v -237.3 l 30.6,-17.7 c 0,0 70.5,154.3 70.5,224.7 l 21.1,-16.7 c 0,0 -21.1,-190.3 -82.2,-274.9 -36.8,-51 -57.5,-126.9 -70.6,-194.8 -8.6,-44.8 -14,-86 -18.7,-114.4 -3.2,-19 -6.6,-45.9 -10.9,-74.8 -11.8,-79.8 -29.8,-175.4 -64.3,-167.4 -15.2,3.6 -23,20 -26.7,40.6 -7.6,43 3.2,104.3 3.2,104.3 0,0 75.2,-11.8 61.1,86.9 0,0 -13.5,81.2 9.7,182.4 7.4,32.2 18.5,66.5 34.9,100.8 0,0 -23.5,54.2 -110.4,54.7 0,0 -16.5,202.6 -94,317.7 0,0 32.9,195.1 -11.8,350.2 -44.6,155.1 -47,211.5 -47,211.5 h 16.5 c 0,0 258.2,-214.4 384.8,-268.5 l 28.8,-10.1 c -8.5,2.1 -18.3,5.6 -28.8,10.1 l -302.6,106.3 -11.7,-28.2 c 0,0 343.1,-279.3 648.6,-415.7 0,0 -383.1,4.5 -524.1,112.6 z m -80.4,-485.1 c -4.6,-69.3 -29.7,-119.5 -29.7,-119.5 l -101.4,34.6 13.3,111.5 37.9,318.4 c 0,0 72.7,-209.2 79.6,-300.5 1.2,-15.5 1.1,-30.4 0.3,-44.5 z m -52.7,-1292.1 -610.6,-559.2 c 0,0 34.1,146 57.3,265.2 39.6,42.7 106,163.2 177,294.7 70.9,131.6 146.4,274 203.9,360.4 84.2,126.1 163,323.9 199.4,421.4 4.4,11.7 8.1,22 11.2,30.5 1.4,-1.4 2.9,-2.7 4.4,-3.9 1.8,-1.6 3.7,-2.9 5.6,-4.1 -99.9,-323.2 -48.2,-805 -48.2,-805 z M 2591,1047.31 C 2573.2,964.309 2448.7,849.711 2448.7,849.711 L 2401.3,626.41 C 2312.4,586.91 2255.1,415.012 2255.1,415.012 2136.5,426.91 2063.4,258.91 2063.4,258.91 c 0,0 -183.8,-9.898 -337.9,-9.898 -154.2,0 -272.7,35.597 -328.1,47.398 -55.3,11.899 -124.4,472.301 -124.4,583 0,110.602 -92.9,167.9 -92.9,167.9 h -29.7 l -11.8,302.4 c -81,23.7 -118.6,148.2 -118.6,148.2 0,0 -4.7,70.1 5.8,141.6 34,5.8 66,13.9 93.1,23.9 32.2,11.8 67.6,28.6 102.6,47.1 104.9,55.2 206,126 206,126 6.7,-1.8 13.3,-3.5 19.7,-5 2.8,-22.4 12.6,-54.4 43.1,-82.7 53.4,-49.4 126.5,-92.8 264.8,-58.2 96.9,24.3 155.3,87.7 181.7,123.5 140.9,-36.8 496.8,-55.9 765.2,74.5 3.2,-53.1 8.2,-159.3 3.9,-253.4 -1.2,-26.8 -3.2,-52.7 -6.2,-76.1 -17.8,-138.3 -90.9,-428.8 -108.7,-511.8 z m -767.7,822.5 c -46.1,-17.3 -99.6,-79 -196.6,-93.3 -67.5,-10 -98.5,17.3 -112.6,43.2 152.9,-16.6 204.9,57.9 258,69.1 32.2,6.7 35.4,-2.8 51.2,-19 z m -998.402,-177 c 0,0 62.102,8.2 53.903,44.1 -8.199,35.9 -35.903,16.3 -124.102,35.9 -88.199,19.6 -204.199,71.9 -259.699,168.2 0,0 81.699,-68.6 204.199,-44.1 0,0 21.199,26.2 21.199,36 0,9.5 -50.597,52.7 -53.699,55.4 5.403,-1.9 116.102,-41 195.801,-52.2 58,-8.1 188.7,25.8 280.5,66.7 37.4,16.6 68.3,34.4 85.3,50.9 58.8,57.2 145.3,182.9 145.3,182.9 0,0 168.2,-114.3 236.8,-96.3 l 117.6,127.3 c 0,0 129,39.2 210.7,-24.5 81.6,-63.6 153.9,-236.4 496.4,-102.8 0,0 -127.3,-80.1 -112.6,-114.4 14.5,-33.8 238.8,65.9 244.8,68.5 -5.3,-3.8 -176.1,-127.6 -171.3,-148.5 4.9,-21.2 -3.1,-70.2 328.3,27.8 0,0 -166.7,-114.3 -485.1,-117.6 -318.5,-3.3 -377.3,75.1 -462.2,78.4 -84.9,3.3 -107.8,-58.8 -196,-47.4 -88.2,11.5 -166.5,52.1 -249.8,-31.1 -35.3,-35.2 -89,-73.1 -157.3,-103.7 -92.9,-41.7 -212.502,-69.9 -349.002,-59.5 z m 25.801,848 c -131.801,311.6 -232.199,467.8 -188.898,921.1 0.097,0.1 0.097,0.1 0.097,0.1 0.102,1.3 0.204,2.5 0.301,3.8 0.903,9 1.801,18.1 2.801,27.4 0,0.2 0,0.3 0.102,0.5 37.898,354.2 225.398,702.7 360.698,888.3 v 0.1 c 47,64.4 87.7,109.2 113.6,127.8 100.6,71.8 173.2,89.8 259.7,11.9 7.4,-6.6 14.9,-12.8 22.4,-18.5 80.8,-61.9 169.6,-73.5 240.8,-32.4 77.9,45 364.6,492.8 477.3,497.7 15.3,0.7 28.9,-3.5 28.9,-3.5 0,0 331.6,-461.5 630.5,-677.3 l -314.9,99.2 c -25.4,-37.6 77.1,-96.3 157,-159.8 79.9,-63.4 303.1,-188 303.1,-188 -148,-16.4 -380.7,94 -390.1,51.7 -9.4,-42.3 61.1,-96.3 61.1,-96.3 -79.9,11.7 -320.4,159.8 -320.4,159.8 72.1,-131.6 362.7,-251.5 384.4,-215.7 21.6,35.8 -64,107.6 -64,107.6 96.4,-49.4 352.5,-47 352.5,-47 0,0 31.5,-38.9 72.1,-95.3 v -0.1 c 76.1,-106 183.9,-274 174.7,-362.9 -9.6,-92.6 -52.8,-346.1 -79.5,-499.3 -12.6,-72.4 -21.6,-122.3 -21.6,-122.3 l 223.3,-120.9 c 0,0 -4,-84.2 -11.9,-153.2 -32.4,-63.5 -98.6,-199.6 -136.3,-321.9 -40.9,-132.9 -167.4,-343.2 -250.7,-487.7 -21,-36.5 -39.3,-68.8 -52.7,-94.5 -38.4,-73.5 -91.2,-149.1 -129.2,-200.1 2.4,36.1 1,82.4 -2.2,130.4 -5.8,88 -17.8,182.1 -24.5,231 2.7,1.4 5.4,2.8 8.1,4.2 274.3,151.9 253.1,336.4 253.1,336.4 -111,-71.8 -207.4,-96.3 -207.4,-96.3 156.8,122.5 251.5,318.4 251.5,318.4 l -13.1,9.8 c -125.3,-152.7 -310.9,-237.3 -316.7,-239.9 112.6,101.2 133.8,239.9 133.8,239.9 l -22.8,8.2 c -71.9,-161.7 -271.1,-194.3 -447.5,-223.7 -109.5,-18.3 -197,21.4 -259.3,63.6 -38,25.6 -66.7,52.1 -85.3,67 -49,39.2 -137.2,45.8 -137.2,45.8 -129,-9.8 -323.3,-187.9 -323.3,-187.9 -27.8,8.2 -138.8,75.2 -138.8,75.2 -34.3,148.6 -18,458.9 17.9,609.1 35.9,150.3 215.6,375.6 302.1,418.1 86.6,42.5 249.9,47.4 249.9,47.4 -60.4,88.1 -305.4,57.1 -305.4,57.1 -63.7,65.3 -218.8,83.3 -218.8,83.3 -30.6,18.5 -68.2,38.8 -101,56 -0.1,-0.1 -0.1,-0.1 -0.1,0 -42.6,22.1 -76.9,38.7 -76.9,38.7 l -3.3,-26.1 23,-25.5 45.5,-50.4 c -3,0.8 -50.7,14.6 -112.4,41.2 -28.1,12.1 -59,27 -90,44.5 -101.3,57.1 -231.902,94.7 -231.902,94.7 -4.296,-6.8 -3.398,-15.8 1.403,-26.2 0,0 0,0 0.097,-0.1 27.801,-60.2 183.002,-168 183.002,-168 -156.701,42.4 -326.599,127.3 -326.599,127.3 -34.301,-57.1 178,-187.8 178,-187.8 0,0 109.399,-19.6 274.399,-32.6 164.9,-13.1 455.6,-73.5 455.6,-73.5 -360.3,-279.5 -318.4,-728.4 -318.4,-728.4 0,0 -197.3,-435.3 -330.6,-577.4 -26.7,80.1 -90.101,262 -189.101,496.2 z m -393.898,735.9 c -80,-24.1 -53.301,92.8 -37.903,270.8 10.903,125.9 44.204,257.3 62.801,323.5 114.699,44 184,100.9 186.102,102.5 -3.102,-9.3 -102.602,-307.8 -110.403,-679.2 -18.296,0 -51.5,-2.8 -100.597,-17.6 z m -408.9026,762.4 c 0,0 283.7036,15.1 441.4996,79 157.903,63.8 240.102,167.9 240.102,167.9 0,0 -261.898,-92.4 -381.102,-18.5 l 171.301,80.6 c 0,0 -141.097,25.2 -218.301,28.5 0,0 183,63.8 214.903,95.7 31.898,31.9 0,31.9 0,31.9 0,0 -35.301,-8.4 -95.699,-1.7 -60.403,6.8 -107.5,43.7 -107.5,43.7 0,0 599.398,78 797.598,173.31 l 119.6,-106.21 11.3,-10 c 0,0 -18.9,-5.7 -47.1,-19.4 -51.5,-24.9 -133.9,-76.5 -189.4,-168.7 -85.799,-142.7 -141.202,-250.1 -141.202,-250.1 0,0 -114.199,-105.8 -272,-169.6 -157.898,-63.8 -332.5,-95.7 -332.5,-95.7 0,0 60.5,26.8 78.903,62.1 0,0 -236.699,18.5 -290.4026,77.2 z M 1009.4,5192.81 c 44.9,365.4 633.6,353.4 754.1,332.4 120.5,-21 473.9,-152.69 473.9,-152.69 0,0 -258.9,23.89 -473.9,62.89 -215,38.9 -415.7,-147.2 -382.7,-349.2 32.9,-201.9 89.8,-318.8 89.8,-318.8 l -50.2,-36 -0.3,-0.2 -129.2,-92.5 c 0,0 -5,2.9 -13.6,8.6 -61.3,40.6 -307.3,225.1 -267.9,545.5 z m 919.6,-308.5 -275.7,-164.79 c 0,0 -36.4,39.39 -78.5,100.5 -78.2,113.19 -176,300.79 -98.2,450.59 117.7,226.7 517.5,94.6 531.2,90 -8.9,0.7 -150,9.8 -123.8,-146.9 11.6,-70.1 21.7,-141.4 29.3,-199.6 9.9,-76 15.7,-129.8 15.7,-129.8 z m 511.4,365.4 c 57.6,-74.9 521.8,-317.5 677.6,-383.4 155.7,-65.9 476.2,-209.7 643.9,-215.7 0,0 -113.8,-65.9 -524.1,21 -410.4,86.91 -320.5,24 -320.5,24 0,0 416.3,-386.4 709.8,-446.3 0,0 -281.5,3 -431.3,77.9 0,0 198.1,-258.1 395.1,-347.4 -12.1,4 -402.8,134.1 -679.9,302.6 -58.4,35.5 -111.7,72.6 -155.4,110.7 -254.6,221.6 -455.3,617 -569.1,617 -113.8,0 -131.8,-48 -131.8,-48 l -17.5,121.5 -29,202 25.5,32.91 c 0,0 349.1,6 406.7,-68.81 z m 568.8,-1146.9 c 81.7,-46.1 146.5,-84.7 146.5,-84.7 -45.6,6.6 -88.4,16.2 -128.3,27.8 -263.4,76.1 -402.8,240.1 -402.8,240.1 0,0 131.6,-47 260.5,-115.2 41.7,-22.1 84.9,-45.9 124.1,-68 z m 1044.2,-728.6 -561.6,314.9 c 0,0 2.3,16.4 195,-48.6 192.7,-65.1 293.8,15.7 293.8,15.7 -87,18.8 -416,263.2 -416,263.2 l -12.7,29.6 c 142.4,-51.9 247.8,-78 258.1,-44.2 0,0 -173.9,83.9 -377.5,317.5 0,0 299.9,-74.8 377.5,12 0,0 -368.6,155.8 -536.3,389.4 0,0 524.2,-89.9 584.1,41.9 0,0 -515.2,119.8 -886.6,326.5 -371.4,206.6 -261.3,101.8 -487.1,269.5 -225.7,167.8 -588.1,452.3 -1175.2,275.6 -587.002,-176.69 -467.201,-482.19 -308.5,-691.9 0,0 -572.099,-284.5 -751.798,-257.6 0,0 13.398,-104.8 187.898,-116.8 0,0 -175.898,-32.9 -205.801,-110.8 0,0 65.903,-18 164.699,-26.9 0,0 -71.898,-6 -89.898,-62.9 0,0 113.898,-95.9 239.602,-83.9 0,0 -350.403,-152.8 -545.102,-122.8 0,0 48,-120.9 251.602,-124.9 l -65.903,-45.8 c 0,0 16.801,-6.8 43.602,-14.7 48.398,-14.3 129.5,-32.4 202.597,-20.7 -50.097,-148.5 -61.597,-413.2 -67.699,-542.6 -7,-148.5 75.699,-74.4 124,-54.4 28.403,11.8 53.199,9.7 68.801,6 -0.102,-16.1 -0.102,-32.4 0.102,-48.7 6,-412.2 137.796,-517.7 191.699,-547.3 0,0 95.398,-174.9 131.597,-305.9 30.5,-110.7 84.403,-305.2 100.403,-362.9 -0.199,-0.1 -0.5,-0.2 -0.801,-0.3 -122.398,-29.4 -365.801,40.9 -365.801,40.9 0,0 -11.398,52.2 -42.398,45.7 -31.102,-6.5 98,-160 98,-160 -155.199,-4.9 -230.301,109.4 -230.301,109.4 0,0 -27.801,-65.4 86.5,-179.7 114.398,-114.3 272.801,-130.6 272.801,-130.6 -34.301,-24.5 -106.199,-22.9 -106.199,-22.9 41,-66 169.398,-82.8 287,-70.9 l -22.801,-214.5 -656.102,-262.8 19.801,-37.5 709.4,185.7 c -4,-128.4 31.6,-438.698 31.6,-438.698 37.6,23.797 85,116.597 85,116.597 44.9,-386.898 162,-636.3 162,-636.3 0,0 79.1,-132.399 213.4,-256.7973 134.4,-124.5 341.9,-86.99998 527.6,-71.2031 185.8,15.8008 201.6,67.2031 282.6,197.6014 81,130.399 128.5,413 128.5,413 112.6,142.301 207.5,343.899 207.5,343.899 l -43.5,3.902 29.6,77.099 c 203.6,-15.8 685.7,201.5 685.7,201.5 0,0 586.9,-130.4 586.9,-79 0,51.4 -501.9,282.6 -539.5,282.6 -37.5,0 -59.2,262.8 -59.2,262.8 0,0 7.9,229.2 15.7,454.5 6.2,178.2 17.5,295.8 21.9,337.1 3.8,-0.9 6.2,-1.3 6.2,-1.3 l 28.2,0.3 c 72.9,-7.1 84.6,145.7 98.7,239.7 14.1,94 25.9,216.2 103.4,351 77.6,134.8 68.2,253.8 68.2,253.8 l 383,-41.4 v 59.3" style="fill:#111011;fill-opacity:1;fill-rule:nonzero;stroke:none" id="path64"/>
      <path d="m 1233.62,3242.87 c 0,-9.83 -7.97,-17.8 -17.8,-17.8 -9.83,0 -17.8,7.97 -17.8,17.8 0,9.83 7.97,17.8 17.8,17.8 9.83,0 17.8,-7.97 17.8,-17.8" style="fill:#ffffff;fill-opacity:1;fill-rule:nonzero;stroke:none" id="path66"/>
      <path d="m 2412.3,3276.7 c 0,-9.53 -7.73,-17.26 -17.26,-17.26 -9.54,0 -17.26,7.73 -17.26,17.26 0,9.54 7.72,17.27 17.26,17.27 9.53,0 17.26,-7.73 17.26,-17.27" style="fill:#ffffff;fill-opacity:1;fill-rule:nonzero;stroke:none" id="path68"/>
    </g>
  </g>
</svg>