<?xml version="1.0" encoding="utf-8"?>
<svg viewBox="744.102 268.356 2850.515 3062.7" xmlns="http://www.w3.org/2000/svg">
  <g id="g8" transform="matrix(1.333333, 0, 0, -1.333333, 0, 4000)">
    <g id="g10" transform="scale(0.1)">
      <path d="m 6532.77,18988.5 c 18.41,-29.8 38.31,-59 60.95,-85.5 22.55,-26.4 47.13,-52.3 74.91,-72.8 49.08,-36.3 104.56,-47.5 161.23,-18.2 54.75,28.2 75.76,78 76.96,137.3 2.24,110.5 7.18,221.2 5.42,331.7 -3.17,199 -8.62,398 -16.44,596.9 -11.31,287.7 -3.78,575 13.98,862.2 12.77,206.4 31.99,412 77.09,613.9 72.97,326.7 210.8,628.2 369.36,920.6 51.73,95.4 108.96,188.8 172.65,276.6 241.6,333 520.79,630.3 845.04,885.3 191.76,150.8 396.59,281.6 600.32,414.7 491.69,321.1 1002.23,607 1541.26,841.6 424.7,184.9 856.3,348.9 1306.2,462.2 417.9,105.3 835,213 1248,337.4 578.7,174.3 1165.6,318.9 1759.7,431.8 166.4,31.6 333.9,57.5 500.9,85.7 20,3.3 40.8,2.4 60.3,7 39.5,9.3 65.5,42.5 64.9,79.1 -0.5,37.5 -26.5,68.7 -67.5,76.1 -19.5,3.5 -40.5,2.8 -60.2,-0.2 -171.5,-26.3 -344.2,-38.8 -517.3,-46.5 -397.9,-17.4 -794.7,-48.4 -1191,-88.2 -394.4,-39.7 -785.9,-99.4 -1175.5,-172 -672.8,-125.4 -1333.4,-299.4 -1985.5,-505.8 -602.15,-190.6 -1186.67,-423.9 -1739.56,-731.9 -8.58,-4.8 -18.48,-7.2 -38.39,-14.8 16.83,27.2 27.08,44.3 37.87,61.1 152.72,237 306.81,473.2 457.45,711.6 42.16,66.8 76.1,139 109.93,210.5 14.7,31.1 24.32,66.3 28,100.5 8.12,75.4 -44.07,124.6 -118.82,113.3 -32.43,-4.9 -65.14,-14.4 -95.16,-27.6 -75.8,-33.4 -151.83,-67 -224.78,-106.1 -248.5,-133.1 -496.92,-266.6 -743.18,-403.8 -575.21,-320.5 -1138.25,-660.5 -1664.22,-1058.6 -11.24,-8.5 -23.53,-15.6 -35.33,-23.4 13.62,45.3 35.2,84.8 56.45,124.6 20.86,39 41.33,78.2 62.08,117.2 21.62,40.7 44.7,80.7 64.66,122.2 19.14,39.7 55.13,70.2 71.25,115.9 -40.66,10 -60.82,-10.7 -77.21,-32.1 -27.97,-36.5 -54.7,-74.3 -78.21,-113.8 -59.39,-99.7 -116.24,-201 -175.29,-300.9 -9.76,-16.6 -22.81,-37.2 -38.92,-42.8 -64.32,-22.6 -110.85,-63.4 -146.09,-120.4 -13.49,-21.8 -32.92,-39.9 -47.17,-61.3 -39.77,-59.8 -83.75,-117.6 -116.17,-181.2 -89.57,-175.9 -125.3,-362 -49.34,-550 85.1,-210.8 185.54,-414.8 367.59,-563.8 2.69,-2.2 4.09,-6 5.08,-7.5 -32.9,-92.1 -70.02,-177 -93.54,-265.5 -74.75,-281.4 -150.48,-562.7 -214.49,-846.5 -73.06,-324.1 -120.25,-652.1 -113.55,-986.4 5.66,-282 60.08,-552.2 172.27,-811.2 122.19,-282.1 289.99,-538.2 451.06,-798.2" style="fill:#b11d23;fill-opacity:1;fill-rule:nonzero;stroke:none" id="path40"/>
      <path d="m 14028.4,11112.7 c -14.4,115.1 -28.6,228.5 -43,343.2 62.5,29.8 60.4,-36.7 88.2,-51.9 -8.1,-32.4 -23.5,-62.8 -20.6,-91.2 2.6,-25.5 25.4,-48.9 45.6,-84.4 -10.8,-35.5 -4.3,-91.5 -70.2,-115.7 z m 5419.2,5326.9 c -12.7,18.1 -22.2,38.4 -35,56.4 -54,76.2 -137.2,70.7 -179.3,-13.4 -15.6,-31 -27.5,-64.8 -34.7,-98.7 -60.8,-285.3 -151.2,-562.3 -230.2,-842.5 -67.5,-239.5 -139.7,-477.7 -185.7,-722.6 -29.7,-157.6 -54.3,-316.1 -83.8,-473.7 -18.6,-99.6 -41.9,-198.5 -85,-291.2 -38.3,-82 -90.5,-151.5 -172.6,-195.2 -47.2,-25 -93.6,-51.6 -139.7,-78.7 -251.3,-147.8 -514.1,-273.4 -776.4,-399.7 -270.7,-130.4 -543,-257.4 -813.1,-388.9 -458.9,-223.6 -917.6,-447.6 -1374.6,-675.1 -430.7,-214.3 -859,-433.2 -1288.4,-650.1 -16.4,-8.3 -32.3,-17.8 -48.8,-26 -10.3,-5.1 -21.3,-8.9 -35.1,-14.6 -7.6,63.9 -15.3,122.3 -21.5,180.8 -15.7,148 -96,247.9 -228.8,308.3 -46.9,21.3 -95.3,39.5 -143.2,58.8 -65.4,26.3 -117.7,68.8 -154.1,129.1 -22.8,37.8 -46.2,76 -62.8,116.7 -45.9,112.6 -89.6,226 -131.7,340.1 -33.8,91.6 -60.5,185.9 -96.3,276.6 -154.7,391.5 -336.3,770.1 -542.7,1137.1 -169.9,302 -370.6,581.1 -609.8,831.9 -26.3,27.5 -57.2,53.4 -90.8,70.6 -87,44.7 -145,21.4 -186,-68.3 -1.5,-3.1 -4.6,-5.4 -8.5,-9.7 -5.8,2.5 -12.5,4.7 -18.4,8.2 -18.3,10.9 -41.2,21.3 -54.9,2.7 -9.7,-13.2 -11.1,-39.6 -4.9,-55.8 13,-34.2 31.1,-66.9 51.1,-97.7 83.1,-128.4 168.4,-255.5 251.5,-383.9 98.2,-151.6 199.9,-301.2 291.3,-456.8 276.2,-470.5 493.1,-969 675,-1482.3 107,-302 199.5,-609.3 299.3,-913.9 17.2,-52.4 35.9,-104.7 59,-154.6 20.8,-45 57.6,-71.2 110.8,-66.3 6.9,0.6 14,-1.6 24.8,-3 16.6,-74.6 24.1,-149.3 26.2,-224.7 6.5,-232.4 -31.8,-459.6 -83.2,-684.5 -128.5,-562.9 -290,-1116.6 -472.8,-1664.1 -260.3,-779.4 -591.7,-1525.3 -1045.8,-2213.2 -12.1,-18.3 -23.1,-38.1 -30.4,-58.7 -25.1,-71.1 8,-135.7 81,-154.9 26.2,-7 54.7,-6.7 82.1,-7.4 203.6,-5.4 404.7,19.4 605.5,49.1 73.5,10.9 132.7,44.4 176.8,102.7 27.7,36.6 52.7,75.7 75.3,115.6 85.7,151.2 153,310.7 212.6,473.7 102.4,280.4 202.1,561.9 309.6,840.5 133.5,346.1 247.4,698.1 346.1,1055.5 59.4,214.9 127.6,427.3 189.7,641.5 14.9,51.4 41.3,82.7 95.5,93.1 86.1,16.5 132.2,75 151.5,157.1 5.8,25.1 12.2,50.7 12.9,76.2 2.6,104.9 9.2,210.2 3,314.7 -8.6,143.4 -27.5,286.2 -41.9,429.2 -8,78.5 -16,156.9 -23.9,235.3 27.4,12.5 51.4,21.8 73.9,34.1 302.5,164.8 611.9,317 899.6,508.6 386.8,257.6 783.2,500 1187.4,729.2 463.5,262.7 929.2,521.4 1393.2,783.2 93,52.5 186,106.2 273.2,167.6 119.3,84.2 243.2,160.3 371.4,229.3 188.2,101.4 378,199.6 566.5,300.4 27.1,14.5 53.1,33.2 75,54.7 18.2,17.7 13.5,37.7 -9.2,49.8 -15.7,8.3 -34.5,12.3 -52.3,14.7 -17.8,2.5 -36.3,0.6 -57.5,0.6 2.5,9.5 3,17 6.4,22.8 97.9,164.8 138.7,347.7 171.8,533.6 41.8,234 86.7,467.4 130.6,701 3.2,17 9.8,33.3 14.6,49.3 50.2,-5.3 73.2,-34.2 83,-71.2 15.2,-56.7 30.9,-114.4 36.2,-172.6 22.3,-246.5 16.3,-493.5 5.8,-740.5 -9.5,-223 -29.8,-444.9 -58.6,-666.3 -24.6,-189.9 -44,-380.4 -87,-567.5 -8.6,-37.3 -12.4,-75.5 7.6,-128 16.1,18.5 27.5,27.1 32.8,38.6 9.3,19.9 13.7,42 21.9,62.5 20.4,50.5 41.8,100.2 112.2,87.5 8.6,-1.5 18.5,1.5 27.1,4.5 88.8,30.5 177.9,60.2 266,92.7 55.7,20.6 91.1,63.3 104,120.7 13.3,59.2 25,119.1 31.6,179.4 37.1,337.5 47.6,676.5 57.9,1015.7 6.5,213.7 18.4,427.3 26.8,641 9.1,230.2 17.5,460.5 25.3,690.8 6,175.7 -54.6,327.4 -163.6,463.9 -60.8,76.1 -113.6,158.7 -169.4,238.6" style="fill:#b11d23;fill-opacity:1;fill-rule:nonzero;stroke:none" id="path42"/>
      <path d="m 20794.5,20591 c 52,58.2 94.4,122.5 118.4,197.9 23.3,73.2 20.8,145 -6.7,216.5 -54.8,142.7 -108.3,285.9 -163.8,428.4 -30.8,78.9 -62,157.8 -98,234.5 -17.6,37.7 -42,74.6 -71,104.4 -75.7,77.7 -181.8,56.9 -224.4,-42.7 -15.8,-36.9 -25.2,-77 -34.8,-116.2 -76.9,-313.2 -153,-626.5 -229.6,-939.8 -3.8,-15.6 -8.9,-30.9 -16.8,-57.8 -15.5,26.7 -26,43.4 -35,60.8 -73.1,140.6 -144.8,282.1 -219.3,421.9 -37.1,69.9 -77.2,138.5 -120.4,204.8 -18.5,28.5 -44.9,54.8 -73.5,73.2 -61.5,39.6 -132.6,14.5 -157.8,-54.1 -10.7,-28.9 -16.6,-60.7 -18.5,-91.6 -17.3,-276 -33.2,-552 -49.4,-828 -3.4,-58.2 -6,-116.5 -8.9,-174.8 -3.8,0 -7.5,-0.1 -11.2,-0.2 -3.8,8.1 -8.3,16.1 -11.4,24.5 -85.2,229.8 -169.9,459.8 -255.5,689.4 -24.5,65.6 -50.4,130.7 -77.7,195.2 -9.2,21.6 -22.5,42.5 -37.8,60.4 -23.7,27.7 -55.9,35.4 -90.6,24.7 -35.2,-10.8 -54.8,-36.8 -58.2,-73 -2.1,-23.8 -1.5,-47.9 -0.2,-71.8 10.2,-189.6 24.3,-379 30.5,-568.7 10.9,-329.8 17.5,-659.7 24.9,-989.6 5.8,-261.7 10.5,-523.4 14.6,-785.2 0.4,-24.8 -3.9,-50.7 -11.5,-74.3 -11.5,-35.6 -13.5,-70.5 6.9,-101.2 23.6,-35.4 29.1,-74.4 36.3,-114.4 6.9,-37.8 17,-75.4 29.7,-111.6 8.4,-24.2 29.3,-38.3 56.7,-34.5 24.8,3.4 38.1,20.5 44.2,43.7 4.2,15.7 8.3,31.3 14.1,53.1 45.6,-25.6 86.8,-49.2 128.5,-71.9 30.6,-16.8 60.5,-36.5 93.1,-47.9 108.6,-38.2 210.5,13.4 246.8,122.2 4.7,14 8.4,28.4 11.3,42.8 42,206.3 103.6,407.2 172.2,605.9 92.6,268 216.8,520.1 384.9,750 133.9,183.2 274,361.3 427.5,528.7 81,88.3 161.7,176.9 241.4,266.3" style="fill:#b11d23;fill-opacity:1;fill-rule:nonzero;stroke:none" id="path44"/>
      <path d="m 9896.24,18646.7 c 6.98,4 11.39,7.2 16.26,9.2 56.19,23.6 65.01,48.6 37.43,102.7 -51.02,100 -102.88,199.7 -151.98,300.7 -92.63,190.5 -183.08,382.2 -275.64,572.7 -16.02,33 -37.46,63.5 -57.58,94.3 -7.95,12.2 -17.22,25.8 -29.34,32.4 -13.05,7.2 -33.49,13.7 -44.52,8.1 -11.07,-5.5 -19.51,-26 -20.12,-40.4 -0.87,-20.8 6.34,-41.9 11.17,-68.8 -60.97,21.4 -95.68,-3.3 -113.2,-56.1 -75.77,46.2 -93.66,45 -146.86,-8.1 -66.86,35 -74.82,34.6 -141.35,-12.6 -87.68,120.7 -173.63,238 -258.49,356.2 -53.77,74.8 -105.34,151.3 -159.04,226.2 -23.38,32.6 -54.2,41.3 -80.72,26.7 -24.52,-13.5 -34.07,-42.2 -22.42,-77.9 9.11,-28 21.27,-55 33.18,-81.9 142.5,-322.4 319.62,-627.3 476.72,-942.2 10.1,-20.3 23.82,-29.4 46.14,-33.4 59.15,-10.7 100.32,-52.2 142.91,-90.1 7.48,-6.6 13.05,-18.9 13.9,-29 7.17,-85.2 42.99,-159.5 86.42,-230.9 12.33,-20.2 11.8,-37.2 -2.52,-55.5 -6.46,-8.2 -10.88,-18 -16.67,-27.8 22.35,-30.5 42.41,-59.2 63.84,-86.8 31.4,-40.4 71.09,-71.7 121.29,-82.2 47.14,-9.8 74.65,-35.7 89.22,-79.6 4.62,-13.9 11.07,-27.4 18.31,-40.2 11.62,-20.5 12.35,-40.5 6.41,-63.5 -32.64,-126.7 -63.95,-253.7 -95.41,-380.8 -91.76,-370.3 -183.67,-740.6 -241.26,-1118.5 -72.8,-477.6 -142.36,-955.5 -148.5,-1440.1 -0.39,-31.2 -5.8,-62.3 -9.89,-93.3 -6.36,-48.1 -7.82,-95.9 11.65,-141.6 20.23,-47.5 53.3,-79.5 107.75,-82.1 49.9,-2.4 91.84,27 115.48,79.3 19.71,43.6 17.96,89.3 15.67,135.7 -3.25,66.1 -9.07,132.9 -3.52,198.5 16.62,196.4 30.06,393.7 59.63,588.4 56.18,369.8 119.99,738.6 185.85,1106.9 45.74,255.8 100.63,509.9 150.44,764.9 11.59,59.4 19.2,119.5 29.02,181.7 14.79,-4.6 25.03,-8.6 35.63,-10.9 50.99,-11.1 82.91,18.1 75.28,70.4 -2.62,18 -9.52,35.5 -16.11,52.6 -9.16,23.8 -19.87,47 -29.29,69 49.42,51.1 49.83,54.6 58.18,100.5 18.08,99.6 37.79,198.8 56.65,297.2" style="fill:#b11d23;fill-opacity:1;fill-rule:nonzero;stroke:none" id="path46"/>
      <path d="m 21485.2,19928.4 c 10.4,16 18.5,28.4 30.3,46.6 1,-43.7 1,-43.7 -30.3,-46.6 z m -653,-558.1 c 15.7,17.6 29,32.7 47.8,53.9 13.7,-32.6 24.3,-57.6 39.7,-94.3 -35.3,16.3 -57.8,26.7 -87.5,40.4 z m 1023,556.3 c -18.6,44 -30.5,90.6 -47.1,135.5 -8.2,22.2 -16.5,46.1 -31.1,64.1 -99.2,122.3 -223.9,188.5 -385.9,170.5 -107,-11.9 -202.5,-53.3 -292.6,-109.5 -115.4,-72.1 -211.6,-165.7 -299,-269 -203.6,-240.6 -370.9,-504.6 -506.6,-788.9 -3.9,-8.3 -7.7,-16.8 -10.4,-25.6 -23.9,-77.5 18.1,-145.4 98.4,-159.7 10.5,-1.8 21,-3.7 34,-6 -3.5,-22.2 -8.2,-41.9 -9.5,-61.7 -2.3,-35.2 8.3,-66.1 39.2,-86.1 31.2,-20.1 65.2,-18.5 93.9,1.9 32.7,23.3 65.4,49 90.7,79.8 52.7,63.9 100.5,131.8 150.2,198.3 13,17.4 25.5,35.4 42.7,59.3 24.4,-31.3 26.5,-57.7 21.1,-85.4 -2.2,-10.8 -6.7,-21.1 -9.2,-31.8 -10.5,-44.8 -2.6,-84.8 34.1,-115.1 36.3,-30 77.8,-31.9 119.7,-14.3 18.5,7.8 35.4,19.7 52.2,31 250.1,169.7 499.9,340 750.6,508.9 23.9,16.1 34.8,33.4 38.1,61.6 12.1,102.5 26.9,204.6 40.7,306.8 6.3,46.3 4.6,90.9 -14.2,135.4" style="fill:#b11d23;fill-opacity:1;fill-rule:nonzero;stroke:none" id="path48"/>
      <path d="m 8753.11,6471.7 c -24.75,4 -51,-0.8 -76.53,-2.5 -13.33,-0.9 -26.54,-3.5 -44.03,-6 52.35,78.1 30.71,114 -55.37,134.7 0,13.8 0.57,24.7 -0.09,35.7 -3.52,57.5 -37.48,96.6 -93.85,106.1 -85.29,14.4 -170.66,28.4 -256.16,41.5 -80.85,12.3 -158.11,1.6 -228.93,-41.6 -50.3,-30.7 -101.37,-60.4 -149.62,-94.1 -215.96,-150.9 -432.77,-300.6 -645.96,-455.2 -256.46,-186.1 -510.11,-376.1 -763.9,-565.8 -134.23,-100.3 -266.37,-203.5 -398.92,-306.1 -18.79,-14.5 -36.29,-31.6 -51.3,-50 -30.14,-36.9 -31.28,-80.3 -5.68,-111.5 26.28,-32.1 65.1,-37.5 110.09,-14.7 32.84,16.6 64.6,35.6 98.11,50.6 250.13,112.7 501.27,223.1 750.77,337.1 410.3,187.5 818.86,378.8 1229.67,565.1 169.27,76.8 342.09,145.8 514.18,216.2 47.82,19.6 77.74,52.6 97.99,97.8 13.3,29.6 2.21,57.5 -30.47,62.7" style="fill:#b11d23;fill-opacity:1;fill-rule:nonzero;stroke:none" id="path50"/>
      <path d="m 9748.82,14484.8 c -17.6,-0.4 -37,-5.8 -52.05,-14.9 -29.89,-17.9 -59.97,-37.1 -85.27,-60.8 -75.3,-70.5 -151.41,-140.6 -221.75,-215.9 -621.68,-665.8 -1102.1,-1423.6 -1462.15,-2258.7 -143.79,-333.5 -276.43,-671.4 -372.9,-1022.3 -6.33,-23 -13.39,-46.4 -14.85,-70 -2.46,-39.9 13.16,-73.3 50.96,-90.3 37.13,-16.8 72.95,-9.7 101.79,19.2 15.44,15.5 29.1,33.6 40.04,52.5 27.64,47.9 54.42,96.3 79.56,145.5 160.16,313.4 317.19,628.5 480.43,940.3 123.94,236.7 255.63,469.4 383.77,703.9 256.7,469.9 535.08,925.3 878.17,1338.9 63.04,75.9 111.1,164.7 163.11,249.3 27.75,45.2 35.32,93.3 -11.95,135.2 25.89,32.2 51.98,60.9 73.63,92.6 20.04,29.3 4.87,56.4 -30.54,55.5" style="fill:#b11d23;fill-opacity:1;fill-rule:nonzero;stroke:none" id="path52"/>
      <path d="m 7117.52,14884.2 c 224.31,-402.3 453.34,-801.7 709.62,-1184.8 36.84,-55 73.35,-110.9 115.79,-161.5 81.72,-97.5 188.56,-86.8 252.27,23.1 26.74,46.2 47.89,95.5 74.29,141.9 95.67,168.1 192.63,335.4 288.75,503.2 15.54,27.1 31.66,54.3 43.48,83.1 46.6,113.5 4.29,204.1 -110.91,245.5 -44.87,16.1 -90.04,33.3 -131.79,56 -273.33,148.7 -546.27,298.2 -818.24,449.4 -107.82,60 -212.47,125.6 -319.4,187.2 -28.48,16.4 -59.13,30.3 -90.45,40 -29.4,9.1 -59.26,4.1 -79.18,-23.8 -18.33,-25.6 -14.96,-53.2 0.41,-78 13.44,-21.8 30.06,-41.8 47.15,-60.9 13.33,-14.9 29.55,-27.2 47.95,-43.8 -66.2,-66.7 -71.07,-102.5 -29.74,-176.6" style="fill:#b11d23;fill-opacity:1;fill-rule:nonzero;stroke:none" id="path54"/>
      <path d="m 10138.7,12436.8 c 14.1,11 19.1,17.9 24.9,18.6 5.9,0.7 12.5,-4.7 30.7,-12.7 -23.5,-2.5 -33.5,-3.5 -55.6,-5.9 z m 554.8,381.5 c -16.3,48 -55.8,71.7 -106.9,73.3 -23.9,0.8 -48,-1.4 -71.8,0.2 -102.7,7.2 -205.8,11.5 -307.8,24.3 -70.9,8.9 -140.3,29.6 -210.23,46 -43.09,10.1 -84.08,10.8 -124.25,-23.7 -9.4,14.5 -15.31,23.6 -21.16,32.7 -11.93,18.5 -21.57,39.3 -36.63,54.8 -8.2,8.4 -26.72,12.8 -38.42,10 -8.69,-2.1 -19.57,-18.7 -19.54,-28.9 0.07,-25.3 2.01,-51.9 9.93,-75.8 23.75,-71.6 45.56,-144.5 77.57,-212.4 56.45,-119.8 119.87,-236.4 180.43,-354.3 22.6,-44.1 58.7,-64.1 108.2,-60.6 60.6,4.3 121.3,12.4 181.8,11.4 108.6,-1.8 217.1,-7.9 325.5,-14.6 94.5,-5.9 147.1,39.3 148.5,134.3 0.4,33 0.9,67.5 -7.8,98.7 -26.5,95.7 -55.4,190.7 -87.4,284.6" style="fill:#b11d23;fill-opacity:1;fill-rule:nonzero;stroke:none" id="path56"/>
      <path d="m 7983.98,18262 c 22.97,-10.2 43.3,-2.2 60.31,14.7 13.08,12.9 25.68,26.4 38.11,40 42.26,46.3 94.54,76.5 154.29,92.9 98.92,27.3 200.56,37.9 301.11,18.6 102.79,-19.7 204.51,-47 304.71,-77.5 62.96,-19.1 111.74,-6.5 155.46,38.7 81.11,83.9 78.98,204.3 -11.24,277.9 -43.49,35.6 -94.69,64.9 -146.91,85.8 -143.47,57.4 -294.54,79.5 -477.66,83.2 -68.63,-7 -166.04,-14.5 -262.75,-27.4 -89.36,-11.8 -140.72,-58.7 -155.74,-147.8 -11.56,-68.6 -11.68,-139.1 -16.1,-208.9 -0.56,-8.8 1.06,-19.8 6.02,-26.6 24.32,-33.3 26.81,-69.4 21.1,-108.8 -3.3,-22.8 6.17,-44.5 29.29,-54.8" style="fill:#b11d23;fill-opacity:1;fill-rule:nonzero;stroke:none" id="path58"/>
      <path d="m 10902.5,13881.5 c 16.5,40.8 9.5,74.8 -23.2,99.6 3.6,9.7 8.4,16.6 8.1,23.3 -0.6,11.8 -4.3,23.5 -6.6,35.2 -13.3,-2.9 -27.4,-4 -39.4,-9.5 -7.5,-3.4 -12.8,-13.1 -17.3,-21 -19,-33.4 -47.3,-55 -81.3,-72 -21.2,-10.5 -39.8,-26.4 -58.9,-40.8 -122.3,-91.8 -244.4,-183.9 -366.7,-275.7 -20.5,-15.3 -41.9,-29.3 -71.6,-49.9 -13.2,63.3 -22.7,117.4 -36.1,170.6 -34.3,136.1 -97.6,171.6 -226.78,121.5 -154.5,-59.9 -307.26,-124.4 -460.28,-188.1 -30.43,-12.7 -59.38,-29.5 -87.53,-46.8 -18.57,-11.4 -26.2,-30.7 -21.28,-52.9 5,-22.5 21.45,-34.7 42.57,-38 16.04,-2.5 33.22,-1.8 49.3,0.9 19.85,3.4 39.38,9.6 58.5,16.2 26.53,9.1 50.95,9.1 79.78,3.2 91.86,-18.6 184.9,-31.9 277.83,-44.8 50.51,-7 101.69,-8.8 153.19,-13.1 6.4,-26.8 10.1,-52.5 18.9,-76.4 21.9,-59.8 81,-84.9 139.5,-59.5 18.3,8 35,20.2 51.5,31.8 48.3,33.9 96.1,68.4 144.1,102.7 29.7,21.3 56.9,44.6 99.4,37.9 17.3,-2.7 39,9.8 56.1,19.8 47.5,28.1 94.2,57.7 140.2,88.3 27,17.9 49.7,45.2 88,25.6 6.5,-3.3 18.5,0.7 26.5,4.5 96.9,45.4 179.5,106.4 222.6,209.1 1.1,2.5 -1.9,6.7 -3.9,12.5 -51.8,30.9 -98.3,-30 -155.2,-14.2" style="fill:#b11d23;fill-opacity:1;fill-rule:nonzero;stroke:none" id="path60"/>
      <path d="m 12635.9,18798.2 c 21.2,3.2 42.2,12.7 61.5,22.8 149.4,78.4 310.6,111.7 476.4,127.7 65.9,2.3 128.1,-9.6 188.8,-35.1 67.2,-28.1 122.3,-10 163.6,50 19.8,28.8 38.7,58.2 56.4,88.4 35.1,59.9 15.7,127.7 -46.5,159.5 -19.3,9.9 -41.4,18.1 -62.7,19.6 -82.5,5.6 -165.3,13 -247.8,10.8 -156.3,-4.1 -313,-8.8 -466.9,-43 -29.9,-6.6 -61.3,-8 -92.1,-9.5 -34.4,-1.7 -54.8,-10.5 -56.7,-40 -2.1,-33.9 -22.2,-51.9 -42.1,-73.5 -38.2,-41.6 -50.4,-90.2 -24.9,-142.5 10.3,-21 12.4,-40 11.2,-62.9 -2.6,-48.8 33,-79.8 81.8,-72.3" style="fill:#b11d23;fill-opacity:1;fill-rule:nonzero;stroke:none" id="path62"/>
      <path d="m 12811.7,11306 c -87.6,149.5 -173.9,299.8 -261.4,449.3 -177.9,303.8 -360.5,605 -533.5,911.6 -267.4,473.6 -584.3,912.3 -922.4,1336.7 -9.1,11.5 -19.5,22.3 -30.6,31.9 -27.4,23.5 -55.9,29 -75.4,15.8 -18.8,-12.7 -24.5,-41.7 -12.4,-76.3 6.6,-19 14.8,-38.1 25.6,-55 57.6,-90 115.1,-180.1 175,-268.5 25.5,-37.5 48.3,-73.3 39.2,-121.6 -2.6,-13.8 0.8,-29.7 4.7,-43.7 18.7,-65.4 37.4,-130.9 58.1,-195.8 31.3,-98.3 67.3,-195.2 95.9,-294.2 54.2,-187.8 104.3,-376.7 156.7,-564.9 8.7,-31.4 20.4,-62 31.2,-94.2 17,3.1 27.7,4.4 38.2,6.9 90.6,21.6 162,-17.1 189.1,-105.9 8.5,-27.7 11.1,-57.8 12.2,-87 5.4,-133.7 -12.7,-264.5 -49.9,-393.2 -7.8,-27 -11.5,-59.5 -4.1,-85.8 11.9,-42 -0.8,-70.5 -28.3,-99.3 -203.4,-213.5 -404.9,-428.9 -609.7,-641 -244.6,-253.5 -504.6,-490.9 -768,-724.6 -66.1,-58.7 -135.1,-114.1 -202.4,-171.6 -25.9,-22.1 -51.1,-22.9 -80.9,-6.3 -96.54,54 -194.05,106.2 -291.1,159.2 -134.21,73.3 -268.15,147.2 -402.65,220 -39.21,21.3 -80.96,33.9 -126.71,34.6 -62.7,1 -106.12,-27.3 -132.59,-81.8 -13.61,-28.1 -24.53,-57.9 -32.87,-87.9 -66.68,-240.4 -161.01,-470.7 -250.88,-702.8 -87.84,-226.8 -173.2,-454.7 -254.13,-684.1 -31.11,-88.2 -48.87,-181.3 -69.05,-273 -10.72,-48.6 -11.44,-99.1 5.32,-147.6 24.66,-71.3 89.7,-101.6 159.48,-72.4 21.68,9.1 43.94,21.7 59.98,38.4 77.68,81 156.92,161 228.95,246.9 131.43,156.8 258.03,317.6 387.04,476.4 14.46,17.8 31.42,33.5 47.22,50.2 3.99,-2 7.99,-4.1 11.98,-6.2 -3.52,-18.8 -5.68,-38 -10.78,-56.5 -34.42,-124.3 -71.28,-248 -103.81,-372.8 -35.3,-135.5 -68.02,-271.6 -99.19,-408 -10.69,-46.8 -10.57,-95.4 6.03,-142 19.04,-53.5 56.42,-82.5 112.97,-79 34.08,2.2 70.88,9.1 100.43,25.1 64.64,34.9 129.02,72.2 187.17,116.8 241.35,185 474.89,380.1 727.29,550.6 145.1,98 285.8,202.6 430.4,301.3 46.9,31.9 98.9,57.2 150.6,80.8 35,16 50.8,4.4 57.6,-33.8 2.6,-14.4 3.6,-29.4 2.7,-44 -5.1,-84.5 -7.8,-169.4 -17.3,-253.4 -16.7,-146.4 -40.9,-292 -55.4,-438.6 -5.9,-59.5 -2.2,-122.3 10.3,-180.7 17.5,-81.9 89.4,-114.4 167.1,-82.3 28.4,11.8 57.1,28.2 79.1,49.3 54.6,52.1 108.6,105.5 157.3,163 170.5,201.5 320.5,418.5 471.5,634.6 192.3,274.9 385.1,549.6 572.5,827.8 150.4,223.2 296.2,449.5 437.7,678.3 55.9,90.4 98,189.9 140.5,287.8 60.1,138.6 42.1,269.7 -50.6,390.4 -22.4,29.1 -42.4,60.4 -61,92.1" style="fill:#5fcbf5;fill-opacity:1;fill-rule:nonzero;stroke:none" id="path64"/>
      <path d="m 21595.3,11085.7 c 138.8,43.4 276.7,90.3 421.7,111.6 55.3,8.1 95.9,43 107,98.8 7,34.8 6,73.4 -0.9,108.4 -14,70.6 -58.6,126.1 -101.6,181.8 -172.4,223.3 -341.7,448.8 -490.8,688.7 -41.9,67.3 -83.1,135.2 -128.3,200.2 -35.6,51.3 -75.3,100 -115.9,147.5 -27,31.7 -64.7,46.6 -105.8,55.4 -50.6,10.8 -100,3.6 -147.6,-9.6 -172.2,-47.8 -344.1,-96.7 -501.8,-184.2 -11.1,-6.1 -23.4,-9.9 -40.4,-16.9 -21.3,28.8 -38.4,55 -58.6,78.4 -17.8,20.8 -41.2,31.8 -69.2,19 -26,-12 -38.6,-34 -39.4,-61.7 -0.4,-14.5 3,-29.2 6,-43.6 15.9,-75.8 33.5,-151.2 48.1,-227.2 21.4,-112.2 40.4,-224.9 61.1,-337.3 9.3,-50.5 -4.3,-90.6 -48.1,-119.7 -24.5,-16.3 -46.9,-36.1 -72.1,-51.1 -182.2,-108.3 -362.9,-219.4 -547.9,-322.7 -222.1,-123.9 -447.9,-241.3 -672.4,-360.9 -401.9,-213.9 -804,-427.6 -1206.2,-640.9 -211.7,-112.3 -424.4,-222.8 -635.8,-335.8 -380.3,-203.3 -760.7,-406.7 -1139.8,-612.5 -301.4,-163.5 -600.8,-330.5 -901,-496.1 -343.8,-189.8 -687.2,-380.1 -1031.1,-569.4 -168,-92.4 -336.9,-183.2 -505.1,-275.1 -19.3,-10.6 -38.5,-22.3 -55.1,-36.6 -31.2,-26.9 -41.5,-74.1 -27.1,-111.3 14,-36.1 48,-59.3 92.9,-54.7 32.4,3.3 65.5,12.2 95.1,25.5 179.8,81.1 359.4,162.7 537.8,246.9 436.8,206.1 872.5,414.5 1309.3,620.5 336.8,158.7 672.7,319.8 1012.7,471.5 382.1,170.4 765.5,338.6 1153.7,494.5 482.3,193.8 968.6,378 1456,558.6 300.7,111.5 605.3,212.9 910.6,311.1 475.5,153.1 953.1,300 1430,448.9" style="fill:#5fcbf5;fill-opacity:1;fill-rule:nonzero;stroke:none" id="path66"/>
      <path d="m 26552.5,6237.3 c -26.1,28.3 -54.3,55.6 -85.3,78.4 -178,131.4 -353.9,265.8 -536.4,390.8 -302.7,207.3 -609.5,408.5 -915.3,611.3 -45,29.9 -84.9,63.8 -120.5,104.5 -35,40.1 -71.9,79.5 -112.8,113.4 -109.3,90.4 -218.7,181.2 -332.7,265.6 -397.1,294 -795.8,585.9 -1194.7,877.4 -134,97.9 -268.2,195.7 -406.4,287.2 -326,215.8 -656.4,425 -970.3,658.3 -201.2,149.5 -397.5,305.6 -597.3,457.1 -57.2,43.4 -117.9,82.2 -178.8,120.3 -33.1,20.8 -69.4,34.5 -109.6,11.9 -9.5,-5.3 -25.9,-5.5 -36.2,-1.1 -95.4,39.6 -184.1,17.7 -271.3,-26.2 -67.5,-34.1 -135.1,-67.8 -203.2,-100.6 -81.8,-39.4 -167.7,-66.7 -256.6,-85.3 -88.3,-18.5 -176.7,-36.9 -263.9,-59.7 -38,-9.9 -73.1,-30.9 -124.2,-53.2 -20.6,9.7 -51.6,25.6 -83.6,39 -21.4,9 -44.1,9.6 -61.6,-9.2 -19.1,-20.5 -18.3,-45.8 -3.6,-66.3 18,-25.2 39,-49.5 63.1,-68.7 47.5,-37.8 96.6,-74.2 147.6,-107.2 526.6,-340.1 1054.8,-677.5 1593.2,-998.8 415.1,-247.7 839.5,-477.9 1273,-691.6 357.3,-176 714,-353 1070.8,-530.1 766.3,-380.3 1532.7,-760.6 2298.5,-1142.2 95.5,-47.6 187.1,-103 280.6,-154.8 17.7,-9.9 35,-20.8 53.4,-29.1 41.2,-18.5 71.8,-12 93.6,18.2 20.1,27.7 18.8,59.9 -9.5,90.7" style="fill:#5fcbf5;fill-opacity:1;fill-rule:nonzero;stroke:none" id="path68"/>
      <path d="m 13695.9,12246.2 c 64.4,-37.1 120.2,-89.2 179.9,-134.8 -11.7,-20.8 -21,-34.6 -27.6,-49.6 -28.4,-65.1 9.9,-125.7 81.3,-126.8 21.6,-0.3 44.3,3.9 64.6,11.3 25.8,9.4 51,21.9 74.1,36.7 330.2,212.4 662.7,421.3 989.2,639.2 467.6,312.2 930.3,631.5 1395.7,946.9 390.6,264.7 788,519.4 1152.3,821.1 83.2,68.9 151.3,146.7 188.9,247.1 37.4,99.9 69.5,202 100.4,304.1 22.5,74.1 38.1,150.1 58.9,224.7 138.5,497.1 280.1,993.4 408.4,1493.4 70.5,274.8 147.4,548.1 226.7,820.6 43.7,150.6 88.7,300.4 116.3,455 2.5,14.4 6.4,29.1 6.2,43.6 -0.5,25.6 -11.7,47.1 -36,57.6 -26.1,11.3 -51.9,7.1 -71,-14.1 -13.3,-14.8 -25.5,-32.2 -32.7,-50.6 -30,-77.3 -63.6,-153.8 -85.5,-233.5 -87.6,-318 -169.5,-637.7 -256.9,-955.8 -83.9,-305.7 -167.5,-611.6 -259.6,-914.8 -102.4,-336.8 -220.2,-668.9 -307.5,-1010.3 -9.7,-38.2 -24.3,-68.1 -68,-76.3 -17.5,-3.2 -33.6,-14.7 -50,-23.1 -175.7,-89.7 -352.1,-177.9 -526.6,-269.7 -290.3,-152.8 -581.2,-304.6 -868.4,-463.1 -316.2,-174.6 -627.4,-358.2 -942.7,-534.5 -316.9,-177.1 -636.1,-350.2 -954.4,-524.7 -74.4,-40.8 -148.7,-81.6 -224.2,-120.2 -116.2,-59.5 -233.4,-117.1 -352.3,-176.6 -12.4,10.3 -24.3,21.6 -37.5,31.2 -43,31.2 -93.7,17.7 -112.5,-32.2 -7.5,-20 -11,-43.8 -8.4,-64.9 6.1,-49.2 18,-97.6 25.7,-146.6 15.3,-96.6 68.6,-161.5 153.2,-210.3" style="fill:#5fcbf5;fill-opacity:1;fill-rule:nonzero;stroke:none" id="path70"/>
      <path d="m 17084.7,27069.8 c 64.2,-83.2 128.3,-166.4 193.7,-248.6 226,-284.5 442.3,-575.9 637.3,-882.8 162.1,-255.2 315.9,-515.3 456.1,-783.2 86.4,-165.1 166.9,-332.8 232.7,-507.3 5.5,-14.6 8.7,-30 13,-45.1 -3,-2.1 -5.9,-4.3 -8.9,-6.4 -21.2,16.7 -42.1,34 -63.8,50.2 -125.5,93.6 -248.9,190.3 -377.8,279 -66.2,45.5 -141.7,77.9 -214.4,113.6 -20.7,10.2 -46.1,14.8 -69.4,15.1 -52.8,0.5 -81.9,-40.8 -62.7,-89.9 11.3,-28.8 28.3,-55.9 45.9,-81.7 66.5,-97.3 133.7,-194.3 201.9,-290.6 172.6,-244.1 333.7,-495.1 465.5,-764.1 17.8,-36.3 24.4,-62.2 -8.4,-97.1 -47.9,-50.8 -18.2,-121.1 51.5,-130.8 21.4,-2.9 44,0.6 65.7,3.6 125.6,17.7 239.2,73.4 357.5,113.9 53.9,18.5 106.9,41 157.6,66.9 126.3,64.5 169.4,163.8 125.6,298.7 -58,178.7 -117.9,357 -182.8,533.4 -100.1,272.3 -233.8,529 -373.5,782.6 -158.3,287.5 -321.5,571.9 -512.2,839.7 -114.5,160.8 -233.8,317.7 -367.3,463.2 -163.2,178 -355.6,320.4 -556.1,452.4 -27.6,18.2 -57.7,33.4 -88.4,45.4 -25.3,9.9 -53.2,17.4 -80.2,18.1 -59.5,1.5 -90.7,-47.2 -66.8,-101.2 7.3,-16.7 17.6,-32.5 28.7,-47" style="fill:#5fcbf5;fill-opacity:1;fill-rule:nonzero;stroke:none" id="path72"/>
      <path d="m 18550.5,23523.1 c -10.5,-10.3 -26,-17.7 -40.5,-21.4 -33.4,-8.7 -70.5,-8.2 -101,-22.4 -58.1,-27 -113.3,-60.6 -168.6,-93.4 -100.2,-59.5 -161.2,-147.3 -190.8,-260.1 -31.7,-121.3 -64.4,-242.5 -104,-361.4 -99.1,-297.4 -194.8,-595.7 -272.9,-899.4 -38.6,-149.9 -76.3,-300.1 -110.9,-451 -20.3,-88.9 -9.5,-174.9 37.1,-256.4 90.5,-158.4 177.7,-318.7 267.9,-477.2 15.2,-26.7 36.3,-51.5 59.2,-72.1 58.9,-53 141.9,-50.2 201.1,2.5 32.7,29.2 53.7,65.1 65.7,106.8 22.8,79.8 45.3,159.6 68.5,239.3 66.9,230.1 137,459.3 200.6,690.3 83.3,302.7 134.4,611.9 175.3,922.8 28.9,219.3 50.6,439.2 54.6,660.5 0,35 3,70.4 -0.7,105 -5.8,54.8 -11,110.5 -25.9,163.2 -17,59.7 -70.3,67.9 -114.7,24.4" style="fill:#5fcbf5;fill-opacity:1;fill-rule:nonzero;stroke:none" id="path74"/>
      <path d="m 19282,16808 c 2.3,-17.4 9.8,-36.8 21.1,-49.8 28.8,-33.3 61.7,-63 91.8,-95.1 16,-17 31.4,-35.1 44.1,-54.6 37,-57 66,-120.6 109.7,-171.6 123.7,-144.3 275.4,-238.1 487.4,-232.8 92.9,-4 190.9,25.9 283.5,74.9 103.3,54.5 196.5,123.5 281.4,203.7 130.4,123.1 245,260.6 352,403.8 174.9,234.1 316.8,488.8 444.7,750.7 176.5,361.2 336,730 476.5,1106.8 32.8,88.1 65.1,176.4 95.3,265.4 9.9,29.3 16,60.9 17.2,91.7 1.3,33.6 -16.4,60.8 -48.4,74.1 -33.1,13.7 -61.9,2.4 -84.3,-23.5 -15.6,-18.1 -30.2,-37.4 -42.8,-57.6 -119.7,-192.5 -240.7,-384.3 -357.9,-578.4 -279.5,-462.6 -570.8,-917.1 -912.8,-1336.9 -114.4,-140.5 -237.5,-272.4 -390.8,-372.2 -221.1,-143.9 -527.5,-141.3 -747.3,6 -21.3,14.3 -43.5,28.5 -67.3,37.5 -30.4,11.4 -57.2,-10.1 -53.1,-42.1" style="fill:#5fcbf5;fill-opacity:1;fill-rule:nonzero;stroke:none" id="path76"/>
      <path d="m 9385.11,14970.9 c 12.3,-10.6 26.41,-20.6 34.89,-33.9 28.32,-44.5 70.38,-66.9 120.1,-68.2 66.02,-1.8 132.89,-1.4 198.24,7 145.09,18.8 274.16,83.1 400.26,153.2 154.5,85.9 306.7,176.3 463.3,258.1 96,50.1 197.5,90.3 298.6,129.5 40.3,15.6 86.3,22.8 129.7,22.9 89.8,0.2 134,-57.4 107.5,-142.5 -19,-61 -48.7,-119 -76.2,-177 -24.4,-51.6 -55.6,-100.1 -78.1,-152.4 -35.7,-82.9 12.8,-154.9 103.1,-154.6 30.8,0.1 62.2,7.2 92.1,15.4 90.7,24.7 181.9,48.1 270.6,78.6 79.8,27.4 158.8,59.2 234.2,97 79.5,39.9 150.6,95.1 199.4,171 91.3,141.7 127.4,302 134.8,467.3 5.2,115.7 -70.1,183.3 -187.1,185.9 -5.5,0.1 -11,0 -24,0 -5.5,-0.3 -18.4,-0.7 -31.2,-1.8 -235.1,-20.8 -467.8,-57.1 -699.1,-103.9 -396.7,-80.2 -782.5,-196 -1155.44,-353.7 -164.97,-69.7 -324.71,-149.5 -473.17,-250.2 -27.05,-18.3 -52.49,-41 -73.31,-66.1 -24.75,-29.9 -18.58,-56.2 10.83,-81.6" style="fill:#5fcbf5;fill-opacity:1;fill-rule:nonzero;stroke:none" id="path78"/>
      <path d="m 13775.6,14918.9 c 20.4,-5.3 44.5,-4.1 65.2,1.2 75.1,19.1 99.2,97.1 47.6,154.8 -24.5,27.3 -51.7,52.9 -80.9,75.1 -234.8,178.2 -466.2,361.2 -706.8,531.3 -295,208.5 -600.7,401.3 -929.5,554.1 -147.5,68.5 -298.4,127.7 -460.4,151.7 -54.4,8 -109.9,13.2 -164.7,11.7 -35.8,-1 -75.5,-11.8 -85.6,-56.4 -6.7,-29.3 18.3,-54.4 69.9,-73.8 37.6,-14.2 75.6,-27.2 116.5,-41.8 -29.6,-96.2 -21,-126.4 53.8,-182.9 57.3,-43.3 115,-86.4 175.4,-125.1 228.3,-145.7 456.4,-291.8 687.3,-433.4 157,-96.2 314,-194.3 479.1,-274.8 185.1,-90.3 379,-162.8 570,-240.8 52.6,-21.5 108,-36.6 163.1,-50.9" style="fill:#5fcbf5;fill-opacity:1;fill-rule:nonzero;stroke:none" id="path80"/>
      <path d="m 19459,12369 c 1.4,-30.8 6.5,-62.8 17.1,-91.6 16.1,-44 72.2,-62.2 104,-30.8 36.5,36.1 59.7,84.9 100.4,118.5 3.2,72.4 51.4,83.3 109.8,80.8 5.4,-0.3 10.9,1.8 16.3,3 165.3,38.9 324.6,96.6 482.1,158.9 71,28.1 129.9,76.5 179.7,134.8 69.9,81.9 75.1,178 54,276.7 -16.9,79.1 -40.3,157 -62.6,234.8 -7.6,26.3 -15.7,55.3 -32.5,75.5 -35.8,42.9 -60,91.8 -88,139 -58.7,98.9 -159.9,121 -255.4,56.8 -34.9,-23.4 -65.5,-53.3 -97.3,-81.1 -63.8,-55.7 -124,-116 -191.7,-166.3 -37.9,-28.1 -74.9,-50.3 -86.1,-100.3 -2.5,-11.5 -18.3,-23.9 -30.8,-28.5 -37.8,-14.2 -69.4,-38 -103.4,-57.7 -56,-32.5 -73.6,-78.5 -84.3,-133.8 -26.4,-136.1 -39.4,-273.2 -32,-402.6 0,-68.3 -1.9,-127.3 0.7,-186.1" style="fill:#5fcbf5;fill-opacity:1;fill-rule:nonzero;stroke:none" id="path82"/>
      <path d="m 11215.2,18999.3 c 31.3,-13.8 63.4,-16.4 97.3,-9.4 77.5,16.2 154.8,35.8 233.2,45.2 114.7,13.7 217.3,51.1 310,121 194.2,146.3 410.1,245.9 649.3,294.3 99.3,20.1 198,43.6 296.8,66.2 175.1,40.2 352.1,60.7 531.9,55.1 38.7,-1.3 77.5,-1.4 116.1,0.3 21.9,0.9 44.3,4 65.1,10.5 41.2,13 58.1,38.1 56.8,77.8 -1.3,39 -20.4,64.2 -63.1,72.2 -37.8,7.1 -76.9,11.7 -115.2,10.4 -69.8,-2.5 -139.5,-10.6 -209.3,-15.6 -77.1,-5.5 -154.3,-13.3 -231.5,-14.6 -313.2,-5.1 -626.5,-5.9 -939.7,-12.7 -139.7,-3 -280.5,-9 -411.6,-68.5 -22.8,-10.3 -39.2,-4.2 -48.4,19.5 -7.9,20.7 -14.8,41.8 -23.9,61.9 -13.6,30.1 -26.5,60.9 -43.7,89.1 -21.9,35.9 -49.8,47.8 -77.4,38.7 -29.4,-9.7 -43,-38 -36.7,-83.1 3.5,-25.5 10.9,-50.4 16.5,-75.5 4.4,-19.5 8.5,-39 12.4,-56.5 -30.6,-24.2 -58,-38.8 -75.4,-61.2 -37.1,-47.8 -72.6,-97.8 -101.6,-150.9 -14,-25.4 -17.4,-60.2 -15.3,-90 1.9,-27.8 -4.5,-49.5 -16.4,-73.1 -17.4,-34.4 -34.7,-69.5 -45.9,-106.2 -18.7,-61.7 10.6,-118.9 69.7,-144.9" style="fill:#5fcbf5;fill-opacity:1;fill-rule:nonzero;stroke:none" id="path84"/>
      <path d="m 20162.3,17408.4 c 71,13.6 130.1,50.6 185.6,93.7 74.1,57.5 148.4,115.1 218.5,177.3 78.8,69.9 150.1,147.7 191.7,246.5 14,33.1 21.8,70.1 25.2,106 4.1,43.5 -22.2,73 -60.8,89.5 -38.9,16.7 -71.9,2.6 -100.1,-25.4 -9.1,-9 -16.8,-19.5 -24.8,-29.6 -49.3,-61.8 -97.2,-124.9 -148.4,-185.2 -26,-30.6 -55.7,-59.1 -87.7,-83.4 -54,-40.9 -105.1,-37.3 -154.3,9.5 -21,20 -37.3,45.3 -54.4,69.1 -43.4,60.8 -92.7,56.7 -124.8,-9.9 -7.6,-15.7 -17.1,-35 -31.1,-42.2 -51.8,-26.6 -68.2,-69 -68.6,-123.9 9,-56.2 13.4,-113.6 27.9,-168.4 23.9,-90.7 113.9,-141.3 206.1,-123.6" style="fill:#5fcbf5;fill-opacity:1;fill-rule:nonzero;stroke:none" id="path86"/>
      <path d="m 8884.38,17632.1 c 19.14,21.3 35.58,47.8 44.74,74.8 15.49,45.7 -13.77,81 -74.03,80.8 -12.59,-5.1 -37.5,-12.1 -59.56,-24.4 -48.24,-26.8 -95.91,-54.8 -142.24,-84.8 -151.37,-97.9 -302.38,-196.3 -452.57,-296 -22.47,-15 -42.2,-35.8 -58.76,-57.3 -18.11,-23.6 -18.8,-51.7 -2.41,-77.8 16.52,-26.2 42.77,-37.5 71.43,-30.3 37.24,9.2 74.67,21 109.04,37.9 90.89,44.4 180.32,91.8 270.07,138.5 114.26,59.5 209.09,143.5 294.29,238.6" style="fill:#5fcbf5;fill-opacity:1;fill-rule:nonzero;stroke:none" id="path88"/>
      <path d="m 13173.6,18029.9 c -29.9,-19.9 -40.7,-51.5 -32.1,-81.6 8.2,-28.9 36.2,-47.4 83.7,-48.2 13.1,3.3 37.1,7 59.2,15.4 99.8,38.3 199.4,77.1 298.4,117.2 132.8,53.7 253.1,128.1 358.4,225.6 21.3,19.6 42.2,42.6 54.7,68.2 21.8,44.5 -5.7,84 -54.9,80.1 -24.8,-2 -50.3,-11.3 -73,-22.6 -203.1,-100.8 -405.7,-202.5 -608.2,-304.5 -29.6,-14.9 -58.7,-31.2 -86.2,-49.6" style="fill:#5fcbf5;fill-opacity:1;fill-rule:nonzero;stroke:none" id="path90"/>
      <path d="m 20764.7,10872.9 c -822.1,-233 -1625.8,-519.3 -2417.9,-839.1 -567.7,-229.1 -1125.4,-481.4 -1685.1,-728.9 -918.9,-406.2 -1839,-809.8 -2758.6,-1214.3 -62.4,-27.4 -125.8,-52.7 -188.9,-78.7 -9.6,-3.9 -20,-5.9 -38.8,-11.3 47.2,141.2 94.2,274.1 135.9,408.8 42.5,137.2 82.4,275.5 118.3,414.6 35.5,137.3 67.5,275.7 95.6,414.8 28,138.9 49.1,279.3 74.2,424.4 15,6.4 33.5,13.9 51.6,22.2 66.1,30.6 111.8,74.5 115.6,154.2 1.8,37.9 14.8,75.6 25.3,112.7 24.8,87.7 36.9,176.6 30.5,267.8 -2,27.2 -3.4,54.5 -5.1,83.6 40.3,13.9 76.7,26.4 113,38.8 278.9,95.5 555.9,197.4 837.2,285.3 941.3,293.9 1879.4,597.6 2819.5,895.3 495.6,156.9 992.4,310.2 1478.5,494.6 318.7,120.9 632.7,254.3 949.5,380.4 188.3,74.9 377.8,146.5 570.5,221 23.4,-19 46.7,-34 65,-53.6 41.5,-44.4 82.5,-89.6 120.2,-137.3 231.4,-291.8 460.8,-585.2 672.7,-891.8 53.5,-77.2 102.7,-157.4 153.3,-236.6 9.8,-15.3 17.3,-32.2 25.8,-48.3 -16.9,-21.2 -40.8,-20.4 -61.2,-25.9 -432.2,-117.7 -865.7,-230.6 -1296.6,-352.7 z M 13531.8,9107.8 c -142.8,-575.3 -326,-1137.1 -563.9,-1680.6 -108.7,-248.3 -204.8,-501.7 -289.2,-759.3 -2.3,-7 -5.4,-13.7 -8.7,-22.1 -37.7,-31 -83.3,-44.7 -131.4,-49.3 -111.9,-10.7 -223.9,-22.5 -336.1,-28.8 -375.4,-21.2 -750.9,-42.4 -1126.6,-59.2 -252.3,-11.3 -504.9,-16.3 -757.4,-22.4 -308.3,-7.4 -615.26,17.8 -922.41,39 -90.11,6.2 -180.29,12.3 -270.54,15.1 -47.44,1.5 -95.11,-4.3 -147.12,-7 -63.14,11.4 -131.67,23.9 -208.07,37.7 -260.08,237.9 -461.63,525.3 -585.25,864 -55.51,152.1 -97.84,309 -144.93,464.2 -21.4,70.5 -38.14,142.4 -60.27,212.7 -12.11,38.4 -31.03,74.7 -46.92,111.9 -55.08,129 -117.54,254.2 -191.94,373.3 -103.34,165.5 -170.98,346.9 -232.51,530.6 -42.14,125.8 -79.79,253.1 -120.74,379.3 -15.91,49 -33.12,97.9 -53.63,145.1 -54.28,125 -128.25,170.7 -263.6,166.8 -18.08,-0.5 -36.18,-0.1 -59.39,-0.1 0,28.8 -1.89,55.7 0.3,82.4 21.43,261.3 60.89,519.3 124.46,774.2 150.34,602.8 357.53,1185.5 612.83,1751.2 334.85,741.9 714.51,1460.1 1152.75,2146.5 86.28,135.2 177.18,267.4 266.07,400.9 8.09,12.1 17.11,23.7 28.76,39.7 6.94,-12.2 13.04,-20.5 16.6,-29.7 36.61,-94.3 103.13,-159.9 193.89,-202.2 189.12,-88.4 379.51,-80.7 568.24,-1.8 62.52,26.1 122.22,60.9 179.02,98.1 86.3,56.6 169.5,117.8 252.9,178.7 117.8,85.9 238.5,167.1 369.8,231.4 45,22 91.2,40.6 141.9,43.3 21.8,1.2 44.5,0.8 65.8,-3.7 51.6,-11 75.1,-46.3 64.5,-97.6 -15.2,-73.2 -62.2,-119.9 -131.3,-144.2 -49.6,-17.5 -101,-18.9 -152.8,-9.7 -20,3.5 -40.2,7.2 -60.3,7.3 -65.7,0.4 -111.1,-44 -113.6,-109.8 -2.1,-55.2 21.6,-100.1 57.6,-139.3 42.3,-46 95.8,-74.3 154,-94.5 84.5,-29.5 172.4,-39.6 261.2,-40.5 194.1,-2.2 382,32.1 560.7,107.8 58.9,24.9 112.6,62 168.6,93.7 9.3,5.3 18,11.8 33.2,22 111.2,-143.1 219.2,-280.8 325.7,-419.7 67.3,-87.7 131.4,-178 198.8,-265.7 207.5,-269.9 382.1,-560 535,-863.7 169.1,-336.1 327.1,-677.1 462.7,-1028.3 39.1,-101.4 82.9,-201.1 124.9,-301.3 8.6,-20.4 17.9,-40.6 28.7,-59.8 31.7,-56.7 78.6,-86.4 145.5,-78.8 9,1.1 18.1,1.5 29.3,2.4 21.9,-27.1 29.6,-59.7 37.1,-91.3 35.5,-150.6 74.6,-300.6 103.2,-452.6 48.3,-257.2 92,-515.3 133.3,-773.8 28.4,-178.5 42.1,-358.8 42.7,-539.8 0.1,-12.5 -1.8,-25 -2.6,-35.5 -5.9,-3.6 -8.9,-7 -11.9,-7 -83.9,-0.3 -141.8,-44.6 -187.3,-110.1 -42.6,-61.1 -71.6,-128.8 -94.7,-199.1 -63.9,-194.4 -115.6,-392.3 -164.9,-591 z m 62,3494.7 c 128.4,64.7 256.8,129.3 385.4,193.6 169.8,85 339.9,169.1 509.4,254.6 569.4,287.2 1137.8,576.4 1708.3,861.4 220.9,110.3 446.2,211.9 670,316.4 249.4,116.3 486.7,254.1 717.4,403.8 115.8,75.2 203.3,175.2 265.6,297.7 62.9,123.7 114.9,252 147.2,386.9 55.7,233 106.4,467.2 160.8,700.5 94.7,405.7 190.3,811.1 286.1,1216.4 35.2,148.9 70.2,297.8 109,445.8 29.4,112.2 64.5,223 97.3,334.3 2,6.8 6.4,12.9 7.1,14.4 161.1,23.7 317.5,48 474.3,69 51,6.8 103,4.6 154.6,7.2 38.6,2 77.4,2.8 115.6,8.1 79.4,11 136.5,54.2 166.5,128.8 17.8,44.3 33.3,90 44.9,136.3 96.8,384.4 241.7,750.5 421.4,1103 132.9,260.6 289.8,505 490.1,720.1 161.5,173.4 350.4,309.9 558.4,420.7 86.5,46.1 177.4,81.3 275.4,96.4 114.3,17.5 211.2,-14.4 291.4,-97.6 131.6,-136.5 215.8,-298.3 251,-484.1 48.7,-256.4 45.6,-512.4 -4,-769.3 -108.2,-559.2 -308.8,-1083.7 -581.6,-1581.9 -148.8,-271.8 -305.3,-538.9 -482.2,-793.7 -125.2,-180.3 -274,-337.4 -450.1,-468.7 -97.1,-72.5 -202.3,-127.5 -319.2,-160.8 -95.9,-27.3 -192.9,-28 -290.5,-15 -57.2,7.5 -104.4,34.4 -142.1,78.2 -64.7,75.1 -111.4,160.5 -141.8,254.3 -26.3,81.2 -62.2,157.8 -107.3,229.9 -14.5,23.1 -31.4,46.3 -51.9,64 -63.9,54.7 -150.6,24.3 -163.3,-59 -20.2,-133 -37.7,-266.4 -52.8,-400.1 -38.5,-338.8 -72.4,-678.2 -113.4,-1016.7 -25.5,-210.4 -62.1,-419.4 -90.8,-629.4 -33.4,-244.7 -63.4,-489.9 -95.4,-734.7 -5.8,-43.8 -14.8,-87.2 -21.8,-130.8 -8.7,-55 -35.4,-100.5 -73.9,-139.4 -25.9,-26.2 -52.4,-51.9 -80.4,-75.8 -122.2,-104.2 -250.6,-200.5 -385.9,-287 -899.8,-574.9 -1817.8,-1118.9 -2757.8,-1626 -246.5,-133.1 -486.7,-277.7 -729.4,-417.7 -166.1,-95.8 -331.4,-192.8 -497.2,-289.1 -7.5,-4.4 -15.8,-7.4 -29.9,-14 -5.4,35.3 -10.4,65.5 -14.5,95.9 -26.2,190 -50.2,380.5 -99.9,566 -21.8,81.5 -51.6,161.4 -84.4,239.3 -43.9,104.7 -124.2,166.6 -238.6,182.2 -45.5,6.2 -90.6,15.8 -138.4,24.3 -45.2,103.4 -82.1,208.4 -103.3,320 13,8.1 23.3,15.6 34.6,21.3 z m 4809.5,7604.1 c -169.3,379.3 -357.4,748.3 -572.5,1103.7 -28.5,47.1 -52.9,96.7 -79.1,145 48.9,116.6 96.4,224.5 139.8,334.1 152.3,385.4 268.8,780.6 316.4,1193.6 12.2,106 14.7,213.1 21.8,319.7 0.6,9 2,17.9 3.3,29 124.1,48.5 248.9,92.2 377.5,125.5 178.4,46.1 356.4,93.7 534,142.7 162.5,44.9 326.8,75.3 496.3,69.7 73.6,-2.5 147.4,-3.2 220.7,-9.9 134.8,-12.3 258.9,-60.7 372,-132.2 216.3,-136.6 380,-318.7 467.8,-563.6 58.8,-164.1 94.4,-333.3 115.1,-505.7 49.5,-413.9 47.1,-827.9 -1.4,-1241.6 -10.7,-91.4 -26.4,-182.5 -45,-272.7 -17,-82 -24.8,-163.6 -12.9,-249.1 -11.4,-9.2 -22,-19.1 -33.8,-27.2 -254.3,-174.5 -460.1,-396.3 -634.2,-649.1 -129,-187.5 -233.9,-388 -322.9,-597.3 -132.1,-310.6 -255.8,-624.2 -341.4,-951.4 -3.1,-12 -8.5,-23.5 -13.8,-37.6 -181.9,103.7 -365.5,196.4 -562.7,277.1 -10.3,31.5 -24.3,65.5 -32.4,100.9 -41.5,181.4 -80,363.5 -122.1,544.8 -68.2,293.6 -167.7,576.2 -290.5,851.6 z m -1352.1,4660 c 6,-15.1 15.8,-29.1 25.5,-42.4 229.3,-314.3 458.6,-628.5 688.5,-942.4 54.4,-74.4 110.8,-147.4 166,-221.1 10.8,-14.4 20.4,-29.6 25.5,-52.8 -21.8,7.1 -44.6,12.1 -65.1,21.9 -38.2,18.3 -75,39.6 -112.5,59.4 -239.8,126.1 -479.8,251.8 -719.2,378.8 -23.7,12.6 -46.4,30.5 -64.1,50.7 -80.3,91.5 -159,184.3 -237.7,277.2 -136.3,161.2 -285.7,309.1 -459.9,428.8 -157.9,108.6 -315.1,220.2 -482.6,312.3 -225.7,124.2 -462.4,228.4 -706.5,312.8 -100.8,34.8 -204.2,64 -308.5,86 -218.5,46.2 -439.9,70.8 -663.3,82.3 -430.8,22 -859.2,-0.8 -1284.3,-71.2 -897.8,-148.9 -1761,-408.7 -2582.3,-805.9 -747.34,-361.3 -1442.83,-802.1 -2085.45,-1326.8 -168.7,-137.8 -326.94,-287.2 -478.81,-443.2 -201.75,-207.3 -372.74,-438.3 -516.38,-688.7 -260.19,-453.6 -457.29,-932.9 -572.5,-1444.2 -40.21,-178.6 -65.49,-359.1 -65.18,-542.6 0.23,-134.5 0.17,-269 1.63,-403.5 0.36,-33 4.85,-66.1 9.76,-98.8 14.28,-95.2 71.47,-150.5 163.39,-172.4 10.48,-2.5 20.99,-4.9 37,-8.7 -5.68,-229.7 27.02,-455.5 60.64,-682.9 -24.61,-3.4 -32.97,13.3 -43.6,23.6 -353.77,344.4 -594.77,751.6 -700.97,1237.4 -72.33,330.8 -91.64,664 -69.92,1000.7 20.5,317.5 75.87,629.4 158.2,936.3 23.36,87.1 51.38,173.4 84.2,257.3 23.31,59.7 57.73,115 88.17,171.8 17.41,32.4 39.21,62.7 54.8,95.9 39.06,83.3 21.11,165.1 -49.05,224.4 -22.31,18.9 -47.28,36.3 -73.82,48.2 -152.58,68.3 -225.13,196.1 -259.65,350.1 -28.97,129.3 -11.4,256.8 28.92,381.6 36.72,113.6 98.47,214 167.6,310.1 109.98,153 231.97,296 360.49,433.6 281.37,301.2 589.73,572.9 910.29,831 716.48,576.9 1486.57,1071.8 2310.29,1480 774.65,384 1588.35,661.3 2431.95,850.6 286.1,64.2 573.5,121.2 864.4,159 388.5,50.4 778.6,66.9 1170.1,56.4 280.3,-7.4 560.1,-24.8 838.1,-61.6 248.4,-32.9 496.4,-70.1 743.4,-112.4 93.6,-16 185,-48 275.4,-78.8 108.1,-36.7 213.7,-80.7 321,-119.9 329.4,-120.4 632.1,-292 924.5,-482.7 197,-128.5 368.8,-288.3 535.1,-453.5 193.7,-192.5 378.3,-393.4 545.8,-609.5 241.7,-311.7 431.3,-651.3 543.7,-1031.2 74.7,-252.8 113.7,-510.6 106.1,-774.9 -1.7,-60.5 2.8,-121.1 4.7,-188.1 -160,-51.1 -319.4,-101.9 -476.4,-152.1 -358.2,329.2 -714.4,657.6 -1072.2,984.3 -81.6,74.5 -168.2,143.7 -253.7,213.9 -26.9,22.1 -56,42.9 -87.2,57.9 -23.9,11.4 -52.9,18.6 -79.2,17.5 -61.3,-2.5 -97.5,-62.5 -75.1,-119.5 z M 19602.4,14766 c 0.7,-243.6 -11.6,-486.5 -19.8,-729.6 -7.6,-226.6 -24.4,-452.9 -14.8,-679.8 1.3,-33 3.7,-65.9 5.9,-103.3 -24.6,-14.3 -45.2,-26.3 -65.8,-38.4 -399.5,-234.2 -812.9,-441.8 -1230,-642.1 -357.2,-171.4 -716.7,-338.2 -1076.4,-504.3 -545.4,-251.8 -1091.5,-502.3 -1638.2,-751.5 -412.5,-188 -825.4,-375.2 -1230,-580 -11.3,-5.7 -23.4,-9.8 -38.2,-16 -17.5,52 -15.7,102.9 -20.9,158 55,36.6 107.8,76.9 165.1,109.3 250.2,141.7 501.7,281.1 752.7,421.3 114.3,63.8 228,128.6 343,191 753.4,409.1 1497.8,833.6 2225.1,1287.9 115.7,72.2 233.5,141.1 350.5,211.2 182.1,109.2 353.1,234.6 522.9,361.5 61.8,46.2 120,98 175.7,151.6 104.9,101 161.1,223.5 172.4,371.6 10.8,141.2 36.1,281.4 57.6,421.6 42.5,276.8 86.4,553.5 130.5,830.1 63.8,400.7 110.1,803.4 142.4,1207.7 0.5,5.5 1.8,10.8 3.8,22.6 8.9,-10.3 16.3,-16.4 20.8,-24.2 13.8,-23.9 26.3,-48.6 39.9,-72.7 58.3,-103.3 134.5,-188.9 243.8,-243.8 0.7,-15.4 2.9,-29.9 1.8,-44.1 -34.3,-438.1 -21.2,-877 -19.8,-1315.6 z m 650,-1346.6 c 15.2,9.8 31.3,18.2 47.7,27.6 72.2,-204.4 143.1,-405.2 216.9,-614.1 -1719.6,-627.6 -3432.9,-1265.5 -5166.8,-1845.9 -9.9,-3.3 -20.3,-5.3 -33.4,-0.3 17.6,8.3 34.9,17.1 52.6,24.9 712.1,312.9 1425.4,623.1 2135.9,939.6 449.6,200.2 897.7,404.5 1334.3,631.7 227.1,118.2 445.8,252.6 668,380.1 46.4,26.6 90.7,56.7 137.5,82.6 208.1,115.4 407.1,245.6 607.3,373.8 z M 7234.9,18724.1 c 48.95,35.5 99.38,71.9 154.55,95.1 125.43,52.9 254.02,98.3 381.62,146 37.92,14.2 77.25,24.5 115.19,38.7 179.57,66.8 366.11,86.6 554.87,69.3 142.7,-13.1 284.58,-38.2 425.67,-64.2 51.38,-9.5 100.55,-34.7 148.67,-57.2 53.57,-25 90.68,-68.9 116.55,-121.4 23.37,-47.5 45.19,-95.8 58.48,-160.8 -16.71,21 -25.82,31.6 -34.11,42.9 -130.63,177.5 -308.39,267.4 -525.68,288 -192.12,18.1 -382.81,4.6 -573.42,-18 -170.68,-20.3 -338.21,-54.8 -499.62,-114.9 -49.97,-18.6 -99.11,-39.9 -147.29,-62.8 -93.33,-44.3 -171.28,-107.5 -227.94,-195.1 -3.02,-4.7 -5.7,-9.6 -11.53,-12.1 -1.17,54.4 23.18,96.9 63.99,126.5 z m 1732.79,-241.4 c -2.03,-121.4 -51.71,-217.3 -155.05,-282.8 -131.73,-83.4 -272.54,-137.4 -431.96,-130.6 -62.89,2.6 -121.43,18.7 -168.53,60.1 -42.6,37.4 -85.61,77 -117.93,123 -78.16,111.2 -116.67,237.4 -118.43,373.7 -0.39,30.7 5.84,61.6 9.53,97.4 127.6,20.4 248.6,24.1 380.41,31.4 -17.19,-19.6 -27.54,-31.3 -37.64,-43.1 -46.16,-54.1 -63.92,-115.8 -46.03,-185.3 18.23,-70.7 48.17,-135.3 106.5,-183.2 61.17,-50.2 130.32,-62.9 201.88,-31.9 104.52,45.2 164.09,128 177.95,241.3 6.28,51.4 -8.21,98.6 -39.14,140.5 -8.44,11.4 -16.29,23.3 -30.05,43.1 66.37,-5.8 119.99,-20.5 168.81,-52 3.09,-2 5.95,-4.3 8.8,-6.7 107.63,-88.3 92.81,-79.9 90.88,-194.9 z m 438.47,-83.6 c 12.9,-3.6 23.08,-6.5 39,-11 -7.6,-18.3 -14.04,-33.9 -23.58,-56.9 -19.61,25.3 -20.07,44.5 -15.42,67.9 z M 26958.8,5972.7 c -3.3,27.9 -15.9,57.4 -32.1,80.8 -33.4,48.3 -70.2,94.9 -109.1,139 -259.9,294.7 -527.5,582.4 -813.1,852.3 -453,427.9 -907.3,854.7 -1367.3,1275.1 -901.1,823.7 -1786.8,1663.4 -2655,2521.7 -12.7,12.6 -24.4,26.1 -41.4,44.3 24.3,7.5 41.5,13.1 58.8,18.2 81.3,24 163.7,44.8 243.6,73 42.6,15 85.1,37.2 120.2,65.4 74,59.5 93.9,152.8 56.3,240.1 -13.1,30.3 -31.4,58.4 -49,86.4 -47.2,74.9 -97.3,147.9 -142.7,223.9 -220,368.5 -476.5,710.1 -759.4,1032.2 -38.9,44.3 -79.7,87.4 -123.8,126.3 -37,32.6 -78.3,61.6 -121,86.3 -65.4,37.8 -136.6,43.6 -208.5,19.3 -41.8,-14.2 -82.5,-31.7 -123.6,-48 -29,-11.3 -57.7,-23.1 -90.2,-36.1 -21.4,54.5 -40.9,105.8 -61.6,156.7 -76.8,189.6 -153.8,379.1 -231.3,568.3 -9.7,23.8 -21.9,46.8 -34.7,69.2 -9,15.9 -19.8,31.2 -31.9,45 -47.1,53.9 -107.5,70.4 -174.7,45.5 -30.9,-11.5 -60.8,-26.8 -89.2,-43.6 -88.9,-52.4 -176.8,-106.5 -265.4,-159.5 -13.1,-7.9 -27.5,-13.6 -49.7,-24.3 0,67 -3.4,124.3 0.6,181 17.4,240.8 33.4,481.9 56.6,722.2 32.8,339.4 73.1,678.1 107.4,1017.4 23.8,236.6 43,473.6 64.5,710.4 0.7,8.7 3.1,17.3 4.8,26.2 11.3,3.4 19.9,6.7 28.8,8.6 130.1,27 248,82 357.8,155.6 127.5,85.4 245.5,182.6 355.6,289.4 157.3,152.8 281.8,330.9 398.2,515.2 188.5,298.3 349.7,610.9 493.2,933.1 198.1,444.9 350.1,903.9 431.6,1384.8 44.4,262.4 48.5,525.1 -6.5,786.4 -54.6,259.9 -173.2,484.5 -378.2,659.1 -85.3,72.7 -182.6,116.7 -294.3,128.3 -11.9,1.2 -23.5,5.5 -34.7,8.3 17.9,71.7 36.1,139 51.6,206.9 28.2,124 59.5,247.5 81.2,372.7 51.9,299.9 57.1,601.6 20.1,903.7 -27.9,227.7 -78.4,450.3 -163.7,663.9 -60.6,151.7 -138.1,293.3 -248.8,415.2 -212.3,233.8 -474.4,382.5 -779.3,458.7 -249.5,62.3 -499,73.1 -748.6,0.7 -10.2,-2.9 -21,-3.7 -33.6,-5.8 -1.7,13.5 -4,24.2 -4.3,35 -3.1,101.3 -5.4,202.7 -8.8,304 -1.8,53.4 -3.5,106.9 -8.2,160.1 -20.5,227.8 -79.9,446.3 -166.8,656.8 -140.8,341 -330.3,654.3 -549.5,950.2 -21.9,29.6 -44.8,58.7 -69.6,86 -116.5,128.2 -229.9,259.6 -352.1,382.3 -92.1,92.4 -193,176.9 -295.3,258.2 -100.9,80.2 -207.8,153 -313.4,227.1 -119.4,83.8 -245.8,156 -375.8,222.3 -484.5,246.7 -997.4,413.5 -1526.7,528.8 -659.9,143.8 -1329.1,205.8 -2004.4,204.3 -352.7,-0.7 -703.8,-22.7 -1052.9,-73.8 -363.3,-53.2 -722.4,-127.6 -1078.1,-218.1 -884.7,-224.9 -1734.1,-543.2 -2535.92,-981.1 -797.19,-435.2 -1540.36,-950.1 -2227.5,-1544.8 -284.79,-246.5 -555.98,-506.8 -798.83,-795.4 -110.51,-131.3 -214.42,-267.6 -304.18,-414.2 -85.71,-140 -145.84,-289.7 -168.07,-453 -30.53,-224.4 9.59,-433 141.46,-620.8 50.69,-72.1 113.42,-130.5 190.43,-173.6 17.35,-9.7 34.1,-20.5 54.67,-32.9 -8.47,-24.8 -14.32,-47.8 -23.95,-69.1 -47.05,-104.1 -95.26,-207.7 -142.78,-311.6 -62.85,-137.4 -131.03,-272.7 -187.09,-412.8 -168.39,-421 -257.68,-857.9 -235.54,-1312.6 18.11,-372.2 89.66,-735.2 215.74,-1086.3 104.81,-291.9 266.25,-550 475.53,-778.3 71.21,-77.7 148.13,-149.3 235.56,-208.6 36.53,-24.8 74.92,-47 113.56,-68.4 22.45,-12.4 46.47,-22.7 70.83,-30.9 120.42,-40.5 238.17,-54.6 339.54,40.9 26.95,-54.5 50.65,-108.5 79.98,-159.3 16.21,-28 39.21,-53.7 63.96,-74.8 30.03,-25.7 58.59,-21.5 90.4,3 24.12,18.5 32.21,42.8 33.04,72.3 3.17,112.6 50.68,201.9 145.12,264.4 24.49,16.3 50.12,32.1 77.37,42.6 86,32.8 172.89,63.4 259.76,94 12.93,4.5 27.63,4 43.84,6.2 1.89,-38.6 1.8,-73.4 5.58,-107.7 19.49,-177 90.53,-332.7 196.5,-474.2 61.57,-82.2 137.98,-142.6 237.49,-171.9 8.5,-2.5 15.8,-9.1 29.25,-17.2 -140.86,-17.6 -269.98,-6.1 -390.55,55.5 -112.52,57.4 -213.4,131.3 -296.64,227.5 -20.51,23.6 -39.29,48.9 -60.24,72.1 -12.21,13.6 -25.6,27.4 -41.17,36.3 -35.78,20.6 -70.56,0.7 -66.26,-40.1 2.97,-28.2 13.85,-57.4 27.75,-82.5 35.12,-63.5 83.28,-116.8 139.66,-162.7 210.2,-170.9 450.15,-237.1 718.17,-203.8 57.2,7.1 114.13,16.4 171.18,24.7 -140.82,-61 -280.09,-124.6 -431.59,-152.2 -54.36,-9.8 -109.41,-15.9 -163.89,-25.2 -21.91,-3.7 -44.95,-10.7 -50.44,-36.6 -5.77,-27.2 9.41,-48.6 31.35,-59.2 31.02,-15 64.45,-30.6 97.94,-33.6 50.91,-4.5 103.43,-3.3 154.08,3.8 179.1,25.3 334.8,109.6 487.14,200.8 15.62,9.3 30.05,21.8 42.47,35.1 44.43,47.9 33.07,86 -29.53,102.9 -3.48,0.9 -6.73,2.6 -14.16,5.7 17.11,8.4 31.18,16.6 46.17,22.5 182.87,72 349.12,174.7 514.65,278.7 12.46,7.8 24.73,16.1 36.1,25.4 15.5,12.7 24.7,28.8 12.85,48.3 -10.37,17 -27.12,17.4 -43.97,10.7 -18.8,-7.5 -37.45,-15.5 -55.76,-24.1 -34.47,-16.3 -68.65,-33.2 -102.95,-49.8 -3.64,3.1 -7.27,6.3 -10.91,9.5 55.01,75.6 68.49,164.6 81.67,254.6 54,-13.1 109.18,-3.8 151.59,-52.3 3.88,-38.6 10.03,-82.2 12.17,-126 2.36,-48.2 22.11,-77 70.09,-84.1 30.53,-4.4 62.39,-3 93.36,-0.6 53.14,4.2 89.4,34.2 106.5,83.7 12.6,36.3 22.83,74.2 28.31,112.2 6.67,46.3 -13.08,83.1 -55.35,105.1 -17.88,9.2 -37.05,16.6 -56.31,22.6 -49.93,15.5 -89.12,44.4 -112.93,91.2 -28.35,55.7 -55.77,112 -82.07,168.7 -16.25,35 -28.93,71.7 -44.5,107.1 -21.34,48.5 -55.45,86.3 -99.24,116.2 -57.18,39 -120.36,63.8 -186.79,80.7 -168.44,43.1 -339.88,65.8 -513.28,75.9 -135.35,7.9 -268.8,-4 -400.94,-33.4 -209.08,-46.5 -413.07,-109.9 -612.71,-187 -56.52,-21.8 -111.4,-48.9 -164.55,-78.1 -68.9,-37.9 -126.65,-88.9 -162.19,-161.4 -2.89,-5.8 -8.49,-10.4 -13.65,-16.5 -38.25,83.5 -134.47,842.8 -119.96,942.4 144.45,47.7 288.34,99.3 434.68,142.8 327.42,97.1 654.79,94.9 978.89,-16.5 130.61,-44.9 259.03,-96.2 388.78,-143.6 159.15,-58.2 318.25,-116.6 478.28,-172.3 35.97,-12.5 75.79,-20.3 113.69,-19.8 166.91,2.4 297.48,79.6 393.62,211.6 76.7,105.2 69.86,230.3 -8.95,334.3 -48.2,63.6 -104.13,120.4 -171.8,162.9 -185.06,116.3 -379.4,213 -593.03,265.2 -262.35,64.2 -529.34,99.2 -798.73,108 -165.53,5.4 -331.66,-3.2 -497.37,-9.3 -203.98,-7.6 -402.37,-46.9 -594.62,-116.2 -15.32,-5.5 -31.11,-9.7 -50.61,-15.8 0,25.7 -1.85,47.7 0.33,69.3 8.15,80.7 14.81,161.7 27.1,241.8 45.36,295.9 118.19,585 216.96,867.7 168.49,482.3 395.29,933.3 718.21,1331.8 127.64,157.5 260.29,311.1 393.6,463.9 45.8,52.5 97.29,101.2 151.84,144.6 125.52,99.8 252.03,198.6 382.55,291.7 524.08,373.6 1078.16,695.3 1672.46,944.2 668.2,279.8 1357.4,493.8 2067.1,639.8 349.1,71.8 702.1,114.8 1058.8,122.3 256.7,5.4 512.3,-11.5 767,-43 179.5,-22.3 356.7,-55.3 528.5,-114.7 417.8,-144.4 802.1,-353.3 1164.5,-604.2 261.7,-181.1 473.7,-408.5 630.9,-686.3 65.3,-115.5 133,-229.7 199,-344.8 23.8,-41.7 53.5,-77.5 103.2,-84.2 103.5,-14.1 198.9,-53.9 296.3,-87.5 184.6,-63.8 369.1,-128 553.5,-192.2 6.5,-2.3 12.2,-7 19.7,-11.5 -2,-14.1 -3.4,-26.6 -5.7,-39.1 -33.8,-183.5 -83.7,-362.6 -143.7,-539.1 -119.5,-351.1 -264.3,-691.9 -419.2,-1028.7 -56.2,-122.2 -109.7,-245.7 -165.3,-368.2 -47.2,-104.3 -35,-201.2 35.5,-290.4 36.6,-46.2 75,-91.1 113.9,-135.4 80.3,-91.3 164.5,-179.5 242,-273.2 242.5,-293.3 412,-627.5 542.5,-982.9 114.9,-312.7 182.1,-637.5 242.3,-963.9 30,-163.1 59,-326.4 87.1,-489.8 2.9,-17.1 0.1,-36.7 -5.3,-53.4 -23.7,-73.6 -51.7,-146 -73.8,-220 -66.6,-222.5 -135,-444.5 -195.8,-668.5 -152.1,-560.4 -289.5,-1124.5 -409.6,-1692.7 -36.6,-173.4 -86.5,-342.8 -155.5,-506.7 -55.6,-132.1 -140.8,-237.4 -261.1,-313.7 -121.4,-76.9 -240.4,-158.9 -367.6,-225 -224.1,-116.2 -452.1,-225.1 -681,-331.5 -424.7,-197.4 -844.4,-404.7 -1260.1,-620.3 -328.8,-170.6 -659.2,-338.3 -988.1,-508.8 -188.1,-97.6 -374.7,-198.2 -562,-297.3 -7.4,-3.9 -15.5,-6.1 -25.6,-10 -28.9,79.9 -55.8,156.3 -83.8,232.2 -154.8,418.4 -362.9,810.4 -592.3,1191.7 -215.6,358.4 -476.9,678.1 -803.3,942 -8.1,6.6 -13.9,15.9 -20.7,23.9 7,14 12.3,25.7 18.5,36.9 183,338.1 57.6,715 -147.2,911.7 -149.6,143.6 -329.5,219.3 -530,254.6 -156.6,27.6 -295.6,-16.2 -422.6,-106 -83.6,-59 -129.6,-144.3 -161.5,-238.5 -4,-12 -4.7,-25.5 -5,-38.3 -2,-91.6 78.3,-157.2 166.5,-132.5 29.3,8.2 59.3,23.7 81.7,44 44.8,40.7 89.1,83.6 125.1,131.9 38.9,52.5 85.1,71.7 147.8,63.3 201.4,-27 361.2,-120.4 472.5,-292.9 44.9,-69.6 73.9,-144.8 76.6,-227.9 5,-159 -34.8,-302.9 -149.5,-419.7 -51.4,-52.4 -114,-87.4 -183,-110.5 -110.9,-37.2 -225.4,-54.7 -342.4,-55.5 -8.3,-0.1 -16.6,1.7 -33.5,3.6 18.6,16.3 30.4,26.8 42.4,37.1 54.5,46.8 93.8,103.7 114.4,172.9 55.9,188.6 -49.1,362.8 -243.1,397.1 -46.3,8.2 -95.5,6.5 -142.8,2.2 -82,-7.6 -156.2,-41.3 -227.8,-80.7 -142.4,-78.6 -274.1,-173.1 -405.4,-268.7 -90.8,-66.1 -183.7,-129.7 -278.03,-190.7 -41.41,-26.8 -87.63,-47.4 -133.8,-65.2 -115.31,-44.7 -231.13,-40.5 -345.11,6.4 -23.14,9.6 -44.36,23.8 -65.83,35.5 2.19,14.9 3.67,23.9 4.8,32.9 10.5,84.1 27.27,167.9 30.21,252.3 8.94,256.2 15.66,512.5 51.66,766.6 36.95,260.9 69.76,522.8 118.27,781.6 61.43,327.8 141.83,651.8 230.08,973.6 44.02,160.5 103.49,315.4 180.75,462.8 89.4,170.6 220.7,299.2 400.7,372.1 85.3,34.5 173.9,60.9 260.8,91.2 85.2,29.7 171.2,57.5 255.2,90.5 78.2,30.6 145.2,79.6 201.1,142.9 29.7,33.5 52.5,70.8 66.5,113.7 61.5,189.3 124.2,378.1 184.6,567.7 21.3,66.6 38.7,134.6 55.3,202.5 9,36.9 -6.3,66.4 -34.6,78.8 -28.4,12.5 -59.1,3.7 -81.9,-27.4 -15.2,-20.7 -28.1,-43.4 -39.1,-66.6 -54.3,-115 -107.7,-230.4 -161.3,-345.8 -40.3,-86.9 -81,-173.7 -120.5,-261 -20.2,-44.6 -52.6,-75.2 -97.6,-92.5 -44.7,-17.1 -89.6,-34.1 -135.1,-48.8 -125.2,-40.4 -255.5,-55.4 -384.6,-76.2 -111,-17.9 -221.7,-37.4 -332.7,-54.7 -63.4,-9.9 -109.05,-42.6 -137.12,-99.6 -17.9,-36.3 -37.26,-72.4 -50.39,-110.5 -25.8,-74.8 -50.4,-150.3 -70.7,-226.8 -49.17,-185.2 -95.41,-371.2 -143.13,-556.8 -55.53,-215.9 -111.72,-431.7 -166.99,-647.7 -33.35,-130.3 -69.11,-260.2 -97.51,-391.6 -90.48,-418.8 -138.37,-843.6 -177.82,-1269.7 -13.22,-142.9 -35.75,-284.9 -52.35,-414.2 -64.24,-68.8 -121.67,-126.2 -174.43,-187.5 -289.59,-336.8 -535.47,-704.1 -755.05,-1089.4 -73.01,-128.1 -143.4,-257.7 -215.25,-386.5 -8.42,-15.1 -18.54,-29.2 -30.6,-48.1 -8.81,15 -14.15,22.5 -17.81,30.6 -67.35,150.5 -155.27,288.9 -249.86,423.3 -130.52,185.4 -260.99,370.9 -392,556 -22.77,32.2 -40.47,66.3 -46.77,105.1 -19.48,120.1 -42.74,239.8 -55.51,360.6 -15.5,146.5 -22.36,294 -31.92,441.2 -8.96,138 -18.82,276 -24.32,414.1 -13.8,346.5 -12.65,693.1 -10.31,1039.8 0.83,124.5 28.73,240.4 89.89,349.1 55.11,98 108.26,197.2 159.82,297.1 19.28,37.4 36.95,77.1 45.88,117.9 13.87,63.3 -37.96,104.3 -97.96,79.6 -23.25,-9.6 -46.56,-24.5 -63.52,-42.8 -37.42,-40.4 -75.9,-81.4 -104.86,-127.8 -67.28,-107.8 -130.85,-218.1 -192.71,-329.2 -49.55,-89 -83.26,-184.6 -104.45,-284.5 -32.32,-152.3 -43.31,-306 -38.72,-461.7 8.26,-280.1 18.2,-560.3 18.2,-840.4 0.01,-339.4 6.16,-678.5 22.46,-1017.4 9.26,-192.6 63.2,-370 171.98,-529.5 36.3,-53.3 74.61,-105.4 115.05,-155.5 83.51,-103.6 178.75,-196.1 276.9,-285.8 122.52,-111.8 244.72,-224 366.82,-336.3 14.45,-13.3 27.38,-28.2 40.72,-42.1 -14.25,-27.8 -25.93,-50.7 -37.75,-73.6 -212.68,-411.5 -400.76,-834.1 -564.12,-1267.5 -179.72,-476.7 -327.71,-963.1 -431.07,-1462.4 -43.45,-209.9 -66.55,-422.4 -69.06,-636.9 -0.49,-42.1 2.42,-85.1 10.97,-126.3 19.59,-94.3 83.67,-145.2 179.91,-148.6 18.41,-0.6 36.87,0.4 55.3,0.5 18.12,0.1 36.24,0.1 55.24,0.1 29.87,-56.5 45.29,-113.4 60.82,-170 45.93,-167.2 101.56,-331.1 162.1,-493.6 101.26,-271.8 243.61,-520.3 418.08,-751.2 8.78,-11.6 16.69,-23.9 22.65,-32.4 -15.01,-171.8 38.21,-328.2 79.01,-487.2 -143.36,-89.5 -252.56,-212.1 -361.79,-334.4 -49.1,-55 -97.93,-110.5 -143.33,-168.5 -251.03,-321 -504.56,-640.1 -750.25,-965 -239.01,-316.2 -469.65,-638.7 -703.75,-958.5 -10.84,-14.8 -21.06,-30.5 -29.03,-46.9 -23.52,-48.7 -15.42,-100.1 19.4,-132.6 34.11,-31.7 82.2,-38 128.4,-13.2 24.12,13 46.06,30.5 67.83,47.4 158.72,123.3 315.22,249.5 476.01,370 460.37,344.9 922.05,688 1384.21,1030.6 81.35,60.3 167.82,113.6 251.17,171.3 33.25,23 64.54,48.9 96.52,73.7 11.27,8.7 21.96,18.2 39.34,32.7 9.11,-12.6 15.66,-23.8 24.2,-33.2 79.72,-87.4 152.46,-180.1 212.33,-282.4 44.05,-75.3 109.57,-117.6 195.49,-129.3 75.18,-10.3 150.28,-17.2 213.67,3.5 49.75,-10.9 88.75,-23.8 128.6,-27.5 286.38,-26.8 572.9,-51.6 860.69,-58.6 381.65,-9.4 763.35,-10.8 1144.95,0 294.8,8.4 589.8,15.7 884.3,31.6 219,11.8 437.3,36.1 655.7,56.1 25.1,2.3 54,7 73.2,21.2 61.5,45.9 119.3,96.7 178.4,145.8 2.8,2.3 4.6,5.7 6.8,8.7 45.6,64.8 92.3,128.9 136.5,194.6 178.6,265.4 327.2,547.2 458.4,838.5 7.5,16.6 15.8,32.8 23,47.6 17,6.8 30.7,12.3 44.4,17.5 149.7,57.5 300,113.7 449.2,172.5 785.5,309.7 1574.1,610.9 2376.7,874.6 674.3,221.5 1345.1,453.5 2019.5,674.6 586.7,192.4 1175.9,377.3 1764.9,562.8 298.8,94.1 599.5,182.2 899.4,272.9 3.3,1 7.2,-0.2 15.9,-0.7 14.2,-10.8 32,-23.8 49.2,-37.4 209.6,-165.9 419.1,-332.2 628.8,-497.9 735,-580.8 1475.7,-1154.3 2239.8,-1696.4 667.7,-473.7 1340.6,-939.9 2011.6,-1409 105.9,-74 207.8,-152.7 305.7,-237.1 148,-127.6 298.1,-252.8 447.6,-378.6 14,-11.7 29.3,-23.1 45.8,-30.4 80.4,-35.6 164.2,23.5 154.1,110.7" style="fill:#231f20;fill-opacity:1;fill-rule:nonzero;stroke:none" id="path92"/>
      <path d="m 15070.2,20841.3 c -38.7,130.1 -120.8,217.5 -249,260.2 -83.9,27.9 -167.7,57.3 -253.5,77.6 -333.2,78.6 -671,118.9 -1003.9,111.5 -213.2,0.6 -414.8,-21.3 -616.1,-45.9 -243.5,-29.8 -485.6,-69.5 -719.7,-144.4 -173.6,-55.5 -344.5,-119.1 -516.6,-178.8 -10,-3.4 -21.3,-5.4 -31.8,-4.8 -30.8,1.5 -49.8,-15.3 -58.6,-41.2 -9.3,-27.6 -19.3,-57.3 -17.9,-85.6 2.3,-49.2 9.3,-99 21,-147 36,-147.5 133.2,-237.8 275,-283.7 60.3,-19.5 122.6,-24.7 185.5,-25.8 160,-2.7 315.4,27.1 469.5,65.7 230.7,57.8 456.1,133.5 681.1,210 260.2,88.4 523.6,165.1 792.8,220.9 83.4,17.3 167.8,26.8 252.7,14.6 108.8,-15.7 202.9,-64.6 285.8,-135.7 94.3,-80.9 175.8,-173.7 245.6,-276.1 54.9,-80.7 105,-164.6 158.9,-246.1 19.1,-28.9 38.8,-59.7 65.3,-80.9 63,-50.4 146.4,-15.6 158.6,64.1 3.6,23.3 2.5,47.9 0,71.6 -21.6,204 -66.2,403.3 -124.7,599.8" style="fill:#231f20;fill-opacity:1;fill-rule:nonzero;stroke:none" id="path94"/>
      <path d="m 13992.9,19282.8 c -217.8,47.1 -435.1,98.3 -657.4,120 -220.8,21.6 -441.6,19.5 -661.9,-11.2 -127.8,-17.9 -256.3,-33.1 -379.5,-72.6 -64.5,-20.6 -126.7,-49.6 -187.9,-79 -67.9,-32.6 -100.3,-90 -99.1,-165.4 0.7,-40.5 2.3,-81 4.3,-121.5 3.4,-67.2 -21.6,-121.8 -70.7,-166.9 -27.3,-25 -26.5,-25.8 -81.5,-20.9 9.1,12.9 13.6,20.7 19.4,27.4 43.1,49.5 42.5,103 15.8,159.6 -14.1,29.9 -29.3,59.8 -39.2,91.2 -23.6,74.6 -8.2,124.8 57.7,167 55.6,35.6 114.3,68 175,93.9 235.4,100.3 481.1,162.9 735.1,193.4 164.8,19.9 330,35.4 496.3,28.6 145.7,-5.9 290.2,-21.7 431.1,-62.6 71.2,-20.7 138.5,-50.1 201.1,-90 36,-22.9 66.4,-51.1 89.9,-98.5 -21.7,3.3 -35.2,4.6 -48.5,7.5 z m -458.5,-156.9 c -14,-95 -35.4,-188.1 -75.7,-276.1 -29.7,-64.8 -72.4,-119.3 -126.4,-165.5 -38.7,-33.1 -81.9,-56.5 -132.3,-64.8 -142.6,-23.4 -279.4,-8.6 -405.6,66.3 -94.6,56 -150.1,138.8 -165,248.5 -9.5,69.7 -13.7,138.9 5.5,211.8 81.8,11.1 163.4,19.3 248.7,22 -1.3,-12.7 -0.7,-20 -2.8,-26.4 -31.2,-93.1 -3.2,-175.2 52,-248.9 64.1,-85.6 165.3,-103.7 254.8,-45.6 39.6,25.8 77.3,57.3 108.5,92.7 53.5,60.8 67.3,133.5 43.5,212 -2.6,8.8 -5.1,17.5 -7.6,26.2 42.1,13.1 137.9,11 202.8,-4.5 0,-15.4 2,-31.8 -0.4,-47.7 z m 525.9,-222.3 c 4.9,-52.8 49.2,-75.6 96.2,-50.7 14.3,7.6 29.4,18 37.9,31.2 19.9,30.5 39.1,62.3 52.9,95.9 23.6,58 16.9,119.7 12.7,180.3 -10.5,154.4 -84,272.2 -211.9,356.7 -71.2,47.1 -149,80.3 -231.2,103.3 -114.2,32.1 -231.1,45.7 -348.9,53.6 -143.9,9.7 -287.3,2.4 -430.6,-11 -187.3,-17.4 -373.6,-39.4 -556.2,-87.5 -169.3,-44.8 -338.4,-90.2 -496.7,-167 -59.4,-28.9 -118,-61.2 -172,-99.1 -82.8,-57.9 -120.1,-140.9 -116.7,-242.9 2.4,-71.7 23.1,-137.5 59.4,-202.9 -18.1,-29.6 -37.3,-58.6 -54,-89 -34.5,-63.1 -9.2,-121.4 61.9,-131.5 56.1,-7.9 113.8,-7.3 170.7,-6.3 18.8,0.3 40.7,9.4 55.7,21.4 77.4,62 142.4,132.7 163.9,235.1 8.2,39.1 23.7,77.3 40.8,113.7 8.8,18.8 25.5,37.5 43.5,48 74.3,43.4 158.1,54.1 239.7,67.7 3.9,-8.3 6.9,-11.6 6.8,-14.8 -1.5,-29.4 -4.3,-58.8 -5.2,-88.2 -6,-201.2 77.2,-352.6 255,-449 121.1,-65.7 250.9,-94.2 389,-83.8 19.7,1.5 40.6,7.2 70.2,-4 -82.2,-37.7 -158.2,-58.1 -236.6,-70.2 -125.7,-19.5 -250.1,-2.2 -374,17.2 -56.1,8.9 -110.9,25.9 -166.6,38.5 -22.7,5.2 -46.5,16.3 -70.8,-8 -2,-40.6 0.6,-48.7 29.3,-71.4 44,-35 94.7,-56.8 148.5,-71.4 395.7,-106.8 742.8,-11.8 1047.3,255.2 76.1,66.8 149.1,137.2 223.5,206 8.1,7.5 17.2,14.4 23.9,22.9 16.2,20.6 13.6,28.4 -18.8,54.5 -88.3,-35.2 -157.4,-106.5 -245.1,-150.8 89.5,137.8 108.4,295.2 133.1,456.2 28,-4.9 51.3,-7.9 74.1,-13.2 75.3,-17.3 150.3,-35.6 225.5,-53.2 56.2,-13.1 73.1,-33.7 73.6,-92 0.2,-33.2 -2.9,-66.6 0.2,-99.5" style="fill:#231f20;fill-opacity:1;fill-rule:nonzero;stroke:none" id="path96"/>
      <path d="m 15051.9,14908.3 c 34,-11.9 60.3,2.3 82.2,29.4 8.8,11.1 20.6,21.8 33.4,27.4 83.9,37 152,94.3 218.8,156.4 306.3,284.9 613.8,568.4 923.4,849.7 280.9,255.2 565.5,506.4 847.2,760.8 51.7,46.8 99.6,98.6 144,152.4 26.4,32 47.5,70.7 62.4,109.7 31.5,82 7.9,153.9 -65.3,202.7 -113.9,75.9 -234.8,138.2 -368.2,173.5 -135.5,36 -190.9,17.7 -278.2,-94.3 -41.9,-53.7 -82.7,-108.3 -124.5,-162.2 -316.2,-407.6 -634.1,-814 -948.2,-1223.2 -159.3,-207.6 -309.5,-421.9 -447.4,-644.6 -33,-53.1 -66.4,-106.1 -100.8,-158.3 -18,-27.2 -28.4,-55.6 -24.3,-91.1 0,-2.8 0,-8.3 -0.1,-13.9 -0.4,-34.4 11.7,-62.5 45.6,-74.4" style="fill:#231f20;fill-opacity:1;fill-rule:nonzero;stroke:none" id="path98"/>
      <path d="m 13958.7,18743.2 c -18.1,-8.7 -35.6,-19.8 -51.2,-32.5 -75.5,-61.8 -152.3,-122.2 -224.9,-187.2 -254.7,-227.6 -539.8,-383.1 -891.4,-386.5 -12,-0.2 -23.9,-5.2 -37.7,-8.4 -2.4,-29.7 10.9,-42.3 28.2,-50.3 16.6,-7.6 34.2,-14.3 52,-17.9 70.9,-14.6 142.4,-16.6 214.4,-7.8 189.3,22.9 358.1,99.7 512.9,205.9 155.1,106.5 296.1,231.1 424.8,368.9 13.7,14.7 26.8,30.8 36.6,48.2 12.5,22.1 8.3,47.3 -7,61.2 -17.2,15.7 -37.7,15.5 -56.7,6.4" style="fill:#231f20;fill-opacity:1;fill-rule:nonzero;stroke:none" id="path100"/>
      <path d="m 11716.2,11899.6 c -66.7,-66.6 -122.1,-142.4 -180.1,-216.4 -294.1,-374.9 -607.8,-731.5 -984.5,-1027.7 -90.1,-70.8 -183.8,-135.9 -285,-189.6 -34,-18.1 -69.6,-33.9 -105.7,-47.4 -47.3,-17.7 -95.1,-14.7 -138.8,10.9 -44.46,26.1 -89.35,52.3 -130.08,83.6 -379.32,291.4 -739.16,604.5 -1054.38,965.6 -85.9,98.5 -162.22,205.2 -242.65,308.4 -7.81,10 -13.6,21.6 -21.85,35 300.93,510.7 566.88,1034.5 821.86,1565.9 13.41,1.1 25.71,2.1 37.83,3 3.9,-6.6 7.81,-10.8 9.15,-15.8 24.85,-92.2 68.53,-175.2 127.02,-249.7 208.47,-265.6 479.3,-409.2 819.9,-408.4 156.7,0.4 307.3,37.8 450.1,101.2 87.4,38.9 171.4,85.4 256.4,129.3 32.4,16.8 63.4,36 101,57.5 153.8,-376.7 335.4,-734 537.6,-1082.4 -6.8,-8.8 -11.5,-16.7 -17.8,-23 z m -2032.03,2116.3 c 36.88,-6.1 72.56,-19.1 106.67,-36.8 129.37,-67.1 253.16,-143.6 369.96,-230.4 52.1,-38.7 102.1,-46.6 159,-17.6 14.8,7.5 30.3,13.8 44.2,22.6 87.7,55.3 184.1,92.4 277.6,135.8 56.6,26.2 111.1,56.9 166.7,85.6 7.9,4.1 15.9,8 29.9,15 23.2,-74.4 45.4,-145.6 68.9,-221.1 -22.4,-13.7 -41.8,-27 -62.5,-37.9 -191.2,-101.4 -393.2,-174.8 -601.7,-231.8 -48.5,-13.3 -93.1,-12 -140.3,4 -76.6,25.9 -153.7,51.3 -231.97,71.5 -104.09,26.9 -211.17,29.9 -318.23,28.9 -16.24,-0.2 -32.48,-0.1 -49.08,-0.1 5.96,39 137.04,337.4 180.85,412.3 z m 1350.53,-621.1 c -82.8,-70.3 -169.9,-134.6 -263,-190.8 -139.3,-84 -290.3,-126.6 -452.4,-125.3 -49,0.4 -99.2,9.2 -146.6,22.4 -172.2,47.7 -304.24,159.1 -432.81,275.1 1.57,4.6 3.13,9.1 4.7,13.6 59.01,-13 118.31,-24.9 176.95,-39.4 53.62,-13.3 107.06,-28 159.66,-44.9 75,-24.2 148.6,-22.3 222,5.6 122.2,46.6 245.3,91.1 366.7,139.7 76.9,30.8 151.3,67.8 227,101.7 21.6,9.7 43.7,18.3 64.5,26.9 25.9,-33.3 63.2,-128.9 73.3,-184.6 z m 1696.7,-2504 c -68.9,119.8 -139.3,238.8 -206.8,359.4 -183.6,328.2 -366.1,656.9 -549,985.4 -44,78.9 -89.3,157.1 -132,236.7 -256,477.8 -492.1,965.5 -722.9,1455.8 -37.7,80 -74.7,161 -102.3,244.7 -44.2,134 -114.6,255.2 -174.2,381.7 -1.5,3.3 -3.5,6.4 -5.4,9.6 -13.3,22.1 -31,36.7 -58.6,32.7 -23,-3.3 -39.4,-20.2 -43.9,-50.1 -3.3,-21.7 -5.1,-44.5 -2.1,-66 12.2,-87.5 26.5,-174.8 39.9,-262.1 1.9,-12.1 3.3,-24.3 5.1,-37.7 -181.4,-57.7 -337.4,-161.9 -510.2,-239.6 -160.2,100 -324.8,193 -519.37,231.6 19.41,42.4 36.85,78.5 52.61,115.3 21.01,49.1 42.11,98.2 60.46,148.3 12.08,33 2.81,58.9 -20.43,73.5 -23.15,14.6 -50.89,11.7 -75.18,-12.8 -19.28,-19.5 -36.17,-41.9 -51.04,-65 -39.89,-62 -76.77,-125.9 -117.27,-187.5 -147.94,-224.8 -297.46,-448.5 -445.33,-673.4 -531.22,-807.8 -1013.01,-1644.4 -1456.54,-2503.3 -20.29,-39.2 -40.63,-78.7 -57.41,-119.6 -31.49,-76.6 -61.43,-153.9 -89.71,-231.7 -8.66,-23.9 -12.36,-50.3 -13.77,-75.8 -2.2,-39.5 11.27,-73.8 50.33,-90.3 36.05,-15.2 69.49,-5.1 96.6,21.4 21.04,20.5 40.64,42.8 58.52,66.1 192.82,251.7 390.24,500 564.76,765.2 8.69,13.1 19.23,25.1 32.84,42.7 11.52,-23.4 20.74,-40.9 28.81,-58.8 101.34,-225.6 238.31,-428.1 400.85,-613.5 186.54,-212.7 392.21,-405 619.2,-574.5 171.75,-128.2 353.95,-239.8 539.95,-345.6 80.42,-45.7 165.02,-52.3 250.22,-17.8 52.7,21.4 105,46 153,76.4 76.1,48.3 150.5,100 222.1,154.9 193.7,148.3 368.7,317.5 536.9,493.6 308.7,323 584.8,672.3 841.3,1042.4 9.8,-11.7 19.3,-22.3 27.9,-33.6 53.3,-70.5 104.7,-142.7 160.1,-211.6 159.4,-198.2 320.4,-395.1 480.9,-592.4 12.8,-15.7 26.4,-30.8 40,-45.9 7.4,-8.2 15,-16.3 23.5,-23.4 33.8,-28.2 71,-31.9 101.6,-10.6 32.1,22.2 42.2,61.5 22.3,103.8 -16.4,34.9 -37,67.9 -56.3,101.4" style="fill:#231f20;fill-opacity:1;fill-rule:nonzero;stroke:none" id="path102"/>
      <path d="m 20050.8,17759.8 c 25.3,40.2 55.9,78.1 89.5,111.8 67.8,67.7 139,131.9 209,197.4 73.2,68.3 138.9,142.8 186.7,231.4 89,164.9 108.9,338.4 59.8,519.2 -21.2,78.3 -59.7,147.4 -124.5,197.8 -28.6,22.3 -62.5,37.7 -98.8,59.1 96.3,208.1 202.3,410.6 362.1,592.3 5.4,-23.8 10,-38.7 12.2,-53.9 47.5,-321 45.2,-642.8 18.9,-965.3 -15.4,-189.5 -43.7,-377 -81.2,-563.2 -21.9,-109 -57.7,-213.3 -110,-311.7 -41,-77.1 -92.7,-146 -157.7,-204.8 -72.3,-65.3 -157.6,-100.9 -253.6,-112.3 -71.9,-8.6 -106.7,11.8 -132.6,79.5 -29.5,77.2 -23.7,153.2 20.2,222.7 z m 1436.2,2396.3 c -28.1,-85.1 -52.6,-167.6 -82.6,-248 -29.5,-79.2 -64.1,-156.4 -97.2,-234.1 -17.3,-40.5 -38,-79.2 -73,-110.8 -31.7,15.9 -47.1,43.6 -59,71.4 -19.5,45.5 -37,92.1 -51.4,139.4 -22.4,73.7 -41.6,148.3 -61.9,221.6 96.3,110.1 299,189.2 425.1,160.5 z m -1262.4,-2880.4 c 158.1,27.3 291.7,99.6 396.9,222.4 85,99.2 148.7,210.6 196,331.7 53.1,136.3 86.7,278 110.6,421.8 50.2,301.2 61.9,604.9 56.6,909.6 -3.8,218.6 -33.7,433.4 -97.7,643 -2.6,8.5 -2.8,17.8 -4.3,28.5 8.1,7.4 15.8,14.3 27.9,25.3 6.7,-22.2 12.3,-39.1 16.9,-56.2 23.6,-87.4 51.1,-173.3 95.7,-252.7 26.4,-47.1 58.3,-89.8 101.2,-123.1 78.4,-60.7 169.3,-56.5 241,11.4 13.3,12.6 25.9,26.4 36.6,41.3 75.1,105.7 121.6,221.9 135.2,351.9 9,86.1 24.3,171.5 37.1,257.1 0.8,4.9 5.3,9.2 11.5,19.2 13.2,-15.7 26.1,-28.2 35.5,-43 35.7,-56.4 64.2,-116.4 78.7,-181.8 36.8,-165.6 42.2,-332.8 18.6,-500.3 -22.5,-159.1 -60.3,-315.1 -114.4,-466.4 -89.2,-249.9 -180.4,-499 -272.5,-747.8 -83.2,-224.6 -168.9,-448.3 -253.1,-672.5 -6.9,-18.2 -11.5,-37.2 -19.1,-62.3 30,20.8 29.9,20.8 40,36.9 64.7,103.5 113.8,214.7 160.1,327.3 143.2,347.5 277,698.9 436.9,1039.4 82.5,175.7 139,360.9 177.7,551.4 35.9,176.6 51.1,353.6 18.6,532.7 -13.7,75.2 -40.7,145.1 -77.5,211.8 -44.4,80.7 -109.5,137.5 -193.3,174.6 -109.1,48.3 -221.5,49.5 -336,26.1 -157,-32.1 -293.7,-106.6 -419.9,-202.4 -128.1,-97.2 -244.1,-207.9 -353.2,-325.8 -107,-115.7 -198.2,-242.7 -273.9,-380.7 -130.2,-237.4 -226.6,-488.1 -290.2,-750.9 -15.9,-65.9 -21.8,-134.4 -28.2,-202.1 -2.4,-24.7 3.8,-51.6 11.8,-75.6 11.8,-35.3 36.6,-59.6 76.3,-62.8 37.7,-3 63.6,16.7 81.1,47.3 15.4,27.2 29.8,55.3 41.1,84.4 45.5,116.8 89.6,234.1 134.5,351.1 6.9,18.2 15.2,35.9 24.3,57.3 44.1,-37.1 70.3,-78.7 84.3,-127.3 47.9,-166.5 28.6,-321.3 -85.1,-457.8 -28.3,-33.9 -58.7,-66.2 -89.8,-97.6 -51.9,-52.4 -107.3,-101.5 -157.3,-155.6 -47.5,-51.2 -94,-104.2 -133.7,-161.4 -58.4,-84.2 -82.4,-180.1 -75.1,-283.2 15.8,-221.8 176.3,-351.4 391.6,-314.2" style="fill:#231f20;fill-opacity:1;fill-rule:nonzero;stroke:none" id="path104"/>
      <path d="m 10924.6,12153.7 c -25.3,72.9 -51.2,146.2 -84.5,215.7 -38.3,79.9 -107.4,123.6 -195,138.6 -71.8,12.3 -143.2,7.9 -214.8,-1 -102.4,-12.7 -205,-25.3 -303,-60.3 -83.6,-29.9 -135.39,-85.6 -145.31,-176.9 -15.93,-146.5 -33.21,-292.9 -49.92,-439.4 0.09,-62.9 -5.21,-124.5 14.65,-186.7 15.82,-49.5 46.42,-76 95.18,-77.3 68,-1.8 137.7,-6.4 203.9,5.3 122.2,21.6 244.6,31.9 368.1,38.1 81.2,4 161.7,16.1 237,49.2 127.3,56.1 174.3,160.4 134.3,293.6 -20.2,67.1 -37.7,135 -60.6,201.1" style="fill:#231f20;fill-opacity:1;fill-rule:nonzero;stroke:none" id="path106"/>
      <path d="m 8404.86,18597.6 c 0,-59.9 -48.63,-108.6 -108.61,-108.6 -59.98,0 -108.61,48.7 -108.61,108.6 0,60 48.63,108.7 108.61,108.7 59.98,0 108.61,-48.7 108.61,-108.7" style="fill:#ffffff;fill-opacity:1;fill-rule:nonzero;stroke:none" id="path108"/>
      <path d="m 13021.7,19046.9 c 0,-60 -48.6,-108.6 -108.6,-108.6 -60,0 -108.6,48.6 -108.6,108.6 0,60 48.6,108.6 108.6,108.6 60,0 108.6,-48.6 108.6,-108.6" style="fill:#ffffff;fill-opacity:1;fill-rule:nonzero;stroke:none" id="path110"/>
    </g>
  </g>
</svg>