<?xml version="1.0" encoding="utf-8"?>
<svg version="1.1" id="svg2" width="615.26666" height="709.40002" viewBox="0 0.003 468.488 709.397" xmlns="http://www.w3.org/2000/svg">
  <g id="g8" transform="matrix(1.3333333,0,0,-1.3333333,0,709.4)">
    <g id="g10" transform="scale(0.1)">
      <path d="m 607.82,3389.26 c 40.66,-29.29 72.325,-69.4 111.477,-100.67 33.711,-26.92 72.476,-46.91 106.601,-73.3 34.129,-26.4 64.571,-61.58 71.559,-104.16 4.211,-25.65 0.523,-54.88 17.277,-74.76 11.934,-14.15 31.942,-20.05 42.559,-35.22 57.197,69.37 96.297,153.54 112.397,242 2.21,12.16 3.99,24.74 1.2,36.77 -4.77,20.63 -21.91,35.88 -39.1,48.23 -93.556,67.22 -211.118,89.4 -324.489,109.85 -31.496,5.69 -222.641,44.79 -232.086,1.33 48.117,-9.57 91.918,-20.77 132.605,-50.07" style="fill:#b82327;fill-opacity:1;fill-rule:nonzero;stroke:none" id="path12"/>
      <path d="m 1547.09,3204.43 c 60.41,28.7 126.34,43.39 191.63,57.85 -86.81,82.03 -193.36,143.02 -308.04,176.34 -31.52,9.16 -64.48,16.3 -96.99,11.81 -32.51,-4.48 -64.74,-22.55 -78.56,-52.31 -19.98,-43.03 3.06,-92.82 26.09,-134.29 17.19,-30.96 34.62,-61.82 53.68,-91.67 10.49,-16.42 44.85,-83.51 65.78,-85.21 17.12,-1.39 47.1,49.07 61.72,62.16 25.21,22.56 54.18,40.83 84.69,55.32" style="fill:#b82327;fill-opacity:1;fill-rule:nonzero;stroke:none" id="path14"/>
      <path d="m 1381.38,1740.59 c 33.46,-12.99 67.49,-26.12 103.26,-29.13 7.44,35.22 -5.02,72.29 -25.64,101.79 -20.61,29.51 -48.77,52.76 -76.57,75.63 -16.71,13.74 -33.43,27.49 -50.14,41.24 -12.53,10.31 -25.24,20.73 -39.99,27.5 -65.96,30.29 -209.17,-9.38 -155.69,-104.39 35.28,-62.67 182.65,-88.52 244.77,-112.64" style="fill:#b82327;fill-opacity:1;fill-rule:nonzero;stroke:none" id="path16"/>
      <path d="m 768.367,1467.07 c 13.75,-1.99 28.485,-3.27 39.403,-11.86 7.953,-6.25 12.761,-15.57 17.332,-24.6 20.613,-40.69 41.222,-81.38 61.832,-122.08 -74.286,-3.53 -148.629,-5.75 -222.996,-6.67 -21.083,-0.26 -43.563,-0.03 -61.196,11.53 -14.371,9.42 -23.312,24.97 -31.726,39.95 -21.5,38.28 -43.004,76.56 -64.508,114.84 -11.426,20.33 -22.938,40.87 -29.688,63.2 -11.925,39.46 -8.242,81.73 -4.437,122.78 3.055,33 25.754,72.89 59.762,39.56 19.996,-19.61 25.843,-73.91 42.671,-99.83 43.157,-66.48 114.637,-115.39 193.551,-126.82" style="fill:#b82327;fill-opacity:1;fill-rule:nonzero;stroke:none" id="path18"/>
      <path d="m 2913.22,3567.32 c 29.07,-125.16 103.59,-234.23 154.71,-352.11 51.13,-117.88 76.75,-260.96 9.35,-370.36 -29.08,-47.2 -73.8,-84.97 -93.74,-136.71 -12.44,-32.3 -14.18,-67.55 -20.19,-101.64 -17.43,-98.92 -71.46,-198.88 -40.2,-294.34 132.98,-0.23 255.85,85.47 327.09,197.75 71.23,112.28 97.33,247.67 104.36,380.46 1.18,22.22 2.62,46.45 17.47,63.03 14.85,16.58 48.28,16.43 54.66,-4.9 52.24,74.18 64.15,170.84 51.68,260.71 -12.47,89.86 -47.14,174.93 -81.51,258.89 -53.78,131.41 -107.56,262.83 -161.34,394.24 -24.36,59.52 -49.17,121.57 -45.36,185.78 3.47,58.39 30.13,119.39 6.55,172.92 -95.45,-89.1 -147.5,-222.71 -137.49,-352.9 8.24,-107.02 55.75,-211.15 43.54,-317.79 -0.03,-0.29 -112.29,98.47 -122.93,114.91 -23.08,35.65 -34.89,127.33 -68.88,145 -31.1,-61.07 -13.14,-176.79 2.23,-242.94" style="fill:#b82327;fill-opacity:1;fill-rule:nonzero;stroke:none" id="path20"/>
      <path d="m 122.703,4569 c 1.789,-13.25 5.324,-26.86 14.164,-36.89 8.028,-9.1 19.578,-14.27 31.121,-18.02 58.114,-18.87 125.473,-6.07 172.614,32.8 -87.137,-146.11 -52.879,-332.28 -4.02,-495.24 13.258,-44.21 27.484,-88.64 31.047,-134.66 7.996,-103.4 -42.988,-209.36 -128.777,-267.63 -13.379,-9.08 -30.024,-17.34 -45.129,-11.56 -8.758,3.35 -15.168,10.86 -20.95,18.24 -105.3707,134.49 -127.816,314.55 -139.1089,485.03 -8.4063,126.89 -12.6368,255.82 15.8398,379.76 26.125,113.7 84.2071,232.88 181.1911,302.17 -58.199,-70.04 -120.992,-157.7 -107.992,-254" style="fill:#b82327;fill-opacity:1;fill-rule:nonzero;stroke:none" id="path22"/>
      <path d="m 2554.62,4887.88 c 36.38,-5.35 77.28,5.85 98.42,35.95 35.81,-49.58 115.27,-59.66 162.33,-20.6 9.57,-29.12 -0.99,-62.03 -20.47,-85.7 -19.49,-23.66 -46.76,-39.52 -74.35,-52.87 -81.03,-39.19 -177.07,-60.64 -260.84,-27.72 -12.17,4.78 -25.19,12.14 -28.42,24.82 -2.59,10.16 1.95,20.59 5.81,30.34 10.5,26.48 6.56,89.96 24.84,108.94 24.89,25.82 61.1,-8.51 92.68,-13.16" style="fill:#b82327;fill-opacity:1;fill-rule:nonzero;stroke:none" id="path24"/>
      <path d="m 156.516,1918.62 c 3.382,-6.22 7.8,-12.62 14.57,-14.72 7.941,-2.46 16.262,1.77 23.5,5.86 96.047,54.26 192.098,108.52 288.144,162.78 -2.808,-36.87 -2.21,-73.99 1.782,-110.75 113.386,51.86 231.105,94.23 351.527,126.54 1.879,-33.82 3.754,-67.65 5.633,-101.47 -81.262,-47.58 -171.207,-96.93 -264.164,-81.88 -18.059,2.93 -36.211,8.29 -54.32,5.71 -28.075,-4.01 -49.723,-25.95 -68.911,-46.83 -51.195,-55.71 -102.625,-113.94 -169.859,-148.64 -67.234,-34.7 -155.395,-40.6 -214.4414,6.71 -58.2696,46.68 -72.12504,134.32 -46.7696,204.55 20.8594,57.78 89,152.91 153.199,165.18 -10.285,-64.56 -58.281,-102.45 -19.89,-173.04" style="fill:#b82327;fill-opacity:1;fill-rule:nonzero;stroke:none" id="path26"/>
      <path d="m 2569.26,733.738 c 149.18,84.973 307.32,154.223 470.94,206.231 -95.21,193.581 -270.29,333.521 -439.89,466.841 -9.65,7.58 -20.52,15.57 -32.77,14.79 -9,-0.58 -16.93,-5.85 -24.38,-10.95 -72.78,-49.86 -145.54,-99.75 -218.35,-149.57 -79.77,-54.59 -131.13,-73.56 -69.87,-160.46 21.3,-30.21 325.2,-360.69 314.32,-366.882" style="fill:#b82327;fill-opacity:1;fill-rule:nonzero;stroke:none" id="path28"/>
      <path d="m 503.254,3160.51 c 41.832,15.74 87.187,20.05 131.875,19.35 46.945,-0.74 95.965,-7.67 134.207,-34.91 0.555,24.86 -7.148,49.83 -21.609,70.06 -5.039,7.04 -10.922,13.57 -17.981,18.6 -10.922,7.78 -24.117,11.62 -37.16,14.71 -23.195,5.51 -46.848,9.1 -70.633,10.72 -16.484,1.12 -33.078,1.3 -49.5,-0.52 -69.644,-7.73 -133.765,-53.99 -163.058,-117.65 -5.348,-11.62 -14.942,-32.97 -10.692,-46.1 6.352,-19.61 17.442,5.83 25.723,14.6 21.695,22.99 49.347,40.05 78.828,51.14" style="fill:#5dcbf5;fill-opacity:1;fill-rule:nonzero;stroke:none" id="path30"/>
      <path d="m 1715.44,3137.95 c 72.46,-1.89 144.22,-25.39 203.77,-66.71 17.46,-12.12 34.89,-27.26 39.75,-47.95 3.3,8.56 14.15,11.43 19.72,18.73 7.44,9.77 3.32,23.8 -1.94,34.9 -10.82,22.88 -25.16,43.9 -39.73,64.59 -21.51,30.54 -44.97,61.71 -78.41,78.35 -19.28,9.58 -40.76,13.72 -62.04,17 -68.61,10.55 -141.92,12.47 -204.08,-18.42 -13.89,-6.9 -27.04,-15.37 -41.53,-20.87 -9.74,-3.69 -20.24,-6.15 -28.46,-12.54 -17.55,-13.64 -18.51,-39.33 -17.92,-61.54 0.57,-21.88 -2.95,-42.44 23.37,-30.28 20.12,9.3 39.45,19.03 60.6,25.98 40.65,13.35 84.08,20.23 126.9,18.76" style="fill:#5dcbf5;fill-opacity:1;fill-rule:nonzero;stroke:none" id="path32"/>
      <path d="m 2499.24,2327.23 c 17.99,9.24 37.15,17.73 50.43,32.98 30.78,35.32 9.6,100.73 -36.04,111.31 -13.52,3.13 -27.72,2.09 -41.29,5 -34.79,7.46 -59.65,40.23 -68.44,74.71 -8.8,34.48 -4.59,70.78 -0.32,106.1 7.18,59.53 14.37,119.06 21.56,178.59 -24.95,-37.97 -49.9,-75.95 -74.85,-113.93 -20.97,-31.93 -42.23,-64.46 -53.08,-101.09 -10.38,-35.03 -10.73,-72.13 -11.01,-108.67 -0.33,-42.97 -26.34,-361.04 4.41,-372.72 18,-6.84 71.87,82.19 87.54,98.21 35.46,36.23 86.99,55.42 121.09,89.51" style="fill:#5dcbf5;fill-opacity:1;fill-rule:nonzero;stroke:none" id="path34"/>
      <path d="m 2639.69,4027.03 c 9.39,-100.9 -32.92,-199.56 -37.32,-300.8 -6.49,-149.69 69.44,-289.51 148.14,-417 78.7,-127.5 164.76,-257.81 182.35,-406.61 -36.75,106.62 -101.96,203.28 -187.07,277.26 -54.52,47.4 -116.75,85.46 -169.92,134.36 -98.42,90.52 -162.65,219.41 -167.61,353.03 -2.23,59.86 7.02,119.47 15.1,178.82 13.87,101.96 24.37,204.38 31.47,307.03 3.14,45.44 5.47,92.13 -8.42,135.51 -13.44,41.96 -41.08,77.73 -60.22,117.43 -12.83,26.64 -34.76,85.63 -7.56,106.87 45.46,-84.22 93.53,-161.43 149.33,-240.07 52.39,-73.83 103.13,-153.45 111.73,-245.83" style="fill:#5dcbf5;fill-opacity:1;fill-rule:nonzero;stroke:none" id="path36"/>
      <path d="m 640.387,4901.6 c 59.871,19.63 126.445,24.6 185.39,2.34 58.946,-22.26 108.246,-75.04 115.649,-137.61 6.82,-57.68 -20.817,-113.13 -32.86,-169.95 -2.187,-10.33 -4.132,-21.32 -11.109,-29.24 -5.652,-6.41 -13.844,-9.88 -21.746,-13.14 -46.602,-19.27 -93.207,-38.53 -139.813,-57.8 -9.085,51.67 -21.41,102.76 -36.871,152.9 -8.019,26 -17.824,53.14 -38.851,70.42 -22.406,18.4 -53.188,22.04 -82.137,23.56 -50.199,2.64 -170.07,-23.81 -104.258,52.73 42.36,49.26 105.473,85.74 166.606,105.79" style="fill:#5dcbf5;fill-opacity:1;fill-rule:nonzero;stroke:none" id="path38"/>
      <path d="m 1365.07,5025.31 c 41.62,-6.65 83,-26.59 106.12,-61.84 17.26,-26.31 22.88,-58.42 26.61,-89.67 3.34,-28 5.49,-56.14 6.44,-84.33 0.19,-5.69 0.11,-12 -3.72,-16.2 -3.11,-3.41 -7.91,-4.56 -12.41,-5.54 -74.17,-16.31 -147.44,-36.73 -219.36,-61.11 25.37,19.85 43.83,48.36 51.57,79.63 18.57,75.06 -25.71,119.32 -47.88,184.05 -22.79,66.52 42.23,63.06 92.63,55.01" style="fill:#5dcbf5;fill-opacity:1;fill-rule:nonzero;stroke:none" id="path40"/>
      <path d="m 1779.02,4993.06 c 21.13,-33.1 22.62,-76.48 9.01,-113.32 -13.6,-36.84 -40.93,-67.47 -72.79,-90.43 -16.42,19.54 -39.69,33.2 -64.76,38.01 29.02,30.02 52.3,66.67 61.06,107.49 8.24,38.44 -16.69,79.95 -6.28,113.39 27.56,-3.54 58.55,-31.32 73.76,-55.14" style="fill:#5dcbf5;fill-opacity:1;fill-rule:nonzero;stroke:none" id="path42"/>
      <path d="m 725.363,1079.78 c 57.137,-46.16 127.75,-75.42 200.782,-83.202 67.539,-7.207 151.965,17.252 165.055,83.902 157.91,-52.05 323.34,-81.25 489.54,-86.421 10.4,-0.321 21.98,-1.051 29.13,-8.61 5.71,-6.031 7.03,-14.859 8.08,-23.09 12.14,-94.988 24.28,-189.98 36.41,-284.968 1.95,-15.27 1.66,-34.852 -12.43,-41.082 -6.86,-3.039 -14.78,-1.547 -22.1,0.121 -72.11,16.441 -141.45,45.019 -204.2,84.179 C 1351.2,760.82 1290.17,813.5 1215,824.32 c -40.62,5.848 -81.82,-1.261 -122.47,-6.902 -73.11,-10.129 -146.885,-15.5 -220.69,-16.059 C 725.637,800.238 719.164,964.48 725.363,1079.78" style="fill:#5dcbf5;fill-opacity:1;fill-rule:nonzero;stroke:none" id="path44"/>
      <path d="m 594.727,3133.93 c 22.855,0 41.382,18.53 41.382,41.39 0,22.85 -18.527,41.38 -41.382,41.38 -22.856,0 -41.383,-18.53 -41.383,-41.38 0,-22.86 18.527,-41.39 41.383,-41.39" style="fill:#111011;fill-opacity:1;fill-rule:nonzero;stroke:none" id="path46"/>
      <path d="m 380.766,2946.39 c -7.043,18.49 -17.282,19.37 -17.282,19.37 0,0 -5.613,-58.11 62.188,-77.48 67.797,-19.38 116.226,-2.65 147.043,-5.29 0,0 -29.055,22.9 -88.051,14.09 -58.992,-8.8 -96.855,30.82 -103.898,49.31" style="fill:#111011;fill-opacity:1;fill-rule:nonzero;stroke:none" id="path48"/>
      <path d="m 1725.85,3071.89 c 23.83,0 43.15,19.32 43.15,43.15 0,23.83 -19.32,43.15 -43.15,43.15 -23.83,0 -43.15,-19.32 -43.15,-43.15 0,-23.83 19.32,-43.15 43.15,-43.15" style="fill:#111011;fill-opacity:1;fill-rule:nonzero;stroke:none" id="path50"/>
      <path d="m 1809.82,2824.28 c -87.17,-7.93 -121.51,40.5 -132.08,14.97 -5.81,-14.05 38.74,-51.95 122.39,-40.5 83.65,11.44 125.03,68.67 120.63,84.52 -4.4,15.85 -23.77,-51.07 -110.94,-58.99" style="fill:#111011;fill-opacity:1;fill-rule:nonzero;stroke:none" id="path52"/>
      <path d="m 3323.39,3347.1 c -54.9,101.6 -239.9,224.9 -306.5,319.8 -66.7,95 -58.3,251.6 -43.3,431.5 2.6,31.7 4.4,60.8 5,87.9 2.7,127.6 -19.1,212.9 -85,318.6 -68.3,109.6 -300.4,163.2 -366.8,176.5 160.5,-10.1 322.9,-19.3 322.9,-19.3 39.5,-8.2 77.7,-17.8 110.5,-28.9 148.3,-50 231.6,-191.6 239.9,-313.2 7.2,-103.8 -41.5,-190.6 -59,-339.2 -3.1,-25.5 -5.2,-52.8 -5.9,-82.3 -5,-201.6 129.9,-331.5 243.2,-509.8 33.2,-52.2 50.8,-102.7 59.1,-147.8 20,-108.9 -14.1,-187.1 -14.1,-187.1 -0.9,38.5 -14.5,92.7 -35.6,150.6 -17.3,47.2 -39.7,97 -64.4,142.7 z m -818,1647.6 c -41.6,101.7 -119.9,175 -119.9,175 0,0 191.2,-6.7 245.5,-126.6 54.4,-120 -73.9,-291.9 -73.9,-291.9 l -96.7,13.6 c 0,0 86.7,128.3 45,229.9 z m -119.9,-116.6 c -61.7,153.3 -191.6,179.9 -191.6,179.9 0,0 -88.3,-64.9 -188.3,-163.2 -99.9,-98.3 -303.2,-56.7 -303.2,-56.7 0,0 50,35 50,143.3 0,108.3 -136.6,133.3 -136.6,133.3 0,0 13.3,-91.6 -8.4,-179.9 -21.3,-86.9 -220.1,-164.2 -226.4,-166.5 3,3.8 53.2,69.5 -0.1,169.8 -55,103.3 -178.3,108.3 -178.3,108.3 0,0 -3.3,-66.7 -28.3,-193.3 -25,-126.6 -123.3,-196.6 -123.3,-196.6 -153.299,-15 -298.201,-118.2 -298.201,-118.2 0,0 28.301,123.2 36.602,178.2 8.402,55 -33.301,229.9 -249.899,171.6 -216.5,-58.3 -278.199,-416.5 -278.199,-416.5 -134.902,-43.3 -201.6016,-259.9 -201.6016,-259.9 -10,218.3 41.6996,438.2 223.3006,638.1 181.598,199.9 393.098,143.3 659.699,168.3 266.599,25 621.399,173.2 621.399,173.2 0,0 226.6,105 538.1,0 311.6,-104.9 283.3,-313.2 283.3,-313.2 z M 492.891,4385 c -70,-106.6 -111.598,-244.9 -111.598,-244.9 0,0 -50,199.9 68.297,349.8 118.301,150 198.199,95 221.5,26.7 0,0 -108.199,-25 -178.199,-131.6 z M 236.293,3665.3 c 0,0 -101.602,123.2 -124.902,361.5 -23.3988,238.2 138.199,389.8 138.199,389.8 0,0 -18.297,-143.2 -13.297,-326.5 5,-183.3 86.699,-298.2 86.699,-298.2 -18.402,-113.3 -86.699,-126.6 -86.699,-126.6 z M 2750.29,4944.8 c 0,0 46.7,-10 30,-76.7 -16.6,-66.6 -166.6,-116.9 -166.6,-116.9 58.3,47.9 136.6,193.6 136.6,193.6 z m 454.8,-329.9 c 48.4,-60 86.7,-201.6 86.7,-201.6 0,0 -72.8,-272.8 -68.2,-351.7 1.2,-8.4 2.5,-13.6 2.9,-15.6 -1.6,3.6 -2.5,9 -2.9,15.6 -4.5,29.9 -9.5,101.6 14.9,223.4 33.3,166.6 -23.4,279.9 -91.7,341.6 -68.3,61.6 -326.5,123.8 -326.5,123.8 0,0 281.6,19.4 384.8,-135.5 z m -2738,-1336.6 c 115.301,45.8 233.301,9.7 278.199,-15.8 44.902,-25.5 141.801,-120.6 145.301,-156.7 0,0 -8.797,-30 -43.199,-29.1 -16.2,0.4 -32.2,4 -44.598,7.6 2.598,30.3 3.098,125.8 -87.402,169.3 -108.301,52 -214,-4.3 -238.7,-25.5 -24.601,-21.1 -58.699,-40.3 -84.8,-129.3 -2,11.9 -3.899,27.7 -3.899,45.2 0,48.1 14.199,108.6 79.098,134.3 z m 49.801,-43.4 c 17.902,7.9 38.902,14.1 63.699,17 51.301,6.1 91.203,-5.4 118.902,-22.7 0.399,-1.1 24.399,-74.5 -14.101,-119.9 -38.7,-45.8 -118,-42.3 -154.098,-5.3 -33.402,34.2 -32.801,91.8 -14.402,130.9 z m 94.601,-226 c -92.301,-12.1 -149.601,0.4 -201.402,53.2 0,0.7 3.402,60.6 19.101,90.3 8.7,16.5 24.602,41.4 53.098,62.4 -9.398,-39.3 -7.297,-135.4 95.703,-156.6 116.797,-24.1 170.399,50.8 155.699,139.8 4.598,-6.6 8,-13.1 9.797,-19.2 7.602,-24.6 16.602,-74 21.004,-100 -25.301,-21.1 -80.601,-60.4 -153,-69.9 z m -363.5,-933 c 69.399,82.3 145,138 149.699,141.4 -4.398,-5.5 -96.699,-119.8 -38.101,-123 60,-3.4 78.301,126.5 229.902,168.2 0,0 -50,-88.3 -1.703,-96.6 48.402,-8.4 70,131.6 266.602,96.6 0,0 -18.301,-36.7 0,-50 17.699,-12.8 52.5,19.3 54.902,21.5 -2.801,-6.5 -65.402,-154.9 -9.902,-161.4 49.699,-5.9 58.3,189.9 158.299,189.9 99.9,0 111.6,-35 148.2,-53.3 36.7,-18.4 59.3,-115 103.8,-108.3 44.5,6.6 -17.1,129.9 -17.1,129.9 0,0 -7.3,12.5 0.5,13.3 6.6,0.8 24.2,-6.8 66.2,-37.3 14.2,-10.3 31.2,-23.2 51.6,-39.3 151.6,-119.9 93.3,-231.6 213.2,-198.2 107.8,29.9 -72,169.9 -109.8,198.2 -4.3,3.2 -6.8,5 -6.8,5 0,0 -23.3,15 3.3,30 14,7.8 39.2,-3.9 67.5,-26.4 26,-20.5 54.6,-50 79.7,-81.8 52.7,-66.7 76,-105 111,-96.7 33.1,7.9 -25.9,86.9 -32.6,95.8 2.5,-2.9 12.9,-10.1 42.6,14.8 0,0 128.3,-110.6 166.6,-192.2 38.4,-81.7 88.3,-221.6 48.4,-249.9 -40,-28.4 -66.7,23.3 -121.7,53.3 -54.9,30 -68.3,18.3 -114.9,66.6 -46.7,48.3 -96.6,10 -183.3,38.3 -86.6,28.3 -139.9,35 -219.9,110 -80,74.9 -154.9,45 -214.9,41.6 -60,-3.3 -120,-3.3 -196.599,36.7 -76.601,40 -141.601,-15 -181.601,-41.7 -40,-26.6 -76.598,-61.6 -158.301,-54.9 -81.598,6.6 -121.598,11.6 -191.598,-75 -69.898,-86.6 -225.402,-181.6 -308.402,-131.6 -83.0976,49.9 -126.3984,211.6 26.902,324.8 0,0 -36.6988,-134.9 -1.699,-126.6 35,8.4 48.301,83.3 120,168.3 z M 1520.79,1556.1 c -31.6,-48.3 -133.3,-51.7 -194.9,-61.6 -61.7,-10 -110,-31.7 -186.6,-35 -76.6,-3.4 -80,5 -131.6,11.6 -51.698,6.7 -59.999,-25 -111.6,-25 -51.699,0 -118.297,16.7 -193.301,70 -39.098,27.8 -78.098,80 -109.398,128.2 40.199,141.9 171.101,152.5 269.3,176.7 101.7,25 358.199,-33.3 379.899,-31.7 21.6,1.7 13.3,31.7 18.3,53.3 3.8,16.7 -42.2,78.5 -64,106.5 23.5,3.8 45.7,6.8 64,6.8 45,0 106.6,-81.6 199.9,-131.6 93.3,-50 218.3,-43.3 236.6,-43.3 7.6,0 28.7,-7.8 55.4,-20.9 -99.5,-10.9 -200.3,-155.7 -232,-204 z m -838.997,331.1 c 31.797,10.3 58.398,30.3 81,42.1 41.598,21.6 113.398,96.8 161.598,65.4 30.398,-19.8 67.699,-40 104.799,-51.4 -92.397,-20.5 -230.299,-51 -276.401,-60.7 -37.598,-7.8 -59.098,-2.4 -70.996,4.6 z M 532.891,1744.4 c -20,31.6 -55,74.9 -115.5,69.2 43.199,47.2 104.402,109.9 172.101,79 20.199,-9.2 38.801,-12.4 56.098,-11.9 31.902,-51.2 103.801,-44.7 103.801,-44.7 -110.098,-25.8 -158.403,-110 -177.399,-157.8 -18.199,30 -32.101,55 -39.101,66.2 z m 44.898,-468.2 h 175 c 0,0 161.602,61.6 274.901,-90 0,0 64.9,45 246.5,135 181.6,90 279.9,87.6 279.9,87.6 0,0 64.5,-585.698 41.4,-707.402 0,0 -166.3,61.704 -382.9,214.903 0,0 -58.4,58.699 -131.6,-6.602 0,0 -121.599,-38.301 -253.197,-43.301 0,0 -66.703,5 -76.703,61.602 0,0 -261.5,-159.898 -286.5,-169.898 0,0 -46.699,15 -130,358.198 -83.297,343.2 -91.598,358.2 -91.598,358.2 0,0 -21.301,48.9 13.301,93.3 37.797,48.3 226.598,44.9 321.496,-291.6 z m 1399.501,213.3 c 184.9,34.9 464.8,191.5 483.1,261.5 10.4,39.4 67.2,158.1 114.8,254.2 13.9,-19.1 23.6,-46.7 16.9,-85.9 -16.7,-96.6 -51.7,-233.3 -128.3,-391.5 -76.7,-158.3 -120,-248.3 -120,-248.3 0,0 -294.9,-166.6 -399,-223.2 -87,-47.3 -255.9,-124.902 -309.1,-149.101 -1.8,46.602 -3.8,98.801 -4.9,155.801 -2.5,122.1 -15.6,220.3 -27.9,287.8 85.2,52.1 200.2,105.7 374.4,138.7 z m 444.1,-97.6 6.4,13.6 -4,-9.3 z m 505.5,-432.201 -468.1,-231.597 51.6,-98.301 c 0,0 -713,-281.602 -871.3,-358.199 C 1480.79,195 1250.89,101.699 1250.89,101.699 l -288.199,591.403 273.199,85 c 0,0 299.9,-276.602 403.2,-261.602 103.3,15 101.6,273.199 101.6,273.199 l 621.4,404.901 161.6,113.3 z m -3.3,1384.401 c 0,0 -191.6,-63.3 -61.7,-96.6 130,-33.3 261.6,30 463.2,338.2 192.4,294.1 199.6,560.9 182.5,739.6 -0.8,8.6 -1.7,16.9 -2.6,25.1 -11.9,105.9 -27.9,182.4 -61.2,259.3 -22.8,52.4 -53.7,105 -97,167.2 -106.7,153.3 -73.3,296.5 -55,416.5 18.3,119.9 46.6,216.6 33.3,311.5 -13.3,95 -110,209.9 -223.2,273.3 -77,43 -188.6,35.2 -252.2,25.8 0,0 52.1,39.3 52.1,96.3 0,10.9 -2,22.4 -6.5,34.5 -28.4,74.9 -146.6,76.6 -146.6,76.6 0,0 20,144.9 -145,203.3 -164.9,58.3 -318.2,-11.7 -318.2,-11.7 0,0 -239.9,159.9 -594.8,106.6 -354.8,-53.3 -656.4,-169.9 -837.999,-159.9 C 671.09,5159.7 341.293,4991.4 289.59,4949.8 237.992,4908.1 74.6914,4699.9 38.0898,4561.6 1.39063,4423.3 -0.308594,4211.7 8.08984,4058.4 16.3906,3905.2 111.691,3670.3 189.789,3615.3 c 0,0 -42.598,-26.8 -71.898,-70.4 l -0.102,-0.1 c -17.5,-26.1 -30.1992,-58.2 -26.2968,-94.1 -34.1016,-18.3 -56,-41.7 -62,-70.2 -16.1016,-76.5 24.6992,-152.1 132.6988,-194.2 -21.199,-22.8 -42.5,-55 -52.601,-98.2 -23.8009,-101.2 19.402,-146.1 55.5,-191 36.101,-44.9 82.699,-68.7 64.199,-152.3 -6.098,-27.6 -15.496,-51.5 -26.898,-77.1 -23.102,-52.1 -54.2,-111.6 -81.399,-225 -40.4022,-168.8 39.399,-334 39.598,-334.5 -15.301,-17 -28.598,-32.1 -42.598,-44 -54.3006,-46 -204.9022,-224.9 -49.9022,-349.8 86.5002,-69.9 166.8012,-50.7 228.4022,-12.1 l 40.797,-90.6 c -46.797,5.6 -90.699,-3.4 -112.598,-32.3 -53.398,-70 3.301,-238.2 64.899,-401.5 61.703,-163.3 130,-479.798 130,-479.798 l 131.601,70 9.2,3 L 1209.29,0 c 0,0 646.4,259.898 816.3,294.898 169.9,35 628.1,193.301 653.1,214.903 25,21.699 -20,201.597 -20,201.597 l 479.8,199.903 c 0,0 6.7,38.398 -18.3,73.398 -24.5,34.301 -352.4,577.301 -534.6,756.501 0,0 40.2,103 40.2,183.7 0,13.5 -1.2,26.4 -3.8,38.1 -6.6,29.6 -20.2,51 -34.7,66.4 31.5,63.1 56.4,111.5 56.4,111.5 l -124.9,53.3 c 0,0 -85,-213.3 -108.3,-426.5 0,0 -40,-106.6 -268.3,-186.6 -228.2,-80 -406.5,-115 -451.5,-135 -31.5,-14 -72.8,-43.5 -94.7,-60 -9.4,44.4 -16.9,68.4 -16.9,68.4 -93.3,-1.7 -189.9,-23.4 -281.5,-60 -91.7,-36.7 -258.3,-151.6 -258.3,-151.6 -5,15 -116.599,103.3 -191.599,83.3 -74.898,-20 -246.5,-16.7 -246.5,-16.7 -4.3,29.8 -27.5,83.4 -58.398,137.7 l -21.602,235.5 c 51.7,-148.3 191.598,-241.6 311.5,-268.2 120,-26.7 128.899,50.9 185.399,31.6 56.5,-19.3 194.5,-23.3 221.2,0 26.6,23.4 161.6,36.7 259.9,63.3 98.2,26.7 129.9,121.7 243.2,156.7 63.1,19.5 96.2,27.6 113.2,30.9 7.5,-5.7 14.8,-11.6 21.7,-17.6 65,-56.7 106.7,-50 106.7,-50 0,0 48.3,36.7 54.9,63.3 3.6,14.3 -1.1,52.2 -16.1,103.5 l 0.1,-0.1 c 0,0 96,11.6 244.3,191.5 142.3,172.6 51.4,300.7 37.9,458 -0.6,6.6 -1,13.3 -1.3,20.1 -6.6,166.6 56.7,283.3 128.3,368.2 l 18.3,103.3 c 0,0 -65.1,-166.4 -128.2,-236.6 -56,-62.2 -72.9,-177.5 -74.9,-250.5 -0.3,-9.5 -0.3,-18.2 -0.1,-26 1.7,-68.3 21.6,-214.9 -26.8,-379.9 -42.2,-143.7 -171.6,-211.7 -204.2,-226.8 -13.1,40 -31.8,86.3 -57.2,135.2 -49.7,95.7 -177.6,199.1 -287.8,259.5 -33.8,18.6 -66,33.1 -93.7,42.1 -118.3,38.3 -256.6,38.3 -381.6,58.3 -1.4,0.2 -2.7,0.4 -4,0.7 -121.7,20.4 -157.4,69.4 -149.2,42.6 18.3,-60 -10,-56.7 -44.999,-76.7 -35,-19.9 -198.3,18.4 -266.601,26.7 -68.301,8.3 -131.598,25 -323.199,-37.7 -67.801,-22.2 -117.102,-48.5 -155,-75.2 -69.5,123.2 -83.2,304.1 -30.602,407.4 2.703,5.4 5.301,10.7 7.703,16 45.301,97.7 46.899,185.7 46.899,185.7 0,0 0.902,28.2 -15,76.8 -15.801,48.6 -63.399,217.3 0,278.9 l -1.301,2.2 c 52.402,-8.6 85.601,-4.6 103.101,-0.4 -1.5,-40.2 7.399,-72.2 7.399,-72.2 26.402,-66.1 72.203,-105.7 208.703,-108.3 136.398,-2.7 218.297,82.7 218.297,82.7 0,0 72.203,-20.2 92.5,-21.1 20.203,-0.9 29,46.7 29,46.7 0,0 0.898,48.4 -29,79.2 -30,30.8 -103,120.6 -209.602,147.9 -90.898,23.3 -215.699,19.4 -278.199,-48.4 -13.098,-14.1 -21.996,-30.2 -28,-46.7 -62.199,33.9 -114.496,103.7 -111.098,136.5 3.5,34.4 58.102,53.7 240.602,60.8 182.598,7 442.598,-68.7 508.697,-93.4 66,-24.6 50.2,-64.2 35.2,-102.1 -15,-37.9 -80.999,-183.1 -151.499,-320.5 C 826.289,2763.2 697.789,2589.8 706.59,2507 c 2.301,-21.3 6,-41.7 12.703,-61 19.195,-55.7 62.297,-102.4 161.598,-137.1 133.799,-46.7 157.599,13.2 144.399,45.8 -13.2,32.6 19.4,18.5 19.4,18.5 0,0 48.2,-23.7 108,-32.6 24.3,-3.5 50.4,-4.7 76,-0.9 88.9,13.2 88,80.1 74,154.1 -14.1,74 -107.5,118.9 -124.2,74.9 -16.7,-44.1 20.3,-48.5 53.7,-69.6 33.5,-21.1 68.7,-74 17.6,-116.2 -39.7,-32.9 -110.5,-18.3 -154.4,-4.5 -12.5,4 -22.8,7.9 -29.6,10.6 -30.8,12.4 -93.298,34.4 -76.599,-7 16.699,-41.4 40.499,-71.3 -56.398,-62.5 -96.801,8.8 -136.402,49.3 -171.602,109.2 -4.101,6.9 -7.402,13.5 -10,19.9 -20.703,48.8 -3.3,82.6 10,112.1 14.899,33.5 72.2,149.7 101.2,206.9 29.101,57.3 166.399,333.8 201.599,407.7 35.3,74 38.8,123.3 11.5,147.9 -27.3,24.7 -207.799,119.8 -288.799,136.5 -81,16.7 -191.101,35.2 -388.3,39.6 -100.399,2.3 -189.5,-6.9 -255.2,-27.5 v 0.1 c 0,0 8.2,76.7 113.102,138.4 18.398,10.8 34,23.3 47.199,37 62.5,64.7 73.598,157.5 84.5,234.5 13.301,93.3 46.598,319.9 213.199,454.9 166.602,134.9 533.099,256.5 806.299,323.2 273.2,66.6 614.8,103.3 614.8,103.3 0,0 104.9,-51.7 239.9,-63.3 19.7,-1.8 44.8,-3.7 73.3,-5.7 2.4,-16.8 7.5,-38.3 16.6,-66 46.7,-141.6 401.6,-151.6 401.6,-151.6 138.9,-78.3 142.8,-167 148.9,-260.5 0.8,-11.9 1.6,-23.9 2.7,-36 10,-106.7 -28.4,-309.9 11.6,-461.5 40,-151.6 233.3,-266.6 298.2,-403.2 22,-46.3 41,-105.3 54.4,-174.3 26,-134.5 30.8,-306.5 -4.4,-493.8 -53.3,-283.2 -268.2,-319.8 -341.5,-303.2" style="fill:#111011;fill-opacity:1;fill-rule:nonzero;stroke:none" id="path54"/>
      <path d="m 1889.49,2984.4 c 0,0 1.7,152.6 -21.1,201.2 75.6,-35.7 104.3,-134.8 104.3,-134.8 -18,-34.4 -83.2,-66.4 -83.2,-66.4 z m -32.1,-18 c 0,0 -72,-21.8 -154,-12.9 -81.9,8.9 -134.2,57.3 -134.2,57.3 0,0 -20.9,88.1 38.1,143.4 -13.4,-44.8 7.8,-154.3 109.7,-155.3 101.9,-0.9 134.6,66.1 126.2,152 46.5,-67.7 14.2,-184.5 14.2,-184.5 z m -303.3,59.7 c 0,0 -16.4,4.9 -33.2,28.7 0,0 -20.8,59.9 -5,98.3 0,0 20.8,38 82.3,44.7 0,0 -41.7,-44.7 -44.1,-94.4 -2.5,-49.6 0,-77.3 0,-77.3 z m 106.6,159.2 c 18.2,6.2 39.8,10.5 65.4,12.1 21.6,1.3 39.9,-0.6 55.7,-4.7 16.6,-15.1 36.7,-36.8 36.1,-52.6 -0.9,-26.6 -7,-113.5 -93.8,-124.4 -86.8,-10.8 -127.7,121 -63.4,169.6 z m -176.4,-100.5 c -7.9,-12.8 -12.9,-13.8 -22.7,-6.9 -9.9,6.9 22.7,55.3 22.7,55.3 0,0 7.9,-35.5 0,-48.4 z m 299.1,175.7 c -183.6,31.6 -384,-110.5 -390.9,-205.3 -1.8,-23.8 76,-4.9 103.6,0 0,0 76,-111.5 204.4,-123.4 128.3,-11.8 214.2,18.8 299.1,123.4 0,0 -32.6,173.8 -216.2,205.3" style="fill:#111011;fill-opacity:1;fill-rule:nonzero;stroke:none" id="path56"/>
      <path d="m 1311.53,3257 c 0,0 -200.7,66.9 -230.07,239.86 -29.37,172.96 349.18,78.32 460.14,44.06 110.96,-34.27 815.85,-303.5 850.12,-327.97 34.27,-24.48 99.53,-79.96 91.38,-143.6 -8.16,-63.63 -22.85,-169.69 -47.32,-305.13 -24.48,-135.43 -31.01,-247.28 31,-250.91 62,-3.63 145.22,2.9 137.06,-67.27 -8.16,-70.16 -48.95,-210.49 45.69,-210.49 94.64,0 209.38,164.02 242.93,311.65 33.56,147.62 -2.23,295.25 -111.83,489.84 -109.6,194.6 -250.52,263.94 -348.93,389.19 -98.42,125.26 -93.94,299.73 -64.87,442.88 29.08,143.15 85,297.48 55.92,411.56 -29.08,114.07 -161.04,237.09 -111.84,407.08 l 51.45,62.63 24.6,-69.34 c 0,0 -29.07,-80.52 64.87,-290.77 93.94,-210.26 87.23,-333.28 22.37,-601.68 -64.87,-268.41 78.28,-407.09 190.12,-514.45 111.83,-107.37 335.51,-295.25 357.88,-530.11 22.36,-234.86 -89.47,-539.05 -306.44,-630.76 -216.96,-91.7 -295.25,172.23 -199.07,281.83 0,0 53.69,67.17 -29.07,78.32 -82.76,11.15 -147.63,55.89 -118.55,190.09 29.08,134.2 116.31,382.48 51.44,467.48 -64.86,84.99 -525.63,178.93 -621.81,205.78 -96.18,26.84 -345.48,111.1 -447.34,46.97 -60.4,-38.03 -39.83,-126.74 -39.83,-126.74" style="fill:#111011;fill-opacity:1;fill-rule:nonzero;stroke:none" id="path58"/>
      <path d="m 1720.41,3123.57 c 0,-7.65 -6.2,-13.84 -13.84,-13.84 -7.65,0 -13.85,6.19 -13.85,13.84 0,7.65 6.2,13.85 13.85,13.85 7.64,0 13.84,-6.2 13.84,-13.85" style="fill:#111011;fill-opacity:1;fill-rule:nonzero;stroke:none" id="path60"/>
      <path d="m 600.445,3188.47 c 0,-7.26 -5.89,-13.15 -13.152,-13.15 -7.266,0 -13.156,5.89 -13.156,13.15 0,7.27 5.89,13.16 13.156,13.16 7.262,0 13.152,-5.89 13.152,-13.16" style="fill:#111011;fill-opacity:1;fill-rule:nonzero;stroke:none" id="path62"/>
      <path d="m 1756.87,3123.54 c 0,-9.3 -7.54,-16.85 -16.85,-16.85 -9.3,0 -16.84,7.55 -16.84,16.85 0,9.31 7.54,16.85 16.84,16.85 9.31,0 16.85,-7.54 16.85,-16.85" style="fill:#ffffff;fill-opacity:1;fill-rule:nonzero;stroke:none" id="path64"/>
      <path d="m 622.629,3180.96 c 0,-9.31 -7.543,-16.85 -16.848,-16.85 -9.304,0 -16.847,7.54 -16.847,16.85 0,9.3 7.543,16.85 16.847,16.85 9.305,0 16.848,-7.55 16.848,-16.85" style="fill:#ffffff;fill-opacity:1;fill-rule:nonzero;stroke:none" id="path66"/>
    </g>
  </g>
</svg>