<?xml version="1.0" encoding="utf-8"?>
<svg version="1.1" id="svg2" width="544.20001" height="725.54669" viewBox="111.424 -0.006 432.775 620.71" xmlns="http://www.w3.org/2000/svg">
  <g id="g8" transform="matrix(1.3333333,0,0,-1.3333333,0,725.54667)">
    <g id="g10" transform="scale(0.1)">
      <path d="m 2492.66,3376.66 -0.33,0.87 c -0.4,1.1 -1.13,2.11 -1.82,3.09 -0.26,0.37 -0.52,0.73 -0.76,1.09 -0.96,1.47 -2.36,2.66 -3.71,3.81 l -1.03,0.89 c -2.23,1.98 -5.08,3.3 -7.83,4.59 l -1.28,0.6 c -0.75,0.36 -1.52,0.67 -2.29,0.99 l -1.02,0.42 c -1.93,0.82 -3.96,1.5 -5.92,2.17 l -1.19,0.4 c -3.35,1.13 -6.69,2.33 -10.02,3.53 -6.01,2.17 -12.22,4.41 -18.44,6.19 -10.31,2.97 -20.73,5.2 -33.21,7.64 -5.28,1.04 -10.63,1.68 -15.66,2.25 -4.18,0.47 -8.41,0.51 -12.39,0.51 h -1.58 l -1.59,-0.01 c -3.86,0 -7.72,-0.14 -11.59,-0.27 l -3.66,-0.12 c -6.87,-0.21 -12.88,-0.5 -18.36,-0.9 -4.63,-0.33 -9.54,-0.89 -15.02,-1.71 -4.44,-0.65 -8.91,-1.68 -13.23,-2.68 l -2.54,-0.58 c -4,-0.91 -8.02,-1.76 -12.04,-2.61 -5.81,-1.22 -11.82,-2.49 -17.68,-3.94 -9.21,-2.26 -18.68,-5.6 -29.81,-10.51 l -4.26,-1.86 c -7.9,-3.45 -16.06,-7.02 -23.86,-11.04 -10.35,-5.34 -20.15,-11.07 -29.12,-17.03 -6.78,-4.52 -13.17,-9.36 -19,-14.4 -1.88,-1.64 -3.74,-3.29 -5.59,-4.95 l -3.06,-2.72 c -1.17,-1.04 -2.32,-2.07 -3.46,-3.13 -1.64,-1.48 -3.18,-3.18 -4.59,-5.04 -0.36,-0.56 -0.68,-1.12 -0.97,-1.72 -0.7,-1.35 -1.45,-2.83 -2.11,-4.47 -1.18,-2.87 -1.84,-6.09 -2.47,-9.39 l -0.12,-0.64 c -0.36,-1.85 -0.71,-3.69 -0.96,-5.55 -0.55,-3.98 -0.93,-7.99 -1.13,-11.91 -0.18,-3.6 -0.35,-7.77 -0.15,-11.88 0.13,-2.64 0.31,-5.28 0.49,-7.92 l 0.3,-4.49 c 0.09,-2.32 0.17,-4.64 0.23,-6.96 0.03,-1.09 0.03,-2.19 0.03,-3.28 -0.01,-2.56 -0.01,-5.2 0.34,-7.79 0.58,-4.26 4.35,-7.69 8.97,-8.16 1.77,-1.23 3.97,-1.91 6.18,-1.91 2.5,0 4.88,0.86 6.69,2.43 8.26,7.16 17.15,14.84 26.2,22.49 7.11,6.03 15.06,11.9 25,18.48 4.19,2.59 9.18,5.63 14.45,8.45 5.27,2.85 10.76,5.42 16.08,7.91 l 2.05,0.96 4.98,2.35 c 4.11,1.95 8.36,3.96 12.59,5.81 3.08,1.35 6.38,2.77 9.71,4.05 2.51,0.97 5.02,1.79 6.92,2.39 6.09,1.57 12.33,3.04 18.54,4.35 5.38,1.14 11.49,2.43 17.55,3.28 7.24,1.01 13.7,1.73 19.74,2.21 3.77,0.29 7.54,0.52 11.3,0.73 l 0.46,-0.01 c 0.53,0 1.07,0.04 1.6,0.14 l 0.52,0.05 v -0.03 c 0.23,-0.02 0.46,-0.03 0.69,-0.03 0.58,0 1.15,0.06 1.71,0.16 l 0.98,0.05 c 7.02,0.34 14.28,0.68 21.41,0.68 3.34,0 6.4,-0.07 9.35,-0.22 l 1.47,-0.07 c 5.07,-0.26 10.32,-0.51 15.45,-1.1 4.48,-0.5 9.15,-1.23 14.69,-2.31 8.65,-2.08 18.8,-4.82 28.47,-9.3 3.62,-1.93 7.23,-4.06 10.72,-6.34 2.03,-1.32 3.75,-2.37 5.8,-3 1.09,-0.33 2.25,-0.5 3.43,-0.5 3.1,0 6.1,1.16 8.2,3.19 3.86,3.74 5.11,8.96 6.33,14.01 l 0.25,1.04 c 0.73,2.97 1.37,5.97 2,8.97 0.41,1.92 0.81,3.84 1.24,5.75 l 0.25,1.07 c 1.16,5.2 2.37,10.57 2.98,15.95 0.28,2.32 0.37,4.54 0.27,6.76 -0.06,1.61 -0.16,3.19 -0.33,4.77 -0.19,1.71 -0.82,3.36 -1.43,4.96" style="fill:#b82327;fill-opacity:1;fill-rule:nonzero;stroke:none" id="path12"/>
      <path d="m 3371.24,3327.68 c 2.44,-4.66 6.33,-6.43 10.5,-5.83 2.67,-5.55 11.17,-7.76 15.92,-3.38 75.42,69.68 176.72,77.14 249.28,39.99 20.21,-11.79 17.36,-12.19 29.76,-23.97 6.97,-6.65 15.07,-4.93 19.06,0.63 2.26,3.12 14.22,29 17.84,40.5 7.58,24.5 10.54,26.36 -6.68,41.38 -10,8.72 -36.79,37.67 -92.4,52.9 -75.64,20.87 -173.78,-0.11 -237.31,-63.83 -13.66,-13.78 -6.16,-43.82 -7.36,-61.8 -0.41,-5.61 -1.62,-11.83 1.39,-16.59" style="fill:#b82327;fill-opacity:1;fill-rule:nonzero;stroke:none" id="path14"/>
      <path d="m 3202.42,1969.27 c -0.11,0.08 -0.2,0.18 -0.31,0.25 0.17,0.02 0.35,0.06 0.52,0.07 -0.07,-0.1 -0.14,-0.21 -0.21,-0.32 z m -63.63,-40.57 c 0.06,0.04 0.31,0.15 0.38,0.18 1.57,0.77 1.71,0.81 -0.38,-0.18 z m 42.27,-32.61 c 0.01,-0.01 0.02,-0.03 0.03,-0.04 -0.01,0.01 -0.02,0.01 -0.04,0.02 0,0.01 0.01,0.01 0.01,0.02 z m 169.57,43.61 c -31.85,-9.1 -51.22,-16.61 -75.25,-25.6 -22.98,-8.57 -61.87,-21.8 -78.88,-5.26 -2.82,4.37 -1.4,11.27 0.06,16.17 9.03,20.91 38.86,42.24 25.98,57.58 -6.17,8.49 -16.83,8.13 -27.11,6.2 -5.16,-0.99 -32.97,-11.2 -45.18,-14.86 0,0 -62.95,-18.96 -62.96,-18.96 -14.91,-4.48 -53.7,-19.45 -122.13,-30.41 -27.18,-4.36 -74.72,-5.84 -83.91,-10.21 -16.61,2.58 -17.12,-18.95 -5.06,-20.71 10,-1.43 68.13,-10.57 103.92,-8.76 37.4,1.85 96.04,10.6 90.15,9.81 24.8,3.32 75.35,12.76 79.87,13.15 -28.46,-41.91 -16.1,-72.17 49.53,-64.73 44.5,5.02 108.69,28.18 159.48,42 100.85,27.35 148.88,21.84 159.94,45.28 3.24,6.92 2.1,15.42 -1.89,21.76 -17.11,27.24 -136.27,-3.78 -166.56,-12.45" style="fill:#b82327;fill-opacity:1;fill-rule:nonzero;stroke:none" id="path16"/>
      <path d="m 3320.25,1662.1 c -136.38,47.3 -494.47,-45.89 -602.74,-188.2 -1.92,-2.55 -7.27,-9.53 -7.93,-12.65 -2.42,-11.33 14.15,-18.48 19.84,-7.67 l 0.25,0.53 c 10.98,2.89 93.76,83.08 355.21,123.24 36.67,5.57 108.18,4.96 144.08,2.93 40.4,-3.49 63.1,-8.31 73.1,-9.51 24,-3.09 53.45,45.45 49.22,66.86 -2.62,12.51 -19.3,20.36 -31.03,24.47" style="fill:#b82327;fill-opacity:1;fill-rule:nonzero;stroke:none" id="path18"/>
      <path d="m 2113.09,1451.64 c -66.91,103.56 -87.1,103.08 -239.49,512.5 -117.78,316.83 -96.02,363.98 -128.89,363.98 -27.12,0 -84.19,-71.34 -94.2,-81.17 -1.83,-0.93 -3.36,-2.5 -4.28,-4.4 -15.28,-10.23 13.04,-162.77 43.59,-234.36 13.66,-32.11 29.79,-64.23 42.38,-87.69 117.88,-219.69 136.39,-239.79 202.93,-317.27 34.8,-40.55 27.85,-32.93 43.65,-50.55 37.51,-42 76.47,-82.85 119.51,-120.68 12.37,-10.8 23.29,-2.54 20.92,7.36 -0.46,3.89 -3.93,8.91 -6.12,12.28" style="fill:#b82327;fill-opacity:1;fill-rule:nonzero;stroke:none" id="path20"/>
      <path d="m 1320.93,2876.36 c -32.34,0 -12.95,-91.38 -6.63,-157.16 0.1,-1.08 1.34,-16.77 1.69,-17.76 0.21,-6.62 6.32,-12.14 15.22,-9.1 64.74,22.11 93.94,-6.55 142.21,-48.27 21.57,-18.76 43.31,4.12 -6.25,67.47 -2.66,3.38 -109.09,125.13 -111.42,127.91 -17.3,20.69 -22.54,36.91 -34.82,36.91" style="fill:#b82327;fill-opacity:1;fill-rule:nonzero;stroke:none" id="path22"/>
      <path d="m 1580.88,2714.87 c -19.05,-12.24 -30.18,-11.92 -20.09,-73.38 1.14,-7.01 0.7,-14 6.99,-16.95 2.47,-1.16 5.38,-1.32 8.06,-0.22 3.25,-1.5 7.29,-1.39 10.22,0.94 51.99,41.13 64.08,26.2 74.09,26.2 5.41,0 10.41,3.76 11.63,9.27 1.18,5.22 -0.85,13.54 -2.11,18.92 -0.85,3.65 -17.6,61.11 -19.72,64.11 -8.07,11.54 -17.54,4.2 -69.07,-28.89" style="fill:#b82327;fill-opacity:1;fill-rule:nonzero;stroke:none" id="path24"/>
      <path d="m 1937.16,818.719 c -45.66,6.742 -106.55,11.84 -299.57,93.609 -56.51,23.902 -93.84,41.203 -142.52,77.844 -114.5,85.988 -64.47,36.318 -152.37,118.458 l 0.03,0.02 c -1.37,1.62 -4.34,4.76 -5.86,6.47 0.01,0.01 0,0 0,0 -180.01,203.97 -153.12,238.76 -236.93,507.93 -12.09,38.94 -33.2,165.71 -77.6,228.67 -21.46,30.5 -45.938,14.48 -57.039,-22.79 -16.926,-57.01 -7.836,-88.18 -24.492,-199.31 -8.895,-59.23 -3.157,-37.63 -9.563,-75.23 -1.008,-6.1 3.402,-11.69 9.453,-11.84 -2.511,-16.29 -6.164,-29.23 5.875,-31.47 18.371,-3.4 8.656,18.63 25.071,76.43 1.32,3.98 2.976,8.65 5.226,13.18 5.188,-4.72 10.289,-14.15 13.633,-20.32 -0.031,0.07 -0.063,0.15 -0.094,0.22 64.08,-127.58 78.33,-200.46 187.03,-364.68 34.15,-51.62 32.22,-47.72 40.59,-59.03 11.47,-15.53 87.28,-104.66 138.82,-152.33 201.56,-185.062 354.54,-208.39 588.22,-208.39 7.39,0 12.88,9.43 7.97,16.59 -4.73,5.23 -8.73,4.91 -15.88,5.969" style="fill:#b82327;fill-opacity:1;fill-rule:nonzero;stroke:none" id="path26"/>
      <path d="m 1216.64,3201.26 c -30.56,42.78 -42.52,67.88 -57.23,105.3 -1.13,2.89 -4.89,5.18 -7.87,5.52 0,0 4.27,-3.57 -58.41,40.78 -16.47,11.7 -26.44,0.88 -23.9,-9.12 4.6,-18 44.54,-113.78 81.23,-188.24 31.69,-64.35 102.39,-157.04 150.54,-209.77 21.97,-24.15 29.21,-30.55 39.21,-28.47 15.21,3.11 4.29,24.67 14.93,113.8 8.65,72.52 -18.41,6.36 -138.5,170.2" style="fill:#b82327;fill-opacity:1;fill-rule:nonzero;stroke:none" id="path28"/>
      <path d="m 1011.19,3442.94 c 16.95,1.51 13.35,30 15.07,71.26 0.7,17.21 0.95,24.73 0.49,49.24 17.19,9.7 -10.32,18.45 -51.098,163.24 -37.863,134.78 -7.961,217.44 -41.047,217.44 -23.82,0 -36.421,-39.1 -41.914,-61.26 -10.328,-41.45 -31.097,-105.79 6.786,-227.57 1.101,-3.54 11.886,-38.23 13.359,-41.64 18.332,-52.13 70.609,-176.3 98.354,-170.71" style="fill:#b82327;fill-opacity:1;fill-rule:nonzero;stroke:none" id="path30"/>
      <path d="m 1086.69,3636.69 c 1.35,1.55 2.7,3.05 3.49,3.89 8.04,0.14 17.39,2.65 25.2,4.57 70.61,17.21 118.59,-17.85 135.42,-65.59 5.02,-15.59 -0.79,-36.05 12.41,-39.98 h 0.01 c 4.75,-3.06 11.5,-2.6 16.04,3.52 15.98,10.58 51.35,53.43 3.73,120.81 -71.84,101.47 -209.59,12.7 -210.07,-11.56 -14.83,-16.74 6.41,-26.9 13.77,-15.66" style="fill:#b82327;fill-opacity:1;fill-rule:nonzero;stroke:none" id="path32"/>
      <path d="m 1480.23,3165.63 -0.58,0.07 c 1.04,-0.13 1.61,-0.2 0.58,-0.07 z m -51.78,-48.44 c 44.33,34.22 83.14,0.82 118.86,-42 33.84,-43.94 38.26,-89.28 26.06,-142.7 -14.22,-61.72 75.98,7.09 53.57,103.5 -10.6,45.54 -53.16,154.48 -129.02,146.35 -91.01,-9.49 -66.37,-32.31 -52.37,-33.32 -10,-2.53 -19.94,-5 -60.94,-43.01 -4.12,-3.8 -3.48,-10.88 0.39,-14.53 9.73,-9.24 15.95,3.28 43.45,25.71" style="fill:#b82327;fill-opacity:1;fill-rule:nonzero;stroke:none" id="path34"/>
      <path d="m 3813.07,3921.48 c -2.85,17.43 -2.12,19.43 -3.72,46.34 -1.22,20.75 -5.17,41.3 -7.82,62.06 -8.84,69.85 -0.7,107.99 -44.65,248.72 -75.94,242.36 -183.42,413.46 -437.27,432.3 l 0.9,-0.12 c -53.85,4.72 -94.79,0.07 -135.53,2.4 -16.95,0.93 -14.25,0.27 -30.7,0.66 -22.72,0.53 -25.05,3.15 -47.04,-4.24 -136.55,-45.85 -120.04,-183.01 -276.93,-112.77 -6,4.02 -10.26,8.43 -16.65,6.39 -8.18,-2.61 -10.79,-13.36 -0.7,-20.14 3.79,-5.13 75.48,-48.47 108.92,-60.52 l -0.33,0.18 0.82,-0.36 -0.45,0.23 c 124.17,-44.75 240.87,122.02 338.21,122.02 20.48,0 60.67,-4.66 98.45,-18.12 v 0 l 0.07,-0.03 -0.01,0.01 c 0.09,-0.03 0.99,-0.35 1.08,-0.38 l -0.25,0.14 c 53.13,-19.4 97.23,-47.11 128.51,-67.77 l -0.94,0.72 c 206.73,-144.97 252.44,-419.35 295.33,-646.51 0.25,-1.27 0.49,-2.55 0.67,-3.83 -7.32,-8.02 2.37,-20.69 13.69,-13.19 5.6,-8.52 18.95,-4.8 18.1,13.04 -0.16,2.98 -1.34,10.22 -1.76,12.77" style="fill:#b82327;fill-opacity:1;fill-rule:nonzero;stroke:none" id="path36"/>
      <path d="m 3723.44,3006.5 c -0.76,0 -1.53,-0.09 -2.3,-0.27 -5.35,-1.28 -8.94,-6.9 -7.58,-12.29 0.19,-0.78 0.37,-1.54 0.53,-2.31 0.01,-0.82 -0.03,-1.63 -0.09,-2.45 -0.36,-0.04 -0.71,-0.12 -1.07,-0.21 -1.23,-0.31 -2.42,-0.73 -3.57,-1.26 -1.14,-0.71 -2.22,-1.49 -3.29,-2.29 -55.18,-39.23 -56.71,-35.44 -81.84,-41.76 -7.24,2.22 -25.44,0.88 -33.01,0.54 -43.37,7.71 -65.69,20.39 -81.14,33.79 0.52,33.81 -2.83,22.62 -4.96,41.57 -3.57,32.52 5.85,66.07 -0.56,78 -4.75,8.97 -17.02,12.25 -27.85,16 -10,3.46 -72.21,28.01 -101.86,50.04 -8.57,6.41 -20.48,-2.91 -15.61,-12.98 -1.27,-4.73 5.22,-24.81 6.5,-29.57 23.07,-85.85 25.23,-67.84 59.74,-149.27 2.94,-6.91 5.69,-14.03 8.35,-20.92 1.12,-2.91 2.24,-5.8 3.37,-8.7 15.68,-39.97 68.84,-141.64 119.48,-420.52 3.38,-18.6 11.32,-47.03 4.24,-77.12 -0.61,-2.54 0.52,-6.47 3.44,-9.03 2.81,-10.99 19.46,-8.47 19.71,1.57 1.16,44.63 -0.89,6.53 1.88,39.25 14.31,169.27 -57.71,314.8 -72.48,444.65 84.18,-40.85 198.4,10.14 217.89,55.81 1.43,3.37 2.29,6.79 2.81,10.43 0.54,3.9 0.22,7.63 -0.74,11.44 -1.16,4.63 -5.36,7.86 -9.99,7.86" style="fill:#b82327;fill-opacity:1;fill-rule:nonzero;stroke:none" id="path38"/>
      <path d="m 3759.31,3368.83 c -15.9,19.3 -23.58,33.18 -34.24,33.18 -19.26,0 -18.26,-31.98 -37.11,-66.22 -2.88,-0.73 -5.5,-2.8 -6.87,-5.77 19.38,-16.97 63.38,-77.17 69.61,-87.17 12.12,-0.88 28.29,20.92 35.64,30.65 16.63,22.17 27.95,28.61 -27.03,95.33" style="fill:#5dcbf5;fill-opacity:1;fill-rule:nonzero;stroke:none" id="path40"/>
      <path d="m 3358.7,3333.93 c 0.09,-0.16 0.17,-0.31 0.26,-0.47 -0.21,-0.17 -0.4,-0.35 -0.6,-0.55 0.32,0.99 0.23,0.69 0.34,1.02 z m -18.93,-103.29 c 7.37,17.35 16.73,40.98 51.79,83.92 -0.84,2.24 -2.4,4.14 -4.57,5.41 0.06,7.28 -15.48,36.75 -22.73,42.82 -6.72,5.64 -16.59,4.55 -20.52,-7.18 -18.8,-56.29 -9.33,-32.57 -16.02,-81.29 -1.19,-8.66 -3.64,-26.71 -3.4,-35.42 2.39,-9.36 9.76,-11.18 15.45,-8.26" style="fill:#5dcbf5;fill-opacity:1;fill-rule:nonzero;stroke:none" id="path42"/>
      <path d="m 2099.84,3182.69 c 1.74,1.19 7.85,8.24 9.24,9.83 40.8,46.28 69.11,53.11 57.81,67.31 -1.11,1.4 -2.61,2.47 -4.27,3.15 1.14,5.28 -5.98,18.9 -8.33,24.6 -13.52,33.35 -27.22,16.48 -46.36,-14.17 10.49,17.6 14.84,25.72 20.56,35.72 15.93,-5.34 80.95,67.92 130.37,89.75 18.41,1.13 114.79,6.93 135.03,17.5 61.35,-16.86 41.44,-4.94 106.91,-38.83 -0.67,-0.45 -1.42,-0.81 -1.96,-1.4 -8.51,-1.73 -6.6,-5.67 -20.06,-42.27 -1.07,-2.92 -8.14,-20.61 -8.48,-23.19 23.69,-11.48 87.91,-65.02 135.5,-130.41 8.84,2.95 52.65,37.42 57.07,41.39 27.76,25.12 -54.25,88.99 -89.22,116.49 8.39,-0.14 11.98,4.92 11.34,10.08 -0.89,7.41 -2.62,7.6 -14.11,17.1 -40.22,32.97 -97.59,68.6 -148.16,82.83 0.24,10 -11.33,12.94 -49.15,15.63 -10.21,6.53 -136.75,-3.8 -146.02,-21.65 -1.88,-1.01 -2.77,-1.45 -4.29,-2.67 -17.62,0.53 -92.27,-79.15 -101.67,-91.56 -2.53,-3.29 -2.93,-7.72 -0.62,-11.22 -1.85,-2.9 -21.99,-33.23 -21.95,-36.67 -4.11,-7.04 -8.25,-14.06 -12.48,-21.03 -2.52,-4.2 -0.62,-11.5 5.24,-14.21 4.38,-2.01 7.13,-0.82 10.6,0.95 0.7,0.49 1.29,1.07 1.84,1.69 -41.92,-70.9 -24.05,-98.39 -4.38,-84.74" style="fill:#5dcbf5;fill-opacity:1;fill-rule:nonzero;stroke:none" id="path44"/>
      <path d="m 1734.42,2802.81 0.42,0.3 c -0.68,-1.21 -1.03,-1.67 -1.93,-3.01 0.5,0.9 1.01,1.8 1.51,2.71 z m -301.92,763.21 c 6.33,-36.46 7.82,-53.81 9.26,-84.17 0.2,-16.09 -0.38,-38 1.06,-47.62 67.32,-70.57 62.77,-68.34 93.29,-104.07 10.52,5 22.63,-1.92 24.41,-13.12 0.84,-5.26 1.53,-10.51 2.23,-15.78 0.38,-2.9 0.86,-5.8 1.23,-8.71 8.31,-10.07 146.04,-198.54 160.74,-304.26 18.83,-137.91 -64.38,-220.06 -70,-230.07 -8.47,3.17 -16.69,-5.63 -13.09,-14.18 7.05,-16.49 7.7,-18.93 10.43,-27.14 1.43,-4.29 7.03,-7.72 11.12,-8.21 20.24,-2.43 45.58,30 61.48,49.25 19.8,23.93 38.42,46.78 51.07,85.05 13.34,40.5 17.73,81.85 7.73,122.96 -16.18,66.11 -6.09,11.58 -13.08,115.95 -2.84,42.13 -1.64,278.83 -50.24,233.08 -22.27,-21.34 -48.18,-21.03 -75.39,-7.03 -38.87,21.85 -156.79,209.26 -174.78,242.52 -7.02,12.96 -9.29,21.66 -17.83,21.92 -5.82,10.99 -21.53,4.48 -19.64,-6.37" style="fill:#5dcbf5;fill-opacity:1;fill-rule:nonzero;stroke:none" id="path46"/>
      <path d="m 1333.08,3778.61 c 2.29,-3.18 4.37,-5.23 8.31,-5.62 17.11,-33.44 31.67,-55.05 42.9,-71.48 9.04,-13.2 25.57,0.67 18.53,10.89 -165.33,240.33 -96.4,392.82 -76.09,575.18 45.71,404.62 28.07,340.81 110.79,573.99 -20.35,-25.28 -41.02,-49.86 -62.77,-76.3 -0.37,-1.29 -0.74,-2.59 -1.09,-3.9 -2.77,-2.81 -57.19,-265.29 -57.8,-268.85 -24.69,-141.91 -34.35,-395.13 -120.26,-494.56 -12.17,-14.12 -30.97,-30.21 -42.86,-39.49 -6.41,-4.98 -2.72,-18.04 7.5,-18.13 l 2.75,0.37 c 75.48,-112.21 135.33,-140.11 170.09,-182.1" style="fill:#5dcbf5;fill-opacity:1;fill-rule:nonzero;stroke:none" id="path48"/>
      <path d="m 1842.41,4274.19 c 1.25,-4.91 18.57,-20.29 22.46,-23.5 15.57,-12.8 20.48,-19.18 29.18,-29.97 40.11,-49.29 42.95,-75.91 62.03,-136.24 20.24,-64.45 19.37,-176.67 4.9,-237.41 -10.4,-43.48 -14.79,-47.34 -9.86,-52.85 -8.19,-18.77 -24.59,-50.47 -33,-60.47 -10.95,-9.15 4.06,-30.75 19.24,-7.6 47.64,72.61 114.25,254.55 55.98,421.67 -47.6,137.26 -147.17,176.35 -90.66,295.2 13.57,28.56 27.65,53.58 49.35,76.86 116.73,125.33 398.59,219.96 784.5,101.66 3.04,-0.93 51.93,-17.87 54.41,-17.87 4.11,0 7.87,2.58 9.5,6.35 2.47,5.74 -0.67,12.18 -5.44,13.89 -52.58,41.12 -336.87,130.59 -458.47,122.94 -67.66,3.4 -134.23,-2.19 -202.18,-11.95 -123,-18.05 -263.24,-99.23 -327.42,-206.13 l 0.28,0.36 -0.32,-0.45 -0.02,0.01 c -38.95,-66.03 -42.42,-106.61 -39.65,-139.18 4.99,-59.27 26.59,-74.84 75.19,-115.32" style="fill:#5dcbf5;fill-opacity:1;fill-rule:nonzero;stroke:none" id="path50"/>
      <path d="m 2869.1,3479.95 c 6.55,-1.01 15.15,2.67 14.97,9.51 -0.21,9.58 -2.95,11 -10.22,23.15 -35.06,58.76 -46.5,76.77 -83.98,94.87 -85.58,41.47 -242.8,66.92 -302.94,71.7 -382.54,30.74 -417.48,19.7 -490.82,-98.85 -16.13,-26.17 -23.03,-37.4 -13.03,-43.9 5.01,-3.27 12.07,-2.35 15.91,5.42 98.7,11.26 94.23,65.27 165.22,70.99 74.63,2 86.8,-6.15 152.19,-12.05 81.17,-7.43 128.89,-20.34 347.73,-90.23 54.49,-17.19 89.23,-51.88 144.34,-49.6 16.17,0.62 53.87,4.75 60.63,18.99" style="fill:#5dcbf5;fill-opacity:1;fill-rule:nonzero;stroke:none" id="path52"/>
      <path d="m 3819.61,3384.67 c 1.13,-0.45 2.35,-0.68 3.58,-0.68 10.35,-6.31 99.16,-53.81 98.92,-13.02 -0.19,36.12 -23.63,100.29 -41.72,126.05 -6.99,10 -12.11,12.41 -20.02,15.28 -12,4.2 -52.9,3.72 -61.09,1.22 -1.84,-0.55 -4.42,-2.21 -6.16,-4.61 15.81,-41.21 25.83,-103.36 26.49,-124.24" style="fill:#5dcbf5;fill-opacity:1;fill-rule:nonzero;stroke:none" id="path54"/>
      <path d="m 3761.24,1632.37 c -19.43,20.42 -39.05,39.34 -71.79,0.05 -22,-26.44 -30,-63.44 -39.87,-112.88 -49.67,-246.88 -3.39,-281.49 -105.78,-462.11 -0.98,-0.15 -3.42,-0.52 -4.31,-0.66 -4.7,-0.7 -8.97,-6.54 -7.43,-12.53 0.67,-2.63 2.4,-4.93 4.74,-6.31 2.12,-9.38 15.62,-11.24 19.28,0.78 63,10.64 107.81,20.65 152.16,144.3 27.79,78.18 28.16,83.44 40.21,85.65 45.63,2.41 113.66,-98.06 149.48,-148.68 45.75,-64.43 167.88,-259.359 177.21,-189.082 4.81,36.313 -184.29,565.542 -313.9,701.472" style="fill:#5dcbf5;fill-opacity:1;fill-rule:nonzero;stroke:none" id="path56"/>
      <path d="m 1687.8,1786.95 c 113.44,-127.02 142.04,-138.81 187.34,-182.1 62.08,-59.07 101.8,-99.95 120.9,-82.32 23.9,21.89 -44.72,90.15 -173.21,251.01 -77.47,97.09 -116.88,163.63 -163.2,316.58 -16.44,56.26 -18.16,72.04 -21.3,103.47 -0.99,9.79 -1.73,16.76 -4.57,25.87 -6.51,20.88 -44.26,33.53 -66.37,33.53 -10,-0.01 -17.44,-2.84 -48.63,-14.63 -44.09,-16.55 -20.27,-16.49 -107.69,-56.02 -32.28,-14.6 -26.53,-16.29 -84.51,-48.41 -35.08,-19.47 -48.85,-13.16 -47.08,-26.75 -10,-2.23 -26.87,-6.65 -41.63,-12.13 -12.06,-4.48 -10.03,-17.2 -1.64,-20.35 5.14,-1.89 14.55,2.66 20.22,4.71 217.76,77.68 329.5,-177.94 431.37,-292.46" style="fill:#5dcbf5;fill-opacity:1;fill-rule:nonzero;stroke:none" id="path58"/>
      <path d="m 2186.22,830.801 c 1.22,4.879 -1.83,9.91 -5.4,11.14 -46.17,15.829 -42.34,15.86 -80.57,30.039 -137.22,50.739 -126.86,53.821 -217.27,90.231 -69.55,28.051 -121.13,50.859 -230.2,108.949 -48.17,25.69 -53.59,29.07 -67.86,38.21 -76.42,48.97 -142.08,104.27 -186.25,150.45 -84.24,88.1 -95.01,107.18 -108.76,107.18 -8.77,0 -14.19,-8.41 -9.13,-19.53 7.57,-16.67 10.67,-22.3 20.72,-39.46 21.86,-37.33 38.31,-59.39 82.37,-104.16 37.29,-37.95 116.18,-108.6 160.95,-137.23 39.56,-25.3 62.85,-38.55 78.26,-47.14 51.03,-28.589 134,-63.511 184.56,-84.011 155.3,-62.977 129.33,-40.848 400.93,-134.789 10.71,-3.68 17.56,5.629 14.57,13.511 -2.6,6.918 -7.24,6.598 -36.92,16.61" style="fill:#5dcbf5;fill-opacity:1;fill-rule:nonzero;stroke:none" id="path60"/>
      <path d="m 2661.46,3217.62 c -10.72,-5.66 -10.92,-52.18 -10.73,-64.16 -3.68,1.99 -8.53,0.88 -11.5,-2.24 -2.84,-2.99 -2.5,-5.19 -2.31,-8.88 2.89,-51.15 -25.93,-135.38 -128.2,-213.09 -40.79,-28.63 -89.1,-36.15 -135.24,-27.85 -27.96,5.03 -49.55,13.59 -73.66,27.75 -36.25,21.05 -58.71,55.58 -77.7,47.27 -0.91,3.05 -3.82,12.79 -3.3,15.94 0.33,0.66 0.3,0.58 0.56,0.9 13.72,9.58 0.16,25.03 -10.38,17.79 -14.79,-10.23 -11.15,-23.53 -5.36,-42.49 12.87,-42.29 48.46,-92.42 92.81,-108.89 103.06,-57.97 279.6,-17.99 344.88,119.7 41.21,86.6 20.51,153.33 34.95,226.17 2.06,10.43 -7.65,15.89 -14.82,12.08" style="fill:#5dcbf5;fill-opacity:1;fill-rule:nonzero;stroke:none" id="path62"/>
      <path d="m 3628.48,3462.66 c 12.62,-4.53 28.79,-9.7 35.12,-12.92 0,0 35.96,-21.22 43.74,-26.89 4.3,-3.11 11.55,-9.48 16.48,-9.28 10.92,-7.41 22.28,-15.62 31.85,-24.51 -2.5,-3.66 -2.11,-8.51 -0.17,-10.97 3.83,-4.83 7.68,-9.61 11.69,-14.29 19.97,-23.2 35.44,-9.75 31.6,1.09 -1.8,5.04 -7.49,12.46 -10.69,16.81 -18.59,25.19 -47.16,44.55 -81.7,65.81 1.17,10.73 -0.69,8.67 -82.08,39.04 -4.48,18.48 -80.6,13.21 -96.75,13.81 -15.71,0.56 -29.15,0.76 -29.88,-10.25 -67.31,-22.66 -18.25,-4.85 -80.46,-33.34 -10.3,-4.7 -8.99,-15.74 -1.66,-19.46 8.07,-4.06 14.26,2.3 48.98,19.93 10,4.39 50.93,19.9 83.41,22.83 45.23,-2 49.17,-6.15 80.52,-17.41" style="fill:#5dcbf5;fill-opacity:1;fill-rule:nonzero;stroke:none" id="path64"/>
      <path d="m 2530.18,3395.5 c 0.31,-0.2 0.62,-0.39 0.94,-0.59 -0.87,0.54 -1.82,1.14 -0.94,0.59" style="fill:#5dcbf5;fill-opacity:1;fill-rule:nonzero;stroke:none" id="path66"/>
      <path d="m 3498.74,1766.63 c -0.19,-0.05 -13.14,-5.55 -32.14,-9.69 -66.12,-14.64 -375.59,-34.38 -486.95,-26.01 l -0.33,-0.01 v -0.03 l -0.71,0.07 c 0,0.02 -0.01,0.01 0,0.04 l -0.21,0.02 0.15,-0.05 c -81.63,8.26 -158.24,77.18 -171.99,43.04 -7.12,-17.34 8.94,-38.58 21.64,-52.31 22.1,-24.05 67.63,-64.95 77.64,-64.95 4.9,0 8.84,3.06 10.22,7.35 87.07,-25.74 264.21,19.94 448.26,8.05 50.48,-3.26 75.64,0.7 95.28,2.51 37.66,3.39 46.64,2.72 60.38,56.6 3.55,13.93 2.85,17.86 1.78,22.61 -2.24,10.13 -14.25,14.96 -23.02,12.76" style="fill:#5dcbf5;fill-opacity:1;fill-rule:nonzero;stroke:none" id="path68"/>
      <path d="m 2262.84,3340.1 c -43.62,-106.2 124.78,-150.89 125.51,-29.37 0.59,72.35 -100.54,89.96 -125.51,29.37" style="fill:#111011;fill-opacity:1;fill-rule:nonzero;stroke:none" id="path70"/>
      <path d="m 3549.17,3296.45 c 92.92,36.4 29.89,141.74 -35.82,120.85 -81.42,-26.34 -33.35,-148.06 35.82,-120.85" style="fill:#111011;fill-opacity:1;fill-rule:nonzero;stroke:none" id="path72"/>
      <path d="m 2160.91,3661.59 c 49.25,4.74 307.92,-59.61 427.51,-74.77 10.14,-1.45 105.5,-15.96 120.1,-24.47 7.26,-12.04 41.83,-160 161.87,-114.52 74.69,28.33 90.01,73.28 81.03,145.15 -6.2,49.6 -26.15,86.56 -55.36,123.19 -65.34,81.86 -147.4,117.45 -240.4,127.07 -23.18,2.47 -80.14,2.69 -137.44,-4.71 -503.81,-65.34 -493.67,-84.36 -543.23,-196.35 -35.91,-81.2 -14.6,-31.74 -42.59,-116.34 -0.73,-2.16 -0.58,-4.5 0.43,-6.76 -1.27,-4.81 0.91,-10.03 8.31,-13.03 21.53,-8.67 90.03,39.25 107.62,54.22 53.12,45.19 70.9,94.64 112.15,101.32" style="fill:#111011;fill-opacity:1;fill-rule:nonzero;stroke:none" id="path74"/>
      <path d="m 2685.41,1447.23 c -7.52,-6.11 -3.79,-16.42 4.09,-18.13 3.01,-3.15 7.56,-4.27 12.45,-1.79 80.17,40.4 186.61,118.4 418.66,127.05 106.74,3.72 221.44,-18.58 222.04,20.14 0.03,2.46 -1.14,5.14 -3.31,7.54 -59.31,66.18 -413.89,60.32 -653.93,-134.81" style="fill:#111011;fill-opacity:1;fill-rule:nonzero;stroke:none" id="path76"/>
      <path d="m 2154.45,2311.79 c -1.27,52.19 -0.44,72.11 -18.8,68.22 -7.96,-2.2 -10.35,-11.17 -12.14,-19.1 -3.45,-2.26 -5.53,-5.84 -5.56,-9.64 -0.3,-38.22 -2.99,-68.68 -8.89,-115.09 l 0.24,1.15 -0.2,-1.15 h 0.02 c -7.73,-49.55 -24.14,-292.98 14.96,-263.57 23.72,17.69 23.76,204.29 28.67,269.14 4.39,58.03 10.8,64.75 1.7,70.04" style="fill:#111011;fill-opacity:1;fill-rule:nonzero;stroke:none" id="path78"/>
      <path d="m 2446.7,3522.59 -0.07,0.05 c 72.64,-47.55 108.89,-67.54 161.79,-149.05 20.41,-31.36 36.98,-60.2 46.06,-95.83 -35.03,51.35 -67.63,95.84 -119.71,129.64 -181.46,118.54 -382.23,92.66 -453.99,-133.9 -17.92,229.34 176.74,363.43 365.92,249.09 z m -103.12,-364.72 c -102.6,-2.76 -184.8,63.58 -164.82,175.27 0.19,1.07 0.19,2.16 0.01,3.24 73.43,60.14 166.44,75.63 260.07,53.64 2.53,-10 14.14,-23.78 17.09,-52.3 7.48,-74.26 -31.02,-177.84 -112.35,-179.85 z m -195.78,177.56 c -2.37,-1.13 -4.24,-3.03 -5.23,-5.34 -14.84,-14.65 -28.42,-35.25 -39.4,-52.87 70.55,181.57 219.84,246.25 426.07,110.31 15.02,-9.82 29.59,-21.31 41.54,-34.79 -13.33,9.7 -61.4,34.88 -90.91,45.92 -107.84,40.69 -242.75,25.05 -332.07,-63.23 z m 508.45,-102.63 c -8.53,-10.47 -22.64,-21.2 -37.65,-31.89 l 1.07,0.59 c -32.85,-22.18 -83.18,-60.25 -141.31,-81.14 l 0.49,0.04 c -94.34,-29.83 -169.95,-44.57 -263.34,-8.38 -81.21,30.96 -108.01,63.14 -124.19,89.76 -0.29,1.58 -0.52,3.13 -0.7,4.54 3.25,2.53 7.1,10.91 6.23,15.41 8.02,20.96 30.56,57.24 43.2,74.22 -7.62,-34.83 23.38,-172 190.32,-173.48 120.26,-2 177.35,131.45 178.31,242.04 82.4,-40.3 111.06,-71.54 147.57,-131.71 z m -155.01,-325.64 c 14.11,6.38 28.99,16.85 41.95,26.43 71.68,52.77 88.81,111.76 109.52,195.06 0.01,0.02 25.91,104.68 25.91,104.68 11.28,7.05 -0.18,41.78 -7.58,68.91 -49.82,183.18 -297.11,372.73 -454.81,288.74 -197.72,-105.28 -159.92,-392.03 -141.43,-403.89 6.48,-14.04 24.69,-30.17 36.96,-40.32 144.24,-154.33 304.31,-106.73 473.07,1.58 41.03,26.36 33.22,21.98 63.41,46.53 -27.29,-106.24 -29.88,-181.88 -119.42,-247.97 -21.61,-15.89 -42.81,-30.75 -97.42,-38.8 -40.25,-5.95 -61.66,-4.89 -104.58,13.55 -52.95,22.76 -92.79,65.19 -107.52,89.65 -6.98,14.23 -25.66,3.1 -17.59,-9.52 33.72,-52.94 116.32,-116.12 196.19,-116.12 28.61,0 75.64,9.02 103.34,21.49" style="fill:#111011;fill-opacity:1;fill-rule:nonzero;stroke:none" id="path80"/>
      <path d="m 3069.45,1822.59 c -33.88,15.08 -78.81,57.78 -188.93,84.99 42.35,3.74 258.68,48.8 304.11,49.17 -1.67,-2.48 -4.58,-6.58 -4.67,-6.71 -0.39,-0.3 -5.49,-6.66 -5.81,-7.05 -37.87,-46.41 -12.17,-80.11 25.37,-80.11 55.34,0 204.83,96.34 309.62,72.37 -5.12,-10 -12.72,-28.4 -37.96,-47.94 -14.87,-11.5 -43.29,-30.52 -60.62,-35.96 -53.03,-15.83 -189.94,-39.58 -230.55,-43.91 v 0 c -77.11,1.66 -94.64,7.86 -110.56,15.15 z m 302.37,1603.11 c 47.52,106.49 142.65,159.88 244.12,152.9 127.67,-5.77 225.21,-139.47 192.05,-235.79 -0.15,2.64 -0.08,4.23 -2.7,6.81 -26.68,138.59 -305.15,246.63 -433.47,76.08 z m 73.24,34.7 c 139.91,80.89 288.29,-12.96 325.29,-80.15 -33.13,50.17 -157.86,106.07 -220.41,106.07 -27.46,0 -66.28,-7.56 -104.88,-25.92 z m 66.54,0.55 0.44,0.28 c 0,0 61.05,20.61 162.23,-34.22 -0.98,0.19 -0.37,-3.05 0.02,-4 11.91,-27.42 6.2,-84.18 -5.41,-106.36 -8.13,-15.24 -28.3,-40.47 -38.99,-53.57 -43.22,-54.09 -134.95,-47.56 -179.98,-3.93 -56.54,53.71 -56.75,92.22 -37.79,150.19 27.93,27.77 51.78,41.56 99.48,51.61 z m -172.57,-181.17 c 0,0 9.63,33.96 25.35,63.17 -7.81,-25.27 74.39,-178.32 206.79,-142.77 99.13,22.78 154.18,119.98 155.96,195.63 l 0.09,-0.59 c 34.97,-31.33 48.46,-59.24 58.62,-86.85 -0.13,-0.12 -20.28,-36.29 -20.48,-36.63 -37.42,-46.8 -84.52,-99.34 -143.76,-123.94 -9.31,-3.86 -45.13,-17.94 -55.2,-17.94 -0.78,-0.32 -0.46,-0.21 -1.45,-0.47 l -0.77,0.09 c -17.12,-6.22 -63.84,-2.55 -85.68,0.82 -53.47,11.83 -111.53,59.73 -130.34,103.18 0,0 -8.24,17.05 -9.13,46.3 z M 2202.63,1566.11 c -1.75,6.46 -3.32,12.34 -4.77,17.95 1.54,-5.87 3.13,-11.87 4.77,-17.95 z m 36.78,-120.95 c -12.57,32.53 -26.35,82.06 -35.36,115.7 11.7,-43.02 26.83,-91.32 35.36,-115.7 z m 1445.49,372.48 c -92.13,-313.04 -131.41,-748.6 -207.71,-811.09 -19.85,-14.21 -126.95,-40.519 -136.96,-42.788 -75.53,-16.473 -125.65,-3.442 -150.66,14.437 -27.28,19.973 -40.38,55.561 -71.29,78.111 -38.97,28.53 -130.86,13.42 -168.31,-49.74 -18.24,-27.742 -61.9,-152.359 -254.16,-97.992 -11.94,3.223 -38.32,13.121 -59.46,23.863 -262.81,136.489 -362.94,494.559 -375.52,513.849 -57.22,183.33 -100.12,352.91 -100.12,352.91 -63.7,64.17 27.79,-412.18 246.62,-724.02 -140.66,138.95 -192.81,216.63 -322.94,432.84 -53.52,87.65 -86.11,154.1 -118.64,238.72 -234.15,579.95 -303.05,1004.52 -303.05,1004.52 10.57,7.48 38.06,39.13 48,64.55 2.01,4.95 14.21,39.79 13.83,44.86 36.28,138.91 -34.16,258.57 -74.18,329.59 -0.56,2.23 -21.11,33.73 -22.36,35.65 -37.14,57.88 -75.16,105.71 -140.62,172.59 l -0.67,-0.32 0.12,0.27 c -2.13,3.17 -22.13,23.43 -24.72,25.98 l -0.5,0.23 0.8,0.71 c 8.38,24.37 9.92,53.38 9.84,79.5 -0.28,57.17 -1.98,143.7 -116.64,272.87 -1.98,2.25 -37.75,37.76 -40.16,38.61 -17.14,24.64 -125.11,131.88 -147.36,153.05 4.39,0.82 35,22.96 54.69,47.7 142.17,185.33 9.87,473.65 243,841.53 239.71,372.62 509.47,435.73 698.66,491.49 155.86,46.76 155.97,41.24 155.97,41.24 323.96,62.39 488.15,22.29 705.09,-41.01 200.71,-62.01 388.41,-197.92 550.08,-332.31 115.21,-94.72 173.82,-205.78 227.96,-345.33 58.43,-151.58 106.47,-364.54 74.59,-772.32 -6.43,-81.55 -25.93,-166.19 -43,-218.12 -2.5,5.08 -33.46,46.29 -37.15,50.75 58.53,182.1 2.41,499.75 -56.73,646.26 l 0.16,-0.53 c -0.58,1.62 -0.36,1.04 -0.99,2.59 0.11,-0.48 0.06,-0.3 0.24,-0.76 -71.18,177.36 -173.17,289.46 -367.68,345.92 -19.94,5.82 -106.14,26.33 -186.78,26.33 -63.58,0 -132.91,-25.13 -180.01,-60.2 -55.69,-41.32 -54.1,-95.45 -103.99,-104 -12.27,-1.01 -22.76,9.98 -77.76,35 -152.66,69.57 -179.27,89.46 -361.09,116.25 l 2,-0.42 c -122.52,24.59 -333.14,35.77 -447.86,-10.64 -141.43,-57.17 -314.06,-149.35 -308.89,-301.92 3.23,-96.28 80.4,-92.07 182.07,-230.5 66.07,-88.19 77.08,-231.28 61.13,-330.03 -0.31,-1.9 -0.05,-3.88 0.74,-5.7 -80.76,-409.6 -383.39,-346.63 -121.56,-1244.17 12.84,-44.02 43.93,-153.15 69.15,-153.15 5.25,0 11.28,4.63 12.02,11.48 0.69,5.65 0.46,5.99 -0.33,11.88 -10.33,62.85 -113.58,312.38 -132.68,663.33 -17.3,307.61 40.11,285.38 148.35,540.85 44.48,104.96 55.86,195.45 52.8,205.45 0.5,5.25 0.92,10.81 1.32,16.37 0.11,1.91 -0.4,3.75 -1.49,5.34 1.04,11.85 0.94,46.65 -2.05,76.18 -16.37,152.53 -47.33,202.36 -158.02,311.35 -0.92,2.96 -2.99,4.76 -5.18,7.17 -10.17,11.16 -15.99,16.76 -22.75,35.17 -37.49,117.22 127.84,293.74 284.96,348.38 l -0.47,0.04 c 103.06,32.59 251.62,41.17 351.15,27.39 134.69,-29.05 244.19,-70.07 312.23,-103.32 116.39,-57.61 139.61,-75.18 180.5,-77.6 66.92,-3.47 69.9,60.32 169.15,114.08 41.09,23.25 72.1,40.54 204.04,41.53 63.31,-1.22 155.39,-13 212.69,-52.97 48.3,-33.99 117.14,-120.9 128.98,-138.07 120.2,-174.1 178.5,-333.72 121.13,-656.99 -4.13,-23.35 -8.87,-44.55 -15.75,-67.27 -54.76,35.26 -168.37,52.08 -223.21,20.85 -142.62,-71.05 -177.69,-251.58 -197.3,-408.8 -3.16,-24.73 -10.88,-70.59 -9.82,-105.69 -0.02,0.26 -0.17,0.56 -0.37,0.91 -21.6,43.56 -38.67,60.94 -57.25,76.47 -56.49,46.92 -97.85,56.28 -176.94,31.64 -5.79,-1.74 -10.44,-2.17 -12.95,-7.42 -2.9,-5.68 -0.71,-12.8 5.23,-15.41 4.39,-2.51 7.98,-0.68 13.16,0.97 197.22,59.37 226.42,-108.92 413.87,-627.62 60.62,-165.28 116.51,-380.67 -10.86,-498.02 -19.62,-16.48 -37.14,-27.47 -89.83,-13.22 -36.23,9.71 -84.85,126.42 -112.52,155.56 -30.75,31.14 -86.06,25.16 -114.53,-7.72 -36.53,-44.45 -6.5,-108.79 -64.72,-143 -54.45,-28.28 -156.4,33.49 -191.28,128.67 -35.52,95.91 -12.94,251.75 48.84,269.75 43.65,8.06 24.65,-49.09 48.53,-57.93 9.76,-11.42 27.06,-0.14 26.62,12.3 -0.32,7.23 -5.87,41.04 -11.19,45.81 -33.74,63.98 -143.56,51.44 -164.86,-155.92 -8.14,-77.99 -5.57,-187.48 53.61,-238.82 93.96,-77.33 221.19,-44.5 243.6,17.12 5.12,3.47 4.54,8.36 7.19,21 8.86,47.2 14.94,58.62 26.3,64.79 67.37,27.78 70.44,-95.65 190.42,-128.16 47.75,-28.36 96.59,-4.66 113.14,10.39 -0.09,-2.44 5.39,-25.23 6.01,-27.25 24.85,-107.35 25.58,-131.3 25.73,-211.95 l -0.09,0.43 c -17.03,7.71 -35.91,6.54 -55.54,3.72 l -0.33,0.07 c -19.36,-5.84 -14.98,6.04 -133.04,-44.9 -36.82,-16.45 -102.95,-47.33 -127.11,-44.72 0.91,0.52 1.3,2.02 1.71,3.11 12.54,28.04 60.68,59.13 46.06,85.38 -5.98,12.54 -25.64,10.8 -35.66,9.59 0,0 -35.93,-5.11 -72.08,-14.75 -66.97,-12.86 -101.47,-29.31 -244.57,-48.56 -237.96,-31.34 -265.2,55.49 -265.2,55.49 0.17,0.18 0.07,0.49 -0.19,0.94 17.2,12 97.66,79.61 94.49,104.72 -10.74,32.48 -70.3,-20.06 -156.52,-76.35 -55.36,-36.23 -133.61,-69.53 -155.89,-72.68 -4.63,-1.16 -14.77,-3.17 -15.57,-3.39 -1.09,1.53 -5.36,2.24 -7,2.24 -6.37,0 -13.18,-5.68 -17.83,-9.83 -39.57,-39.12 -13.63,-73.87 33.28,-73.39 45.12,2.72 164.61,80.13 199.24,107.09 20.32,-43.86 25.62,-44.14 57.16,-58.74 96.48,-45.25 122.97,0.9 251.08,-47.19 119.71,-45.24 41.52,-17.56 117.04,-59.2 75.25,-41.4 128.96,-23.98 151.66,-23.46 75.29,0.91 135.37,16.59 192.72,33.43 80.83,23.73 119.25,43.01 139.3,74.8 -0.98,-10 -7.55,-110.5 -21.65,-183.19 0,0 -15.37,-22.81 -78.65,-24.41 -17.35,-0.61 -50.65,-0.83 -71.93,0.09 -253.12,11.09 -368.13,-64.78 -478.75,18.19 -65.32,51.16 -112,110.26 -128.21,142.89 -3.84,8.6 -17.85,7.26 -20.29,-2.74 -1.35,-5.44 2.54,-11.34 5.46,-16.57 -1.35,-10.49 24.47,-40.53 48.42,-73.13 36.99,-50.75 50.47,-55.49 61.5,-65.86 65.52,-56.55 89.06,-65.66 142.94,-69.9 54.44,-4.93 103.67,0.92 155.63,12.58 189,41.99 281.97,-26.6 353.84,29.92 l -1.03,-1.07 c 0,0 -29.07,-112.49 -49.17,-157.86 -16.43,-36.82 -24.89,-48.29 -71.18,-128.76 -1.11,-1.92 -1.35,-2.32 -2.22,-3.88 -7.5,-12.27 12.26,-22.88 18.16,-10.51 46.14,88.61 134.65,190.3 157.71,534.83 10.1,162.17 -0.03,213.6 -30.67,349.21 -0.23,0.78 -0.54,1.5 -0.91,2.15 3.2,2.86 9.66,9.46 10.76,13.62 135.96,173.94 21.04,420.41 -148.21,878.69 7.66,-10 93.91,-75.52 217.94,-38.42 62.32,18.14 127.97,56.99 207.5,181.14 0,0 1.03,-28.62 -6.62,-101.37 -19.69,-173.67 -134.54,-237.77 -210.92,-222.67 -55.08,11.93 -88.09,45.47 -120.26,99.72 -11.09,19 -17.96,33.77 -29.59,25.83 -4.76,-3.01 -7.11,-10.31 -3.31,-15.7 24.65,-36.63 23.88,-42.5 57.41,-79.04 51.88,-54.95 122.37,-58.81 146.13,-51.72 0.87,0 0.95,-0.04 1.74,0.31 1.73,0.26 3.19,0.6 4.47,1.06 13.54,0.73 155.21,45.01 174.63,238.61 10.31,99.29 7.34,102.69 2.54,129.69 32.38,50.28 23.5,112.9 -6.19,167.04 20.17,-19.49 54.44,-48.49 82.07,-43.76 0,-0.75 3.68,-16.04 3.85,-16.77 22.19,-94.07 77.17,-469.27 43.98,-571.49 -2.77,-8.79 -6.52,-21.28 -8.53,-28.15 -29.07,-98.56 -102.1,-219.59 -140.03,-260.22 -0.76,11.06 -14.41,91.32 -38.12,179.39 -2.32,8.44 -14.37,11.7 -21.06,5.19 -6.26,-6.53 -3.68,-3.92 9.14,-105.57 21.18,-181.42 25.25,-542.22 -55.88,-816.02 z M 1642.15,2278.4 c -45.58,-13.13 -83.97,-2 -121.78,16.24 -66.95,31.62 -160.31,158.74 -185.56,228.23 -55.46,150.25 -94.63,278.07 -97.17,452.99 0.07,-0.12 30.26,-45.95 47.45,-70.73 -8.32,-58.5 3.95,-233.62 75.5,-363.99 5.41,-9.95 12.27,-22.11 20.98,-37.17 0.18,-2.27 9.19,-19.96 13.4,-22.6 56.55,-86.98 84.3,-59.98 62.41,-23.88 -11.6,19.47 -134.97,190.3 -125.82,380.12 l 0.06,-1.04 c 29.32,-44.13 93.95,-111.01 109.3,-121.98 22.83,-182.32 73.17,-144.48 117.2,-166.8 20.33,-14.61 19.3,-44.53 39.31,-67.82 29.52,-33.75 79.66,-8.21 41.51,83.45 -3.73,9.7 -16,30.94 -23.52,39.54 -6.18,6.41 -6.73,6.51 -9.59,9.43 -23.31,22.4 -25.51,72.3 -19.22,85.92 20.48,4.63 44.22,21.26 59.3,35.29 l -0.5,-0.49 c 18.38,-110.1 63.09,-294.27 93.44,-394.96 -10,-7.61 -25.86,-34.17 -96.7,-59.75 z m 340.41,-741.56 c 0.07,-0.41 0.04,-0.25 0.15,-0.83 -2.74,2.78 -1.7,1.86 -4.8,4.23 -170.54,127.8 -233.03,258.16 -326.51,304.64 -11.03,5.64 -39.22,15.84 -48.19,7.98 -24.25,-10.03 -28.96,-57.71 20.58,-119.98 158.9,-201.93 465.1,-361.33 498.49,-452.82 l -0.29,0.65 c -54.32,23.97 -104.38,53.46 -153.03,91.24 -162.58,131.69 -345.29,364.77 -409.17,364.77 -5.3,0 -10.21,-3.97 -11.03,-9.4 -14.91,-9.97 22.04,-139.46 238.13,-341.54 24.18,-22.59 1.47,-1.54 81.26,-68.58 128.14,-104.59 278,-185.63 337.73,-249.04 0,0 -69.22,29.95 -105.08,48.91 -289.51,155.19 -415.93,332.84 -607.86,457.48 -40.06,26.02 -68.85,44.5 -105.58,39.03 -7.71,1.78 -13.49,-0.08 -15.75,-7.62 -3.3,-10.27 -2.45,-12.99 2.22,-22.65 182.13,-373.32 782.98,-600.458 863.04,-683.162 l -0.64,0.34 c -323.99,77.184 -653.4,430.632 -892.29,502.752 -24.5,7.47 -23.49,3.39 -37.18,6.39 l -0.64,-0.31 c -11.58,0.64 -24.36,-6.84 -23.2,-21.45 1.92,-13.04 18.39,-40.01 25.86,-51.02 182.75,-278.06 770.46,-445.811 894.43,-520.299 -44.06,4.031 -154.47,-2.121 -284.44,32.969 -447.63,118.41 -579.87,277.65 -682.77,509.7 -126.56,292.29 -173.27,488.88 -221.54,523.7 l 1.33,1.01 c 116.59,160.33 431.54,319.35 532.55,356.81 20.5,-7.51 50.98,-8.24 72.09,-7.77 -1.22,-1.2 -2.29,-64.29 6.69,-106.15 3.54,-16.75 8.09,-33.8 16.19,-67.82 57.88,-242.75 285.1,-423.93 339.25,-522.16 z m -988.759,309.85 c 0.008,0.02 0.015,0.03 0.023,0.03 0.266,0.08 0.535,0.14 0.809,0.2 -0.278,-0.07 -0.555,-0.15 -0.832,-0.23 z m -0.102,-0.02 c -0.211,-0.06 -0.422,-0.12 -0.636,-0.18 0.222,0.08 0.445,0.15 0.671,0.21 -0.011,-0.01 -0.019,-0.02 -0.035,-0.03 z M 1105.22,3322 c 1.54,-3.83 51.46,-31.89 88.54,-38.31 10,-1.5 17.74,-2.21 60.17,0.65 32.72,2.15 51.83,4.54 97.05,28.23 45.18,22.59 89.83,69.82 102.3,92.58 l 0.2,-1.3 c 5.36,-5.4 10.3,-10.42 14.46,-14.7 l 0.78,0.34 -0.21,-0.41 c 7.88,-10.78 299.13,-282.08 236.67,-524.01 -6.31,-10.94 -24.37,-107.38 -126.9,-138.17 -5.47,-1.06 -10.96,-0.97 -16.66,-1.15 -29.41,-1.19 -43.27,-2.42 -73.37,8.43 -34.48,11.83 -73.04,51.57 -92.87,82.85 -30.72,49.18 -39.84,175.82 9.51,257.4 33.47,52.83 88.88,69.15 138.76,48.07 104.76,-47.45 72.7,-222.68 -36.73,-197.38 -56.66,19.91 -32.67,128.26 8.7,108.3 10.01,-7.08 11.14,-13.93 14.92,-40.29 1.34,-10.23 13.53,-13.56 20.83,-5.33 12,15.68 13.29,38.54 3.16,54.11 -18.57,33.59 -96.37,35.01 -119.55,-57.38 -7.61,-30.24 -0.2,-60.91 16.11,-83.51 16.99,-23.51 56.96,-38.09 74.89,-40.24 151.73,-20.77 203.01,215.04 71.95,329.23 -36.58,32.15 -73.19,31.77 -107.76,28.98 -121.78,-10.27 -165.83,-109.17 -162.06,-231.34 l -0.73,1.05 c -128.57,90.46 -182.95,189.53 -222.16,333.3 z m -55.72,98.61 c -24.96,72.86 -7.99,149.99 22.76,195.36 53.36,77.91 141.95,71.7 178.83,38.15 33.95,-30.15 34.02,-101.15 -9.99,-101.68 -9.41,0.12 -17.31,5.73 -22.61,13.61 -1.56,3.15 -3.78,9.01 -6.06,11.18 -0.47,4.04 -5.58,8.66 -11.02,8.66 -6.19,0 -12.25,-5.79 -11.4,-12.81 0,-19.79 2.64,-37.36 23.64,-47.56 51.02,-29.83 119.33,12.78 122.23,100.46 1.02,37.48 -8.66,68.05 -42.09,86.05 -23.01,12.89 -79.05,49 -155.05,16.83 -61.08,-23.69 -111.63,-55.15 -134.55,-176.57 -2.48,-10 -6.96,-51.48 7.79,-96.44 -18.265,25.86 -41.89,54.66 -61.945,98.11 -91.246,197.1 -29.449,347.51 -29.57,357.51 39.66,53.1 105.175,76.92 115.175,77.23 77.58,14.71 93.59,-5.85 194.89,-108.33 2.36,-2.46 61.18,-66.57 69.31,-76.57 0,0 74.49,-90.27 86.94,-125.33 19.51,-61.82 31.72,-117.36 -7.89,-207.7 -8.64,-19.73 -23.42,-54.22 -50.38,-81.77 -63,-65.99 -139.94,-77.65 -210.48,-37.1 -28.33,18.16 -50.32,37.19 -68.53,68.71 z m 3001.58,-2287.31 -0.83,0.07 c -0.1,1.74 0.09,1.26 -1.28,6.03 -41.4,132.34 -77.06,218.64 -77.06,218.64 -4.9,10 -148.87,370.08 -219.55,488.22 46.74,139.96 69.28,408.42 55.77,577.42 72.91,165.09 161.61,207.46 163.39,501.58 -0.12,0.26 -0.22,0.45 -0.34,0.63 1.7,121.98 -30.52,407.34 -60.66,519.09 19.13,20.54 -2.83,125.81 -61.35,217.15 5.42,11.18 12.24,37.55 15.64,50.72 33.21,118.02 31.95,182.48 37.74,262.69 32.82,559.3 -103.18,740.5 -111.07,777.27 -8.37,14.26 -56.38,153.77 -184.93,265.57 -139.63,121.33 -362.09,282.9 -547.44,341.49 -222.33,63.48 -388.39,125.09 -788.25,40.5 -73.33,-20.18 -145.67,-17.3 -280.95,-59.94 -542.38,-167.49 -711.25,-549.01 -723.22,-1076.94 l 0.23,0.3 c 0,0 -0.36,-70.75 -22.19,-144.37 -27.33,-84.68 -68.09,-125.27 -90.94,-127.15 -4.19,0.36 -6.42,0.72 -10.18,-2.2 -40.68,28.81 -86.54,25.19 -96.54,21.1 l -0.31,0.08 c -117.506,-14.84 -195.307,-152.46 -209.483,-220.8 -1.961,-9.22 -2.574,-29.81 0.832,-48.92 9.332,-53.43 102.164,-231.74 161.606,-306.15 25.885,-84.71 102.275,-226.49 111.105,-241.25 0.91,-3.22 1.55,-5.58 4.51,-7.61 30.29,-49.93 36.29,-63.1 69.28,-115.73 0.06,-2.94 21.5,-40.98 22.9,-43.66 20.32,-260.11 20.09,-306.4 125.87,-554.06 33.3,-78.07 102.87,-177.75 188.6,-221.57 l -0.58,-0.04 c -152.67,-67.86 -425.75,-211.91 -527.564,-361.96 -22.629,0 -60.324,-92.96 -74.957,-241.6 -14.457,-142.96 -16.906,-360.53 -0.281,-424.26 -2.383,-5.92 0.558,-9.8 5.207,-13.35 14.883,-12.06 26.644,-22 37.804,-22 76.171,0 -22.976,397.72 29.649,654.84 1.832,2.77 1.976,3.73 5.222,4.09 56.56,-10.03 121.58,-456.09 224.86,-633.04 131.79,-225.559 334.49,-348.211 596.09,-395.34 0.02,-0.012 113.57,-19.942 113.57,-19.942 92.51,-15.308 267.1,-15.867 289.4,-5.867 14.27,4.93 32.4,28.348 -38.42,57.438 -217.77,91.101 -599.48,234.121 -769.39,395.091 -41.08,37.67 -97.92,105.55 -108.93,143.35 l 0.37,-0.46 c 110.91,-27.69 335.86,-240.21 627.11,-389.302 68.05,-34.777 350.15,-181.027 334.95,-106.968 -13.73,65.25 -205.97,112.89 -511.69,320.9 -134.06,91.36 -298.69,230.88 -363.39,379.03 l 0.65,-0.4 c 39.63,5.55 257.17,-237.25 359.35,-309.98 30.81,-22.17 366.51,-271.22 477.54,-254.56 83.11,42.63 -255.17,210.24 -422.38,365 -39.38,36.45 -209.91,185.61 -239.64,318.54 l 0.65,-0.74 c 84.32,-46.56 198.71,-269.94 402.29,-405.38 166.47,-109.97 238.29,-58.41 107.67,61.1 -52.38,55.72 -520.03,361.59 -469.43,465.96 1.1,1.03 0.93,1.11 2.11,2.17 71.32,-5.92 121.27,-163.57 303.47,-288.07 71.91,-49.39 78.34,-47.18 89.47,-41.11 10.13,7.71 7.02,22.79 1.71,33.37 2.33,25.39 -73.28,105.89 -173.08,257.77 l -0.26,-0.69 0.17,-0.51 c -6.23,16.02 -143.02,199 -148.33,449.67 13.65,2.56 53.23,28.85 68.89,54.22 21.44,-94.64 178.74,-565.98 297.92,-772.12 148.9,-258.93 287.6,-450.61 517.25,-609.881 37.6,-26.528 74.63,-54.199 167.47,-65.989 50.49,-6.98 82.08,0.469 92.08,1.489 168.92,36.972 131.75,168.241 223.18,151.371 72.34,-14.781 50.63,-98.141 169.53,-102.399 16.72,-0.461 76.97,0.2 120.67,-1.32 137.07,-4.332 192.98,97.43 202.98,106.779 l 0.55,0.92 0.33,0.3 0.3,0.51 c 9.69,9.14 33.58,61.18 41.49,81.15 14.52,0.05 54.41,30.24 68.29,83 35.35,138.05 12.35,225.02 35.07,300.68 40.75,131.35 128.5,-24.15 203.05,-144.47 106.71,-173.48 141.7,-385.451 181.17,-360.47 24.86,15.14 -13.18,137.29 -22.11,165.28" style="fill:#111011;fill-opacity:1;fill-rule:nonzero;stroke:none" id="path82"/>
      <path d="m 2334.39,3353.82 c -3.32,-0.19 -6.18,-1.12 -9.08,-2.7 -2.73,-1.49 -5.04,-3.43 -7.22,-5.64 -1.72,-1.75 -3.04,-4.04 -4.17,-6.2 -0.93,-1.8 -1.53,-3.9 -2.01,-5.85 -0.1,-1.32 -0.2,-2.62 -0.28,-3.93 0.18,-1.72 0.51,-3.39 0.95,-5.04 -0.15,-3.11 0.38,-6.19 2.09,-9.07 2.92,-4.91 7.91,-8.35 13.38,-9.85 5.09,-1.42 10.09,-1.34 15.12,0.33 1.81,0.6 3.54,1.65 5.15,2.65 0.76,0.5 1.47,1.08 2.14,1.7 1.86,1.6 3.25,3.07 4.49,5.21 2.42,4.11 3,8.83 2.97,13.52 -0.01,2.83 -0.77,5.74 -1.63,8.42 -0.66,2.06 -1.87,4.06 -3,5.9 -2.47,4.06 -6.75,7.25 -11.06,9 -2.2,0.91 -4.71,1.57 -7.13,1.57 -0.24,0 -0.47,-0.01 -0.71,-0.02" style="fill:#f7f7f3;fill-opacity:1;fill-rule:nonzero;stroke:none" id="path84"/>
      <path d="m 3541.51,3398.79 c -1.97,-0.24 -3.66,-0.77 -5.45,-1.54 -4.69,-2.04 -8.51,-5.18 -11.37,-9.39 -1.16,-1.71 -2.11,-3.26 -3.01,-5.1 -1.39,-2.85 -2.54,-6.54 -2.36,-9.76 0.18,-3.2 0.88,-6.2 2.29,-9.05 0.14,-0.65 0.28,-1.29 0.43,-1.91 1.2,-5.21 4.2,-9.67 9.05,-12.08 5.15,-2.57 11.24,-1.92 16.62,-0.63 2.48,0.6 4.95,2 7.08,3.33 2.6,1.61 4.84,4.18 6.42,6.76 5.41,8.74 6.23,20.89 0.53,29.68 -2.19,3.37 -5.83,5.94 -9.38,7.71 -1.74,0.87 -3.73,1.47 -5.62,1.89 -0.83,0.18 -1.79,0.26 -2.75,0.26 -0.85,0 -1.72,-0.06 -2.48,-0.17" style="fill:#f7f7f3;fill-opacity:1;fill-rule:nonzero;stroke:none" id="path86"/>
    </g>
  </g>
</svg>