<?xml version="1.0" encoding="utf-8"?>
<svg version="1.1" id="svg2" width="616.62665" height="749.21332" viewBox="141.31 -0.001 475.312 669.167" xmlns="http://www.w3.org/2000/svg">
  <g id="g8" transform="matrix(1.3333333,0,0,-1.3333333,0,749.21333)">
    <g id="g10" transform="scale(0.1)">
      <path d="m 2606.61,3381.84 c 53.04,22.68 152.3,44.43 197.3,49.75 13.46,1.7 18.68,12.13 17.55,25.7 -3.17,37.55 -21.74,32.23 -44.52,30.15 -29.06,-2.68 -163.97,-21.82 -179.06,-30.14 0,0 4.32,-27.99 8.73,-75.46" style="fill:#b82327;fill-opacity:1;fill-rule:nonzero;stroke:none" id="path12"/>
      <path d="m 2552.58,3403.87 c -0.06,-0.08 -0.12,-0.16 -0.18,-0.25 0.29,-1.06 0.59,-2.13 0.88,-3.19 -0.23,1.14 -0.47,2.29 -0.7,3.44" style="fill:#b82327;fill-opacity:1;fill-rule:nonzero;stroke:none" id="path14"/>
      <path d="m 3724.11,3511.53 c 2.38,0.55 2.49,0.58 0,-0.03 z m -5.53,-23.82 c 38.88,10.76 107.46,23.23 134.81,26.4 85.28,9.83 98.04,5.09 97.19,19.78 -0.52,7.71 -7.46,10.91 -14.21,14.26 -74.99,38.15 -83.57,41.7 -167.96,37.61 -5.62,-0.26 -34.64,-1.28 -39.9,-2.37 -29.59,-6.05 -29.28,-50.71 -23.55,-80.37 -4.31,-8.23 2.38,-18.43 13.62,-15.31" style="fill:#b82327;fill-opacity:1;fill-rule:nonzero;stroke:none" id="path16"/>
      <path d="m 4035.22,3076.9 c 13.59,51.81 14.79,44.61 25.78,95.8 18.79,87.2 -54.94,-29.62 -191.49,-29.62 -8.85,-1.36 -11.82,-12.05 -6.48,-17.44 l -0.03,-0.01 c 1.21,-3.88 6.74,-8.8 9.83,-11.98 58.24,-59.23 60.58,-73.44 92.85,-133.17 15.01,-28.05 28.53,-24.63 35.04,-10.8 1.11,2.34 28.43,81.12 31.81,96.97 l 0.03,-0.01 c 0.13,0.5 0.09,0.32 0.17,0.82 l 0.04,-0.01 c 0.48,1.8 0.66,2.49 0.85,3.23 l -0.03,-0.06 c 0.01,0.05 0.05,0.18 0.06,0.22 h 0.01 c 0,0 0.04,0.19 0.04,0.22 l 0.05,0.16 -0.04,-0.13 c 0,0.05 0.03,0.18 0.02,0.18 0.69,2.39 1.53,5.76 1.53,5.76 -0.02,-0.06 -0.1,-0.35 -0.1,-0.35 l 0.05,0.22 h 0.01" style="fill:#b82327;fill-opacity:1;fill-rule:nonzero;stroke:none" id="path18"/>
      <path d="m 3848.25,3175.87 c -0.09,0.11 -0.17,0.22 -0.26,0.32 0.24,0.06 0.47,0.13 0.7,0.2 -0.14,-0.17 -0.29,-0.34 -0.44,-0.52 z m -19.88,38.58 c -5.68,-1.49 -11.41,-2.41 -14.91,-7.1 -6.05,-8.14 -0.89,-18.31 5.05,-26.58 2.88,-3.97 20.18,-27.03 24.74,-28.85 2.79,-1.14 5.53,-0.87 8.32,0.12 78.44,28.29 191.08,135.87 234.21,258.37 5.05,14.4 5.87,18.3 13.31,38.64 3.38,9.21 7.84,15.53 0.35,21.87 -14.74,12.43 -17.75,-13.98 -58.52,-73 -2.41,-0.99 -4.45,-2.92 -5.58,-5.46 -6.7,-15.26 -45.11,-68.98 -101.1,-116.52 -19.73,-16.81 -69.04,-50.34 -105.87,-61.49" style="fill:#b82327;fill-opacity:1;fill-rule:nonzero;stroke:none" id="path20"/>
      <path d="m 3808.23,2522.37 c 6.06,0.88 12.02,7.89 10.72,15.39 -1.87,11.08 -11.31,26.35 -17.37,35.96 -23.74,37.55 -25.69,39.12 -74.56,38.98 -110.23,0 -161.29,43.83 -212.68,96.43 -5.54,5.69 -15.46,17.48 -23.17,15.87 -7.88,1.58 -14.47,-5.79 -12.91,-12.27 6.19,-25.91 29.62,-119.26 40.54,-143.68 25.12,-56.76 140.51,-47.87 190.02,-46.49 -0.47,0.05 -0.95,0.05 -1.42,0.05 5.88,0.02 95.21,-1.07 100.83,-0.24" style="fill:#b82327;fill-opacity:1;fill-rule:nonzero;stroke:none" id="path22"/>
      <path d="m 3902.77,2462.25 c -2.83,4.12 -8.59,5.85 -13.43,3.72 -10.95,-4.82 -8.61,-7.9 20.52,-94.12 6.16,-18.42 8.22,-26.04 46.13,-45.61 18.21,-9.4 50.19,-20.16 68.67,-20.16 10.59,0 11.68,1.66 43.46,17.49 39.75,19.73 48.21,20.3 70.1,90.87 12.84,41.35 19.78,58.83 19.78,58.83 5.56,5.63 3.02,14.78 -3.73,17.52 -5.4,2.23 -11.87,0.74 -17.59,-0.59 -118.64,-27.36 -167.93,-22.9 -233.91,-27.95" style="fill:#b82327;fill-opacity:1;fill-rule:nonzero;stroke:none" id="path24"/>
      <path d="m 3841.96,2127.37 c -4.41,-5.19 -2.06,-14.83 5.63,-17.17 0.7,-5.72 7.11,-9.96 11.89,-8.66 2.25,0.55 3.85,0.93 5.66,2.42 2.89,1.41 5.43,2.44 8.3,3.66 31.08,12.99 45.28,19.58 69.61,20.14 60.82,-2.09 81.38,-26.8 122.31,-24.96 48.22,1.9 47.53,17.79 50.95,42.96 5.97,43.85 12.35,72.73 -5.9,72.73 -14.35,0 -68.1,-48.72 -86.77,-67.99 0,0 -25.97,68.2 -25.97,68.22 -4.18,10.58 -10.57,25.96 -24.37,20.39 -16.1,-6.43 -73.24,-58.28 -92.86,-75 -2.54,-2.15 -8.31,-7.09 -12.07,-10.35 -10.31,-8.95 -18.95,-17.58 -26.41,-26.39" style="fill:#b82327;fill-opacity:1;fill-rule:nonzero;stroke:none" id="path26"/>
      <path d="m 4084.68,1951.85 c -15.7,0 -172.47,5.36 -187.69,7.34 -16.13,2.11 -16.83,5.72 -132.54,-132.92 -4.62,-5.44 -9.69,-11.66 -5.76,-18.35 4.85,-8.29 13.24,-7.46 22.95,-5.74 23.1,4.1 27.73,6.9 63.81,12.44 28.17,4.26 32.03,3.17 35.87,8.45 2.14,2.94 2.76,6.79 1.2,10.39 21.8,6.37 270.12,86.72 289.07,92.85 10.58,3.34 12.34,12.37 7.77,18.14 -8.39,10.59 -34.92,7.4 -94.68,7.4" style="fill:#b82327;fill-opacity:1;fill-rule:nonzero;stroke:none" id="path28"/>
      <path d="m 3565.89,1384.82 c -158.67,65.3 -174.66,46.1 -270.73,87.11 -61.45,26.13 -119.7,34.67 -198.62,63.63 l 1.04,-0.46 c -10.59,4.56 -33.55,12.31 -67.04,27.13 -60.97,26.8 -362.52,181.01 -393.68,200.15 -144.71,88.68 -84.64,71.48 -151.53,-111.5 -2.59,-6.54 -5.33,-12.68 -5.98,-19.42 -6.48,-67.75 169.89,-196.06 188.73,-158.94 3.94,0.93 7.09,4.03 8.19,8.09 10.86,40.45 7.29,33.25 135.91,2.96 0.04,-0.01 94.03,-18.2 198.13,-43.47 238.14,-57.77 196.36,-41.92 317.25,-72.69 166.58,-42.62 283.1,-49.89 301.52,-49.5 10.6,0.23 18,9.25 11.31,20.9 -11.27,19.38 -58.37,39.34 -74.5,46.01" style="fill:#b82327;fill-opacity:1;fill-rule:nonzero;stroke:none" id="path30"/>
      <path d="m 1837.79,2628.21 c -40.01,9.34 -71.48,28.52 -132.61,45.09 -23.71,6.39 -36.2,11.53 -58.86,21.68 -5.8,2.56 -13,-1.71 -14.27,-7.87 -9.62,-5.23 -6.84,-16.77 -6.79,-33.65 -0.04,-46.43 2.08,-60.48 13.69,-98.88 18.83,-62.44 121.7,-257.27 142.96,-197.86 3.83,10.59 18.51,58.41 70.98,162.3 25,49.66 38.16,68.48 36.22,86.55 -3.98,13.07 -9.06,13.52 -51.32,22.64" style="fill:#b82327;fill-opacity:1;fill-rule:nonzero;stroke:none" id="path32"/>
      <path d="m 1139.74,3824.67 c 4.88,-39.44 10.46,-77.83 29.65,-72.6 7.31,2.04 8.42,5.71 15.86,16.3 6.6,9.38 33.22,46.02 45.88,62.61 16.52,21.63 32.39,43.6 50.3,72.7 17.34,27.79 20.92,37.18 18.75,50.37 -9.92,58.25 -72.9,245.58 -60.46,417.7 25.95,357.8 166.47,564.79 167.94,575.38 4.53,6.63 6.26,9.2 12.89,15.2 9.7,8.84 -4.07,24.97 -14.94,14.94 -10.59,-9.79 -118.88,-141.61 -189.12,-375.65 -78.91,-262.12 -121.92,-411.79 -76.75,-776.95" style="fill:#b82327;fill-opacity:1;fill-rule:nonzero;stroke:none" id="path34"/>
      <path d="m 1229.33,3411.21 c 47.94,-40.81 41.11,-16.89 86.19,45.7 60.33,83.91 122.02,133.56 101.73,153.88 -5.06,5.02 -10.87,3.28 -17.82,1.7 -75.16,-16.72 -183.73,-35.78 -247.65,56.12 1.84,6.98 -3.14,13.42 -10.16,13.42 -9.63,0 -16.07,-10.9 -20.97,-19.1 -24.92,-42.03 -27.41,-48 -23.64,-63.61 9.27,-38.48 38.67,-72.24 48.03,-85.61 23.18,-33.13 42.09,-66.49 84.29,-102.5" style="fill:#b82327;fill-opacity:1;fill-rule:nonzero;stroke:none" id="path36"/>
      <path d="m 1741.33,2986.26 c 7.77,-2.07 56.08,-23.57 71.46,-30.98 7.67,-3.68 17.57,5.35 13.2,14.5 -0.97,1.98 -2.37,3.42 -4.56,4.68 0,0 -19.5,75.21 -25.45,141.21 -2.5,27.5 -5.23,60.35 -9.46,70.94 -10.82,26.55 -31.81,0.56 -65.78,-33.17 -38.35,-37.6 -86.73,-101.73 -118.27,-144.69 1.28,6.37 -1.77,11.57 -7.31,15.32 -2.83,1.95 -9.17,1.99 -12.63,2.03 -135.13,1.34 -310.52,87.43 -375.71,209.36 -8.65,16.14 -9.38,23.37 -18.6,23.37 -6.61,0 -11.11,-5.54 -10.55,-11.37 -11.45,-9.34 -101.45,-174.11 45.69,-383.45 15.89,-22.66 36.26,-39.66 46.85,-48.82 23.54,-20.39 58.69,-41.43 90.43,-44.59 20.13,-2 31.96,5.61 47.57,17.91 22.64,17.84 70.34,71.29 150.41,159.5 -40.99,-56.73 -31.2,-66.72 5.66,-128.23 16.62,-27.65 21.78,-39.15 33.03,-36.96 8.88,1.67 7.97,8.9 34.56,60.69 19.52,35.85 88.25,139.17 109.46,142.75" style="fill:#b82327;fill-opacity:1;fill-rule:nonzero;stroke:none" id="path38"/>
      <path d="m 4457.74,3978.83 c -14.2,-5.04 -15.46,-18.7 -13.98,-50.5 2.95,-58.51 -1.01,-111.54 -21.57,-169.51 -17.1,-48.29 -40.94,-126.2 -115.4,-194.01 -86.33,-78.76 -111.98,-86.43 -99.63,-100.49 -14.65,-27.07 -59.87,-156.92 -50.73,-186.52 8.17,-26.63 32.3,-2.5 148.97,90.24 57.94,46.09 79.8,67.72 111.28,92.73 47.63,37.91 70.73,45.07 113.39,76.13 170.4,124.12 15.56,473.27 -72.33,441.93" style="fill:#b82327;fill-opacity:1;fill-rule:nonzero;stroke:none" id="path40"/>
      <path d="m 2481.22,3416.45 c -18.04,-9.48 -46.7,-26.74 -59.02,-41.54 -8.29,-9.94 -3.42,-20.18 4.75,-21.62 6.99,-1.21 58.33,9.44 58.97,10.21 40.68,7.2 93.69,12.66 93.69,12.66 5.6,-1.24 6.48,-3.03 12.32,0.2 5.47,3.07 5.95,9.55 4.1,15.61 -25.91,83.76 -51.72,57.47 -114.81,24.48" style="fill:#5dcbf5;fill-opacity:1;fill-rule:nonzero;stroke:none" id="path42"/>
      <path d="m 2932.9,3452.58 c -24.69,6.97 -54.59,10.09 -65.18,12.54 -0.46,2.4 -0.52,2.62 -0.96,4.64 22.87,0.38 45.51,-7.33 66.14,-17.18 z m 32.34,-18.41 c 0.33,-0.23 0.66,-0.46 0.98,-0.69 l -1.04,0.32 c 0.02,0.13 0.05,0.25 0.06,0.37 z m 23,-18.48 c 2.43,-2.12 4.85,-4.25 7.25,-6.41 -3.07,1.04 -6.13,2.08 -9.2,3.11 0.95,1.03 1.66,2.32 1.95,3.3 z m 30.32,-30.25 c 1.05,-1.3 4.74,-6.16 5.74,-7.49 -0.4,0.14 -0.79,0.27 -1.19,0.4 -1.13,3.9 -3.26,4.96 -6.04,6.33 0.52,0.22 1.02,0.47 1.49,0.76 z m -47.35,-8.36 c 52.7,-18.49 82.66,-37.02 81.15,-9.45 -1.6,28.48 -114.86,135.69 -198.3,121.51 -4.06,-1.94 -5.26,-2.19 -7.78,-6.84 -8.59,-5.52 -4.28,-11.29 1.91,-59.26 4.21,-32.26 4.24,-5.1 123.02,-45.96" style="fill:#5dcbf5;fill-opacity:1;fill-rule:nonzero;stroke:none" id="path44"/>
      <path d="m 3748.12,3275.36 c 1.76,-1.5 3.93,-2.34 6.12,-2.46 2.76,-7.26 12.22,-8.62 17.11,-2.72 7.02,0.05 9.3,5.48 12.88,11.61 7.39,12.84 19.38,32.46 28.36,43.67 9.08,11.28 -6.89,27.6 -18.87,11.31 -2.46,1.09 -5.39,1.21 -8.12,0.06 -2.3,1.2 -4.88,1.42 -7.21,0.74 -4.98,3.13 -10.22,1.26 -14.1,-3.19 -10.59,-0.12 -29.73,3.79 -43.43,-0.94 -10.2,-3.49 -13.38,-14.25 -5.75,-22.13 7.77,-8.15 32.71,-35.7 33.01,-35.95" style="fill:#5dcbf5;fill-opacity:1;fill-rule:nonzero;stroke:none" id="path46"/>
      <path d="m 4058.56,3471.47 c -1.92,-0.7 -8.17,-0.15 -10.31,0 -0.49,-3.84 -3.39,-7.01 -8.31,-7.4 -48.15,-38.59 -40.87,-28.14 -52.24,-78.03 -1.66,-4.92 -5.69,-14.73 -4.12,-19.34 1.65,-4.77 6.58,-7.7 11.63,-6.7 3.26,-6.41 11.87,-6.91 15.81,-2.05 8.01,9.9 66.27,99.29 64.34,112.22 -0.13,0.01 -0.26,0.01 -0.4,0.02 0.12,-0.02 0.24,-0.02 0.37,-0.03 -3.84,0.08 -7.25,0.08 -16.77,1.31" style="fill:#5dcbf5;fill-opacity:1;fill-rule:nonzero;stroke:none" id="path48"/>
      <path d="m 4017.56,3515.19 c 0.63,-0.17 1.27,-0.33 1.9,-0.5 l -1.96,-0.19 c 0.02,0.23 0.05,0.46 0.06,0.69 z m 43.86,-12.04 c 0.01,0 0.01,0 0.03,-0.01 h -0.03 z m -95.41,4 c 10.59,-2.07 88.62,-23.14 111.41,-19.95 4.91,5.82 12.56,12.65 12.02,19.6 -1.29,16.79 -49.8,20.09 -87.94,33.66 -2.61,0.94 -6.83,2.58 -9.6,2.58 -7.55,0 -13.07,-8.23 -9.36,-15.14 -9.45,-7.19 -20.23,-9.49 -16.53,-20.75" style="fill:#5dcbf5;fill-opacity:1;fill-rule:nonzero;stroke:none" id="path50"/>
      <path d="m 3598.72,3450.74 c -2.38,-6.13 2.09,-12.86 8.78,-12.8 1.66,-3.76 3.15,-7.42 1.99,-11.36 0,-0.01 0,-0.01 0,-0.01 0,-3.04 -1.47,-2.53 0.02,-6.63 1.77,-4.91 7.75,-8.49 12.9,-6.28 2.56,1.08 3.1,1.71 5.22,3.52 59.34,51.34 86.08,54.1 76.11,69.04 -2.16,3.26 -6.06,4.91 -9.79,4.5 0.17,2.49 -0.63,5.05 -2.45,7.05 4.52,9.09 12.35,19.32 5.34,26.07 1.55,5.03 -1.1,11.23 -5.73,13.14 8.17,8.43 2.01,17.49 -5.48,17.49 -6.08,0 -8.57,-3.06 -13.27,-6.54 -68.45,-51.05 -80.47,-64.81 -81.34,-80.77 -6.81,-8.54 -0.24,-17.06 7.7,-16.42" style="fill:#5dcbf5;fill-opacity:1;fill-rule:nonzero;stroke:none" id="path52"/>
      <path d="m 3756.94,3599.5 c 6.86,-4.26 13.97,1.36 21.18,5.01 0.86,-4.87 5.04,-8.22 9.85,-8.33 1.91,-7.51 11.01,-10.37 16.4,-6.31 62.7,47.07 107.65,54.01 118.24,58.67 10.69,4.66 8.84,17.99 -2.53,20.59 -6.3,1.42 -41.66,-8.6 -47.93,-10.63 -5.05,5.13 -14.18,2.65 -20.9,0.32 -5.64,10.59 -20.16,2.27 -37.97,-5.79 -6.97,1.96 -16.36,-3.39 -22.7,-6.61 -5.03,-2.48 -62.87,-31.92 -67.29,-35.94 -2.48,-2.24 -2.92,-6.57 -1.88,-9.56 3.64,-10.6 16.08,-5.95 35.53,-1.42" style="fill:#5dcbf5;fill-opacity:1;fill-rule:nonzero;stroke:none" id="path54"/>
      <path d="m 3009.6,3183.87 c -0.02,0.02 -0.03,0.05 -0.05,0.06 0.55,0.47 1.1,0.94 1.65,1.41 -0.53,-0.5 -1.07,-0.97 -1.6,-1.47 z m -1.07,395.63 c 0.05,-0.03 0.11,-0.07 0.16,-0.1 -0.07,0.04 -0.17,0.11 -0.16,0.1 z m 96.34,-195.05 c 7.8,46.41 15.17,53.69 28.26,114.07 3.16,14.41 3.51,18.32 -12.51,27.55 -2.57,11.51 -10.46,13.27 -16.07,9.2 -2.36,1.37 -4.7,2.77 -7.06,4.15 -1.4,3.85 -4.95,6.75 -10.17,5.97 -43.54,25.62 -92.55,53.93 -140.3,76.65 -2.08,2.22 -3.81,3.92 -7.54,3.76 -48.36,25.7 -36.44,22.78 -108.53,62.65 -4.02,2.21 -9.47,0.89 -12.43,-2.54 -0.87,-1.01 -1.54,-2.23 -1.97,-3.54 -1.13,-0.6 -2.15,-1.39 -2.98,-2.35 -3.5,-4.06 -3.9,-10.28 1.12,-15.21 44.52,-43.77 129.76,-140.36 121.59,-131.64 16.32,-17.4 43.91,-22.85 119.71,-122.47 -1.16,-5.15 -3.57,-14.17 -0.61,-18.52 3.18,-4.69 10.12,-5.61 14.28,-0.54 2.12,-3.1 4.07,-6.31 5.96,-9.55 -1.28,-2.34 -1.26,-5.05 -0.34,-7.45 -1.96,-0.41 -3.85,-1.16 -5.34,-2.61 -9.1,-8.82 1.52,-17.01 10.17,-26.13 -24.47,-79.98 -76.53,-132.17 -216.17,-221.55 -25.54,-16.35 -92.31,-54.09 -129.69,-72.67 -2.62,-2.07 -5.26,-4.13 -7.9,-6.18 58.18,6.7 25.07,3.18 83.03,8.71 0,0.01 0,0.01 0.01,0.01 8.02,0.76 16.04,1.55 24.04,2.46 131.81,60.4 202.26,109.2 245.13,177.79 55.87,89 45.2,96.24 13.42,130.12 10.11,0.25 11.23,10.1 12.89,19.86" style="fill:#5dcbf5;fill-opacity:1;fill-rule:nonzero;stroke:none" id="path56"/>
      <path d="m 4251.46,3830.71 c 4.8,0 7.63,2.33 10.95,5.59 72.46,71.26 73.53,70.28 66.37,104.54 -23.62,114.01 -34.2,160.29 -13.38,260.2 4.76,0.08 8.7,3.74 9.39,7.1 6.63,32.61 13.58,36.9 -4.38,51.66 -31.19,25.83 -88.98,54.16 -109.56,39.79 -16.12,-9.67 -7.75,-30.14 1.29,-104.41 11.03,-90.37 5.38,-51.15 9.68,-89.7 25.26,-227.91 2.99,-274.77 29.64,-274.77" style="fill:#5dcbf5;fill-opacity:1;fill-rule:nonzero;stroke:none" id="path58"/>
      <path d="m 4241.51,3736.81 c 1.16,12.39 5.53,22.94 11.43,33.91 -3.69,-10.59 -4.99,-14.63 -11.43,-33.91 z m 3.23,-55.44 c -0.06,0.71 -0.12,1.42 -0.19,2.13 0.19,-0.28 0.38,-0.56 0.6,-0.82 -0.14,-0.44 -0.27,-0.87 -0.41,-1.31 z m -1.04,11.63 c -0.1,1.15 -0.21,2.29 -0.31,3.44 0.33,0.05 0.66,0.11 0.98,0.19 -0.23,-1.21 -0.45,-2.42 -0.67,-3.63 z m 95.24,192.25 c -7.43,-10.74 -14.56,-21.73 -21.12,-33.04 -4.82,0.16 -7.92,-2.68 -9.76,-7.14 -1.69,-0.1 -3.26,-0.65 -4.66,-1.5 -0.14,0.11 -0.29,0.23 -0.44,0.34 0.64,1.53 1.27,3.06 1.9,4.6 2.54,6.24 -3.16,14.59 -12.05,12.91 -7.19,-1.35 -12.13,-10.91 -16.41,-17.05 -58.96,-84.46 -58.29,-94.38 -53.72,-141.67 4.96,-51.44 8.59,-118.2 8,-112.99 0.15,-3.01 0.11,-5.15 1.41,-7.58 2.06,-5.27 8.22,-7.45 12.51,-6.42 15.46,3.69 22.2,94.65 48.59,170.75 19.02,55.15 38.31,90.96 63.76,127.4 7.51,10.79 -9.54,23.61 -18.01,11.39" style="fill:#5dcbf5;fill-opacity:1;fill-rule:nonzero;stroke:none" id="path60"/>
      <path d="m 1808.28,4003.19 c -1.36,16.69 -0.36,26.74 -12.22,26.74 -6.63,0 -11.39,-5.89 -10.99,-10.6 0.22,-2.68 0.45,-5.35 0.69,-8.02 -1.8,-4.1 -0.82,-6.48 0.96,-10.53 2.54,-27.8 10.27,-186.69 -11.66,-240.45 l 0.06,0.11 c -25.69,-55.21 -72.97,-80.53 -89.57,-78.58 -5.75,1.3 -5.15,2.28 -10.99,1.67 -6.79,-0.7 -12.35,-7.81 -7.57,-20.62 5.42,-14.5 36.99,-81.86 70.29,-102.9 18.52,-11.69 43.13,-14.51 65.84,-0.23 68.43,42.73 68.89,204.38 59.47,282.3 -7.46,61.08 -27.66,106.2 -54.31,161.11" style="fill:#5dcbf5;fill-opacity:1;fill-rule:nonzero;stroke:none" id="path62"/>
      <path d="m 1551.55,3952.89 c 149.49,0 63.06,429.64 0.48,483.25 -5.34,12.06 -24.05,5.51 -20.3,-7.56 15.54,-69.14 34.75,-227.1 17.36,-289.99 -17.41,-62.12 -51.34,-89.38 -77.82,-96.54 -9.99,-2.82 -13.4,-9.2 -11.13,-17.57 5.18,-19.15 49.27,-71.59 91.41,-71.59" style="fill:#5dcbf5;fill-opacity:1;fill-rule:nonzero;stroke:none" id="path64"/>
      <path d="m 1638.54,2356.65 c 15.62,-4.43 28.31,4.14 21.16,29.28 -1.76,6.26 -74.17,198.61 -100.94,301.28 l 0.02,-0.37 c -32.83,135.22 -26.21,174.61 -31.83,223.11 -0.8,6.68 -3.95,9.81 -7.87,11.45 -5.94,2.68 -11.38,-1.06 -16.16,-5.44 -32.41,-29.41 -141.2,-119.25 -95.24,-125.42 -17.56,-98.18 -17.61,-155.41 -8.97,-236.32 6.52,-60.53 8.82,-54.93 33.79,-75.34 36.66,-29.95 55.19,-41.82 76.46,-56.81 47.56,-33.57 107.22,-59.02 129.58,-65.42" style="fill:#5dcbf5;fill-opacity:1;fill-rule:nonzero;stroke:none" id="path66"/>
      <path d="m 1741.97,2243.51 c -5.27,33.28 -4.4,37.24 -9.22,41.27 -6.66,33.23 -13.32,45.2 -29.24,41.56 -28.44,-6.6 -105,-42.15 -115.77,-47.21 -42.11,-19.66 -73.54,-32.84 -81.93,-52.8 -4.37,-10.36 0.1,-16.73 6.19,-28.73 52.79,-104.74 91.42,-178.09 91.42,-178.09 34.22,-68.15 45.78,-78.09 79.67,-140.21 47.62,-87.33 55.51,-107.2 102.81,-76.05 14.84,9.76 41.53,33.34 52.16,49.92 14.55,22.68 8.82,35.05 3.92,46.55 -20.7,48.98 -62.18,104.55 -100.01,343.79" style="fill:#5dcbf5;fill-opacity:1;fill-rule:nonzero;stroke:none" id="path68"/>
      <path d="m 2011.35,5116.43 c 1.69,-6.11 9.88,-9.18 14.75,-6.47 3.26,1.83 5.99,3.26 8.61,4.51 177.64,-26.87 182.51,-25.29 229.52,-36.65 468.96,-128.11 591.67,-429.78 864.76,-501.48 l -0.52,0.19 c 0.75,-0.2 7.76,-2.09 8.45,-2.22 l -0.01,-0.03 c 146.87,-38.05 264.75,59.7 353.59,181.81 16.01,22 21.28,31.79 27.2,43.6 17.79,35.51 46.56,120.78 53.05,143.33 32.18,111.8 15.11,194.95 -17.99,157.23 -165.89,-188.37 -537.28,-189.79 -781.14,-102.39 -65.41,23.59 -369.1,157.38 -670.78,149.39 -20.23,-0.49 -53.55,-3.47 -71.73,-11.22 -5.77,0.63 -17.32,2.17 -21.7,-1.33 -6.97,-5.62 -3.94,-16.46 3.94,-18.27" style="fill:#5dcbf5;fill-opacity:1;fill-rule:nonzero;stroke:none" id="path70"/>
      <path d="M 4097.33,648.742 C 3913.23,639.719 3778.44,620.371 3281.92,854.949 3029.75,974.23 2266.27,1544.28 2133.26,1550.07 v -0.03 l -0.07,0.03 c -34.6,-0.92 -53.91,-48.08 -73.34,-91.12 -49.09,-108.31 -52.65,-107.28 -54.08,-126.17 -9.48,-8.62 -17.26,-33.76 -3.04,-37.54 2.78,-0.73 5.75,-0.33 8.22,1.11 5.6,3.21 4.94,7.64 6.56,14.07 5.45,-1 11.88,4.32 11.49,11.16 9.56,2.46 18.89,1.81 28.64,0.6 252.36,-39.96 942.97,-663.598 1830.19,-696.328 161.31,-6.2 184.97,-18.411 179.98,2.347 19.28,0.653 68.68,3.731 94.47,3.731 14.06,-0.051 16.46,11.031 10.35,17.179 -5.07,5.102 -6.83,3.043 -75.3,-0.367" style="fill:#5dcbf5;fill-opacity:1;fill-rule:nonzero;stroke:none" id="path72"/>
      <path d="m 2721.28,3340.26 c 8.45,0 17.78,1.81 23.71,7.79 3.81,2.09 10.38,12.48 10.81,14.62 19.49,38.14 -1.38,84.72 -39.09,84.96 -57.63,0 -69.8,-107.37 4.57,-107.37" style="fill:#111011;fill-opacity:1;fill-rule:nonzero;stroke:none" id="path74"/>
      <path d="m 2552.94,3421.33 c -2.28,-34.67 5,-68.2 26.94,-97.68 l 0.1,-0.07 c -59.38,15.61 -124.67,44.19 -135.26,48.46 0,0 31.93,24.9 108.22,49.29 z m 75.78,94.95 c 1.23,0.14 2.5,0.57 3.77,1.28 6.06,1.43 43.93,6.06 72.38,7.37 217.82,10.49 255.93,-27.08 321.37,-94.67 -86.16,56.75 -106.75,69.13 -177.05,75.63 -64.92,8.29 -120.96,-13.34 -156.37,-19.55 -10.59,-1.84 -118.89,-17.33 -166.02,-31.99 29,19.8 78.91,49.76 101.92,61.93 z m 236.84,-165.67 c 11.96,32.65 12.55,84.24 -1.7,113.66 11.94,-4.59 74.57,-1.55 161.54,-95.31 -11.81,0 -128.17,-13.25 -159.84,-18.35 z m -124.82,110.02 0.99,-0.27 0.38,0.14 c 0,0 39.9,5.4 48.77,6.1 23.86,-22.63 31.06,-91.51 -5.45,-131.07 -25.21,-5.07 -62.49,-13.87 -97.15,-19.43 -52.94,30.68 -76.98,84.83 -74.15,117.49 0.83,1.13 1.43,2.41 1.76,3.8 10.79,2.21 58.45,13.51 125.87,22.96 z m 217.77,-155.24 c -157.35,-89.17 -341.05,-75.51 -464.89,3.35 10.59,-4.18 121.76,-43.45 192.76,-43.45 90.79,0 67.32,17.14 295.23,52.9 -8.98,-4.79 -14.65,-8.02 -23.1,-12.8 z m -17.31,487.68 c -74.43,55.36 -160.67,94.64 -206.41,106.15 -41.04,9.97 -63.05,14.96 -161.74,2.07 -149.69,-19.67 -202.99,-110.12 -242.65,-162.51 -10.11,-13.53 -19.91,-26.33 -29.59,-43.07 -13.09,-22.49 -18.7,-40.97 -21.49,-61.63 -1.1,-7.18 6.18,-13.85 13.73,-11.63 4.2,-0.53 8.55,-0.79 12.91,-0.79 36.5,0 91.97,30.49 123.14,49.41 110.8,67.31 154.75,141.49 310.9,38.3 -35.21,-2.77 -200.65,-64.95 -286.91,-168.96 -28.2,-35.94 -69.81,-87.34 -59.14,-129.78 0.68,-3.33 3.33,-8.74 7.03,-12.12 -1.77,-4.69 -5.8,-22.14 -4.81,-27.28 -16.51,-154.07 347.4,-326.71 602.91,-138.99 36.24,26.54 60.63,52.89 72.93,71.7 4.04,6.17 27.28,44.37 26.06,51.64 8.49,19.73 1.05,36 -5.96,49.31 -82.41,154.4 -210.99,159.51 -370.87,159.83 -153.64,0 -144.79,-14.3 -272.64,-120.72 20.46,20.47 100.94,213.57 398.64,191.06 233.83,-156.58 222.49,-162.96 252.54,-160.06 22.47,2.2 35.34,4.28 58.64,35.13 16.73,21.98 24.09,36.09 21.68,70.16 -4.13,56.63 -93.43,105.32 -238.9,212.78" style="fill:#111011;fill-opacity:1;fill-rule:nonzero;stroke:none" id="path76"/>
      <path d="m 3816.68,3454.16 c 10.98,-5.97 48.21,6.87 56.43,34.99 6.15,21 -1.33,45.7 -21.74,59.47 -29.24,19.65 -63.04,2.83 -73.48,-15.94 -18.49,-33.33 9.83,-75.16 38.79,-78.52" style="fill:#111011;fill-opacity:1;fill-rule:nonzero;stroke:none" id="path78"/>
      <path d="m 3851.39,804.531 c -30.21,2.219 -62.5,4.758 -93.89,8.34 -56.85,6.391 -72.89,9.5 -99.29,15.008 -719.68,162.601 -1077.7,555.371 -1341.31,713.801 -36.63,22.05 -162.01,110.69 -176.7,87.57 -41.71,-4.34 -63.62,-11.54 -181.77,-309.66 -49.76,-125.33 -37.96,-73.1 -87.4,-211.1 24.84,142.24 55.54,219.34 63.43,247.83 l 0.03,-0.01 c 0,0 70.72,202.02 93.15,264.56 47.52,132.46 125.53,300.56 90.33,378.53 -4.42,9.93 -15.23,20.54 -24.06,13.66 -2.54,-0.26 -11.99,-5.87 -14.72,-7.25 -10.59,-5.43 -133.03,-59.07 -303.32,-161.04 -21.63,28.76 -36.53,41.18 -92.57,153.91 -42.06,84.15 -87.41,189.74 -119.55,235.3 111.04,-2.48 418.94,-29.44 418.94,-29.44 -134.99,97.47 -243.49,237.98 -300.5,369.32 -13.48,31.05 -25.9,72.46 -34.99,104.84 l 0.22,-0.49 c 72.31,-50.14 160.04,-77.15 228.63,-79.46 90.4,-281.38 300.66,-509.62 527.49,-696.4 -19.09,-109.86 -7.46,-182.71 -0.44,-227.18 17.67,-112.37 145.26,-216.88 237.1,-283.81 380.28,-277.72 512.55,-263.92 1396.41,-528.399 72.24,-21.648 123.92,-35.941 194.82,-63.18 -113.51,-9.968 -122.04,-14.172 -380.04,4.75 z M 1680.73,1654.9 c -16.97,61.03 208.61,178.21 267.03,211.67 C 1809.11,1694.9 1698.14,1616.41 1680.73,1654.9 Z M 1255,2787.69 c 17.26,-14.84 47.83,-30.95 71.64,-32.69 33.64,-2.32 65.54,18.02 91.04,36.18 19.62,14 70.84,54.65 87.83,69.46 -10.08,-44.2 -10.26,-266.71 97.82,-439.34 -167.61,58.07 -307.67,218.95 -348.33,366.39 z m -23.27,483.72 c 7.84,10.98 190.27,258.72 375.67,433.38 9.06,-131.82 159.52,-257.31 244.74,-166.43 40.68,42.61 79.89,94.75 36.99,291.38 -3.57,16.2 -5.74,21.99 -8.42,32.58 -23.36,84.44 -58.46,201.92 -116.82,201.92 -9.62,0 -14.37,-12.19 -8.27,-18.57 0.12,-20.76 91.92,-191.43 67.84,-341.41 -5.17,-31.09 -25.46,-106.7 -56.82,-108.22 -53.82,1.03 -99.48,138.51 -104.7,182.12 -3.88,37.08 -8.62,39.81 -85.42,-10.4 -76.87,-49.91 -237.48,-234.26 -292,-298.25 -5.08,1.79 -10.48,3.46 -15.64,5.07 -97.17,29.75 -141.51,108.76 -134.21,134.53 9.59,26.32 76.82,109.71 85.75,120.32 68.21,81.59 185.42,201.84 207.9,221.97 0.26,-2.54 8.59,-16.6 10.1,-18.84 23.73,-35.49 43.9,-51.86 87.67,-54.57 56.67,-2.73 103.41,36.24 127.85,87.69 78.8,165.64 -63.2,435.32 -85.97,461.26 -12.26,14 -29.86,34.55 -54.72,50.78 6.6,-33.08 101.38,-205.58 83.49,-380.37 -10.79,-113.23 -92.37,-134.64 -127.48,-4.61 -0.68,2.49 -3.11,4.59 -5.23,5.58 -6.94,16.53 -24.2,-1.52 -54.68,-26.64 -77.19,-63.04 -174.92,-178.66 -228.92,-241.16 -1.09,10.59 -56.84,299.09 13.72,557.93 1.75,6.66 5.92,23.32 7.61,30.04 73.2,312.87 242.69,669.78 524.42,861.45 176.23,119.81 318.97,185.44 578.68,224.22 l -2.24,0.45 c 0,0 174.75,22.73 335.52,17.45 10.6,-0.36 480.33,3.44 632.48,-45.99 262.51,-95.02 314.28,-229 284.47,-442.05 -15.01,-104.44 -56.31,-197.81 -75.43,-239.56 -15.21,-33.57 -45.16,-71.81 -69.9,-97.17 -37.73,-39.49 -65.34,-47.29 -90.62,-56.75 -117.56,-41.89 -237.89,38.42 -366.5,125.75 l 0.61,-1.24 c -199.51,150.94 -691.64,445.7 -975.69,369.48 -11.05,-2.95 -22.05,-6.11 -35.66,-10.24 -32.32,-9.52 -76.72,-23.38 -106.69,-38.19 -61.71,-29.97 -183.87,-112.22 -240.81,-216.25 -28.57,-51.99 -68.45,-247.21 2.6,-403.21 16.04,-36.24 41.61,-71.09 68.97,-117.1 93.95,-158.63 215.87,-256.35 257.52,-480.33 13.58,-84.52 9.69,-162.99 11.38,-201.3 3.21,-65.2 -2.86,-72.5 -21.49,-141.38 -31.35,-115.96 -45.82,-106.16 -89.32,-177.96 -63.99,-104.1 -186.65,-236.32 -224.57,-284.13 -62.86,-79.92 -145.61,-162.99 -231.28,-221.12 -177.18,106.19 -224.67,304.61 -136.48,428.09 z M 1854,2665.7 c -127.88,2.03 -261.1,108.4 -294.92,247.36 6.17,4.55 41.75,41.25 66.09,65.06 63.73,61.97 77.11,79.84 139.01,148.01 3.15,-39.42 31.15,-257.67 89.82,-460.43 z M 3264.35,1190.39 c -429.2,185.67 -667.51,389.42 -697.27,448.06 -15.28,39.05 -4.08,65.31 18.44,129.45 27.78,-17.86 263.06,-196.37 510.56,-260.87 242.63,-79.32 263.05,-95.98 456.84,-129.89 -37.71,-73.06 -97.13,-246.48 -101.77,-260.29 -68.27,20.96 -183.13,71.91 -183.13,71.91 -0.76,0.38 -2.54,1.09 -3.78,1.69 z m 490.32,2134.46 c 48.61,0.6 104.2,4.34 167.6,33.64 79.02,35.51 117.86,74.29 136.67,93.75 -3.57,-4.4 -2.62,-3.49 -6.15,-8.16 -79.96,-106.33 -241.89,-145.37 -297.79,-149.63 -0.37,0.6 -26.6,30.23 -27.07,30.74 0.88,-0.88 25.48,-0.35 26.74,-0.34 z m 165.62,225.21 c 3.2,-6.05 3.97,-7.09 5.38,-15.19 14.77,-143.52 -241.3,-165.95 -185.87,31.58 10.59,-1.81 84.74,19.2 180.49,-16.39 z m 135.01,-47.97 -1.76,-0.68 c -10.45,-10.58 -60.93,-83.55 -164.56,-118.94 47.9,23.2 90.58,71.06 102.73,139.32 -0.33,-2.35 45.84,-16.18 48.35,-16.75 5.78,-1.37 10.77,-2.33 15.24,-2.95 z m -309.4,109.31 c 3.94,3.87 13.32,12.87 22.51,21.43 139.92,36.22 300.6,-9.8 308.5,-91.52 l -0.29,0.6 c -96.79,11.9 -205.1,92.59 -330.72,69.49 z m -70.01,-85.43 c 15.97,-131.78 107.64,-166.86 176.67,-155.37 -38.53,-9.7 -122.19,-9.02 -162.79,-3.84 -19.8,23.28 -60.46,62.59 -94.66,111.05 25.9,2.88 57.84,36.98 80.14,60.21 -0.36,-4.05 0.15,-7.97 0.64,-12.05 z m -46.47,1688.9 c 296.25,-255.63 475.36,-488.99 533.41,-1051.49 47.63,-470.6 -30.39,-1049.86 -142.89,-1219.44 -5.6,10.6 -78.44,131.16 -171.06,244.29 10.6,2.91 67.57,32.64 99.5,59.45 44.21,37.8 87.23,87.86 122.91,147.37 15.75,25.3 52.73,53.89 50.76,117.98 0.59,0 2.17,1.49 2.6,1.9 8.9,8.83 15.52,33.08 3.62,63.9 -3.34,8.7 -12.7,20.78 -18.46,28.22 -59.52,74.06 -188.59,78.38 -282.96,71.02 l -0.21,-0.64 c -0.14,0.86 -10.72,-0.25 -11.59,-0.33 l 2.28,0.42 c 17.43,12.17 16.56,22.92 122.41,90.83 65.3,41.46 71.5,25.59 140.29,-0.95 10.59,-4.02 25.32,-9.9 38.84,-17.95 4.12,-2.24 5.74,-4.87 10.34,-4.87 5.23,0 10.01,3.74 11.09,8.16 25.26,-2.34 -47.4,222.91 -189.15,215.74 l 0.27,-1.15 c -3.3,4.83 -59.77,-12.69 -65.28,-14.71 -182.47,-65.72 -357.69,-226.41 -377.96,-279.67 -2.15,0 -6.74,-5.15 -6.6,-9.58 0.01,-0.27 0.38,-12.55 0.4,-12.83 0.03,-0.57 0.07,-1.37 0.1,-1.83 0.81,-20.06 1.58,-33.53 5.87,-55.54 18.25,-87.77 41.65,-107.14 60.69,-132.08 225.32,-295.63 295.38,-299.18 429.57,-589.53 l 1.06,0.14 c 16.86,-52.64 46.7,-75.84 112.89,-318.34 -1.71,0 -2.9,-0.34 -4.52,-1.93 -76.09,-59.35 -162.5,-38.59 -212.8,12.99 -62.49,64.28 -36.78,105.46 -222.62,88.95 -105.43,-9.49 -201.75,78.09 -102.58,155.25 29.44,21.2 38.49,7.23 33.56,46.77 -2.93,22.19 -9.11,58.51 -11.26,69.3 -3.97,19.01 -2.05,22.85 -9.05,26.39 -105.74,-25.29 -253.01,-325.68 61.85,-371.42 29.58,-3.99 53.93,-2.75 67.44,-3.99 25.92,-2.98 27.9,-29.29 74.01,-79.36 50.57,-53.71 64.89,-63.24 105.51,-83.51 74.93,-37.77 173.24,-49.88 236.36,27.68 5.56,6.73 4.01,7.08 4.83,0.41 14.8,-123.81 13.13,-215.96 13.09,-211.48 0,0 -22.46,20.11 -44.16,47.1 -22.28,27.85 -34.15,18.32 -57.69,-8.55 -4.07,-4.45 -12.62,-14.9 -17.65,-18.13 -139.92,56.48 -44.11,46.01 -212.43,-29.81 -13.44,-6.03 -29.12,-12.93 -46.21,-18.98 -30.49,-10.89 -27.48,-12.91 -62.08,-25.16 -152.05,74.35 -152.78,139.29 -200.92,139.29 -48.05,13.36 -134.81,-103.75 -118.25,-134.92 8.35,-16.84 32.9,-30.88 69.06,-0.1 27.83,24.15 52.86,55.64 63.9,71.62 0.52,-1.73 7.16,-12.51 8.16,-14.18 15.96,-26.57 22.59,-35.64 36.44,-47.36 -0.79,-0.15 -1.51,-1.12 -2.11,-2.83 -3.2,-8.06 -1.97,-16.06 -0.32,-24.47 22.58,-108.96 109.08,-95.69 212.15,-137.54 27.08,-11.72 15.94,-13.21 18.79,-31.64 11.98,-72.46 94.64,-71.41 175.19,-84.9 60.53,-8.78 109.73,-14.56 170.51,-5.85 l -0.98,-1.58 c -9.91,-55.73 -28.64,-106.37 -49.41,-158.78 -8.47,34.76 -109.69,138.23 -239.18,120.65 -18.08,-2.72 -36.03,-6.75 -54.86,-12.33 -107.17,-30.7 -226.91,-139.45 -235.61,-161.14 -9.26,-10.02 5.3,-24.14 14.83,-16.18 24.98,21.59 171,120.58 270.81,128 25.27,2.05 53.91,2.27 79.26,-1.71 59.58,-9.03 99.06,-26.93 114.33,-85.38 8.5,-40.17 -7.64,-83.35 -18.06,-112.45 -24.31,-68.03 -75.18,-99.7 -139.72,-131.87 -14.88,-7.75 -36.16,-16.24 -62.36,-23.2 -119.5,-26.86 -341.29,22.89 -466.33,53.91 -224.53,56.93 -589.61,234.33 -787.59,351.12 -1.2,7.05 -4.2,5.29 -55.24,34.54 -1.91,1.09 -3.79,2.17 -5.7,3.27 -320.58,231.89 -492.42,495.49 -611.8,864.21 -60.38,202.04 -88.74,402.05 -89.88,412.68 160.96,180.75 169.31,223.54 196.34,293.21 l 0.04,0.48 c 4.59,7.4 30.71,88.73 39.7,127.01 5.56,23.82 8.32,46.74 9.84,70.52 12.83,205.47 -45.08,358.35 -123.64,518.79 -118.31,241.9 -262.36,333.51 -259.16,574.02 1.76,43.91 8.3,79.6 13.71,90.19 23.53,44.07 57.43,81.49 94.56,114.25 142.09,116.36 349.24,128.7 516.67,66.68 60.02,-22.16 78.28,-31.32 88.87,-36.09 225.71,-105.19 232.22,-85.59 397.85,-216 30.42,-23.95 60.98,-45.12 87.27,-67.69 18.01,-14.72 33.49,-28.38 66.21,-51.7 53.96,-38.85 121.19,-90.02 227.12,-104.98 67.19,-9.22 99.98,-0.19 118.97,4.64 280.65,69.94 385.09,438.45 354.2,664.78 z m 522.25,-3061.43 c 0.16,-0.78 4.08,-8.95 4.42,-9.66 -1.76,3.4 -33.36,5.89 -37.27,5.89 -26.88,0 -39.02,-8.82 -51.89,-13.02 l -0.33,0.09 c -28.92,-1.39 -79.43,59.2 -124.22,42.26 -64.29,-22.76 -35.74,-54.89 -160.4,-26.5 0.05,0 1.78,-0.26 1.82,-0.26 195.62,91.22 111.96,117.15 226.73,43.55 22.89,-15.2 27.98,0.56 45.71,27.61 2.88,4.09 5.42,7.45 8.44,10.55 9.84,-24.76 63.06,-66.12 86.99,-80.51 z m 31.98,-69.37 c 1.86,-4 4.75,-9.74 6.09,-13.65 0.7,-2.27 1.21,-3.92 2.98,-5.89 -0.97,-10.59 1.09,-15.19 -1.74,-29.55 -6.46,-34.19 -36.41,-45.47 -68.89,-51.68 -54.92,-10.23 -226.81,-2.78 -251.28,22.68 -19.65,24.03 -19.41,56.2 -36.45,75.73 0.34,-0.33 0.85,-0.45 1.38,-0.56 49.57,-8.71 65.84,18.04 93.27,37.84 40.01,28.3 63.59,-25.16 128.83,-35.61 33.76,-3.49 63.24,26.5 102.23,13.39 13.22,-5.28 18.62,-8.95 23.58,-12.7 z m 42.62,1350.42 -0.03,0.01 c 14.75,96.42 30.6,254.01 32.41,348.13 10.58,9.14 39.51,47.02 159.65,146.78 15.46,12.73 20.84,18.9 40.49,14.47 85.52,-27.95 143.77,-190.19 66.9,-319.38 -46.84,-75.99 -196.31,-187.2 -316.16,-284.26 6.56,27.22 12.44,66.08 16.74,94.25 z m 178.63,552.7 c -10.59,-5.57 -106.15,-79.19 -146.03,-120.19 -0.5,149.71 -9.73,266.52 -30.89,410.78 10.3,-10.58 155.45,-94.85 176.92,-290.59 z M 3919.64,998.629 c -111.02,32.491 -143.87,35.701 -313.64,78.841 15.05,61.35 71.2,215.63 108.88,278.55 135.05,-4.71 240.13,45.01 305.4,117.45 15.58,17.21 29.69,41.39 47.76,70.5 7.79,12.19 37.07,54.43 37.07,104.9 40.86,85.88 74.5,178.3 90.23,272.93 36.65,16.09 66.39,79.26 24.86,167.15 32.3,112.37 0.23,354.11 -33.69,470.64 -32.93,115.58 -85.52,244 -135.34,332.45 74.34,126.77 104.18,212.12 139.29,356.06 103.46,97.36 310.87,221.24 373.51,299.01 25.59,32.2 43.33,74.53 50.52,111.06 15.19,67.24 -2.05,132.42 -6.94,162.89 -7.23,45.93 -14.24,51.57 -26.8,76.62 -16.84,31.18 -41.59,63.49 -52.18,71.88 -7.19,10.59 -34.66,32.52 -64.4,35.15 4.77,14.24 -11.87,119.44 -82.97,213.93 -34.24,45.09 -77.35,95.81 -164.71,131.07 l 0.11,0.36 c -1.97,16.27 -21.5,125.79 -51.74,220.18 -28.52,88.53 -59.61,151.27 -91.4,212.85 -130.54,259.35 -337.44,415.44 -470.61,521.14 -21.1,42.75 -70.56,105.33 -102.71,131.05 -22.31,17.7 -56.2,41.31 -115.58,75.16 -48.2,27.84 -82.25,42.93 -136.08,52.14 -223.66,36.62 -384.49,59.68 -540.63,56.17 -498.61,-12.79 -970.06,-157.21 -1267.29,-550.17 -157.28,-207.37 -175.47,-296.75 -255.95,-515.68 -1.02,-2.7 -0.02,-5.82 0.46,-7.04 -9.48,-16.63 -124.89,-443.06 -57.96,-777.42 -35.43,-39.93 -26.93,-29.84 -60.26,-68.45 -1.57,-10.59 -8.07,-54.25 -6.88,-65.05 11.71,-99.27 62.57,-204.72 156.49,-250.94 -143.78,-181.01 -181.66,-351.35 -38.53,-526.54 25.1,-177.79 131.49,-349.9 343.03,-478.61 -35.61,0.17 -172.09,-49.21 -178.02,-61.2 -1.16,-2.35 -1.43,-5.07 -0.73,-7.67 -10.53,-25.93 66.57,-349.73 296.48,-569.03 -53.16,-52.65 -24.61,-150.27 44.17,-150.27 72.13,0 204.62,115.05 258.19,171.71 -136.43,-480.45 -168.59,-755.25 -165.97,-791.259 3.78,-48.911 62.85,-39.84 90.56,-23.711 35.29,20.679 43.22,51.929 73.56,143.5 10.89,32.72 84.68,203.99 101.07,232.58 l -0.39,-0.34 c 26.6,51.36 30.82,75.74 66.4,151.8 154.28,-9.08 385.45,-339.06 926.15,-608.029 13.58,-6.781 21.94,-11.019 42.92,-20.839 380.94,-178.821 808.46,-299.321 1225.35,-221.813 141.6,26.281 309.88,93.231 317.49,104.582 3.59,1.688 4.44,3.809 5.67,6.731 20.51,74.269 -354.98,160.937 -704.22,263.027" style="fill:#111011;fill-opacity:1;fill-rule:nonzero;stroke:none" id="path80"/>
      <path d="m 2715.82,3448.72 c 0,-8.47 -6.86,-15.34 -15.33,-15.34 -8.47,0 -15.33,6.87 -15.33,15.34 0,8.46 6.86,15.33 15.33,15.33 8.47,0 15.33,-6.87 15.33,-15.33" style="fill:#ffffff;fill-opacity:1;fill-rule:nonzero;stroke:none" id="path82"/>
      <path d="m 3873.27,3513.21 c 0,-8.47 -6.86,-15.33 -15.33,-15.33 -8.47,0 -15.33,6.86 -15.33,15.33 0,8.47 6.86,15.33 15.33,15.33 8.47,0 15.33,-6.86 15.33,-15.33" style="fill:#ffffff;fill-opacity:1;fill-rule:nonzero;stroke:none" id="path84"/>
    </g>
  </g>
</svg>