<?xml version="1.0" encoding="utf-8"?>
<svg version="1.1" id="svg2" width="567.93335" height="736.67999" viewBox="59.756 -0.005 508.172 670.112" xmlns="http://www.w3.org/2000/svg">
  <g id="g8" transform="matrix(1.3333333,0,0,-1.3333333,0,736.68)">
    <g id="g10" transform="scale(0.1)">
      <path d="m 2418.86,2795.34 c 138.14,39.11 566.55,138.54 587.82,119.14 1.14,-0.27 2.24,-0.68 3.29,-1.18 1.05,0.05 2.1,0.08 3.15,0.11 -23.17,154.94 -76.8,486.62 -122.85,648.41 -1.42,-17.88 -1.52,-19.78 -4.37,-58.29 1.92,-20.75 4.52,-29.65 -2.39,-36.87 -3.74,-68.45 11.57,-69.56 4.11,-208.99 -3.22,-61.27 -28.35,-180.05 -36.08,-190.59 -5.72,-9.69 -20.24,-10.96 -27.78,-2.73 -6.83,7.49 -14.32,18.03 -21.75,25.63 -34.5,35.31 -52.72,36.94 -47.41,66.01 15.32,88.21 7.97,437.18 -77.32,580.95 -4.67,-2.72 -33.45,-20.76 -36.85,-24.41 -10.37,-2.08 -9.79,-10 -12.46,-20.68 -35.91,-144 10.84,-11.45 -160.03,-620.69 -45.28,-161.35 -55.93,-259 -52.54,-269.5 0.78,-2.43 1.93,-4.54 3.46,-6.32" style="fill:#b82327;fill-opacity:1;fill-rule:nonzero;stroke:none" id="path12"/>
      <path d="m 1364.32,3335.59 c 0.01,0.23 0.03,0.49 0.03,0.49 -0.02,-0.18 -0.02,-0.31 -0.03,-0.49" style="fill:#b82327;fill-opacity:1;fill-rule:nonzero;stroke:none" id="path14"/>
      <path d="m 1364.3,3335.31 c 0.01,0.15 0.02,0.29 0.02,0.28 -0.01,-0.13 -0.02,-0.28 -0.02,-0.28" style="fill:#b82327;fill-opacity:1;fill-rule:nonzero;stroke:none" id="path16"/>
      <path d="m 1609.76,3138.37 c -2.72,55.06 -130.51,259.57 -192.96,292.38 -47.39,24.69 -58.44,-104.18 -50.89,-148.82 -8.96,-5.29 -7.93,-18.82 0.93,-23.02 21.94,-10.44 28.02,-13.19 38.02,-20.25 h -0.01 v 0 c 0.01,0 0.02,-0.01 0.04,-0.02 0.15,-0.1 0.35,-0.24 0.35,-0.24 0.01,0 0.33,-0.23 0.34,-0.23 l 0.41,-0.24 0.02,0.04 c 0.61,-0.57 1.45,-1.1 2.14,-1.57 l -0.01,0.01 c 3.68,-2.53 2.07,-1.42 7.29,-5.01 l -0.11,0.09 c 51.64,-35.39 105.67,-91.81 159.6,-146.91 1.19,-2.36 2.72,-3.81 4.53,-5.77 9.24,-11.36 18.35,-10.75 24.06,-4.37 7.8,8.65 6.83,52.84 6.25,63.93" style="fill:#b82327;fill-opacity:1;fill-rule:nonzero;stroke:none" id="path18"/>
      <path d="m 4123.97,3499.69 0.16,-0.36 c -33.67,51.67 -51.25,91.37 -178.08,-74.69 -67.65,-88.57 -66.2,-69.82 -151.54,-201.18 -18.24,-28.02 -7.77,-95.15 -14.02,-137.9 -1.21,-8.29 -3.82,-16.88 2.15,-22.85 20.27,-20.21 38.22,17.58 110.79,81.05 22.38,10.51 14.25,39.81 0.18,60.17 20.73,37.79 61.42,72.91 81.71,100.97 13.64,-8.75 23.19,-15.63 44.53,-15.63 42.96,0 36.88,50.47 40.44,75.15 2.16,6.77 71.57,60.94 78.13,64.65 9,5.15 14.67,9.03 13.34,19.4 -0.66,5.29 -24.78,46.75 -27.79,51.22" style="fill:#b82327;fill-opacity:1;fill-rule:nonzero;stroke:none" id="path20"/>
      <path d="m 2708.78,2586.2 c 11.72,-31.12 46.2,-9.95 69.37,14.64 20.82,22.27 66.67,90.45 73.37,100.46 6.34,9.53 14.98,21.21 8,30.29 -6.56,8.57 -13.31,6.96 -26.79,9.02 -61,9.25 -54.04,3.01 -91.98,8.05 -18.59,8.8 -31.69,-13.48 -17.72,-23.28 -14.76,-50.12 -30.24,-96.45 -14.25,-139.18" style="fill:#b82327;fill-opacity:1;fill-rule:nonzero;stroke:none" id="path22"/>
      <path d="m 2990.83,2435.42 c -54.74,-15.39 -174.53,-62.96 -245.86,-92.91 -11.78,-4.95 -32.57,-14.07 -44.61,-16.43 -6.11,30.17 7.51,106.08 -16.93,128.45 -36.01,33.03 -229.98,-60.62 -279.39,-89.69 -2.45,-1.94 -4.13,-4.58 -4.77,-7.69 -6.62,-6.66 -3.77,-18.33 4.57,-21.29 26.74,-9.45 55.37,-19.72 83.56,-30.81 113.54,-44.69 157.7,-40.91 193.81,-47.38 71.46,-12.69 72.99,-25.27 135.82,-12.75 44.83,8.96 46.54,16.25 115.68,50.9 11.07,2.08 19.22,11.32 14.11,21.67 10.22,12.83 73.92,91.01 69.83,106.79 -3.57,14.46 -16.89,17 -25.82,11.14" style="fill:#b82327;fill-opacity:1;fill-rule:nonzero;stroke:none" id="path24"/>
      <path d="m 2930.48,2115.71 c -9.47,6.17 -25.93,5.98 -30.8,3.23 -61.23,-7.61 -38.74,3.86 -314.72,-45.31 -15.91,-2.87 -14.21,-24.92 0.67,-26.41 1.41,-2.85 3.49,-4.94 5.62,-7.03 2.75,-2.74 4.3,-4.24 9.28,-12.1 36.09,-56.99 20.77,-46.87 42.67,-76.61 6.75,-9.32 12.35,-15.22 19.28,-29.57 6.28,-13 18.87,-32.11 36.05,-40.1 21.32,-9.89 28.01,-6.97 127.11,90.06 90.53,88.66 127.67,125.93 104.84,143.84" style="fill:#b82327;fill-opacity:1;fill-rule:nonzero;stroke:none" id="path26"/>
      <path d="m 1889.98,2064.76 c -46.39,89 -82.82,121.8 -91.1,206.9 -5.95,63.22 -24.12,193.21 -82.34,168.59 -27.41,-11.23 -40.95,-82.27 -46.33,-111.74 -68.41,-374.58 -85.82,-399.31 -65.04,-478.16 20.35,-76.73 22.51,-50.35 41.69,-95.5 11.63,-27.53 34.69,-18.5 34.18,-4.06 4.21,1.33 7.42,4.54 8.55,8.56 10,35.53 31.1,105.96 54.09,134.35 33.99,38.73 76.72,66.18 99.17,74.29 -3.01,-0.82 11.05,3.66 14.16,4.57 16.87,4.93 28.98,2.76 41.39,0.88 54.81,-7.74 10.06,55.62 -8.42,91.32" style="fill:#b82327;fill-opacity:1;fill-rule:nonzero;stroke:none" id="path28"/>
      <path d="m 2523.75,3654.85 c 1,14 -5.16,14.3 -15.16,22.17 -132.15,103.92 -340.17,47.26 -455.15,-63.67 -6.74,-6.5 -33.09,-32.99 -35.53,-42.07 -3.63,-13.33 4.59,-22.96 14.07,-24.36 26.68,-14.34 33.59,-22.45 43.66,-16.61 24.44,4.35 156.07,165.03 373.15,101.6 21.93,-6.36 53.19,-24.23 61.47,-32.7 6.01,14.19 13.71,37.55 15.34,52.94 -1.08,1.7 -1.45,2.17 -1.85,2.7" style="fill:#5dcbf5;fill-opacity:1;fill-rule:nonzero;stroke:none" id="path30"/>
      <path d="m 3479.16,3728.57 c -6.61,16.72 -6.13,18.58 -37.36,23.92 -219.88,38.06 -218.06,-29.22 -302.1,-76.52 -5.86,-1.11 -11.87,-6.87 -11.65,-14.22 10,-1.22 44.99,-5.55 62.28,-8.01 84.59,22.37 155.77,22.89 245.81,-4.58 7.11,-2.15 13.14,-3.94 19.67,-6.71 2.8,-2.53 13.58,-7.62 19.8,-8.06 18.3,-0.57 20.73,30.56 18.91,48.2 -2.67,24.65 -8.29,29.86 -15.36,45.98" style="fill:#5dcbf5;fill-opacity:1;fill-rule:nonzero;stroke:none" id="path32"/>
      <path d="m 1437.46,4148.25 c 14.32,-15.46 32.55,-12.04 40.1,3.57 4.92,10.03 37.68,147.66 40.66,162.44 6.49,32.11 9.73,47.49 46.46,121.12 0,0 42.7,88.01 42.72,88.05 11.83,24.39 35.13,63.61 47.66,87.13 57.36,107.12 98.19,149.28 156.89,196.55 57.17,45.96 175.89,121.81 244.8,161.52 231.3,133.78 459.07,211.75 462.14,239.91 2.16,18.7 -18.72,18.21 -36.21,17.78 l 0.91,-0.08 c -1.28,0.06 -0.96,0.07 -2.8,0.03 l 0.01,0.01 h -0.01 v -0.01 c -0.47,-0.03 -8.17,-0.23 -7.11,-0.23 -1.38,0.03 -1.43,-0.03 -1.37,-0.03 -0.6,-0.02 -0.39,-0.02 -0.98,0.02 v 0.04 c -219.47,-7.85 -554.7,-258.54 -598.26,-273.8 1.19,2.46 2.31,4.9 3.42,7.35 l -0.16,-0.24 c 19.8,34.11 49.01,67.37 83.74,104.4 143.62,147.35 157.55,144.26 161.08,165.8 1.61,10 -9.09,18.66 -26.66,7.42 -44.99,-28.69 -258.76,-134.39 -546.66,-450.26 -7.14,-2.96 -11.87,-10.95 -15.97,-17.51 -0.49,-0.8 -0.75,-1.04 -1.53,-1.92 -1.17,-1.3 -1.95,-2.86 -2.42,-4.68 -67.54,-116.29 -109.09,-225.76 -112.67,-445.49 -0.18,-11.49 -0.54,-25.91 0.17,-40.08 2.84,-58 3.22,-108.57 22.05,-128.81" style="fill:#5dcbf5;fill-opacity:1;fill-rule:nonzero;stroke:none" id="path34"/>
      <path d="m 1452.62,3692.85 c -1.28,-88.49 -8.07,-81.4 28.38,-105.01 8.88,-5.74 26.78,-23.05 48.22,-41.19 16.53,-13.94 41.72,-31.16 49.72,-38.92 2.54,-2.55 1.29,-2.64 5.13,-5.55 9.13,-6.89 17.49,-5.8 22.72,-1.2 10.31,9.18 3.72,26.73 -2.53,50.21 -32.55,122.28 -33.69,155.23 -52.15,218.72 -69.79,-54.26 -64.41,-49.45 -99.49,-77.06" style="fill:#5dcbf5;fill-opacity:1;fill-rule:nonzero;stroke:none" id="path36"/>
      <path d="m 4046.68,4824.55 c -12.11,42.46 -40.91,27.36 -45.23,10.36 -5.32,-9.37 -6.26,-12.04 -9.23,-20.67 -4.28,-12.45 -5.07,-14.64 -33.95,-71.56 -19.55,-38.51 -32.99,-79.3 -54.51,-135.81 -3.21,-2.93 -4.79,-7.27 -4.39,-11.5 -4.81,-12.36 2.01,-20.32 10.72,-20.65 18.74,-41.01 17.12,-87.24 57.81,-194.73 31.32,-82.94 19.04,-109.68 42.05,-109.68 14.04,0.15 14.26,12.56 24.46,47.76 23.94,83.82 37.38,100.13 37.38,313.66 0.07,50.88 -9.49,137.39 -25.11,192.82" style="fill:#5dcbf5;fill-opacity:1;fill-rule:nonzero;stroke:none" id="path38"/>
      <path d="m 3069.21,1384.67 c -17.1,-3.52 -15.3,-2.82 -53.72,-5.85 -5.56,4.62 -13.99,3.85 -18.54,-1.61 -10.41,-0.84 -15.47,-12.83 -9.48,-21.06 -38.65,-92.56 -85.56,-195.7 -90.58,-205.8 -3.04,-6.09 -7.79,-14.98 -8.43,-21.44 -1.14,-10.74 5.64,-18.4 14.75,-18.4 3.73,0 11.04,2.98 14.61,4.35 4.39,1.68 13.38,4.21 23.42,5.96 60.28,10.33 56.63,20.16 136.07,41.53 74.21,20.39 46.85,27.88 121.11,189.74 15.48,33.64 26.26,54.11 14,64.5 -14.48,15.57 -44.66,-11.35 -143.21,-31.92" style="fill:#5dcbf5;fill-opacity:1;fill-rule:nonzero;stroke:none" id="path40"/>
      <path d="m 3140.82,725.199 c -70.22,109.43 -122.98,152.34 -148.63,183.762 -173.01,212.119 -173.88,174.649 -220.72,129.599 -37.15,-35.84 -48.95,-44.259 -38.98,-55.9 -5.33,-13.121 2.34,-8.211 41.19,-58.18 28.36,-36.468 65.14,-74.39 79.48,-94.441 -0.26,0.441 -0.57,0.973 -0.82,1.352 38.21,-56.782 92.13,-107.672 154.48,-185.77 45.78,-57.262 40.29,-57.883 50.38,-60.902 12.79,-3.84 20.84,9.09 28.93,18.992 8.85,10.84 32.53,41.328 61.54,83.5 3.57,5.187 2.54,12.617 -2.36,16.898 4.87,7.34 0.34,16.903 -4.49,21.09" style="fill:#5dcbf5;fill-opacity:1;fill-rule:nonzero;stroke:none" id="path42"/>
      <path d="m 2364.6,642.711 c -3.46,-0.789 -7.47,-4.102 -11.06,-6.57 -4.97,-3.411 -6.69,-4.539 -6.69,-4.539 -3.48,22.398 -134.23,133.238 -185.65,163.316 -79.07,46.473 -129.2,67.402 -227.72,164.723 -62.32,61.159 -71.3,86.919 -119.25,154.469 -41.74,59.04 -50.72,62.85 -95.91,141.5 -35.95,62.74 -50.3,71.87 -78.54,123.62 -166.01,304.33 -207.59,328.53 -201.78,382.86 14.08,16.22 13.5,15.33 25.72,93.1 2.83,16.94 3.42,19.98 5.53,45.92 1.86,22.5 13.23,56.4 -11.09,58.92 -10.88,1.04 -20.23,-8.24 -26.94,-16.92 -9.7,-12.44 -29.55,-45.05 -39.89,-67.87 -13.2,10.17 -39.76,-3.4 -89.09,-29.58 -186.89,-99.09 -98.04,-59.67 -249.39,-149.78 -97.159,-57.99 -603.014,-317.22 -604.67,-392.98 -0.227,-8.96 5.133,-15.93 17.695,-17.16 15.703,-1.53 211.797,95.61 233.332,108.12 123.086,71.11 159.426,105.21 273.148,162.41 12.547,6.32 216.385,99.45 269.195,115.5 70.23,21.43 56.21,18.15 85.68,19.07 11.03,0.35 26.3,-0.46 31.67,20.68 1.57,0.25 2.79,0.75 4.08,1.44 6.66,-34.66 27.06,-89.76 32.2,-104.31 l -0.25,1.17 c 39.24,-110.75 305.54,-665.398 697.66,-1022.48 124.3,-112.988 124.27,-90.641 147.49,-75.418 8.18,5.359 9.64,6.816 14.92,13.238 2.83,1.68 26,24.391 30.72,28.59 64.44,57.219 109.15,65.012 91.48,84.879 -3.99,4.449 -7.78,4.473 -12.6,4.082" style="fill:#5dcbf5;fill-opacity:1;fill-rule:nonzero;stroke:none" id="path44"/>
      <path d="m 3871.2,2956.5 c -2.66,7.18 -3.06,7.47 -4.55,9.71 -7.07,10.78 -22.86,8.62 -28.99,0.38 0,0 -43.4,-38.47 -61.01,-52.1 -17.24,-13.38 -38.47,-23.85 -26.78,-38.15 -0.41,-2.05 -4.34,-12.45 -5.09,-14.4 -21.25,-54.89 17.27,-92.77 29.15,-110.78 8.72,-14.84 4.4,-13.7 8.16,-24.81 2.94,-8.7 15.97,-11.57 21.7,-5.69 19.82,20.41 82.29,119.06 88.87,129.06 8.7,13.25 11.38,18.38 5.98,31.04 -32.22,75.15 -16,44.52 -27.44,75.74" style="fill:#5dcbf5;fill-opacity:1;fill-rule:nonzero;stroke:none" id="path46"/>
      <path d="m 1538.91,2697.13 c -0.27,-0.78 -0.48,-1.5 -0.65,-2.22 -0.26,0.81 -0.53,1.62 -0.79,2.43 0.48,-0.1 0.97,-0.17 1.44,-0.21 z m 19.4,-58.75 c 84.8,-53 92.65,-37.64 0,0 z m -25.4,-7.39 c 0.16,-5.38 6.78,-14.4 13.92,-16.42 21.42,-7.77 22.29,19.96 70.15,112.5 41.59,73.04 59.22,74.79 9.19,135 -12.09,14.56 -5.75,7.92 -12.15,17.82 4.7,9.59 -2.42,19.2 -11.75,19.2 -10.26,0 -9.67,-4.96 -33.48,-42.8 -73.29,-116.64 -72.76,-101.75 -71.91,-119.14 0,0 36.03,-106.15 36.03,-106.16" style="fill:#5dcbf5;fill-opacity:1;fill-rule:nonzero;stroke:none" id="path48"/>
      <path d="m 2473.36,3466.72 c -55.03,-62.75 -83.93,-65.85 -159.12,-119.88 -24.58,-17.64 -31.06,-22.6 -29.97,-34.23 0.91,-9.91 11.14,-16.04 20.47,-19.5 75.56,-27.61 175.26,119.2 187.7,145.67 2.46,2.86 2.73,4.92 4.03,8.29 2.5,6.7 4.44,10.78 -0.07,17.75 -5.13,7.33 -16.56,9.29 -23.04,1.9" style="fill:#5dcbf5;fill-opacity:1;fill-rule:nonzero;stroke:none" id="path50"/>
      <path d="m 3303.14,3355.99 c -18.21,16.48 -41.64,34.4 -51.65,42.61 -10.23,8.38 -34.82,34.42 -66.4,29.25 -7.71,-12.93 3.92,-15.72 31.61,-45.32 26.64,-28.53 109.75,-116.9 128.53,-85.33 -9.37,49.29 -4.03,24.19 -42.09,58.79" style="fill:#5dcbf5;fill-opacity:1;fill-rule:nonzero;stroke:none" id="path52"/>
      <path d="m 2959.64,4083.57 c -1.75,-8.14 1.99,-17.18 10.93,-21.3 15.74,-7.1 90.47,34.11 148.21,55.01 199.78,73.65 221.73,73.8 268.94,86.03 22.38,5.82 38.32,13.35 44.84,17.64 20.66,13.63 11.58,42.35 -28.35,43.67 -130.42,3.31 -323.33,-30.42 -443.16,-83.35 -1.31,-67.2 -4.49,-53.77 -1.41,-97.7" style="fill:#111011;fill-opacity:1;fill-rule:nonzero;stroke:none" id="path54"/>
      <path d="m 2310.13,3763.22 c 64.7,-4.25 86.42,-4.88 141.29,-45.57 -75,24.64 -172.01,27.96 -253.66,-3.49 -2.07,-0.24 -4.07,-0.85 -5.56,-2.06 -76.3,-31.36 -117.69,-64.16 -173.74,-123.36 1.68,7.85 3.68,15.67 6.83,23.05 18.49,34.37 182.13,158.4 284.84,151.43 z m 249.97,-167.73 c 0.06,-0.14 0.12,-0.28 0.19,-0.42 -4.59,-13.11 -31.95,-1.7 -43.92,-4.74 -17.85,12.49 -48.85,-19.38 -94.1,-47.8 17.78,30.99 26.57,97.85 7.32,155.49 32.63,-9.31 53.94,-18.48 79.6,-42.26 1.58,-2.94 2.83,-4.89 5.71,-6.78 6.14,-8.31 12.36,-23.16 18.72,-32.27 7.41,-10.61 18.11,-14.13 26.48,-21.22 z m -106.75,-71.05 c -13.19,-14.14 -16.49,-20.7 -31.12,-31.11 -105.15,-69.12 -244.34,-52.5 -329.9,15.29 95.73,-42.62 192.1,-47.12 273.93,-22.45 44.63,13.49 90.79,51.2 118.03,68.55 -11.95,-13.3 -21.59,-20.28 -30.94,-30.28 z m -277.01,-6.35 -0.04,0.04 c -1.15,1.22 -1.05,1.1 0.04,-0.04 z m 196.76,190.42 c 6.06,-18.25 60.96,-70.43 -15.01,-198.43 -40.7,-11.98 -88.84,-21.75 -164.35,-7.26 -0.29,4.32 -2.3,7.35 -4.67,11.52 -26.26,48.94 -23.65,134.47 19.49,176.9 42.43,16.33 100.06,25.88 164.54,17.27 z m -336.15,-139.17 c 60.71,65.34 74.32,70.55 108,90.81 -23.55,-47.25 -18.2,-109.49 2.32,-145.06 -54.36,15 -94.06,44.18 -110.32,54.25 z m -34.74,-10.6 c 1.59,-4.94 19.27,-20.18 23.25,-23.52 46.14,-42.14 78.8,-88.83 202.18,-107.44 19.58,-2.97 37.72,-5.99 60.13,-4.8 41.92,2.34 102.86,19.68 144.18,46.35 18.84,12.17 25.54,21.42 35.57,33.43 14.06,15.6 48.01,42.22 55.8,62.53 12.36,-0.82 47.74,-9.72 59.85,18.12 11.86,27.22 -15.82,36.15 -27.71,46.74 -4.54,5.12 -12.67,22.91 -19.97,33.34 -1.15,4.61 -9.67,17.26 -12.86,21.13 -85.38,103.4 -160.26,100.29 -206.97,103.19 -123.4,7.46 -350.49,-144.44 -321.86,-216.83 0.66,-3.91 3.6,-9.17 8.41,-12.24" style="fill:#111011;fill-opacity:1;fill-rule:nonzero;stroke:none" id="path56"/>
      <path d="m 2303.62,3572.15 c 40.08,14.84 56.57,101.65 -13.62,109.01 -22.39,2.46 -61.52,-31.58 -51.22,-73.51 7.61,-31.2 39.32,-44.88 64.84,-35.5" style="fill:#111011;fill-opacity:1;fill-rule:nonzero;stroke:none" id="path58"/>
      <path d="m 2390.65,3580.05 c 0.01,0.04 0.02,0.07 0.03,0.11 -0.02,-0.07 -0.03,-0.11 -0.03,-0.11" style="fill:#111011;fill-opacity:1;fill-rule:nonzero;stroke:none" id="path60"/>
      <path d="m 3581.74,3689.83 c -129.9,91.31 -237.61,104.2 -378.43,44.6 -2.74,-1.15 -4.92,-3.11 -6.42,-5.47 -10.85,-6.18 -21.94,-12.63 -41.67,-28.28 25.37,37.46 46.79,60.32 91.43,75.83 51.24,15.61 128.96,20.75 193.52,-0.37 130.11,-42.43 99.79,-27.85 141.57,-86.31 z m -42.88,-70.03 c 11.29,-28.49 -48.96,-79.93 -72.69,-96.89 -24.79,-15.15 -73.78,-35.78 -93.87,-41.14 -23.6,-6.27 -76.76,2.56 -97.42,11.91 -41.48,20.78 -58.6,38.12 -69.7,54.05 2.58,-2.1 5.25,-4.1 7.97,-6 28.4,-19.76 22.42,-22.25 48.17,-29.64 15.53,-4.42 33.6,-8.48 59.02,-5.24 34.95,4.37 86.2,25.81 109.39,37.41 20.39,10.16 84.04,59.57 94.04,66.41 4.94,3.17 9.99,6.21 15.09,9.13 z m -198.4,-81.6 c -9.59,12.92 -46.62,4.22 -71.32,57.18 -12.56,26.91 -13.76,36.4 -15.79,55.12 -4.28,58.53 19.52,68.27 25.54,81.31 0.7,0.51 1.22,1.11 1.83,1.66 10,2.94 15.48,5.03 43.37,9.87 36.15,6.29 107.34,-4.74 129.59,-12.27 1.54,-5.23 8.37,-15.75 11.25,-20.38 14.13,-22.87 11.79,-32.43 12.47,-49.21 1.74,-40.33 -14.51,-55.27 -17.31,-65.27 -11.2,-7.32 -53.66,-42.22 -119.63,-58.01 z m -220.87,89.1 c -4.39,3.01 -11.6,7.46 -13.8,12.16 -0.14,0.88 0.7,3.61 0.89,4.57 1.7,2.66 5.02,7.02 7.38,9.21 10,-0.99 25.7,-11.39 32.05,3.43 10,4.93 30.18,38.88 88.35,61.57 -14.67,-30.32 -20.22,-89.45 14.27,-147.35 11.83,-19.83 29.93,-29.53 42.93,-37.92 -36.49,3.18 -41.68,15.14 -58.18,27.13 -18.16,13.14 -10.87,5.68 -29.36,29.44 -13.12,17.02 -28.92,28.99 -50.24,29.23 -23.3,0.12 -27.15,3.64 -34.29,8.53 z m 127.95,176.91 c -58.62,-17.99 -103.29,-54.18 -131.03,-125.03 -15.07,1.98 -25.84,-10.2 -33.03,-23.58 -2,-2.16 -3.18,-4.83 -3.78,-7.72 -3.95,-19.04 5.56,-29.5 21.33,-40.4 12.52,-8.59 20.56,-14.96 52.49,-15.49 1.65,-13.35 28.49,-59.45 45.15,-75.69 40.15,-39.41 92.72,-62.7 158.07,-61.29 58.14,1.3 195.94,80.89 207.5,146.14 3.18,18.4 -2.2,40.5 -14.9,42.98 -4.81,5.54 -11.66,5.93 -15.87,3.41 -10.63,-6.36 -21.49,-12.49 -31.51,-19.8 5.1,22.44 4.42,55.72 -5.98,82.32 32.78,-19.85 64.79,-35.75 107.82,-64.65 11.67,-14.97 36.08,-9.69 27.28,14.82 -5.99,16.76 -31.59,48.97 -49.99,77.65 -13.46,21.12 -27.57,26.79 -52.03,36.95 -36.39,15.15 -107.64,34.91 -117.64,36.73 -53.4,9.73 -126.82,4.07 -163.88,-7.35" style="fill:#111011;fill-opacity:1;fill-rule:nonzero;stroke:none" id="path62"/>
      <path d="m 2365.33,4059.27 c 36.96,-21.77 84.97,-57.67 120.11,-87.42 l -0.31,0.41 c 1.16,-1.13 2.36,-2.17 3.6,-3.17 2.15,-3.06 4.87,-4.38 8.66,-6.07 11.96,-8.69 26.06,-15.62 50.7,-15.62 33.5,0 123.16,35 229.5,-148.18 83.92,-144.37 146.94,-506.17 77.96,-699.6 -0.59,-1.68 -0.8,-3.44 -0.65,-5.2 -1.56,-5.86 -11.2,-36.01 -9.9,-41.65 76.61,124.97 84.89,384.78 48.04,523.85 -9.79,36.94 -43.92,185.17 -99,274.07 -60.25,97.31 -133.3,184.75 -240.91,230.02 -38.28,31.05 -105.89,58.3 -152.04,75.08 -41.82,15.4 -92.58,35.82 -174.63,35.92 -17.1,-0.1 -90.86,5.19 -89.37,5.19 -6.83,0 -12.92,-5.89 -13.31,-12.87 -0.03,-0.67 -0.03,-1.32 0.03,-1.95 -13.01,-31.53 79.91,-28.31 241.52,-122.81" style="fill:#111011;fill-opacity:1;fill-rule:nonzero;stroke:none" id="path64"/>
      <path d="m 3361.27,3770.75 c 0.46,0 0.92,0 1.38,-0.01 -3.02,0.04 -0.86,0.01 -1.38,0.01" style="fill:#111011;fill-opacity:1;fill-rule:nonzero;stroke:none" id="path66"/>
      <path d="m 3376.42,3615.38 c 39.44,8.78 50.17,67.69 7,85.28 -13.18,5.27 -22.42,5.08 -44.92,-5.44 -23.74,-11.17 -24.24,-39.53 -17.68,-56.64 9.17,-24.02 30.32,-28.98 55.6,-23.2" style="fill:#111011;fill-opacity:1;fill-rule:nonzero;stroke:none" id="path68"/>
      <path d="m 2841.46,2712.74 c -1.61,-39.69 -4.44,-70.96 16.46,-162.51 -19.18,-5.04 -86.52,-45.01 -96.52,-49.63 -0.44,0.29 -0.98,0.57 -1.52,0.8 -10,8.53 -46.18,47.27 -78.57,51.67 -9.55,1.29 -21.06,2.38 -33.78,1.23 17.09,59.16 14.83,81.25 22.41,149.78 31.38,6.77 72.66,24.83 171.52,8.66 z m 147.19,-214.21 c 122.3,-19.25 136.52,-40.19 159.68,-53.51 -211.15,-101.07 -288.61,-166.55 -362.51,-173.31 -2.91,1.45 -11.86,1.38 -15.46,1.57 -12.02,0.64 -1.31,-1.66 -110.13,30.23 -29.44,8.84 -56.49,22.28 -97.18,36.04 -10.01,3.39 -169.12,52.4 -199.21,59.98 18.42,8.19 178.75,96.68 287.98,106.98 2.21,-0.59 3.82,-0.51 6.14,-0.28 32.59,2.71 73.75,-56.81 106.39,-68.14 19.32,-6.68 32.88,-2.03 50.38,8.97 101.19,63.69 37.99,73.87 173.92,51.47 z m -72.76,-348.77 c -139.46,7.29 -251.26,-72.7 -319.96,-59.34 -64.1,17.78 -109.34,63.21 -133.17,81.71 -35.54,27.58 -36.84,80.69 -16.41,108.36 493.27,-79.98 313.56,-40.62 669.31,67.34 31.66,-23.46 46,-54.05 31.58,-112.55 0.14,0.58 -2.26,-10.61 -9.49,-24.36 -28.72,-49.8 -36.2,-34.73 -46.57,-47.97 -73.98,-32.11 -142.33,-15 -175.29,-13.19 z m -2.82,-200.39 c -66.04,9.6 -175.21,-13.44 -238.09,-30.34 -0.18,2.24 -1.05,4.41 -2.49,6.22 -5.58,12.11 -3.53,27.32 -33.45,70.2 -32.74,47.73 -34.68,46.19 -45.39,56.06 81.06,-12.63 131.54,22.45 263.84,33.03 26.5,2.15 79.53,2.8 125.77,12.73 -46.38,-73.28 -58.59,-109.79 -70.19,-147.9 z m -414.18,163.84 c 4.8,-3.44 10.16,-7.18 15.04,-10.59 -2.53,1.62 -8.93,6.04 -15.04,10.59 z m 325.09,675.12 c -36.03,-24.69 -48.71,-23.88 -66.34,-24.81 -19.31,-1.04 -37.93,-2.54 -47.93,0.16 -66.63,23.68 -40.45,76.11 -180.43,69.76 -15.69,-0.75 -16.85,-27.3 2.12,-27.3 50.98,0 81.17,5.65 117.23,-32.64 9.44,-9.99 17.66,-19.25 41.06,-30 -0.29,-0.01 -82.78,-10.64 -108.21,-10.86 -13.53,0.76 -31.71,8.1 -44.03,13.77 -19.64,9.07 -17.27,14.83 -37.96,28.14 -7.18,4.71 -12.02,7.89 -17.66,14.32 -4.03,4.54 -22.25,21.05 -38.83,37.43 -2.57,2.47 -7.61,3.41 -10.45,2.69 -28.01,8.3 -59.8,-39.22 -16.17,-64.68 75.76,-45.7 134.49,-77.21 224.05,-65.61 -2.89,-25.05 -15.66,-105.54 -21.59,-128.81 l 0.26,0.39 c -2.12,-7.39 -6.05,-17.68 -8.72,-23.95 -84.96,-22.07 -258.41,-108.1 -301.66,-141.24 -21.84,-1.99 -62.17,-11.71 -74.56,-29.9 -8.04,-11.74 -7.83,-36.14 5.16,-50.01 20.97,-22.43 35.65,-6.17 48.38,5.56 27.41,-12.9 5.78,-26.97 102.99,-42.16 -0.49,-3.12 -0.85,-5.92 -1.21,-8.2 -9.05,-10 -10.48,-80.12 30.1,-126.44 7.75,-8.87 16.45,-16.99 24.87,-24.84 28.39,-26.5 53.19,-55.64 107.27,-70.16 -0.65,-6.09 6.37,-11.18 10.93,-15.27 23.29,-20.75 21.14,-13.13 59.27,-68.82 24.67,-36.59 21.77,-51.61 28.51,-63.31 -13.11,-4.03 -99.93,-29.89 -107.65,-41.34 -35.3,-18.07 -25.36,-37.41 -12.64,-41.38 19.01,-5.89 46.09,7.95 105.6,24.92 l -1.26,-0.2 c 260.18,65.39 320.7,28.45 386.65,28.45 59.79,0 56.34,55.77 -82.58,65.76 15.94,52.65 31.73,78.51 75.09,148.59 1.59,2.57 3.16,5.74 2.68,9.79 77.83,23.26 115.15,40.65 140.14,77.75 8.46,10 27.3,41.08 31.58,81.16 4.32,39.76 4.87,62.67 -28.39,94.58 101.78,20.44 62.83,6.02 123.47,3.73 10.07,-0.51 18.43,-1.46 27.64,-0.68 39.16,3.44 40.8,20.52 43.73,36.05 3.84,21.24 -1.67,43.56 -25.04,46.62 -22.21,2.83 -68.65,-21.25 -98.07,-14.76 -8.31,2.27 -16.99,5.41 -27.63,9.94 -66.75,88.29 -195.02,102.49 -319.72,111.38 -21.22,89.6 -17.91,110.61 -15.81,157.51 132.01,-11.51 234.07,129.46 165.26,129.46 -26.13,0 -61.15,-41.72 -89.12,-60.66 -33.84,-22.74 -100.81,-34.28 -141.64,-31.13 12.4,3.91 41.51,24.27 52.06,31.89 19.79,14.47 15.53,21.93 76.5,39.42 24.75,5.88 36.98,-0.74 39.17,13.78 3.51,23.73 -40.6,12.5 -62.58,5.27 -59.79,-19.93 -35.97,-15.83 -83.89,-49.11" style="fill:#111011;fill-opacity:1;fill-rule:nonzero;stroke:none" id="path70"/>
      <path d="m 1525.88,3022.14 c -74.11,61.87 -70.29,60.52 -100.08,92.28 -14.95,15.87 -21.47,23.74 -26.95,39.63 -17.65,54.88 -8.27,197.89 1.09,232.15 14.87,-13.25 54.09,-66.17 63.78,-80.01 -6.95,-32.47 -7.92,-59.11 -6.9,-83.8 0.42,-10.58 0.27,-32.42 18.03,-42.46 20.23,-11.51 41.67,11.04 56.62,28.16 10.02,-15.12 54.4,-75.99 57.65,-107.07 -8.13,-24.03 -52.36,-45.17 -28.21,-79.58 9.62,-27.88 29.55,-27.74 58.31,-70.85 24.72,-39.78 49.24,-82.31 46.21,-108.35 -51.31,40.65 -17.15,77.09 -139.55,179.9 z m -40.96,254.12 c 0,0 20.86,-30.75 31.61,-46.42 -4.9,-6.06 -21.91,-25.66 -29.64,-26.67 -9.21,7.73 -4.07,60.41 -1.97,73.09 z m 200.19,-378.97 c -11.9,37.63 -41.45,89.19 -79.6,116.72 -4.47,7.87 -10.58,20.4 -10.84,29.45 6.83,22.36 66.54,46.64 28.64,144.01 -10.08,25.95 -156.21,250.49 -193.62,261.49 -10.01,2.98 -33.76,2.41 -46.77,-14.94 -23.35,-31.62 -25.72,-235.26 -23.53,-267.55 -4.69,-6.62 -1.96,-12.87 2.08,-38.93 1.74,-11.43 3.31,-24.54 10.92,-47.22 23.84,-71.82 140.63,-280.52 149.23,-286.64 21,-32.49 24.05,-39.88 34.05,-39.88 7.28,0 13.07,5.65 13.57,12.65 0.49,6.93 -8.32,16.84 -12.73,22.84 -60.83,82.79 -118,221.52 -135.27,273.51 67.16,-67.99 78.68,-62.14 110.04,-87.96 87.27,-71.37 56.31,-137.27 124.12,-169.32 33.14,-15.95 63.33,29.17 29.71,91.77" style="fill:#111011;fill-opacity:1;fill-rule:nonzero;stroke:none" id="path72"/>
      <path d="m 3353.79,890.352 1.93,2.277 c -70.7,-102.688 -108.91,-143.051 -166.9,-192.66 -3.03,4.601 -16.1,21.23 -31.64,38.14 -0.81,0.903 -1.28,1.411 -1.99,2.172 l -0.87,0.938 c -99.32,107.859 -183.09,249.832 -291.76,335.301 99.36,20.27 375.1,118.78 471.14,187.03 30.32,46.93 67.88,105.73 87.72,154.93 -25.99,-34.1 -63.81,-68.38 -93.79,-95.49 -94.69,-85.85 -139.42,-91.75 -230.06,-124.35 -36.04,-12.43 -73.39,-25.78 -98.25,-29.89 -2.66,-0.18 -3.77,0.02 -6.85,-1.44 -296.36,-62.51 -464.24,-57.38 -801.46,108.52 -95.85,49.49 -158.9,101.28 -238.87,174.45 l -0.02,-0.01 c -94.46,100.58 -156.89,148.9 -255.3,299.49 -58.08,84.82 -69,97.15 -85.75,136.23 0.24,0.7 3.8,21.53 4,22.58 17.64,95.58 63.25,153.86 96.1,495.55 -0.13,-1.97 2.08,-5.2 3.13,-6.98 32.03,-54.79 6.58,-17.13 54.19,-87.14 1.88,-10.35 30.46,-121.06 38.22,-140.16 44.23,-108.8 67.1,-140.05 80.94,-161.88 99.79,-145.31 110.6,-156.11 160.53,-207.87 54.84,-67.86 72.72,-105.72 172.16,-217.51 89.38,-101.64 148.52,-125.66 169.62,-143.35 8.69,-7.21 13.9,-11.24 24.41,-16.36 2.38,-2.52 26.46,-17.52 44.79,-24.44 9.14,-3.67 41.09,-12.4 59.64,-15.04 31.07,-5.09 67.9,-21.71 155.51,-31.49 30.83,-3.37 57.49,-7.37 98.57,19.11 80.6,52.12 54.54,164.65 54.84,174.88 l 0.82,-1.07 c 9.16,-6.93 12.64,-22.74 18.27,-42.46 l 0.36,0.53 -0.21,-0.93 c 19.43,-68.77 -51.63,-147.81 81.61,-150.75 54.28,-1.19 45.88,-3.97 86.2,-0.42 59.89,5.23 188.62,14.78 223.62,64.05 29.19,16.58 62.44,96.58 110.3,182.46 23.13,41.18 128.23,225.05 152.71,265.43 14.75,-29.16 171.54,-480.43 -147.61,-972.378 z M 2388.43,689.969 c -70.04,46.84 -73.86,38.972 -181.56,121.621 -236.89,186.609 -344.69,306.56 -490.75,527.91 -125.86,189.65 -220.23,411.62 -238.84,476.33 12.15,48.42 30.97,150.12 40.14,187.69 6.59,-45.57 68.22,-220.73 192.82,-391.76 241.22,-330.93 623.74,-551.38 1051.96,-540.58 -103.06,-100.442 -102.64,-60.02 -373.77,-381.211 z M 1617.74,2245.69 c 0,0 -12.5,-78.43 -20.81,-117.99 0,0 -24.61,-103.27 -25.15,-105.4 -1.99,14.67 -5.28,35.3 -5.78,50.09 0,96.89 10.35,153.96 51.74,173.3 z m -32.37,357.4 c -50.49,73.36 6.77,57.18 -79.48,155.23 -74.47,84.46 -131.94,208.69 -144.8,272.04 -25.28,124.22 -4.93,231.63 1.4,330.25 5.83,78.94 14.95,133.37 44.61,169.54 9.7,12.24 20.37,29.23 44.22,39.06 22.77,4.92 29.32,-0.61 49.13,-16.63 11.21,-9.32 61.68,-42.43 114.62,-117.85 1.41,-1.97 2.99,-3.48 4.71,-4.49 l -0.27,-0.31 c 18.61,-152.93 31.69,-360.67 120.7,-707.92 -0.66,-1.43 4.46,-45.58 4.67,-47.15 -1.02,-19.89 -1.97,-78.03 -43.84,-106.75 -10.72,-5.39 -34.79,-13.47 -55.13,-9.35 -13.52,2.86 -33.34,5.57 -60.54,44.33 z m -90.74,1459.88 c 18.25,144.54 20.88,189.48 53.54,292.29 15.51,46.07 83.84,230.72 147.74,309.18 28.11,33.82 119.12,114.49 194.8,163.2 46.61,29.81 79.64,51.81 363.87,122.65 14.16,3.67 569.59,120.14 677.9,165.14 164.45,66.11 214.21,97.37 263.64,169.65 -2.92,-10 18.89,-53.9 29.1,-68.39 19.78,-28.69 65.82,-56.35 96.64,-72.87 414.96,-223.44 479.01,-212.14 556.1,-519.86 40.27,-160.57 59.09,-207.56 87.28,-416.61 -4.04,-15.73 -35.15,-124.04 -52.88,-228.66 -19.39,-115.45 -91.21,-350.99 -105.55,-491.01 -20.91,-195.16 -75.19,-447.79 -90.4,-565.05 -8.12,19.19 -128.91,308.1 -147.28,320.2 -38.22,-26.64 44.68,-97.79 133.55,-468.75 23.16,-101.71 44.07,-163.2 34.15,-284.38 l 0.65,0.1 -0.51,-0.18 c -1.79,-10 -10.22,-101.3 -35.08,-165.24 -2.2,-5.77 -4.84,-12.65 -7.07,-18.03 -21.79,-52.27 -37.03,-74.06 -56.53,-105.87 -16.37,-26.38 -22.66,-37.6 -30.06,-51.48 -20.62,-38.7 -245.11,-407.68 -251.2,-417.7 -79.85,-130.28 -145.7,-271.89 -182.43,-310.99 -10.05,-2.99 -124.33,-37.29 -137.96,-38.95 -14.32,-2.61 -134.38,6.07 -147.21,17.9 -2.31,8.11 -3.15,25.72 0.27,42.57 7.03,34.57 12.41,32.17 1.01,78.64 -11.97,58.64 -54.28,76.45 -73.61,69.31 -40.86,-12.59 -21.42,-97.28 -20.34,-107.28 2.74,-26.61 -8.61,-64.29 -33.07,-80.51 -61.22,-39.15 -167.86,-0.56 -228.5,7.65 -41.07,5.83 -98.73,35.46 -133.87,55.45 -10.01,5.89 -87.47,77.74 -156.31,157.81 -2.72,3.17 -195.26,237.84 -219.19,268.36 -39.99,50.38 -97.47,143.54 -120.31,187.73 -26.82,49.45 -45.82,98 -63.27,148.39 -20.03,56.7 -30.92,98.79 -37.43,219.66 -10.69,185.23 78.89,404.5 93.15,449.08 l -0.35,0.34 0.68,0.76 0.46,1.34 -0.76,0.63 c 0,0 39.44,132.81 136.93,326.12 3.14,6.14 0.97,14.09 -4.99,18.25 -2.71,14.06 -25.29,13.79 -28.42,-5.26 -86.14,-159.96 -152.64,-320.55 -198.8,-469.23 -1.23,7.43 -4.19,16.14 -8.63,31.77 -21.69,75.4 -28.51,117.06 -42.29,173.16 -0.32,0 -0.64,0.15 -0.99,-0.07 1.86,1.38 -16.49,74.72 -17.03,77.06 l -0.5,-0.05 c 1.08,19.88 -80.56,358.98 -96.57,444.6 -69.54,390.84 -83.93,374.8 -142.07,567.43 z m -35.85,162.59 c -1.24,10 -14.65,86.08 -8.23,181.34 1.32,1.41 2.26,3.6 2.85,6.65 11.12,59.02 11.1,85.84 41.28,173.32 72.19,209.26 82.62,207.61 127.7,291.35 70.47,127.96 107.84,170.86 158.81,224.6 58.5,62.05 75.68,71.88 89.12,81.57 198.18,143.27 332.22,201.4 434.36,235.07 374.28,120.04 548.43,76.06 856.97,-81.85 -0.54,0.03 -0.93,-0.06 -1.41,-1.23 -5.24,-12.36 -12.44,-32.17 -37.86,-57.97 l 0.32,-0.68 -0.38,0.14 c -19.18,-15.48 -67.22,-91.31 -295.92,-128.85 -17.45,-2.85 -129.4,-25.8 -129.4,-25.8 0,0 -201.32,-34.34 -255.42,-47.36 -2.17,-0.53 -33.93,-7.94 -36.09,-8.13 -42.32,-15.68 -445.11,-70.91 -603.09,-235.69 -88.23,-90.45 -245.98,-279.67 -303.4,-438.68 -25.83,-70.9 -34.06,-129.31 -40.21,-167.8 z M 3362.9,5376.39 c 98.88,23.35 197.37,22.68 239.6,13.16 192.6,-63.53 332.99,-267.2 402.96,-457.6 102.9,-279 58.42,-456.53 12.78,-646.75 -138.78,599.18 -214.59,664.88 -624.85,870.73 -19.88,10.14 -32.8,20.41 -56.62,37.16 -57.95,40.69 -69.04,67.54 -87.13,138.18 10,3.88 52.14,27.97 113.26,45.12 z m 778.19,-1897.02 c 8.66,-36.65 -18.4,79.4 -88.24,79.4 -18.3,0 -27.27,-9.03 -77.28,-60.01 -33.68,-34.22 -119,-141.7 -126.36,-153.02 7.94,40.79 25.74,173.65 38.77,238.55 32.18,35.36 114.15,129.36 145.48,109.85 -5.76,3.92 -1.16,0.79 4.71,-3.04 56.76,-41.3 84.12,-142.35 102.92,-211.73 z m 4.41,-188.43 c 0.99,-33.99 1.96,-20.89 -0.23,-78.28 -2.24,-67.69 -9.94,-133.23 -51.6,-184.84 -31.07,-39.96 -97.67,-82.2 -74.66,-100.97 5.95,-4.86 14.89,-4.04 19.73,2.02 13.28,17.44 33.98,37.96 50.63,53.69 -1.98,-4.12 -4.55,-13.87 -5.9,-18.69 -11.43,-39.75 -13.75,-54.7 -25.95,-84.98 -22.79,-56.78 -135.9,-181.95 -187.24,-182.91 -8.96,0.33 -12.16,4.36 -19.32,11.24 -16.08,15.45 -56.48,46.6 -83.96,107.87 0.02,0.37 -0.18,1.3 -0.31,1.93 0.85,1.99 0.95,4.55 0.26,7.36 20.87,111.49 46.95,252.33 58.99,360.5 4.15,6.42 2.5,4.4 23.32,35.88 18.84,-41.11 83.14,-87.41 69.53,-113.2 -27.11,-28.91 -83.92,-14.54 -65.32,-139.83 2.78,-19.61 10.28,-60.17 16.97,-77.9 7.35,-19.73 13.45,-24.72 23.16,-29.57 61.01,-31.82 59.27,74.08 75.33,133.83 26.1,81.15 133.89,92.23 174.77,293.37 3.18,16.37 1.45,9.5 1.8,3.48 z M 4018,3440.13 c 14,-37.61 32.31,-101.16 16.4,-138.11 -0.26,-0.21 -0.55,-0.53 -1.32,-1.17 l -0.62,-0.27 c -35.33,4.13 -57.34,34.25 -73.58,66.5 26.86,34.95 34.3,43.57 59.12,73.05 z m -149.72,-192.47 c 9.42,13.18 49.6,66.16 72.73,96.2 64.63,-111.94 182.06,-101.85 96.24,118.86 2.85,3.19 43.79,49.46 47.62,51.38 -0.01,0 -0.01,-0.01 -0.01,-0.01 0.12,0.09 0.22,0.18 0.05,0.03 0.42,0.25 0.75,0.6 1.14,0.89 11.97,-11.57 40.62,-60.42 50.15,-115.18 -26.23,-168.32 -30.7,-212.9 -137.78,-319.98 -20.57,-20.14 -42.31,-45.17 -52.46,-72.3 -15.44,-40.64 -15.49,-117.75 -32.98,-125.48 -11.58,0.46 -20.8,6.88 -31.89,77.55 -23.37,149.54 53.26,82.41 66.03,148.27 9.05,46.35 -61.18,83.31 -78.84,139.77 z M 4179.15,840.891 c -40.51,41.75 -42.83,60.308 -207.28,193.649 -277.95,226.29 -333.98,261.2 -377,280.46 34.01,183.18 31.07,437.43 -48.41,621.98 162.13,267.5 229.69,360.56 256.28,480.49 5.37,24.56 7.96,59.52 4.07,93.23 -6.21,55.89 -1.25,93.29 -16.86,174.44 14.68,-14.06 26.14,-19.98 35.84,-23.65 0.02,-0.01 23.03,-8.69 23.03,-8.69 3.4,-1.25 5.82,-1.8 9.92,-1.72 0.1,-0.2 0.11,-0.44 0.22,-0.64 5.94,0.42 13.71,1.62 28.32,8.75 0,0 0,0 0,-0.01 1.04,0.52 7.99,4.35 14.88,8.44 0.02,0.02 0.03,0.05 0.05,0.08 74.43,44.16 169.63,158.28 178.12,177.3 18.47,41.26 17.85,42.32 27.13,70.77 10.28,31.71 4.69,46.01 24.9,104.5 40.81,43.68 67.8,176.34 68.6,243.57 l -1.07,0.26 c 2.91,2.36 -2.85,74.94 -3.28,78.69 -2.01,19.66 -2.91,26.94 -9.1,54.87 -4.2,42.07 -7.99,93.07 -46.8,200.98 -37.28,106.35 -39.5,58.95 -53.52,116.28 -23.68,97 -44,280.72 -52.49,380.85 -14.34,-4.53 -14.49,-43.95 -16.22,-86.81 -5.96,-126.6 14.69,-192.8 4.63,-269.45 -6.96,2 -8.63,1.04 -17.46,4.28 -15.76,-2.29 -79.32,-44.32 -100.71,-64.4 l 0.29,0.53 c 17.53,82.17 16.56,121.59 127.26,544.02 -0.13,0.7 -0.46,2.46 -0.58,3.11 55.2,257.66 62.68,218.06 59.54,424.07 -1.19,53.2 -10.13,91.77 -13.94,111.21 -12.37,62.69 -6.21,92.37 -90.78,276.7 -67.11,150.56 -232.98,349.4 -394.65,378.93 -95.87,13.93 -239.39,-0.33 -365.75,-68.41 3.78,11.25 -336.02,250.68 -802.08,151.64 l -0.63,-0.28 c -151.25,-21.95 -543.81,-175.33 -759.06,-452.19 -5.72,-2.17 -8.17,-7.95 -11.33,-13.42 -5.77,-10.01 -63.07,-87.35 -92.83,-146.33 -5.06,-3.53 -25.73,-51.66 -28.19,-57.33 -11.81,-27.33 -14.99,-22.13 -36.64,-83.12 -75.36,-212.54 -149,-332.08 -79.03,-617.49 13.24,-56.95 6.4,-36.29 14.91,-57.93 l 0.37,-0.32 c 1.01,-4.54 0.63,-2.86 1.69,-7.4 l -0.68,3.62 c 10.16,-45.6 23.84,-78.96 36.56,-123.93 l 0.15,0.57 c 13.02,-45.56 7.31,-27.8 23.32,-96.14 59.62,-210.75 76.48,-279.21 78.89,-289.21 l -0.45,0.62 c -16.32,11.19 -15.2,11.34 -25.98,18.73 -2.65,4.27 -30.99,20.8 -35.47,23.08 -23.46,101.55 -41.45,193.92 -44.61,215.28 -0.68,4.82 -1.05,10.62 -3.83,14.43 -5.18,8.85 -19.98,8.4 -24.73,-2.16 -1.64,-3.62 -2.16,-13.04 -0.29,-16.87 2.86,-97.83 -0.56,-206.36 -0.56,-206.36 -163.5,-47.06 -190.6,-694.12 37.32,-877.8 30.9,-24.44 24.71,-21.38 37.34,-69.07 -0.19,-2.48 0.79,-5.14 1.68,-7.43 4.03,-10 13.68,-117.73 124.68,-137.53 l -0.39,-0.11 c -2.7,-27.07 -2.31,-134.79 -10.51,-201.29 -2.48,0.18 -8.7,-5.08 -10.05,-7.28 -78.27,-56.43 -90.38,-112.01 -130.93,-272.7 -48.88,-27.11 -43.21,-42.93 -116.84,-96.01 -268.15,-197.19 -762.661,-492.02 -762.661,-492.02 -13.266,-6.36 -4.313,-33.57 15.633,-23.13 7.679,0 98.378,57.17 143.222,84.02 40.219,24.49 100.485,57.55 141.696,79.58 170.21,90.57 81.203,53.1 436.38,249.59 -10,-8.3 -69.79,-250.25 3.87,-479.87 6.46,-20.11 10.46,-35.2 28.8,-29.43 14.89,5.95 15.68,26.54 -8.47,116.17 3.81,5.1 0.87,9.25 -0.77,19.25 -11.23,74.1 -7.1,44.19 -7.1,108.72 0.27,57.58 6.14,89.77 15.31,124.32 17.91,66.91 42.41,149.79 77.42,212.42 -4.15,-9.87 -27.45,-106.62 -27.62,-109.09 -18.98,-265.09 462.11,-1007.76 919.5,-1217.561 7.41,-3.348 17.72,-8.41 25.54,-8.41 62.37,0 310.67,311.043 443.96,438.091 17.23,-24.15 286.51,-324.591 342.08,-357.548 17.21,-16.82 5.52,-4.973 15.53,-14.563 20.82,-14.589 46.83,-37.05 56.83,-44.578 21.14,15.489 119.7,138.348 148.39,179.36 40.97,58.461 148.76,267.289 189.3,410.549 112.17,-87.43 431.94,-294.69 520.48,-343.1 101.5,-55.371 109.43,-54.918 147.3,-80.16 9.82,-2.309 12.5,-2.821 24.16,-5.692 1.1,0.332 1.81,0.762 2.55,1.551 -2.6,4.91 -76.46,80.609 -80.31,84.602" style="fill:#111011;fill-opacity:1;fill-rule:nonzero;stroke:none" id="path74"/>
      <path d="m 4085.12,3514.22 c -0.08,-0.04 -0.15,-0.07 -0.23,-0.11 -0.09,-0.08 0.05,0 0.23,0.11" style="fill:#111011;fill-opacity:1;fill-rule:nonzero;stroke:none" id="path76"/>
      <path d="m 4084.91,3514.12 c -0.02,-0.01 -0.03,-0.01 -0.04,-0.02 0,0 0.01,0.01 0.02,0.01 0.01,0 0.01,0 0.02,0.01" style="fill:#111011;fill-opacity:1;fill-rule:nonzero;stroke:none" id="path78"/>
      <path d="m 2305.96,3633.82 c 0.06,-0.13 0.11,-0.27 0.17,-0.4 0,-0.03 0.01,-0.07 0.01,-0.1 -0.06,0.17 -0.12,0.33 -0.18,0.5 m -19.49,15.94 c -2.44,-2.17 -3.86,-4.9 -4.96,-7.91 -0.51,-1.42 -0.82,-2.88 -1.13,-4.37 -0.43,-2.11 -0.77,-4.37 -0.63,-6.54 0.27,-3.63 0.97,-5.59 2.47,-8.93 1.34,-2.98 4.94,-5.29 7.98,-6.13 2.36,-0.64 4.87,-0.62 7.21,0.04 3.54,-0.85 8.26,-0.13 11.13,1.8 3.69,2.46 6.33,5.45 7.71,9.73 1.11,3.44 0.94,6.93 0.28,10.43 -0.47,2.47 -1.56,4.79 -2.68,7.03 -2.93,5.93 -9.58,9.62 -16.05,9.65 h -0.05 c -4.29,0 -8.16,-2.05 -11.28,-4.8" style="fill:#f7f7f3;fill-opacity:1;fill-rule:nonzero;stroke:none" id="path80"/>
      <path d="m 3363.68,3681.01 c -7.27,-2 -11.36,-9.59 -9.54,-16.8 1.31,-5.14 3.08,-10.56 7.44,-13.96 2.85,-2.22 3.94,-2.98 7.43,-4.24 5.4,-1.93 10.97,0.37 15.08,3.77 1.36,1.12 2.45,2.66 3.3,4.21 0.66,1.21 1.09,2.25 1.4,3.27 1.04,1.92 1.7,4.04 1.44,6.18 -0.4,3.44 -0.64,5.32 -2.16,8.41 -2.05,4.18 -6.11,6.96 -10.45,8.32 -1.86,0.59 -3.76,0.7 -5.59,0.43 -1.54,0.57 -3.18,0.88 -4.84,0.88 -1.18,0 -2.35,-0.15 -3.51,-0.47" style="fill:#f7f7f3;fill-opacity:1;fill-rule:nonzero;stroke:none" id="path82"/>
    </g>
  </g>
</svg>