<?xml version="1.0" encoding="UTF-8" standalone="no"?>
<!-- Created with Inkscape (http://www.inkscape.org/) -->

<svg
   version="1.1"
   id="svg2"
   xml:space="preserve"
   width="726.46667"
   height="712.90668"
   viewBox="0 0 726.46667 712.90668"
   xmlns="http://www.w3.org/2000/svg"
   xmlns:svg="http://www.w3.org/2000/svg"><defs
     id="defs6" /><g
     id="g8"
     transform="matrix(1.3333333,0,0,-1.3333333,0,712.90667)"><g
       id="g10"
       transform="scale(0.1)"><path
         d="m 1000.15,3116.95 c 4.8,-8.46 8.67,-17.46 14.06,-25.56 36.28,64.6 82.2,123.78 135.76,174.97 -85.36,7.17 -170.712,14.33 -256.068,21.5 1.243,-0.1 -29.347,-55.28 -29.422,-58.52 -0.574,-25.2 13.985,-23.36 36.59,-33.53 39.094,-17.58 77.313,-40.5 99.08,-78.86"
         style="fill:#b82327;fill-opacity:1;fill-rule:nonzero;stroke:none"
         id="path12" /><path
         d="m 1002.47,3604.55 c 53.33,-2.1 106.58,-26.21 138.99,-68.62 44.09,-57.71 44.02,-136.42 62.13,-206.76 26.16,30.14 52.31,60.27 78.46,90.4 4.52,5.2 9.12,10.56 11.43,17.05 2.55,7.16 2.04,15.01 1.5,22.6 -3.44,48.57 -8.3,100.75 -39.83,137.85 -12.93,15.22 -29.61,26.84 -47.11,36.45 -73.14,40.2 -163.57,43.03 -241.181,14.25 -17.449,-6.47 -100.929,-40.48 -94.453,-65.34 1.282,-4.91 109.121,22.94 130.064,22.12"
         style="fill:#b82327;fill-opacity:1;fill-rule:nonzero;stroke:none"
         id="path14" /><path
         d="m 1997.4,3432.54 c 27.59,-50.82 29.07,-114.97 3.85,-167 20.71,5.97 36.87,22.86 46.86,41.96 9.99,19.09 14.64,40.45 19.2,61.52 5.62,26.04 11.28,52.64 8.35,79.13 -6.47,58.41 -80.97,153.43 -140.98,119.41 -39.85,-22.59 -45.82,-37.78 -10.49,-62.09 29.79,-20.5 55.51,-40.32 73.21,-72.93"
         style="fill:#b82327;fill-opacity:1;fill-rule:nonzero;stroke:none"
         id="path16" /><path
         d="m 1747.71,3095.44 c 53.28,-28.64 116.03,-41.48 175.39,-29.88 4.43,0.86 10.07,3.77 8.78,8.1 -0.67,2.23 -2.99,3.46 -5.11,4.44 -24.98,11.57 -50.31,22.36 -75.45,33.57 -32.67,14.55 -65.03,29.78 -97.06,45.68 -17.66,8.77 -73.85,50.79 -92.34,47.28 -60.12,-11.39 67.85,-99.54 85.79,-109.19"
         style="fill:#b82327;fill-opacity:1;fill-rule:nonzero;stroke:none"
         id="path18" /><path
         d="m 1065.44,2750.69 c 22.18,-5.68 44.69,-9.56 67.61,-10.13 28.6,-0.71 57.84,15.74 82.59,9.96 33.55,-7.85 62.34,-34.86 98.44,-41.77 50.91,-9.75 110.11,4.79 138.35,48.26 11.65,17.93 20.6,42.12 41.63,46.02 26.93,4.99 44.99,-29.75 41.33,-56.91 -5.14,-38.01 -33.18,-69.84 -66.3,-89.2 -33.12,-19.36 -71.15,-28.22 -108.53,-36.83 -26.56,-6.12 -43.88,0.43 -69.06,1.7 -22.98,1.16 -48.01,-7.86 -70.05,-13.27 -46.65,-11.44 -91.38,-20.93 -138.25,-4.12 -102.212,36.65 -195.688,117.61 -162.704,233.72 2.672,-15.43 10.918,-29.82 22.875,-39.93 11.961,-10.11 26.992,-15.71 41.699,-21.11 26.4,-9.69 53.14,-19.4 80.37,-26.39"
         style="fill:#b82327;fill-opacity:1;fill-rule:nonzero;stroke:none"
         id="path20" /><path
         d="m 1106.22,2035.86 c 105.52,-1.17 210.7,-26.35 305.31,-73.1 -28.49,38.91 -63.54,73.01 -103.22,100.43 -21.65,14.95 -44.88,28.03 -70.07,35.63 -25.99,7.84 -54.12,9.92 -77.79,23.22 -25.34,14.22 -42.26,39.41 -58.22,63.69 3.33,-5.06 -87.89,-48.66 -78.74,-71.92 3.61,-9.16 32.36,-21.81 40.2,-28.35 16.72,-13.96 31.81,-30.55 42.53,-49.6"
         style="fill:#b82327;fill-opacity:1;fill-rule:nonzero;stroke:none"
         id="path22" /><path
         d="m 925.941,1654 c 31.02,-48.25 62.036,-96.49 93.049,-144.74 4.57,-7.1 9.27,-14.6 9.83,-23.02 0.64,-9.64 -4.25,-18.67 -8.68,-27.26 -29.304,-56.81 -44.636,-120.78 -44.269,-184.7 54.949,26.62 112.269,48.37 171.049,64.9 -26.95,-108.73 -39.92,-220.9 -38.51,-332.91 -39.86,4.24 -79.71,8.48 -119.566,12.72 -14.145,1.51 -29.34,3.47 -39.817,13.09 -9.906,9.1 -13.39,23.04 -16.402,36.15 -10.441,45.42 -20.879,90.83 -31.32,136.25 -9.5,41.33 -19.246,83.31 -40.039,120.27 -13.434,23.88 -31.137,45.03 -48.735,66.02 -18.722,22.35 -49.156,47.81 -61.867,73.79 -17.699,36.19 -2.617,36.96 29.477,64.41 12.437,10.64 148.039,121.45 145.8,125.03"
         style="fill:#b82327;fill-opacity:1;fill-rule:nonzero;stroke:none"
         id="path24" /><path
         d="m 3528.71,3052.05 c 11.74,-1.66 23.96,-4.15 33.12,-11.68 9.17,-7.53 14.01,-21.58 7.72,-31.64 62.73,52.12 146.8,77.72 227.93,69.41 -13.04,48.42 -36.94,95.42 -75.82,127.1 -38.87,31.68 -94.35,45.55 -140.86,26.81 -17.76,-7.16 -33.47,-18.54 -48.57,-30.31 -27.41,-21.34 -53.55,-44.32 -78.24,-68.76 -14.8,-14.65 -29.3,-30.15 -38.48,-48.85 -40.59,-82.7 70.31,-26.05 113.2,-32.08"
         style="fill:#b82327;fill-opacity:1;fill-rule:nonzero;stroke:none"
         id="path26" /><path
         d="m 3503.07,1477.09 c 142.78,-6.78 286.21,-34.09 427.69,-13.66 5.04,87.67 -36.85,173.51 -98.32,236.22 -61.47,62.71 -140.98,104.78 -222.45,137.54 -51.56,20.73 -104.78,38.22 -159.79,46.04 -142.52,20.25 -293.31,-29.21 -396.14,-129.95 -16.41,-16.07 -32.09,-34.13 -38.62,-56.14 -10.29,-34.65 3.81,-71.34 17.68,-104.71 41.51,-99.84 49.28,-195.93 166.92,-158 100.96,32.56 196.32,47.72 303.03,42.66"
         style="fill:#b82327;fill-opacity:1;fill-rule:nonzero;stroke:none"
         id="path28" /><path
         d="m 1463.24,4305.81 c -51.13,-79.55 -140.68,-124.51 -209.62,-189.23 -68.89,-64.67 -116.34,-148.27 -165.88,-228.73 -15.41,-25.03 -31.78,-50.58 -55.98,-67.27 -24.19,-16.68 -58.385,-22.4 -82.748,-5.95 -5.739,3.87 -10.867,9.02 -13.332,15.49 -2.203,5.79 -2.129,12.17 -1.707,18.35 4.808,70.94 49.441,131.9 90.017,190.28 11.91,17.14 24.17,37.84 17.58,57.64 -3.66,11.02 -12.59,19.37 -21.49,26.83 -20.99,17.57 -43.775,33 -67.881,45.96 -30.32,16.31 -62.722,28.74 -91.984,46.88 -29.262,18.14 -55.981,43.31 -66.785,76 -10.813,32.69 -1.633,73.49 27.558,91.74 29.192,18.25 75.969,2.54 81.559,-31.43 2.683,-16.34 -3.695,-33.05 -1.742,-49.5 3.609,-30.38 34.445,-50.61 64.429,-56.72 29.989,-6.11 61.236,-2.54 91.366,-7.86 30.14,-5.33 61.68,-23.6 67.64,-53.62 2.26,-11.38 0.79,-24 7.07,-33.76 25.23,-39.18 72.04,15.58 87.09,35.38 24.62,32.42 23.76,67.28 41.63,100.81 18.73,35.13 38.87,21.53 74.07,15 20.63,-3.83 115.4,-17.66 129.14,3.71"
         style="fill:#b82327;fill-opacity:1;fill-rule:nonzero;stroke:none"
         id="path30" /><path
         d="m 2674.5,2416.5 c 31.12,98.47 131.04,170.77 234.31,169.53 55.65,68.87 148.03,106.15 235.89,95.19 -7.11,-40.05 -6.01,-81.55 3.23,-121.16 -30.95,21.33 -72.92,25.61 -107.53,10.95 -34.61,-14.66 -60.74,-47.77 -66.95,-84.84 -1.94,-11.52 -2.25,-23.89 -8.67,-33.66 -11.23,-17.11 -35.14,-18.68 -55.57,-19.96 -20.44,-1.27 -44.94,-7.34 -50.81,-26.95 -2.87,-9.57 -0.24,-19.96 -2.03,-29.78 -5.1,-27.83 -40.2,-37.09 -68.49,-37.36 -28.28,-0.26 -61.79,0.2 -78.17,-22.86 -14.46,-20.34 -10.4,-53.63 -32.28,-65.62 -9.5,-5.21 -21,-4.29 -31.83,-3.97 -83.61,2.45 -150.2,-40.43 -202.38,-101.56 -53.2,44.1 25.81,132 58.07,166.14 47.02,49.76 107.21,87.32 173.21,105.91"
         style="fill:#b82327;fill-opacity:1;fill-rule:nonzero;stroke:none"
         id="path32" /><path
         d="m 1856.98,3388.97 c -2.35,12.33 -3.56,24.87 -3.61,37.41 -51.83,-3.21 -103.04,-15.92 -150.35,-37.32 -2.6,-1.18 -5.28,-2.46 -7.02,-4.71 -1.9,-2.47 -2.37,-5.71 -2.7,-8.79 -1.3,-12.3 -5.35,-47.87 4.9,-57.19 11.81,-10.75 34.95,9.3 45.97,15.2 9.91,5.31 113.34,52.64 112.81,55.4"
         style="fill:#5dcbf5;fill-opacity:1;fill-rule:nonzero;stroke:none"
         id="path34" /><path
         d="m 935.91,3412.33 c 36.871,25.09 73.74,50.18 110.62,75.27 2.52,1.72 5.22,3.67 6.06,6.61 0.77,2.68 -0.21,5.51 -1.18,8.12 -3.57,9.61 -7.14,19.22 -10.71,28.82 -1.51,4.09 -89.696,-35.58 -98.048,-39.86 -14.925,-7.64 -29.554,-10.3 -28.66,-26.98 0.844,-15.83 15.11,-37.78 21.918,-51.98"
         style="fill:#5dcbf5;fill-opacity:1;fill-rule:nonzero;stroke:none"
         id="path36" /><path
         d="m 1005.02,2365.02 c -2.16,7.45 -1.84,18.47 5.84,19.53 3.34,0.46 6.48,-1.49 9.28,-3.36 37.49,-24.98 74.98,-49.96 112.47,-74.94 -1.35,14.62 0.51,29.52 5.41,43.36 1.42,4.03 3.3,8.21 6.9,10.51 6.08,3.89 14.03,0.87 20.56,-2.21 50.2,-23.72 100.39,-47.44 150.59,-71.15 -20.33,6.22 -40.65,12.44 -60.98,18.65 -5.39,1.66 -10.99,3.33 -16.59,2.61 -5.95,-0.77 -11.23,-4.17 -15.96,-7.86 -12.86,-10.04 -23.68,-23.08 -38.41,-30.09 -27.62,-13.15 -60.1,-1.72 -88.45,9.75 -52.95,21.42 -74.07,28.11 -90.66,85.2"
         style="fill:#5dcbf5;fill-opacity:1;fill-rule:nonzero;stroke:none"
         id="path38" /><path
         d="m 2494.82,1689.46 c -2.48,-46.55 6.56,-93.66 26.09,-135.98 194.18,117.65 388.35,235.31 582.52,352.97 -50.14,-58.52 -85.28,-129.8 -101.16,-205.21 -5.25,-24.91 -8.89,-51.35 -24.08,-71.78 -14.36,-19.32 -36.99,-30.4 -58.8,-40.59 -275.38,-128.74 -608.8,-285.21 -913.87,-316.53 11.34,81.85 143.41,184.94 204.72,236.94 85.9,72.86 181.87,133.87 284.58,180.18"
         style="fill:#5dcbf5;fill-opacity:1;fill-rule:nonzero;stroke:none"
         id="path40" /><path
         d="m 3916.95,4173.31 c -77.02,-72.58 -168.35,-127.92 -258.92,-182.68 49.25,-10.82 87.86,-53.22 102.67,-101.42 14.8,-48.2 8.34,-100.97 -8.91,-148.35 -61.96,-170.2 -243.34,-261.97 -412.68,-326.26 75.51,-74.37 197.88,-64.76 301.63,-43.13 84.02,17.52 168.37,40.09 242.14,83.96 73.78,43.87 136.66,111.67 158.47,194.68 12.83,48.85 11.03,100.26 7.17,150.61 -3.89,50.58 -10.19,102.45 -34.3,147.08 -24.1,44.64 -69.89,80.93 -120.6,79.79 79.93,45.03 162.88,92.83 213.45,169.37 24.31,36.81 78.72,247.17 -19.06,215.56 -35.03,-11.32 -52.19,-87.22 -69.56,-115.86 -27.69,-45.64 -62.71,-86.79 -101.5,-123.35"
         style="fill:#5dcbf5;fill-opacity:1;fill-rule:nonzero;stroke:none"
         id="path42" /><path
         d="m 3306.13,4620.21 c 24.3,9.27 49.98,16.95 75.91,14.98 25.92,-1.97 52.29,-15.28 63.66,-38.65 33.44,-68.67 -166.61,-225.04 -6.12,-239.25 128.54,-11.39 287.86,75.4 380.39,156.7 -21.6,43.22 -86.91,54.38 -100.63,100.71 -11.43,38.56 20.18,75.38 49.18,103.26 -34.71,17.65 -70.46,36.12 -95.08,66.29 -24.61,30.16 -35.14,75.46 -14.34,108.37 -12.03,-18.72 -89.17,-12.26 -112.94,-27.35 -24.45,-15.53 -30.2,-34.94 -43.43,-59.32 -45.82,-84.51 -108.77,-143.19 -196.6,-185.74"
         style="fill:#5dcbf5;fill-opacity:1;fill-rule:nonzero;stroke:none"
         id="path44" /><path
         d="m 2847.73,4434.38 c 96.44,-11.75 194.29,-35.18 273.63,-91.25 79.34,-56.07 137.12,-150.23 128.18,-246.97 -7.07,-76.41 -53.23,-143.53 -104.46,-200.66 -51.23,-57.13 -109.53,-108.93 -149.94,-174.16 78.82,16.42 157.05,35.71 234.47,57.81 13.14,3.75 26.47,7.67 37.97,15.05 13.82,8.85 24.17,22.14 33.39,35.72 28.27,41.58 48.69,88.47 59.88,137.48 14.91,65.28 12.9,135.93 -15.41,196.61 -25.68,55.03 -70.82,98.33 -116.92,137.86 -35.65,30.57 -72.6,59.81 -112.41,84.71 -73.8,46.17 -157.43,76.09 -243.46,88.89 -71.66,10.67 -194.81,23.14 -258.74,-17.1 71.2,-22.24 159.08,-14.88 233.82,-23.99"
         style="fill:#5dcbf5;fill-opacity:1;fill-rule:nonzero;stroke:none"
         id="path46" /><path
         d="m 3123.16,3498.61 c 5.56,-59.6 28.48,-117.48 65.24,-164.73 -54.4,-0.56 -106.82,38.47 -121.87,90.76 -286.69,-64.2 -573.38,-128.4 -860.08,-192.6 -61.38,-13.74 -122.88,-27.51 -185.3,-35.29 -46.87,-5.84 -94.17,-8.29 -141.39,-7.32 65.23,24.39 119.71,54.54 188.43,67.96 87,16.99 173.86,34.67 260.58,53.02 171.93,36.38 343.29,75.44 514,117.15 24.45,5.98 281.12,63.19 280.39,71.05"
         style="fill:#5dcbf5;fill-opacity:1;fill-rule:nonzero;stroke:none"
         id="path48" /><path
         d="m 726.328,1051.06 c 5.902,0.49 11.805,0.99 17.707,1.48 10.586,0.89 21.172,1.77 31.758,2.66 44.492,3.73 88.988,7.45 133.48,11.18 19.926,60.65 -18.921,123.1 -32.699,185.44 -4.91,22.21 -6.64,45.14 -13.375,66.87 -6.734,21.73 -19.597,42.97 -40.105,52.81 -28.739,13.8 -62.793,1.73 -91.535,-12.06 -46.286,-22.21 -90.438,-48.86 -131.649,-79.47 -64.332,-47.78 -121.105,-104.84 -177.605,-161.66 -23.864,-24 -134.883,-108.41 -123.926,-141.708 69.43,9.308 139.543,38.778 210.246,50.058 70.551,11.25 146.137,24.4 217.703,24.4"
         style="fill:#5dcbf5;fill-opacity:1;fill-rule:nonzero;stroke:none"
         id="path50" /><path
         d="m 3992.7,4140.7 c -95.8,-67.7 -208.6,-107.2 -208.6,-107.2 l 11.3,-43.2 c 0,0 93.9,5.6 161.6,3.7 67.7,-1.8 71.4,-171 60.2,-236.8 -11.3,-65.8 -63.9,-203 -110.9,-227.5 -47,-24.4 -204.9,-92.1 -283.9,-110.9 -78.9,-18.8 -151.3,-40.4 -229.8,-12.8 -78.6,27.6 -55.2,142.2 -48.8,174 6.3,31.9 42.4,89.1 -8.5,116.7 -51,27.6 -63.7,61.6 -36.1,84.9 27.6,23.4 84.9,91.3 101.9,159.2 16.9,67.9 29.7,237.7 -104,401.1 -133.7,163.4 -490.2,216.4 -632.4,191 -142.2,-25.5 -356.6,-95.5 -458.4,-36.1 -101.9,59.4 -14.9,146.4 -48.8,188.9 -34,42.4 -140.1,21.2 -271.7,-53.1 -131.5,-74.3 -299.2,-208 -432.9,-307.7 -133.7,-99.7 -301.1,-237.5 -403.2,-384.1 -15.8,-22.7 -27.8,-42.2 -36.8,-58.4 -24.798,-44.3 -27.701,-65.1 -27.701,-65.1 0,0 -7.5,10.7 -15.199,40.9 -2.5,9.9 -5.102,21.8 -7.398,36.2 -9.403,58.3 69.598,122.2 101.498,188 32,65.8 -67.6,97.7 -155.998,137.2 -88.301,39.5 -105.301,45.1 -103.403,107.1 1.903,62.1 71.5,47 71.5,47 0,0 -17,-65.8 30,-122.1 47,-56.4 103.401,-50.8 103.401,-50.8 0,0 88.4,32 94,-26.3 5.6,-58.3 48.9,-84.6 107.1,-37.6 58.3,47 47,167.3 47,167.3 -13.1,84.6 -92.1,92.1 -167.3,107.1 -75.1,15.1 -116.502,82.7 -116.502,94 0,11.3 78.902,-56.4 110.902,-73.3 32,-16.9 95.9,-28.2 95.9,-28.2 l 28.2,50.8 c -122.2,63.9 -103.4,129.7 -88.4,210.5 15.1,80.8 114.7,116.5 114.7,116.5 -37.6,-50.7 -58.3,-152.2 -30.1,-240.6 28.2,-88.3 110.9,-114.6 193.6,-114.6 82.7,0 92.1,47 116.6,103.4 24.4,56.3 -43.3,116.5 -77.1,154.1 -33.8,37.6 43.2,65.8 78.9,9.4 35.8,-56.4 101.5,-99.6 156.1,-48.9 54.5,50.8 31.9,126 13.1,208.7 -18.8,82.7 39.5,146.6 48.9,127.8 9.4,-18.8 -37.6,-63.9 -33.9,-124.1 3.8,-60.1 62.1,-105.2 127.9,-103.4 65.8,1.9 101.5,75.2 105.2,94 3.8,18.8 -20.6,15.1 -67.6,88.4 -47,73.3 -26.4,133.4 67.6,199.2 94,65.8 280.1,122.2 340.3,116.6 60.1,-5.7 172.9,-11.3 139.1,-120.3 -33.9,-109.1 37.6,-195.5 167.3,-220 129.7,-24.4 231.2,65.8 263.1,137.3 32,71.4 -31.9,114.6 -95.8,112.7 -64,-1.8 -95.9,-11.2 -107.2,35.8 -11.3,46.9 52.6,75.1 52.6,75.1 197.4,82.8 310.2,-3.7 385.4,-52.6 75.2,-48.9 129.7,-216.2 280.1,-313.9 150.3,-97.7 281.9,-54.5 281.9,-54.5 -24.4,-110.9 92.1,-143.9 92.1,-143.9 -110.9,-119.5 33.9,-179.4 33.9,-179.4 -75.2,-71.5 -156.1,-99.6 -204.9,-103.4 -48.9,-3.8 -99.7,-56.4 -45.1,-156 54.5,-99.6 182.3,-94 308.2,-45.1 126,48.8 109.1,172.9 112.8,204.9 3.8,31.9 114.7,45.1 167.3,-28.2 52.6,-73.4 -16.9,-191.8 -112.8,-259.4 z M 3829.9,3051 c 0,0 -30.8,213.9 -166.6,237 -135.7,23.1 -275.6,-204.1 -275.6,-204.1 l -32.9,18.5 c 0,0 22.6,49.4 121.3,139.9 98.8,90.5 212.9,116.8 296.3,91.9 83.3,-25 57.5,-283.2 57.5,-283.2 z m -343.5,-267.5 c -30.6,36.8 -93.2,39.6 -123.1,38.6 -10.5,-0.9 -16.8,-1.1 -16.8,-1.1 0,0 6.5,0.8 16.8,1.1 45.9,4 173.4,21.4 213.6,95.2 49.4,90.5 30.9,168.6 30.9,168.6 l -53.5,107.8 c 0,0 109,80.8 181,-41.2 72,-122.1 51.5,-269.3 -90.5,-387 -141.9,-117.7 -170.7,-117.7 -170.7,-117.7 0,0 53.5,86.4 12.3,135.7 z m -43.3,-313.3 c -282.8,-123.4 -379.8,0.5 -235.3,134.7 l -39.2,24.7 c 0,0 -39.3,-28.9 -109.5,-45.4 -70.1,-16.5 -107.3,-36.9 -123.8,-133 0,0 -51.6,17.4 -78.5,-13.5 -26.8,-31 -20.6,-66.2 -20.6,-66.2 0,0 -57.8,-30.8 -105.3,-12.3 0,0 -68.1,-35.1 -64,-109.4 0,0 -64,33.1 -109.4,8.3 -45.4,-24.8 -109.4,-76.4 -109.4,-76.4 0,0 -20.6,152.8 128,216.8 0,0 -2.9,4.9 -5.7,13.6 -7.9,24.2 -15.5,78.3 40.8,139.1 35.1,37.9 71.9,54.5 101.4,61.4 34.8,8 59.6,2.6 59.6,2.6 l 26.8,24.4 c 0,0 -22.7,56.1 49.6,70.6 72.2,14.4 158.9,4.1 163.1,92.8 4.1,88.8 -58.5,212.7 13,311.7 57.7,79.9 229.9,198.5 294.4,241.4 6.6,-7.9 13.6,-15.8 21.4,-23.7 17.2,-17.6 39.5,-27.8 64.3,-32.7 -54.2,-50.1 -165,-170.1 -102.1,-251 l 92.9,-59.9 41.3,22.7 c 0,0 -22.7,107.4 74.3,132.1 0,0 97,-78.4 8.3,-171.3 -88.8,-92.9 -247.7,-98.2 -237.4,-151.3 l 36.8,-26.2 c 0,0 72.6,39.2 122.1,-18.6 49.6,-57.8 2.1,-173.4 -181.6,-220.9 l 2,-23.7 c 0,0 233.3,38.2 328.3,129 92.9,88.9 207.7,229.3 212.5,235.1 -2.3,-9.2 -80.7,-304.1 -359.1,-425.5 z M 1528,2309.9 c 0,0 35.3,37.1 75.7,33.7 0,0 -11.3,-33.7 -75.7,-33.7 z m -425.5,389.8 c 20.4,51.8 89.4,34.5 100.4,11 11,-23.6 44,-54.9 44,-54.9 0,0 -33,-12.6 -72.2,-15.7 -39.3,-3.2 -92.6,7.8 -72.2,59.6 z m 9.4,-166.6 c 36.9,-4.5 70.4,2.1 96.8,11.3 l -7.2,-31.4 h -0.3 c -58,6.3 -119.9,-53 -119.9,-53 0,0 -4.7,5.4 -12.7,12.2 z m 178.9,-216 c -17.7,10.9 -68.1,42 -95.9,-6 -27.8,-47.9 -66.9,-47.9 -112.3,-16.1 -45.4,31.7 -93.401,19.9 -93.401,19.9 0,0 -17.597,24 -23.898,71.9 -6.403,48 37.799,79.5 70.599,53 32.8,-26.5 29,-65.6 70.7,-68.3 41.6,-2.7 41.6,36.8 58,73.4 16.4,36.6 64.4,39.1 92.1,-30.3 27.8,-69.4 108.5,-98.4 108.5,-98.4 0,0 -56.7,-10.1 -74.4,0.9 z m 35.3,-134.7 c 17.7,-41.6 -33.6,-69.4 -79.2,-69.4 -45.7,0 -70.9,24 -100,53 -29,29.1 -61.8,48 -99.6,3.8 -37.9,-44.1 -63.101,-51.7 -82.698,6.3 -19.5,58.1 29.699,107.3 29.699,107.3 0,0 40.299,6.3 78.199,-18.9 37.9,-25.3 74.4,-32.9 108.5,-22.8 34.1,10.1 65.9,53.3 65.9,53.3 0,0 30.7,-30.9 97.2,-28.8 0,0 -35.6,-42.1 -18,-83.8 z m 1730.1,-87.6 c -257.7,-202.1 -638.6,-188.1 -829.1,-188.1 -190.4,0 -267,123.1 -267,123.1 -111.5,-67.4 -46.5,-197.4 -76.7,-330.2 -30.2,-132.8 -134.7,-266.7 -253.1,-403.7 -79.7,-92.3 -81.3,-186.4 -73.8,-238.1 -90.7,-37.2 -158.7,-43.2 -216.5,-49.9 -90.4,-10.498 -252.9,24.6 -381.801,60.7 -0.301,3.2 -0.597,6.4 -0.898,9.5 -42.403,438.7 -376.699,501.1 -376.699,501.1 0,0 65,55.7 185.796,69.7 86.301,9.9 138.102,-7.4 160.602,-18.1 20.602,-109.2 80.5,-205.3 190.7,-247.5 46.6,-17.9 93.1,-29.4 138.7,-34.8 135.2,-15.9 261.9,23.4 357.7,117.8 34,33.6 59.3,64.9 77.1,92.8 49.3,77.3 40.9,128.6 -1,128.6 -57.1,0 -86.5,-32.8 -110.7,-122.8 0,0 -105.4,-134.9 -257.7,-134.9 -152.2,0 -306.6,33.2 -318.3,287.1 -11.699,253.9 88.2,280.2 185.1,285.4 96.9,5.2 207.6,-39.8 252.5,-105.5 45,-65.7 45,-91.7 45,-91.7 l 25.9,15.6 c 0,0 -3.4,133.2 -185,200.6 -181.6,67.5 -344.199,19.1 -390.898,-162.5 -10.801,-41.9 -16.704,-85.9 -17.301,-129.7 -19.102,47.3 -54.801,142.4 -66.5,219.2 -16.301,106.8 48.801,188.1 9.301,271.7 -39.5,83.6 -53.403,150.9 -58.102,250 -4.602,99 85.898,105.3 16.301,251.6 -69.699,146.3 -81.301,183.5 -38.403,320.5 30.903,98.7 88.403,182.4 118.204,221.7 12.398,-6.4 25.398,-12.2 39.597,-16.5 87.901,-26.7 185.201,11 185.201,11 C 932.898,3051.3 907.801,2941.4 885.801,2852 c -21.903,-89.5 20.398,-211.9 142.899,-288.9 16.3,-10.2 32.6,-17.5 48.4,-22.5 l -40.1,-48 c -25.8,11.7 -59.5,15 -91.898,-17.4 -65.704,-65.6 8.796,-172.9 8.796,-172.9 0,0 -36.597,-29 -35.898,-98.4 0.699,-69.4 52.301,-102.2 102.8,-103.5 50.4,-1.2 64.3,56.8 68.1,58.1 3.8,1.2 13.9,6.3 42.9,-34.1 29,-40.4 103.5,-54.3 167.8,-45.4 64.4,8.8 98.4,97.1 87.1,127.4 -11.4,30.3 -13.9,49.2 15.1,49.2 29,0 87.1,-5 152.7,10.1 65.6,15.2 126.2,74.4 126.2,74.4 0,0 42.9,-32.7 35.3,-94.6 -7.6,-61.8 -65.6,-23.9 -65.6,-23.9 l -34.1,-25.3 c 68.2,-64.3 140.1,-15.1 152.7,63.1 12.6,78.2 -73.2,119.9 -73.2,119.9 l -8.8,55.5 -65.6,-53 c 0,0 -50.5,-1.3 -127.5,-38.2 -76.9,-37 -142.5,5.4 -174.1,55.9 -23.3,37.2 -45.2,77.8 -78.4,99.1 8,16.7 21.2,47.7 23.7,74 1.4,0.9 2.2,1.5 2.2,1.5 0,0 119.3,-28.2 222.9,55 103.6,83.2 94.2,142.8 32.9,208.7 -61.2,66 -117.7,50.3 -141.2,18.9 -23.6,-31.4 -39.3,-58.1 -33,-106.8 6.3,-48.6 67.5,-31.4 67.5,-31.4 v 44 c 0,0 -36.1,25.1 -3.1,58.5 32.9,33.4 81.6,2.7 91,-55.4 9.4,-58 -29.8,-106.7 -114.6,-116.1 -84.7,-9.4 -124,56.5 -149.1,86.3 -25.1,29.8 -87.9,50.2 -152.3,22 -64.3,-28.3 -62.8,-92.6 -62.8,-92.6 -113,76.9 -109.801,175.8 -28.199,331.2 81.599,155.4 166.399,238.6 260.599,356.3 94.1,117.7 180.5,199.4 180.5,199.4 122.4,34.5 141.3,-72.3 141.3,-72.3 -75.4,-111.4 -31.4,-284.1 155.4,-318.6 186.8,-34.5 268,81.6 268,81.6 0,0 245.3,94.2 355.1,130.3 87.7,28.8 325.1,87.5 477.3,123.7 38.7,9.2 71.9,16.9 95.7,22.3 117.7,26.7 224.5,88.3 252.8,9.4 17.7,-49.3 50,-92.7 71.7,-118.4 -43.5,-5.9 -105.3,-24.3 -171.8,-75.9 -125.9,-97.7 -239.4,-182.3 -171.3,-397 0,0 84.6,-150.7 28.9,-167.2 -55.8,-16.5 -229.1,-10.3 -194.1,-111.5 0,0 -40.9,22.3 -93.6,1.9 -27.5,-10.6 -58.3,-32.9 -88,-76.2 -86.7,-125.9 -45.4,-165.1 -45.4,-165.1 0,0 -16.6,-9.1 -37.5,-26 -33.6,-27.2 -78.3,-74.7 -82.9,-137.1 -7.6,-101.1 17.2,-117.6 17.2,-117.6 l 33,-25.4 c 0,0 109.4,161.6 179.6,105.9 0,0 64,-43.4 84.6,22.7 20.7,66 26.9,85.2 26.9,85.2 0,0 90.8,-46.2 152.7,44.7 v 24.9 c 0,0 88.8,6.2 103.2,53.7 14.5,47.4 -12.4,91.4 43.4,90.1 0,0 -64,-81.9 16.5,-156.2 69.1,-63.8 159.5,-86.6 271.2,-58.4 -43.5,-42.2 -125.5,-115.9 -272.1,-230.8 z m -82.3,-442.1 c -82.6,-69.7 -364.3,-169 -535.4,-231.4 -171.9,-62.7 -418,-48.8 -643.3,-220.6 -67.9,-51.8 -127,-88.7 -179.4,-115.5 1.8,133.7 129.2,253 188.7,308.2 65,60.4 176.5,134.7 198.6,306.2 21.7,167.4 -13.4,227.4 -15.1,230.2 6.2,-2.4 247.5,-97.3 531.8,-88.2 287.9,9.3 634,234.8 634,234.8 -120,-136 -165.4,-338.3 -179.9,-423.7 z m 126.5,-296.4 c -23.3,-46.5 -185.8,-74.4 -313.6,-86 -127.7,-11.6 -425,-90.5 -703.6,-304.198 -274.3,-210.403 -458.7,-382.301 -464.4,-387.7 1.9,4 46.7,94.2 73.4,178.899 13.3,42.199 22.2,83.101 19,111.301 C 1701.5,954.5 1618.7,987 1618.7,987 c 0,0 167.2,120.8 364.6,209 138.7,62 346.1,127.5 520,179.5 73.7,21.9 141.4,41.5 195.3,57.4 66.4,19.6 125.7,45.1 174.1,69.6 83.6,42.3 134.8,81.4 134.8,81.4 l 14.4,-35.3 z M 1516.5,506.301 c -24.7,-6.199 -74.9,20.398 -105.9,38.898 -15.7,9.403 -26.5,16.801 -26.5,16.801 l -6.1,-36.898 -3.2,-19.7 90.6,-52.601 c 0,0 27.9,-153.199 -127.7,-239.199 -155.6,-85.903 -216,-51.102 -227.6,0 -11.6,51.097 -34.9,44.199 -34.9,44.199 0,0 -39.9,-90.602 -115.2,-132.399 -75.199,-41.8004 -269.301,-100.2028 -358.5,74.297 -89.301,174.5 134.699,311.203 250.801,301.903 0,0 -29.699,-127.704 66.398,-178.801 89.801,-47.699 158.401,-8.399 170.901,83.801 1,6.699 1.6,13.5 1.9,20.699 4.6,106.801 -172.801,132.398 -172.801,132.398 0,0 82.201,162.5 -78,202 -1.898,0.5 -3.801,0.903 -5.699,1.301 -155.102,36.5 -175.5,-33.801 -175.5,-33.801 0,0 -102.199,65 -209,23.203 -106.801,-41.8 -160.199,-167.203 -160.199,-167.203 0,0 0,192.801 120.699,264.801 120.801,72 281,69.602 281,69.602 l 11.699,25.597 c 0,0 27.801,67.301 113.801,72.001 30.602,1.6 62,-2.9 95.898,-9.8 61.102,-12.298 130.302,-32.201 217.202,-36.701 135.1,-6.898 337.1,-18.5 402.1,-16.199 0,0 155.6,-23.199 109.2,-223 -1.6,-6.898 -3.2,-13.598 -4.8,-20.102 -44.5,-180.699 -84.8,-196.097 -120.6,-205.097 z m -624.699,6.898 c 0,0 41.801,-11.597 99.801,-37.097 35.098,-15.403 54.798,-44.403 58.398,-71 2.4,-17.602 -2.3,-34.102 -14.2,-45.102 -30.2,-27.898 -67.402,-32.598 -117.101,25.5 -33.597,39.301 -34.097,83.801 -30.801,108.5 1.5,11.902 3.903,19.199 3.903,19.199 z M 857.602,3374.7 c -53.403,116.1 23.5,235.4 119.296,259 95.702,23.5 183.602,-3.2 243.302,-37.7 59.6,-34.5 62.8,-163.2 62.8,-163.2 l -136.6,-150.7 c 0,0 -235.4,-23.6 -288.798,92.6 z m 470.898,111.4 -22,-15.7 c -4.7,92.6 -17.2,136.6 -84.7,172.2 -67.5,35.6 -160.3,36.6 -160.3,36.6 0,0 45.7,25.1 75.5,28.3 29.8,3.1 103.6,20.4 146,-37.7 42.4,-58.1 45.5,-183.7 45.5,-183.7 z m 446.3,-84.7 c 35,10.2 67.4,11.3 67.4,11.3 0,0 -27.3,-63 -35.7,-78.6 -8.4,-15.6 -50.8,-65.1 -84,-38.3 -25,20.2 -15.9,53.4 -9.9,68.6 3.7,-17.3 19,-30.2 37.4,-30.2 21.1,0 38.3,17.1 38.3,38.2 0,11.7 -5.3,22 -13.5,29 z m 47.7,-105.6 c 46,34.8 57.1,113 57.1,113 l 50.8,-12.3 33.3,24.7 c -65.1,41.2 -182.4,20.6 -260.1,-9.6 -43.3,-16.7 -76.2,-39.4 -96.9,-56.2 -6.8,58.6 11.7,122.5 71.5,159 0,0 93.6,-118.6 314,13 0,0 131.7,-107.6 4.8,-247.3 -126.9,-139.7 -299.8,-82.6 -352.1,-19.1 -11.2,13.5 -20.3,30.2 -27.1,48.5 20.1,17.7 55.6,40.3 55.6,40.3 -17.4,-111 103.1,-88.8 149.1,-54 z m 753.7,1121 c 7.1,1.2 14.4,2.5 21.8,3.9 79.3,14.7 155.1,14.9 226.5,4.3 138.4,-20.7 260.6,-81.7 360.9,-155.8 0.3,-0.3 0.6,-0.5 0.9,-0.7 152.3,-112.8 159.8,-282 75.2,-417.3 -84.6,-135.4 35.7,-193.6 35.7,-193.6 -22.6,-64.6 -34.3,-116.7 -33.4,-162.4 l -57.9,75.7 -9.4,36.1 c -75.4,4 -174.4,-11 -282.8,-34.3 -144.5,-31.2 -305.6,-77.4 -449.6,-113.3 -248.1,-61.7 -403.9,-147.9 -408.7,-150.5 1.8,2.9 34.4,56.6 36,120.7 1.5,65.9 -56.5,120.9 -56.5,120.9 l 105.1,26.7 c 141.3,26.7 141.3,-44 221.4,-64.4 80,-20.4 102.7,23.6 102.7,23.6 h -52.5 c -23.5,73.7 -92.6,103.6 -211.9,117.7 -119.3,14.1 -281,-33 -281,-33 -186.8,44 -310.8,-102 -310.8,-102 -51.8,106.7 -191.5,56.5 -191.5,56.5 0,98.9 -69.1,180.5 -200.9,196.2 -28.8,3.4 -56.4,0.9 -81.8,-5.2 -10.5,61.9 24.8,142.3 83.9,226.2 79.1,112.3 200.8,230.7 312.7,318.9 195.5,154.1 421.1,238.7 494.4,238.7 73.3,0 88.3,-54.5 163.5,-103.4 49.5,-32.1 110.4,-52.1 212.9,-49.6 48.1,1.2 105.4,7.3 175.1,19.4 z m 1604.5,-91.9 c 20.7,86.4 -73.3,157.9 -146.6,174.8 -73.3,16.9 -112.8,-1.9 -142.9,-118.4 -30.1,-116.6 -73.3,-122.2 -186.1,-144.8 -112.8,-22.5 -157.9,84.6 -157.9,84.6 0,0 114.7,-5.6 210.6,58.3 95.8,63.9 133.4,188 133.4,188 l -31.9,26.3 c 0,0 -52.7,-60.2 -105.3,3.7 -52.6,63.9 56.4,126 56.4,126 l -24.4,50.7 c 0,0 -43.3,-31.9 -82.7,32 -39.5,63.9 35.7,118.4 35.7,118.4 l -47,48.9 c 0,0 -84.6,-80.9 -182.4,-69.6 -97.7,11.3 -182.3,56.4 -272.5,189.9 -90.2,133.4 -176.7,186.1 -276.3,229.3 -99.7,43.2 -253.8,28.2 -325.2,-50.8 -71.5,-78.9 -32,-152.2 9.4,-171 41.3,-18.8 131.5,3.8 131.5,-15 0,-18.8 -82.7,-62.1 -189.8,-64 -107.1,-1.8 -103.4,86.5 -99.6,141 3.7,54.5 -58.3,109 -152.3,126 -94,16.9 -180.4,-5.7 -293.2,-47 -112.8,-41.4 -204.9,-103.4 -240.6,-203 -35.7,-99.7 86.4,-216.2 86.4,-216.2 -67.6,-92.1 -152.2,16.9 -150.3,60.1 1.8,43.3 47,82.8 41.3,112.8 -5.6,30.1 -41.3,54.5 -90.2,-15 -48.9,-69.6 -35.7,-180.5 -16.9,-225.6 18.8,-45.1 -20.7,-56.4 -88.4,-9.4 -67.6,47 -109,32 -137.2,26.3 -28.2,-5.6 -103.4,-86.4 -37.6,-127.8 65.8,-41.3 65.8,-99.6 65.8,-99.6 0,0 -50.7,-37.6 -107.1,-28.2 -56.4,9.4 -105.3,47 -120.3,133.5 -15.1,86.4 69.5,129.7 75.1,165.4 5.7,35.7 -35.7,26.3 -35.7,26.3 0,0 -109,-22.6 -186.1,-129.7 -75.5,-105.2 -19.1,-226.5 -17,-231.1 -4.1,2.8 -99.8,69.4 -112.698,69.4 -13.102,0 -43.204,-13.1 -9.403,-97.7 33.903,-84.6 199.301,-114.7 242.501,-127.8 43.3,-13.2 24.5,-110.9 -9.4,-152.3 -33.8,-41.3 -47,-24.4 -41.3,9.4 5.6,33.8 3.7,58.3 -62.1,77.1 -65.7,18.8 -84.5,-26.3 -146.599,5.6 -62,32 -20.699,62 -20.699,62 0,0 0,45.2 -16.903,62.1 -16.898,16.9 -120.301,45.1 -139.097,-56.4 -18.801,-101.5 71.5,-141 159.796,-165.4 88.402,-24.5 109.002,-79 84.602,-110.9 -24.398,-32 -141,-92.1 -137.199,-204.9 0.5,-16.6 3.5,-30.5 8.301,-42.2 27.199,-67.5 112,-59.3 112,-59.3 l 18.798,-42 c -22.201,-16.7 -34.9,-30.1 -34.9,-30.1 0,0 -116.199,-26.7 -173.898,-130.3 -47.5,-85.3 -20.5,-204.4 68.796,-267.6 -197,-201.6 -187.199,-372.1 -143.699,-458.7 44.5,-88.9 45.903,-187.4 15.801,-289.4 -30.199,-102 -4.699,-220.8 65,-302.1 69.699,-81.3 -2.301,-155.6 -29.102,-260.1 -26.699,-104.5 47.704,-229.9 47.704,-229.9 -175.903,44.1 -329.801,-109.2 -329.801,-109.2 v -46.4 c 0,0 55.301,-40.7 169.597,-121.8 C 455.699,1311.6 206.699,966.102 206.699,966.102 53.3984,831.398 0,650.301 0,650.301 L 32.5,634 l 204.398,276.402 62.704,27.797 c 0,0 113.796,104.501 215.898,218.301 81.898,91.2 241,157.2 301.199,179.9 63.903,-88 80.699,-197 85.102,-252.6 C 773.699,1107 643.301,970.699 643.301,970.699 413.398,984.699 297.199,836 260.102,634 222.898,431.902 320.5,441.199 320.5,441.199 l 9.199,37.203 c -51,69.7 4.699,97.5 90.602,185.797 85.898,88.203 195.097,30.203 195.097,30.203 l 46.5,-48.8 c 0,0 72.403,92.199 170.403,61 2.801,-0.801 5.597,-1.801 8.398,-2.903 102.199,-39.5 34.801,-132.398 34.801,-132.398 0,0 -8.199,-0.899 -22.301,-3.301 C 758.5,552.199 398.199,469.602 499.301,144 545.301,-4.30078 717.398,-21.8984 840.699,19.1992 971.602,62.9023 1063.6,174.199 1063.6,174.199 c 0,0 190.5,-213.699 378.6,-65.097 188.1,148.699 97.5,332.097 97.5,332.097 0,0 157.9,125.403 385.5,295 227.6,169.5 601.5,341.401 764.1,397.101 162.6,55.7 339.1,85.9 429.6,141.7 90.6,55.7 34.9,125.4 34.9,125.4 0,0 -21.4,68.6 -72.6,168.8 -2.1,4 -4.2,8.1 -6.4,12.3 -13.4,25.7 -26,43.1 -37.6,54.8 23.3,136.1 180.9,172.5 419.6,151.7 14.8,-1.2 29.9,-2.7 45.3,-4.4 271.8,-30.2 418.1,-299.6 418.1,-299.6 39.4,-202.1 72,-188.1 72,-188.1 78.9,308.9 -151,466.8 -369.3,571.3 -20.5,9.8 -41.2,18.2 -61.9,25.4 -200,69.6 -400.3,25.7 -400.3,25.7 0,0 41.8,116.1 190.5,274 85.6,91 135,175 159.7,229.8 128.2,102.6 275,273.8 338.9,398.9 80.2,157.3 102,506 -36,579.4 58,22.1 118,50.1 150.7,80.5 77.1,71.4 146.6,225.5 146.6,379.7 0,154.1 -139,212.4 -139,212.4 122.1,58.3 187.9,165.4 208.6,251.9"
         style="fill:#111011;fill-opacity:1;fill-rule:nonzero;stroke:none"
         id="path52" /><path
         d="m 1009.8,3407.6 c -70.601,-45.5 -78.402,62.8 -78.402,62.8 0,0 7.204,3.9 18.301,9.3 -0.699,-3 -1.301,-6.1 -1.301,-9.3 0,-20.8 16.903,-37.6 37.704,-37.6 20.798,0 37.698,16.8 37.698,37.6 0,14.2 -8,26.4 -19.5,32.8 13.3,4.9 26.8,9.1 38.5,11.2 0,0 37.7,-61.2 -33,-106.8 z m 139.8,146 c 0,0 -103.6,31.4 -186.799,-9.4 C 879.602,3503.4 856,3423.3 856,3423.3 l 47.102,7.9 c 0,0 23.597,-87.9 114.598,-48.7 91,39.3 69.1,139.7 69.1,139.7 h 54.9 l 7.9,31.4"
         style="fill:#111011;fill-opacity:1;fill-rule:nonzero;stroke:none"
         id="path54" /><path
         d="m 1164.94,1697.81 c 0,0 -42.07,-37.77 -33.13,-85.45 8.93,-47.69 25.66,-92.42 67.45,-87.23 41.78,5.19 36.04,57.08 34.31,93.4 -1.73,36.32 -5.19,91.67 -68.63,79.28"
         style="fill:#111011;fill-opacity:1;fill-rule:nonzero;stroke:none"
         id="path56" /><path
         d="m 2495.61,2733.5 c 84.63,132.75 26.83,288.35 26.83,288.35 l -14.45,-10.32 c 0,0 4.13,-105.28 -43.89,-243.58 -48.01,-138.3 -205.88,-183.72 -205.88,-183.72 0,0 152.75,16.51 237.39,149.27"
         style="fill:#111011;fill-opacity:1;fill-rule:nonzero;stroke:none"
         id="path58" /><path
         d="m 1002.8,3478.93 c 0,-5.9 -4.78,-10.68 -10.679,-10.68 -5.898,0 -10.68,4.78 -10.68,10.68 0,5.89 4.782,10.67 10.68,10.67 5.899,0 10.679,-4.78 10.679,-10.67"
         style="fill:#ffffff;fill-opacity:1;fill-rule:nonzero;stroke:none"
         id="path60" /><path
         d="m 1769.57,3382.19 c 0,-5.9 -4.78,-10.68 -10.68,-10.68 -5.89,0 -10.68,4.78 -10.68,10.68 0,5.89 4.79,10.68 10.68,10.68 5.9,0 10.68,-4.79 10.68,-10.68"
         style="fill:#ffffff;fill-opacity:1;fill-rule:nonzero;stroke:none"
         id="path62" /><path
         d="m 4250.04,2547.66 c -24.15,3.48 -41.06,5.49 -50.72,6.04 -2.15,-30.59 -3.88,-57.02 -5.22,-79.29 7.77,-1.88 15.55,-3.36 23.34,-4.42 1.6,-0.27 4.28,-0.67 8.04,-1.21 0.81,0 2.07,-0.14 3.82,-0.4 1.75,-0.27 3.02,-0.54 3.83,-0.81 0.54,-0.27 1.2,-0.4 2.01,-0.4 0.8,0 1.34,-0.14 1.61,-0.4 1.62,0 2.82,-0.14 3.63,-0.4 1.6,0 2.67,-0.14 3.21,-0.41 h 3.22 c 0.27,0 0.74,-0.07 1.41,-0.2 0.66,-0.14 1.14,-0.2 1.41,-0.2 h 2.42 4.02 1.61 0.8 0.8 l 1.61,-16.1 h -1.2 c -0.54,0 -0.94,-0.13 -1.21,-0.4 h -2.01 -4.83 -2.82 -3.22 c -1.34,0 -2.41,0.13 -3.21,0.4 h -3.62 c -0.55,0 -1.22,0.07 -2.02,0.2 -0.81,0.13 -1.34,0.21 -1.61,0.21 -1.88,0 -3.22,0.13 -4.02,0.4 -1.61,0 -4.3,0.26 -8.05,0.8 -1.08,0 -2.56,0.14 -4.43,0.4 -1.88,0.27 -3.21,0.41 -4.02,0.41 -2.15,0.26 -5.71,0.73 -10.67,1.41 -4.97,0.66 -8.65,1.27 -11.06,1.81 -3.76,-88.54 -1.35,-135.49 7.24,-140.85 -2.42,-6.44 -8.65,-12.14 -18.72,-17.11 -10.06,-4.96 -18.97,-7.57 -26.76,-7.84 -8.04,-0.27 -14.75,3.15 -20.11,10.26 -5.37,7.11 -9.2,17.36 -11.48,30.78 -2.28,13.41 -3.82,27.7 -4.63,42.86 -0.8,15.16 -0.66,32.8 0.4,52.92 1.08,20.12 2.15,38.17 3.23,54.13 1.07,15.96 2.48,33.87 4.23,53.72 1.73,19.86 2.88,34.75 3.41,44.68 0.54,12.6 5.7,22.13 15.5,28.57 9.79,6.44 21.94,9.85 36.42,10.26 14.49,0.4 28.9,-0.14 43.26,-1.61 14.34,-1.48 27.69,-3.09 40.04,-4.83 12.34,-1.75 19.85,-2.21 22.54,-1.41 0.26,-1.07 0.47,-2.41 0.6,-4.02 0.13,-1.61 0.27,-4.77 0.4,-9.46 0.14,-4.7 0.07,-9.12 -0.2,-13.28 -0.27,-4.16 -1.2,-8.72 -2.81,-13.68 -1.62,-4.97 -3.76,-9.13 -6.44,-12.48 -2.69,-3.36 -6.51,-5.97 -11.47,-7.84 -4.97,-1.88 -10.81,-2.29 -17.5,-1.21"
         style="fill:#111011;fill-opacity:1;fill-rule:nonzero;stroke:none"
         id="path64" /><path
         d="m 4448.42,2429.75 8.86,0.4 c 3.75,-0.81 5.09,-2.96 4.02,-6.44 0,-0.27 -0.94,-3.62 -2.82,-10.06 -1.87,-6.44 -3.88,-13.42 -6.03,-20.93 -2.15,-7.52 -5.24,-16.7 -9.26,-27.56 -4.02,-10.87 -8.25,-21.27 -12.68,-31.2 -4.42,-9.92 -9.85,-19.99 -16.29,-30.18 -6.44,-10.19 -13.08,-18.91 -19.93,-26.15 -6.83,-7.25 -14.68,-13.08 -23.53,-17.51 -8.86,-4.43 -17.98,-6.37 -27.37,-5.84 -7.24,0.28 -13.29,2.62 -18.11,7.05 -4.83,4.42 -8.18,10.53 -10.06,18.31 -1.88,7.78 -3.08,16.09 -3.62,24.95 -0.55,8.85 -0.21,19.17 1,30.99 1.2,11.8 2.48,22.46 3.82,31.99 1.34,9.52 2.88,20.18 4.63,31.99 1.75,11.81 3.02,20.93 3.83,27.37 -16.91,0.26 -30.25,1.81 -40.05,4.63 -9.79,2.81 -16.03,6.36 -18.71,10.66 -2.69,4.29 -4.37,9.12 -5.03,14.49 -0.67,5.36 -0.4,10.93 0.81,16.7 1.2,5.76 0.73,11.47 -1.42,17.1 1.62,0.81 3.7,1.61 6.24,2.41 2.55,0.81 7.11,1.75 13.69,2.82 6.57,1.07 12.33,1.07 17.3,0 4.96,-1.07 9.26,-4.16 12.88,-9.25 3.63,-5.1 5.03,-12.48 4.23,-22.13 -0.55,-6.99 5.23,-10.47 17.31,-10.47 4.28,0.26 8.57,0.26 12.87,0 4.28,-0.27 9.39,-1.41 15.29,-3.42 5.9,-2.01 10.8,-4.9 14.69,-8.65 3.88,-3.76 7.04,-9.33 9.46,-16.7 2.41,-7.39 2.95,-16.04 1.61,-25.96 -6.44,-49.37 -9.39,-79.42 -8.86,-90.15 0.54,-20.38 7.51,-23.34 20.93,-8.85 9.39,9.93 18.31,25.69 26.76,47.29 8.46,21.59 14.55,40.7 18.31,57.34 l 5.23,24.96"
         style="fill:#111011;fill-opacity:1;fill-rule:nonzero;stroke:none"
         id="path66" /><path
         d="m 4464.52,2403.99 c -0.54,-13.68 5.23,-18.51 17.3,-14.49 9.66,3.48 19.58,10.73 29.79,21.73 1.06,10.2 2.01,17.84 2.81,22.94 -4.29,0 -8.65,-0.34 -13.08,-1.01 -4.42,-0.67 -9.65,-1.88 -15.69,-3.61 -6.03,-1.75 -11.01,-4.83 -14.89,-9.26 -3.89,-4.43 -5.98,-9.86 -6.24,-16.3 z m 185.93,39.44 h 13.28 c -1.08,-3.76 -2.69,-8.65 -4.84,-14.69 -2.15,-6.04 -6.97,-16.77 -14.48,-32.2 -7.52,-15.43 -15.57,-29.11 -24.15,-41.04 -8.58,-11.95 -19.99,-22.74 -34.2,-32.4 -14.23,-9.66 -28.98,-14.49 -44.27,-14.49 -9.93,0 -17.64,3.56 -23.14,10.67 -5.5,7.1 -8.79,15.62 -9.86,25.55 -1.08,9.93 -1.21,22.13 -0.4,36.62 -18.78,-18.25 -38.64,-25.62 -59.57,-22.13 -13.14,2.41 -21.6,8.99 -25.35,19.72 -3.75,10.73 -2.88,22.26 2.62,34.61 5.5,12.34 14.01,22.13 25.56,29.38 19.04,11.8 40.64,15.69 64.78,11.67 0.81,12.33 0.54,21.33 -0.8,26.96 1.07,0.26 2.41,0.53 4.02,0.81 1.62,0.26 4.76,0.46 9.46,0.6 4.69,0.13 9.12,-0.07 13.28,-0.6 4.16,-0.55 8.72,-1.89 13.68,-4.03 4.96,-2.15 9.19,-5.03 12.69,-8.66 3.47,-3.61 6.23,-8.78 8.24,-15.49 2.01,-6.71 2.62,-14.62 1.81,-23.74 -4.02,-55.81 -0.94,-83.85 9.26,-84.11 4.03,-0.27 8.99,2.95 14.89,9.66 10.73,12.07 20.05,25.41 27.96,40.04 7.91,14.62 13.22,26.22 15.9,34.81 l 3.63,12.48"
         style="fill:#111011;fill-opacity:1;fill-rule:nonzero;stroke:none"
         id="path68" /><path
         d="m 4797.33,2439.8 8.45,-4.02 c -11.81,-23.08 -20.12,-38.77 -24.95,-47.08 -4.03,-7.79 -8.19,-14.23 -12.47,-19.32 -3.76,-4.3 -6.85,-7.38 -9.26,-9.26 -0.28,-0.27 -0.74,-0.6 -1.41,-1 -0.67,-0.4 -1.14,-0.75 -1.4,-1.01 -0.28,-0.27 -0.82,-0.54 -1.62,-0.81 -0.81,-0.26 -1.34,-0.53 -1.61,-0.8 -0.27,0 -0.94,-0.27 -2.01,-0.8 h -1.21 l -0.4,-0.41 h -1.61 -0.4 -0.4 -0.4 -1.21 c -1.88,0 -3.49,0.54 -4.83,1.61 -1.88,0.81 -3.22,2.15 -4.03,4.03 -0.8,1.07 -1.88,4.02 -3.21,8.85 -0.55,3.75 -0.81,8.99 -0.81,15.7 0.26,6.7 0.93,16.5 2.01,29.37 0.53,6.44 0.81,11.14 0.81,14.09 0,5.9 -0.14,9.92 -0.4,12.07 -0.28,1.07 -0.95,1.88 -2.01,2.42 -0.81,0.53 -1.89,0.13 -3.23,-1.21 l -2.41,-2.42 c -1.88,-2.41 -3.76,-5.63 -5.63,-9.65 -1.35,-2.42 -3.09,-6.04 -5.24,-10.87 -4.02,-10.46 -6.58,-17.44 -7.64,-20.93 -3.49,-10.2 -6.71,-21.06 -9.66,-32.59 l -3.63,-13.28 c -5.37,-20.93 -17.04,-31.66 -35.01,-32.2 -11,-0.27 -18.98,3.96 -23.94,12.68 -4.97,8.71 -7.11,19.85 -6.44,33.4 0.67,13.55 1.87,28.23 3.62,44.07 1.74,15.82 3.62,30.58 5.63,44.27 2.01,13.68 1.94,25.21 -0.19,34.61 0.8,0.26 2.01,0.53 3.62,0.8 1.61,0.27 4.56,0.53 8.85,0.8 4.28,0.27 8.39,0.07 12.27,-0.6 3.89,-0.67 8.12,-2.28 12.68,-4.83 4.56,-2.55 8.45,-6.04 11.67,-10.46 3.22,-4.43 5.7,-10.66 7.45,-18.72 1.74,-8.04 2.34,-17.44 1.81,-28.17 v -2.01 c 13.94,24.15 26.28,36.08 37.02,35.82 7.51,-0.27 11.8,-6.24 12.88,-17.91 1.07,-11.67 0.54,-22.47 -1.61,-32.39 0,-2.16 -0.27,-5.1 -0.8,-8.86 v -2.41 c -0.55,-3.22 -1.08,-8.32 -1.62,-15.3 0,-6.17 0.14,-10.46 0.4,-12.87 0.54,-2.16 0.94,-3.49 1.22,-4.03 l 0.4,-0.4 0.4,-0.4 h 0.4 0.41 l 1.2,0.4 h 0.81 0.4 c 0,0.26 0.26,0.4 0.8,0.4 0.26,0.27 0.54,0.4 0.81,0.4 0.53,0.27 0.94,0.41 1.2,0.41 l 0.81,0.8 c 0.54,0.26 0.94,0.54 1.2,0.81 0.81,0.53 3.23,2.81 7.25,6.84 4.56,5.36 8.58,11.27 12.07,17.71 l 24.15,44.66"
         style="fill:#111011;fill-opacity:1;fill-rule:nonzero;stroke:none"
         id="path70" /><path
         d="m 4846.42,2255.89 c 10.2,34.35 3.22,68.28 -20.93,101.82 -42.11,-30.05 -58.75,-54.06 -49.9,-72.04 8.32,-16.36 19.58,-28.97 33.81,-37.82 16.09,-9.93 27.5,-9.39 34.21,1.6 1.06,1.88 2.01,4.03 2.81,6.44 z m 6.04,119.12 c 38.63,-19.85 57.68,-52.58 57.15,-98.19 -0.28,-13.68 -2.08,-25.76 -5.43,-36.22 -3.36,-10.46 -7.39,-18.57 -12.08,-24.35 -4.7,-5.76 -10.27,-10.52 -16.7,-14.28 -6.44,-3.76 -12.14,-6.3 -17.1,-7.65 -4.97,-1.34 -10,-2.14 -15.1,-2.41 -35.15,-1.34 -66,26.56 -92.56,83.7 -12.07,24.95 10.07,55.8 66.41,92.56 l -9.26,9.26 -2.01,11.27 c 1.34,0.53 3.07,1.2 5.23,2.01 2.14,0.8 6.1,2.75 11.87,5.83 5.77,3.08 11.2,6.31 16.3,9.66 5.09,3.36 10.33,7.65 15.69,12.88 5.37,5.23 9.52,10.52 12.48,15.9 6.97,12.88 5.9,19.17 -3.22,18.91 -8.05,0 -27.9,-6.98 -59.56,-20.93 -11,-4.83 -19.86,-4.16 -26.56,2.02 -6.71,6.16 -10.74,13.41 -12.08,21.73 l -2.01,12.87 c 2.41,0 8.25,2.02 17.51,6.04 9.26,4.03 19.38,8.18 30.38,12.48 11,4.29 22.2,7.85 33.61,10.66 11.39,2.82 21.59,2.75 30.58,-0.2 8.99,-2.95 14.83,-9.4 17.51,-19.32 10.19,-36.75 -12.48,-68.01 -68.02,-93.76 4.56,-1.08 8.86,-2.42 12.89,-4.03 17.16,10.2 36.01,20.25 56.54,30.19 20.52,9.92 36.81,17.43 48.89,22.53 l 17.71,7.25 2.81,-8.86 c -39.43,-16.9 -76.73,-36.09 -111.87,-57.55"
         style="fill:#111011;fill-opacity:1;fill-rule:nonzero;stroke:none"
         id="path72" /><path
         d="m 4265.33,1914.43 c 1.06,-14.49 -2.42,-26.36 -10.47,-35.62 -8.05,-9.25 -18.65,-15.55 -31.79,-18.91 -13.15,-3.35 -26.36,-5.63 -39.65,-6.84 -13.27,-1.21 -25.88,-2.02 -37.82,-2.42 -11.94,-0.4 -19.26,-1.27 -21.93,-2.61 -0.54,1.88 -1.28,4.29 -2.22,7.24 -0.94,2.96 -1.87,8.25 -2.81,15.9 -0.94,7.64 -0.81,14.42 0.4,20.32 1.21,5.9 4.49,11.4 9.86,16.5 5.36,5.09 13.01,7.91 22.94,8.45 45.07,2.14 70.56,6.44 76.46,12.88 2.68,2.95 2.68,6.97 0,12.07 -3.76,7.25 -10.06,14.75 -18.92,22.54 -8.85,7.77 -17.7,14.95 -26.55,21.53 -8.86,6.57 -17.91,13.88 -27.17,21.93 -9.26,8.05 -16.3,16.9 -21.12,26.56 -4.84,9.66 -7.52,20.39 -8.06,32.2 -0.54,11.8 3.43,25.81 11.88,42.05 8.44,16.23 21.26,34.01 38.43,53.32 7.5,7.51 12.74,12.48 15.7,14.89 16.09,12.88 30.71,17.17 43.85,12.88 23.62,-7.24 31.8,-26.02 24.55,-56.34 -3.21,-12.34 -5.96,-26.96 -8.25,-43.86 -2.27,-16.91 -3.42,-28.98 -3.42,-36.22 h -16.49 c 2.41,28.16 4.55,51.24 6.44,69.21 0.26,3.22 -0.95,4.16 -3.63,2.82 -2.41,-1.07 -8.04,-5.9 -16.9,-14.49 -13.68,-13.68 -23.48,-26.69 -29.38,-39.03 -5.9,-12.35 -8.04,-23.34 -6.43,-33 1.61,-9.66 5.03,-18.79 10.26,-27.37 5.23,-8.59 11.87,-16.84 19.91,-24.75 8.06,-7.92 15.77,-15.49 23.15,-22.73 7.37,-7.25 13.94,-15.17 19.72,-23.75 5.77,-8.59 8.91,-17.04 9.46,-25.35"
         style="fill:#111011;fill-opacity:1;fill-rule:nonzero;stroke:none"
         id="path74" /><path
         d="m 4373.98,2028.32 c 19.32,-6.18 23.48,-22.81 12.48,-49.9 -1.88,0 -3.69,0.33 -5.44,1 -1.75,0.67 -2.88,1.41 -3.42,2.22 l -1.21,0.8 c 0.27,0.53 0.54,1.34 0.81,2.41 0.27,1.07 0.53,2.95 0.8,5.64 0.27,2.68 0.21,5.03 -0.19,7.04 -0.41,2.02 -1.55,3.89 -3.43,5.63 -1.87,1.75 -4.56,2.75 -8.05,3.02 -1.61,0.27 -3.01,0.34 -4.22,0.21 -1.21,-0.15 -3.22,-0.95 -6.04,-2.42 -2.81,-1.48 -5.37,-3.69 -7.65,-6.64 -2.27,-2.96 -4.62,-7.58 -7.04,-13.88 -2.41,-6.31 -4.29,-13.89 -5.63,-22.74 -4.56,-28.44 1.07,-41.85 16.9,-40.25 16.1,2.15 38.5,17.44 67.21,45.88 17.97,17.71 29.37,31.53 34.21,41.45 l 8.05,-6.44 c -22.28,-41.58 -50.58,-72.57 -84.92,-92.96 -28.71,-16.9 -53.4,-22 -74.05,-15.29 -20.39,6.7 -30.18,23.47 -29.37,50.3 0.26,4.83 0.8,9.92 1.61,15.3 1.87,11.53 5.23,21.73 10.06,30.58 4.83,8.85 10.32,15.83 16.5,20.93 6.16,5.09 12.68,9.32 19.51,12.68 6.85,3.35 13.68,5.49 20.53,6.43 6.84,0.94 12.94,1.28 18.31,1.01 5.36,-0.27 9.92,-0.95 13.68,-2.01"
         style="fill:#111011;fill-opacity:1;fill-rule:nonzero;stroke:none"
         id="path76" /><path
         d="m 4644.81,1998.53 7.65,-2.41 c -0.81,-2.68 -2.08,-6.17 -3.83,-10.46 -1.75,-4.29 -5.23,-11.87 -10.46,-22.74 -5.23,-10.86 -10.47,-20.32 -15.69,-28.37 -5.24,-8.05 -11.48,-15.09 -18.72,-21.13 -7.24,-6.03 -14.22,-8.39 -20.92,-7.04 -7.79,1.61 -13.96,9.39 -18.52,23.34 -4.57,13.95 -7.52,28.84 -8.85,44.67 -1.34,15.83 -3.76,30.18 -7.24,43.06 -3.5,12.88 -8.19,19.32 -14.09,19.32 -4.83,0 -8.59,-5.37 -11.27,-16.1 -2.69,-10.73 -4.96,-23.68 -6.84,-38.83 -1.88,-15.17 -4.42,-30.33 -7.64,-45.48 -3.23,-15.16 -9,-27.97 -17.31,-38.43 -8.32,-10.46 -19.05,-15.56 -32.2,-15.29 -8.58,-0.27 -15.49,4.76 -20.72,15.09 -5.23,10.32 -8.59,23.94 -10.06,40.84 -1.48,16.91 -2.21,35.88 -2.21,56.95 0,21.06 0.93,42.32 2.81,63.79 1.87,21.46 3.43,42.05 4.63,61.77 1.21,19.72 2.27,36.42 3.22,50.1 0.94,13.68 0.6,23.34 -1.01,28.98 1.88,0.53 4.36,1 7.44,1.41 3.09,0.4 8.46,0.26 16.11,-0.41 7.64,-0.67 14.29,-2.41 19.92,-5.23 5.63,-2.82 10.6,-8.19 14.88,-16.1 4.29,-7.91 5.9,-18.04 4.84,-30.38 -4.57,-59.56 -7.39,-109.46 -8.46,-149.7 10.2,48.02 25.09,72.03 44.68,72.03 10.46,0 18.57,-7.31 24.34,-21.93 5.76,-14.63 9.19,-30.79 10.27,-48.5 1.06,-17.7 2.88,-34.34 5.43,-49.9 2.55,-15.56 6.36,-24.01 11.46,-25.35 6.17,-1.61 14.09,3.62 23.75,15.69 9.66,12.08 17.84,24.55 24.55,37.43 l 10.06,19.31"
         style="fill:#111011;fill-opacity:1;fill-rule:nonzero;stroke:none"
         id="path78" /><path
         d="m 4847.63,2014.63 8.85,0.81 c 4.02,-0.27 5.5,-2.28 4.43,-6.04 0,-0.27 -0.67,-3.29 -2.01,-9.05 -1.35,-5.78 -2.75,-11.67 -4.23,-17.71 -1.47,-6.03 -3.82,-13.62 -7.04,-22.74 -3.22,-9.12 -6.58,-17.7 -10.06,-25.75 -3.49,-8.05 -7.98,-16.37 -13.48,-24.95 -5.5,-8.59 -11.34,-15.9 -17.51,-21.93 -6.17,-6.04 -13.48,-11.01 -21.93,-14.9 -8.45,-3.88 -17.38,-5.83 -26.76,-5.83 -25.75,0 -38.37,22.54 -37.84,67.61 -13.68,-21.2 -31.12,-31.26 -52.31,-30.19 -12.07,0.54 -21.12,5.44 -27.16,14.69 -6.04,9.26 -9.26,20.79 -9.66,34.61 -0.41,13.82 0.06,27.57 1.41,41.25 1.34,13.69 2.88,26.43 4.63,38.23 1.74,11.81 2.21,19.05 1.41,21.74 1.61,0.26 3.75,0.6 6.43,1 2.69,0.4 7.45,0.4 14.29,0 6.84,-0.4 12.67,-1.61 17.51,-3.62 4.82,-2.01 8.98,-5.83 12.47,-11.47 3.48,-5.63 4.56,-12.88 3.22,-21.73 -6.98,-49.1 -7.38,-76.2 -1.21,-81.29 3.76,-2.96 9.92,0 18.52,8.85 8.31,8.58 14.28,20.65 17.91,36.22 3.62,15.56 5.15,28.98 4.63,40.25 l -0.82,16.89 c 1.08,0.27 2.43,0.54 4.03,0.81 1.61,0.26 4.76,0.46 9.46,0.61 4.69,0.13 9.11,-0.08 13.28,-0.61 4.15,-0.54 8.78,-1.88 13.88,-4.02 5.1,-2.16 9.33,-5.03 12.68,-8.66 3.35,-3.62 6.1,-8.79 8.25,-15.49 2.15,-6.71 2.82,-14.63 2.01,-23.74 -0.54,-7.25 -1.48,-17.31 -2.81,-30.18 -2.96,-31.94 -3.23,-50.05 -0.81,-54.34 2.94,-4.56 9.39,-1.07 19.31,10.47 8.86,10.46 16.37,24.08 22.54,40.85 6.17,16.76 10.06,30.92 11.67,42.45 l 2.82,16.9"
         style="fill:#111011;fill-opacity:1;fill-rule:nonzero;stroke:none"
         id="path80" /><path
         d="m 4897.53,1910.4 c 17.7,12.34 32.19,31.93 43.46,58.76 9.11,22 11.27,36.88 6.44,44.67 -1.35,2.15 -3.22,3.35 -5.64,3.62 -7.24,0.54 -14.55,-8.11 -21.93,-25.96 -7.38,-17.84 -12.94,-35.88 -16.7,-54.12 z m 56.33,121.54 c 14.5,-1.88 20.93,-12.61 19.33,-32.19 -1.61,-22.01 -11.68,-44.95 -30.19,-68.82 -18.78,-24.42 -40.11,-40.65 -63.98,-48.69 -5.63,-2.42 -11.68,-3.63 -18.12,-3.63 -8.58,-0.26 -15.48,4.76 -20.72,15.1 -5.23,10.32 -8.59,23.94 -10.06,40.84 -1.48,16.9 -2.21,35.88 -2.21,56.94 0,21.06 0.93,42.32 2.81,63.79 1.87,21.46 3.43,42.05 4.63,61.78 1.21,19.71 2.27,36.42 3.22,50.1 0.94,13.68 0.61,23.34 -1.01,28.97 1.07,0.27 2.42,0.53 4.03,0.81 1.61,0.26 4.76,0.46 9.46,0.6 4.69,0.13 9.11,-0.07 13.27,-0.6 4.16,-0.54 8.72,-1.88 13.69,-4.03 4.96,-2.15 9.18,-5.03 12.68,-8.65 3.48,-3.62 6.23,-8.79 8.24,-15.5 2.01,-6.7 2.62,-14.62 1.82,-23.74 -5.91,-79.41 -8.72,-140.04 -8.46,-181.9 4.3,12.34 8.93,23.34 13.89,33 4.96,9.66 11.74,18.38 20.32,26.16 8.58,7.78 17.71,11 27.36,9.66"
         style="fill:#111011;fill-opacity:1;fill-rule:nonzero;stroke:none"
         id="path82" /><path
         d="m 5062.94,2003.77 c -1.62,0 -3.1,0 -4.44,0 -1.35,0 -3.42,-0.74 -6.24,-2.21 -2.81,-1.48 -5.29,-3.56 -7.44,-6.24 -2.15,-2.69 -4.42,-7.04 -6.84,-13.08 -2.42,-6.04 -4.29,-13.22 -5.63,-21.53 19.84,-1.35 33.26,5.09 40.24,19.31 1.07,2.42 1.87,5.3 2.42,8.66 0.53,3.35 -0.14,6.7 -2.02,10.06 -1.88,3.35 -5.23,5.03 -10.05,5.03 z m 83.3,1.61 8.04,-6.44 c -22.27,-41.59 -50.3,-73.38 -84.11,-95.38 -28.71,-18.78 -52.99,-25.08 -72.84,-18.91 -20.65,6.7 -29.78,26.16 -27.36,58.35 0.26,4.29 0.81,8.72 1.61,13.28 2.41,13.69 6.78,25.49 13.07,35.41 6.31,9.93 13.29,17.37 20.93,22.34 7.65,4.96 15.83,8.58 24.55,10.87 8.71,2.27 16.43,3.35 23.15,3.21 6.7,-0.13 12.33,-0.87 16.89,-2.21 5.9,-1.88 10.73,-5.17 14.49,-9.86 3.75,-4.69 5.9,-10.8 6.44,-18.31 0.54,-7.51 -2.15,-15.96 -8.05,-25.35 -9.39,-15.3 -26.83,-22.54 -52.31,-21.73 -2.96,-26.56 2.81,-38.78 17.3,-36.62 15.82,2.41 37.96,19.04 66.4,49.9 16.37,17.97 26.96,31.79 31.8,41.45"
         style="fill:#111011;fill-opacity:1;fill-rule:nonzero;stroke:none"
         id="path84" /><path
         d="m 5301.57,1999.75 8.86,0.4 c 3.75,-0.81 5.08,-2.96 4.02,-6.44 0,-0.27 -0.95,-3.62 -2.82,-10.06 -1.88,-6.44 -3.89,-13.42 -6.04,-20.93 -2.15,-7.52 -5.23,-16.7 -9.26,-27.56 -4.02,-10.87 -8.25,-21.27 -12.67,-31.2 -4.43,-9.92 -9.86,-19.99 -16.3,-30.18 -6.44,-10.19 -13.08,-18.91 -19.92,-26.15 -6.84,-7.25 -14.69,-13.08 -23.54,-17.51 -8.85,-4.43 -17.98,-6.37 -27.37,-5.84 -7.24,0.28 -13.28,2.62 -18.11,7.05 -4.83,4.42 -8.18,10.53 -10.05,18.31 -1.89,7.78 -3.09,16.09 -3.63,24.95 -0.54,8.85 -0.2,19.17 1.01,30.99 1.2,11.8 2.48,22.46 3.82,31.99 1.33,9.52 2.88,20.18 4.63,31.99 1.74,11.81 3.01,20.93 3.82,27.37 -16.9,0.26 -30.25,1.81 -40.05,4.63 -9.79,2.81 -16.02,6.36 -18.71,10.66 -2.68,4.29 -4.36,9.12 -5.03,14.49 -0.67,5.36 -0.4,10.93 0.82,16.7 1.2,5.76 0.73,11.47 -1.42,17.1 1.61,0.81 3.69,1.61 6.24,2.41 2.55,0.81 7.11,1.75 13.68,2.82 6.57,1.07 12.34,1.07 17.31,0 4.96,-1.07 9.25,-4.16 12.88,-9.25 3.62,-5.1 5.03,-12.48 4.23,-22.13 -0.55,-6.99 5.22,-10.47 17.3,-10.47 4.29,0.26 8.57,0.26 12.87,0 4.29,-0.27 9.4,-1.41 15.29,-3.42 5.9,-2.01 10.8,-4.9 14.69,-8.65 3.89,-3.76 7.04,-9.33 9.46,-16.7 2.42,-7.39 2.95,-16.04 1.62,-25.96 -6.45,-49.37 -9.4,-79.42 -8.86,-90.15 0.54,-20.38 7.51,-23.34 20.93,-8.85 9.38,9.93 18.31,25.69 26.75,47.29 8.46,21.59 14.55,40.7 18.31,57.34 l 5.24,24.96"
         style="fill:#111011;fill-opacity:1;fill-rule:nonzero;stroke:none"
         id="path86" /><path
         d="m 5439.61,2012.22 8.84,-6.44 c -0.8,-2.15 -1.87,-4.9 -3.21,-8.25 -1.35,-3.36 -4.36,-10.06 -9.05,-20.12 -4.7,-10.06 -9.6,-19.59 -14.7,-28.57 -5.1,-9 -11.6,-18.92 -19.51,-29.78 -7.92,-10.87 -15.97,-20.12 -24.15,-27.77 -8.19,-7.65 -17.65,-13.88 -28.37,-18.71 -10.73,-4.83 -21.47,-6.85 -32.2,-6.04 -6.43,0.27 -11.94,3.49 -16.49,9.66 -4.57,6.17 -7.99,15.22 -10.27,27.16 -2.28,11.94 -4.02,24.35 -5.23,37.23 -1.21,12.88 -1.68,28.5 -1.41,46.88 0.27,18.37 0.67,34.67 1.2,48.9 0.54,14.21 1.35,30.85 2.43,49.9 -1.61,0 -3.9,-0.07 -6.85,-0.21 -2.95,-0.13 -5.1,-0.33 -6.43,-0.6 -5.91,0 -10.21,-0.14 -12.89,-0.4 h -18.91 -5.64 -1.6 l -1.21,12.47 c 0.54,0 1.21,0.14 2.01,0.41 0.28,0 2.01,0.26 5.24,0.8 1.34,0.27 2.95,0.54 4.82,0.81 1.88,0.26 4.23,0.6 7.04,1.01 2.82,0.4 5.17,0.73 7.05,1 0.8,0 2.68,0.2 5.63,0.6 2.95,0.41 5.23,0.74 6.84,1.01 2.95,0.54 7.65,1.07 14.09,1.61 0.53,0.26 1.07,0.4 1.61,0.4 3.48,53.13 4.16,83.71 2.01,91.76 1.07,0.26 2.41,0.53 4.02,0.8 1.61,0.27 4.77,0.47 9.47,0.6 4.68,0.14 9.11,-0.06 13.28,-0.6 4.15,-0.54 8.71,-1.88 13.68,-4.02 4.96,-2.15 9.18,-5.03 12.67,-8.66 3.49,-3.61 6.24,-8.79 8.26,-15.49 2.01,-6.71 2.6,-14.62 1.8,-23.74 -0.27,-4.83 -0.94,-16.64 -2.01,-35.42 1.07,0 2.95,0.07 5.64,0.2 2.67,0.14 4.56,0.21 5.63,0.21 2.95,0.26 7.1,0.4 12.47,0.4 1.34,0 3.22,0.06 5.64,0.2 2.42,0.13 4.16,0.2 5.23,0.2 h 8.45 7.24 l 0.81,-12.47 c -1.61,-0.55 -3.89,-1.08 -6.84,-1.62 -2.41,-0.53 -5.24,-0.94 -8.45,-1.2 -1.08,0 -2.75,-0.2 -5.04,-0.61 -2.27,-0.4 -4.09,-0.73 -5.43,-1 -1.35,0 -3.42,-0.2 -6.24,-0.6 -2.81,-0.41 -5.03,-0.75 -6.64,-1.01 -1.07,0 -3.15,-0.2 -6.23,-0.61 -3.08,-0.4 -5.44,-0.74 -7.04,-1 -1.08,-21.2 -1.88,-44.54 -2.42,-70.03 0.26,-48.83 0.67,-76.32 1.21,-82.49 1.87,-22 6.57,-32.87 14.08,-32.6 3.49,0 7.51,1.87 12.08,5.64 7.77,6.43 17.03,17.97 27.77,34.61 10.72,16.63 19.45,31.79 26.16,45.47 l 10.06,20.12"
         style="fill:#111011;fill-opacity:1;fill-rule:nonzero;stroke:none"
         id="path88" /></g></g></svg>
