<?xml version="1.0" encoding="UTF-8" standalone="no"?>
<!-- Created with Inkscape (http://www.inkscape.org/) -->

<svg
   version="1.1"
   id="svg2"
   xml:space="preserve"
   width="4000"
   height="4000"
   viewBox="0 0 4000 4000"
   xmlns="http://www.w3.org/2000/svg"
   xmlns:svg="http://www.w3.org/2000/svg"><defs
     id="defs6" /><g
     id="g8"
     transform="matrix(1.3333333,0,0,-1.3333333,0,4000)"><g
       id="g10"
       transform="scale(0.1)"><path
         d="M 30000,0 H 0 V 30000 H 30000 V 0"
         style="fill:#ffffff;fill-opacity:1;fill-rule:nonzero;stroke:none"
         id="path12" /><path
         d="m 1935.46,2398.5 c 0,-5.7 0,-9.5 0,-13.3 221.09,152.5 358.32,581.3 242.05,588.9 -121.98,7.7 -224.9,-482.2 -242.05,-575.6 z m 638.5,-99.1 c 0,0 -1.91,-3.8 -3.81,-11.4 -3.82,-7.6 -9.53,-17.2 -15.25,-30.5 -13.34,-24.8 -34.31,-61 -60.99,-104.8 -11.44,-21 -26.69,-43.9 -43.84,-68.6 -15.25,-22.9 -34.31,-47.7 -55.28,-72.5 -19.05,-22.9 -41.92,-47.6 -70.51,-70.5 -13.35,-11.4 -28.59,-21 -45.75,-30.5 -9.53,-3.8 -19.06,-7.6 -28.59,-9.5 -9.52,-3.8 -20.96,-5.7 -32.4,-5.7 -11.44,0 -22.87,1.9 -34.31,3.8 -3.81,1.9 -9.52,3.8 -15.24,5.7 l -1.91,1.9 h -1.91 l -1.9,1.9 h -1.91 l -1.9,1.9 h -1.91 l -1.91,1.9 c -5.71,1.9 -9.53,5.7 -13.34,7.6 -3.81,1.9 -7.62,5.8 -11.43,7.7 -7.63,5.7 -15.25,11.4 -20.97,17.1 -13.34,11.4 -26.68,22.9 -38.12,36.2 -11.43,13.4 -22.87,24.8 -32.4,38.1 -19.06,24.8 -38.12,51.5 -53.37,76.3 -15.24,24.8 -28.59,49.5 -41.93,70.5 -3.81,9.5 -9.53,19.1 -13.34,26.7 -1.91,-196.3 7.62,-352.6 41.93,-373.6 -22.87,-64.8 -148.67,-116.2 -213.47,-118.2 -339.26,-7.6 -72.42,1360.9 -125.79,1555.3 0,0 365.94,82 337.36,-270.6 -3.82,-51.5 -7.63,-110.6 -11.44,-175.4 62.9,135.4 158.19,259.2 285.89,242.1 230.63,-28.6 66.71,-524.2 -257.3,-745.2 9.53,-26.7 22.87,-61 40.02,-101.1 9.53,-20.9 19.07,-43.8 32.41,-68.6 11.43,-22.8 26.68,-49.5 41.92,-72.4 15.25,-24.8 34.32,-47.7 53.37,-68.6 5.72,-5.7 11.44,-9.6 17.16,-15.3 1.91,-1.9 3.81,-3.8 7.62,-5.7 1.91,-1.9 5.72,-3.8 7.63,-5.7 l 1.9,-1.9 c 1.91,0 0,0 0,0 h 1.91 v -1.9 h 1.9 1.91 v -1.9 c 1.91,0 5.72,-1.9 7.62,-1.9 3.81,-1.9 9.53,-1.9 15.25,-1.9 9.53,0 20.97,1.9 34.31,7.6 11.44,5.7 22.87,13.3 36.21,20.9 22.87,19.1 43.84,40.1 62.9,61 20.96,22.9 38.12,45.8 55.28,66.8 15.24,22.8 30.49,43.8 43.83,64.8 26.68,40 45.75,76.2 60.99,101 5.72,11.4 11.44,20.9 15.25,28.6 3.81,5.7 5.72,9.5 5.72,9.5 l 41.93,-21"
         style="fill:#100f0d;fill-opacity:1;fill-rule:nonzero;stroke:none"
         id="path14" /><path
         d="m 2831.24,2430.9 c 3.81,-7.6 9.53,-13.3 15.24,-19 9.54,-9.5 19.07,-17.2 32.41,-22.9 5.71,-3.8 13.34,-7.6 20.96,-9.5 7.63,-1.9 15.25,-5.7 24.78,-5.7 15.25,-3.8 30.5,-5.8 45.75,-5.8 -7.63,43.9 -26.69,76.3 -57.19,85.8 -24.77,7.6 -53.36,-1.9 -81.95,-22.9 z m 123.89,-234.4 c 7.62,21 11.43,40 15.25,61 -19.07,-1.9 -40.03,-3.8 -59.09,-1.9 -13.35,1.9 -26.69,1.9 -40.03,5.7 -13.34,1.9 -26.68,5.7 -40.02,9.5 -24.78,7.7 -47.65,21 -66.71,34.3 -5.72,3.9 -11.44,7.7 -15.25,11.5 -7.62,-15.3 -13.34,-32.4 -19.06,-47.7 -38.12,-121.9 -19.06,-238.2 41.93,-257.3 62.9,-19 144.86,62.9 182.98,184.9 z m 461.24,257.3 c 0,0 -9.53,-7.6 -26.68,-19 -3.82,-3.9 -9.53,-5.8 -15.25,-9.6 -5.72,-3.8 -11.44,-7.6 -17.15,-11.4 -5.72,-3.8 -13.34,-7.6 -19.06,-11.4 -7.62,-5.8 -15.25,-9.6 -22.87,-15.3 -7.63,-3.8 -17.16,-7.6 -24.78,-13.3 -7.63,-5.8 -17.16,-9.6 -26.69,-15.3 -3.81,-1.9 -9.52,-5.7 -13.34,-7.6 -3.81,-1.9 -5.72,-1.9 -7.62,-3.8 -1.91,-1.9 -5.72,-1.9 -7.63,-3.8 -5.72,-1.9 -9.52,-3.8 -15.24,-7.7 -5.72,-1.9 -9.53,-3.8 -15.25,-7.6 -20.97,-9.5 -43.84,-19 -66.71,-28.6 -22.87,-9.5 -45.74,-17.1 -70.52,-24.8 -11.44,-1.9 -20.97,-5.7 -30.5,-7.6 -3.81,-22.8 -9.53,-45.7 -17.15,-68.6 -62.9,-198.2 -238.25,-320.2 -392.63,-270.6 -154.38,47.6 -226.81,247.7 -163.92,447.9 62.9,198.2 238.25,318.3 392.64,270.6 106.73,-34.3 175.35,-144.8 184.87,-274.4 1.91,0 3.82,0 5.72,0 20.97,3.8 43.84,7.6 64.81,13.3 20.96,3.8 43.83,11.4 62.89,17.2 5.72,1.9 11.44,3.8 15.25,5.7 5.72,1.9 11.44,3.8 15.25,3.8 3.81,1.9 5.72,1.9 7.62,3.8 1.91,0 5.72,1.9 7.63,1.9 3.81,1.9 9.52,3.8 13.34,5.7 9.53,3.8 19.06,7.6 28.59,11.5 7.62,1.9 17.15,5.7 24.78,9.5 7.62,3.8 15.24,7.6 22.87,9.5 7.62,3.8 15.25,7.6 20.97,9.5 5.71,3.9 13.34,5.8 17.15,9.6 5.72,1.9 11.43,3.8 17.15,5.7 17.16,9.5 28.59,15.2 28.59,15.2 l 22.87,-40"
         style="fill:#100f0d;fill-opacity:1;fill-rule:nonzero;stroke:none"
         id="path16" /><path
         d="m 3723.21,2478.6 c -114.36,7.6 -209.66,-507 -209.66,-507 190.6,131.5 310.67,501.3 209.66,507 z m -297.33,-640.4 c -30.5,-13.4 -60.99,-17.2 -85.77,-17.2 -301.15,-7.6 -64.8,1332.3 -110.55,1503.8 0,0 324.02,72.5 299.24,-242 -15.25,-204 -41.93,-598.5 -40.03,-861.5 49.56,144.8 144.86,345 291.62,325.9 228.72,-30.5 7.62,-588.9 -354.51,-709"
         style="fill:#100f0d;fill-opacity:1;fill-rule:nonzero;stroke:none"
         id="path18" /><path
         d="m 4152.05,2209.8 c 123.89,-7.6 171.54,53.4 190.6,91.5 13.34,26.7 28.59,110.6 -45.75,112.5 -22.87,1.9 -108.64,7.6 -144.85,-204 z m 577.51,181.1 c -322.11,-600.4 -960.61,-771.9 -865.31,-202 57.18,343.1 369.75,360.2 466.96,329.7 76.24,-24.8 144.85,-118.2 60.99,-253.5 -57.18,-93.4 -179.16,-104.8 -247.78,-102.9 -51.46,-459.3 480.31,122 547.02,259.2 l 38.12,-30.5"
         style="fill:#100f0d;fill-opacity:1;fill-rule:nonzero;stroke:none"
         id="path20" /><path
         d="m 5488.1,2366.1 c -15.25,-45.7 -188.7,-819.5 -558.46,-802.4 -253.49,11.5 -116.26,543.2 -87.67,817.7 -423.13,9.5 -264.93,169.6 -304.96,301.1 0,0 276.37,118.2 257.31,-123.9 -3.81,-51.4 80.05,-49.5 81.95,-49.5 81.96,5.7 285.9,-7.6 255.41,-259.2 -40.03,-312.6 -93.39,-630.9 57.18,-468.9 150.57,160.1 238.24,613.7 238.24,613.7 0,0 76.24,17.2 61,-28.6"
         style="fill:#100f0d;fill-opacity:1;fill-rule:nonzero;stroke:none"
         id="path22" /><path
         d="m 6122.78,2423.3 c 0,0 -247.78,-688 -621.35,-659.5 -188.69,7.7 -167.73,585.2 -141.04,1040.7 -22.88,-1.9 -43.84,-1.9 -62.9,-3.8 -20.97,0 -41.93,0 -60.99,-1.9 -38.12,0 -68.61,0 -89.58,0 -11.44,0 -20.97,0 -26.69,0 -5.71,0 -7.62,0 -7.62,0 l -5.72,59.1 c 0,0 3.81,0 9.53,1.9 5.72,0 13.35,1.9 24.78,3.8 20.97,3.8 51.46,7.6 89.58,13.3 17.15,1.9 38.12,5.8 59.09,7.7 20.96,3.8 43.83,5.7 66.71,7.6 3.81,1.9 5.71,1.9 7.62,1.9 13.34,209.6 22.87,381.2 9.53,434.6 0,0 324.01,72.4 299.24,-242.1 -1.91,-45.8 -5.72,-104.8 -9.53,-167.7 17.15,0 36.21,1.9 53.37,1.9 20.96,1.9 40.02,1.9 59.08,1.9 19.06,0 36.21,1.9 51.46,1.9 15.25,0 28.59,0 40.03,0 20.96,0 34.3,0 34.3,0 l 3.82,-59.1 c 0,0 -11.44,-3.8 -32.4,-7.6 -11.44,-1.9 -24.78,-3.8 -40.03,-5.7 -15.25,-1.9 -32.4,-5.8 -49.55,-7.7 -19.07,-1.9 -40.03,-5.7 -61,-7.6 -19.06,-1.9 -41.93,-5.7 -62.9,-7.6 -5.71,-102.9 -9.52,-219.2 -11.43,-331.7 1.91,-333.5 -19.06,-640.4 129.61,-518.4 125.79,101 303.04,474.6 303.04,474.6 l 41.94,-30.5"
         style="fill:#100f0d;fill-opacity:1;fill-rule:nonzero;stroke:none"
         id="path24" /><path
         d="m 6601.1,1676.2 c 0,0 -116.27,310.6 133.42,324 327.82,15.2 402.15,41.9 362.13,118.2 -144.85,270.6 -840.53,375.4 -243.96,1042.5 15.24,15.3 41.93,43.9 74.33,70.5 55.27,43.9 131.51,85.8 207.75,61 121.98,-38.1 146.76,-139.1 116.27,-266.8 -32.41,-125.8 -55.28,-318.3 -55.28,-379.3 h -78.14 c 0,0 17.15,200.1 30.49,327.8 3.81,42 -43.83,-3.8 -97.2,-55.2 -478.4,-478.4 198.22,-629 221.09,-928.2 30.5,-367.9 -587.04,-274.5 -670.9,-314.5"
         style="fill:#100f0d;fill-opacity:1;fill-rule:nonzero;stroke:none"
         id="path26" /><path
         d="m 7845.66,2293.7 c -30.49,0 -47.64,19.1 -47.64,19.1 0,0 38.12,108.6 -47.65,112.4 -20.97,1.9 -108.65,7.6 -144.86,-215.4 -78.14,-480.3 489.84,82 560.36,223 l 38.12,-30.4 c -322.11,-602.3 -968.24,-707.2 -884.38,-202.1 57.19,341.2 369.77,360.2 466.97,329.7 76.24,-24.7 121.98,-81.9 59.08,-236.3"
         style="fill:#100f0d;fill-opacity:1;fill-rule:nonzero;stroke:none"
         id="path28" /><path
         d="m 9105.48,2377.6 c 0,0 -162.01,-459.4 -329.74,-425.1 -165.82,34.3 -102.92,617.6 -230.62,617.6 -129.61,0 -20.96,-737.6 -356.42,-730 -301.14,-7.6 -64.8,1332.3 -110.55,1503.8 0,0 324.02,72.4 299.24,-240.2 -13.34,-169.6 -34.3,-465 -40.02,-709 36.21,169.7 101.01,341.2 211.56,341.2 221.09,0 133.42,-659.5 243.97,-690 97.2,-26.7 276.36,343.1 276.36,343.1 l 36.22,-11.4"
         style="fill:#100f0d;fill-opacity:1;fill-rule:nonzero;stroke:none"
         id="path30" /><path
         d="m 10092.7,2440.5 c -13.3,-47.7 -118.15,-676.7 -487.91,-676.7 -142.94,0 -181.06,146.8 -179.16,320.3 -55.27,-85.8 -135.32,-148.7 -247.77,-143 -303.06,11.4 -116.27,632.8 -139.14,712.8 0,0 287.8,53.4 255.4,-169.6 -41.93,-291.6 -53.37,-482.2 81.95,-343.1 133.42,137.3 102.93,442.2 102.93,442.2 0,0 325.92,72.4 301.14,-242 -24.77,-314.5 -68.61,-516.6 74.34,-350.7 142.94,167.7 175.32,474.5 175.32,474.5 0,0 76.3,21 62.9,-24.7"
         style="fill:#100f0d;fill-opacity:1;fill-rule:nonzero;stroke:none"
         id="path32" /><path
         d="m 10380.5,2497.6 c 0,2 0,2 0,2 -1.9,0 0,0 0,-2 z m 1040.6,-135.3 c 0,0 -272.5,-579.4 -608,-579.4 -285.9,0 106.8,834.8 -120,789.1 -1.9,0 -1.9,-1.9 -1.9,-1.9 -17.2,-5.7 -36.3,-17.2 -53.4,-34.3 -17.2,-19.1 -34.3,-42 -47.7,-70.6 -13.3,-28.5 -24.7,-62.8 -34.3,-99.1 -7.6,-36.2 -15.2,-74.3 -22.8,-116.2 -2,-11.5 -3.9,-21 -5.8,-32.4 -1.9,-5.7 -1.9,-11.5 -3.8,-17.2 -1.9,-3.8 -3.8,-7.6 -3.8,-11.4 -1.9,-3.8 -3.8,-7.6 -7.6,-13.4 -1.9,-1.9 -5.7,-5.7 -9.5,-9.5 -3.9,-1.9 -5.8,-1.9 -9.6,-3.8 -1.9,0 -3.8,-1.9 -7.6,-1.9 0,0 -1.9,0 -3.8,0 -7.6,0 -15.2,1.9 -21,5.7 -3.8,1.9 -7.6,5.7 -9.5,7.6 -5.7,7.7 -7.6,11.5 -9.5,15.3 -1.9,3.8 -3.8,7.6 -3.8,11.4 -3.9,13.4 -5.8,24.8 -7.7,36.2 -3.8,22.9 -5.7,45.8 -9.5,68.6 -1.9,22.9 -3.8,43.9 -5.7,66.8 -3.8,20.9 -5.7,41.9 -9.5,62.9 -5.8,19 -9.6,40 -17.2,53.3 -1.9,3.8 -3.8,5.7 -5.7,7.6 -1.9,-1.9 -3.8,-3.8 -5.7,-5.7 -3.8,-7.6 -9.6,-15.2 -13.4,-22.8 -7.6,-15.3 -15.2,-34.4 -22.8,-51.5 -5.8,-17.2 -11.5,-36.2 -17.2,-53.4 -11.4,-36.2 -21,-70.5 -28.6,-102.9 -15.2,-62.9 -26.7,-118.2 -36.2,-156.3 -3.8,-24.8 -7.6,-43.8 -9.5,-53.4 -32.4,-133.4 -116.3,-150.5 -169.7,-152.4 -278.24,-7.7 -57.1,628.9 -100.98,817.6 0,0 299.28,80.1 276.38,-263 0,-17.1 -1.9,-34.3 -3.8,-49.5 5.7,13.3 9.5,26.6 15.2,41.9 7.6,19 17.2,40 28.6,61 5.7,9.5 11.4,20.9 21,32.4 3.8,5.7 9.5,9.5 15.2,15.2 5.7,5.7 13.4,11.5 24.8,17.2 3.8,1.9 11.4,3.8 17.2,3.8 1.9,0 3.8,0 5.7,1.9 h 1.9 1.9 l 3.8,-1.9 c 1.9,0 3.8,0 5.7,0 11.4,-1.9 22.9,-5.7 30.5,-11.4 9.5,-7.7 15.3,-13.4 21,-21 3.8,-7.6 7.6,-13.4 11.4,-21 5.7,-13.3 9.5,-24.8 13.4,-36.2 3.8,-13.3 5.7,-24.8 7.6,-36.2 3.8,-24.8 5.7,-47.7 7.6,-70.5 1.9,-22.9 3.8,-45.8 3.8,-66.7 0,-1.9 0,-3.8 0,-5.8 7.6,26.7 13.4,51.5 21,74.4 11.4,38.1 26.7,74.3 43.8,104.8 17.2,32.4 38.1,57.2 61,78.2 22.9,19 45.8,30.4 66.7,38.1 1.9,0 7.6,1.9 9.5,1.9 21,3.8 322.2,61 299.3,-242.1 -24.8,-314.5 -78.2,-487.9 93.4,-346.9 175.3,143 303,356.5 303,356.5 l 36.2,-7.7"
         style="fill:#100f0d;fill-opacity:1;fill-rule:nonzero;stroke:none"
         id="path34" /><path
         d="m 11674.6,2307.1 c 3.8,38.1 7.6,74.3 13.3,108.6 -57.2,0 -232.5,-11.4 -236.3,-143 -5.7,-139.1 139.1,-57.1 223,34.4 z m 720.4,152.4 c 0,0 -186.7,-638.5 -577.5,-638.5 -150.5,0 -169.6,162 -158.2,345 -64.8,-62.9 -152.4,-125.8 -282.1,-104.8 -196.3,34.3 -152.4,293.5 13.4,396.4 122,76.3 249.7,64.8 306.9,55.3 3.8,51.5 3.8,97.2 -3.9,127.7 0,0 324.1,72.4 299.3,-242.1 -22.9,-314.4 -7.6,-487.9 114.3,-352.6 173.5,194.4 224.9,413.6 224.9,413.6 h 62.9"
         style="fill:#100f0d;fill-opacity:1;fill-rule:nonzero;stroke:none"
         id="path36" /><path
         d="m 13065.9,2423.3 c 0,0 -83.9,-163.9 -118.2,-223 -15.2,-28.6 -34.3,-61 -59.1,-91.5 -13.3,-15.2 -26.6,-30.5 -43.8,-43.8 -3.8,-3.8 -9.5,-5.7 -13.3,-9.5 -5.8,-1.9 -9.6,-5.8 -15.3,-7.7 -3.8,0 -5.7,-1.9 -9.5,-3.8 h -5.7 c 0,-1.9 -1.9,-1.9 -1.9,-1.9 h -7.7 c 1.9,0 -1.9,0 -1.9,0 h -1.9 -1.9 c -1.9,0 -3.8,0 -5.7,0 -7.6,0 -15.2,1.9 -22.9,7.6 -7.6,3.9 -15.2,11.5 -19,19.1 -9.6,13.3 -11.5,28.6 -15.3,41.9 -3.8,26.7 -3.8,51.5 -3.8,74.4 1.9,47.6 5.7,93.4 9.5,139.1 1.9,22.9 3.8,45.8 3.8,66.7 0,21 0,41.9 -1.9,57.2 -1.9,7.6 -5.7,9.5 -9.5,11.4 -3.8,1.9 -11.4,-1.9 -15.2,-5.7 -3.8,-3.8 -7.7,-7.6 -11.5,-11.4 -9.5,-13.4 -19,-30.5 -26.7,-45.8 -9.5,-17.1 -17.1,-34.3 -24.7,-51.4 -13.4,-34.3 -26.7,-66.7 -36.2,-99.1 -21,-62.9 -36.3,-118.2 -45.8,-154.4 -5.7,-19.1 -17.1,-62.9 -17.1,-62.9 -34.3,-133.4 -114.4,-150.6 -165.9,-152.5 -278.2,-9.5 -57.1,592.8 -101,800.5 0,0 299.3,85.8 276.4,-289.7 0,-3.8 0,-7.6 0,-9.5 38.1,66.7 110.5,171.5 175.3,169.6 80.1,-1.9 64.8,-144.8 53.4,-238.2 0,-13.4 -1.9,-28.6 -3.8,-42 0,-3.8 0,-7.6 0,-11.4 -3.8,-24.8 -5.7,-49.6 -7.6,-72.4 0,-21 0,-43.9 1.9,-61 1.9,-7.6 3.8,-15.3 5.7,-19.1 1.9,-1.9 1.9,-1.9 1.9,-1.9 1.9,0 1.9,-1.9 3.8,-1.9 0,0 0,0 1.9,0 l 5.7,1.9 c 1.9,0 3.8,0 3.8,0 h 1.9 c 0,1.9 2,1.9 3.9,1.9 1.9,1.9 5.7,1.9 9.5,3.8 1.9,1.9 5.7,3.8 9.5,7.7 11.5,7.6 22.9,20.9 34.3,32.4 22.9,26.6 42,55.2 57.2,83.8 32.4,55.3 114.4,211.6 114.4,211.6 l 40,-19.1"
         style="fill:#100f0d;fill-opacity:1;fill-rule:nonzero;stroke:none"
         id="path38" /><path
         d="m 13698.6,2423.3 c 0,0 -83.8,-163.9 -118.1,-223 -15.3,-28.6 -34.3,-61 -59.1,-91.5 -13.4,-15.2 -26.7,-30.5 -43.9,-43.8 -3.8,-3.8 -9.5,-5.7 -13.3,-9.5 -5.7,-1.9 -9.5,-5.8 -15.2,-7.7 -3.9,0 -5.8,-1.9 -9.6,-3.8 h -5.7 c 0,-1.9 -1.9,-1.9 -1.9,-1.9 h -7.6 c 1.9,0 -1.9,0 -1.9,0 h -1.9 -1.9 c -1.9,0 -3.9,0 -5.8,0 -7.6,0 -15.2,1.9 -22.8,7.6 -7.7,3.9 -15.3,11.5 -19.1,19.1 -9.5,13.3 -11.4,28.6 -15.2,41.9 -3.9,26.7 -3.9,51.5 -3.9,74.4 2,47.6 5.8,93.4 9.6,139.1 1.9,22.9 3.8,45.8 3.8,66.7 0,21 0,41.9 -1.9,57.2 -1.9,7.6 -5.7,9.5 -9.5,11.4 -3.9,1.9 -11.5,-1.9 -15.3,-5.7 -3.8,-3.8 -7.6,-7.6 -11.4,-11.4 -9.6,-13.4 -19.1,-30.5 -26.7,-45.8 -9.5,-17.1 -17.2,-34.3 -24.8,-51.4 -13.3,-34.3 -26.7,-66.7 -36.2,-99.1 -21,-62.9 -36.2,-118.2 -45.7,-154.4 -5.8,-19.1 -17.2,-62.9 -17.2,-62.9 -34.3,-133.4 -114.4,-150.6 -165.8,-152.5 -278.3,-9.5 -57.2,592.8 -101,800.5 0,0 299.2,85.8 276.3,-289.7 0,-3.8 0,-7.6 0,-9.5 38.1,66.7 110.6,171.5 175.4,169.6 80,-1.9 64.8,-144.8 53.3,-238.2 0,-13.4 -1.9,-28.6 -3.8,-42 0,-3.8 0,-7.6 0,-11.4 -3.8,-24.8 -5.7,-49.6 -7.6,-72.4 0,-21 0,-43.9 1.9,-61 1.9,-7.6 3.8,-15.3 5.7,-19.1 1.9,-1.9 1.9,-1.9 1.9,-1.9 1.9,0 1.9,-1.9 3.9,-1.9 0,0 0,0 1.9,0 l 5.7,1.9 c 1.9,0 3.8,0 3.8,0 h 1.9 c 0,1.9 1.9,1.9 3.8,1.9 1.9,1.9 5.7,1.9 9.5,3.8 1.9,1.9 5.8,3.8 9.6,7.7 11.4,7.6 22.8,20.9 34.3,32.4 22.8,26.6 41.9,55.2 57.2,83.8 32.4,55.3 114.3,211.6 114.3,211.6 l 40,-19.1"
         style="fill:#100f0d;fill-opacity:1;fill-rule:nonzero;stroke:none"
         id="path40" /><path
         d="m 21231.6,10353.3 c 175.1,-136.3 357.2,-256 572.7,-322.1 145.6,-44.6 279.9,-47.2 404,50.4 58.3,45.7 117.6,91.1 170.4,142.8 197.6,193.8 393.1,389.8 588.8,585.6 84.5,84.7 149.8,183 198.3,292.2 73,164.4 47.1,316.9 -57.6,459 -28.1,38.3 -64.7,71.9 -110.8,78.2 -83.2,11.3 -155,51 -231.6,78.6 -20.6,7.5 -43.2,9.1 -64.2,15.5 -65,19.7 -132,35 -194.1,61.7 -233.2,100 -412.7,267 -562.9,467.4 -207.3,276.6 -348.2,584.7 -433.8,919 -80.9,316.1 -120.2,638.2 -144.2,962.7 -10.4,140 -20.3,280.2 -37.3,419.4 -6.7,54.3 -23.8,111.3 -51.1,158.5 -62.4,107.6 -197.8,116.3 -279.6,22.3 -20.7,-23.8 -37.4,-52.3 -50.8,-81.1 -21.1,-45.4 -39.4,-92.3 -56,-139.5 -126.9,-359.4 -246.2,-721.2 -330,-1093.6 -2.9,-12.5 -9,-24.3 -13.5,-36.4 -9.9,12.2 -12.8,23.2 -13.6,34.3 -11.6,152 -26,303.9 -33.6,456 -19.9,396 10.9,789.8 53,1183.1 12.3,115.6 23.9,231.5 29.9,347.5 2.3,42.7 -5.7,89 -21,129.1 -37.7,99.4 -144.2,138.3 -237.7,87.9 -34.5,-18.6 -66.3,-45.8 -92.5,-75.2 -40,-44.7 -75.5,-93.6 -110.3,-142.7 -341.1,-481.3 -674.4,-967.7 -949.7,-1491 -5.6,-10.8 -15.8,-19.2 -29.1,-35 -2.7,21.2 -5.2,32.9 -5.4,44.5 -4.8,198.5 -13.9,397 -12.5,595.5 1.5,220.5 7.5,441.3 20.7,661.4 23.1,386.6 72.6,770.6 120.8,1154.7 12,95.2 25,191.3 7.1,287.7 -26.4,141.6 -140.7,195.8 -264.6,121.7 -42.5,-25.4 -82.7,-57.5 -117.1,-93.3 -81.8,-85.4 -160.8,-173.6 -238.7,-262.7 -238.7,-272.6 -448.1,-566.1 -619.4,-885.7 -199.6,-372.6 -343.7,-763.8 -389.8,-1187 -0.8,-7.2 -5,-14 -11.8,-32.5 -13.7,28.8 -23.5,47.6 -31.8,67 -165.9,383.7 -254.7,784.8 -267.3,1202.4 -4.9,164.4 -5.8,328.9 -8.7,493.4 -0.4,21.6 -2.1,43.2 -3.3,65.8 -84.5,11.5 -143.7,60.9 -199.3,112.9 -80.1,74.8 -70.1,198.6 20.5,253.5 59,35.7 122.7,63.9 192,99.5 2.7,13.1 7.7,36.5 12.5,59.9 41.3,202 71,406.9 155.2,598 7.8,17.5 14.7,42.1 8.3,57.7 -14.1,34.3 2.1,57.1 17.7,82.6 122.5,200.1 245.8,399.7 366.8,600.7 45.5,75.5 87.7,153.2 127.5,231.7 24.5,48.4 18,61.8 -27,94.7 3.3,6.7 6.7,13.7 10.2,20.7 19.3,39.4 18.6,62.6 -2.5,82.1 -23.2,21.3 -53,21.3 -87.4,-5.2 -25.3,-19.5 -49.8,-41.2 -70,-65.7 -137.8,-167.1 -284.3,-328.2 -409.2,-504.4 -268.5,-379 -485.5,-788.4 -678.8,-1210.3 -176,-383.9 -315.1,-780.5 -404.4,-1194 -8.4,-39 -17.8,-78.6 -33.2,-115.2 -208.8,-495.6 -392.3,-1000.4 -556.5,-1512.3 -201.1,-627.1 -361.6,-1264.4 -471,-1913.9 -86.1,-510.8 -131.1,-1026.2 -161.4,-1543 -5,-84 -10.7,-168.1 -12.9,-252.3 -2.1,-81.2 -29.1,-145.4 -97.6,-195.1 -125,-90.5 -246.1,-186.5 -369.4,-279.6 -293,-221.1 -586.7,-441.1 -878.9,-663.2 -47.6,-36.2 -90.3,-79.4 -132.9,-121.7 -33.4,-33.3 -48.4,-74.9 -28,-121 21.1,-47.6 63.2,-68.2 112.1,-66.2 43.6,1.8 88,8.9 129.8,21.1 161.5,47.3 323.7,93.2 482.8,147.7 341.2,117 680.8,238.9 1020.8,359.4 16.5,5.9 32.2,15.9 46,26.9 37.6,29.9 70.8,66.5 111.4,91.1 91.8,55.8 170.5,127.4 247.3,200.3 132.1,125.2 272.5,241.9 388.5,384 117.9,144.4 242.6,283.2 362.8,425.8 40,47.4 69.2,105.1 113.7,147.2 81.3,76.7 145.3,165.5 204.3,258.7 86.7,137.2 173.1,274.7 256.5,413.9 56.6,94.5 113.6,189.6 160.4,289.1 114.3,243 219.5,489.9 299,747.2 56.3,182.4 106.2,365.7 125.2,556.1 11,109.6 19.1,219.6 28.1,329.4 17.9,219.7 36.1,439.5 52.9,659.3 4,52.5 20,97.6 60.8,132.5 8.7,7.4 15.7,16.7 23.2,24.8 -31.3,65.9 -61.3,128.9 -92.2,194.1 73.2,38.1 44.1,116.9 76.8,178.5 9.1,-24.9 15.5,-43.4 22.7,-61.5 35.3,-89.5 70,-179.3 106.9,-268.2 7.2,-17.4 19.8,-36.8 35.5,-45.9 68.8,-39.8 91.8,-100.9 94.4,-176.3 0.9,-26.6 9.1,-55.8 22.8,-78.6 45.5,-75.5 91.9,-150.9 143.5,-222.3 203.6,-281.7 424.9,-548.7 670.9,-794.7 62.7,-62.7 124.2,-124.4 147.3,-214.5 6.3,-24.7 20.1,-48.6 35,-69.6 66.9,-94.9 130.5,-192.9 204.4,-282.2 349.6,-422.6 751.1,-789.8 1193.9,-1113.4 247.7,-181 489.8,-369.9 731.9,-558.3"
         style="fill:#b11d23;fill-opacity:1;fill-rule:nonzero;stroke:none"
         id="path42" /><path
         d="m 8842.54,24972.5 c 66.44,-22.3 133.88,-41.8 201.4,-60.7 202.63,-56.7 408.1,-104.6 607.8,-170.2 585.36,-192.2 1183.06,-322.6 1796.26,-382 419.8,-40.6 824.3,-143.9 1220.3,-286.4 368.9,-132.8 721.4,-301.6 1068.7,-481.2 142.2,-73.4 281.6,-155 412.5,-246.8 388.3,-272.2 731.9,-593.3 1022.4,-969.3 96.9,-125.4 190.8,-253.1 284.1,-381.1 374.8,-514.1 720.5,-1047.7 1063,-1583.6 273.5,-427.8 560.5,-846 884.1,-1238.3 167.2,-202.7 329.1,-409.8 497,-611.8 43,-51.7 97.5,-95.2 151.7,-135.9 47.1,-35.5 96.4,-30.9 133.4,0.4 34.5,29 44.1,74 25.6,126.7 -7.8,22.4 -17.9,44.1 -27.7,67.9 39.5,25.3 46.6,60.2 35.9,101 -48.8,186.1 -88.4,375.2 -147.9,557.9 -195.1,598.5 -491.3,1144.9 -871.6,1645.9 -528.3,695.9 -1127,1325.7 -1782.9,1902.5 -559.4,492.1 -1172.8,901.5 -1844.6,1222.7 -256.8,122.7 -519,234.1 -777.1,354.1 -295.1,137.3 -597.4,256.3 -909.2,348.3 -359.5,106.2 -721.3,204.8 -1083.4,301.8 -565.7,151.6 -1095.52,386.5 -1602.06,677.3 -26.07,15 -52.01,30.3 -78.87,43.7 -29.4,14.7 -61.4,24.7 -91.5,5.2 -31.97,-20.8 -18.03,-53.3 -11.36,-86.3 -12.72,-1.6 -18.57,-3.1 -24.4,-3 -153.57,1.4 -271.1,-70.4 -355.64,-191.2 -89.37,-127.7 -91.33,-296.5 41.32,-427.8 46.49,-46 101.3,-79.2 162.75,-99.8"
         style="fill:#b11d23;fill-opacity:1;fill-rule:nonzero;stroke:none"
         id="path44" /><path
         d="m 25536.2,4875.8 c -13.1,11.8 -29.3,21 -45.5,28.5 -211.3,97.2 -422.4,194.7 -634.4,290.4 -338.9,152.9 -665.4,327.9 -972.5,538.2 -232.2,159.1 -451,334.1 -648.1,535.9 -292,298.9 -556.9,620.7 -818.2,946.3 -408.7,509.6 -700.6,1082.3 -934.3,1687.9 -10,26.2 -20.5,52.6 -34.9,76.4 -43.5,72 -120.6,105.2 -201.6,82.9 -38,-10.4 -76,-27.5 -108.4,-49.8 -49.2,-34 -94.6,-74.1 -139.8,-113.6 -98.3,-85.6 -193.1,-175.2 -293.4,-258.2 -201,-166.5 -405.1,-329.3 -549.1,-552.2 -1,-1.6 -3.1,-2.5 -10.6,-8.1 -9.6,4 -19.1,6.9 -27.6,11.5 -66.1,35 -140.1,-12 -123.8,-100.5 5.3,-29 16,-58.4 30.6,-84 22.6,-40 48.1,-79 76.7,-114.9 66.2,-83.1 132.5,-166.4 203.3,-245.6 320.9,-359.1 682.1,-674.1 1073.2,-953.3 653.2,-466.5 1349.7,-858.7 2084.9,-1181.2 363.5,-159.5 729.7,-313 1111.2,-425.8 215.3,-63.7 431,-125.4 640,-208.7 63.1,-25.2 129.9,-41.2 195.6,-59.1 22.8,-6.3 47.6,-8.6 71.2,-7.6 39.8,1.6 68.4,23.4 81.9,60.6 14.3,39.5 5,75.8 -26.4,104"
         style="fill:#b11d23;fill-opacity:1;fill-rule:nonzero;stroke:none"
         id="path46" /><path
         d="m 10203.2,8998.5 c -32.5,71 -59.1,145.9 -99.9,211.8 -155.63,251.5 -255.8,525.7 -343.15,805.9 -10.59,34 -12.19,66.7 -1.02,100.2 22.8,68.4 45.95,136.8 68.45,205.3 16.87,51.3 36.77,102.1 48.57,154.7 24.73,110.1 -9.12,186.9 -105.45,244.6 -56.72,34 -115.35,64.9 -173.75,95.9 -151.02,80.4 -291.22,176.8 -425.01,283.1 -100.6,80 -179.68,176.8 -237.46,291.5 -100.93,200.4 -152.14,413.3 -159.2,636.8 -6.27,198.3 25.91,392.8 80.94,581.9 77.86,267.4 166.16,531.8 249.18,797.8 22.67,72.6 43.86,145.8 62.88,219.5 8.02,31 -2.13,60.4 -30.89,78.6 -28.61,18.2 -58.42,13.9 -84.72,-4.6 -17.77,-12.5 -32.8,-29.1 -48.05,-44.9 -12.08,-12.5 -22.61,-26.5 -32.74,-38.5 -34.08,38.4 -61.2,79.3 -97.81,108.3 -162.47,128.6 -240.11,304.5 -274.85,500.1 -35.17,198 -40.18,399.4 -22.66,599.8 45.54,521.1 168.53,1024 364.5,1508.9 6.64,16.5 12.82,36.9 25.82,46.3 46.74,34 66.88,83.9 88.22,133.7 70.31,164 139.96,328.2 210.99,491.9 95.78,220.7 192.24,441.1 289.11,661.3 74.59,169.6 52.55,328.6 -50.67,478.9 -68.23,99.4 -139.17,197 -230.94,276.3 -100.09,86.4 -200.34,173.1 -305.56,253 -115.18,87.5 -238.88,162.5 -378.3,206.8 -65.17,20.7 -131.96,46.1 -181.25,-30.3 -25.39,17.6 -46.27,33.1 -68.16,47.1 -48.09,30.6 -81.32,32.6 -103.85,7.4 -21.33,-23.8 -15.21,-57.7 19.68,-102.8 12.24,-15.9 25.75,-30.8 39.29,-45.6 123.29,-134.5 247.14,-268.6 369.84,-403.7 34.79,-38.3 66.36,-79.6 104.03,-125.1 -15.18,-9.3 -21.46,-14.4 -28.62,-17.5 -124.19,-52.6 -176.06,-152.3 -179.16,-281.1 -1.65,-68 -0.89,-136.5 5.36,-204.2 17.15,-185.7 36.92,-371.1 57.85,-556.4 3.5,-31.1 13.3,-63.4 28.17,-90.9 56.89,-105 91.84,-217.5 123.17,-331.8 11.13,-40.6 6.52,-76.5 -9.05,-116.1 -65.27,-165.9 -132.46,-331.5 -188.4,-500.8 -121.86,-368.6 -203.97,-746.3 -238.22,-1133.7 -12.36,-139.8 -18.13,-280.5 -37.3,-419.3 -26.21,-189.9 -17.13,-376.7 30.17,-561.1 48.51,-189.1 126.95,-364.6 274.39,-498.8 38.82,-35.4 45.09,-65.6 25.15,-109 -9.17,-20 -15.92,-41.1 -22.76,-62.1 -54.12,-165.7 -111.35,-330.5 -160.95,-497.6 -44.16,-148.7 -60.57,-302.5 -61.14,-457.8 -0.1,-28.3 4.84,-53 21.54,-78.8 35.76,-55.1 72.67,-111.5 95.92,-172.4 70.25,-183.9 119.94,-374.1 140.78,-570.4 14.8,-139.4 24.31,-279.4 34.4,-419.2 4.38,-60.7 17.46,-117.8 40.99,-174.4 29.97,-71.9 59.7,-145.2 77.84,-220.7 125.66,-523.2 358.71,-993.9 684.36,-1420.4 68.15,-89.3 133,-181.1 202.22,-269.4 56.36,-72 97.62,-78.1 176.36,-35 2.93,1.6 7.52,0.2 13.63,0.2 31.34,-37.1 62.48,-76.4 96.16,-113.3 22.84,-25 47.03,-49.9 74.53,-69.3 39.2,-27.5 83.6,-30.2 124.1,-2.1 40.4,28 52.4,69.2 42.1,116.8 -2.5,11.7 -4.8,23.9 -9.7,34.7"
         style="fill:#b11d23;fill-opacity:1;fill-rule:nonzero;stroke:none"
         id="path48" /><path
         d="m 7905.33,13466.4 c -59.56,142.4 -121,283.9 -181.3,426 -249.45,587.5 -452.86,1187.6 -494.5,1831.2 -13.97,216.1 -27.13,432.2 -41.41,648.2 -6.07,91.9 -12.82,183.8 -21.51,275.5 -11.02,116.2 -52.16,222.4 -118.57,317.8 -44.6,64.1 -92.03,126.4 -141.44,186.8 -58.35,71.4 -123.14,137.6 -179.66,210.4 -51.47,66.2 -100.2,135.5 -142.11,208 -121.89,211 -191.39,440.9 -226.7,680.7 -25.74,174.8 -54.75,348.5 -108.65,517.2 -17.06,53.4 -32.9,107.1 -70.97,151.3 -9.37,10.8 -11.46,29 -14.15,44.3 -5.22,29.6 -6.58,60 -13.13,89.2 -5.63,25.1 -12.82,51.1 -25.42,73.3 -21.89,38.4 -57.11,38.2 -79.01,-0.5 -12.53,-22.2 -19.76,-48.1 -25.46,-73.3 -72.2,-318.3 -94.84,-641.9 -100.74,-967.1 -3.44,-359.7 43.21,-712 153.44,-1055.1 51.5,-160.2 107.62,-319.3 152.38,-481.4 87.99,-318.8 174.25,-638.2 252.73,-959.4 164.82,-674.7 489.47,-1263.5 941.84,-1786 131.24,-151.6 259.91,-305.4 389.8,-458.1 6.49,-7.6 13.02,-15.3 20.31,-22.2 20.41,-19.1 43.3,-29.8 70.72,-15.1 26.54,14.1 35.46,39.2 30.34,66.3 -5.91,31.3 -14.55,62.7 -26.83,92"
         style="fill:#b11d23;fill-opacity:1;fill-rule:nonzero;stroke:none"
         id="path50" /><path
         d="m 6238.14,19362.7 c 14.02,-28.1 34.46,-54.6 57.29,-76.3 32.8,-31.1 73.54,-40.3 116.87,-20.4 42.84,19.7 61.55,55.5 63.45,101.1 0.5,11.9 -0.89,24 -2.35,35.9 -33.71,275.1 -50.95,551.5 -49,828.2 3.11,439.8 44.93,877.1 107.96,1312.2 54.62,377.1 107.75,754.4 128.2,1135.4 1.46,27.1 9.52,55.5 21.08,80.3 44.15,94.4 89.86,188.2 137.02,281.2 150.58,296.8 353.74,553.1 599.27,777 297.22,271 622.16,498.6 996.14,653.1 71.34,29.5 135.82,76.9 200.77,120 25.86,17.2 49.27,42.4 65.39,69 45.63,75.5 1.03,160.4 -86.52,166.2 -29.39,1.9 -59.95,-3.2 -89.04,-9.5 -110.75,-23.8 -211.48,-73.5 -313.02,-121.9 -241.99,-115.2 -469.69,-253 -675.45,-425.1 -112.28,-93.9 -223.56,-189.3 -330.51,-289.2 -274.65,-256.5 -493.25,-553.1 -634.36,-903.8 -32.18,-80 -63.84,-160.2 -97.74,-239.4 -20.44,-47.8 -42.19,-95.4 -67.79,-140.6 -70.18,-123.8 -142.7,-246.3 -214.35,-369.3 -6.89,-11.8 -14.2,-23.4 -21.31,-35.1 -4.48,0.7 -8.96,1.3 -13.44,2 -1.04,21.3 -3.51,42.7 -2.91,64.1 5.72,202.4 8.95,404.9 40.65,605.6 3.57,22.6 5.38,45.4 -19.92,57 -25.91,11.9 -47.76,1.1 -63.76,-19.1 -12.28,-15.4 -23.35,-33 -30.13,-51.4 -11.05,-30 -19.8,-61.1 -26.63,-92.3 -31.35,-143.4 -51.08,-288.3 -51.97,-435.2 -0.55,-92.2 0.83,-184 -50.02,-266.9 -10.2,-16.6 -12.92,-37.8 -19.56,-56.7 -40.11,-114.1 -60.7,-232.4 -78.45,-351.6 -31.1,-208.8 -51.58,-418.6 -32.95,-629.5 47.93,-542.5 174.41,-1067.6 359.81,-1579 21.8,-60.1 48.67,-118.7 77.28,-176"
         style="fill:#b11d23;fill-opacity:1;fill-rule:nonzero;stroke:none"
         id="path52" /><path
         d="m 13934.1,19706.3 c 34,5.5 69.1,14.9 74.2,57.7 3.7,30.1 -24.5,57.3 -70.9,70.4 -17.2,4.8 -35.3,6.9 -53.1,9.3 -21.7,2.8 -43.6,4.7 -69,7.3 -20.8,80.4 -36.3,94.7 -114.7,104.1 -27.8,3.3 -55.9,4.6 -83.9,5 -191.2,2.3 -380.2,-22.1 -567.9,-52.9 -322.5,-52.7 -640.9,-125.2 -955.8,-212.2 -278.2,-76.8 -554.5,-160.1 -816,-284.3 -74,-35.2 -146.3,-74.8 -215.9,-118.1 -83.2,-51.9 -111.9,-131 -100.5,-227.9 21.9,-184.6 84,-354.2 187.5,-508.3 84.8,-126.4 187.1,-234.9 323.6,-307.4 54.3,-28.8 110.5,-47.6 172.6,-42.1 97.2,8.6 146,97.5 100.8,183.2 -5.6,10.6 -12.9,20.3 -19,30.7 -67.7,117 -79.5,233.7 2.9,349.6 2.3,3.2 4.4,6.7 6.6,10 136.1,200.6 311.7,354 537,447.6 90.7,37.6 181.9,73.9 272.1,112.7 208.2,89.8 420.9,166.2 640.8,222.2 168.9,43 336.4,91 510.7,109.1 79.6,8.3 158.8,21.4 237.9,34.3"
         style="fill:#b11d23;fill-opacity:1;fill-rule:nonzero;stroke:none"
         id="path54" /><path
         d="m 11378.1,12366.2 c -31.6,41.5 -63.8,82.5 -96.1,123.4 -91.6,115.8 -142,132.9 -280.7,79.4 -183.2,-70.6 -364.2,-146.8 -546.2,-220.6 -33.1,-13.4 -66.3,-26.6 -100.9,-40.4 -16.2,19.5 -29.5,36.8 -44.1,52.9 -56,62.2 -126.5,76 -201.2,39.9 -10.9,-5.3 -21,-11.8 -31.6,-17.5 -181.89,-97.4 -363.79,-194.8 -545.63,-292.3 -12.34,-6.6 -24.92,-13.1 -36.21,-21.2 -30.81,-22.4 -41.66,-47.1 -30.95,-70.8 13.48,-29.8 40.83,-31.5 66.78,-26.4 37.21,7.3 74.08,17.5 110.06,29.6 25.07,8.4 43.94,9.2 64.67,-11.8 27.3,-27.7 62.7,-32.8 100.53,-22.3 30.88,8.5 61.91,17 93.37,22.9 94.54,17.8 189.18,36.5 286.08,19.2 75,-13.4 150.9,-22.9 224.8,-40.6 159.8,-38.3 301.5,-5.5 429,96.6 37.5,30 76.3,58.8 116.6,84.9 61.1,39.7 128.4,57 200.9,39.9 40.7,-9.6 80.3,-24.3 120.9,-34.9 48,-12.6 92.5,-6.4 124.8,35.4 31.9,41.3 29.5,85.7 4.9,129.6 -8.8,15.7 -18.9,30.8 -29.8,45.1"
         style="fill:#b11d23;fill-opacity:1;fill-rule:nonzero;stroke:none"
         id="path56" /><path
         d="m 18061.1,13376 c -3.9,-45.2 -7.8,-90.3 -12.3,-142.7 31.9,12.6 54.5,21.4 79.8,31.4 -20.2,42.3 -37.6,78.6 -54.9,114.9 -4.2,-1.2 -8.4,-2.4 -12.6,-3.6"
         style="fill:#b11d23;fill-opacity:1;fill-rule:nonzero;stroke:none"
         id="path58" /><path
         d="m 23598.7,16037.6 c -0.2,32 -4.9,64 -5.6,96 -2,106.2 -12.4,213.4 -1.9,318.5 9.1,91.8 4.5,180.4 -14,268.5 -49.9,237.7 -117.7,470.4 -197.4,700.1 -82.2,237.1 -231,424.6 -420.5,582.9 -149.1,124.5 -316.7,218.5 -498.2,287 -42.2,15.9 -64.1,40.1 -73.8,84.5 -23.8,109.6 -52.1,218.2 -78.6,327.2 -6.1,25.4 -12.9,50.6 -17.4,76.3 -43.5,249.1 -71.2,499.9 -76.5,753 -2.1,100.2 -7.6,200.3 -12.8,300.4 -10.6,204.1 -21.4,408.2 -33.4,612.2 -7.8,132 -14.3,264.2 -27.7,395.7 -24.7,241.3 -53.2,482.1 -81.9,722.9 -26.8,225.2 -65,448.4 -118,669.1 -75.9,316.3 -171.3,626.8 -276.6,934.4 -109.4,319.8 -247.9,626.5 -419.7,917.7 -159.4,270.3 -340.9,524.7 -559.3,751 -107.2,111 -217.3,219.2 -327.9,326.8 -102.3,99.5 -212.2,189.9 -334.8,263.8 -82.7,49.8 -168.2,94.6 -264,113.6 -30.9,6.2 -64.2,9.3 -95.1,4.9 -108.7,-15.6 -156.5,-88.8 -125.9,-194.5 12.1,-41.9 31.8,-82.5 53.4,-120.7 112.9,-198.8 228.9,-395.8 341.2,-594.9 143,-253.2 288.6,-505.1 423.4,-762.6 106.8,-204.2 199.4,-415.9 297.7,-624.5 179.7,-381.2 341.2,-770.1 494.8,-1162.4 6.8,-17.2 11.2,-35.3 16.7,-53 -17.2,12.7 -25.2,28.4 -34.2,43.6 -50,84.5 -98.4,170 -151,252.9 -30.2,47.5 -69.2,88.7 -121.8,113.6 -43.7,20.6 -87.5,17.9 -124.8,-11.9 -35.1,-28.1 -48.9,-67.7 -40.2,-113.2 3.1,-15.7 6.6,-31.4 10.6,-47 151.2,-597.1 278.3,-1199.5 387.8,-1805.6 10.5,-58.7 20.4,-117.4 30.5,-176.1 -4.9,-1.2 -9.9,-2.3 -14.8,-3.4 -17.6,37.7 -35.5,75.4 -52.8,113.3 -95.7,209.9 -191.5,419.7 -286.6,629.8 -54.5,120.6 -106.8,242.2 -162.3,362.3 -15,32.4 -34.8,63.9 -58.5,90.4 -28.7,31.9 -67.2,42.5 -109.7,25.6 -42.2,-16.8 -65.6,-48.5 -62.2,-93.1 3.2,-41.6 11.4,-83.3 21.8,-123.7 26.5,-102.9 58.9,-204.3 82.6,-307.7 28.7,-125 49.9,-251.8 76.2,-377.4 91.5,-436.5 200.8,-867.6 385.7,-1276 74.4,-164.3 132.6,-335.7 225.2,-491.9 95.7,-161.4 204.8,-312.5 341.2,-441.2 178.8,-168.4 379.9,-308.6 589.8,-434.9 166.5,-100.2 338.4,-191.8 509.1,-285.1 135.8,-74.2 252.5,-170.6 347.1,-292.5 194.7,-250.9 283.4,-541.3 308.2,-853.4 11.4,-143.8 18.1,-288 23,-432.2 9.8,-290.5 19.9,-581 24.1,-871.6 2.5,-178.3 -4.8,-356.8 -9.5,-535.1 -3.2,-124.3 -8.9,-248.4 -14.5,-372.6 -3,-68 -5.3,-136.4 -13,-204 -15.6,-135.4 -37,-270.1 -51.4,-405.6 -9.9,-93.6 -14.5,-187.9 -16.3,-281.9 -0.7,-37.2 9.5,-75.6 20.6,-111.6 10.4,-33.9 36.2,-39.5 58.4,-12.5 21.3,25.9 40.9,55.7 52,87 19.2,54.7 32.9,111.5 46.2,168 53,224.4 105.3,448.9 157,673.6 9.9,42.9 19.3,86.4 23.4,130.1 23,245.6 40.2,491.5 39.7,738.3 -0.6,312.9 -1.5,625.9 -2.8,938.8"
         style="fill:#5fcbf5;fill-opacity:1;fill-rule:nonzero;stroke:none"
         id="path60" /><path
         d="m 13272.4,9864 c -50.3,-24.2 -97.3,-56.1 -142.7,-88.8 -139.9,-101 -277.4,-205 -417.3,-305.9 -228,-164.4 -480.2,-253.6 -763,-213.9 -318,44.6 -606.1,164.9 -854.3,373 -67.6,56.7 -133.2,116.1 -204.1,168.3 -94.2,69.4 -196.9,122.9 -314.2,144.9 -70.9,13.3 -136.3,-0.2 -197.8,-32.7 -132.8,-70.3 -244.1,-277.8 -230.6,-443.4 7.9,-96.9 36.9,-188.2 74,-277.8 15,-36.2 21.2,-76.6 27.7,-115.6 9.6,-57.2 15.8,-114.9 23.4,-172.4 2,-15.2 3.8,-30.4 6.3,-50.4 -16.8,3 -28.6,3.4 -39.2,7.2 -17,6 -32.6,16.4 -49.8,21 -14.2,3.7 -29.9,1.7 -44.9,2.2 -0.6,-16.8 -6.7,-36.2 -0.4,-49.9 10.7,-23 25.5,-47.4 45.4,-62.1 36.6,-27.1 76,-53.5 118.3,-69.2 44.3,-16.3 74.8,-41.5 100.6,-79.9 37.9,-56.5 78.7,-111.4 121.7,-164.2 64.4,-79 146.4,-129.7 249.5,-142.7 21.4,-2.7 42.6,-7.9 64,-11.9 -1.4,-6.1 -1.3,-9.2 -2.4,-9.7 -30.3,-15.5 -60.8,-30.6 -91.2,-46 -367.8,-185.7 -715,-406 -1052.88,-640.4 -163.05,-113.2 -311.27,-246 -441.52,-397.5 -78.36,-91.2 -159.76,-179.8 -241.38,-268.1 -44.71,-48.4 -50.26,-48.7 -97.57,-6.7 -56.93,50.6 -111.59,103.7 -167.04,155.9 -139.94,131.7 -250.05,138.4 -408.36,28.7 -245.58,-170.3 -490.88,-341 -738.94,-507.6 -278.06,-186.7 -560.66,-366.7 -838.37,-554 C 6447.75,5840.3 6131.41,5624 5831.42,5385.3 5632.19,5226.7 5435.38,5065.2 5239,4903.1 c -39.93,-32.9 -76.05,-71.7 -108.54,-112.1 -30.14,-37.5 -25.1,-87.8 3.71,-115.7 28.31,-27.5 67.07,-27.4 110.46,-0.8 203.46,124.6 406.87,249.3 610.66,373.3 265.93,161.9 540.95,306.1 828.05,427.1 290.5,122.4 587.61,226.6 888.32,320.4 272.15,84.8 547.77,156.5 831.95,188.6 178.94,20.2 350.49,7.7 508.27,-97.2 98.96,-65.8 213.06,-103.3 331.7,-119.8 140.48,-19.6 273.77,0.3 384.48,96 54.17,46.9 104.02,100.2 148.79,156.2 251.85,314.9 509.05,625 806.85,898.2 147.7,135.5 298.1,268.2 452.4,395.9 245.9,203.5 507.7,385.7 773.2,562.6 68.3,45.4 131.4,98.6 197.1,147.9 46.7,35.1 83.1,75.7 72.8,138.3 8.6,5.1 13.4,9 18.9,10.9 7.5,2.6 15.5,4.2 23.4,5.1 205.3,23.1 399,87.6 588.2,167.2 270,113.4 477.5,299.2 626.7,549.7 112.7,189.5 188.6,394.2 233,609.9 11.6,56.4 17.5,115.6 14.9,173.1 -7.9,171.1 -157.9,260.2 -311.9,186.1"
         style="fill:#5fcbf5;fill-opacity:1;fill-rule:nonzero;stroke:none"
         id="path62" /><path
         d="m 21242.4,10009 c -126.4,106.7 -269.8,187.8 -411.4,271.2 -193.7,114 -386.8,228.3 -565.9,365 -180.2,137.4 -362.6,271.9 -543.7,408.2 -41,30.8 -83.7,55.4 -130,52.8 -63.9,0.1 -112,-25.2 -159,-52.4 -50.3,-29.2 -97.7,-63.9 -149.5,-89.8 -184.9,-92.2 -369.7,-184.6 -557,-271.5 -374.8,-173.9 -751,-344.8 -1114.2,-542.3 -91.6,-49.8 -184.2,-97.9 -274.6,-149.7 -79.7,-45.7 -148.6,-103.4 -177.4,-195.6 -9.2,-29.3 -30.3,-32.6 -55.3,-36.1 -65.5,-9.1 -131,-18.6 -195.9,-31.1 -22.8,-4.4 -46.9,-13.9 -64.9,-28.2 -28.1,-22.3 -22.7,-57.2 9.1,-73.6 13.8,-7 30.6,-11.5 46,-11.5 52.1,0.1 104.2,3.1 156.2,4.2 96.1,2 193.4,13.5 288.1,3 179.1,-19.9 357.7,-47.6 534.8,-81.2 187.3,-35.6 371.4,-85.9 545.8,-165.8 236.9,-108.6 439.9,-262.4 610.7,-459 228,-262.2 386.7,-559.6 460,-900.8 10.1,-47 20,-94.3 34.6,-140.1 19.8,-62.3 75.7,-85.5 134.2,-55.9 24.6,12.4 47.5,30.6 66.8,50.3 67.3,68.8 132.4,139.7 199,209.1 190.1,198.3 379.7,397.1 571.2,594 78.2,80.4 162.2,155.2 241.4,234.8 100.3,101 198.4,204.2 297.2,306.7 107.1,111.2 213.9,222.7 320.8,334.1 8.3,8.7 16.1,17.9 23.4,27.4 64.5,84.7 69.4,159.3 16.7,251.3 -39.6,69.1 -97.3,122 -157.2,172.5"
         style="fill:#5fcbf5;fill-opacity:1;fill-rule:nonzero;stroke:none"
         id="path64" /><path
         d="m 16866.7,19211.9 c 4.8,2.6 9.6,5.1 14.3,7.7 -4.4,18 -5.8,37.5 -13.9,53.7 -45.3,91.6 -84.9,187 -139.9,272.4 -159.5,247.8 -322.3,493.7 -489.5,736.3 -178.6,259.3 -360.5,516.4 -547.1,769.9 -131.5,178.8 -230.2,375.7 -337.7,568.1 -54.6,97.9 -106.6,197.7 -168.4,290.9 -123.1,185.6 -261.4,359.9 -405.9,529.6 -173.4,203.6 -359.6,394.3 -563.4,566.8 -321.9,272.5 -666.1,515.2 -1024.2,737.7 -312.1,194 -646.6,337.8 -1003.9,425.9 -268.4,66.3 -543,80.9 -817.5,87.4 -388.8,9.2 -777.8,8.6 -1166.7,14 -224.88,3.1 -442.53,46.4 -650.08,133.6 -227.29,95.5 -453,194.8 -679.89,291.3 -38.52,16.3 -78.74,30.4 -119.53,39.3 -57.22,12.6 -97.62,-7.4 -123.86,-60.3 -58.62,-118.1 -150.81,-206.3 -250.79,-287.9 -23.17,-18.9 -47.81,-37.2 -74.5,-50.2 -55.32,-27 -59.02,-35.9 -28.1,-88 45.57,-76.7 112,-132.5 189.06,-172.1 130.02,-66.9 260.51,-134.6 396.24,-188.1 375.88,-148.3 766.05,-252 1159.95,-337.6 319.1,-69.4 641.9,-122.5 964.3,-175.6 443.4,-72.9 883.9,-160 1323.3,-253.4 466.9,-99.3 918.8,-241.4 1338.5,-475.2 194.7,-108.4 388,-219.4 563.7,-356.7 165.8,-129.4 326.9,-265.1 485.8,-402.9 96.9,-83.9 188.9,-174 277.7,-266.5 156.8,-163.4 310.8,-329.5 463.5,-496.9 95.8,-105.1 191.7,-210.8 279.2,-322.8 164.3,-210 325.8,-422.4 482.3,-638.3 161.2,-222.3 315.2,-449.9 471.7,-675.6 52.5,-75.8 102.5,-153.4 154.6,-229.5 11.6,-17 27,-31.4 40.7,-47"
         style="fill:#5fcbf5;fill-opacity:1;fill-rule:nonzero;stroke:none"
         id="path66" /><path
         d="m 9785.7,14156.8 c 57.32,12.9 114.32,4.3 163.17,-24.8 98.63,-58.7 206.53,-71.2 317.23,-80.1 105.8,-8.5 211.2,-22.7 316.4,-37.2 50.5,-7 98.6,-25.8 128.8,-69.8 21.3,-31 48,-37.8 82.4,-36.7 96.8,2.8 186,29.8 266.7,82.7 129.2,84.7 229.8,198.9 325.1,318.4 20.5,25.6 15.5,46 -5.2,68.6 -77,84.5 -153.3,169.5 -229.2,254.9 -16.6,18.6 -35.3,25.6 -58.9,19.3 -35,-9.3 -69.1,-4.1 -99,13.4 -36.2,21.2 -73.2,19.6 -110.7,11.4 -178.2,-39 -356.9,-75.8 -534,-119.7 -301.7,-74.8 -602.12,-154.5 -903.23,-231.7 -183.27,-46.9 -364.98,-43.2 -545.48,16.5 -87.97,29.2 -168.01,67 -212.4,154.9 -0.9,1.7 -1.77,4.1 -3.32,4.9 -16.88,8.9 -36.21,27.2 -50.27,23.8 -17.52,-4.2 -38.96,-24 -43.85,-41.3 -7.17,-25.4 -5.78,-55.5 0.18,-81.7 13.51,-59.5 55.25,-101.1 99.5,-139.8 15.16,-13.3 31.51,-24.9 25.25,-49.8 -10.52,-41.7 5.3,-79.3 22.49,-115.7 66.51,-141 173.29,-245.3 306.08,-322.2 216.83,-125.5 456.16,-184.3 700.52,-225.9 11.78,-2 24,-1.5 23.99,-1.5 22.06,0 32.13,-0.6 42.11,0.1 62.48,4.4 113.54,46 125.95,102.4 14.45,65.7 -14.34,135.3 -70.26,163.2 -30.29,15.1 -62.38,27 -94.32,38.5 -72.19,25.9 -113.92,86.4 -109.64,161.2 4.13,72.4 50.73,127.2 123.9,143.7"
         style="fill:#5fcbf5;fill-opacity:1;fill-rule:nonzero;stroke:none"
         id="path68" /><path
         d="m 11565.9,14064.2 c 44.1,-212.7 157.1,-393.1 282.6,-566.3 83.3,-115.2 186,-209.6 307.1,-283.8 125.3,-76.8 258.3,-126.4 408.6,-123.9 144.4,2.4 239.5,117.1 173.1,276.3 -18.3,43.8 -42.7,88.1 -74.6,122.6 -104.7,113.3 -212.1,224.3 -322.3,332.3 -104.4,102.4 -215.8,197.7 -320,300.3 -71.3,70.2 -146.7,110.5 -247.6,74.2 -1.7,-0.6 -3.9,0.6 -12.2,2.1 -5.8,12.4 -15.3,27.6 -20.1,44.2 -9.4,32.7 -16,66.1 -24,99.1 -7.1,29.1 -21.4,52.6 -52.8,59.3 -33.1,7.1 -61.4,-5 -77.8,-33 -14.8,-25.3 -31.6,-54.6 -32,-82.4 -1,-73.7 -2.8,-149.4 12,-221"
         style="fill:#5fcbf5;fill-opacity:1;fill-rule:nonzero;stroke:none"
         id="path70" /><path
         d="m 12674.2,18634.3 c -28.7,-23.6 -53.9,-25.3 -80.7,-21.7 19,25.7 43.3,30.3 80.7,21.7 z m -608.1,-379 c 25,-29.7 56.4,-27.3 87.9,-14.7 46.4,18.7 91.9,39.5 138,59.1 232,98.6 468.7,175.1 726,162.3 31,-1.5 64.5,5.2 93.9,16.1 91,33.5 119,146.2 51.8,216 -29.6,30.8 -67.6,58.5 -107.2,73.6 -72.6,27.8 -147.9,52.3 -224.3,65.6 -163.6,28.6 -328.5,49.6 -493,72.6 -29.4,4.1 -60.3,7.6 -89.2,3.3 -114.6,-17.1 -179.3,-90.4 -209.3,-197.5 -14.6,-52 -25.6,-105 -36.7,-157.9 -10.6,-50.4 11.8,-101.8 55,-129.9 11.6,-7.5 24.1,-13.7 42.5,-24 -14.3,-20.4 -25.3,-34.4 -34.5,-49.5 -22,-36.5 -22.1,-69.9 -0.9,-95.1"
         style="fill:#5fcbf5;fill-opacity:1;fill-rule:nonzero;stroke:none"
         id="path72" /><path
         d="m 7408.35,17618.2 c 20.74,-23 25.58,-47.2 19.19,-77.4 -6.7,-31.6 4.09,-60 31.89,-78.6 30.05,-20.2 61.41,-17 90.37,2 23.35,15.3 45.86,32.3 66.81,50.8 169.14,149.2 348.04,282.9 560.62,365.9 29.26,11.4 57.45,29.7 81.07,50.5 45.1,39.8 64.65,91.9 49.92,151.7 -14.43,58.6 -55.94,90.7 -113.78,102.2 -23.45,4.7 -47.37,7.1 -68.82,10.2 -24.61,-2.8 -47.26,-2.5 -68.17,-8.3 -156.03,-43.7 -312.42,-86.3 -467.16,-134.2 -57.37,-17.8 -107.48,-52.1 -143.99,-103.6 -63.6,-89.9 -65.25,-190.8 -55.88,-293.9 1.18,-13 8.99,-27.3 17.93,-37.3"
         style="fill:#5fcbf5;fill-opacity:1;fill-rule:nonzero;stroke:none"
         id="path74" /><path
         d="m 11606.7,14674.5 c -6.1,5 -12.1,9.9 -18.1,14.8 -1.9,-2.2 -3.7,-4.4 -5.6,-6.6 5.8,-5.2 11.6,-10.3 17.5,-15.5 2,2.4 4.1,4.9 6.2,7.3"
         style="fill:#5fcbf5;fill-opacity:1;fill-rule:nonzero;stroke:none"
         id="path76" /><path
         d="m 21422.6,10277.2 c -330.7,223.7 -657.9,452 -960.2,714.3 -197.2,171.1 -387.9,349 -565.5,540 -488.2,525 -948.6,1072.6 -1354.9,1664.6 -269.6,392.8 -483.6,812.9 -647.8,1259.3 -98.1,266.6 -154.3,543.6 -203.4,822.3 -12.9,72.9 -23.1,146.2 -34.9,221.3 20.7,22.9 40,45.9 61,67.1 60.6,61.4 122.4,121.6 182.6,183.3 22.3,22.9 44.7,46.8 61.4,73.8 64.6,104.7 13.5,230.3 -105.1,262.2 -9.6,2.6 -19.6,4.7 -29.5,5.4 -99.3,7.4 -192,39.5 -284,74.8 -89.9,34.4 -180.3,67.5 -270.3,101.5 -16.3,6.1 -32,13.6 -53.3,22.7 13.2,13.7 21.6,24.3 31.8,32.8 423.4,352.1 712.8,800.3 926,1301.2 101.4,238.1 184.9,483.2 242.2,736.3 30.2,133.5 45.5,268.9 45.7,405.8 0,69.1 -2,137.4 -61.8,187 -5.7,4.7 -8.6,13.6 -11.3,21 -17.6,49 -85.9,60.9 -124.1,16.5 -21.9,-25.4 -40.8,-55.1 -53.7,-86 -27.8,-66.5 -50.2,-135.3 -76.1,-202.6 -10,-25.9 -23.2,-50.6 -35.7,-75.5 -18,-35.8 -36.7,-71.2 -55,-106.8 -7.2,-14 -14.2,-28.1 -25.5,-50.5 -16.8,30.5 -30.3,54.3 -43.1,78.5 -578.3,1092.2 -1247,2128.1 -1961.1,3135.1 -359.1,506.4 -757.5,980.9 -1209.1,1409.1 -343.2,325.4 -708.6,621.8 -1122.5,853.9 -308.5,173 -627,324.3 -966.4,427.4 -213.4,64.9 -432.3,106.1 -652.3,139.9 -432,66.5 -865,127 -1296.7,195.5 -485.2,76.9 -969.52,159.6 -1447.44,274.9 -194.87,46.9 -388.77,98.5 -577.08,168.5 -20.42,7.6 -40.57,15.9 -64.66,25.4 6.41,17.8 10.44,32.7 16.91,46.5 42.91,91.2 97.58,175 161.3,253 240.5,294.3 546.59,492.1 904.94,611.4 336.53,112.1 682.23,161.9 1036.83,144.7 276.5,-13.4 543.8,-73.5 805.2,-162.5 224.4,-76.4 442.8,-167.5 655.9,-270.6 604.7,-292.6 1208.7,-586.6 1819.7,-866 105.7,-48.4 208.9,-102.5 315.2,-149.4 56.5,-24.9 116.7,-42.6 176.6,-58.2 28,-7.3 60.2,-6.6 89.1,-1.5 79.7,14.3 129.2,75.7 131.4,156.6 1.2,47.5 -10.9,92.4 -35.3,132 -34.7,56.2 -70.9,111.9 -111.5,163.9 -107.7,137.8 -228.1,264.5 -357.8,381.4 -135.5,122.1 -271.1,245 -414.7,357.3 -377.9,295.5 -767.4,575.1 -1190.7,803.4 -146.4,78.9 -297.9,148.3 -447.1,222 -19.6,9.7 -39.5,18.8 -56.1,37.9 18.8,-6.2 37.8,-11.9 56.4,-18.5 563.8,-200.1 1084.7,-480.2 1561.6,-841.4 254.5,-192.6 496.3,-400.7 734.8,-612.6 436.4,-387.6 870.6,-777.8 1308.6,-1163.6 255.9,-225.4 516.9,-444.9 776.7,-665.8 61,-51.9 124.8,-100.9 190.4,-147 32.2,-22.6 69.7,-41.5 107.6,-51.6 104.7,-27.8 191.8,42.8 184.8,150.6 -2.6,40.8 -15.2,83.4 -33.3,120.4 -30.6,62.8 -65.7,124.2 -105,182.1 -429.8,633.2 -889.4,1242.6 -1424.4,1792.7 -401.6,412.9 -813.5,814.8 -1242.6,1199 -97.1,86.9 -198.5,169.1 -297.4,254 -33.1,28.5 -64.7,58.8 -102,92.9 28.4,9.4 46.1,-1 62.8,-7.8 144.8,-58.9 292.3,-112.4 433.3,-179.3 638.7,-303.2 1237.4,-670.7 1782.5,-1122.9 142,-117.8 284.3,-235.3 426.3,-353.2 191.8,-159.2 366.7,-336 537.5,-517 297.4,-315.1 593.4,-631.4 891.2,-946.2 64.7,-68.4 132.3,-134.4 202.4,-197.2 35.3,-31.7 76.7,-59.5 119.9,-79 131,-59.5 249.9,10.5 266.7,153.4 8.1,68.8 -2.4,136 -20.3,202.3 -30,111 -74.6,216.6 -132,315.6 -67.4,116.1 -137.1,231.2 -212.7,342.1 -284.2,417.1 -628,780.6 -1007.6,1111.6 -440.4,384 -897.3,746.7 -1375.3,1082.7 -187.1,131.5 -373.7,263.6 -560.5,395.6 -17.4,12.3 -34.2,25.6 -51.2,38.5 1.3,2.4 2.6,4.9 3.9,7.3 33.8,-10.5 67.4,-21.5 101.3,-31.5 278.8,-82.4 558.6,-161.8 836.4,-247.3 655.3,-201.7 1287,-461.1 1894,-780.5 259.1,-136.4 517.7,-273.5 766.5,-428.6 570.9,-355.6 1075.3,-790.3 1532.9,-1281.4 333.3,-357.7 635.2,-739.6 887.4,-1159 165.3,-274.9 319.6,-556.2 457,-846.6 45.3,-95.6 73.5,-194.1 90.7,-297.6 53.9,-324.8 90.7,-651.6 119.2,-979.4 29.3,-337.6 56,-675.6 78.5,-1013.8 14.6,-220.1 19,-440.8 29.3,-661.2 12.1,-258.5 22.6,-517 39.6,-775.2 11.9,-182.1 34.6,-363.7 83.5,-540.2 18.6,-67.3 43.3,-133.8 73.4,-196.7 48.5,-101.4 128.4,-173.6 232.6,-216.4 44.4,-18.3 90.6,-32.5 136.4,-47 38.2,-12 77.2,-21.8 115.9,-32.3 172.7,-47.2 297.2,-152.7 378,-311.6 68.6,-135.1 112.8,-278.6 146.5,-425.6 56.8,-246.9 87.2,-497.9 105,-750.1 36.6,-519.2 29.9,-1038.5 -13.2,-1557.1 -58.8,-706.8 -208.7,-1395.4 -423.1,-2070.5 -102.6,-323 -208,-645.1 -310.8,-968.1 -20,-62.9 -36.7,-127.2 -49.5,-192 -7.6,-38.8 -9.3,-80.1 -5.2,-119.5 10.3,-99.4 83.4,-162.9 183.4,-162 29.8,0.2 59.6,6.4 89.3,10.8 45.6,6.7 90.9,15.9 136.7,20.7 25.2,2.7 51.2,-1.4 71,-2.2 29.5,-25.3 36.4,-53.5 34.3,-81.3 -3.3,-41.6 -8.4,-83.9 -19.9,-123.8 -24.2,-83.7 -69.4,-157.5 -117.5,-229.4 -114.3,-171.1 -250.2,-323.6 -401.1,-462.9 -76.6,-70.7 -156.5,-137.9 -234.3,-207.3 -112.2,-100.1 -223.9,-200.8 -335.8,-301.2 -14.8,-13.2 -29.7,-26.3 -42.6,-37.6 -183.9,65.5 -349.4,159.1 -507,265.8 z m -150.1,-440.3 c -339.2,-431 -706.9,-835.8 -1102.3,-1216.2 -861.6,-829.2 -1783.2,-1585.9 -2750.8,-2287.3 -199.7,-144.7 -405.8,-280.5 -609.2,-420.1 -22.7,-15.6 -46.7,-29.3 -74.7,-46.8 -32,73.4 -64.1,140 -90.7,208.7 -152.2,393.5 -369.6,745.6 -652.5,1059.3 -403.7,447.8 -862.1,826.3 -1388.6,1121.5 -186,104.2 -378.1,194.1 -583.3,254 -13.5,3.9 -26.8,8.5 -39.9,13.5 -3.4,1.3 -5.8,5.2 -15.2,13.9 99.1,34.5 194.2,65.9 288,100.7 440.1,163.4 891.4,292.9 1335.4,444.3 467.3,159.4 922.9,348.6 1370.9,555.7 196.7,91 386.8,194.9 569.9,311.2 18.1,11.5 39.4,18.9 60.1,25.1 63.2,19.1 128,33.6 190.3,55.3 376.4,131.2 728.2,315 1076.9,505.5 213.4,116.6 417,248.2 608.6,398 37.7,29.5 74.3,60.4 115.5,94 539.1,-440.7 1139.7,-780.3 1765.4,-1090.9 -26.6,-36 -49.3,-68.4 -73.8,-99.4 z m -2733.4,1306.2 c 57.2,148.8 81.9,305.4 101.1,462.5 13.1,107.1 18.1,215.3 27,323 1.4,17.1 4.1,34.2 6.3,52.3 8.6,-2.9 13.7,-2.9 15.7,-5.5 197.8,-251.8 402.2,-497.8 638.6,-720 -14.5,-11.2 -23.5,-18.7 -33.1,-25.4 -98.8,-68.3 -198.8,-135 -296.3,-205.1 -239.3,-171.8 -482.8,-337 -741.8,-478.1 -16.9,-9.2 -34.3,-17.2 -51.4,-25.8 -1.9,2.1 -3.7,4.2 -5.5,6.3 8.2,12.4 15.7,25.3 24.6,37.1 133.4,177.5 235.4,372.1 314.8,578.7 z M 12769.9,8404.3 c -131.4,-34.9 -266.4,-59.9 -401.2,-77.8 -238.7,-31.5 -476,-15.1 -711.2,38.5 -153.2,34.8 -302.6,78.5 -444.6,146.6 -39.6,19.1 -80.7,36 -122.6,49.6 -48.9,16 -96,15.4 -124.6,-35.4 -244.5,-73.9 -468.3,-185.4 -677.4,-325.9 -128.1,-86.1 -253.8,-176.1 -377.17,-268.8 -148.25,-111.3 -277.59,-243 -392.1,-388.8 -109,-138.8 -215.95,-279.3 -325.75,-417.5 -40.9,-51.5 -87.33,-98.5 -133.14,-149.8 -26.56,19.9 -25.71,46 -31.4,67.2 -41.19,153.4 -94.46,302.4 -164.9,444.9 -32.79,66.3 -71.56,129.5 -88.7,203.2 -10.28,44.3 -41.08,77.3 -80.62,101 -11.97,7.2 -26.04,13.3 -34.36,23.7 -52.35,65.7 -103.36,132.4 -158.42,203.4 138.19,196.4 295.97,371.6 460.63,541.7 165.5,170.9 355.3,311.1 555.08,450.7 9.19,-11.2 20.14,-25.4 32.05,-38.7 158.95,-178.2 344.4,-324.1 548.9,-446.1 114.4,-68.3 238.3,-114.4 367.6,-145.6 21.2,-5.1 43.7,-7.6 65.5,-6.8 61.2,2.3 99.9,37.8 122,91.9 19.3,47.3 2.5,90.2 -43.8,132.7 -66.3,61 -135.1,120.1 -195.9,186.3 -228.1,248.2 -406.9,526.7 -502.54,853 -45.93,156.6 -78.12,316.2 -56.06,480.6 25.67,191.2 102.01,357.1 253.1,484 88.4,74.3 190.6,117.8 302.1,141 178.5,37.2 357.7,71.7 536.2,109.2 168.3,35.5 326.5,96.8 470.5,192.3 11.7,7.8 24,14.7 35.2,23.2 90.1,68.7 85.2,179.5 -10.4,239.4 -13.5,8.5 -27.4,16.2 -40.9,24.5 -1.4,0.9 -1.4,3.7 -3,8.2 9.8,8 20.1,17.1 31,25.2 120.9,90.4 204.1,208.9 256.2,349.3 14.5,39.1 23,80.9 30.1,122.2 7.3,42.4 -0.2,84.4 -20.5,122.7 -50.8,95.5 -176.1,103 -238.7,14.7 -4.6,-6.5 -8.9,-13.4 -12.4,-20.6 -69.4,-143 -190.6,-209.9 -341.5,-235.4 -76.1,-12.9 -152,-11.8 -228,-5 -189,16.7 -371.9,-11.3 -550.8,-71.7 -85.6,-28.9 -171.4,-56.4 -263.4,-57.1 -105.45,-0.8 -202.33,23.8 -287.66,88.4 -22.27,16.9 -45.78,33.3 -71.03,44.8 -61.48,28.2 -122.05,25.1 -174.55,-20.4 -50.22,-43.5 -67.97,-101.8 -46.5,-163.6 26.77,-77.1 52.86,-154.7 103.43,-222.2 116.89,-155.9 256.88,-286.1 420.01,-391.9 8.4,-5.5 16.9,-10.8 25.1,-16.6 3.2,-2.2 5.7,-5.5 12,-11.8 -9.7,-8.7 -18.3,-18.5 -28.8,-25.6 -336.18,-228.7 -459.84,-556.9 -426.62,-947.9 24.31,-286 134.53,-547.5 275.05,-796 10.34,-18.3 19.87,-37 22.09,-61.3 -11.57,9.3 -24.44,17.3 -34.48,28 -50.83,54 -102.98,107 -150.93,163.5 -274.18,323.3 -479.08,686.8 -621.65,1085.4 -64.38,180 -100.17,367.4 -134.92,554.8 -34.38,185.3 -66.44,371.1 -103.54,555.9 -42.37,211 -110.29,414.9 -190.63,614 -98.27,243.6 -202.38,484.8 -304.38,726.8 -59.96,142.3 -118.9,285 -181.53,426.1 -140.75,317.1 -281.68,634.1 -425.94,949.5 -161.6,353.4 -291.3,717 -363.34,1099.6 -44.25,235 -71.65,471.6 -65.49,711.6 5.4,210.6 4.49,421.3 -19.58,631.1 -2.48,21.6 0.38,44 1.94,66 11.8,166 -49,302 -171.2,412 -31.27,28.1 -64.96,53.6 -97.92,79.8 -233.36,185.6 -382.16,423.9 -446.18,715.1 -0.83,3.8 -0.1,7.9 -0.1,18.7 43.05,48.4 87.96,102.2 136.41,152.6 112.82,117.4 217.4,241.3 311.09,374.6 35.72,50.8 75.52,98.7 113.53,148 59.79,77.4 135.8,130.4 232.61,149.4 68.77,13.4 137.8,28 207.42,34.2 319.61,28.3 639.63,52 959.13,81.4 90.78,8.4 166.85,-15 232.69,-74.1 59.65,-53.5 121.82,-105.6 173.72,-166.1 162.23,-189.3 344.77,-358.5 519.1,-535.8 9.71,-9.8 22.48,-16.7 33.17,-24.5 -32.48,-116.1 -52.04,-228.1 -100.95,-329 -226.32,-466.5 -407.5,-950.7 -573.56,-1441 -114.63,-338.5 -213.6,-681.3 -280.44,-1032.6 -38.98,-204.9 -72.68,-410.9 -85.78,-619.4 -4.28,-68 -3.25,-136.3 -4.94,-204.4 -0.8,-32.1 1.16,-64.6 -4.09,-96 -16.82,-100.4 -0.52,-195.7 39.87,-287.7 63.5,-144.7 160.45,-263.1 285.75,-358.3 157.64,-119.9 334.07,-197.1 529.23,-232.3 196.98,-35.6 393.91,-45.5 592.31,-11.2 103.78,17.9 201.18,54.8 297.08,95.2 91,38.3 115.6,139.4 58.9,221.3 -29.6,42.7 -72.8,67.8 -118,90.6 -100.3,50.4 -200.48,101.2 -300.38,152.5 -18.88,9.7 -36.22,22.4 -60.21,37.4 49.5,25.4 93.32,22 135.58,13.4 41.04,-8.3 82.18,-20 120.61,-36.5 88.4,-37.9 175.8,-78.4 262.5,-119.9 114.5,-54.7 231.1,-102.3 357.5,-121.6 128,-19.5 256.4,-22.5 382.8,7.2 168.8,39.8 307.6,123.3 391.2,283.3 100.7,192.8 72.3,401.6 -84.7,551.8 -148.7,142.4 -330,201.2 -534.7,185 -90.3,-7.1 -165.2,-46.5 -220.2,-120.1 -38.9,-52.1 -52.4,-108.8 -22.7,-169.2 29.5,-60.2 82.7,-87.6 147.2,-86.3 39.4,0.8 79.8,9.1 117.6,20.9 116.5,36 281.4,-33.1 333.1,-142.5 17.1,-36.2 19.1,-73.5 7.3,-111.4 -20.3,-64.4 -60.8,-112 -120.1,-144 -63.4,-34.2 -132,-46.9 -203,-48.4 -115.8,-2.6 -227.9,17.5 -334,64.6 -65.9,29.2 -129.4,64 -195,94 -91.1,41.7 -181.1,86.7 -275.1,120.5 -137.64,49.5 -276.83,44.1 -409.67,-20 -40.76,-19.6 -80.1,-47.1 -112.21,-78.9 -81.64,-81 -91.51,-191.7 -24.27,-284.8 31.22,-43.2 73.95,-78.2 112.26,-116.2 13.62,-13.5 29.61,-24.5 50.72,-41.8 -23.73,-5.3 -38.52,-10.4 -53.65,-11.8 -157.18,-14.6 -312.94,-8.9 -463.9,42 -122.92,41.4 -218.5,116.7 -274.36,236.7 -60.82,130.6 -94.29,267.9 -98.59,412.2 -8.79,294.5 25.8,584.6 96.76,869.9 83.2,334.3 169.57,668 259.68,1000.6 31.35,115.7 77.77,227.4 117.67,340.8 14.63,41.5 32.58,82.1 45.16,124.2 70.01,234.7 162,461.2 253.34,687.9 20.92,52 42.23,105.1 72.56,151.6 53.2,81.7 85.24,171.9 120.5,261.2 10.78,27.3 14.91,54.1 8.52,82.2 -18.22,80 -35.01,160.4 -56.58,239.5 -15.22,55.8 -34.13,111.1 -57.03,164.2 -43.27,100.4 -113.91,183.7 -177.68,271.1 -93.35,127.9 -186.27,256.2 -279.68,384.1 -43.75,59.9 -86.84,120.4 -132.7,178.6 -59.85,76 -137.59,118.4 -235.83,128.3 -259.64,26.1 -519.71,43.6 -780.65,44.5 -188.55,0.6 -377.12,-1.9 -565.67,-4.4 -106.46,-1.4 -212.08,-12 -316.5,-34.3 -120.37,-25.8 -219.31,-85.4 -297.22,-180.7 -77.66,-95.1 -144.77,-197.2 -206.27,-303.2 -9.62,-16.5 -20.57,-32.4 -38.39,-60.3 -2.06,20.9 -3.54,27.8 -3.31,34.7 9.16,271 -5.26,541.5 -20.94,811.8 -30.46,524.9 -51.39,1050 -42.51,1575.8 9.06,536.8 81.97,1063.5 263.32,1571.3 43.08,120.6 93.54,239.1 148.61,354.7 115.22,242 287.27,438.1 500.18,599.6 140.89,106.9 288.18,203.9 442.52,290 212.86,118.8 406.68,264.5 595.02,418 84.15,68.6 165.99,139.7 212.48,241.8 4.92,10.8 12.62,20.3 19.23,30.3 0.97,1.5 3.04,2.2 5.58,4 4.78,-2.2 11.02,-3.5 15.33,-7.1 175.27,-147.3 381.34,-234.9 595.52,-306.4 206.19,-68.9 418.99,-108.9 633.39,-140.7 319.76,-47.5 641.66,-71.5 964.46,-86.4 224.4,-10.3 448.8,-19.4 673.1,-32.6 455.1,-26.8 885.4,-149.3 1289.7,-356.6 628.3,-322.2 1189.3,-736.2 1670.9,-1254.5 226.9,-244.2 438.4,-501.1 634.5,-770.8 355.2,-488.6 694.4,-987.8 1013,-1501 158.7,-255.6 320.8,-509.2 485.2,-761.1 86.5,-132.7 177,-263.1 273.1,-388.9 227.8,-298.1 456.9,-595.1 706.7,-875.4 53.3,-59.8 108.5,-117.9 165.2,-179.4 -5.2,-13.5 -9.9,-28.5 -16.4,-42.6 -172.7,-372 -406,-699.9 -708.3,-978.2 -156.4,-143.9 -310.3,-290.6 -482.4,-416.6 -54.9,-40.1 -103.5,-88.7 -154.9,-133.5 -46.2,-40.4 -57.1,-91.1 -38.6,-147.4 9.4,-28.3 23.5,-55.5 38.5,-81.4 78.6,-135.4 189.1,-237.8 326.8,-311.3 108.5,-57.8 223.2,-99.8 341.4,-132.6 22.9,-6.3 45.7,-12.9 76.9,-21.7 -15.6,-14 -24.1,-23.5 -34.4,-30.4 -36.7,-24.4 -73.1,-49.6 -111.4,-71.5 -62.5,-35.6 -93.1,-89.5 -86.7,-159.2 6.5,-71.6 15.8,-143.8 33.2,-213.3 50.8,-202.7 125.1,-397.9 204.2,-590.9 159.5,-389.8 321.6,-778.6 511.5,-1154.9 220.6,-437.5 461.8,-862.9 746.3,-1262.7 7,-9.8 13.3,-20 24.9,-37.6 -8,-129.3 -15.9,-265.2 -25,-401.1 -10.8,-162.9 -45,-321.5 -89.6,-478 -29.8,-104.7 -76.5,-202.1 -127.4,-298.1 -192.1,-362.9 -462.2,-652.3 -808.2,-873 -234.1,-149.2 -479.1,-277.1 -733.5,-387.1 -607.6,-262.8 -1223.8,-503.1 -1853.1,-710.1 -278,-91.4 -550.5,-199.3 -827.2,-294.7 -417.2,-143.7 -839.1,-272.7 -1265.5,-385.7 z m -4945.5,5049.4 c -13.08,13.7 -27.05,26.7 -39.1,41.2 -218.97,264.5 -454.71,513.5 -694.76,758.7 -314.08,320.8 -571.57,682.1 -766.49,1086.9 -142.15,295.2 -228.66,607.1 -273.02,931.3 -48.94,357.7 -45.36,716.3 -16.51,1074.9 29.75,369.9 61.68,739.8 61,1111.2 -0.35,190.5 -9.41,380.9 -14.67,571.4 -0.6,22 -2.1,43.9 4.43,68.3 6.1,-18.7 13.05,-37.2 18.18,-56.3 56.48,-209.4 95.77,-422.2 127.6,-636.6 9.72,-65.4 17.97,-131.1 25.05,-196.8 2.09,-19.5 2.2,-41.1 -4.12,-59.2 -36.64,-104.9 -27.47,-210.3 -2.75,-314.6 35.31,-149.1 91.13,-290.8 168.34,-423.4 71.9,-123.6 168.56,-224 289.54,-300.4 42.37,-26.8 85.15,-53.2 129.46,-76.5 95.22,-50 164.02,-127.7 225.43,-212.8 12.2,-16.8 17.75,-40 21.57,-61.2 12.45,-69 23.99,-138.3 33.13,-207.9 3.59,-27.3 3.26,-56.1 -1.04,-83.3 -27.2,-172.5 -52.86,-344.9 -58.54,-519.8 -8.32,-256 16.1,-508.6 70.12,-758.8 71.06,-329.1 184.23,-643.7 327.95,-947.3 114.98,-242.8 235.3,-483.1 353.01,-724.7 9.31,-19.1 16.73,-39.1 25.03,-58.7 -2.95,-1.9 -5.9,-3.7 -8.84,-5.6 z m -1923.91,8033.7 c 24.05,285.2 92.3,561.3 163.9,836.9 75.71,291.4 170.33,576.5 289.01,853.4 167.54,390.9 431.41,706.6 762.92,967.4 256.29,201.6 538.35,362.9 830.22,506.7 135.29,66.7 282.32,102.5 425.66,147.6 7.3,2.2 15.52,1.6 32.65,3.2 13.84,-54.6 26.52,-104.7 39.75,-156.9 -12.14,-9.6 -22.07,-19 -33.42,-26.2 -252.26,-160 -505.42,-318.6 -756.73,-480 -106.21,-68.2 -210.3,-140.1 -312.4,-214.3 -305.85,-222.4 -528.12,-511.9 -679.21,-857.3 -136.51,-312 -227.93,-637.4 -287.31,-972.3 -56.19,-316.8 -80.38,-636.6 -81.71,-957.8 -1.19,-286.7 2.23,-573.5 9.49,-860.1 5.89,-232.5 20.59,-464.8 31.12,-697.1 0.99,-21.9 0.13,-43.9 0.13,-72.3 -7.62,9.8 -13.74,14.8 -16.26,21.2 -148.77,379.4 -276.48,765.3 -367.49,1163 -60.09,262.6 -72.91,527.1 -50.32,794.9 z M 26406.9,4500.4 c -32.8,19.3 -67.9,35.1 -99,56.7 -347.3,241.9 -695.1,483 -1040.6,727.4 -411.3,291.1 -809.3,599.6 -1178.3,943.3 -621.7,578.9 -1152.2,1233.2 -1599.2,1955.4 -291.5,471.1 -523.2,970.2 -700.6,1494.8 -6.8,20.2 -11.8,40.9 -20.6,71.9 39.1,-13.1 68.3,-23.8 98,-32.8 38.2,-11.6 76.4,-24.1 115.5,-32.1 30.7,-6.3 60.1,1.5 82,26.7 28.8,33.2 55.6,68.3 86.4,99.6 44.8,45.6 90.3,91 139.2,132.1 178.1,149.8 358.9,296.4 522.1,462.9 143.8,146.5 271.2,306.2 382.4,478.8 63.6,98.5 113,203.4 136.1,319.1 21.2,106.3 20.4,211.6 -19.7,313.9 -44.4,113.5 -133.2,174.6 -254.9,175.7 -28,0.3 -56,-3.3 -83.8,-6.5 -45.4,-5.3 -90.6,-11.8 -147.3,-19.3 10.2,32.8 15.8,54 23.3,74.4 28.4,77.2 56.8,154.4 86.4,231 237.9,614.4 442.2,1238.9 576.3,1885 67.7,326.2 124.1,654.1 154.1,986.2 26.9,298 37.2,596.6 39.6,895.6 3.1,407.7 -13.8,814.2 -79.9,1217.4 -34.4,210.3 -79.3,417.9 -155.6,617.6 -45.3,118.6 -102.1,231 -181,331.4 -97.9,124.6 -219.5,216.2 -370.2,267.6 -47.4,16.1 -96.2,28.2 -143.3,45.1 -62.2,22.2 -124.3,45 -184.7,71.7 -65.8,29 -109,81.2 -130.9,149.4 -14.7,45.7 -28.3,92.1 -37.7,139.2 -42.1,211.2 -56.4,425.3 -59.5,640.2 -2.5,180.5 -1.3,361 -0.3,541.6 2,361.2 -4.4,722.2 -34.4,1082.3 -28.3,339.8 -57.6,679.5 -89.9,1019 -25.1,263.6 -55.6,526.9 -109.5,786.3 -233.1,1122.2 -750.8,2087.4 -1590.2,2874.8 -492.9,462.3 -1051.5,834.8 -1620.4,1193.5 -11.9,7.5 -24.3,14.2 -36.4,21.3 -470.8,273.4 -959.9,508.6 -1462.8,717.5 -495.8,205.9 -1008.5,345.8 -1539.1,421.7 -266.7,38.1 -534.9,52.9 -804.1,31.1 -45.7,-3.7 -92.1,-11.1 -135.6,-25 -141,-45.2 -183.1,-175.4 -95,-295.3 29.4,-40 64.8,-77 102.6,-109.3 106.8,-91.1 212.7,-183.9 325.6,-267 213.2,-156.9 430.2,-308.7 647.2,-460.3 502.4,-351 981.4,-730.5 1423.9,-1155.3 265.6,-255 506.8,-531.2 714.7,-835.2 76.9,-112.4 148.1,-229.1 214.2,-348.1 40.6,-73.1 67.1,-154.1 98.6,-232.1 6.7,-16.5 7.6,-35.4 11.1,-53.3 -14.1,3.2 -19.9,8.4 -24.6,14.3 -123.8,157.8 -247.9,315.4 -371.1,473.6 -158,202.9 -324.6,398.5 -507.1,579.3 -426.2,422.3 -862.6,833.8 -1329,1211.9 -501.2,406.3 -1024,780.7 -1601.6,1073.3 -164.7,83.4 -329.7,166.3 -504.3,227 -79.1,27.5 -161.7,46.3 -244.1,62.2 -73.8,14.2 -143.4,-4.4 -204.4,-50.4 -28.2,-21.3 -52.6,-48.1 -54.6,-83.3 -4.2,-77.5 -14.5,-155.5 18.7,-231.1 37.4,-85.1 81,-166.1 144.4,-234.5 62.7,-67.6 125.5,-135.6 193,-198.2 235.3,-218.3 473.8,-433.1 708.8,-651.7 410.1,-381.5 802.9,-779.8 1154.9,-1216.6 12.5,-15.6 28.6,-29.4 38.6,-61.6 -17.5,15.2 -25.1,21.6 -32.5,28.2 -236.1,211.5 -470.5,424.8 -708.6,633.9 -386.3,339.3 -791.2,654.6 -1221.7,936.3 -220.1,144 -446.5,277 -681.9,394.4 -294,146.6 -599.8,259.6 -925.2,312.9 -140.6,23 -282.5,42.5 -425,18.3 -104.5,-17.7 -208,-41.5 -312,-62.8 -7.7,-1.6 -15.1,-5.2 -22.5,-8.3 -108.4,-45.3 -127.9,-158.8 -38.4,-235.5 30.2,-25.8 65.5,-46.4 100.6,-65.4 146.5,-79.4 298.6,-146.9 454.1,-206.9 368.3,-142.3 717.1,-322.6 1040.4,-549.2 231.5,-162.3 459.9,-329.4 683.6,-502.2 136.2,-105.3 260.8,-225.5 390.3,-339.4 14.4,-12.6 26.6,-27.8 42.9,-45.2 -9.5,0.5 -13.7,-0.6 -16,1 -21.6,14.6 -43.2,29.2 -64.2,44.7 -361.4,267.8 -739.4,510.2 -1130.3,732.6 -251.2,142.9 -507.1,275.4 -778.2,378.1 -504.7,191.2 -1021.3,270.6 -1558.7,184.9 -251.5,-40.1 -493.2,-109.4 -717.9,-230.6 -84.53,-45.6 -163.73,-101 -246.13,-150.6 -39.37,-23.7 -79.35,-47.1 -121.1,-66.1 -165.14,-75.4 -320.08,-167.4 -459.69,-283.4 -243.94,-202.7 -449.32,-435.2 -557.23,-737.9 -23.55,-21.8 -46.18,-41.2 -67.11,-62.4 -20.38,-20.6 -39.03,-43 -56.53,-62.4 -113.97,-25.1 -228.74,-45.3 -340.64,-75.9 -261.05,-71.6 -502.56,-189.7 -734.57,-326.7 -219.9,-129.8 -426.33,-278.6 -610.02,-457.4 -326.44,-317.7 -562.63,-694.3 -717.34,-1120.5 -187.97,-517.9 -314,-1052.6 -406.27,-1595.2 -28.27,-166.2 -40.43,-334.4 -34.93,-503.5 6.59,-202.2 46.33,-398.4 110.31,-589.4 64.96,-193.9 136.3,-385.6 203.48,-578.8 10.36,-29.7 18.02,-61.9 19.08,-93.3 9.42,-278.6 17.86,-557.3 25.08,-836 12.9,-498 -8.78,-994.6 -57.78,-1490.2 -32.22,-325.8 -41.7,-652.2 -19.67,-979.5 33.75,-501.6 179.05,-967.5 434.14,-1400.3 175.74,-298.2 373.79,-579.6 608.73,-834.5 250.09,-271.5 496.49,-546.3 748.61,-815.8 173.03,-185 329.59,-382.9 483.97,-583 32.2,-41.7 57.23,-86.5 75.46,-136 83.86,-227.6 168.98,-454.8 253.11,-682.4 64.11,-173.4 119.09,-349.8 145.93,-532.9 30.81,-210.3 54.34,-421.6 81.19,-632.5 24.61,-193.2 56.48,-385 117.57,-570.7 124.41,-378.1 315.13,-719 574.88,-1020.9 11.4,-13.3 21.52,-27.6 32.01,-41.2 -73.76,-55.3 -143.78,-108.5 -214.5,-160.8 -239.84,-177.2 -454.5,-381.6 -651.32,-605 -46.31,-52.5 -89.04,-108.6 -129.3,-166 -27.47,-39.1 -50.25,-82.1 -70.76,-125.4 -39.64,-83.8 -36.17,-167 12,-247.4 12.1,-20.2 22.93,-41.2 35.36,-63.6 -10.59,-7.9 -18.22,-13.9 -26.21,-19.4 -85.87,-59.2 -173.52,-115.9 -257.41,-177.7 C 7693.68,7367 7337.55,7083.1 7000.17,6776.9 6609.56,6422.3 6223.47,6062.7 5835.86,5704.8 5521.94,5415 5208.64,5124.5 4895.23,4834 c -16.15,-14.9 -32.33,-30.3 -45.8,-47.6 -42.63,-54.7 -42.8,-124 -1.96,-171.8 42.87,-50.2 112.42,-59.5 174.89,-22.1 17.09,10.2 32.5,23.4 48.14,35.9 65.81,52.6 129.75,107.7 197.37,157.8 283.58,210.3 566.07,422.1 852.9,627.9 815.2,584.8 1660.53,1124.8 2498.81,1675.3 32.96,21.7 68.81,38.9 107.72,60.7 8.38,-24.8 14.98,-43.3 20.87,-62 20.49,-65 39.15,-130.7 61.58,-195 17.13,-49.1 35.07,-98.7 59.39,-144.4 60.59,-114 171.98,-126 261.77,-34 173.76,178.1 340.76,362.2 500.13,553.4 136.78,164.1 292.66,308.3 464.46,435.1 98.5,72.6 197.3,144.8 297.6,214.8 156.7,109.3 322,203.6 498.2,278.2 74.3,31.5 151.1,53.3 230.3,67.9 30.8,5.6 57.8,1.7 86.5,-13.1 206.2,-106.1 427.1,-161.1 657.2,-179.5 354.7,-28.4 700.5,21.3 1038.9,126.6 231.6,72.1 462.5,146.7 693.3,221.4 33.9,11 65,14.2 99,1 46.7,-18.2 95.1,-31.7 142,-49.4 408.8,-154.5 780.2,-374.5 1122.1,-645.2 329.5,-260.9 628.9,-554.1 915.7,-860.5 46.5,-49.8 91,-101.6 134.8,-153.9 214.2,-255.6 389.4,-534.5 502.3,-850.2 16.9,-47.1 37.8,-92.9 59.4,-138.1 25.3,-52.5 66.1,-84.7 127.1,-86.3 11.9,-0.3 25.9,0.9 35.2,-4.7 33.6,-20.6 65.3,-9.8 98.3,0.3 100.6,30.7 192,81 281.5,134.7 187.4,112.5 374,226.4 561.3,339.1 1248.5,751.1 2417.8,1607.7 3479.8,2607.7 43.8,41.2 88.9,81.1 133.7,121.2 9.6,8.5 20.8,15.1 35.3,25.6 8.7,-26.3 16,-46.8 22.4,-67.6 88.4,-286.3 202.5,-562.1 338,-829.1 452.8,-892 1102.3,-1613.4 1918.5,-2184 564.8,-394.9 1161.8,-736.8 1796.7,-1008.4 289.3,-123.7 581.4,-241.1 872.4,-361.1 27.8,-11.4 56.3,-21.6 85.2,-29.5 48.4,-13.3 80.3,-2.9 94.7,27.8 15.3,33 -0.2,64.6 -46,91.5"
         style="fill:#231f20;fill-opacity:1;fill-rule:nonzero;stroke:none"
         id="path78" /><path
         d="m 14933.2,11573.1 c 9.1,-73.8 22.1,-146.6 59.8,-212.7 24.6,-43 57.5,-77 101.4,-99.9 84,-43.9 173.4,-14.9 210.3,71.9 14.6,34.4 20.1,73.1 26.9,110.4 6.9,37.3 8,75.8 15.6,113 36.2,176.8 71.6,353.7 111.3,529.7 106.7,473.4 233.5,941.8 362.4,1409.5 116.2,421.6 253.9,836.4 395,1250.1 70,204.9 136.8,411 180.5,623.5 8.3,40.7 11.5,83.7 8.6,125 -4,54.9 -38.2,92.7 -89.8,109.9 -37.9,12.6 -77.5,21.3 -117,27.2 -77.8,11.6 -137.3,-17.4 -175,-87.7 -8.6,-15.9 -16.8,-32 -24.9,-48.1 -96.7,-193.6 -190.6,-388.7 -290.7,-580.6 -213.7,-409.7 -396.7,-831.9 -539.8,-1271.7 -164.4,-505 -271.3,-1018.8 -257.5,-1503.1 -2.5,-222.5 1.8,-394.8 22.9,-566.4"
         style="fill:#231f20;fill-opacity:1;fill-rule:nonzero;stroke:none"
         id="path80" /><path
         d="m 12175.7,19488.1 c 157.1,75.6 313.1,153.6 470.3,228.9 133,63.8 272.1,107.4 420.8,114.2 262.1,11.9 521,-12.7 775.2,-76.5 240.8,-60.5 482.6,-118.4 715,-207.9 34,-13 67.5,-12.8 94.8,15.4 26.8,27.8 28.4,62.3 14.8,95.3 -9.8,23.6 -25.1,46 -42.2,65 -32.2,35.7 -65.1,71.4 -101.9,102.1 -153.7,128.5 -308.2,256.3 -464.3,382 -51.4,41.3 -108.6,75.3 -163.3,112.6 -69,47 -145.3,75.5 -226.8,92.1 -118.5,24.2 -238.6,30.5 -358.8,32.1 -259.5,3.4 -516.6,-24.5 -771.5,-69.9 -379.2,-67.4 -728.4,-205.1 -1025.4,-457.6 -114.5,-97.3 -227.7,-196.3 -339.8,-296.5 -58.1,-52 -112.9,-107.9 -168.2,-163 -26.1,-26 -44,-57.1 -44.9,-95.6 -4.3,-100.5 100.3,-168.1 189.8,-123.1 12.4,6.3 25.6,12.2 39.1,14.6 74.8,13.5 149.6,27.8 224.9,38.3 111.1,15.6 223.7,22.3 333.6,43.5 150.1,28.9 291.3,87.8 428.8,154"
         style="fill:#231f20;fill-opacity:1;fill-rule:nonzero;stroke:none"
         id="path82" /><path
         d="m 11315.3,12317.3 c -84.1,4.8 -168,10.5 -252,-4.4 -86.3,-15.3 -165.5,-47 -238,-95.9 -30,-20.1 -59.5,-41 -89.3,-61.3 -21.5,-14.7 -43.7,-28.5 -64.8,-43.8 -108.9,-78.6 -229.1,-98.9 -359.9,-75.1 -91.1,16.5 -181.1,36.6 -266.1,73.2 -79.59,34.2 -157.43,40.4 -238.91,6.3 -55.35,-23.2 -113.16,-40.6 -169.94,-60.3 -95.25,-33.2 -188.79,-15 -282.26,4.4 -2.23,5.2 -4.45,10.5 -6.68,15.8 106.13,97.2 210.03,197.1 319.19,290.8 70.41,60.5 156.8,95.8 243.15,129.6 51.2,20 96.35,17.3 142.05,-14.2 36.2,-24.9 75.2,-46.1 113.3,-68.2 69.4,-40.3 139,-36.4 204.7,6.4 31.5,20.5 59.9,46.9 86,74.2 29.1,30.3 54.7,64.1 80.6,97.3 27.8,35.6 62.7,61.8 102.3,82.3 56.4,29.2 115.4,36.3 173.8,9.2 45.3,-20.9 90.2,-44.1 131.4,-72.1 131.1,-88.9 260.4,-180.4 390.3,-271 7.6,-5.3 14.7,-11.4 30,-23.3 -23.1,0 -36.1,-0.6 -48.9,0.1 z m 680,-150.8 c 72.3,18.7 131.7,58.7 182.1,111.9 17.4,18.4 32.4,41.5 41.4,65.2 23.4,62.1 -10.3,124.4 -75,139.4 -22.7,5.2 -48.3,5.2 -71.2,0.6 -69.6,-14.1 -133.9,-41.4 -187.6,-89.8 -13.2,-11.9 -27.1,-23 -40,-33.9 -91.5,42.9 -180.1,84.9 -269.1,126 -63.6,29.5 -130.6,52.9 -190.9,88 -88.2,51.2 -174.1,107.2 -256.6,167.2 -102.9,74.8 -206.5,145.7 -335,168.7 -3.4,0.7 -6.3,4.5 -9.4,6.9 15.2,69.2 16.5,69.8 -17.6,136.7 -38.2,74.9 -78,149.1 -119.1,222.5 -29.5,52.7 -65.2,100.6 -115.8,136.2 -21.8,15.4 -41.3,32.9 -70.2,22 -30.2,-11.3 -41.2,-36.3 -43.9,-66 -2.2,-23.9 -1.4,-48.2 -5,-71.8 -21.2,-136.6 -43,-273.2 -65.4,-409.6 -7.1,-43.5 -15.4,-86.9 -25.9,-129.7 -10.3,-42.2 -46.7,-61.5 -87.6,-47.9 -60.6,20.2 -105.9,57.8 -123.5,121 -12.9,46.3 -23.1,93.4 -32.1,140.6 -8.9,46.3 -20.8,90.1 -61.3,112.5 -17.74,58 -11.2,122.6 -74.56,150.3 -41.63,-27.1 -43.97,-31.8 -52.01,-78.3 -11.25,-65.1 -22.84,-130.2 -35.45,-195 -10.69,-55 -22.96,-109.6 -34.69,-164.4 -3.33,-15.5 -2.34,-35.3 -11.63,-45.7 -41.1,-46 -74.63,-100.7 -130.88,-130.8 -188.43,-100.8 -336.77,-243.6 -450.57,-423.6 -7.08,-11.2 -15.56,-21.5 -23.39,-32.2 -7.98,25.4 -5.29,47.9 -2.52,70.4 5.68,45.9 -8.89,76.9 -42.25,89.6 -34.39,13.1 -71.74,-3.1 -96.1,-42 -3.18,-5.1 -5.81,-10.6 -8.4,-16 -47.26,-99 -22.08,-213.2 63.02,-282.8 40.94,-33.5 87.15,-58.9 138.94,-68.7 193.94,-36.9 386.35,-46.1 571.53,41.7 17.79,8.4 37.14,13.6 54.29,19.7 18,-8.1 32.99,-13.8 46.99,-21.3 88.88,-47.7 183.48,-80.7 280.18,-107.5 214,-59.3 416.9,-40.1 602.5,90.9 37.7,26.5 76.2,52.2 111.7,81.4 78.4,64.3 167.6,93.1 268,86.3 79.9,-5.5 159.8,-12.6 239.5,-20.5 165.7,-16.5 328.4,-10.6 484.3,56.7 25.6,11.1 53.1,18.1 80.2,25.1"
         style="fill:#231f20;fill-opacity:1;fill-rule:nonzero;stroke:none"
         id="path84" /><path
         d="m 13102.7,18472 c -3.9,-89.4 -30.8,-172 -81,-248 -63.9,-96.8 -152.9,-151.5 -264.7,-170.5 -93.3,-15.8 -187.5,-19.2 -281.5,-6.1 -171.6,23.7 -283.4,124.5 -344.8,281.2 -49,125.3 -58.3,257.3 -43.6,390.8 3.3,29.5 8.3,58.9 12.2,86.4 78.6,25.4 260.1,36 329.8,19.6 -33.3,-32.5 -65.5,-64.5 -98.3,-95.9 -103,-98.7 -109.6,-252.2 -11.4,-355.7 74.3,-78.4 168.2,-116.4 276.5,-105.8 112.6,11 179.4,83.6 217.2,183.4 40.3,106.5 36,212.2 -25.3,312.5 43.3,6 156.5,-20.4 250.4,-56.9 17.8,-40.3 39.1,-77.2 50.3,-117 10.6,-37.8 15.9,-78.8 14.2,-118 z m 969.1,-121.4 c 15.2,24.2 15.6,51.2 -0.9,73.7 -16.3,22.4 -35,45.3 -57.9,60 -67.2,43.3 -135.4,85.6 -206.2,122.6 -62,32.5 -128.8,55.7 -192,86.1 -246.8,118.5 -507,198.7 -768.4,277.5 -338.4,102 -672.5,86.8 -1006.2,-17.9 -8.6,-2.7 -17.9,-3.6 -33.6,-6.7 19.4,37.7 45.9,58.7 69.5,82.9 30.5,31.2 58.4,65.5 83.8,101 14.1,19.7 17,44.6 4.6,68.7 -17,33 -56,47.6 -92.9,24.6 -36.7,-22.9 -70,-53.1 -99.6,-85 -35.3,-38.1 -66.9,-80 -96.7,-122.7 -42.4,-60.7 -83.4,-122.5 -121.7,-185.8 -69,-113.7 -73.9,-235.7 -35.3,-359.6 28.3,-91 70.1,-176.1 152.1,-232.1 25.8,-17.5 56.6,-30.8 87,-37.8 32.8,-7.7 64,4.8 84.3,34 21.2,30.4 14.9,61.4 -4.2,89.9 -15.7,23.3 -34,44.7 -50.7,67.3 -38.5,52.1 -67,109 -84.1,171.8 -7.8,28.8 -5.3,55.3 8.2,81.5 28.6,55.4 110.3,105.9 184.7,111.4 -2.5,-12.3 -4.3,-23.6 -7.1,-34.6 -19.7,-76.8 -23.5,-154.8 -12.7,-232.9 30.8,-222.8 129.3,-407.3 314.3,-540.3 86.5,-62.1 183.8,-102.1 290.5,-103.8 101.9,-1.8 205.1,0.6 305.8,14.9 205.9,29.4 352.5,143.1 439.4,333.6 45.9,100.8 66.1,205.5 61.8,315.7 -1.5,37.8 -0.2,75.7 -0.2,122.8 20.7,-5 32.2,-6.8 43.1,-10.6 136.6,-47.6 268.6,-105.1 395,-176.1 66.3,-37.2 135.6,-69.2 204.5,-101.5 23.3,-10.9 49.1,-18.3 74.5,-22.7 27.4,-4.7 52,5.6 67.3,30.1"
         style="fill:#231f20;fill-opacity:1;fill-rule:nonzero;stroke:none"
         id="path86" /><path
         d="m 13501.4,9873.1 c -49.9,16.8 -85.6,-9.2 -115,-44.7 -23,-27.7 -43.4,-57.7 -63.3,-87.7 -132.6,-199.2 -280,-386.7 -452,-553.2 -127.6,-123.7 -278.6,-206.9 -455.8,-240.9 -105.3,-20.2 -210.9,-23 -317.2,-22.7 -165.3,0.5 -321.1,41.9 -471.5,107.4 -114.2,49.8 -207.9,126.3 -293.2,216 -102.2,107.4 -205,214.5 -313.3,315.7 -61,57 -131.7,104.4 -201.3,151.4 -55.4,37.3 -119,57.5 -186.4,62.4 -142.5,10.3 -248.9,-85.6 -253.4,-228.3 -1.8,-57.3 9.1,-113 36.4,-162.7 34.5,-63 68.9,-127.8 114,-183.2 152.3,-187 334.8,-339.2 551.8,-446.9 215.4,-107 445.6,-140.6 683.6,-132.3 88,3.1 176,7.2 264,10.9 0.1,-1.9 0.3,-3.7 0.4,-5.5 65.7,7.2 131.6,12.6 197,21.9 339.1,48.2 628.8,193.4 869.4,438.6 125.2,127.6 240.2,263.7 351.4,403.3 40.1,50.4 73.9,105.3 93.7,166.9 10.4,32.1 18.5,65.9 20.8,99.4 3.8,56.7 -20.9,100.9 -60.1,114.2"
         style="fill:#231f20;fill-opacity:1;fill-rule:nonzero;stroke:none"
         id="path88" /><path
         d="m 7450.85,17851.5 c 1.18,21.9 3.56,43.7 5.83,70.9 29.76,12.9 54.84,23.7 76.57,33.1 15.23,-63.2 28.17,-121.3 43.32,-178.8 34.16,-129.7 169.08,-196.4 307.2,-143 20.45,7.9 39.74,19.1 58.96,29.9 84.15,47 116.67,115.2 102.74,210.6 -12.41,85 -47.03,156.5 -132.09,209.4 78.48,21.3 147.88,17.9 212.25,24.7 25.16,-33.4 47.99,-63 70.05,-93.2 5.79,-8 10.68,-17.2 13.41,-26.6 37.36,-128.7 43.25,-256.4 -14.38,-381.7 -25.93,-56.4 -64.72,-100.5 -118.68,-131.8 -61.13,-35.5 -124.86,-63.7 -194.53,-77.7 -48.6,-9.7 -95.41,-4.9 -141.74,12.4 -183.98,68.8 -299.56,245 -288.91,441.8 z m 430.04,-659.1 c 88.48,12.3 169.67,45.1 249.16,84.9 135.62,67.9 212.49,178.6 245.63,323.5 31.95,139.7 24.72,278.6 -7.22,417.3 -6.12,26.6 -7.17,54.3 -11.45,88.6 45.92,0 79.89,3.2 113.1,-0.5 187.34,-20.8 373.51,-49 558.22,-87.4 80.21,-16.7 162.1,-26 243.59,-35.5 25.19,-3 52.78,0.2 77.15,7.6 44.09,13.4 54.31,65.1 19.74,95.5 -12.99,11.5 -30.52,19.7 -47.37,24.5 -32.7,9.2 -66.06,18.8 -99.71,21.6 -150.24,12.8 -297.62,42.5 -445.05,71.9 -235.25,47 -472.36,68.9 -711.82,48.2 -73.45,-6.3 -148.04,-17 -218.4,-38.1 -176.78,-53 -347.68,-122.5 -515.21,-200.3 -129.98,-60.3 -236.73,-149.5 -328.37,-258.1 -46.09,-54.6 -77.12,-116.8 -91.11,-187.3 -12.56,-63.2 -7.52,-125.7 23.8,-181.4 79.29,-141 205.97,-220.1 358.41,-262.6 1.91,-0.6 3.97,-0.6 5.96,-0.8 90.29,-9.1 141.14,59.7 104.5,142.2 -8.07,18.2 -18.11,36.2 -30.41,51.8 -29.76,37.7 -60.55,74.6 -92.52,110.5 -26.67,29.9 -55.4,58 -83.6,86.5 -34.68,35.1 -43.98,76.5 -26.73,121.8 14.21,37.2 32.11,73.1 50.25,108.7 5.54,10.9 17.26,18.6 31.04,32.8 1.39,-18.2 2.66,-28 2.8,-37.8 3.17,-207.3 101.42,-358.7 276.05,-462.9 107.2,-64 221.8,-103.1 349.57,-85.2"
         style="fill:#231f20;fill-opacity:1;fill-rule:nonzero;stroke:none"
         id="path90" /><path
         d="m 11914.7,13937.7 c 117.5,-96.9 236.1,-192.6 356.1,-286.3 55.2,-43.1 114.2,-81.6 173.4,-119.1 26.7,-16.9 57.1,-29.6 87.5,-38.5 39.4,-11.6 76.1,4.4 94.3,34.6 17.4,28.9 13.4,62.3 -12.8,94.3 -10.1,12.4 -21.5,24.1 -33.9,34.1 -92.1,74 -184,148.3 -277.1,221.1 -83.7,65.3 -171,126.2 -252.8,193.8 -268.1,221.2 -432.2,506.2 -509.6,843.2 -6.3,27.3 -12.9,54.8 -22.5,81 -6.4,17.7 -18.4,33.5 -25.3,45.7 -33.8,5.4 -46,-11.2 -51.2,-31.3 -8.8,-34.7 -18.2,-70 -20.3,-105.5 -4.8,-80.6 7.1,-160.1 30.2,-237.4 86,-286.8 230.3,-537.1 464,-729.7"
         style="fill:#231f20;fill-opacity:1;fill-rule:nonzero;stroke:none"
         id="path92" /><path
         d="m 11833.4,17814.3 c -47.3,29.3 -93.4,8.7 -103.4,-45.7 -1.8,-9.8 -1.9,-19.9 -3.4,-36.1 3.7,-17.7 7.1,-41.5 13.8,-64.4 22,-76.3 62.6,-142.6 113.7,-202.7 76,-89.6 165,-165.3 269.8,-217.1 141.5,-69.9 287.2,-131.4 431.5,-195.9 14.4,-6.5 30.4,-10.3 46.2,-12.5 38.1,-5.3 68.1,9.8 80.1,38.4 11.4,27 3.7,56.5 -22.3,81.1 -10.1,9.5 -21.5,18.1 -33.2,25.6 -33.6,21.8 -67.7,42.8 -101.6,64 -93.4,58.2 -188,114.7 -280,175 -131.4,86.2 -250.4,186.6 -341.1,317 -11.4,16.3 -24.6,31.6 -38.3,46.2 -9.4,10.2 -20.1,19.9 -31.8,27.1"
         style="fill:#231f20;fill-opacity:1;fill-rule:nonzero;stroke:none"
         id="path94" /><path
         d="m 8652.49,16929.6 c 35.12,38.5 72.99,74.7 105.98,114.9 44.34,54.1 86.38,110.2 126.76,167.3 12.13,17.1 19.74,40.1 21.86,61.2 4.59,45.6 -31.39,77.3 -76.35,67.2 -20.65,-4.7 -42.32,-15.3 -58.06,-29.3 -53.7,-48 -109.83,-94.4 -156.27,-148.9 -154.22,-181 -329.78,-333 -549.61,-429.3 -23.85,-10.4 -47.08,-22.3 -70.31,-34.1 -10.68,-5.4 -21.55,-11.1 -30.82,-18.6 -37.11,-29.8 -34.63,-76.3 7.43,-98.2 20.53,-10.7 45.36,-13.2 63.92,-18.2 31.39,4.7 57.32,7.5 82.74,12.7 108.05,22.2 203.31,72.5 292.2,135.9 88.5,63.2 167.34,137.2 240.53,217.4"
         style="fill:#231f20;fill-opacity:1;fill-rule:nonzero;stroke:none"
         id="path96" /><path
         d="m 8100.81,16970.4 c 195.9,40.6 359.88,142.8 508.95,269.7 49.42,42.1 84.98,100.5 126.67,151.6 3.73,4.5 6.69,10 8.82,15.6 14.86,38.5 -7.29,76.6 -48.48,76.3 -22.78,-0.2 -47.46,-8.2 -67.84,-19.1 -63.52,-33.9 -125.64,-70.5 -178.37,-120.8 -153.06,-146 -345.95,-182.4 -546.35,-196.8 -18.01,0 -36.04,0.6 -54.02,-0.2 -47.39,-2 -78.3,-23.4 -86.99,-59.4 -8.4,-34.9 9.95,-71.2 50.96,-92.6 22.8,-11.9 47.97,-20 72.84,-27.1 71.36,-20.3 142.45,-12 213.81,2.8"
         style="fill:#231f20;fill-opacity:1;fill-rule:nonzero;stroke:none"
         id="path98" /><path
         d="m 12220.7,17663.8 c 93.3,-25.1 187.9,-41.5 285,-41.7 28,-1.4 56.1,-4.2 84.1,-3.6 19.7,0.4 40,3.4 59,8.6 25.1,6.9 41.1,24.6 45.4,50.8 4.4,26.7 -6.5,48.6 -28.2,62 -20.2,12.5 -42.6,22.6 -65.4,29.3 -63.5,18.6 -127.2,36.7 -191.6,51.8 -80.7,18.9 -157.5,47 -228.9,89 -44.9,26.5 -88.4,55.3 -133.8,80.9 -25.9,14.6 -53.4,27.8 -81.8,36.4 -27.9,8.6 -56.4,3.8 -77,-20.4 -22.3,-26.1 -20.3,-56.2 -7.3,-84.8 9.1,-19.9 21.8,-38.5 35.2,-55.8 79,-101.6 181.1,-169.1 305.3,-202.5"
         style="fill:#231f20;fill-opacity:1;fill-rule:nonzero;stroke:none"
         id="path100" /><path
         d="m 7761.21,17843.9 c 0,-77.3 -62.68,-140 -139.99,-140 -77.32,0 -140,62.7 -140,140 0,77.3 62.68,140 140,140 77.31,0 139.99,-62.7 139.99,-140"
         style="fill:#ffffff;fill-opacity:1;fill-rule:nonzero;stroke:none"
         id="path102" /><path
         d="m 12462.9,18638.2 c 0,-77.3 -62.7,-139.9 -140,-139.9 -77.4,0 -140,62.6 -140,139.9 0,77.4 62.6,140 140,140 77.3,0 140,-62.6 140,-140"
         style="fill:#ffffff;fill-opacity:1;fill-rule:nonzero;stroke:none"
         id="path104" /></g></g></svg>
