<?xml version="1.0" encoding="utf-8"?>
<svg viewBox="549.054 363.753 294.089 56.906" width="112.855" height="56.766" xmlns="http://www.w3.org/2000/svg">
  <path d="m 4250.04,2547.66 c -24.15,3.48 -41.06,5.49 -50.72,6.04 -2.15,-30.59 -3.88,-57.02 -5.22,-79.29 7.77,-1.88 15.55,-3.36 23.34,-4.42 1.6,-0.27 4.28,-0.67 8.04,-1.21 0.81,0 2.07,-0.14 3.82,-0.4 1.75,-0.27 3.02,-0.54 3.83,-0.81 0.54,-0.27 1.2,-0.4 2.01,-0.4 0.8,0 1.34,-0.14 1.61,-0.4 1.62,0 2.82,-0.14 3.63,-0.4 1.6,0 2.67,-0.14 3.21,-0.41 h 3.22 c 0.27,0 0.74,-0.07 1.41,-0.2 0.66,-0.14 1.14,-0.2 1.41,-0.2 h 2.42 4.02 1.61 0.8 0.8 l 1.61,-16.1 h -1.2 c -0.54,0 -0.94,-0.13 -1.21,-0.4 h -2.01 -4.83 -2.82 -3.22 c -1.34,0 -2.41,0.13 -3.21,0.4 h -3.62 c -0.55,0 -1.22,0.07 -2.02,0.2 -0.81,0.13 -1.34,0.21 -1.61,0.21 -1.88,0 -3.22,0.13 -4.02,0.4 -1.61,0 -4.3,0.26 -8.05,0.8 -1.08,0 -2.56,0.14 -4.43,0.4 -1.88,0.27 -3.21,0.41 -4.02,0.41 -2.15,0.26 -5.71,0.73 -10.67,1.41 -4.97,0.66 -8.65,1.27 -11.06,1.81 -3.76,-88.54 -1.35,-135.49 7.24,-140.85 -2.42,-6.44 -8.65,-12.14 -18.72,-17.11 -10.06,-4.96 -18.97,-7.57 -26.76,-7.84 -8.04,-0.27 -14.75,3.15 -20.11,10.26 -5.37,7.11 -9.2,17.36 -11.48,30.78 -2.28,13.41 -3.82,27.7 -4.63,42.86 -0.8,15.16 -0.66,32.8 0.4,52.92 1.08,20.12 2.15,38.17 3.23,54.13 1.07,15.96 2.48,33.87 4.23,53.72 1.73,19.86 2.88,34.75 3.41,44.68 0.54,12.6 5.7,22.13 15.5,28.57 9.79,6.44 21.94,9.85 36.42,10.26 14.49,0.4 28.9,-0.14 43.26,-1.61 14.34,-1.48 27.69,-3.09 40.04,-4.83 12.34,-1.75 19.85,-2.21 22.54,-1.41 0.26,-1.07 0.47,-2.41 0.6,-4.02 0.13,-1.61 0.27,-4.77 0.4,-9.46 0.14,-4.7 0.07,-9.12 -0.2,-13.28 -0.27,-4.16 -1.2,-8.72 -2.81,-13.68 -1.62,-4.97 -3.76,-9.13 -6.44,-12.48 -2.69,-3.36 -6.51,-5.97 -11.47,-7.84 -4.97,-1.88 -10.81,-2.29 -17.5,-1.21" style="fill:#111011;fill-opacity:1;fill-rule:nonzero;stroke:none" id="path64" transform="matrix(0.133333, 0, 0, -0.133333, 0, 712.906677)"/>
  <path d="m 4448.42,2429.75 8.86,0.4 c 3.75,-0.81 5.09,-2.96 4.02,-6.44 0,-0.27 -0.94,-3.62 -2.82,-10.06 -1.87,-6.44 -3.88,-13.42 -6.03,-20.93 -2.15,-7.52 -5.24,-16.7 -9.26,-27.56 -4.02,-10.87 -8.25,-21.27 -12.68,-31.2 -4.42,-9.92 -9.85,-19.99 -16.29,-30.18 -6.44,-10.19 -13.08,-18.91 -19.93,-26.15 -6.83,-7.25 -14.68,-13.08 -23.53,-17.51 -8.86,-4.43 -17.98,-6.37 -27.37,-5.84 -7.24,0.28 -13.29,2.62 -18.11,7.05 -4.83,4.42 -8.18,10.53 -10.06,18.31 -1.88,7.78 -3.08,16.09 -3.62,24.95 -0.55,8.85 -0.21,19.17 1,30.99 1.2,11.8 2.48,22.46 3.82,31.99 1.34,9.52 2.88,20.18 4.63,31.99 1.75,11.81 3.02,20.93 3.83,27.37 -16.91,0.26 -30.25,1.81 -40.05,4.63 -9.79,2.81 -16.03,6.36 -18.71,10.66 -2.69,4.29 -4.37,9.12 -5.03,14.49 -0.67,5.36 -0.4,10.93 0.81,16.7 1.2,5.76 0.73,11.47 -1.42,17.1 1.62,0.81 3.7,1.61 6.24,2.41 2.55,0.81 7.11,1.75 13.69,2.82 6.57,1.07 12.33,1.07 17.3,0 4.96,-1.07 9.26,-4.16 12.88,-9.25 3.63,-5.1 5.03,-12.48 4.23,-22.13 -0.55,-6.99 5.23,-10.47 17.31,-10.47 4.28,0.26 8.57,0.26 12.87,0 4.28,-0.27 9.39,-1.41 15.29,-3.42 5.9,-2.01 10.8,-4.9 14.69,-8.65 3.88,-3.76 7.04,-9.33 9.46,-16.7 2.41,-7.39 2.95,-16.04 1.61,-25.96 -6.44,-49.37 -9.39,-79.42 -8.86,-90.15 0.54,-20.38 7.51,-23.34 20.93,-8.85 9.39,9.93 18.31,25.69 26.76,47.29 8.46,21.59 14.55,40.7 18.31,57.34 l 5.23,24.96" style="fill:#111011;fill-opacity:1;fill-rule:nonzero;stroke:none" id="path66" transform="matrix(0.133333, 0, 0, -0.133333, 0, 712.906677)"/>
  <path d="m 4464.52,2403.99 c -0.54,-13.68 5.23,-18.51 17.3,-14.49 9.66,3.48 19.58,10.73 29.79,21.73 1.06,10.2 2.01,17.84 2.81,22.94 -4.29,0 -8.65,-0.34 -13.08,-1.01 -4.42,-0.67 -9.65,-1.88 -15.69,-3.61 -6.03,-1.75 -11.01,-4.83 -14.89,-9.26 -3.89,-4.43 -5.98,-9.86 -6.24,-16.3 z m 185.93,39.44 h 13.28 c -1.08,-3.76 -2.69,-8.65 -4.84,-14.69 -2.15,-6.04 -6.97,-16.77 -14.48,-32.2 -7.52,-15.43 -15.57,-29.11 -24.15,-41.04 -8.58,-11.95 -19.99,-22.74 -34.2,-32.4 -14.23,-9.66 -28.98,-14.49 -44.27,-14.49 -9.93,0 -17.64,3.56 -23.14,10.67 -5.5,7.1 -8.79,15.62 -9.86,25.55 -1.08,9.93 -1.21,22.13 -0.4,36.62 -18.78,-18.25 -38.64,-25.62 -59.57,-22.13 -13.14,2.41 -21.6,8.99 -25.35,19.72 -3.75,10.73 -2.88,22.26 2.62,34.61 5.5,12.34 14.01,22.13 25.56,29.38 19.04,11.8 40.64,15.69 64.78,11.67 0.81,12.33 0.54,21.33 -0.8,26.96 1.07,0.26 2.41,0.53 4.02,0.81 1.62,0.26 4.76,0.46 9.46,0.6 4.69,0.13 9.12,-0.07 13.28,-0.6 4.16,-0.55 8.72,-1.89 13.68,-4.03 4.96,-2.15 9.19,-5.03 12.69,-8.66 3.47,-3.61 6.23,-8.78 8.24,-15.49 2.01,-6.71 2.62,-14.62 1.81,-23.74 -4.02,-55.81 -0.94,-83.85 9.26,-84.11 4.03,-0.27 8.99,2.95 14.89,9.66 10.73,12.07 20.05,25.41 27.96,40.04 7.91,14.62 13.22,26.22 15.9,34.81 l 3.63,12.48" style="fill:#111011;fill-opacity:1;fill-rule:nonzero;stroke:none" id="path68" transform="matrix(0.133333, 0, 0, -0.133333, 0, 712.906677)"/>
  <path d="m 4797.33,2439.8 8.45,-4.02 c -11.81,-23.08 -20.12,-38.77 -24.95,-47.08 -4.03,-7.79 -8.19,-14.23 -12.47,-19.32 -3.76,-4.3 -6.85,-7.38 -9.26,-9.26 -0.28,-0.27 -0.74,-0.6 -1.41,-1 -0.67,-0.4 -1.14,-0.75 -1.4,-1.01 -0.28,-0.27 -0.82,-0.54 -1.62,-0.81 -0.81,-0.26 -1.34,-0.53 -1.61,-0.8 -0.27,0 -0.94,-0.27 -2.01,-0.8 h -1.21 l -0.4,-0.41 h -1.61 -0.4 -0.4 -0.4 -1.21 c -1.88,0 -3.49,0.54 -4.83,1.61 -1.88,0.81 -3.22,2.15 -4.03,4.03 -0.8,1.07 -1.88,4.02 -3.21,8.85 -0.55,3.75 -0.81,8.99 -0.81,15.7 0.26,6.7 0.93,16.5 2.01,29.37 0.53,6.44 0.81,11.14 0.81,14.09 0,5.9 -0.14,9.92 -0.4,12.07 -0.28,1.07 -0.95,1.88 -2.01,2.42 -0.81,0.53 -1.89,0.13 -3.23,-1.21 l -2.41,-2.42 c -1.88,-2.41 -3.76,-5.63 -5.63,-9.65 -1.35,-2.42 -3.09,-6.04 -5.24,-10.87 -4.02,-10.46 -6.58,-17.44 -7.64,-20.93 -3.49,-10.2 -6.71,-21.06 -9.66,-32.59 l -3.63,-13.28 c -5.37,-20.93 -17.04,-31.66 -35.01,-32.2 -11,-0.27 -18.98,3.96 -23.94,12.68 -4.97,8.71 -7.11,19.85 -6.44,33.4 0.67,13.55 1.87,28.23 3.62,44.07 1.74,15.82 3.62,30.58 5.63,44.27 2.01,13.68 1.94,25.21 -0.19,34.61 0.8,0.26 2.01,0.53 3.62,0.8 1.61,0.27 4.56,0.53 8.85,0.8 4.28,0.27 8.39,0.07 12.27,-0.6 3.89,-0.67 8.12,-2.28 12.68,-4.83 4.56,-2.55 8.45,-6.04 11.67,-10.46 3.22,-4.43 5.7,-10.66 7.45,-18.72 1.74,-8.04 2.34,-17.44 1.81,-28.17 v -2.01 c 13.94,24.15 26.28,36.08 37.02,35.82 7.51,-0.27 11.8,-6.24 12.88,-17.91 1.07,-11.67 0.54,-22.47 -1.61,-32.39 0,-2.16 -0.27,-5.1 -0.8,-8.86 v -2.41 c -0.55,-3.22 -1.08,-8.32 -1.62,-15.3 0,-6.17 0.14,-10.46 0.4,-12.87 0.54,-2.16 0.94,-3.49 1.22,-4.03 l 0.4,-0.4 0.4,-0.4 h 0.4 0.41 l 1.2,0.4 h 0.81 0.4 c 0,0.26 0.26,0.4 0.8,0.4 0.26,0.27 0.54,0.4 0.81,0.4 0.53,0.27 0.94,0.41 1.2,0.41 l 0.81,0.8 c 0.54,0.26 0.94,0.54 1.2,0.81 0.81,0.53 3.23,2.81 7.25,6.84 4.56,5.36 8.58,11.27 12.07,17.71 l 24.15,44.66" style="fill:#111011;fill-opacity:1;fill-rule:nonzero;stroke:none" id="path70" transform="matrix(0.133333, 0, 0, -0.133333, 0, 712.906677)"/>
  <path d="m 4846.42,2255.89 c 10.2,34.35 3.22,68.28 -20.93,101.82 -42.11,-30.05 -58.75,-54.06 -49.9,-72.04 8.32,-16.36 19.58,-28.97 33.81,-37.82 16.09,-9.93 27.5,-9.39 34.21,1.6 1.06,1.88 2.01,4.03 2.81,6.44 z m 6.04,119.12 c 38.63,-19.85 57.68,-52.58 57.15,-98.19 -0.28,-13.68 -2.08,-25.76 -5.43,-36.22 -3.36,-10.46 -7.39,-18.57 -12.08,-24.35 -4.7,-5.76 -10.27,-10.52 -16.7,-14.28 -6.44,-3.76 -12.14,-6.3 -17.1,-7.65 -4.97,-1.34 -10,-2.14 -15.1,-2.41 -35.15,-1.34 -66,26.56 -92.56,83.7 -12.07,24.95 10.07,55.8 66.41,92.56 l -9.26,9.26 -2.01,11.27 c 1.34,0.53 3.07,1.2 5.23,2.01 2.14,0.8 6.1,2.75 11.87,5.83 5.77,3.08 11.2,6.31 16.3,9.66 5.09,3.36 10.33,7.65 15.69,12.88 5.37,5.23 9.52,10.52 12.48,15.9 6.97,12.88 5.9,19.17 -3.22,18.91 -8.05,0 -27.9,-6.98 -59.56,-20.93 -11,-4.83 -19.86,-4.16 -26.56,2.02 -6.71,6.16 -10.74,13.41 -12.08,21.73 l -2.01,12.87 c 2.41,0 8.25,2.02 17.51,6.04 9.26,4.03 19.38,8.18 30.38,12.48 11,4.29 22.2,7.85 33.61,10.66 11.39,2.82 21.59,2.75 30.58,-0.2 8.99,-2.95 14.83,-9.4 17.51,-19.32 10.19,-36.75 -12.48,-68.01 -68.02,-93.76 4.56,-1.08 8.86,-2.42 12.89,-4.03 17.16,10.2 36.01,20.25 56.54,30.19 20.52,9.92 36.81,17.43 48.89,22.53 l 17.71,7.25 2.81,-8.86 c -39.43,-16.9 -76.73,-36.09 -111.87,-57.55" style="fill:#111011;fill-opacity:1;fill-rule:nonzero;stroke:none" id="path72" transform="matrix(0.133333, 0, 0, -0.133333, 0, 712.906677)"/>
  <path d="M 685.394 402.068 C 685.536 404 685.072 405.582 683.998 406.817 C 682.925 408.05 681.512 408.89 679.76 409.338 C 678.006 409.785 676.245 410.089 674.473 410.25 C 672.704 410.412 671.022 410.52 669.43 410.573 C 667.838 410.626 666.862 410.742 666.506 410.921 C 666.434 410.67 666.336 410.349 666.21 409.956 C 666.085 409.561 665.961 408.856 665.836 407.836 C 665.71 406.817 665.728 405.913 665.889 405.126 C 666.05 404.34 666.488 403.606 667.204 402.926 C 667.918 402.248 668.938 401.872 670.262 401.8 C 676.272 401.514 679.67 400.941 680.457 400.082 C 680.814 399.689 680.814 399.153 680.457 398.473 C 679.956 397.506 679.116 396.506 677.934 395.468 C 676.754 394.432 675.574 393.474 674.394 392.597 C 673.213 391.721 672.006 390.746 670.772 389.673 C 669.537 388.6 668.598 387.42 667.956 386.132 C 667.31 384.844 666.953 383.413 666.881 381.838 C 666.809 380.265 667.338 378.397 668.465 376.232 C 669.59 374.068 671.3 371.697 673.589 369.123 C 674.589 368.121 675.288 367.459 675.682 367.137 C 677.828 365.42 679.777 364.848 681.529 365.42 C 684.678 366.385 685.769 368.889 684.802 372.932 C 684.374 374.577 684.008 376.527 683.702 378.78 C 683.4 381.034 683.246 382.644 683.246 383.609 L 681.048 383.609 C 681.369 379.854 681.654 376.777 681.906 374.381 C 681.941 373.952 681.78 373.827 681.422 374.005 C 681.101 374.148 680.35 374.792 679.169 375.937 C 677.345 377.761 676.038 379.496 675.252 381.141 C 674.465 382.788 674.18 384.253 674.394 385.541 C 674.609 386.829 675.065 388.046 675.762 389.19 C 676.46 390.336 677.345 391.436 678.417 392.49 C 679.492 393.546 680.52 394.556 681.504 395.521 C 682.486 396.488 683.362 397.544 684.133 398.688 C 684.902 399.833 685.321 400.96 685.394 402.068" style="fill:#111011;fill-opacity:1;fill-rule:nonzero;stroke:none" id="path74"/>
  <path d="M 699.881 386.882 C 702.457 387.706 703.012 389.924 701.545 393.536 C 701.294 393.536 701.053 393.492 700.82 393.402 C 700.586 393.313 700.436 393.214 700.364 393.106 L 700.202 393 C 700.238 392.929 700.274 392.821 700.31 392.678 C 700.346 392.536 700.381 392.285 700.417 391.926 C 700.453 391.569 700.445 391.256 700.392 390.988 C 700.337 390.718 700.185 390.469 699.934 390.237 C 699.685 390.004 699.326 389.87 698.861 389.834 C 698.646 389.798 698.46 389.789 698.298 389.806 C 698.137 389.826 697.869 389.933 697.493 390.129 C 697.118 390.326 696.777 390.621 696.473 391.014 C 696.17 391.409 695.857 392.025 695.534 392.865 C 695.213 393.706 694.962 394.717 694.784 395.897 C 694.176 399.689 694.926 401.477 697.037 401.264 C 699.184 400.977 702.17 398.938 705.998 395.146 C 708.394 392.785 709.914 390.942 710.56 389.62 L 711.633 390.478 C 708.662 396.022 704.889 400.154 700.31 402.873 C 696.482 405.126 693.19 405.806 690.437 404.912 C 687.718 404.018 686.413 401.782 686.521 398.205 C 686.556 397.561 686.628 396.882 686.736 396.165 C 686.985 394.628 687.433 393.268 688.077 392.088 C 688.721 390.908 689.453 389.977 690.277 389.297 C 691.098 388.618 691.968 388.054 692.878 387.606 C 693.792 387.16 694.702 386.874 695.616 386.749 C 696.528 386.624 697.341 386.578 698.057 386.614 C 698.772 386.65 699.38 386.741 699.881 386.882" style="fill:#111011;fill-opacity:1;fill-rule:nonzero;stroke:none" id="path76"/>
  <path d="M 735.992 390.854 L 737.012 391.176 C 736.904 391.533 736.734 391.998 736.501 392.57 C 736.268 393.142 735.804 394.153 735.106 395.602 C 734.409 397.05 733.71 398.312 733.014 399.385 C 732.316 400.458 731.484 401.397 730.518 402.202 C 729.553 403.006 728.622 403.321 727.729 403.141 C 726.69 402.926 725.868 401.889 725.26 400.029 C 724.65 398.169 724.257 396.184 724.08 394.073 C 723.901 391.962 723.578 390.049 723.114 388.332 C 722.648 386.614 722.022 385.756 721.236 385.756 C 720.592 385.756 720.09 386.472 719.733 387.902 C 719.374 389.333 719.072 391.06 718.821 393.08 C 718.57 395.102 718.232 397.124 717.802 399.144 C 717.372 401.165 716.602 402.873 715.494 404.268 C 714.385 405.662 712.954 406.342 711.201 406.306 C 710.057 406.342 709.136 405.672 708.438 404.294 C 707.741 402.918 707.293 401.102 707.097 398.849 C 706.9 396.594 706.802 394.065 706.802 391.256 C 706.802 388.448 706.926 385.613 707.177 382.75 C 707.426 379.889 707.634 377.144 707.794 374.515 C 707.956 371.885 708.097 369.659 708.224 367.835 C 708.349 366.011 708.304 364.723 708.089 363.971 C 708.34 363.9 708.67 363.837 709.081 363.783 C 709.493 363.729 710.209 363.748 711.229 363.837 C 712.248 363.927 713.134 364.159 713.885 364.535 C 714.636 364.911 715.298 365.627 715.869 366.681 C 716.441 367.736 716.656 369.087 716.514 370.732 C 715.905 378.673 715.529 385.326 715.386 390.692 C 716.746 384.289 718.732 381.088 721.344 381.088 C 722.738 381.088 723.82 382.062 724.589 384.012 C 725.357 385.962 725.814 388.117 725.958 390.478 C 726.1 392.838 726.342 395.057 726.682 397.132 C 727.022 399.206 727.53 400.333 728.21 400.512 C 729.033 400.726 730.089 400.029 731.377 398.42 C 732.665 396.809 733.756 395.146 734.65 393.429 L 735.992 390.854" style="fill:#111011;fill-opacity:1;fill-rule:nonzero;stroke:none" id="path78"/>
  <path d="M 763.034 388.708 L 764.214 388.6 C 764.75 388.636 764.948 388.904 764.805 389.405 C 764.805 389.441 764.716 389.844 764.537 390.612 C 764.357 391.382 764.17 392.168 763.973 392.973 C 763.777 393.777 763.464 394.789 763.034 396.005 C 762.605 397.221 762.157 398.365 761.693 399.438 C 761.228 400.512 760.629 401.621 759.896 402.765 C 759.162 403.91 758.384 404.885 757.561 405.689 C 756.738 406.494 755.764 407.157 754.637 407.676 C 753.51 408.193 752.32 408.453 751.069 408.453 C 747.636 408.453 745.953 405.448 746.024 399.438 C 744.2 402.265 741.874 403.606 739.049 403.464 C 737.44 403.392 736.233 402.738 735.428 401.505 C 734.622 400.27 734.193 398.733 734.14 396.89 C 734.085 395.048 734.148 393.214 734.328 391.39 C 734.506 389.565 734.712 387.866 734.945 386.293 C 735.177 384.718 735.24 383.753 735.133 383.394 C 735.348 383.36 735.633 383.314 735.99 383.261 C 736.349 383.208 736.984 383.208 737.896 383.261 C 738.808 383.314 739.585 383.476 740.23 383.744 C 740.873 384.012 741.428 384.521 741.893 385.273 C 742.357 386.024 742.501 386.99 742.322 388.17 C 741.392 394.717 741.338 398.33 742.161 399.009 C 742.662 399.404 743.484 399.009 744.63 397.829 C 745.738 396.685 746.534 395.076 747.018 393 C 747.501 390.925 747.705 389.136 747.636 387.633 L 747.526 385.381 C 747.67 385.345 747.85 385.309 748.064 385.273 C 748.278 385.238 748.698 385.212 749.325 385.192 C 749.95 385.174 750.54 385.202 751.096 385.273 C 751.649 385.345 752.266 385.524 752.946 385.809 C 753.626 386.097 754.19 386.48 754.637 386.964 C 755.084 387.446 755.45 388.136 755.737 389.029 C 756.024 389.924 756.113 390.98 756.005 392.194 C 755.933 393.161 755.808 394.502 755.63 396.218 C 755.236 400.477 755.2 402.892 755.522 403.464 C 755.914 404.072 756.774 403.606 758.097 402.068 C 759.278 400.673 760.28 398.857 761.102 396.621 C 761.925 394.386 762.444 392.498 762.658 390.961 L 763.034 388.708" style="fill:#111011;fill-opacity:1;fill-rule:nonzero;stroke:none" id="path80"/>
  <path d="M 769.688 402.605 C 772.048 400.96 773.98 398.348 775.482 394.77 C 776.697 391.837 776.985 389.853 776.341 388.814 C 776.161 388.528 775.911 388.368 775.589 388.332 C 774.623 388.26 773.649 389.413 772.665 391.793 C 771.681 394.172 770.94 396.577 770.438 399.009 Z M 777.198 386.4 C 779.131 386.65 779.989 388.081 779.775 390.692 C 779.561 393.626 778.218 396.685 775.75 399.868 C 773.246 403.124 770.402 405.288 767.22 406.36 C 766.469 406.682 765.662 406.844 764.804 406.844 C 763.66 406.878 762.74 406.209 762.041 404.83 C 761.344 403.454 760.896 401.638 760.7 399.385 C 760.502 397.132 760.405 394.601 760.405 391.793 C 760.405 388.985 760.529 386.15 760.78 383.288 C 761.029 380.426 761.237 377.681 761.397 375.051 C 761.558 372.423 761.7 370.195 761.826 368.371 C 761.952 366.547 761.908 365.259 761.692 364.508 C 761.834 364.472 762.014 364.437 762.229 364.4 C 762.444 364.365 762.864 364.339 763.49 364.32 C 764.116 364.303 764.705 364.329 765.26 364.4 C 765.814 364.472 766.422 364.651 767.085 364.937 C 767.746 365.224 768.309 365.608 768.776 366.091 C 769.24 366.573 769.606 367.263 769.874 368.157 C 770.142 369.051 770.224 370.107 770.117 371.323 C 769.329 381.91 768.954 389.994 768.989 395.576 C 769.562 393.93 770.18 392.464 770.841 391.176 C 771.502 389.888 772.406 388.725 773.55 387.688 C 774.694 386.65 775.911 386.221 777.198 386.4" style="fill:#111011;fill-opacity:1;fill-rule:nonzero;stroke:none" id="path82"/>
  <path d="M 791.742 390.156 C 791.526 390.156 791.329 390.156 791.15 390.156 C 790.97 390.156 790.694 390.254 790.318 390.45 C 789.943 390.648 789.613 390.925 789.326 391.282 C 789.039 391.641 788.737 392.221 788.414 393.026 C 788.091 393.832 787.842 394.789 787.663 395.897 C 790.309 396.077 792.098 395.218 793.029 393.322 C 793.171 393 793.278 392.616 793.351 392.168 C 793.422 391.721 793.333 391.274 793.082 390.826 C 792.831 390.38 792.385 390.156 791.742 390.156 Z M 802.849 389.941 L 803.921 390.8 C 800.951 396.345 797.214 400.584 792.706 403.517 C 788.878 406.021 785.641 406.861 782.994 406.038 C 780.241 405.145 779.023 402.55 779.346 398.258 C 779.381 397.686 779.454 397.096 779.561 396.488 C 779.882 394.662 780.465 393.089 781.303 391.766 C 782.145 390.442 783.075 389.45 784.094 388.788 C 785.114 388.126 786.205 387.644 787.367 387.338 C 788.529 387.036 789.558 386.892 790.454 386.91 C 791.347 386.928 792.098 387.026 792.706 387.205 C 793.493 387.456 794.137 387.894 794.638 388.52 C 795.138 389.145 795.425 389.96 795.497 390.961 C 795.569 391.962 795.21 393.089 794.423 394.341 C 793.171 396.381 790.846 397.346 787.449 397.238 C 787.054 400.78 787.823 402.409 789.755 402.121 C 791.865 401.8 794.817 399.582 798.609 395.468 C 800.791 393.072 802.203 391.229 802.849 389.941" style="fill:#111011;fill-opacity:1;fill-rule:nonzero;stroke:none" id="path84"/>
  <path d="M 823.559 390.692 L 824.741 390.638 C 825.241 390.746 825.418 391.033 825.277 391.497 C 825.277 391.533 825.15 391.98 824.901 392.838 C 824.65 393.697 824.382 394.628 824.095 395.629 C 823.809 396.632 823.398 397.856 822.861 399.304 C 822.325 400.753 821.761 402.14 821.171 403.464 C 820.581 404.786 819.857 406.129 818.998 407.488 C 818.139 408.846 817.254 410.009 816.342 410.974 C 815.43 411.941 814.383 412.718 813.203 413.309 C 812.023 413.9 810.806 414.158 809.554 414.088 C 808.589 414.05 807.783 413.738 807.139 413.148 C 806.495 412.558 806.049 411.744 805.799 410.706 C 805.547 409.669 805.387 408.561 805.315 407.38 C 805.243 406.2 805.289 404.824 805.45 403.248 C 805.61 401.674 805.781 400.253 805.959 398.982 C 806.137 397.713 806.343 396.292 806.577 394.717 C 806.809 393.142 806.978 391.926 807.086 391.068 C 804.833 391.033 803.053 390.826 801.746 390.45 C 800.441 390.076 799.61 389.602 799.251 389.029 C 798.894 388.457 798.67 387.813 798.581 387.097 C 798.491 386.382 798.527 385.64 798.69 384.87 C 798.85 384.102 798.787 383.341 798.501 382.59 C 798.715 382.482 798.993 382.376 799.333 382.269 C 799.673 382.161 800.281 382.036 801.157 381.893 C 802.033 381.75 802.802 381.75 803.465 381.893 C 804.126 382.036 804.698 382.448 805.182 383.126 C 805.665 383.806 805.853 384.79 805.746 386.077 C 805.673 387.009 806.442 387.473 808.053 387.473 C 808.625 387.438 809.195 387.438 809.769 387.473 C 810.341 387.509 811.022 387.661 811.807 387.929 C 812.594 388.197 813.247 388.582 813.766 389.082 C 814.285 389.584 814.705 390.326 815.027 391.309 C 815.35 392.294 815.421 393.448 815.243 394.77 C 814.383 401.353 813.99 405.36 814.062 406.79 C 814.134 409.508 815.063 409.902 816.853 407.97 C 818.103 406.646 819.294 404.545 820.419 401.665 C 821.547 398.786 822.359 396.238 822.861 394.02 L 823.559 390.692" style="fill:#111011;fill-opacity:1;fill-rule:nonzero;stroke:none" id="path86"/>
  <path d="M 841.965 389.029 L 843.143 389.888 C 843.037 390.174 842.894 390.541 842.715 390.988 C 842.535 391.436 842.134 392.329 841.509 393.67 C 840.882 395.012 840.229 396.282 839.549 397.48 C 838.869 398.68 838.002 400.002 836.947 401.45 C 835.891 402.9 834.818 404.133 833.727 405.153 C 832.635 406.173 831.374 407.004 829.945 407.648 C 828.514 408.292 827.082 408.561 825.651 408.453 C 824.794 408.417 824.059 407.988 823.453 407.165 C 822.843 406.342 822.387 405.136 822.083 403.544 C 821.779 401.952 821.547 400.297 821.386 398.58 C 821.225 396.862 821.162 394.78 821.198 392.329 C 821.234 389.88 821.287 387.706 821.358 385.809 C 821.43 383.914 821.538 381.696 821.682 379.156 C 821.467 379.156 821.162 379.165 820.769 379.184 C 820.375 379.201 820.089 379.228 819.911 379.264 C 819.123 379.264 818.55 379.282 818.193 379.317 L 815.671 379.317 L 814.919 379.317 L 814.706 379.317 L 814.545 377.655 C 814.617 377.655 814.706 377.636 814.813 377.6 C 814.85 377.6 815.081 377.565 815.511 377.493 C 815.69 377.457 815.905 377.421 816.154 377.385 C 816.405 377.351 816.718 377.305 817.093 377.251 C 817.469 377.197 817.782 377.153 818.033 377.117 C 818.139 377.117 818.39 377.091 818.783 377.037 C 819.177 376.983 819.481 376.939 819.695 376.903 C 820.089 376.831 820.715 376.76 821.574 376.688 C 821.645 376.653 821.717 376.635 821.789 376.635 C 822.253 369.551 822.343 365.473 822.057 364.4 C 822.199 364.365 822.378 364.329 822.593 364.293 C 822.807 364.257 823.229 364.231 823.855 364.213 C 824.479 364.195 825.07 364.221 825.626 364.293 C 826.179 364.365 826.787 364.544 827.45 364.829 C 828.111 365.116 828.674 365.5 829.139 365.984 C 829.605 366.465 829.971 367.156 830.241 368.049 C 830.509 368.944 830.587 369.999 830.481 371.215 C 830.445 371.859 830.355 373.433 830.213 375.937 C 830.355 375.937 830.606 375.928 830.965 375.911 C 831.321 375.892 831.573 375.883 831.715 375.883 C 832.109 375.848 832.662 375.829 833.378 375.829 C 833.557 375.829 833.807 375.821 834.13 375.803 C 834.453 375.785 834.685 375.776 834.827 375.776 L 835.954 375.776 L 836.919 375.776 L 837.027 377.439 C 836.813 377.512 836.509 377.583 836.115 377.655 C 835.794 377.725 835.417 377.78 834.989 377.815 C 834.845 377.815 834.622 377.841 834.317 377.896 C 834.014 377.949 833.771 377.993 833.593 378.029 C 833.413 378.029 833.137 378.056 832.761 378.109 C 832.386 378.164 832.09 378.209 831.875 378.244 C 831.733 378.244 831.455 378.271 831.045 378.325 C 830.634 378.379 830.319 378.424 830.106 378.458 C 829.962 381.285 829.855 384.397 829.783 387.796 C 829.818 394.306 829.873 397.972 829.945 398.794 C 830.194 401.728 830.821 403.177 831.822 403.141 C 832.287 403.141 832.823 402.892 833.433 402.389 C 834.469 401.532 835.703 399.993 837.135 397.774 C 838.565 395.557 839.729 393.536 840.623 391.712 L 841.965 389.029" style="fill:#111011;fill-opacity:1;fill-rule:nonzero;stroke:none" id="path88"/>
</svg>