<?xml version="1.0" encoding="utf-8"?>
<svg viewBox="0 653.427 405.059 50.346" width="405.059" height="50.346" xmlns="http://www.w3.org/2000/svg">
  <path d="M 75.6563,213.781 C 71.8945,138.652 72.5703,91.6992 77.6641,72.9297 91.6211,87.4102 102.754,113.91 111.074,152.41 c 8.313,38.5 12.129,73.84 11.465,106.039 -0.676,32.203 -5.168,48.551 -13.476,49.102 -5.372,0.262 -10.2075,-2.75 -14.4927,-9.051 -4.2969,-6.309 -7.5117,-14.098 -9.6601,-23.348 -2.1446,-9.25 -4.0196,-18.511 -5.6329,-27.769 -1.6132,-9.254 -2.5507,-17.242 -2.8125,-23.942 z m 47.4887,110.668 c 10.722,-1.34 18.449,-11 23.144,-28.976 4.688,-17.973 5.625,-39.711 2.813,-65.192 -2.813,-25.492 -7.852,-51.25 -15.086,-77.269 -7.246,-26.032 -17.981,-49.43 -32.2,-70.2307 C 87.5898,61.9922 72.0313,48.7813 55.1367,43.1523 47.8906,40.4688 41.8555,39.1211 37.0234,39.1211 27.3633,38.8594 19.582,44.0195 13.6797,54.6211 7.77344,65.2227 4.02344,79.0898 2.41406,96.2695 0.800781,113.441 0,132.891 0,154.621 c 0,21.738 1.00781,43.66 3.01953,65.801 2.01172,22.129 3.67969,43.32 5.02735,63.578 1.33984,20.262 2.54692,37.563 3.62112,51.922 1.0742,14.34 0.6679,24.738 -1.2071,31.187 1.0704,0.262 2.5469,0.532 4.4336,0.801 1.875,0.262 5.4297,0.539 10.6602,0.813 5.2344,0.269 10.1992,0.058 14.8945,-0.602 4.6875,-0.68 9.8516,-2.219 15.4883,-4.629 5.6367,-2.422 10.3906,-5.64 14.2852,-9.66 3.8867,-4.019 6.9765,-9.801 9.2578,-17.312 2.2773,-7.52 3.0195,-16.36 2.2109,-26.559 0,-2.68 -0.1406,-4.832 -0.4023,-6.43 12.8789,15.821 26.8239,22.789 41.8559,20.918" style="fill:#111011;fill-opacity:1;fill-rule:nonzero;stroke:none" id="path76" transform="matrix(0.133333, 0, 0, -0.133333, 0, 703.773315)"/>
  <path d="m 455.945,170.313 7.649,-1.602 c -1.614,-3.219 -3.828,-7.59 -6.641,-13.078 -2.812,-5.504 -8.855,-15.301 -18.105,-29.383 C 429.59,112.172 420.266,99.7617 410.879,89.0195 401.484,78.2891 389.805,68.5 375.859,59.6523 c -13.945,-8.8632 -27.5,-13.2812 -40.644,-13.2812 -8.047,0 -13.953,3.2187 -17.703,9.6602 -3.762,6.4296 -5.571,14.8203 -5.434,25.1484 0.129,10.3203 1.067,21.5903 2.817,33.8003 1.746,12.211 3.679,24.352 5.835,36.43 2.141,12.07 3.684,22.992 4.629,32.789 0.942,9.793 0.2,17.371 -2.214,22.731 -2.415,5.383 -6.844,7.39 -13.282,6.05 l -0.398,-0.41 c -4.027,-1.34 -7.785,-3.757 -11.274,-7.238 -4.296,-4.832 -7.644,-9.801 -10.054,-14.891 -2.688,-5.628 -5.102,-12.621 -7.246,-20.929 -1.887,-8.59 -3.489,-16.762 -4.836,-24.551 -0.266,-0.801 -0.535,-1.941 -0.801,-3.418 -0.274,-1.473 -0.399,-2.613 -0.399,-3.41 0,-0.551 -0.136,-1.211 -0.402,-2.024 -0.273,-0.808 -0.41,-1.339 -0.41,-1.609 -0.535,-1.07 -0.801,-1.879 -0.801,-2.41 -0.539,-1.078 -1.074,-2.02 -1.609,-2.82 l -2.016,-2.008 c -0.269,-0.282 -0.601,-0.403 -1.004,-0.403 -0.398,0 -0.742,-0.14 -1.008,-0.398 l -0.796,-0.41 c -0.278,0 -0.547,0 -0.813,0 h -0.801 c -1.609,0 -3.086,0.41 -4.425,1.211 -0.543,0.258 -1.207,0.801 -2.02,1.609 -0.801,1.059 -1.477,2.141 -2.012,3.219 -0.539,1.07 -0.8,1.871 -0.8,2.41 -0.54,1.879 -1.075,4.43 -1.614,7.652 -0.269,1.61 -0.601,4.02 -1.004,7.25 -0.398,3.207 -0.742,5.618 -1.007,7.227 l -1.208,14.094 c -0.265,1.34 -0.597,3.476 -1.007,6.437 -0.403,2.949 -0.743,5.231 -1.004,6.84 -2.153,6.98 -3.352,10.73 -3.614,11.262 -0.277,0.539 -0.675,1.078 -1.21,1.617 l -1.211,-1.207 c -0.266,-0.543 -0.746,-1.34 -1.411,-2.422 -0.671,-1.07 -1.14,-1.871 -1.406,-2.41 l -4.832,-10.867 -3.625,-11.262 c -2.41,-7.52 -4.422,-14.762 -6.031,-21.738 -1.074,-4.563 -2.484,-10.524 -4.223,-17.91 -1.746,-7.372 -2.886,-12.411 -3.426,-15.083 -0.539,-3.488 -1.203,-7.25 -2.011,-11.269 C 210.996,82.0391 199.055,71.3203 180.281,70.5195 169.277,70.25 161.301,74.7422 156.34,84 c -4.973,9.25 -7.043,20.922 -6.242,35 0.8,14.102 2.011,29.313 3.625,45.68 1.609,16.371 3.418,31.39 5.425,45.082 2.012,13.679 1.946,24.808 -0.195,33.39 0.805,0.27 2.016,0.539 3.613,0.821 1.614,0.257 4.563,0.519 8.86,0.797 4.289,0.261 8.379,0.062 12.273,-0.61 3.891,-0.668 8.117,-2.148 12.68,-4.418 4.559,-2.293 8.445,-5.371 11.668,-9.262 3.223,-3.89 5.691,-9.519 7.441,-16.91 1.746,-7.379 2.356,-16.031 1.817,-25.949 0,-2.691 -0.274,-6.172 -0.801,-10.461 0.527,1.063 1.133,2.621 1.809,4.629 0.664,2.012 1.128,3.422 1.406,4.231 1.875,4.55 3.886,8.839 6.035,12.871 2.144,3.761 3.621,6.031 4.434,6.839 l 3.21,3.219 c 1.336,1.34 3.086,2.543 5.235,3.621 1.062,0.539 2.273,0.809 3.625,0.809 0.535,0 0.933,0.133 1.211,0.402 h 0.398 0.403 l 0.796,-0.402 h 1.211 c 2.676,-0.547 4.828,-1.348 6.438,-2.41 1.875,-1.348 3.359,-2.817 4.433,-4.438 0.262,-0.531 0.665,-1.269 1.204,-2.199 0.535,-0.953 0.933,-1.68 1.211,-2.223 0.796,-1.879 1.738,-4.418 2.808,-7.648 0.539,-1.879 1.074,-4.422 1.613,-7.641 0.536,-3.488 1.075,-8.449 1.614,-14.898 0.535,-6.43 0.797,-11.133 0.797,-14.082 v -1.211 c 0.265,0.812 0.941,3.16 2.011,7.043 1.074,3.891 1.875,6.777 2.422,8.648 2.414,8.059 5.5,15.43 9.262,22.141 3.211,6.18 7.5,11.672 12.871,16.508 4.019,3.472 8.719,6.16 14.09,8.043 l 0.801,0.398 c 0.539,0 0.937,0 1.211,0 2.949,0.539 5.964,1.012 9.05,1.41 3.078,0.403 8.45,0.141 16.098,-0.8 7.644,-0.95 14.148,-2.891 19.519,-5.84 5.364,-2.95 9.993,-8.321 13.887,-16.09 3.875,-7.789 5.43,-17.711 4.617,-29.789 -0.535,-8.051 -1.597,-19.18 -3.211,-33.399 -2.683,-26.832 -2.96,-42.5309 -0.808,-47.0817 2.945,-5.6289 10.867,-3.2187 23.75,7.2422 10.996,8.8595 21.785,19.5785 32.39,32.1995 10.594,12.597 18.45,22.937 23.543,30.98 l 8.047,12.071" style="fill:#111011;fill-opacity:1;fill-rule:nonzero;stroke:none" id="path78" transform="matrix(0.133333, 0, 0, -0.133333, 0, 703.773315)"/>
  <path d="m 487.336,245.172 c -5.898,-5.902 -13.012,-8.852 -21.328,-8.852 -8.32,0 -15.434,2.95 -21.328,8.852 -5.903,5.898 -8.852,13.008 -8.852,21.32 0,8.328 2.949,15.43 8.852,21.328 5.894,5.903 13.008,8.86 21.328,8.86 8.316,0 15.43,-2.957 21.328,-8.86 5.894,-5.898 8.855,-13 8.855,-21.328 0,-8.312 -2.961,-15.422 -8.855,-21.32 z m 78.477,-59.961 11.667,-4.43 c -0.261,-0.269 -2.082,-4.16 -5.429,-11.672 -3.36,-7.519 -6.985,-15.359 -10.867,-23.539 -3.887,-8.187 -9.399,-17.507 -16.496,-27.968 C 537.566,107.141 530.266,97.9414 522.754,90.0313 515.234,82.1211 506.25,75.4805 495.793,70.1094 485.32,64.7422 474.727,62.1992 463.992,62.4609 451.926,63 442.871,67.9023 436.836,77.1523 c -6.043,9.2579 -9.258,20.7891 -9.656,34.6097 -0.41,13.82 0.054,27.57 1.406,41.25 1.336,13.687 2.879,26.418 4.629,38.23 1.734,11.809 2.207,19.047 1.402,21.738 1.613,0.262 3.75,0.59 6.438,1.012 2.683,0.399 7.453,0.399 14.289,0 6.844,-0.422 12.676,-1.621 17.508,-3.633 4.824,-2.007 8.984,-5.839 12.468,-11.468 3.489,-5.641 4.563,-12.871 3.227,-21.731 -7.246,-49.097 -6.035,-75.531 3.621,-79.2811 4.023,-1.6094 9.52,0 16.492,4.8321 8.586,5.891 17.649,15.762 27.168,29.578 9.524,13.813 16.965,26.09 22.336,36.82 l 7.649,16.102" style="fill:#111011;fill-opacity:1;fill-rule:nonzero;stroke:none" id="path80" transform="matrix(0.133333, 0, 0, -0.133333, 0, 703.773315)"/>
  <path d="m 703.047,188.031 8.848,-6.449 c -0.801,-2.152 -1.875,-4.891 -3.211,-8.25 -1.348,-3.352 -4.368,-10.062 -9.055,-20.121 -4.695,-10.051 -9.602,-19.59 -14.695,-28.57 -5.098,-8.989 -11.606,-18.918 -19.512,-29.7816 C 657.5,84 649.453,74.7422 641.27,67.0898 633.086,59.4414 623.621,53.2109 612.898,48.3789 602.168,43.5625 591.438,41.5313 580.703,42.3398 574.27,42.6211 568.762,45.832 564.211,52 c -4.57,6.1719 -7.988,15.2305 -10.266,27.1719 -2.285,11.9297 -4.023,24.3481 -5.234,37.2191 -1.211,12.879 -1.68,28.5 -1.406,46.879 0.261,18.382 0.664,34.679 1.203,48.902 0.535,14.219 1.347,30.848 2.422,49.898 -1.614,0 -3.899,-0.07 -6.848,-0.199 -2.949,-0.141 -5.098,-0.34 -6.437,-0.601 -5.907,0 -10.204,-0.149 -12.879,-0.411 h -18.914 -5.637 -1.602 l -1.211,12.481 c 0.536,0 1.211,0.129 2.012,0.402 0.274,0 2.012,0.258 5.234,0.809 1.336,0.269 2.95,0.531 4.825,0.801 1.875,0.269 4.226,0.609 7.043,1.007 2.82,0.403 5.164,0.731 7.047,1 0.8,0 2.675,0.211 5.625,0.614 2.953,0.398 5.238,0.726 6.847,1.007 2.949,0.532 7.649,1.059 14.082,1.61 0.535,0.262 1.074,0.402 1.613,0.402 3.485,53.117 4.161,83.699 2.008,91.75 1.075,0.27 2.414,0.528 4.028,0.809 1.609,0.262 4.761,0.461 9.461,0.601 4.687,0.129 9.113,-0.07 13.281,-0.601 4.148,-0.539 8.711,-1.891 13.68,-4.031 4.96,-2.149 9.179,-5.028 12.675,-8.649 3.489,-3.621 6.242,-8.789 8.254,-15.5 2.012,-6.711 2.61,-14.621 1.809,-23.742 -0.278,-4.816 -0.949,-16.637 -2.016,-35.406 1.067,0 2.949,0.058 5.637,0.199 2.676,0.129 4.558,0.199 5.637,0.199 2.949,0.27 7.097,0.399 12.468,0.399 1.336,0 3.223,0.062 5.633,0.21 2.426,0.122 4.16,0.192 5.235,0.192 h 8.449 7.246 l 0.808,-12.473 c -1.609,-0.547 -3.894,-1.07 -6.843,-1.609 -2.41,-0.539 -5.235,-0.949 -8.45,-1.211 -1.082,0 -2.75,-0.199 -5.039,-0.609 -2.273,-0.399 -4.089,-0.731 -5.425,-1 -1.348,0 -3.418,-0.2 -6.243,-0.598 -2.812,-0.41 -5.031,-0.742 -6.64,-1 -1.074,0 -3.153,-0.211 -6.231,-0.609 -3.086,-0.403 -5.437,-0.743 -7.043,-1 -1.082,-21.211 -1.882,-44.551 -2.421,-70.032 0.265,-48.832 0.675,-76.332 1.21,-82.492 1.875,-22.0077 6.575,-32.8671 14.082,-32.5976 3.489,0 7.512,1.8594 12.083,5.6289 7.773,6.4414 17.031,17.9687 27.761,34.6097 10.727,16.633 19.453,31.789 26.164,45.472 l 10.059,20.129" style="fill:#111011;fill-opacity:1;fill-rule:nonzero;stroke:none" id="path82" transform="matrix(0.133333, 0, 0, -0.133333, 0, 703.773315)"/>
  <path d="m 886.555,175.551 8.855,0.398 c 3.75,-0.797 5.086,-2.949 4.024,-6.437 0,-0.27 -0.95,-3.621 -2.825,-10.063 -1.875,-6.437 -3.882,-13.41 -6.035,-20.918 -2.144,-7.519 -5.23,-16.699 -9.258,-27.57 C 877.297,100.09 873.066,89.6914 868.645,79.7695 864.219,69.8398 858.789,59.7813 852.344,49.5898 845.906,39.4023 839.27,30.6719 832.422,23.4297 825.586,16.1797 817.734,10.3516 808.887,5.92188 800.027,1.5 790.906,-0.449219 781.516,0.0898438 774.277,0.359375 768.23,2.71094 763.406,7.12891 c -4.832,4.42189 -8.179,10.54299 -10.054,18.31249 -1.887,7.7813 -3.086,16.0899 -3.625,24.9492 -0.547,8.8594 -0.207,19.1797 1.003,30.9883 1.204,11.8008 2.485,22.4731 3.821,31.9921 1.34,9.52 2.883,20.192 4.629,31.988 1.75,11.813 3.015,20.93 3.828,27.383 -16.903,0.258 -30.254,1.797 -40.047,4.617 -9.797,2.821 -16.027,6.371 -18.715,10.672 -2.683,4.289 -4.363,9.11 -5.027,14.481 -0.672,5.359 -0.403,10.929 0.808,16.699 1.203,5.769 0.735,11.469 -1.414,17.109 1.614,0.801 3.692,1.61 6.242,2.41 2.547,0.801 7.11,1.743 13.68,2.809 6.57,1.082 12.332,1.082 17.305,0 4.961,-1.066 9.258,-4.156 12.883,-9.238 3.621,-5.11 5.027,-12.481 4.226,-22.141 -0.547,-6.988 5.227,-10.461 17.305,-10.461 4.289,0.262 8.574,0.262 12.871,0 4.285,-0.277 9.395,-1.418 15.293,-3.429 5.898,-2.008 10.801,-4.891 14.687,-8.649 3.887,-3.762 7.04,-9.332 9.461,-16.699 2.414,-7.383 2.954,-16.039 1.614,-25.961 -6.446,-49.3594 -9.395,-79.4102 -8.86,-90.1407 0.539,-20.3906 7.512,-23.3398 20.93,-8.8476 9.387,9.9179 18.313,25.6796 26.758,47.2773 8.457,21.59 14.551,40.711 18.308,57.352 l 5.239,24.949" style="fill:#111011;fill-opacity:1;fill-rule:nonzero;stroke:none" id="path84" transform="matrix(0.133333, 0, 0, -0.133333, 0, 703.773315)"/>
  <path d="m 919.949,245.172 c -5.894,-5.902 -13.008,-8.852 -21.328,-8.852 -8.316,0 -15.43,2.95 -21.324,8.852 -5.902,5.898 -8.852,13.008 -8.852,21.32 0,8.328 2.95,15.43 8.852,21.328 5.894,5.903 13.008,8.86 21.324,8.86 8.32,0 15.434,-2.957 21.328,-8.86 5.903,-5.898 8.86,-13 8.86,-21.328 0,-8.312 -2.957,-15.422 -8.86,-21.32 z m 78.481,-59.961 11.67,-4.43 c -0.27,-0.269 -2.08,-4.16 -5.43,-11.672 -3.36,-7.519 -6.982,-15.359 -10.869,-23.539 -3.891,-8.187 -9.399,-17.507 -16.496,-27.968 C 970.188,107.141 962.883,97.9414 955.371,90.0313 947.852,82.1211 938.867,75.4805 928.406,70.1094 917.938,64.7422 907.344,62.1992 896.609,62.4609 884.543,63 875.488,67.9023 869.453,77.1523 c -6.047,9.2579 -9.258,20.7891 -9.656,34.6097 -0.41,13.82 0.058,27.57 1.402,41.25 1.34,13.687 2.883,26.418 4.629,38.23 1.738,11.809 2.207,19.047 1.406,21.738 1.614,0.262 3.75,0.59 6.438,1.012 2.683,0.399 7.449,0.399 14.289,0 6.844,-0.422 12.676,-1.621 17.508,-3.633 4.824,-2.007 8.984,-5.839 12.469,-11.468 3.488,-5.641 4.562,-12.871 3.222,-21.731 -7.242,-49.097 -6.031,-75.531 3.625,-79.2811 4.024,-1.6094 9.524,0 16.492,4.8321 8.586,5.891 17.649,15.762 27.168,29.578 9.524,13.813 16.965,26.09 22.336,36.82 l 7.649,16.102" style="fill:#111011;fill-opacity:1;fill-rule:nonzero;stroke:none" id="path86" transform="matrix(0.133333, 0, 0, -0.133333, 0, 703.773315)"/>
  <path d="m 1234.25,90.2422 c 1.06,-14.5 -2.42,-26.3633 -10.47,-35.6211 -8.05,-9.2617 -18.65,-15.5586 -31.79,-18.9219 -13.15,-3.3476 -26.36,-5.6289 -39.65,-6.8398 -13.27,-1.1992 -25.88,-2.0078 -37.82,-2.4102 -11.94,-0.3984 -19.26,-1.2695 -21.93,-2.6172 -0.54,1.8789 -1.28,4.3008 -2.22,7.25 -0.94,2.9493 -1.87,8.25 -2.81,15.8907 -0.94,7.6484 -0.81,14.4179 0.4,20.3281 1.21,5.8906 4.49,11.3906 9.86,16.4883 5.36,5.1015 13.01,7.9101 22.94,8.4609 45.07,2.1406 70.56,6.4297 76.46,12.879 2.68,2.941 2.68,6.973 0,12.07 -3.76,7.242 -10.06,14.742 -18.92,22.531 -8.85,7.782 -17.7,14.961 -26.55,21.532 -8.86,6.57 -17.91,13.89 -27.17,21.929 -9.26,8.051 -16.3,16.911 -21.12,26.571 -4.84,9.648 -7.52,20.379 -8.06,32.187 -0.54,11.801 3.43,25.813 11.88,42.051 8.44,16.242 21.26,34.012 38.43,53.32 7.5,7.512 12.74,12.493 15.7,14.899 16.09,12.883 30.71,17.172 43.85,12.883 23.62,-7.25 31.8,-26.032 24.55,-56.352 -3.21,-12.34 -5.96,-26.961 -8.25,-43.859 -2.27,-16.899 -3.42,-28.981 -3.42,-36.219 h -16.49 c 2.41,28.168 4.55,51.238 6.44,69.219 0.26,3.211 -0.95,4.148 -3.63,2.808 -2.41,-1.07 -8.04,-5.886 -16.9,-14.476 -13.68,-13.684 -23.48,-26.703 -29.38,-39.043 -5.9,-12.348 -8.04,-23.34 -6.43,-33 1.61,-9.66 5.03,-18.778 10.26,-27.36 5.23,-8.597 11.87,-16.84 19.91,-24.75 8.06,-7.918 15.77,-15.5 23.15,-22.738 7.37,-7.242 13.94,-15.16 19.72,-23.742 5.77,-8.598 8.91,-17.0392 9.46,-25.3478" style="fill:#111011;fill-opacity:1;fill-rule:nonzero;stroke:none" id="path88" transform="matrix(0.133333, 0, 0, -0.133333, 0, 703.773315)"/>
  <path d="m 1461.62,174.34 7.65,-2.418 c -0.81,-2.68 -2.08,-6.172 -3.83,-10.449 -1.75,-4.301 -5.23,-11.883 -10.46,-22.754 -5.23,-10.86 -10.47,-20.317 -15.69,-28.367 -5.24,-8.039 -11.48,-15.0903 -18.72,-21.1215 -7.24,-6.0391 -14.22,-8.3907 -20.92,-7.0391 -7.79,1.5977 -13.96,9.3789 -18.52,23.3396 -4.57,13.942 -7.52,28.84 -8.85,44.668 -1.34,15.832 -3.76,30.18 -7.24,43.051 -3.5,12.883 -8.19,19.32 -14.09,19.32 -4.83,0 -8.59,-5.371 -11.27,-16.09 -2.69,-10.738 -4.96,-23.691 -6.84,-38.839 -1.88,-15.161 -4.42,-30.321 -7.64,-45.469 -3.23,-15.172 -9,-27.9728 -17.31,-38.4415 -8.32,-10.461 -19.05,-15.5586 -32.2,-15.2891 -8.58,-0.2695 -15.48,4.7578 -20.72,15.0977 -5.23,10.3203 -8.59,23.9414 -10.06,40.8439 -1.48,16.898 -2.21,35.867 -2.21,56.937 0,21.063 0.93,42.321 2.81,63.789 1.87,21.461 3.43,42.051 4.63,61.782 1.21,19.711 2.27,36.41 3.22,50.089 0.94,13.68 0.6,23.34 -1.01,28.981 1.88,0.531 4.36,1 7.44,1.41 3.09,0.399 8.46,0.27 16.11,-0.41 7.64,-0.672 14.29,-2.41 19.92,-5.219 5.64,-2.82 10.6,-8.191 14.88,-16.101 4.29,-7.911 5.9,-18.051 4.84,-30.391 -4.57,-59.559 -7.39,-109.461 -8.46,-149.699 10.2,48.019 25.09,72.039 44.68,72.039 10.46,0 18.57,-7.32 24.34,-21.938 5.77,-14.621 9.19,-30.793 10.27,-48.492 1.06,-17.711 2.88,-34.347 5.43,-49.898 2.55,-15.571 6.36,-24.02 11.46,-25.352 6.17,-1.617 14.09,3.621 23.75,15.692 9.66,12.07 17.84,24.55 24.55,37.418 l 10.06,19.32" style="fill:#111011;fill-opacity:1;fill-rule:nonzero;stroke:none" id="path90" transform="matrix(0.133333, 0, 0, -0.133333, 0, 703.773315)"/>
  <path d="m 1535.26,188.031 c -5.09,1.598 -10.87,0 -17.3,-4.84 0.54,-1.07 1.61,-2.41 3.22,-4.019 2.14,-2.152 4.43,-3.762 6.84,-4.832 1.34,-1.078 2.82,-1.75 4.42,-2.02 3.22,-0.8 4.96,-1.199 5.24,-1.199 3.22,-0.808 6.43,-1.211 9.65,-1.211 -1.87,10.199 -5.89,16.231 -12.07,18.121 z m -29.78,-93.3708 c 6.71,-2.1485 13.82,0.6015 21.33,8.2498 7.51,7.653 13.28,17.91 17.3,30.781 1.08,3.231 2.15,7.508 3.22,12.879 -5.37,-0.531 -9.52,-0.668 -12.47,-0.398 -0.54,0 -1.41,0.058 -2.61,0.199 -1.21,0.129 -2.29,0.258 -3.23,0.41 -0.93,0.129 -1.8,0.328 -2.61,0.59 -1.88,0.281 -4.7,0.942 -8.45,2.031 -4.57,1.328 -9.26,3.75 -14.08,7.227 -1.61,1.082 -2.69,1.883 -3.23,2.422 -0.53,-1.34 -1.88,-4.692 -4.02,-10.059 -4.02,-12.883 -5.17,-24.621 -3.42,-35.211 1.74,-10.609 5.83,-16.9685 12.27,-19.1208 z m 131.2,101.8198 4.82,-8.449 c -1.34,-1.09 -3.22,-2.422 -5.63,-4.031 -0.27,-0.27 -0.8,-0.598 -1.61,-1.008 -0.8,-0.402 -1.34,-0.73 -1.61,-1.012 l -3.62,-2.41 c -0.27,-0.257 -0.88,-0.668 -1.81,-1.199 -0.94,-0.551 -1.68,-0.949 -2.21,-1.211 -0.55,-0.269 -1.35,-0.801 -2.42,-1.609 -1.08,-0.801 -1.88,-1.352 -2.41,-1.61 -2.96,-1.351 -4.7,-2.281 -5.24,-2.82 -0.54,-0.539 -1.47,-1.141 -2.81,-1.808 -1.35,-0.68 -2.29,-1.153 -2.82,-1.411 -0.27,-0.273 -0.75,-0.601 -1.41,-1 -0.67,-0.41 -1.14,-0.613 -1.41,-0.613 l -1.61,-0.797 c -0.27,0 -0.53,-0.14 -0.8,-0.402 -0.27,-0.27 -0.54,-0.41 -0.81,-0.41 -1.07,-0.27 -2.15,-0.801 -3.21,-1.598 -1.09,-0.281 -2.16,-0.812 -3.22,-1.609 -2.96,-1.352 -7.65,-3.364 -14.09,-6.043 -4.03,-1.61 -8.99,-3.36 -14.89,-5.231 -0.81,-0.277 -1.95,-0.609 -3.42,-1.008 -1.48,-0.402 -2.49,-0.609 -3.02,-0.609 -0.8,-4.82 -2.02,-9.652 -3.62,-14.48 -6.71,-20.93 -18.11,-36.9614 -34.21,-48.0903 -16.1,-11.1406 -32.33,-14.1523 -48.7,-9.0625 -16.36,5.0899 -27.9,16.8399 -34.6,35.2228 -6.71,18.367 -6.71,38.148 0,59.348 6.7,20.929 18.11,36.96 34.2,48.101 16.11,11.121 32.34,14.141 48.7,9.051 11,-3.492 19.98,-10.531 26.97,-21.133 6.97,-10.598 10.99,-22.867 12.07,-36.816 h 1.21 c 6.7,1.34 11.26,2.277 13.68,2.816 2.14,0.262 6.56,1.473 13.28,3.621 1.6,0.539 2.68,0.942 3.21,1.211 1.61,0.531 2.68,0.801 3.23,0.801 l 1.61,0.801 c 0.26,0 0.52,0.066 0.8,0.207 0.26,0.133 0.54,0.199 0.81,0.199 0.26,0.273 0.73,0.531 1.4,0.801 0.67,0.269 1.14,0.402 1.41,0.402 l 6.04,2.418 c 1.61,0.531 3.35,1.211 5.23,2.02 2.14,1.062 3.75,1.73 4.82,2.011 2.15,1.059 3.63,1.739 4.44,2.008 0.26,0.262 0.87,0.602 1.81,1.012 0.93,0.398 1.54,0.73 1.81,1 l 3.61,1.199 6.05,3.23" style="fill:#111011;fill-opacity:1;fill-rule:nonzero;stroke:none" id="path92" transform="matrix(0.133333, 0, 0, -0.133333, 0, 703.773315)"/>
  <path d="m 1639.48,47.9805 c 2.42,-2.6797 6.05,-5.6407 10.87,-8.8594 l 2.41,-1.1992 c 9.12,-3.2227 14.76,-1.3516 16.91,5.6406 2.15,7.2266 1.81,15.0781 -1.01,23.5273 -2.81,8.461 -6.37,15.9024 -10.66,22.3321 -4.3,6.4492 -10.87,15.5581 -19.72,27.3791 -1.35,1.601 -2.28,2.808 -2.82,3.609 -2.15,-4.558 -3.89,-9.789 -5.23,-15.687 -1.61,-7.7933 -2.28,-15.1605 -2.01,-22.1332 0.27,-2.1484 0.67,-5.6406 1.2,-10.4687 0.27,-0.8008 0.54,-1.8711 0.81,-3.2109 0.27,-1.3477 0.53,-2.5586 0.81,-3.6289 0.26,-1.0704 0.53,-2.0118 0.8,-2.8204 1.34,-5.0898 3.88,-9.9218 7.64,-14.4804 z m 123.96,121.5315 1.61,-9.66 c -1.61,0.8 -3.9,1.949 -6.85,3.418 -2.95,1.48 -8.51,3.691 -16.7,6.64 -8.18,2.949 -15.89,5.031 -23.14,6.242 -7.24,1.207 -15.09,1.27 -23.54,0.207 -8.45,-1.089 -15.36,-4.039 -20.73,-8.859 2.95,-4.57 7.18,-10.801 12.69,-18.711 5.49,-7.918 9.92,-14.359 13.27,-19.316 3.36,-4.973 7.38,-11.141 12.08,-18.512 4.69,-7.379 8.25,-13.5587 10.66,-18.5196 2.42,-4.9609 4.9,-10.5898 7.44,-16.8906 2.55,-6.3086 3.89,-11.8203 4.03,-16.5078 0.13,-4.6836 -0.27,-9.4532 -1.2,-14.2813 -0.95,-4.832 -3.1,-9.2617 -6.45,-13.2812 -3.36,-4.0313 -7.71,-7.6485 -13.07,-10.8594 -19.06,-9.1211 -35.15,-12.21094 -48.3,-9.2617 h -0.4 c -0.81,0 -1.34,0.1406 -1.61,0.4023 -3.49,0.5391 -6.84,1.4688 -10.06,2.8086 -3.76,1.0899 -8.45,3.3594 -14.09,6.8516 -6.17,4.0195 -11.27,8.5898 -15.29,13.6797 -5.1,6.4297 -8.85,13.6797 -11.27,21.7304 0,0.5391 -0.07,1.1485 -0.2,1.8086 -0.13,0.6719 -0.2,1.1407 -0.2,1.4102 l -0.4,0.8086 v 0.8008 l -0.4,1.6093 -0.4,1.2032 v 1.6093 c -0.28,0.8203 -0.41,1.8789 -0.41,3.2305 -0.8,4.0195 -1.2,8.3086 -1.2,12.8789 0,9.6602 1.06,18.6406 3.21,26.9606 2.42,8.309 5.9,16.758 10.47,25.348 0,0.27 0.13,0.402 0.4,0.402 l 0.4,0.797 c -4.29,5.903 -8.72,12.352 -13.28,19.321 -7.51,11.812 -12.68,22.742 -15.49,32.8 -2.82,10.059 -3.49,18.45 -2.01,25.16 1.46,6.7 4.02,12.731 7.64,18.102 3.63,5.367 7.98,9.59 13.08,12.68 5.1,3.09 9.86,5.687 14.29,7.847 4.42,2.141 8.25,3.481 11.46,4.032 l 4.84,1.199 c -6.99,-16.899 0.13,-42.399 21.32,-76.461 8.32,4.551 17.37,7.312 27.17,8.242 9.79,0.942 18.65,0.469 26.56,-1.402 7.92,-1.879 15.29,-4.156 22.13,-6.84 6.85,-2.68 12.14,-5.227 15.9,-7.637 l 6.04,-3.23" style="fill:#111011;fill-opacity:1;fill-rule:nonzero;stroke:none" id="path94" transform="matrix(0.133333, 0, 0, -0.133333, 0, 703.773315)"/>
  <path d="m 1895.44,188.031 8.85,-6.449 c -0.8,-2.152 -1.88,-4.891 -3.22,-8.25 -1.34,-3.352 -4.36,-10.062 -9.05,-20.121 -4.7,-10.051 -9.6,-19.59 -14.7,-28.57 -5.09,-8.989 -11.6,-18.918 -19.51,-29.7816 -7.92,-10.8594 -15.96,-20.1172 -24.15,-27.7696 -8.18,-7.6484 -17.64,-13.8789 -28.37,-18.7109 -10.73,-4.8164 -21.46,-6.8476 -32.19,-6.0391 -6.44,0.2813 -11.95,3.4922 -16.5,9.6602 -4.57,6.1719 -7.99,15.2305 -10.26,27.1719 -2.29,11.9297 -4.03,24.3481 -5.24,37.2191 -1.21,12.879 -1.68,28.5 -1.4,46.879 0.26,18.382 0.66,34.679 1.2,48.902 0.54,14.219 1.35,30.848 2.42,49.898 -1.61,0 -3.9,-0.07 -6.85,-0.199 -2.94,-0.141 -5.09,-0.34 -6.43,-0.601 -5.91,0 -10.21,-0.149 -12.88,-0.411 h -18.92 -5.63 -1.6 l -1.22,12.481 c 0.54,0 1.22,0.129 2.02,0.402 0.27,0 2.01,0.258 5.23,0.809 1.34,0.269 2.95,0.531 4.83,0.801 1.87,0.269 4.22,0.609 7.04,1.007 2.82,0.403 5.16,0.731 7.05,1 0.8,0 2.67,0.211 5.62,0.614 2.95,0.398 5.24,0.726 6.85,1.007 2.95,0.532 7.64,1.059 14.08,1.61 0.54,0.262 1.07,0.402 1.61,0.402 3.49,53.117 4.16,83.699 2.01,91.75 1.08,0.27 2.41,0.528 4.03,0.809 1.61,0.262 4.76,0.461 9.46,0.601 4.69,0.129 9.11,-0.07 13.28,-0.601 4.15,-0.539 8.71,-1.891 13.68,-4.031 4.96,-2.149 9.18,-5.028 12.68,-8.649 3.48,-3.621 6.24,-8.789 8.25,-15.5 2.01,-6.711 2.61,-14.621 1.81,-23.742 -0.28,-4.816 -0.95,-16.637 -2.02,-35.406 1.07,0 2.95,0.058 5.64,0.199 2.68,0.129 4.56,0.199 5.63,0.199 2.95,0.27 7.1,0.399 12.47,0.399 1.34,0 3.23,0.062 5.64,0.21 2.42,0.122 4.16,0.192 5.23,0.192 h 8.45 7.25 l 0.81,-12.473 c -1.61,-0.547 -3.9,-1.07 -6.85,-1.609 -2.41,-0.539 -5.23,-0.949 -8.44,-1.211 -1.09,0 -2.76,-0.199 -5.04,-0.609 -2.28,-0.399 -4.1,-0.731 -5.43,-1 -1.35,0 -3.42,-0.2 -6.24,-0.598 -2.82,-0.41 -5.03,-0.742 -6.64,-1 -1.08,0 -3.16,-0.211 -6.24,-0.609 -3.08,-0.403 -5.43,-0.743 -7.04,-1 -1.08,-21.211 -1.88,-44.551 -2.42,-70.032 0.27,-48.832 0.68,-76.332 1.21,-82.492 1.88,-22.0077 6.58,-32.8671 14.09,-32.5976 3.48,0 7.5,1.8594 12.08,5.6289 7.77,6.4414 17.03,17.9687 27.76,34.6097 10.72,16.633 19.45,31.789 26.16,45.472 l 10.06,20.129" style="fill:#111011;fill-opacity:1;fill-rule:nonzero;stroke:none" id="path96" transform="matrix(0.133333, 0, 0, -0.133333, 0, 703.773315)"/>
  <path d="m 1897.85,149.801 c -0.54,-13.692 5.24,-18.52 17.31,-14.5 9.65,3.488 19.58,10.738 29.78,21.73 1.07,10.199 2.01,17.84 2.81,22.942 -4.28,0 -8.65,-0.332 -13.07,-1 -4.43,-0.684 -9.66,-1.883 -15.7,-3.621 -6.03,-1.75 -11,-4.832 -14.89,-9.262 -3.88,-4.43 -5.97,-9.86 -6.24,-16.289 z m 185.93,39.429 h 13.28 c -1.07,-3.757 -2.68,-8.648 -4.83,-14.691 -2.15,-6.027 -6.98,-16.769 -14.49,-32.199 -7.52,-15.418 -15.56,-29.11 -24.15,-41.039 -8.58,-11.9416 -19.99,-22.7307 -34.2,-32.3908 -14.22,-9.6602 -28.98,-14.4883 -44.26,-14.4883 -9.93,0 -17.65,3.5586 -23.15,10.6601 -5.5,7.1094 -8.79,15.6172 -9.86,25.5586 -1.08,9.9224 -1.2,22.1214 -0.4,36.6214 -18.78,-18.262 -38.63,-25.633 -59.56,-22.133 -13.15,2.41 -21.6,8.98 -25.35,19.711 -3.75,10.73 -2.88,22.269 2.61,34.609 5.5,12.34 14.02,22.133 25.56,29.383 19.04,11.809 40.65,15.688 64.79,11.668 0.81,12.332 0.53,21.332 -0.81,26.961 1.07,0.269 2.42,0.539 4.03,0.809 1.61,0.269 4.75,0.46 9.45,0.601 4.7,0.129 9.12,-0.07 13.28,-0.601 4.16,-0.54 8.72,-1.879 13.68,-4.028 4.97,-2.152 9.19,-5.031 12.69,-8.652 3.48,-3.617 6.23,-8.789 8.24,-15.488 2.01,-6.711 2.62,-14.629 1.82,-23.743 -4.02,-55.808 -0.95,-83.8473 9.26,-84.109 4.02,-0.2773 8.98,2.9492 14.88,9.66 10.73,12.07 20.06,25.41 27.97,40.031 7.91,14.622 13.21,26.219 15.9,34.821 l 3.62,12.468" style="fill:#111011;fill-opacity:1;fill-rule:nonzero;stroke:none" id="path98" transform="matrix(0.133333, 0, 0, -0.133333, 0, 703.773315)"/>
  <path d="m 2171.5,212.57 c -4.82,0 -8.32,-4.09 -10.46,-12.281 -2.14,-8.18 -4.42,-20.719 -6.84,-37.617 -0.54,-4.293 -0.94,-7.512 -1.2,-9.66 16.36,22 24.8,39.039 25.35,51.109 0,5.641 -2.29,8.449 -6.85,8.449 z m 92.97,-18.91 6.84,-3.621 c -0.27,-1.609 -0.8,-3.828 -1.61,-6.637 -0.8,-2.82 -2.62,-8.25 -5.43,-16.3 -2.81,-8.051 -5.77,-15.692 -8.86,-22.942 -3.09,-7.238 -7.24,-15.289 -12.47,-24.148 -5.23,-8.852 -10.73,-16.492 -16.5,-22.9417 -5.78,-6.4297 -12.61,-11.8594 -20.52,-16.3008 -7.92,-4.4179 -16.17,-6.6406 -24.76,-6.6406 -8.04,-0.5391 -15.29,1.6836 -21.73,6.6406 -6.43,4.961 -10.87,10.1328 -13.28,15.5 l -3.22,7.6525 c -9.12,-31.129 -24.81,-46.2814 -47.08,-45.4806 -8.59,-0.2695 -15.5,4.7578 -20.72,15.0977 -5.24,10.3203 -8.53,23.9414 -9.87,40.8439 -1.34,16.898 -2.01,35.867 -2.01,56.937 0,21.063 0.87,42.321 2.62,63.789 1.74,21.461 3.22,42.051 4.42,61.782 1.21,19.711 2.28,36.41 3.23,50.089 0.93,13.68 0.6,23.34 -1.01,28.981 1.06,0.262 2.41,0.531 4.02,0.809 1.61,0.261 4.76,0.46 9.46,0.601 4.69,0.129 9.12,-0.07 13.28,-0.601 4.16,-0.547 8.72,-1.887 13.68,-4.028 4.96,-2.152 9.19,-5.031 12.68,-8.652 3.48,-3.617 6.24,-8.801 8.25,-15.5 2.01,-6.699 2.75,-14.481 2.21,-23.34 -4.57,-59.559 -7.38,-109.461 -8.45,-149.699 10.19,48.019 24.95,72.039 44.26,72.039 15.83,0 25.09,-7.789 27.78,-23.348 3.22,-18.242 -2.82,-39.031 -18.12,-62.371 -7.23,-10.738 -15.95,-20.672 -26.15,-29.781 0,-2.68 0.21,-5.578 0.61,-8.649 0.4,-3.101 1.27,-7.851 2.61,-14.289 1.34,-6.441 4.22,-11.6715 8.66,-15.7028 4.42,-4.0273 9.85,-6.039 16.29,-6.039 9.93,0 19.45,3.6289 28.57,10.8711 9.12,7.2497 16.71,16.1017 22.74,26.5587 6.04,10.461 11.4,20.93 16.1,31.39 4.68,10.469 8.11,19.321 10.26,26.559 l 3.22,10.871" style="fill:#111011;fill-opacity:1;fill-rule:nonzero;stroke:none" id="path100" transform="matrix(0.133333, 0, 0, -0.133333, 0, 703.773315)"/>
  <path d="m 2330.06,188.031 c -5.1,1.598 -10.87,0 -17.31,-4.84 0.54,-1.07 1.62,-2.41 3.23,-4.019 2.14,-2.152 4.42,-3.762 6.83,-4.832 1.34,-1.078 2.82,-1.75 4.43,-2.02 3.22,-0.8 4.96,-1.199 5.23,-1.199 3.22,-0.808 6.44,-1.211 9.66,-1.211 -1.88,10.199 -5.9,16.231 -12.07,18.121 z m -29.79,-93.3708 c 6.71,-2.1485 13.82,0.6015 21.33,8.2498 7.51,7.653 13.28,17.91 17.31,30.781 1.07,3.231 2.14,7.508 3.22,12.879 -5.37,-0.531 -9.52,-0.668 -12.47,-0.398 -0.55,0 -1.42,0.058 -2.62,0.199 -1.21,0.129 -2.28,0.258 -3.22,0.41 -0.94,0.129 -1.81,0.328 -2.62,0.59 -1.87,0.281 -4.7,0.942 -8.45,2.031 -4.57,1.328 -9.25,3.75 -14.08,7.227 -1.61,1.082 -2.68,1.883 -3.22,2.422 -0.54,-1.34 -1.89,-4.692 -4.02,-10.059 -4.03,-12.883 -5.17,-24.621 -3.42,-35.211 1.74,-10.609 5.83,-16.9685 12.26,-19.1208 z m 131.2,101.8198 4.83,-8.449 c -1.35,-1.09 -3.22,-2.422 -5.64,-4.031 -0.27,-0.27 -0.8,-0.598 -1.61,-1.008 -0.8,-0.402 -1.34,-0.73 -1.61,-1.012 l -3.61,-2.41 c -0.28,-0.257 -0.88,-0.668 -1.82,-1.199 -0.94,-0.551 -1.68,-0.949 -2.21,-1.211 -0.54,-0.269 -1.34,-0.801 -2.42,-1.609 -1.07,-0.801 -1.87,-1.352 -2.41,-1.61 -2.96,-1.351 -4.7,-2.281 -5.23,-2.82 -0.54,-0.539 -1.48,-1.141 -2.82,-1.808 -1.34,-0.68 -2.28,-1.153 -2.82,-1.411 -0.26,-0.273 -0.74,-0.601 -1.4,-1 -0.68,-0.41 -1.15,-0.613 -1.41,-0.613 l -1.61,-0.797 c -0.28,0 -0.54,-0.14 -0.8,-0.402 -0.28,-0.27 -0.55,-0.41 -0.81,-0.41 -1.08,-0.27 -2.15,-0.801 -3.22,-1.598 -1.08,-0.281 -2.15,-0.812 -3.22,-1.609 -2.96,-1.352 -7.65,-3.364 -14.08,-6.043 -4.03,-1.61 -9,-3.36 -14.89,-5.231 -0.81,-0.277 -1.96,-0.609 -3.42,-1.008 -1.49,-0.402 -2.49,-0.609 -3.03,-0.609 -0.8,-4.82 -2.01,-9.652 -3.61,-14.48 -6.71,-20.93 -18.12,-36.9614 -34.21,-48.0903 -16.1,-11.1406 -32.34,-14.1523 -48.7,-9.0625 -16.37,5.0899 -27.9,16.8399 -34.6,35.2228 -6.71,18.367 -6.71,38.148 0,59.348 6.7,20.929 18.1,36.96 34.2,48.101 16.1,11.121 32.33,14.141 48.7,9.051 10.99,-3.492 19.98,-10.531 26.96,-21.133 6.97,-10.598 11,-22.867 12.07,-36.816 h 1.21 c 6.7,1.34 11.26,2.277 13.68,2.816 2.14,0.262 6.57,1.473 13.29,3.621 1.6,0.539 2.67,0.942 3.21,1.211 1.61,0.531 2.67,0.801 3.22,0.801 l 1.61,0.801 c 0.27,0 0.53,0.066 0.8,0.207 0.27,0.133 0.54,0.199 0.81,0.199 0.27,0.273 0.74,0.531 1.41,0.801 0.66,0.269 1.13,0.402 1.41,0.402 l 6.03,2.418 c 1.61,0.531 3.35,1.211 5.24,2.02 2.13,1.062 3.75,1.73 4.82,2.011 2.15,1.059 3.62,1.739 4.43,2.008 0.27,0.262 0.87,0.602 1.81,1.012 0.94,0.398 1.54,0.73 1.82,1 l 3.61,1.199 6.04,3.23" style="fill:#111011;fill-opacity:1;fill-rule:nonzero;stroke:none" id="path102" transform="matrix(0.133333, 0, 0, -0.133333, 0, 703.773315)"/>
  <path d="m 2501.09,183.191 c 4.29,-3.218 7.51,-5.492 9.66,-6.832 0.27,1.34 0.74,3.75 1.41,7.231 0.67,3.492 1.14,6.18 1.41,8.051 0,0.539 0.06,1.281 0.2,2.218 0.14,0.942 0.2,1.543 0.2,1.813 0.27,0.808 0.41,2.141 0.41,4.027 0.53,2.41 0.53,4.821 0,7.231 0,5.383 -1.08,9.531 -3.23,12.48 -1.6,3.231 -4.02,5.242 -7.23,6.039 -3.23,0.801 -6.85,0.262 -10.87,-1.609 -3.76,-2.149 -6.44,-4.828 -8.05,-8.051 -1.35,-2.957 -1.61,-6.566 -0.81,-10.867 1.07,-4.02 3.36,-7.91 6.85,-11.672 2.41,-3.211 5.76,-6.57 10.05,-10.059 z m 82.5,0.809 8.05,-2.418 c 0,-0.531 -0.14,-1.34 -0.4,-2.41 -0.27,-1.07 -0.95,-3.09 -2.01,-6.031 -1.08,-2.961 -2.41,-5.512 -4.02,-7.649 -1.62,-2.152 -3.97,-4.769 -7.05,-7.851 -3.08,-3.09 -6.7,-5.102 -10.87,-6.039 -4.16,-0.93 -9.25,-1.75 -15.29,-2.411 -6.03,-0.671 -12.95,0.211 -20.72,2.622 -3.22,-12.883 -6.71,-23.891 -10.47,-33 -4.56,-10.743 -9.79,-20.2622 -15.69,-28.5708 -5.64,-7.793 -11.94,-14.7617 -18.92,-20.9297 -5.1,-4.3008 -10.32,-8.0508 -15.69,-11.2734 -8.59,-5.3594 -19.05,-9.1172 -31.39,-11.2696 -11.81,-1.8789 -21.46,1.2813 -28.97,9.461 -7.52,8.1797 -12.68,19.9804 -15.5,35.4101 -2.81,15.4224 -4.7,30.2504 -5.64,44.4684 -0.93,14.211 -1.4,29.641 -1.4,46.282 0,16.629 -0.14,27.089 -0.4,31.39 1.87,0.801 4.28,1.61 7.24,2.41 2.95,0.809 8.26,1.481 15.9,2.008 7.65,0.543 14.48,-0.129 20.52,-2.008 6.03,-1.871 11.81,-6.5 17.3,-13.871 5.5,-7.39 8.66,-17.25 9.47,-29.578 2.95,-38.91 6.43,-64.801 10.46,-77.6795 4.56,4.0195 8.85,8.4575 12.88,13.2775 5.63,6.973 10.32,14.359 14.08,22.14 4.29,8.583 8.05,18.102 11.27,28.571 0,0.531 0.26,1.601 0.8,3.219 -1.88,0.812 -6.84,3.761 -14.88,8.851 -5.11,3.75 -9.54,7.649 -13.29,11.668 -4.29,4.563 -7.92,10.203 -10.86,16.91 -0.81,2.141 -1.48,5.762 -2.02,10.864 0,3.476 0.67,7.507 2.02,12.078 2.67,7.5 7.78,13.41 15.29,17.699 7.24,4.562 15.29,6.301 24.15,5.242 4.29,-0.812 8.45,-2.43 12.47,-4.84 3.22,-2.152 6.3,-5.23 9.26,-9.25 1.87,-2.691 3.75,-6.441 5.63,-11.269 l 2.41,-10.864 c 0.27,-2.429 0.4,-5.91 0.4,-10.468 v -5.231 c -0.26,-1.34 -0.4,-2.961 -0.4,-4.828 -0.8,-8.59 -2.01,-16.91 -3.62,-24.953 1.08,-0.539 2.55,-1.137 4.43,-1.809 1.87,-0.668 5.3,-1.48 10.26,-2.418 4.96,-0.941 9.46,-1.011 13.49,-0.203 4.02,0.801 8.17,3.223 12.47,7.25 4.28,4.024 7.38,9.793 9.25,17.301" style="fill:#111011;fill-opacity:1;fill-rule:nonzero;stroke:none" id="path104" transform="matrix(0.133333, 0, 0, -0.133333, 0, 703.773315)"/>
  <path d="m 2612.97,245.172 c -5.9,-5.902 -13.01,-8.852 -21.33,-8.852 -8.32,0 -15.43,2.95 -21.33,8.852 -5.9,5.898 -8.85,13.008 -8.85,21.32 0,8.328 2.95,15.43 8.85,21.328 5.9,5.903 13.01,8.86 21.33,8.86 8.32,0 15.43,-2.957 21.33,-8.86 5.9,-5.898 8.86,-13 8.86,-21.328 0,-8.312 -2.96,-15.422 -8.86,-21.32 z m 78.48,-59.961 11.67,-4.43 c -0.27,-0.269 -2.08,-4.16 -5.43,-11.672 -3.36,-7.519 -6.99,-15.359 -10.87,-23.539 -3.89,-8.187 -9.4,-17.507 -16.5,-27.968 -7.12,-10.461 -14.42,-19.6606 -21.93,-27.5707 -7.52,-7.9102 -16.51,-14.5508 -26.96,-19.9219 -10.47,-5.3672 -21.07,-7.9102 -31.8,-7.6485 -12.07,0.5391 -21.12,5.4414 -27.16,14.6914 -6.04,9.2579 -9.26,20.7891 -9.66,34.6097 -0.41,13.82 0.06,27.57 1.41,41.25 1.34,13.687 2.88,26.418 4.63,38.23 1.74,11.809 2.2,19.047 1.4,21.738 1.62,0.262 3.75,0.59 6.44,1.012 2.69,0.399 7.45,0.399 14.29,0 6.84,-0.422 12.67,-1.621 17.51,-3.633 4.82,-2.007 8.98,-5.839 12.47,-11.468 3.48,-5.641 4.56,-12.871 3.22,-21.731 -7.25,-49.097 -6.04,-75.531 3.62,-79.2811 4.03,-1.6094 9.52,0 16.5,4.8321 8.58,5.891 17.64,15.762 27.16,29.578 9.53,13.813 16.97,26.09 22.34,36.82 l 7.65,16.102" style="fill:#111011;fill-opacity:1;fill-rule:nonzero;stroke:none" id="path106" transform="matrix(0.133333, 0, 0, -0.133333, 0, 703.773315)"/>
  <path d="m 2759.45,204.121 c 19.32,-6.172 23.48,-22.801 12.48,-49.902 -1.88,0 -3.69,0.332 -5.44,1.011 -1.74,0.661 -2.88,1.399 -3.41,2.211 l -1.21,0.801 c 0.26,0.539 0.53,1.34 0.81,2.41 0.26,1.078 0.52,2.95 0.8,5.637 0.26,2.691 0.2,5.031 -0.2,7.043 -0.41,2.02 -1.55,3.887 -3.43,5.641 -1.87,1.738 -4.56,2.75 -8.04,3.007 -1.61,0.282 -3.02,0.34 -4.23,0.211 -1.2,-0.14 -3.21,-0.949 -6.04,-2.41 -2.81,-1.492 -5.37,-3.699 -7.64,-6.64 -2.28,-2.961 -4.63,-7.59 -7.04,-13.891 -2.42,-6.309 -4.3,-13.891 -5.64,-22.738 -4.56,-28.442 1.07,-41.8518 16.91,-40.2425 16.09,2.1407 38.49,17.4295 67.2,45.8825 17.97,17.7 29.38,31.52 34.21,41.438 l 8.05,-6.43 c -22.28,-41.59 -50.58,-72.578 -84.91,-92.9608 -28.72,-16.8984 -53.4,-22 -74.06,-15.289 -20.39,6.6992 -30.17,23.4609 -29.37,50.3008 0.26,4.82 0.8,9.918 1.61,15.289 1.87,11.539 5.23,21.73 10.06,30.59 4.83,8.851 10.32,15.82 16.5,20.93 6.16,5.082 12.68,9.312 19.51,12.671 6.85,3.348 13.69,5.489 20.53,6.438 6.85,0.941 12.94,1.273 18.31,1.004 5.36,-0.274 9.92,-0.942 13.68,-2.012" style="fill:#111011;fill-opacity:1;fill-rule:nonzero;stroke:none" id="path108" transform="matrix(0.133333, 0, 0, -0.133333, 0, 703.773315)"/>
  <path d="m 3030.29,174.34 7.65,-2.418 c -0.81,-2.68 -2.08,-6.172 -3.83,-10.449 -1.75,-4.301 -5.22,-11.883 -10.46,-22.754 -5.23,-10.86 -10.47,-20.317 -15.69,-28.367 -5.24,-8.039 -11.48,-15.0903 -18.72,-21.1215 -7.24,-6.0391 -14.22,-8.3907 -20.92,-7.0391 -7.79,1.5977 -13.95,9.3789 -18.52,23.3396 -4.57,13.942 -7.51,28.84 -8.85,44.668 -1.34,15.832 -3.76,30.18 -7.24,43.051 -3.5,12.883 -8.19,19.32 -14.09,19.32 -4.83,0 -8.58,-5.371 -11.27,-16.09 -2.69,-10.738 -4.96,-23.691 -6.84,-38.839 -1.88,-15.161 -4.42,-30.321 -7.64,-45.469 -3.23,-15.172 -9,-27.9728 -17.31,-38.4415 -8.32,-10.461 -19.05,-15.5586 -32.19,-15.2891 -8.59,-0.2695 -15.49,4.7578 -20.73,15.0977 -5.23,10.3203 -8.59,23.9414 -10.06,40.8439 -1.48,16.898 -2.21,35.867 -2.21,56.937 0,21.063 0.93,42.321 2.81,63.789 1.87,21.461 3.43,42.051 4.63,61.782 1.21,19.711 2.27,36.41 3.22,50.089 0.94,13.68 0.61,23.34 -1,28.981 1.87,0.531 4.35,1 7.44,1.41 3.08,0.399 8.45,0.27 16.1,-0.41 7.65,-0.672 14.29,-2.41 19.92,-5.219 5.64,-2.82 10.6,-8.191 14.89,-16.101 4.28,-7.911 5.89,-18.051 4.83,-30.391 -4.57,-59.559 -7.38,-109.461 -8.46,-149.699 10.2,48.019 25.09,72.039 44.68,72.039 10.46,0 18.57,-7.32 24.35,-21.938 5.76,-14.621 9.18,-30.793 10.26,-48.492 1.06,-17.711 2.88,-34.347 5.43,-49.898 2.55,-15.571 6.37,-24.02 11.46,-25.352 6.18,-1.617 14.1,3.621 23.75,15.692 9.66,12.07 17.85,24.55 24.55,37.418 l 10.06,19.32" style="fill:#111011;fill-opacity:1;fill-rule:nonzero;stroke:none" id="path110" transform="matrix(0.133333, 0, 0, -0.133333, 0, 703.773315)"/>
</svg>