<?xml version="1.0" encoding="UTF-8" standalone="no"?>
<!-- Created with Inkscape (http://www.inkscape.org/) -->

<svg
   version="1.1"
   id="svg2"
   xml:space="preserve"
   width="581.84003"
   height="688.20001"
   viewBox="0 0 581.84003 688.20001"
   xmlns="http://www.w3.org/2000/svg"
   xmlns:svg="http://www.w3.org/2000/svg"><defs
     id="defs6" /><g
     id="g8"
     transform="matrix(1.3333333,0,0,-1.3333333,0,688.2)"><g
       id="g10"
       transform="scale(0.1)"><path
         d="m 2780.76,3419.67 c 9.25,-0.29 15.78,-1.51 20.16,6.46 3.97,7.29 -1.87,28.06 -3.99,36.19 -2.58,10.01 -7.33,15.89 -21.26,16.96 -35.32,2.9 -187.63,-26.35 -262.43,-48.49 -62.94,-18.62 -81.27,-26.56 -137.24,-54.01 -5.38,-2.61 -9.31,-3.8 -10.39,-9.31 -5.05,-1.36 -10.04,-2.73 -15.03,-4.1 -4.15,-1.16 -7.48,-7.11 -5.25,-12.54 4.53,-11.14 5.68,-6.54 121.31,25.31 69.73,17.58 180.71,35.95 270.48,41.81 16.46,1.09 31.56,2.08 43.64,1.72"
         style="fill:#b82327;fill-opacity:1;fill-rule:nonzero;stroke:none"
         id="path12" /><path
         d="m 3448.95,3488.74 c -77.02,0.43 -95.25,-27.24 -122.49,-50.61 -8.65,-7.39 -23.34,-16.35 -37.39,-24.99 -10.56,-6.46 -10.6,-5.87 -19.75,-7.68 -2.78,-0.56 -5.18,-2.32 -6.58,-4.84 -15.11,-4.28 -7.93,-22.26 4.65,-17.48 46.82,17.81 214.55,36.96 274.33,34.25 10.01,-0.45 74.73,-4.13 117.26,-7.9 34.28,-3.04 63.92,-10.53 60.89,8.69 -8.78,55.13 -210.45,70.09 -270.92,70.56"
         style="fill:#b82327;fill-opacity:1;fill-rule:nonzero;stroke:none"
         id="path14" /><path
         d="m 2021.85,2080.63 c 34.96,-6.79 6.79,47.11 5.3,133.47 -0.59,34 1.36,35.6 -6.35,77.86 -4.04,22.3 -3.82,49.36 -34.51,27.86 -35.41,-24.66 -75.3,-73.29 -170.84,-113.59 7.27,2.41 -88.09,-38.19 -138.62,-55.28 -103.23,-34.96 -96.53,-40.92 -155.42,-61.41 -69.2,-24.13 -139.11,-61.2 -180.29,-86.28 -124.89,-75.87 -150.2,-176.9 -173.58,-246.82 -3.44,-4.53 -6.3,-6.97 -4.41,-12.47 -8.55,-22.28 16.87,-19.59 15.9,-6.79 0.88,2.27 1.73,4.56 2.53,6.87 l 3.11,4.13 -0.03,-0.03 c 176.62,231.48 591.17,380.12 837.21,332.48"
         style="fill:#b82327;fill-opacity:1;fill-rule:nonzero;stroke:none"
         id="path16" /><path
         d="m 2568.94,1549.18 c -4.55,-1.2 -24.86,-7.35 -33.48,-9.77 -5.27,0.36 -62.78,-16.32 -67.83,-17.79 -31.52,7.86 -43.56,5.43 -153.14,20.66 -172.59,23.89 -195.83,60.88 -220.23,79.53 -5.02,3.88 -12.39,4.17 -19.72,-2.12 -5.42,-4.62 -12.3,-13.78 -16.52,-19.3 -44.48,-57.27 -49.54,-62.56 -66.97,-81.02 -67.98,-72.05 -92.8,-90.99 -135.98,-130.67 -78.08,-71.73 -39.35,-52.58 -298.34,-238.01 -1.51,-0.47 -2.39,-1.16 -3.68,-2.06 -6.37,-4.4 -10.42,-9.39 -5.81,-15.74 2.91,-3.98 7.82,-5.22 13.38,-1.72 2.23,-0.24 171.76,73.3 174.37,74.33 140.04,55.27 412.04,148.62 561.96,206.78 0,0 131.93,50.28 138.89,53.22 110.07,46.49 41,13.83 125.58,57.15 12.21,6.31 21.01,9.29 22.04,16.25 0.95,6.55 -4.83,12.87 -14.52,10.28"
         style="fill:#b82327;fill-opacity:1;fill-rule:nonzero;stroke:none"
         id="path18" /><path
         d="m 3336.62,2504.46 c 16,0.33 19.69,13.75 5.65,23.1 -237.87,158.83 -259.7,243.46 -322.53,159.5 -56.65,-75.12 -129.93,-6.05 -104.87,69.82 10.87,32.83 -21.35,52.83 -110.74,-59.94 -7.2,-9.16 -3.92,-17.41 2.84,-19.85 13.47,-26.19 26.04,-46.95 44.61,-69.97 16.52,-20.28 26.81,-28.84 56.78,-26.63 10.94,5.32 83.54,38.53 83.54,38.53 5.62,2.24 15.65,6.09 21.37,4.1 18.27,5.42 77.82,-26.96 114.16,-40.68 9.14,-3.37 195.48,-72.81 209.19,-77.98"
         style="fill:#b82327;fill-opacity:1;fill-rule:nonzero;stroke:none"
         id="path20" /><path
         d="m 3127.43,2582.44 c -0.15,0.05 -0.3,0.11 -0.46,0.17 1.89,-0.7 2.39,-0.9 0.46,-0.17"
         style="fill:#b82327;fill-opacity:1;fill-rule:nonzero;stroke:none"
         id="path22" /><path
         d="m 3328.33,2014.77 c -66.1,-15.4 -121.24,-15.33 -226.39,-48.25 -70.57,-22.12 -185.89,-90.39 -186.29,-104.68 -8.48,-5.54 -3.76,-20.26 8.69,-16.84 125.39,34.16 408.94,75.87 398.92,74.06 18.61,3.36 15.14,18.6 28.08,79.03 1.14,5.28 2.57,10.41 -0.66,14.72 -4.83,6.45 -14.48,3.73 -22.35,1.96"
         style="fill:#b82327;fill-opacity:1;fill-rule:nonzero;stroke:none"
         id="path24" /><path
         d="m 3310.17,2147.71 c 8.83,7.9 9.84,25.52 7.62,36.51 -3.33,16.56 -24.86,17.82 -70.69,16.77 -202.48,-4.29 -293.04,-18.99 -360.11,-30.22 -148.76,-25.19 -123.11,-31.99 -162.08,-80.26 -5.55,-6.61 -4.51,-12.83 -0.86,-16.24 10.5,1.29 22.7,2.64 26.89,3.06 0.21,0.33 0.39,0.67 0.56,1.02 69.77,15.49 140.91,24.21 163.69,26.37 394.65,37.41 385.3,34.29 394.98,42.99"
         style="fill:#b82327;fill-opacity:1;fill-rule:nonzero;stroke:none"
         id="path26" /><path
         d="m 3236.67,4596.13 c 4.78,-10.08 20.51,-18.22 30.69,-22.94 37.89,-17.69 68.78,-25.31 133.31,33.72 67.46,61.77 125.68,174.43 130.52,201.87 0.66,3.64 -2.27,8.67 -7.36,9.76 -3.96,20.26 -26.74,-3.34 -111.28,-71.66 -174.12,-140.8 -183.02,-135.61 -175.88,-150.75"
         style="fill:#b82327;fill-opacity:1;fill-rule:nonzero;stroke:none"
         id="path28" /><path
         d="m 3461.86,4615.73 c -2.54,-44.12 151.49,-60.91 197.28,-55.78 77.35,8.61 115.84,130.36 148.18,202.8 -0.02,-0.03 -0.03,-0.06 -0.05,-0.09 5.38,10.81 9.57,12.64 6.57,19.45 -4.6,10.47 -11.6,3.75 -62.54,-17.32 -23.7,-9.82 -306.32,-126.11 -289.44,-149.06"
         style="fill:#b82327;fill-opacity:1;fill-rule:nonzero;stroke:none"
         id="path30" /><path
         d="m 3970.94,4627.93 c 1.14,8.8 -3.71,15.36 -12.85,15.36 -11.5,0 -221.2,-62.48 -234.47,-71.69 -1.48,0.56 -3.13,0.67 -4.67,0.39 -9.49,-1.75 -11.38,-7.53 -13.88,-16.89 -17.51,-64.85 38.85,-68.52 105.7,-64.12 25.79,1.65 46.48,6 91.15,46.48 19.19,17.42 65.89,65.63 69.02,90.47"
         style="fill:#b82327;fill-opacity:1;fill-rule:nonzero;stroke:none"
         id="path32" /><path
         d="m 4163.56,4234.03 c -3.04,2.1 -7.11,2.4 -11.15,-0.48 -146.02,-103.04 -198.14,-130.75 -252.12,-167.36 -33.71,-22.38 107.42,-102.51 233.61,30.17 l -0.67,-0.64 c 1.01,0.97 0.64,0.6 1.67,1.69 l -0.98,-0.94 c 18.71,19.56 26.9,35.81 33.05,48.64 9.98,20.95 21.32,101.44 -3.41,88.92"
         style="fill:#b82327;fill-opacity:1;fill-rule:nonzero;stroke:none"
         id="path34" /><path
         d="m 4151.55,3820.04 c -9.35,0 -31.08,-12.02 -47.67,-20.74 -147.01,-76.89 -74.72,-46.91 -212.04,-99.09 -11.24,-4.27 -3.95,-22.82 7.95,-17.11 0.85,-5.13 8.58,-9.99 13.14,-13.79 64.13,-53.82 180.95,-44.41 221.24,-1.48 32.28,34.4 38.73,115.07 37.49,131.45 -0.82,11.44 -7.58,20.76 -20.11,20.76"
         style="fill:#b82327;fill-opacity:1;fill-rule:nonzero;stroke:none"
         id="path36" /><path
         d="m 1908.99,3972.52 c 95.92,-29.2 230.53,47.65 257.64,253.57 2.73,20.41 -5.19,25.64 -13.11,24.59 -16.62,-2.08 -290.95,-172.12 -326.69,-193.51 -4.29,-2.56 -5.35,-8.59 -2.75,-12.69 -6.45,2.18 -14.56,-5.04 -11.84,-13.24 7.03,-21.57 57.86,-46.82 96.75,-58.72"
         style="fill:#b82327;fill-opacity:1;fill-rule:nonzero;stroke:none"
         id="path38" /><path
         d="m 1843.79,3646.24 c -3.74,-2.3 -5.27,-7.4 -3.47,-11.62 -0.56,-1.17 -0.68,-2.25 -0.9,-3.54 -29.61,0.49 10.78,-77.6 134.26,-74.03 60.6,1.72 99.44,36.28 136.61,83.68 33.5,42.36 40.91,53.94 68.42,141.72 9.28,29.68 2.77,53.92 -17.79,45.4 -49.47,-20.24 -283.43,-160.93 -317.13,-181.61"
         style="fill:#b82327;fill-opacity:1;fill-rule:nonzero;stroke:none"
         id="path40" /><path
         d="m 1871.2,3153.59 c 19.22,-10.97 55.51,-21.95 75.64,-27.91 82.14,-24.36 145.31,3.51 184.12,63.33 32.9,50.81 61.29,185.65 10.23,157.87 -10,-5.35 -273.6,-156.06 -276.88,-172.91 -0.27,-1.31 -0.24,-2.72 0.08,-4.08 -3.29,-5.16 -2.06,-11.3 6.81,-16.3"
         style="fill:#b82327;fill-opacity:1;fill-rule:nonzero;stroke:none"
         id="path42" /><path
         d="m 2868,4585.52 c 0.91,-1.75 2.36,-3.16 4.07,-3.97 4.92,-2.34 24.81,-4.69 30.23,-5.25 100.05,-10.35 148.42,19.87 184.02,61.61 -4.33,-15.86 -3.94,-48.93 -3.14,-65.35 2.82,-56.78 36.91,-46.43 84.5,-19.65 33.06,19.25 43.47,33.16 55.22,47.23 22.16,26.68 67.87,84.98 85.28,114.81 38.85,65.98 15.62,89.84 3.55,78.71 -1.68,1.77 -4.04,2.81 -6.67,2.81 -4.85,0 -54.98,-35.94 -59.13,-38.83 -20.99,-14.64 -47.13,-31.48 -47.13,-31.48 0,0 -0.22,-0.16 -0.21,-0.16 -36.12,-22.93 -60.56,-40.55 -96.11,-66.27 13.51,20.63 7.41,29.5 -2.24,29.5 -1.19,0 -71.21,-26.76 -72.5,-27.24 -89.75,-33.61 -16.36,-12.03 -160.67,-58.32 -8.76,-2.82 -8.72,-15.96 0.93,-18.15"
         style="fill:#b82327;fill-opacity:1;fill-rule:nonzero;stroke:none"
         id="path44" /><path
         d="m 2862.07,3470.68 c 8.48,-11.35 73.71,-105.64 82.37,-113.89 4.39,10 22.02,49.52 37.26,82 11.2,31.52 33.28,87.99 46.24,117.15 -0.4,0.51 -0.86,0.98 -1.38,1.39 l 0.23,0.63 c 0.6,1.83 2.11,6.29 2.48,8.16 1.56,7.7 -3.62,12.95 -9.29,12.95 -4.44,0 -8.08,-2.96 -9.09,-7 -28.42,-14.95 -41.02,-15.1 -74.35,-13.49 -16.78,0.8 -23.62,0.89 -37.68,0.81 -53.37,-0.41 -54.91,8.9 -92.53,18.4 -4.26,6.43 -11.14,6.39 -15.1,2.64 -8.4,1.54 -14.13,-8.8 -9.29,-14.4 62.81,-73.26 25.56,-22.51 80.13,-95.35"
         style="fill:#b82327;fill-opacity:1;fill-rule:nonzero;stroke:none"
         id="path46" /><path
         d="m 2385.02,2543.47 c -49.81,9.02 -91.76,41.49 -125.35,65.27 -62.13,43.96 -58.93,68.63 -162.92,2.64 -28.39,-17.97 -36.55,-30.8 -52.75,-45.8 -4.83,-4.44 -8.35,-8.42 -4.67,-14.49 -10.77,-11.31 13.14,-21.98 27.7,-29.6 30.06,-15.59 100.58,-68.45 310.46,-10.92 19.6,5.38 38.21,10.98 48.04,12.07 8.63,1.06 11.29,6.24 9.79,11.63 -3.34,11.79 -15.95,2.97 -50.3,9.2"
         style="fill:#5dcbf5;fill-opacity:1;fill-rule:nonzero;stroke:none"
         id="path48" /><path
         d="m 3399.84,3304.71 c -0.27,-0.05 -2.02,-0.07 -2.36,-0.08 0.8,0.05 1.59,0.07 2.36,0.08 z m 50.47,-505.37 h -0.03 c -0.48,-9.23 -1.19,-21.69 -2.88,-31.69 -1.78,-10.41 12.27,-14.01 16.16,-5.02 13.56,2 6.93,19.55 2.75,44.37 7.57,186.96 13.57,248.06 20.37,312.97 2.99,28.53 8.23,58.4 6.66,65 -3.56,14.75 -40.67,15.02 -54.03,20.72 -15.08,52.84 -15.43,103.84 -28.99,114.07 -11.03,7.27 -34,-3.39 -44,-1.53 -23.19,40.56 -21.61,55 -32.99,55 -11.7,4.2 -26.39,2.28 -39.39,1.99 -33.94,-0.79 -1.15,-36.99 40.52,-139.9 127.67,-313.58 104.1,-387.79 115.85,-435.98"
         style="fill:#5dcbf5;fill-opacity:1;fill-rule:nonzero;stroke:none"
         id="path50" /><path
         d="m 3440.54,1966.27 c 21.9,97.72 -11.8,579.11 -10.47,557.19 -0.41,6.77 -8.45,11.42 -14.65,7.01 -8.02,5.09 -23.68,-6.64 -30.92,-12.74 -10.71,-8.98 -7.19,-11.08 -4.29,-48.66 14,-180.94 21.51,-181.07 8.07,-220.98 l 0.25,0.54 c -3.66,-10 -5.9,-23.46 -29.1,-59.93 -8.04,-11.21 -50.76,-50.36 -31.34,-81.33 6.38,-10.21 13.67,-18.83 22.14,-27.09 3.05,-2.98 14.13,-14.06 15.42,-18.13 -8.8,-66.44 -16.35,-107.63 -18.17,-129.31 -1.23,-14.01 7.53,-19.01 16.89,-13.49 54.94,32.69 70.84,23.15 76.17,46.92"
         style="fill:#5dcbf5;fill-opacity:1;fill-rule:nonzero;stroke:none"
         id="path52" /><path
         d="m 1813.61,1973.89 c -233.92,-22.06 -297.33,-153.59 -517.29,-254.78 -44.11,-20.32 -54.68,-26.82 -74.91,-38.7 -25.81,-15.16 -23.44,-14.58 -42.7,-27.01 -12.96,-1.36 -7.63,-12.85 -16,-128.77 -3.71,-51.7 -10.02,-88.29 12.75,-80.09 19.52,7.08 95.98,95.25 154.79,141.38 287.48,225.56 404.57,299.75 574.93,368.53 4.13,1.65 9.73,3.56 12.42,6.91 2.51,3.11 2.97,7.29 1.16,10.67 -6.86,12.96 -36.74,8.34 -105.15,1.86"
         style="fill:#5dcbf5;fill-opacity:1;fill-rule:nonzero;stroke:none"
         id="path54" /><path
         d="m 3532.57,1645.86 c -36.57,-22.94 -54.77,-39.27 -93.73,-66.16 -24.03,-16.55 -37.7,-24.65 -48.25,-64.11 -10.57,-40.07 -13.83,-118.82 -25.06,-143.56 -7.87,-17.08 11.34,-20.62 14.89,-10.57 1.61,-1.24 5.25,-2.03 7.52,-1.05 258.63,113.67 333.49,126.07 451.45,159.09 322.38,90.13 318.3,74.66 322.82,90.7 13.61,45.09 -489.16,124.26 -629.64,35.66"
         style="fill:#5dcbf5;fill-opacity:1;fill-rule:nonzero;stroke:none"
         id="path56" /><path
         d="m 1837.2,4809.23 -0.37,-0.43 c 26.22,32.59 66.95,79.09 75.56,125.15 8.7,47.32 -4.63,95.5 -25.21,127.56 -9.98,15.62 -16.09,19.44 -29.12,24.18 -42.65,15.58 -118.82,-25.29 -157.86,-48.98 -89.59,-54.27 -79.03,-50.12 -156.79,-118.71 -18,-15.9 -29.35,-25.38 -51.93,-48.87 -8.31,-8.62 4.24,-21.09 12.93,-11.97 l 0.6,0.13 c 4.24,-0.54 57.26,25.21 61.11,27.06 33.82,16.19 111.48,49.19 148.36,51.09 -1.86,-37.41 -183.48,-298.54 -292.05,-434.56 -105.16,-131.93 -290.82,-404.51 -294.7,-430.38 -1.26,-8.64 3.75,-12.83 9.51,-12.83 8.36,1.09 24.54,17.46 30.51,23.45 250.89,251.81 318.72,278.96 669.45,728.11"
         style="fill:#5dcbf5;fill-opacity:1;fill-rule:nonzero;stroke:none"
         id="path58" /><path
         d="m 1497.56,4039.6 c 56.78,101.11 136.94,182.59 136.94,182.59 7.87,15.09 -11.1,45.31 -96.65,30.72 -96.05,-16.34 -172.51,-140.56 -158.66,-225.47 13.3,-82.48 58.1,-125.48 65.69,-146.77 1.65,-4.56 7.37,-6.63 11.84,-4.91 6.81,-3.01 14.16,3.3 12.84,10.04 -10.04,50.57 -10.79,80.85 28,153.8"
         style="fill:#5dcbf5;fill-opacity:1;fill-rule:nonzero;stroke:none"
         id="path60" /><path
         d="m 1651.33,3780.77 c 21.32,26.6 -75.48,88.2 -212.25,-4.28 -48.59,-32.77 -96.02,-101.01 -84.29,-177.84 13.66,-91.41 56,-125.68 71.5,-170.63 2.82,-10.78 11.35,-11.27 15.94,-6.31 21.74,-1.14 -2.74,34.25 5.98,110.43 11.37,98.48 107.92,182.2 189.64,238.35 3.79,2.6 10.9,7.06 13.48,10.28"
         style="fill:#5dcbf5;fill-opacity:1;fill-rule:nonzero;stroke:none"
         id="path62" /><path
         d="m 1602.34,3301.74 c 6.04,4.6 22.21,15.95 24.7,22.79 3.13,7.95 -2.01,17.7 -23.93,18.37 -63.71,2.18 -167.7,-19.1 -211.7,-93.84 -18.31,-31 -24.14,-56.22 -25.91,-86.76 -0.6,-10.22 -0.76,-22.37 -0.59,-31.06 1.55,-81.5 13.58,-108.11 47.87,-159.03 12.2,-18.14 16.99,-22.57 34.31,-36.23 4.48,-3.55 10.18,-7.75 15.76,-6.27 2.52,-1.48 6.09,-3.7 8.76,-3.7 9.59,0 14.46,12.83 3.73,18.4 -4.55,2.38 -6.36,3.87 -9.29,6.63 -17.3,17.33 -28.78,39.71 -30,71.64 -0.08,11.03 1.23,22.74 4.01,35.79 l -0.28,-0.94 c 0.26,1.03 2.98,11.93 3.16,12.85 0,-0.06 -0.02,-0.16 -0.02,-0.16 17.66,73.32 69.65,163.11 159.42,231.52"
         style="fill:#5dcbf5;fill-opacity:1;fill-rule:nonzero;stroke:none"
         id="path64" /><path
         d="m 3904.4,3328.04 c 0.23,-5.09 0.75,-9.44 6.2,-11.4 3.97,-17.33 21.76,-8.92 18.83,1.82 -17.56,64.5 55.21,156.82 127.84,187.93 23.83,10.18 34.59,11.52 36.11,20.12 2.58,17.71 -45.91,42.14 -104.12,35.42 -59.9,-6.93 -111.74,-60.62 -109.43,-131.76 1.3,-42.73 19.08,-67.74 24.57,-102.13"
         style="fill:#5dcbf5;fill-opacity:1;fill-rule:nonzero;stroke:none"
         id="path66" /><path
         d="m 3857.13,3084.78 c 0.3,-12.87 -0.8,-14.39 3.25,-19.78 1.35,-9.71 14.04,-10.45 17.21,-3.67 9.86,21.16 21.69,48.6 21.69,48.6 v 0 c 44.23,96.24 55.75,99.94 105.28,154.01 12.5,13.52 -3.71,31.15 -60.93,12.29 -40.23,-13.25 -60.93,-33.63 -73.88,-62.25 -25.64,-56.22 -14.1,-67.28 -12.62,-129.2"
         style="fill:#5dcbf5;fill-opacity:1;fill-rule:nonzero;stroke:none"
         id="path68" /><path
         d="m 2696.21,3398.87 c 3.24,13 -4.34,41.5 -39.38,40.77 -12.82,7.3 -49.27,-10.59 -43.16,-40.47 10.47,-50.72 73.56,-38.22 82.54,-0.3"
         style="fill:#111011;fill-opacity:1;fill-rule:nonzero;stroke:none"
         id="path70" /><path
         d="m 2581.18,3348.37 c -4.73,10 -26.91,28.86 -19.57,85.24 40.8,9.7 109.85,25.75 151.75,29.75 17.18,-40.47 10.21,-86.57 -3.95,-102.16 -2.26,-2.13 -3.66,-4.46 -3.46,-7.67 -10.01,-0.7 -19.43,-1.26 -53.65,-1.45 -63.31,0.21 -36.84,-1.68 -71.12,-3.71 z m -200.68,-5.79 -0.08,-0.03 v 0.03 c -8.81,0.32 -18.19,0.7 -24.86,6.5 29.04,13.13 58.68,38.08 134.01,64.18 -0.83,-21.02 5.76,-46.74 21.43,-67.08 -16.83,-0.31 -130.5,-3.6 -130.5,-3.6 z m 389.95,122.98 c 0.94,-0.13 0.59,-0.09 1.63,-0.18 34.26,-43.6 -6.75,-56.07 133.56,-52.8 7.35,0.17 19.34,0.13 26.56,-1.26 1.66,-0.35 3.2,-0.25 4.53,0.19 -3.28,-7.84 0.3,-0.97 -7.36,-15.51 -2.79,1.62 -9.7,1.35 -13.18,1.52 -52.45,2.85 -72.92,24.05 -81.12,-3.06 -11.2,-35.28 -4.76,-29.47 -67.93,-35.34 20.14,33.88 16.99,69.77 3.31,106.44 z m 118.24,-137.6 v 0.01 c 0.03,0.03 0.06,0.06 0.11,0.09 -0.05,-0.04 -0.08,-0.07 -0.11,-0.1 z m -139.59,3.85 c 93.3,3.46 99.59,2.15 114.81,40.24 0,0 23.19,-1.18 47.54,-0.9 -0.05,-0.41 -0.08,-0.84 -0.15,-1.25 -7.56,-10.47 -42.93,1.38 -46.84,-26.99 -3.19,-23.76 -1.05,-18.38 -70.51,-30.8 -49.99,-8.92 -174.88,-35.67 -176.74,-36.3 0,-0.02 -2.74,-11.58 -2.74,-11.59 -0.02,0 -0.04,0 -0.06,-0.01 -3.71,-15.37 -3.51,-16.74 -4.15,-23.18 6.61,-5.21 -0.52,-4.1 151.45,25.67 78.69,15.3 108.98,8.67 122.7,26.02 7.7,10 2.99,24.02 4.11,34.02 13.54,2.41 30.11,2.76 42.16,8.77 24.24,12 24.95,40.26 12.71,51.6 7.19,14.08 19,30.09 -0.71,45.31 -4.62,3.54 -16.22,7.04 -22.25,9.16 -14.49,5.16 -20.97,6.69 -54.24,9.7 -21.73,1.78 -39.04,-2.44 -52.56,3.83 -0.78,2.03 -0.99,5.74 -1.14,7.94 -1.12,14.2 -6.48,24.81 -10.67,29.03 -56.57,56.12 -359,-34.1 -427.04,-18.86 -21.19,6.07 -57.16,21.42 -67.52,41.06 2.01,6.91 5.57,19.53 7.8,28.05 l -0.44,-0.76 c 3.32,10.01 15.36,60.13 61.89,108.23 51.71,49.93 120.1,65.3 187.77,53.83 90.63,-14.7 150.67,-111.28 221.72,-158.64 11.99,-7.97 74.71,-56.36 135.63,-60.06 88.41,-5.53 183.42,87.7 123.71,232.31 -0.88,2.2 -2.59,3.94 -4.83,4.89 -0.5,10.92 -19.83,10.15 -18.33,-2.69 6.78,-56.05 -4.03,-123.21 -56.68,-144.31 -33.46,-13.19 -94.15,3.52 -123.64,15.37 -81.71,33.33 -177.12,169.49 -310.79,172.52 -195.66,4.38 -262.35,-218 -250.06,-248.09 0.2,-4.82 1.65,-8.07 3.63,-11.19 3.45,-5.95 61.97,-46.22 92.54,-55.03 -65.23,-8.08 -78.47,14.56 -88.47,14.56 -7.47,0 -12.3,-8.34 -8.01,-15.05 2.46,-10 57.68,-47.43 147.32,-18.03 -77.39,-38.9 -117.48,-87.78 -164.06,-37.25 -8.13,8.87 -19.72,0.61 -16.71,-8.89 -4.74,-10.01 42.97,-51.19 82.53,-44.13 3.23,-2.99 6.29,-5.87 9.34,-8.74 -54.75,-24.84 -111.17,-45.62 -72.42,-62.64 35.3,-16.13 45.81,6.19 107.05,48.01 83.32,-9.9 201.08,7.78 375.35,15.26"
         style="fill:#111011;fill-opacity:1;fill-rule:nonzero;stroke:none"
         id="path72" /><path
         d="m 2930.24,3290.99 c -3.79,-1.5 -8.19,-9.37 -10.45,-12.84 -50.72,-77.72 -138.57,-106.52 -150.06,-118.85 1.72,-17.01 2.2,-29.1 3.28,-41.59 5.74,-1.84 9.59,1.68 15.12,4.91 12.73,6.9 113.5,48.09 147.1,100.57 31.64,49.59 7.94,80.16 -4.99,67.8"
         style="fill:#111011;fill-opacity:1;fill-rule:nonzero;stroke:none"
         id="path74" /><path
         d="m 3537.19,3452.28 c -40.51,2.1 -54.67,-41.45 -17.61,-61.11 8.81,-5.66 18.45,-7.35 27.86,-5.39 23.49,4.85 34.87,15.53 28.25,39.81 -4.86,17.89 -26.28,26.05 -38.5,26.69"
         style="fill:#111011;fill-opacity:1;fill-rule:nonzero;stroke:none"
         id="path76" /><path
         d="m 3428.48,3378.93 -0.48,0.25 c -18.56,0.93 -68.61,-4.34 -145.03,4.07 -2.7,3.89 -5.46,7.82 -8.25,11.73 69.73,9.69 67.73,-2.21 100.05,50.68 6.97,11.96 9.13,12.28 18.65,13.22 -3.4,-10 -6.94,-47.05 35.06,-79.95 z m 159.87,1.5 c -10,0.04 -72.42,-1.97 -125.34,-1.82 0.5,0.37 -1.97,3.74 -2.68,4.36 -16.82,19.11 -12.7,67.28 13.16,77.75 60.5,-0.23 105.59,-9.21 115.59,-10.74 -0.96,-20.04 5.26,-52.54 -0.73,-69.55 z m 47.15,61.98 0.69,-0.39 c 55.74,-10.46 59.66,-10.66 74.34,-35.34 3.62,-6.02 6.83,-12.43 9.09,-19.11 l -0.33,0.24 c -4.91,0.19 -72.69,-3.72 -77.59,-4.02 6.31,24.23 2.87,35.26 -6.2,58.62 z m -150.86,-1735.7 c -30.35,-74.87 -46.29,-145.41 -289.04,-173.66 -166.51,-19.17 -412.59,-10.69 -467.27,13.01 -15.13,8.21 -18.78,36.58 -46.67,44.85 -19.27,6.4 -49.02,-2.95 -61.84,-6.34 -44.87,-11.71 -44.81,-8.77 -105.65,-20.47 -96.81,-18.5 -137.08,-14.94 -252.6,7.33 -115.89,24.06 -134.89,61 -148.11,94.98 -2.81,7.23 -4.64,14.33 -6.18,20.93 l -0.25,-0.6 0.02,-0.32 c 0,0 -21.61,108.29 -38.66,385.43 -23.92,390.07 -37.88,441.25 77.25,511.97 30.85,19.39 36.29,22.29 61.18,20.77 40.41,-75.71 134.51,-111.15 231.06,-78.83 10,3.05 8.03,19.15 -3.5,19.36 -2.8,1.79 -6.79,1.36 -10.25,1.35 -168.72,-0.34 -173.46,133 -183.91,488.39 -30.71,1263.74 -150.85,1405.76 144.5,1515.61 77.96,28.92 107.12,15.98 249.43,41.92 20.47,-12.76 64.78,-26.1 86.96,-35.78 17.2,-8.18 32.61,-15.57 47.01,-23.31 149.05,-82.58 175.1,-47.18 225.64,-44.07 1.46,0.61 1.1,0.54 2.7,0.63 l 0.72,0.29 c 10.89,2 26.46,5.9 37.72,11.22 1.01,-0.66 10.89,-1.38 12.16,-1.52 10,-0.74 82.77,-15.97 136.36,0.06 16.91,3.85 38.2,17.13 48.2,26.8 l 1.24,-1.38 c 101.05,-46.81 129.53,-23.95 217.25,42.96 10,-4.85 124.37,-41 183.15,-44.38 174.3,-91.15 140.18,-246.62 187.95,-1063.27 1.25,0.87 0.79,0.48 1.95,1.69 -1.28,-2.09 -0.88,-1.34 -1.8,-3.35 0.55,-13.45 1.55,-27.84 2.22,-39.1 -1.37,0.07 -80.37,2.33 -81.81,1.83 -10.22,24.83 -24.87,43.78 -54.44,59.08 l 0.47,-0.13 c 11.67,1.22 53.17,5.44 61.25,14.07 7.16,3.56 6.45,10.98 6.58,19.14 0.92,31.96 -3.74,62.73 -28.41,99.79 -35.65,54.3 -122.53,111.71 -138.09,120.08 -49.96,27.88 -117.45,33.48 -129.22,33.48 -138.84,0 -226.25,-172.57 -187.06,-273.79 4.02,-10.24 15.97,-8.27 18.6,-0.45 4.29,3.41 3.5,8.15 3.93,13.89 4.62,64.61 28.88,127.65 82.11,162.29 26.83,16.45 51.07,28.72 85.25,29.09 92.07,0 207.72,-81.77 256.04,-173.28 l -0.9,0.28 c -98.13,-7.95 -215.46,54.78 -263.62,54.78 -7.64,0 -31.68,-1.53 -36.02,-7.85 -6.05,-8.43 1.44,-20.86 9.66,-18.21 45.83,9.08 70.99,-23.24 117.19,-45.95 -20.04,1.15 -62.89,-2.21 -75.12,-3.2 -158.93,-12.47 -102.76,-10.05 -141.07,-54.34 -10.71,-11.32 -32.27,-11.47 -82.08,-19.14 -25.82,31.71 -105.52,120.59 -113.22,128.07 -4.29,4.17 -12.2,3.13 -15.23,-2.7 -2.86,-3.26 -2.46,-8.83 -2.65,-13.47 -0.36,-10.93 5.27,-16.84 12.58,-25.21 263.44,-302.18 314.62,-763.94 279.59,-947.66 -17.69,-13.4 -38.83,-20.92 -48.84,-22.31 -58.34,-1.43 -261.69,257.62 -341.38,184.85 -16.74,-15.32 -23.78,-75.92 -43.51,-75.92 -19.97,0 -47.54,46.39 -51.84,56.39 -3.16,9.74 -4.69,20.4 14.53,44.28 12.02,13.77 27.9,24.86 33.97,27.44 2.38,0.98 4.69,4.1 4.84,7.57 6.54,8.52 -3.67,19.53 -21.78,19.53 -119.8,0 -326.19,-192.24 -363.36,-501.74 -5.2,-42.88 -0.06,-103.63 5.95,-121.12 15.39,-12.89 36.1,-27.8 51.66,-38.35 0.29,0.32 0.42,0.48 0.53,0.64 -4.57,123.66 7.34,182.96 29.99,258.54 33.91,113.68 118.95,277.36 209.56,344.24 -4.52,-11.06 -4.41,-23.55 -4.41,-33.55 0.05,-51.23 13.17,-85.05 63.25,-98.73 102.75,-28.21 85.14,46.94 108.25,78.02 28.01,29.61 218.9,-187.51 310.27,-217.07 9.73,-53.05 15.14,-120.53 18.73,-194.13 l 0.01,0.04 0.03,-0.57 0.02,0.53 c 0,0 0.83,-19.06 1.01,-31.87 -60.76,21.31 -260,-17.3 -326.25,-32.6 -148.49,-34.36 -73.89,-18.64 -152.61,-38.8 -100.61,-25.7 -160.47,-13.16 -186.93,-94.3 -10.47,-17 -16.82,-31.57 -14.83,-81.63 -0.08,-3.23 -0.49,-12.23 0.78,-15.2 0.97,-16.36 -0.09,-19.44 4.87,-22.89 1.91,-1.32 4.4,-1.95 6.88,-1.51 10.11,1.82 7.27,12.68 6.38,25.42 0.46,1.38 0.33,16.76 0.38,18.57 1.02,36.58 10.45,62.74 13.71,72.75 36.2,56.99 44.26,45.44 363.46,80.12 v -0.03 c 1.33,0.06 139.65,0.22 162.79,0.84 12.01,-10.03 63.58,-63.77 105,-28.29 34.93,30.02 35.05,79.73 33.49,128.78 -0.77,25.53 -6.14,135.35 -18.01,210.95 23.71,-2.8 62.84,13.83 73.11,20.32 18.13,11.37 29.34,25.14 31.66,54.33 16.82,204.55 -0.11,391.07 -102.95,641.79 3.46,-1.53 43.96,-12.79 48.12,-14.01 46.47,-13.62 57.77,-17.34 70.98,-15.84 20.86,2.63 27.44,21.34 11.4,26.71 -10,3.35 -112.83,36.99 -149.69,47.15 -6.56,13.86 -16.05,31.99 -24.04,46.12 0,0 14.56,2.52 110.85,6.03 34.25,0.99 83.3,0.12 83.3,0.12 18.23,1.21 27.01,21.02 -9.41,23.83 -93.59,7.04 -132.76,4.36 -206.36,7.97 -6.45,10.76 -15.32,24.84 -20.36,32.54 30.05,-4.91 342.65,3.58 352.66,4.21 99.79,6.97 149.26,-15.55 153.04,5.64 0.35,10.58 -6.25,13.24 -42,18.95 1.05,0.03 59.05,11.33 60.09,11.54 -0.14,-10 31.09,-567.79 -26.04,-747.96 -67.53,-101.26 -249.02,-115.03 -223.26,-328.06 14.04,-116.41 12.23,-76.47 18.28,-134.63 10.49,-101.35 -15.14,-183.49 -62.65,-258.47 -53.11,-83.81 -34.25,-93 -46.57,-220.83 z M 3357.43,1420 c -13.66,-27.29 -29.52,-51.72 -57.1,-72.3 -20.05,-15.05 -122.14,-67.28 -184.3,-100.06 -219.86,-114.16 -316.58,-114.36 -199.51,-248.402 68.81,-77.136 37.91,-46.656 80.7,-98.109 79.75,-96.231 133,-126.309 187.22,-180.859 3.86,-3.848 11.4,-12.801 13.73,-17.739 -10,4.231 -14.92,1.821 -41.75,17.098 -238.6,143.93 -242.75,337.611 -399.64,401.381 -26.36,11.26 -56.88,10.95 -82.03,-8.38 -86.84,-67.05 35.62,-164.091 109.65,-306.388 85.62,-163 102.52,-156.051 74.91,-177.152 -0.85,2.492 -38.81,55.172 -40.35,57.301 -72.39,99.82 -175.59,309.429 -272.93,354.849 -17.32,8.39 -29.9,15.43 -43.08,15.43 -13.95,0 -26.82,-7.37 -26.89,-21.28 0,-32.95 34.95,-55.011 99.99,-211.648 24.39,-62.25 97.28,-205.703 82.14,-266.742 -1.4,-4.531 -2.61,-7.77 -6.83,-9.16 -100.57,-18.559 -167.01,209.629 -387.13,539.09 -12.5,18.79 -21.98,26.3 -31,31.42 -2.57,1.53 -5.73,2.62 -9.4,3.23 -13.28,7.71 -244.84,-13.21 -254.84,-14.28 l -0.37,-0.15 c -2.77,-0.17 -11.03,-1.05 -13.99,-1.35 l 0.18,-0.43 c -40.21,-1.73 -405.2,-67.5 -442.32,-77.35 0,0 -102.94,-25.11 -142.44,-32.418 -10,-1.622 -24.31,-4.981 -37.76,-4.981 -4.69,0 -8.07,0.129 -12.29,1.52 l 0.54,0.168 c 12.78,15.341 86.47,85.141 96.48,94.481 132.4,12.05 372.28,179.19 444.94,251.79 64.24,65.08 158.81,155.7 217.88,270.8 l 0.25,-0.68 c 93.92,-103.89 273.65,-109.21 412.9,-99.31 33.67,2.47 47.44,3.39 66.38,7.04 142.26,28.11 82.34,4.65 155.11,-53.03 65.7,-52.13 295.3,-28.1 403.09,-17.56 93.45,9.05 135.14,9.3 253.61,39.96 0.79,-21.76 5.19,-27.84 -13.75,-65.8 z m -1992.82,-66.89 c 112.7,244.12 526.77,337.83 657.76,483.21 -1.89,-11.69 13.11,-149.68 42.45,-204.94 -86.38,-111.85 -119.25,-171.03 -220.54,-248.72 -53.42,-40.47 -170.38,-141.56 -327.75,-170.67 -10.48,-2.34 -23.38,-2.79 -34.54,-3.38 -146.53,-9.73 -138.47,100.1 -117.38,144.5 z m 418.49,653 c -155.82,-47.5 -246.64,-99.5 -394.01,-210.11 l 0.66,-0.1 0.45,0.17 c -14.72,-8.87 -90.96,-72.07 -141.24,-67.1 -13.56,1.97 -31.68,12.43 -37.35,24.95 -57.79,167.96 414.55,331.19 458.63,357.26 10.01,2.32 249.42,96.13 290.31,128.05 9.25,7.08 20.39,18.08 28.75,29.22 -0.25,-6.38 18.8,-239.17 19.32,-245.54 -23.48,13.24 -73.25,14.05 -99.86,12.15 -49,-4.09 -115.23,-25.85 -125.66,-28.95 z m 44.01,450.98 c 4.95,10 19.77,108.7 9.27,167.29 0.84,-3.15 45.46,-33.06 86.29,-43.83 27.67,-8.14 73.79,-10.32 105.45,-3.45 -22.38,-19.3 -34.26,-64.33 -38.9,-93.72 l -0.3,0.5 c -50.83,37.91 -144.07,-9.91 -161.81,-26.79 z m 166.69,604.98 c 49.83,9.29 73.76,0.14 116.6,-26.14 19.35,-12.31 45.55,-27.71 68.88,-93.44 -1.16,-19.2 -0.39,-71.35 -10.49,-170.8 -1.52,-12.84 -2.08,-19.11 -2.08,-32.24 l -0.38,-0.22 c -12.12,-13.65 -15.35,-16.3 -27.73,-23.76 -31.71,-18.81 -24.65,-27.84 -89.47,-46.84 -36.44,-8.98 -79.58,-21.85 -141.15,15.14 -141.56,85.19 -111.71,347.72 85.82,378.3 z m -202.81,4.96 c 22.16,118.17 -26.94,94.98 54,42.24 -6.12,0.48 -49.64,-37.88 -54,-42.24 z m -102.62,-724.91 c -38.34,-30.97 -64.2,-52.11 -186.32,-44.66 -157.42,6.69 -292.21,307.98 -63.66,451.85 0,0 -0.16,-0.11 -0.13,-0.11 32.91,20.5 77.73,38.16 127.91,45.84 75.91,12.25 108.88,-1.19 143.87,-29.72 23.74,-12.53 46.48,-43.12 57.73,-67.37 17.56,-35.76 61.07,-241.3 -79.4,-355.83 z m -310.87,592.53 c 12.37,-17.03 55.13,-48.48 96.22,-61 l -0.29,0.08 c -19.98,0 -93.4,-31.75 -121.97,-47.5 3.92,10 26.54,71.59 26.04,108.42 z m 336.4,-76.04 c -10,5.89 -43.06,23.51 -70.31,29.92 3.5,-0.43 58.55,29.06 78.38,52.37 -5.81,-10.01 -8.28,-63.84 -8.07,-82.29 z m -237,433.51 c 16.19,9.54 26.86,13.98 54.14,18.97 47.76,8.86 95.22,2.27 155.21,-37.8 57.28,-38.57 72.12,-103.47 55.14,-169.78 -6.98,-37.17 -115.76,-213.54 -260.99,-138.58 -56.19,31.49 -79.65,59.85 -84.39,146.21 -2.35,83.94 38.24,152.97 80.89,180.98 z m 10.48,466.89 c 71.03,38.68 118.28,32.22 193.71,-7.55 68.77,-41.81 74.5,-74.36 77.19,-109.54 6.31,-93.5 -72.04,-242.43 -220.8,-204.42 -200.63,58.96 -161.89,257.99 -50.1,321.51 z m -174.72,181.22 c -1.16,1.45 -35.1,-6.57 -36.92,-7.03 -10,-4.04 -26.35,-4.53 -70.1,-24.88 -39.88,-18.61 -58.55,-24.52 -68.26,2.11 -11.45,42.82 1.39,112.89 58.75,178.18 88.66,102.46 280.52,199.62 427.75,397.96 -1.21,-10 37.81,-132.62 174.71,-140.64 -10,-1.53 -58.1,-56.05 -71.56,-129.02 1.42,11.91 -84.27,66.06 -137.11,78.5 -40.41,10.5 -76.95,9.52 -115.17,-9.03 -13.22,-5.99 -54.4,-27.1 -75.89,-42.27 -114.41,-79.46 -111.1,-233.74 -86.2,-303.88 z m -154.78,-705.88 c -71.06,-19.73 -123.46,115.27 121.88,305.54 -0.7,-4.25 6.89,-25.34 8.65,-29.62 16.66,-40.96 43.89,-73.25 78.15,-102.9 -17.66,-16.06 -113.19,-138.09 -208.68,-173.02 z m 767.43,1438.55 c 11.19,-2.11 46.94,-14.74 47.72,-14.86 -0.64,-0.55 -0.54,-1.86 -0.11,-4.23 3.77,-23.18 4.96,-33.18 -3.75,-77.33 l 1.75,-0.65 -0.48,-0.18 -1.61,-1.38 c -3.22,-10 -6.86,-43.71 -35.29,-79.06 -92.87,-113.77 -211.81,-72.12 -222.03,30.2 -4.11,93.68 91.46,171.25 213.8,147.49 z m 476.36,34.16 c -1.68,-4.06 21.76,-42.24 55.78,-61.84 -0.37,0.18 -61.7,-14.76 -95.49,-28.16 -15.67,-5.97 -25.02,-9.81 -39.81,-16.36 29.61,26.46 55.81,59.09 79.52,106.36 z m -295.61,-62.14 c -4.14,1.76 -18.28,7.93 -21.69,10.86 l -0.34,0.16 c -10,9.33 -49.87,27.17 -58.14,93.16 -23.12,118.39 158.55,272.83 286.62,217.92 132.15,-66.78 97.32,-237.63 -49.81,-308.86 -37.03,-17.83 -56.09,-20.71 -66.1,-24.19 l -0.34,0.12 c -31.81,-4.29 -52.59,-4.79 -90.2,10.83 z m 2.61,-303.88 c -44.82,37.22 -100.86,68.83 -158.7,73.63 6.66,0.08 30.43,34.67 33.87,40.4 9.76,13.87 32.06,59.51 37.04,119.43 2.11,-3.79 28.96,-25.34 50.86,-34.35 42.14,-18.91 82.21,-13.07 124.25,-1.49 -14.31,-5.34 -89.18,-57.19 -87.32,-197.62 z m -15.75,-1208.87 c 56.34,49.73 75.2,100.83 81.52,175.4 0,0 7.65,-71.67 6.77,-282.76 -20.7,36.88 -81.75,77.73 -117.67,86.79 4.2,-0.39 26.21,17.77 29.38,20.57 z m -247.94,225.58 c 8.97,25.75 48.01,84.03 104.58,102.71 65.66,19.12 128.96,-3.02 153.32,-34.27 1.67,-10 40.42,-35.43 39.06,-132.81 -5.24,-84.9 -73.46,-166.34 -166.43,-148.41 -44.81,7.68 -99.84,46.99 -123.32,111.23 -12.82,34.43 -12.76,83.12 -7.21,101.55 z m 178.87,672.95 c -39.86,-19.28 -193.17,-27.69 -211.03,125.2 -15.04,205.76 217.49,223.7 299.76,112.69 2.64,-46.02 9.38,-103.57 9.54,-138.35 -23.67,-46.76 -63.63,-82.14 -98.27,-99.54 z m 102.98,-325.3 c -11.77,-19.13 -36.43,-63.45 -66.63,-78.98 -43.71,-23.24 -103.3,-22.63 -153.91,4.42 -141.25,87.11 -53.67,229.05 -1.19,262.09 26.4,13.84 65.83,15.35 91.2,11.39 18.93,-3.23 65.3,-6.13 126.81,-66.43 9.67,-10 15.04,-17.46 21.59,-26.9 0.6,-0.9 1.14,-1.85 1.64,-2.82 0,0 1.59,-13.54 4.29,-56.5 -5.18,-10 -4.8,-15.79 -23.8,-46.27 z m 40.18,-301.59 c -11.52,32.08 -58.38,100 -143.62,127.47 13.02,0.17 87.32,44.54 132.31,134.43 -1.36,-7.38 10.89,-254.41 11.31,-261.9 z M 2137.95,3900 c -22.93,26.36 -58.17,59.29 -90.09,74.82 19.86,2.04 62.48,48.42 78.19,69.11 -0.69,-2.29 11.7,-141.54 11.9,-143.93 z m -556.92,18.38 -0.75,-0.47 -0.64,0.17 c -33.9,-7.21 -72.94,-4.32 -103.82,11.43 l -0.19,0.21 c -10,3.64 -47.93,32.97 -60.44,67.25 -10.07,27.52 -5.47,46.27 -3.64,67.42 31.19,284.41 479.8,144.49 294.75,-75.29 -22.48,-28.05 -36.28,-36.6 -68.09,-52.05 -14.56,-6.57 -41.18,-17.59 -57.18,-18.67 z m 189.48,111.42 c 0.17,-10.28 51.88,-49.83 92.85,-63.44 -10,0.9 -109.13,-73.05 -126.81,-185.68 -31.49,34.84 -45.99,41.75 -65.84,52.23 -17.4,9.19 -31.88,16.76 -50.2,22.93 36.43,5.01 128.89,83.97 150,173.96 z m -36.34,-716.91 c -22.78,18.7 -58.79,32.62 -94.38,45.39 5.46,0.98 20.42,10.66 25,13.93 26.33,18.33 41.53,38.79 54.19,54.25 21.26,25.79 42.37,54.11 62.2,123.6 2.18,6.34 8.48,27.27 10.4,37.27 -0.29,-2.79 21.84,-20.25 24.08,-21.96 20.61,-15.84 38.56,-24.58 65.7,-34.11 -65.05,-22.72 -147.54,-96.02 -149.41,-170.38 -0.29,-9.59 1.36,-37.59 2.22,-47.99 z m 101.19,1437.16 c 159.58,171.11 124.33,219.93 72.43,296.3 l 0.7,-0.19 c 350.09,4.13 189.75,-3.57 557.16,6.62 l 0.52,0.27 c 112.74,0.57 253.46,18.16 425.94,-12.9 l 1.02,1.15 c 65.15,-19.22 104.87,-11.88 148.7,-101.31 0.34,-0.79 0.21,-0.55 0.58,-1.13 l 0.04,-0.28 c 20.41,-43.84 17.62,-53.88 25.75,-87.65 -5.07,10 -113.35,77.05 -222.39,-15.04 1.12,1.33 0.78,0.84 1.58,2.2 -20.66,220.7 -330.78,229.6 -419.78,68 3.98,10 -41.04,99.06 -114.44,122.92 -56.8,20.99 -100.9,13.8 -140.29,5.9 l -0.52,-0.28 -0.49,0.07 -0.63,-0.37 c -1.04,0.02 -1.52,0.07 -2.57,-0.45 l -0.36,0.05 c -61.62,-14.1 -110.89,-38.98 -171.82,-114.94 -51.92,-63.44 -73.11,-128.95 -72.38,-195.75 -6.78,6.05 -58.38,12.85 -71.17,12.85 -13.59,0 -22.62,-1.86 -33.77,-3.09 3.33,2.31 13.33,13.89 16.19,17.05 z m 1449.15,-124.87 c 99.63,110.95 65.52,261.66 -40.47,337.7 10,2.65 8.83,5.85 31.81,10.01 72.59,15.46 127.65,-11.76 165.21,-66.3 74.19,-124.53 27.76,-209.06 -79.89,-288.93 -8.29,-5.78 -26.83,-18.36 -36.05,-22.8 -15.04,-3.34 -47.32,7.27 -61.2,12.05 3.74,0.5 18,15.5 20.59,18.27 z m -286.23,-10.09 0.69,-1.77 c -26.76,-2.65 -39.48,-7.5 -75.49,0.61 -10.93,2.68 -23.99,4.75 -40.98,25.71 -49.11,56.57 -0.41,130.16 62.87,170.43 104.35,63.56 201.88,-55.86 132.82,-146.83 -0.28,-0.36 -0.47,-0.79 -0.69,-1.24 -0.53,-0.48 -3.81,-5.59 -8.48,-9.56 -2.73,-0.62 -5.27,-4.21 -7.98,-6.42 -10,-7.72 -23.85,-18.78 -62.76,-30.93 z m -496.64,163.09 c -27.17,126.37 115.35,210.28 225.56,159.62 l 0.46,0.49 c 0,0 78.92,-39.97 84.6,-125.08 -0.09,-14.55 -0.33,-26.8 -23.29,-55.48 -48.75,-64.57 -263.87,-83.36 -287.33,20.45 z m 270.22,-103.95 c -10,-9.73 5.73,-94.3 83.22,-126.22 45.67,-20.98 137.33,-4.35 176.93,21.27 -20,-15.67 -38.79,-39.3 -119.5,-38.64 -105.62,0.35 -118.54,57.67 -239.85,97.49 23.23,-2.86 79.99,32.08 99.2,46.1 z m 352.28,6.16 c 20.87,56.2 17.05,105.7 -23.41,147.11 -0.55,90.38 -0.41,88.97 -6.31,112.16 l 0.49,-0.41 0.95,-0.37 c 0.4,0 0.72,0.33 0.72,0.54 0.04,-0.01 0.73,-0.11 0.76,-0.08 36.7,12.91 57.98,5.17 89.92,-11.92 37.85,-23.35 46.56,-31.43 61.56,-49.96 18.87,-22.25 28.98,-56.58 31.73,-73.43 8.13,-55.85 -23.65,-108.39 -70.05,-148.17 -34.83,-29.79 -50.36,-30.98 -82.94,-36.31 l 0.26,0.18 c 0.99,3.67 -3.61,56.19 -3.68,60.66 z m 694.56,-37.38 c 7.16,18.28 22.71,61.88 24.89,81.72 4.82,44.97 3.93,109.74 2.56,126.91 -3.87,50.86 -34.38,95.04 -72.65,129.46 0.01,-0.01 23.95,-7.81 34.4,-11.81 79.63,-33.54 146.74,-119.37 153.89,-208.93 15.29,-152.14 -46.5,-202.59 -136.11,-236.04 -31.59,-11.48 -48.93,-14.85 -66.49,-17.53 -7.57,10.75 -14.92,19.03 -27.33,30.12 47.57,18.9 64.7,55.96 86.84,106.1 z m -241.63,186.15 c -10.65,52.22 -41.87,118.53 -90.25,154.99 l 0.45,-0.16 c 0.03,0 0.03,0 0.04,0.02 10,1.75 55.46,30.76 144.11,-3.58 58.44,-22.66 85.66,-46.36 107.28,-92.19 23.9,-50.74 30.63,-104.64 7.74,-164.75 -13.6,-32.82 -23.94,-68.03 -62.88,-93.47 -15.89,-9.52 -34.97,-19.58 -56.17,-22.84 -42.87,-6.82 -88.34,-2.09 -126.92,9.71 3.06,-0.7 21.85,22.47 23.78,24.95 41.93,56.18 67.31,118.44 52.82,187.32 z m -483.21,237.22 c 48.9,22.98 77.46,34.18 130.83,42.53 116.57,18.57 381,-21.08 456.97,-38.63 492.43,-93.49 481.34,-344.44 474.19,-738.31 -0.67,4.84 -13.9,21.71 -16.94,25.53 -95.09,116.85 -260.86,105.96 -323.23,9.39 3.09,6.73 -10.91,49.34 -13.43,56.3 1.2,-0.55 0.85,-0.43 3.01,-1.01 1.32,0.21 5.44,0.73 6.62,1.18 l 0.43,-0.09 0.58,0.19 c 0.95,0 3.05,0.44 4.07,0.62 81.59,12.94 146.83,42.32 184.39,115.46 29.71,54.56 40.19,86.56 36.94,196.6 -2.18,76.26 -35.66,132.16 -39.4,142.17 -0.74,1.04 -0.65,0.94 -0.86,1.4 0.13,0.13 -0.39,0.83 -0.5,0.99 -67.46,124.76 -213.2,159.69 -293.87,144.55 -14.29,3.51 -102.09,58.22 -229.23,7.5 -12.61,-5.01 -25,-10.79 -36.21,-18.48 -54.32,39.44 -165.15,35.66 -253.76,-23.57 -26.16,11.66 -76.53,8.36 -103.89,-1.36 -2.92,12.09 -24,44.86 -31.29,54.87 0.98,0.15 42.89,21.36 44.58,22.17 z m 1055.16,-914.99 c -110.35,-161.88 -260.08,-112.21 -267.65,60.64 -2.36,57.16 14.94,105.24 66.48,130.65 62.99,28.41 155.06,0.07 206.07,-69.01 0,0 -0.33,-38.35 -4.9,-122.28 z m -2.61,-634.89 c -0.55,5.81 -11.78,18.66 -15.72,22.96 -56.39,59.55 -186.73,68.11 -270.77,-27.67 -2.67,41.25 -10.55,160.17 -10.82,164.61 1.95,-14.77 160.04,-155.09 292.14,-19.16 -1.57,-3.56 5.05,-43.33 5.73,-47.17 5.23,-30.01 3.89,-63.05 -0.56,-93.57 z m -11.9,-65.53 c -3.02,-12.53 -7.22,-23.67 -12.33,-36.44 -21.3,-51.46 -42.84,-73.43 -94.99,-81.46 -103.18,-14.98 -146.08,101.27 -99.84,169.22 26.47,39.16 86.66,58.1 167.2,3.02 32.72,-25.99 33.08,-35.22 40.4,-45.31 0.68,-0.75 1.39,-1.27 2.12,-1.55 -1.27,-1.65 -2.02,-5.38 -2.56,-7.48 z m -243.5,-428.29 c 0.47,5.57 -3.33,71.32 -3.65,76.9 l -0.61,0.47 c 0.32,9.66 -3.6,70.78 -4.23,80.4 15.42,33.99 48.99,72.39 86.45,74.75 12.76,-2.7 30.28,-2.01 46.59,-36.75 24.84,-65.06 -8.1,-162.81 -124.55,-195.77 z m -13.12,236.38 c -0.48,8.18 -1.92,29.68 -2.8,44.15 1.37,-5.1 23.28,-19.76 27.73,-22.82 -5.62,-1.66 -20.58,-16.4 -24.93,-21.33 z m 259.77,472.18 c -23.77,-41.38 -46.08,-54.29 -70.41,-62.3 -49.54,-13.26 -104.56,-3.57 -136.27,34.28 l -0.01,-0.01 c -56.58,69.05 -31.94,189.18 51,213.15 14.79,3.42 43.84,11.38 82.11,-10.94 9.35,-4.9 30.16,-19.65 37.04,-27.76 21.31,-23.73 29.56,-42.15 36.07,-66.15 -0.17,-10 -0.36,-43.63 0.47,-80.27 z m -299.03,178.46 c 0.7,3.01 0.5,1.87 1.09,6.23 l -0.35,0.1 -1.39,-0.24 c 0.99,2.87 -2.58,138.82 -2.62,141.86 1.69,-9.19 51.92,-49.31 106.54,-59.45 68.22,-10.15 156.04,20.67 199.6,76.36 0.14,0.15 3,3.43 4.85,5.47 -2.17,-3.85 -6.91,-160.55 -7.06,-164.97 -21.56,43.72 -117.11,93.76 -178.33,74.55 l -0.56,0.01 c -0.61,-0.22 -0.46,-0.17 -0.88,-0.3 l -0.58,0.01 c 0,0 -3.79,-0.78 -10.89,-2.4 l -0.51,0.04 -0.46,-0.21 c -10.01,-1.1 -67.11,-16.25 -108.45,-77.06 z m 94.59,-2097.07 c -138,12.81 -260.75,9.58 -371.63,-1.78 0.21,1.26 1.43,30.86 2.18,37.79 7.43,74.48 55.21,51.42 84.11,172.58 35.72,144.09 -16.5,309.51 -13.7,362.08 3.33,61.14 106.8,116.66 129.41,135.26 15.25,12.66 31.67,30.07 44.87,44.76 79.2,92.89 82.47,293.74 90.07,415.59 0.12,-0.31 0.34,-0.31 0.5,-0.31 12.11,0 32.56,2.72 50.95,7.96 102.32,25.21 182.48,167.05 108.65,267.15 1.59,-0.96 16.53,5.15 18.4,5.99 15.89,7.04 35.77,25.72 47.99,38 49,49 61.27,147.87 65.54,216.39 0,0.01 3.25,55.07 3.25,59.46 2.06,38.46 1.58,205.84 -6.31,246.96 0,0 -13.6,234.69 -1.98,565.94 1.92,81.54 0.15,59.76 -0.08,124.41 -2.04,258.91 35.46,451.68 -380.8,578.9 -59.81,19.87 -214.02,51.1 -252.8,56.04 -48.9,8.15 -197.45,19.31 -263.7,14.64 -72.51,-4.82 -128.25,-15.63 -138.76,-19.23 l -0.47,0.03 c -26.88,-6.74 -91.83,-30.75 -130.01,-65.72 -65.31,65.68 -256.35,57.78 -348.51,55.84 -406.75,-11.24 -161.37,-6.51 -401.19,-0.19 -221.11,5.49 -437.23,21.41 -614.12,-97.92 -3.74,5.77 -186.84,-149.71 -190.27,-155.67 -43.06,-38.96 -133.63,-140.37 -230.19,-243.5 l 0.39,-0.28 0.58,-0.12 c -10.06,-5.97 -67.25,-83.2 -115.34,-66.42 -36.55,50.67 25.9,135.02 68.87,180.54 l -0.39,0.29 -0.56,0.14 c 14.86,10.86 28.78,36.31 154.71,121.36 61.81,41.92 99.32,61.17 110.81,106.55 5.56,22.48 -2.09,39.47 -26.82,45.16 l -0.33,-0.73 c -52.85,22.73 -240.37,-83.82 -309.47,-154.75 -47.1,-48.34 -65.65,-80.71 -80.91,-146.38 -3.57,-16.06 17.37,-17.68 21.35,-7.06 58.89,127.71 284.02,300.08 350.63,291.97 l -0.65,-0.42 c -16.56,-18.21 -22.23,-20.42 -48.81,-39.49 -10.01,-7.04 -69.09,-47.84 -127.42,-98.49 -119.47,-104.11 -204.3,-182.88 -200.98,-276.73 1.4,-36.85 13.99,-58.9 38.2,-77.33 12.44,-9.5 44.98,-23.01 67.02,-21.96 16.82,0.61 39.02,5.45 53.46,13.5 117.49,60.36 214.79,253.34 336.12,352.77 80.49,66.95 145.48,160.09 301.27,180.72 15.27,-5 54.28,-12.88 49.55,-54.79 -8.67,-89.65 -306.85,-420.06 -368.38,-486.94 l -0.22,-0.44 c -0.88,-0.65 -1.57,-1.48 -2.38,-2.34 l 0.43,-0.56 -0.32,0.37 -0.02,-0.38 c -0.02,0.02 -0.16,0.23 -0.18,0.23 l -0.64,-0.46 -0.24,-0.41 c -20.18,-18.5 -224.94,-243.1 -301.31,-306.38 -35.53,-29.61 -55.68,-48.36 -81.25,-87.53 -37.4,-56.09 -43.58,-101.17 -47.68,-168.35 -5.83,-94.16 43.6,-132.93 91.78,-105.22 3.05,1.7 41.83,27.9 65.38,41.1 63.87,35.26 78.78,36.07 104.53,32.15 3.1,-6.27 20.35,-22.4 25.77,-26.87 l -0.06,-0.45 c 3.83,-21.5 1.21,-59.2 -17.84,-105.31 -17.57,-22.18 -35.63,-55.17 -40.26,-65.17 0,0 4.38,3.08 -70.6,-78.14 l 0.35,-0.25 0.44,-0.11 -0.77,-0.13 -0.65,-0.32 c -10,-9.59 -155.43,-157.46 -196.69,-227.11 -29.37,-48.87 -50.953,-122.09 -29.47,-180.51 10.2,-27.77 26.87,-51.79 36.53,-60.87 18.15,-17.52 51.15,-23.65 67.87,-23.65 92.97,0 227.77,165.6 285.41,258.1 8.13,-7.92 53.19,-24.59 63.19,-28.15 -52.99,1.99 -205.9,-114.6 -154.52,-295.01 -9.57,10 -71.5,53.7 -144.83,48.2 -39.84,-3.97 -100.63,-29.88 -133.58,-77.49 -5.71,-8.09 -21.76,-39.36 -17.64,-48.27 2.11,-4.62 7.66,-7.35 13.25,-4.71 0.22,-0.33 2.03,-0.08 2.41,0.01 6.28,1.24 6.45,5.79 14.77,17.83 93.55,132.49 300.52,78.44 252.43,-155.09 -20.85,-88.4 -110.73,-128.26 -168.94,-128.26 -26.62,0 -65.05,18.54 -65.05,18.54 -1.81,0 -3.92,-0.63 -5.74,-1.96 -2.79,1.62 -10.09,-2.13 -10.69,-8.88 -2.35,-27.28 96.44,-70.32 188.46,-35.78 -8.77,-8.04 -38.18,-118.58 -34.76,-200.93 l 0.56,0.11 -0.27,-0.21 -0.23,-0.55 c 0.08,-0.42 0.26,-4.59 0.3,-5.2 -8.41,-1.19 -47.91,-21.94 -73.61,-46.76 -11.11,-10.82 -27.6,-28.37 -39.8,-43.12 -0.61,-0.75 -16.45,-21.05 -16.45,-21.84 -5.97,-10 -63.36,-89.06 -54.83,-146.96 1.59,-10.85 6.62,-17.29 17.48,-16.09 0.39,0.03 1.69,0.48 2.14,0.61 29.8,6.73 63.51,95.21 184.9,183.14 l 0.02,-0.7 c 13.28,-42.19 79.4,-128.72 152.71,-158.78 36.43,-15.12 84.55,-30.69 125.89,-30.69 98.66,0 151.86,28.12 212.3,69.23 81.73,53.57 60.7,95.86 141.58,143.74 22.69,13.41 43.28,20.25 55.15,22.11 52.72,4.36 85.33,-50.31 65.38,-96.61 l 0.44,0.03 0.32,0.23 c -8.24,-10.25 -4.9,-30.01 -106.14,-87.67 -214.85,-122.08 -477.33,-108.45 -703.43,-310.62 -8.78,-7.85 -17.4,-17.03 -26.34,-28.08 -37.72,-46.76 -60.71,-87.05 -64.51,-144.68 -1.52,-23.55 3.16,-62.78 15.21,-88.41 14.65,-31.38 64.97,-65.91 106.86,-65.91 143.04,0 259.35,211.23 592.02,321.28 47.46,15.58 125.81,24.88 121.44,-24.69 -20.5,-133.55 -370.21,-212.45 -602.02,-425.56 -28.21,-26.02 -59.75,-56.96 -76.97,-91.42 -29,-58.32 -34.66,-143.21 -17.01,-190.16 21.04,-55.94 54.79,-91.96 126.45,-110.65 -5.96,-3.78 -56.32,-46.07 -68.4,-58.92 -55.65,-60.121 -42.25,-103.559 36.94,-103.559 79.83,0 758.24,106.119 878.86,119.029 114.98,-24.26 21.55,-103.541 229.16,-407.798 30.8,-45.993 58.7,-73.133 86.57,-101.981 31.89,-33.223 68.32,-71.219 104.57,-83.449 32.88,-11.223 90.96,-3.25 102.6,64.25 15.7,78.527 -43.59,253.547 -73.12,327.019 -24.15,59.668 -52.49,96.02 -63.01,119.399 0,0 31.32,-19.801 88.82,-120.918 111.64,-191.07 130.28,-324.442 232.82,-324.442 11.33,0 21.45,2.899 31.27,11.239 36.28,31.023 36.76,82.113 29.18,129.23 -37.89,248.571 -195.25,364.731 -191.55,391.791 30.45,-3.55 42.79,-16.57 66.73,-40.48 86.82,-88.088 52.9,-126.221 236.54,-309.858 48.66,-49.281 89.61,-76.543 117.13,-88.73 30.59,-13.203 52.67,-17.961 86.04,-2.66 36.2,16.136 53.36,57.758 23.45,104.828 -48.77,77.609 -181.76,186.66 -333.09,358.61 0,0 -8.18,-2.57 154.17,81.97 44.99,23.39 29.58,15.2 46.96,24.19 88.51,45.67 164.05,84.5 225.88,162.54 6.97,8.84 12.37,16.55 16.97,24.26 33.28,55.09 22.95,92.53 14.94,133.14 38.07,13.45 130.12,67.93 148.91,137.41 495.47,-20.73 775.61,-109.77 799.12,-35.71 25.72,82.29 -256,198.04 -428.97,210.88"
         style="fill:#111011;fill-opacity:1;fill-rule:nonzero;stroke:none"
         id="path78" /><path
         d="m 3021.78,2048.06 c 12.04,-22.78 51.69,-22.28 77.95,-21.06 38.93,1.76 124.72,14.02 134.72,16.34 31.62,7.37 23.95,27.23 0.87,31.62 -33.06,6.3 -146.87,-6.6 -163.66,8.01 -1.51,20.08 -24.4,50.86 -39.77,51.12 -14.25,0.27 -26.22,-15.42 -24.59,-39.4 0.66,-9.87 10.66,-39.38 14.48,-46.63"
         style="fill:#111011;fill-opacity:1;fill-rule:nonzero;stroke:none"
         id="path80" /><path
         d="m 3403.35,2113.7 c -0.11,4.45 -0.11,10.67 -3.13,13.59 -1.22,9.53 -14.41,12.33 -18.49,1.33 -15.64,-42.07 -8.75,-53.56 -29.03,-70.7 -24.72,-16.97 -107.06,-26.97 -198.01,-50.13 -115.18,-29.28 -145.45,-54.47 -246.31,-124.53 -29.68,-20.55 -48.41,-28.37 -32.29,-48 15.56,-19.63 29.5,3.18 92.93,38.69 214.42,119.84 321.46,15.1 406.1,95.12 28.25,26.67 29.28,46.21 28.43,73.14 -1.39,46.78 -0.2,71.39 -0.2,71.49"
         style="fill:#111011;fill-opacity:1;fill-rule:nonzero;stroke:none"
         id="path82" /><path
         d="m 3556.7,3416.72 c 0,-0.01 -0.01,-0.02 -0.01,-0.02 0,-0.01 0,-0.01 -0.01,-0.01 0.01,0.01 0.02,0.02 0.02,0.03 m -18.18,9.79 c -1.3,-3.39 -1.78,-7.01 -0.13,-10.42 3.06,-6.29 11.72,-7.39 16.58,-2.59 4.04,4 5.21,10.42 1.22,14.98 -0.09,0.1 -0.18,0.2 -0.28,0.3 -1.2,1.8 -2.97,3.22 -5.04,3.91 -1.02,0.34 -2.05,0.5 -3.04,0.5 -4.1,0 -7.78,-2.69 -9.31,-6.68"
         style="fill:#fefefe;fill-opacity:1;fill-rule:nonzero;stroke:none"
         id="path84" /><path
         d="m 2659.67,3414.63 c -1.46,-1.28 -2.37,-3.12 -2.49,-5.07 -0.24,-3.81 2.86,-7.83 6.89,-7.83 2.01,0 3.8,0.46 5.35,1.82 1.45,1.29 2.36,3.13 2.48,5.07 0.25,3.82 -2.86,7.84 -6.89,7.84 -2.01,0 -3.79,-0.47 -5.34,-1.83"
         style="fill:#fefefe;fill-opacity:1;fill-rule:nonzero;stroke:none"
         id="path86" /><path
         d="m 2664,3417.38 c -1.46,-1.29 -2.37,-3.13 -2.5,-5.07 -0.24,-3.82 2.87,-7.84 6.9,-7.84 2,0 3.79,0.46 5.34,1.83 1.46,1.28 2.37,3.12 2.49,5.06 0.24,3.82 -2.86,7.84 -6.89,7.84 -2.01,0 -3.8,-0.46 -5.34,-1.82"
         style="fill:#fefefe;fill-opacity:1;fill-rule:nonzero;stroke:none"
         id="path88" /><path
         d="m 2660.57,3415.14 c -1.46,-1.29 -2.37,-3.13 -2.49,-5.08 -0.24,-3.81 2.86,-7.83 6.89,-7.83 2.01,0 3.8,0.46 5.35,1.82 1.46,1.29 2.37,3.13 2.49,5.07 0.24,3.82 -2.87,7.84 -6.9,7.84 -2,0 -3.79,-0.46 -5.34,-1.82"
         style="fill:#fefefe;fill-opacity:1;fill-rule:nonzero;stroke:none"
         id="path90" /><path
         d="m 2661.47,3415.32 c -1.46,-1.29 -2.37,-3.13 -2.49,-5.07 -0.24,-3.82 2.86,-7.84 6.89,-7.84 2.01,0 3.8,0.46 5.35,1.82 1.45,1.29 2.36,3.13 2.48,5.07 0.25,3.82 -2.86,7.84 -6.89,7.84 -2.01,0 -3.79,-0.46 -5.34,-1.82"
         style="fill:#fefefe;fill-opacity:1;fill-rule:nonzero;stroke:none"
         id="path92" /><path
         d="m 2662.03,3415.52 c -1.46,-1.28 -2.37,-3.13 -2.49,-5.07 -0.24,-3.82 2.87,-7.84 6.89,-7.84 2.01,0 3.8,0.46 5.35,1.83 1.46,1.28 2.37,3.12 2.49,5.06 0.24,3.83 -2.87,7.84 -6.89,7.84 -2.01,0 -3.8,-0.46 -5.35,-1.82"
         style="fill:#fefefe;fill-opacity:1;fill-rule:nonzero;stroke:none"
         id="path94" /><path
         d="m 2660.02,3417.64 c -1.46,-1.28 -2.37,-3.12 -2.49,-5.07 -0.24,-3.81 2.87,-7.83 6.89,-7.83 2.01,0 3.8,0.46 5.35,1.82 1.46,1.29 2.37,3.13 2.49,5.07 0.24,3.82 -2.86,7.84 -6.89,7.84 -2.01,0 -3.8,-0.47 -5.35,-1.83"
         style="fill:#fefefe;fill-opacity:1;fill-rule:nonzero;stroke:none"
         id="path96" /><path
         d="m 2661.02,3418.36 c -1.46,-1.28 -2.37,-3.13 -2.49,-5.07 -0.25,-3.82 2.86,-7.84 6.89,-7.84 2.01,0 3.8,0.46 5.34,1.83 1.46,1.28 2.37,3.12 2.49,5.06 0.25,3.83 -2.86,7.84 -6.89,7.84 -2.01,0 -3.79,-0.46 -5.34,-1.82"
         style="fill:#fefefe;fill-opacity:1;fill-rule:nonzero;stroke:none"
         id="path98" /><path
         d="m 2659.89,3416.92 c -1.46,-1.29 -2.37,-3.13 -2.49,-5.07 -0.25,-3.82 2.86,-7.84 6.89,-7.84 2.01,0 3.8,0.46 5.34,1.82 1.46,1.29 2.37,3.13 2.49,5.07 0.24,3.82 -2.86,7.84 -6.89,7.84 -2.01,0 -3.79,-0.46 -5.34,-1.82"
         style="fill:#fefefe;fill-opacity:1;fill-rule:nonzero;stroke:none"
         id="path100" /><path
         d="m 2659.29,3412.5 c -1.46,-1.29 -2.37,-3.13 -2.49,-5.07 -0.25,-3.82 2.86,-7.84 6.89,-7.84 2.01,0 3.8,0.46 5.34,1.83 1.46,1.28 2.37,3.12 2.49,5.06 0.25,3.82 -2.86,7.84 -6.89,7.84 -2.01,0 -3.79,-0.46 -5.34,-1.82"
         style="fill:#fefefe;fill-opacity:1;fill-rule:nonzero;stroke:none"
         id="path102" /><path
         d="m 2662.06,3412.4 c -1.46,-1.29 -2.37,-3.13 -2.49,-5.08 -0.24,-3.81 2.86,-7.83 6.89,-7.83 2.01,0 3.8,0.46 5.35,1.82 1.45,1.29 2.37,3.13 2.49,5.07 0.24,3.82 -2.87,7.84 -6.9,7.84 -2,0 -3.79,-0.46 -5.34,-1.82"
         style="fill:#fefefe;fill-opacity:1;fill-rule:nonzero;stroke:none"
         id="path104" /><path
         d="m 2662.52,3420.41 c -1.87,-0.31 -3.71,-1.38 -5.16,-2.54 -3.59,-2.85 -5.17,-7.45 -4.3,-11.93 0.33,-1.7 1.11,-3.21 2.2,-4.44 1.21,-2.28 3.35,-4.15 5.65,-4.86 1.56,-0.49 3.06,-0.6 4.5,-0.39 4.67,-0.74 9.39,1.7 10.96,6.42 0.93,2.81 0.43,5.97 -1.13,8.42 -0.2,1.3 -0.58,2.56 -1.19,3.73 -1.26,2.42 -3.59,4.74 -6.33,5.35 -1.23,0.26 -2.17,0.43 -3.19,0.43 -0.61,0 -1.25,-0.06 -2.01,-0.19"
         style="fill:#fefefe;fill-opacity:1;fill-rule:nonzero;stroke:none"
         id="path106" /><path
         d="m 37.5195,82.7813 0.8125,-0.8125 c 2.4102,-4.8282 5.3594,-9.7891 8.8477,-14.8868 2.6836,-3.7617 4.832,-6.5703 6.4453,-8.4414 0.2617,0 0.3984,-0.1406 0.3984,-0.4218 h 0.4024 C 57.375,54.7422 60.1953,53 62.8828,53 c 2.6758,0 4.8242,3.2109 6.4336,9.6602 v 1.1992 c 0,0.5429 0.1289,0.9414 0.4024,1.2109 1.875,17.9688 3.4843,41.8597 4.832,71.6287 -5.9063,-2.949 -10.332,-5.367 -13.2813,-7.238 -4.832,-2.68 -9.5312,-6.039 -14.0898,-10.059 -4.5625,-4.031 -7.9102,-7.91 -10.0586,-11.672 -1.0742,-2.148 -1.875,-4.16 -2.4141,-6.039 -0.5351,-1.351 -0.8007,-3.4801 -0.8007,-6.4293 0,-1.8906 0.4023,-4.0312 1.2031,-6.4531 0.2617,-0.5391 0.5351,-1.1367 0.8086,-1.8086 0.2656,-0.668 0.4023,-1.1406 0.4023,-1.3984 v -0.4102 h 0.3985 v -0.4023 -0.3985 h 0.4023 v -0.3984 l 0.3984,-0.8125 z m 177.8825,103.4177 3.223,-15.687 c -3.496,-0.551 -14.895,-1.821 -34.211,-3.832 -19.316,-2.008 -31.258,-3.551 -35.82,-4.629 -1.074,-0.531 -2.149,-0.801 -3.211,-0.801 C 147.52,53.3984 133.965,0.152344 104.727,1.49219 99.3555,2.01953 93.3203,3.5 86.6211,5.91016 L 85.0117,6.71875 C 79.6406,8.60156 76.2891,9.92969 74.9531,10.7383 67.4336,14.5 61.2695,18.25 56.4375,22.0117 50.8008,26.0391 45.4297,30.8594 40.3438,36.5 36.0469,41.332 31.6211,46.832 27.0625,53 23.8398,57.8203 20.3516,64 16.6016,71.5117 l -0.4102,1.2071 -0.3984,0.8007 v 0.4102 l -0.4024,0.4023 -0.3984,0.7969 -0.4024,0.8125 v 0.3984 0.3985 c -1.082,1.8828 -1.746,3.7617 -2.0195,5.6406 -1.0742,3.4805 -1.6015,7.6406 -1.6015,12.4805 0,5.082 0.5273,9.3786 1.6015,12.8706 1.0742,3.762 2.8203,7.512 5.2344,11.27 2.1484,3.75 4.5586,6.969 7.2461,9.648 1.6094,1.883 4.2851,4.434 8.0469,7.653 3.7578,2.949 9.6562,6.851 17.7031,11.668 5.3711,2.683 11.5351,5.64 18.5156,8.863 2.9492,1.059 4.8242,1.738 5.6367,2.008 0.8008,46.14 -0.1367,86.789 -2.8242,121.93 -3.7578,-0.27 -15.6914,-1.2 -35.8086,-2.809 -9.1211,-0.813 -16.5742,0.801 -22.3359,4.828 -5.76956,4.02 -9.46096,9.25 -11.07424,15.691 -1.60157,6.442 -2.546879,12.942 -2.8125037,19.52 -0.2617193,6.57 0,12.141 0.8007817,16.699 l 1.613282,7.25 c 2.68359,-0.808 9.46098,-0.539 20.32028,0.801 10.8711,1.34 22.4024,2.422 34.6094,3.219 12.207,0.801 24.5508,0.472 37.0313,-1.008 12.4723,-1.469 23.0003,-6.172 31.5823,-14.082 8.586,-7.918 13.281,-19.117 14.093,-33.598 v -4.031 c 0.262,-7.52 1.004,-24.609 2.207,-51.309 1.211,-26.699 2.079,-47.691 2.618,-62.98 4.832,1.07 16.972,2.41 36.425,4.019 19.442,1.61 30.782,2.692 34.004,3.219"
         style="fill:#111011;fill-opacity:1;fill-rule:nonzero;stroke:none"
         id="path108" /><path
         d="m 264.895,177.762 c -5.098,1.597 -10.872,0 -17.305,-4.84 0.535,-1.07 1.609,-2.41 3.223,-4.024 2.136,-2.148 4.421,-3.757 6.835,-4.839 1.336,-1.071 2.821,-1.739 4.422,-2.008 3.223,-0.801 4.961,-1.199 5.235,-1.199 3.222,-0.813 6.437,-1.211 9.66,-1.211 -1.875,10.199 -5.899,16.23 -12.07,18.121 z M 235.109,84.3906 c 6.707,-2.1484 13.817,0.6016 21.329,8.25 7.507,7.6484 13.281,17.9104 17.304,30.7814 1.074,3.219 2.149,7.508 3.223,12.879 -5.371,-0.539 -9.524,-0.672 -12.473,-0.403 -0.547,0 -1.414,0.063 -2.617,0.204 -1.211,0.128 -2.285,0.257 -3.223,0.41 -0.937,0.117 -1.804,0.328 -2.617,0.59 -1.875,0.277 -4.695,0.937 -8.445,2.019 -4.57,1.34 -9.258,3.75 -14.082,7.238 -1.613,1.071 -2.688,1.871 -3.223,2.422 -0.539,-1.351 -1.887,-4.699 -4.023,-10.07 -4.024,-12.871 -5.168,-24.621 -3.418,-35.199 1.738,-10.6136 5.828,-16.9729 12.265,-19.1214 z m 131.2,101.8084 4.824,-8.437 c -1.348,-1.09 -3.223,-2.43 -5.633,-4.032 -0.273,-0.269 -0.801,-0.601 -1.613,-1.011 -0.801,-0.399 -1.336,-0.739 -1.61,-1.008 l -3.613,-2.41 c -0.273,-0.262 -0.879,-0.672 -1.816,-1.199 -0.938,-0.551 -1.68,-0.954 -2.207,-1.211 -0.547,-0.282 -1.348,-0.801 -2.422,-1.61 -1.074,-0.812 -1.875,-1.351 -2.414,-1.621 -2.957,-1.34 -4.696,-2.269 -5.235,-2.808 -0.535,-0.551 -1.472,-1.141 -2.812,-1.813 -1.348,-0.68 -2.285,-1.148 -2.82,-1.41 -0.266,-0.27 -0.743,-0.609 -1.407,-1.008 -0.676,-0.402 -1.144,-0.601 -1.406,-0.601 l -1.613,-0.801 c -0.274,0 -0.535,-0.137 -0.801,-0.399 -0.273,-0.281 -0.547,-0.41 -0.809,-0.41 -1.074,-0.269 -2.148,-0.801 -3.214,-1.609 -1.083,-0.27 -2.157,-0.809 -3.223,-1.61 -2.957,-1.339 -7.645,-3.359 -14.082,-6.031 -4.031,-1.609 -8.992,-3.359 -14.891,-5.238 -0.812,-0.274 -1.953,-0.602 -3.418,-1 -1.484,-0.402 -2.492,-0.613 -3.027,-0.613 -0.801,-4.817 -2.012,-9.661 -3.613,-14.477 -6.711,-20.934 -18.118,-36.9609 -34.211,-48.1015 -16.102,-11.1289 -32.332,-14.1485 -48.7,-9.0508 -16.367,5.0898 -27.902,16.8398 -34.601,35.2223 -6.707,18.368 -6.707,38.149 0,59.348 6.699,20.93 18.105,36.961 34.199,48.102 16.106,11.117 32.336,14.14 48.703,9.046 10.996,-3.5 19.981,-10.539 26.961,-21.128 6.973,-10.598 10.996,-22.868 12.07,-36.821 h 1.211 c 6.7,1.34 11.262,2.281 13.684,2.813 2.137,0.269 6.563,1.48 13.281,3.629 1.602,0.531 2.676,0.929 3.211,1.211 1.613,0.527 2.676,0.796 3.223,0.796 l 1.613,0.801 c 0.262,0 0.527,0.071 0.801,0.199 0.262,0.141 0.535,0.211 0.809,0.211 0.265,0.262 0.734,0.532 1.406,0.801 0.664,0.262 1.133,0.399 1.406,0.399 l 6.035,2.421 c 1.613,0.532 3.352,1.2 5.235,2.012 2.14,1.067 3.75,1.738 4.824,2.02 2.148,1.058 3.625,1.73 4.433,2.008 0.266,0.261 0.871,0.589 1.809,1 0.937,0.402 1.543,0.742 1.816,1.011 l 3.614,1.199 6.043,3.219"
         style="fill:#111011;fill-opacity:1;fill-rule:nonzero;stroke:none"
         id="path110" /><path
         d="m 540.969,164.059 7.644,-2.411 c -0.808,-2.679 -2.078,-6.168 -3.828,-10.457 -1.746,-4.289 -5.222,-11.871 -10.457,-22.742 -5.234,-10.859 -10.469,-20.32 -15.695,-28.367 -5.235,-8.0507 -11.473,-15.0898 -18.719,-21.1211 -7.238,-6.039 -14.219,-8.3906 -20.918,-7.039 -7.793,1.5976 -13.957,9.3789 -18.516,23.3398 -4.57,13.9373 -7.519,28.8283 -8.859,44.6603 -1.336,15.828 -3.758,30.187 -7.234,43.058 -3.496,12.879 -8.196,19.321 -14.094,19.321 -4.824,0 -8.582,-5.371 -11.27,-16.102 -2.683,-10.73 -4.96,-23.679 -6.835,-38.828 -1.883,-15.16 -4.422,-30.332 -7.645,-45.469 C 401.32,86.7305 395.547,73.9297 387.238,63.4609 378.918,53 368.184,47.8984 355.039,48.1719 c -8.582,-0.2735 -15.488,4.7578 -20.723,15.0898 -5.234,10.3281 -8.593,23.9492 -10.058,40.8403 -1.485,16.91 -2.215,35.878 -2.215,56.949 0,21.058 0.937,42.32 2.812,63.789 1.875,21.461 3.426,42.051 4.629,61.769 1.211,19.723 2.274,36.422 3.223,50.102 0.938,13.68 0.606,23.34 -1.008,28.98 1.875,0.528 4.356,1 7.442,1.411 3.086,0.398 8.457,0.269 16.105,-0.411 7.645,-0.671 14.285,-2.41 19.922,-5.222 5.633,-2.828 10.594,-8.199 14.883,-16.11 4.285,-7.91 5.898,-18.039 4.832,-30.379 -4.57,-59.558 -7.383,-109.46 -8.457,-149.699 10.195,48.02 25.09,72.039 44.679,72.039 10.458,0 18.575,-7.32 24.344,-21.941 5.762,-14.629 9.192,-30.789 10.266,-48.488 1.062,-17.711 2.879,-34.352 5.43,-49.911 2.546,-15.558 6.367,-24.0112 11.464,-25.3511 6.172,-1.6094 14.09,3.6328 23.75,15.7031 9.657,12.07 17.84,24.547 24.551,37.418 l 10.059,19.309"
         style="fill:#111011;fill-opacity:1;fill-rule:nonzero;stroke:none"
         id="path112" /><path
         d="m 557.863,139.52 c -0.539,-13.68 5.235,-18.508 17.305,-14.489 9.656,3.489 19.578,10.731 29.785,21.731 1.063,10.199 2.012,17.84 2.813,22.937 -4.289,0 -8.653,-0.328 -13.078,-1.008 -4.422,-0.671 -9.657,-1.871 -15.692,-3.609 -6.035,-1.75 -11.008,-4.832 -14.894,-9.262 -3.887,-4.429 -5.977,-9.859 -6.239,-16.3 z m 185.926,39.441 h 13.281 c -1.074,-3.762 -2.683,-8.66 -4.832,-14.691 -2.148,-6.04 -6.972,-16.77 -14.484,-32.2 -7.52,-15.429 -15.566,-29.109 -24.149,-41.0387 -8.585,-11.9493 -19.992,-22.7422 -34.199,-32.3907 -14.23,-9.6601 -28.984,-14.5 -44.269,-14.5 -9.93,0 -17.645,3.5703 -23.145,10.668 -5.496,7.1133 -8.789,15.6211 -9.863,25.5508 -1.074,9.9297 -1.199,22.1326 -0.399,36.6206 -18.781,-18.2495 -38.632,-25.6206 -59.562,-22.1206 -13.145,2.4101 -21.602,8.9806 -25.352,19.7106 -3.75,10.731 -2.878,22.27 2.618,34.61 5.5,12.34 14.015,22.129 25.558,29.379 19.043,11.8 40.645,15.691 64.785,11.671 0.809,12.329 0.536,21.321 -0.8,26.961 1.062,0.258 2.41,0.539 4.023,0.809 1.609,0.262 4.754,0.461 9.453,0.602 4.695,0.128 9.121,-0.071 13.281,-0.602 4.161,-0.551 8.719,-1.879 13.68,-4.031 4.961,-2.149 9.191,-5.028 12.688,-8.66 3.476,-3.61 6.23,-8.778 8.242,-15.477 2.011,-6.711 2.617,-14.633 1.816,-23.742 -4.023,-55.809 -0.949,-83.8478 9.258,-84.1212 4.023,-0.2696 8.984,2.9531 14.883,9.6601 10.73,12.0701 20.058,25.4101 27.969,40.0431 7.91,14.617 13.21,26.219 15.898,34.82 l 3.621,12.469"
         style="fill:#111011;fill-opacity:1;fill-rule:nonzero;stroke:none"
         id="path114" /><path
         d="m 890.664,175.332 8.449,-4.023 c -11.808,-23.079 -20.117,-38.77 -24.953,-47.079 -4.023,-7.781 -8.183,-14.23 -12.469,-19.32 -3.761,-4.289 -6.847,-7.3787 -9.257,-9.2498 -0.274,-0.2813 -0.743,-0.6094 -1.407,-1.0118 -0.675,-0.3984 -1.144,-0.7382 -1.406,-1.0078 -0.273,-0.2695 -0.812,-0.5312 -1.613,-0.8086 -0.809,-0.2617 -1.348,-0.5312 -1.61,-0.8007 -0.273,0 -0.949,-0.2696 -2.011,-0.8008 h -1.211 l -0.403,-0.4102 h -1.609 -0.402 -0.399 -0.402 -1.211 c -1.875,0 -3.484,0.5391 -4.824,1.6094 -1.883,0.8125 -3.223,2.1523 -4.031,4.0312 -0.801,1.0704 -1.875,4.0191 -3.215,8.8481 -0.547,3.75 -0.809,8.992 -0.809,15.703 0.262,6.699 0.938,16.5 2.012,29.367 0.535,6.453 0.808,11.141 0.808,14.09 0,5.902 -0.136,9.933 -0.398,12.082 -0.273,1.058 -0.949,1.871 -2.012,2.41 -0.812,0.531 -1.886,0.129 -3.222,-1.199 l -2.414,-2.43 c -1.883,-2.41 -3.758,-5.633 -5.633,-9.652 -1.348,-2.418 -3.086,-6.039 -5.235,-10.86 -4.023,-10.468 -6.582,-17.441 -7.648,-20.929 -3.484,-10.211 -6.707,-21.071 -9.656,-32.602 L 788.848,88.0117 C 783.477,67.082 771.809,56.3516 753.84,55.8086 c -11.008,-0.2578 -18.985,3.9609 -23.945,12.6836 -4.973,8.7187 -7.11,19.8476 -6.438,33.4098 0.664,13.539 1.867,28.227 3.613,44.059 1.75,15.828 3.625,30.59 5.637,44.269 2.012,13.68 1.941,25.211 -0.195,34.61 0.801,0.262 2.011,0.531 3.621,0.801 1.613,0.269 4.562,0.531 8.847,0.808 4.29,0.262 8.391,0.063 12.278,-0.609 3.887,-0.668 8.113,-2.281 12.676,-4.82 4.558,-2.559 8.457,-6.051 11.668,-10.469 3.222,-4.422 5.703,-10.66 7.453,-18.711 1.738,-8.051 2.343,-17.438 1.804,-28.18 v -2.012 c 13.946,24.153 26.289,36.094 37.024,35.821 7.508,-0.27 11.805,-6.239 12.879,-17.91 1.074,-11.668 0.539,-22.469 -1.61,-32.387 0,-2.16 -0.265,-5.102 -0.8,-8.863 v -2.411 c -0.547,-3.218 -1.075,-8.316 -1.614,-15.289 0,-6.168 0.137,-10.468 0.403,-12.879 0.535,-2.148 0.937,-3.492 1.211,-4.031 l 0.398,-0.398 0.402,-0.403 h 0.399 0.41 l 1.203,0.403 h 0.809 0.402 c 0,0.269 0.262,0.398 0.801,0.398 0.262,0.27 0.535,0.403 0.808,0.403 0.528,0.269 0.938,0.41 1.204,0.41 l 0.808,0.797 c 0.539,0.273 0.938,0.543 1.203,0.812 0.809,0.527 3.223,2.82 7.246,6.84 4.559,5.359 8.582,11.269 12.071,17.711 l 24.148,44.66"
         style="fill:#111011;fill-opacity:1;fill-rule:nonzero;stroke:none"
         id="path116" /><path
         d="m 1024.27,175.332 8.45,-4.023 c -11.81,-23.079 -20.12,-38.77 -24.96,-47.079 -4.02,-7.781 -8.178,-14.23 -12.467,-19.32 -3.758,-4.289 -6.844,-7.3787 -9.258,-9.2498 -0.273,-0.2813 -0.742,-0.6094 -1.406,-1.0118 -0.672,-0.3984 -1.141,-0.7382 -1.406,-1.0078 -0.274,-0.2695 -0.809,-0.5312 -1.61,-0.8086 -0.812,-0.2617 -1.347,-0.5312 -1.613,-0.8007 -0.273,0 -0.945,-0.2696 -2.012,-0.8008 h -1.211 l -0.398,-0.4102 h -1.613 -0.399 -0.402 -0.399 -1.211 c -1.875,0 -3.488,0.5391 -4.824,1.6094 -1.886,0.8125 -3.222,2.1523 -4.035,4.0312 -0.801,1.0704 -1.875,4.0191 -3.211,8.8481 -0.547,3.75 -0.812,8.992 -0.812,15.703 0.265,6.699 0.937,16.5 2.011,29.367 0.539,6.453 0.813,11.141 0.813,14.09 0,5.902 -0.137,9.933 -0.402,12.082 -0.274,1.058 -0.946,1.871 -2.012,2.41 -0.809,0.531 -1.883,0.129 -3.223,-1.199 l -2.41,-2.43 c -1.887,-2.41 -3.762,-5.633 -5.637,-9.652 -1.347,-2.418 -3.086,-6.039 -5.234,-10.86 -4.024,-10.468 -6.582,-17.441 -7.645,-20.929 -3.488,-10.211 -6.711,-21.071 -9.66,-32.602 L 922.453,88.0117 C 917.082,67.082 905.41,56.3516 887.441,55.8086 c -11.003,-0.2578 -18.984,3.9609 -23.945,12.6836 -4.969,8.7187 -7.109,19.8476 -6.433,33.4098 0.664,13.539 1.863,28.227 3.613,44.059 1.746,15.828 3.621,30.59 5.633,44.269 2.011,13.68 1.945,25.211 -0.196,34.61 0.801,0.262 2.012,0.531 3.625,0.801 1.61,0.269 4.559,0.531 8.848,0.808 4.285,0.262 8.387,0.063 12.273,-0.609 3.887,-0.668 8.118,-2.281 12.676,-4.82 4.563,-2.559 8.457,-6.051 11.672,-10.469 3.223,-4.422 5.703,-10.66 7.449,-18.711 1.739,-8.051 2.344,-17.438 1.809,-28.18 v -2.012 c 13.945,24.153 26.289,36.094 37.019,35.821 7.512,-0.27 11.809,-6.239 12.883,-17.91 1.074,-11.668 0.535,-22.469 -1.613,-32.387 0,-2.16 -0.262,-5.102 -0.801,-8.863 v -2.411 c -0.547,-3.218 -1.074,-8.316 -1.609,-15.289 0,-6.168 0.136,-10.468 0.398,-12.879 0.539,-2.148 0.938,-3.492 1.211,-4.031 l 0.402,-0.398 0.399,-0.403 h 0.402 0.41 l 1.2,0.403 h 0.812 0.399 c 0,0.269 0.265,0.398 0.8,0.398 0.266,0.27 0.539,0.403 0.813,0.403 0.527,0.269 0.937,0.41 1.199,0.41 l 0.813,0.797 c 0.535,0.273 0.937,0.543 1.199,0.812 0.812,0.527 3.222,2.82 7.246,6.84 4.562,5.359 8.586,11.269 12.073,17.711 l 24.15,44.66"
         style="fill:#111011;fill-opacity:1;fill-rule:nonzero;stroke:none"
         id="path118" /><path
         d="m 1258.48,79.9609 c 1.06,-14.4921 -2.42,-26.3515 -10.47,-35.6093 -8.05,-9.2618 -18.65,-15.5625 -31.79,-18.9219 -13.15,-3.3477 -26.37,-5.6289 -39.65,-6.8399 -13.27,-1.1992 -25.89,-2.0195 -37.82,-2.4179 -11.94,-0.4024 -19.26,-1.2735 -21.93,-2.6094 -0.54,1.8789 -1.28,4.2891 -2.22,7.2383 -0.94,2.9609 -1.87,8.2578 -2.81,15.8984 -0.94,7.6524 -0.81,14.4219 0.4,20.3203 1.21,5.9024 4.49,11.4024 9.86,16.5 5.36,5.1016 13.01,7.9102 22.94,8.4493 45.07,2.1406 70.56,6.4414 76.46,12.8906 2.68,2.9414 2.68,6.9726 0,12.0706 -3.76,7.242 -10.06,14.742 -18.92,22.531 -8.85,7.781 -17.7,14.961 -26.55,21.531 -8.86,6.567 -17.91,13.887 -27.17,21.93 -9.26,8.047 -16.3,16.91 -21.12,26.558 -4.84,9.661 -7.52,20.391 -8.06,32.2 -0.54,11.8 3.43,25.812 11.87,42.05 8.45,16.231 21.26,34.012 38.44,53.321 7.5,7.508 12.74,12.48 15.7,14.898 16.09,12.883 30.71,17.16 43.85,12.883 23.62,-7.25 31.8,-26.031 24.55,-56.352 -3.21,-12.339 -5.96,-26.96 -8.25,-43.859 -2.27,-16.902 -3.42,-28.98 -3.42,-36.223 h -16.49 c 2.41,28.161 4.55,51.243 6.44,69.223 0.26,3.211 -0.95,4.149 -3.63,2.809 -2.41,-1.071 -8.04,-5.899 -16.9,-14.481 -13.68,-13.679 -23.48,-26.699 -29.38,-39.039 -5.91,-12.351 -8.04,-23.34 -6.43,-33 1.61,-9.66 5.03,-18.781 10.26,-27.359 5.23,-8.602 11.87,-16.84 19.91,-24.75 8.06,-7.922 15.77,-15.5 23.15,-22.75 7.37,-7.231 13.94,-15.153 19.71,-23.742 5.78,-8.5902 8.92,-17.0395 9.47,-25.3481"
         style="fill:#111011;fill-opacity:1;fill-rule:nonzero;stroke:none"
         id="path120" /><path
         d="m 1360.29,169.301 c -1.61,0 -3.09,0 -4.43,0 -1.35,0 -3.42,-0.742 -6.24,-2.211 -2.81,-1.481 -5.29,-3.559 -7.44,-6.238 -2.15,-2.68 -4.43,-7.043 -6.84,-13.071 -2.42,-6.051 -4.29,-13.23 -5.63,-21.539 19.84,-1.351 33.26,5.09 40.24,19.317 1.07,2.41 1.87,5.293 2.41,8.652 0.54,3.348 -0.13,6.699 -2.01,10.059 -1.88,3.351 -5.23,5.031 -10.06,5.031 z m 83.3,1.609 8.05,-6.441 c -22.27,-41.59 -50.3,-73.3792 -84.11,-95.3792 -28.71,-18.7812 -52.99,-25.0703 -72.84,-18.9101 -20.66,6.7109 -29.78,26.1601 -27.36,58.3593 0.26,4.281 0.81,8.711 1.61,13.281 2.41,13.68 6.77,25.481 13.07,35.41 6.31,9.918 13.28,17.36 20.93,22.329 7.65,4.961 15.83,8.593 24.55,10.871 8.71,2.281 16.43,3.351 23.15,3.211 6.7,-0.129 12.33,-0.86 16.89,-2.2 5.9,-1.89 10.73,-5.179 14.49,-9.871 3.75,-4.691 5.9,-10.8 6.44,-18.308 0.54,-7.512 -2.15,-15.961 -8.05,-25.352 -9.39,-15.289 -26.83,-22.539 -52.31,-21.73 -2.96,-26.5589 2.81,-38.7816 17.3,-36.6214 15.82,2.4102 37.96,19.0508 66.4,49.9024 16.37,17.969 26.96,31.789 31.79,41.449"
         style="fill:#111011;fill-opacity:1;fill-rule:nonzero;stroke:none"
         id="path122" /><path
         d="m 1492.69,75.9414 c 17.7,12.3281 32.19,31.9176 43.46,58.7496 9.11,22 11.27,36.879 6.44,44.668 -1.35,2.153 -3.22,3.36 -5.64,3.621 -7.24,0.54 -14.55,-8.109 -21.93,-25.96 -7.38,-17.84 -12.94,-35.879 -16.7,-54.122 z m 56.33,121.5276 c 14.5,-1.879 20.93,-12.61 19.33,-32.188 -1.61,-22.011 -11.68,-44.949 -30.18,-68.8201 -18.78,-24.4218 -40.12,-40.6523 -63.99,-48.6914 -5.63,-2.4179 -11.68,-3.6289 -18.11,-3.6289 -8.59,-0.2617 -15.49,4.7696 -20.73,15.0977 -5.23,10.3203 -8.59,23.9414 -10.06,40.8437 -1.48,16.898 -2.21,35.879 -2.21,56.938 0,21.07 0.93,42.332 2.81,63.789 1.87,21.472 3.43,42.05 4.63,61.781 1.21,19.719 2.27,36.422 3.22,50.101 0.94,13.68 0.61,23.34 -1,28.969 1.06,0.27 2.41,0.539 4.02,0.809 1.61,0.273 4.76,0.461 9.46,0.601 4.69,0.141 9.11,-0.07 13.27,-0.601 4.16,-0.539 8.72,-1.879 13.69,-4.02 4.97,-2.16 9.18,-5.039 12.68,-8.648 3.48,-3.629 6.23,-8.801 8.24,-15.5 2.01,-6.711 2.62,-14.629 1.82,-23.742 -5.91,-79.418 -8.72,-140.047 -8.46,-181.911 4.3,12.344 8.93,23.344 13.89,33 4.96,9.661 11.74,18.383 20.32,26.161 8.59,7.781 17.71,11 27.36,9.66"
         style="fill:#111011;fill-opacity:1;fill-rule:nonzero;stroke:none"
         id="path124" /><path
         d="m 1623.87,139.52 c -0.54,-13.68 5.23,-18.508 17.3,-14.489 9.66,3.489 19.58,10.731 29.79,21.731 1.06,10.199 2.01,17.84 2.81,22.937 -4.29,0 -8.65,-0.328 -13.08,-1.008 -4.42,-0.671 -9.65,-1.871 -15.69,-3.609 -6.03,-1.75 -11,-4.832 -14.89,-9.262 -3.89,-4.429 -5.98,-9.859 -6.24,-16.3 z m 185.93,39.441 h 13.28 c -1.08,-3.762 -2.69,-8.66 -4.84,-14.691 -2.15,-6.04 -6.97,-16.77 -14.48,-32.2 -7.52,-15.429 -15.57,-29.109 -24.15,-41.0387 -8.58,-11.9493 -19.99,-22.7422 -34.2,-32.3907 -14.23,-9.6601 -28.98,-14.5 -44.27,-14.5 -9.93,0 -17.64,3.5703 -23.14,10.668 -5.5,7.1133 -8.79,15.6211 -9.86,25.5508 -1.08,9.9297 -1.21,22.1326 -0.4,36.6206 -18.78,-18.2495 -38.64,-25.6206 -59.57,-22.1206 -13.14,2.4101 -21.6,8.9806 -25.35,19.7106 -3.75,10.731 -2.88,22.27 2.62,34.61 5.5,12.34 14.01,22.129 25.56,29.379 19.04,11.8 40.64,15.691 64.78,11.671 0.81,12.329 0.54,21.321 -0.8,26.961 1.07,0.258 2.41,0.539 4.02,0.809 1.62,0.262 4.76,0.461 9.46,0.602 4.7,0.128 9.12,-0.071 13.28,-0.602 4.16,-0.551 8.72,-1.879 13.68,-4.031 4.96,-2.149 9.19,-5.028 12.69,-8.66 3.47,-3.61 6.23,-8.778 8.24,-15.477 2.01,-6.711 2.62,-14.633 1.82,-23.742 -4.03,-55.809 -0.95,-83.8478 9.25,-84.1212 4.03,-0.2696 8.99,2.9531 14.89,9.6601 10.73,12.0701 20.05,25.4101 27.96,40.0431 7.91,14.617 13.22,26.219 15.9,34.82 l 3.63,12.469"
         style="fill:#111011;fill-opacity:1;fill-rule:nonzero;stroke:none"
         id="path126" /><path
         d="m 1836.35,37.7109 c 2.42,-2.6796 6.04,-5.6406 10.87,-8.8593 l 2.41,-1.1993 c 9.12,-3.2226 14.76,-1.3515 16.9,5.629 2.15,7.2382 1.82,15.0898 -1,23.539 -2.81,8.461 -6.38,15.8985 -10.67,22.3281 -4.29,6.4532 -10.86,15.5625 -19.71,27.3826 -1.35,1.598 -2.29,2.809 -2.82,3.61 -2.15,-4.559 -3.89,-9.801 -5.23,-15.6918 -1.61,-7.789 -2.28,-15.1601 -2.01,-22.1289 0.26,-2.1484 0.66,-5.6406 1.2,-10.4687 0.26,-0.8008 0.54,-1.8828 0.81,-3.211 0.26,-1.3515 0.53,-2.5586 0.8,-3.6289 0.27,-1.0703 0.54,-2.0117 0.8,-2.8203 1.35,-5.0898 3.89,-9.9219 7.65,-14.4805 z m 123.95,121.5271 1.62,-9.656 c -1.62,0.797 -3.9,1.949 -6.85,3.418 -2.95,1.469 -8.52,3.691 -16.7,6.641 -8.18,2.949 -15.9,5.031 -23.14,6.238 -7.24,1.211 -15.09,1.269 -23.54,0.211 -8.46,-1.09 -15.36,-4.039 -20.73,-8.86 2.95,-4.57 7.18,-10.8 12.68,-18.71 5.49,-7.918 9.93,-14.36 13.28,-19.321 3.35,-4.969 7.38,-11.14 12.08,-18.508 4.68,-7.3902 8.25,-13.5621 10.66,-18.5191 2.41,-4.961 4.89,-10.6016 7.44,-16.8906 2.55,-6.3125 3.89,-11.8204 4.02,-16.5118 0.14,-4.6875 -0.26,-9.4492 -1.2,-14.289 -0.94,-4.8203 -3.09,-9.25 -6.44,-13.2813 -3.36,-4.0195 -7.72,-7.6367 -13.08,-10.8594 -19.05,-9.12105 -35.15,-12.19918 -48.29,-9.24996 h -0.4 c -0.81,0 -1.35,0.12891 -1.61,0.40235 -3.5,0.52734 -6.85,1.46875 -10.06,2.80859 -3.76,1.07813 -8.46,3.35938 -14.09,6.84762 -6.17,4.0235 -11.27,8.5938 -15.29,13.6836 -5.1,6.4297 -8.85,13.6797 -11.27,21.7188 0,0.5508 -0.07,1.1601 -0.2,1.8203 -0.14,0.668 -0.2,1.1289 -0.2,1.4102 l -0.4,0.8085 v 0.8008 l -0.41,1.6094 -0.4,1.1992 v 1.6094 c -0.27,0.8125 -0.41,1.8828 -0.41,3.2305 -0.8,4.0195 -1.2,8.3125 -1.2,12.8828 0,9.6484 1.07,18.6367 3.22,26.957 2.42,8.3121 5.89,16.7621 10.46,25.3511 0,0.262 0.13,0.399 0.4,0.399 l 0.41,0.801 c -4.29,5.902 -8.73,12.351 -13.29,19.32 -7.51,11.801 -12.67,22.742 -15.48,32.801 -2.83,10.058 -3.49,18.449 -2.02,25.16 1.47,6.699 4.03,12.73 7.65,18.098 3.62,5.363 7.98,9.589 13.08,12.683 5.09,3.078 9.86,5.688 14.28,7.848 4.43,2.14 8.26,3.48 11.47,4.019 l 4.83,1.2 c -6.98,-16.887 0.14,-42.387 21.33,-76.45 8.31,4.551 17.36,7.301 27.17,8.243 9.78,0.937 18.64,0.468 26.55,-1.403 7.92,-1.879 15.29,-4.16 22.14,-6.84 6.85,-2.687 12.14,-5.23 15.9,-7.648 l 6.03,-3.223"
         style="fill:#111011;fill-opacity:1;fill-rule:nonzero;stroke:none"
         id="path128" /><path
         d="m 2092.32,177.762 8.84,-6.453 c -0.8,-2.149 -1.87,-4.887 -3.21,-8.25 -1.35,-3.348 -4.36,-10.059 -9.05,-20.118 -4.7,-10.062 -9.6,-19.589 -14.7,-28.57 -5.1,-9 -11.6,-18.9218 -19.51,-29.7812 -7.92,-10.871 -15.97,-20.121 -24.15,-27.7695 -8.19,-7.6484 -17.65,-13.8789 -28.37,-18.7109 -10.73,-4.8281 -21.47,-6.8477 -32.2,-6.0391 -6.43,0.2813 -11.94,3.4883 -16.49,9.6602 -4.57,6.1679 -7.99,15.2304 -10.27,27.1679 -2.28,11.9336 -4.02,24.3438 -5.23,37.2226 -1.21,12.879 -1.68,28.5 -1.41,46.879 0.27,18.379 0.67,34.68 1.2,48.902 0.54,14.219 1.35,30.848 2.43,49.899 -1.61,0 -3.9,-0.071 -6.85,-0.211 -2.95,-0.129 -5.1,-0.328 -6.43,-0.59 -5.91,0 -10.21,-0.148 -12.89,-0.41 h -18.91 -5.64 -1.6 l -1.21,12.48 c 0.54,0 1.21,0.129 2.01,0.399 0.28,0 2.01,0.261 5.24,0.812 1.33,0.258 2.95,0.528 4.82,0.801 1.88,0.258 4.23,0.609 7.04,1.008 2.82,0.402 5.17,0.73 7.05,1 0.8,0 2.68,0.211 5.63,0.609 2.95,0.403 5.23,0.731 6.84,1 2.95,0.539 7.65,1.071 14.09,1.61 0.53,0.273 1.07,0.41 1.61,0.41 3.48,53.121 4.16,83.703 2.01,91.75 1.07,0.273 2.41,0.531 4.02,0.801 1.61,0.269 4.77,0.472 9.47,0.609 4.68,0.133 9.11,-0.07 13.28,-0.609 4.15,-0.528 8.71,-1.879 13.68,-4.02 4.96,-2.148 9.18,-5.031 12.67,-8.648 3.49,-3.633 6.24,-8.793 8.26,-15.5 2.01,-6.711 2.6,-14.622 1.8,-23.743 -0.27,-4.82 -0.94,-16.64 -2.01,-35.41 1.07,0 2.95,0.063 5.64,0.192 2.67,0.14 4.56,0.211 5.63,0.211 2.95,0.257 7.1,0.398 12.47,0.398 1.34,0 3.22,0.059 5.64,0.211 2.42,0.121 4.16,0.187 5.23,0.187 h 8.45 7.24 l 0.81,-12.468 c -1.61,-0.551 -3.89,-1.071 -6.84,-1.61 -2.41,-0.539 -5.24,-0.949 -8.45,-1.211 -1.08,0 -2.75,-0.199 -5.04,-0.609 -2.27,-0.398 -4.09,-0.73 -5.43,-1 -1.35,0 -3.42,-0.199 -6.24,-0.602 -2.81,-0.41 -5.03,-0.738 -6.64,-1.007 -1.07,0 -3.15,-0.2 -6.23,-0.602 -3.08,-0.398 -5.44,-0.738 -7.04,-1.008 -1.08,-21.199 -1.88,-44.539 -2.42,-70.031 0.26,-48.82 0.67,-76.32 1.21,-82.488 1.87,-22.0003 6.57,-32.8714 14.08,-32.5901 3.49,0 7.51,1.8594 12.08,5.6289 7.77,6.4414 17.03,17.9687 27.76,34.6092 10.73,16.629 19.46,31.789 26.17,45.469 l 10.06,20.133"
         style="fill:#111011;fill-opacity:1;fill-rule:nonzero;stroke:none"
         id="path130" /><path
         d="m 2136.17,234.891 c -5.9,-5.891 -13,-8.84 -21.33,-8.84 -8.32,0 -15.42,2.949 -21.32,8.84 -5.9,5.898 -8.85,13.019 -8.85,21.328 0,8.32 2.95,15.429 8.85,21.332 5.9,5.898 13,8.859 21.32,8.859 8.33,0 15.43,-2.961 21.33,-8.859 5.9,-5.903 8.86,-13.012 8.86,-21.332 0,-8.309 -2.96,-15.43 -8.86,-21.328 z m 78.48,-59.961 11.67,-4.418 c -0.26,-0.27 -2.08,-4.16 -5.43,-11.672 -3.36,-7.52 -6.98,-15.36 -10.87,-23.539 -3.89,-8.192 -9.39,-17.512 -16.49,-27.969 -7.12,-10.4609 -14.43,-19.6601 -21.94,-27.5703 -7.52,-7.9101 -16.5,-14.5508 -26.96,-19.9219 -10.47,-5.371 -21.06,-7.9101 -31.8,-7.6484 -12.07,0.5391 -21.12,5.4375 -27.16,14.6875 -6.04,9.2617 -9.25,20.793 -9.65,34.6131 -0.41,13.809 0.06,27.559 1.4,41.25 1.34,13.688 2.88,26.418 4.63,38.227 1.74,11.812 2.21,19.051 1.41,21.742 1.61,0.258 3.75,0.59 6.43,1 2.69,0.398 7.45,0.398 14.29,0 6.85,-0.41 12.68,-1.609 17.51,-3.621 4.82,-2.008 8.98,-5.84 12.47,-11.469 3.49,-5.641 4.56,-12.879 3.22,-21.73 -7.24,-49.102 -6.03,-75.5316 3.63,-79.2816 4.02,-1.6094 9.52,0 16.49,4.8203 8.59,5.9023 17.65,15.7693 27.17,29.5823 9.52,13.82 16.96,26.097 22.33,36.828 l 7.65,16.09"
         style="fill:#111011;fill-opacity:1;fill-rule:nonzero;stroke:none"
         id="path132" /><path
         d="m 2225.51,139.52 c -0.54,-13.68 5.23,-18.508 17.3,-14.489 9.66,3.489 19.58,10.731 29.79,21.731 1.06,10.199 2.01,17.84 2.81,22.937 -4.29,0 -8.65,-0.328 -13.07,-1.008 -4.43,-0.671 -9.66,-1.871 -15.7,-3.609 -6.03,-1.75 -11,-4.832 -14.89,-9.262 -3.89,-4.429 -5.98,-9.859 -6.24,-16.3 z m 185.93,39.441 h 13.28 c -1.08,-3.762 -2.69,-8.66 -4.84,-14.691 -2.14,-6.04 -6.97,-16.77 -14.48,-32.2 -7.52,-15.429 -15.56,-29.109 -24.15,-41.0387 -8.58,-11.9493 -19.99,-22.7422 -34.2,-32.3907 -14.23,-9.6601 -28.98,-14.5 -44.27,-14.5 -9.93,0 -17.64,3.5703 -23.14,10.668 -5.5,7.1133 -8.79,15.6211 -9.86,25.5508 -1.08,9.9297 -1.2,22.1326 -0.4,36.6206 -18.78,-18.2495 -38.64,-25.6206 -59.56,-22.1206 -13.15,2.4101 -21.61,8.9806 -25.36,19.7106 -3.75,10.731 -2.88,22.27 2.62,34.61 5.5,12.34 14.01,22.129 25.56,29.379 19.04,11.8 40.64,15.691 64.78,11.671 0.81,12.329 0.54,21.321 -0.8,26.961 1.07,0.258 2.41,0.539 4.03,0.809 1.61,0.262 4.75,0.461 9.45,0.602 4.7,0.128 9.12,-0.071 13.28,-0.602 4.16,-0.551 8.72,-1.879 13.68,-4.031 4.96,-2.149 9.19,-5.028 12.69,-8.66 3.47,-3.61 6.23,-8.778 8.24,-15.477 2.01,-6.711 2.62,-14.633 1.82,-23.742 -4.03,-55.809 -0.95,-83.8478 9.25,-84.1212 4.03,-0.2696 8.99,2.9531 14.89,9.6601 10.73,12.0701 20.05,25.4101 27.97,40.0431 7.91,14.617 13.21,26.219 15.89,34.82 l 3.63,12.469"
         style="fill:#111011;fill-opacity:1;fill-rule:nonzero;stroke:none"
         id="path134" /><path
         d="m 2558.32,175.332 8.45,-4.023 c -11.81,-23.079 -20.12,-38.77 -24.95,-47.079 -4.03,-7.781 -8.19,-14.23 -12.47,-19.32 -3.76,-4.289 -6.85,-7.3787 -9.26,-9.2498 -0.27,-0.2813 -0.74,-0.6094 -1.41,-1.0118 -0.67,-0.3984 -1.14,-0.7382 -1.4,-1.0078 -0.28,-0.2695 -0.81,-0.5312 -1.61,-0.8086 -0.82,-0.2617 -1.35,-0.5312 -1.62,-0.8007 -0.27,0 -0.94,-0.2696 -2.01,-0.8008 h -1.21 l -0.4,-0.4102 h -1.61 -0.4 -0.4 -0.4 -1.21 c -1.88,0 -3.49,0.5391 -4.83,1.6094 -1.88,0.8125 -3.22,2.1523 -4.03,4.0312 -0.8,1.0704 -1.88,4.0191 -3.21,8.8481 -0.55,3.75 -0.81,8.992 -0.81,15.703 0.26,6.699 0.93,16.5 2.01,29.367 0.54,6.453 0.81,11.141 0.81,14.09 0,5.902 -0.14,9.933 -0.4,12.082 -0.28,1.058 -0.95,1.871 -2.01,2.41 -0.81,0.531 -1.89,0.129 -3.23,-1.199 l -2.41,-2.43 c -1.88,-2.41 -3.76,-5.633 -5.63,-9.652 -1.35,-2.418 -3.09,-6.039 -5.24,-10.86 -4.02,-10.468 -6.58,-17.441 -7.64,-20.929 -3.49,-10.211 -6.71,-21.071 -9.66,-32.602 l -3.63,-13.2773 c -5.37,-20.9297 -17.04,-31.6601 -35,-32.2031 -11.01,-0.2578 -18.99,3.9609 -23.95,12.6836 -4.97,8.7187 -7.11,19.8476 -6.44,33.4098 0.67,13.539 1.87,28.227 3.62,44.059 1.75,15.828 3.62,30.59 5.63,44.269 2.01,13.68 1.95,25.211 -0.19,34.61 0.8,0.262 2.01,0.531 3.62,0.801 1.61,0.269 4.56,0.531 8.85,0.808 4.28,0.262 8.39,0.063 12.27,-0.609 3.89,-0.668 8.12,-2.281 12.68,-4.82 4.56,-2.559 8.46,-6.051 11.67,-10.469 3.22,-4.422 5.7,-10.66 7.45,-18.711 1.74,-8.051 2.34,-17.438 1.81,-28.18 v -2.012 c 13.94,24.153 26.29,36.094 37.02,35.821 7.51,-0.27 11.8,-6.239 12.88,-17.91 1.07,-11.668 0.54,-22.469 -1.61,-32.387 0,-2.16 -0.27,-5.102 -0.8,-8.863 v -2.411 c -0.55,-3.218 -1.08,-8.316 -1.61,-15.289 0,-6.168 0.13,-10.468 0.4,-12.879 0.53,-2.148 0.93,-3.492 1.21,-4.031 l 0.4,-0.398 0.4,-0.403 h 0.4 0.41 l 1.2,0.403 h 0.81 0.4 c 0,0.269 0.26,0.398 0.8,0.398 0.26,0.27 0.54,0.403 0.81,0.403 0.53,0.269 0.94,0.41 1.2,0.41 l 0.81,0.797 c 0.54,0.273 0.94,0.543 1.2,0.812 0.82,0.527 3.23,2.82 7.25,6.84 4.56,5.359 8.58,11.269 12.07,17.711 l 24.15,44.66"
         style="fill:#111011;fill-opacity:1;fill-rule:nonzero;stroke:none"
         id="path136" /><path
         d="m 2770.79,293.25 c -5.9,0.27 -11.94,-4.691 -18.11,-14.891 -6.17,-10.199 -11.54,-23.07 -16.1,-38.629 -4.56,-15.57 -8.19,-28.781 -10.86,-39.64 -2.69,-10.871 -4.7,-20.32 -6.04,-28.379 v -2.813 c 19.85,13.942 36.22,35.821 49.1,65.594 10.46,24.68 13.68,42.258 9.65,52.719 -1.61,3.758 -4.16,5.769 -7.64,6.039 z M 2727.33,49.7813 c 2.14,0.8085 5.09,2.1484 8.85,4.0195 3.76,1.8789 10.33,5.8398 19.72,11.8789 9.39,6.0312 17.64,12.4023 24.75,19.1094 7.1,6.7109 13.48,15.2929 19.11,25.7619 5.64,10.461 8.32,21.187 8.05,32.191 -0.26,6.438 -2.61,11.328 -7.04,14.688 -4.43,3.351 -9.99,5.031 -16.7,5.031 -6.71,0 -14.02,-1.07 -21.93,-3.223 -7.92,-2.148 -15.7,-5.226 -23.34,-9.258 -7.65,-4.019 -14.43,-8.441 -20.33,-13.281 -1.07,-53.9177 1.88,-82.8982 8.86,-86.9177 z M 2788.9,189.02 c 19.32,0 32.66,-5.829 40.04,-17.5 7.37,-11.668 8.92,-25.77 4.63,-42.258 -4.3,-16.5 -12.88,-32.5432 -25.76,-48.1018 -31.12,-37.5508 -72.98,-56.3282 -125.56,-56.3282 -9.66,-0.2734 -17.43,4.8985 -23.33,15.4883 -5.91,10.6016 -9.66,24.4805 -11.27,41.6485 -1.61,17.1718 -2.41,36.6332 -2.41,58.3512 0,21.731 1,43.672 3.01,65.809 2.01,22.121 3.68,43.32 5.03,63.582 1.34,20.25 2.55,37.559 3.63,51.91 1.07,14.348 0.66,24.75 -1.22,31.188 1.08,0.273 2.55,0.531 4.44,0.812 1.87,0.258 5.43,0.527 10.66,0.801 5.23,0.258 10.19,0.058 14.89,-0.602 4.69,-0.668 9.85,-2.218 15.49,-4.629 5.63,-2.421 10.39,-5.632 14.29,-9.66 3.88,-4.019 6.97,-9.801 9.25,-17.301 2.28,-7.519 3.02,-16.371 2.21,-26.558 -0.8,-10.473 -1.6,-22.82 -2.41,-37.031 17.17,37.031 37.28,54.191 60.37,51.507 18.77,-3.488 26.01,-18.378 21.73,-44.668 -4.3,-26.3 -17.31,-52.589 -39.04,-78.878 6.44,1.617 13.55,2.418 21.33,2.418"
         style="fill:#111011;fill-opacity:1;fill-rule:nonzero;stroke:none"
         id="path138" /><path
         d="m 2894.73,139.52 c -0.53,-13.68 5.24,-18.508 17.31,-14.489 9.66,3.489 19.58,10.731 29.78,21.731 1.07,10.199 2.01,17.84 2.82,22.937 -4.29,0 -8.66,-0.328 -13.08,-1.008 -4.42,-0.671 -9.66,-1.871 -15.69,-3.609 -6.04,-1.75 -11.01,-4.832 -14.9,-9.262 -3.88,-4.429 -5.97,-9.859 -6.24,-16.3 z m 185.93,39.441 h 13.28 c -1.07,-3.762 -2.68,-8.66 -4.83,-14.691 -2.15,-6.04 -6.97,-16.77 -14.48,-32.2 -7.52,-15.429 -15.57,-29.109 -24.16,-41.0387 -8.58,-11.9493 -19.99,-22.7422 -34.19,-32.3907 -14.23,-9.6601 -28.99,-14.5 -44.27,-14.5 -9.93,0 -17.65,3.5703 -23.15,10.668 -5.49,7.1133 -8.79,15.6211 -9.86,25.5508 -1.07,9.9297 -1.2,22.1326 -0.4,36.6206 -18.78,-18.2495 -38.63,-25.6206 -59.56,-22.1206 -13.15,2.4101 -21.6,8.9806 -25.35,19.7106 -3.75,10.731 -2.88,22.27 2.61,34.61 5.5,12.34 14.02,22.129 25.56,29.379 19.04,11.8 40.65,15.691 64.79,11.671 0.81,12.329 0.53,21.321 -0.8,26.961 1.06,0.258 2.41,0.539 4.02,0.809 1.61,0.262 4.76,0.461 9.45,0.602 4.7,0.128 9.12,-0.071 13.28,-0.602 4.16,-0.551 8.72,-1.879 13.69,-4.031 4.96,-2.149 9.18,-5.028 12.68,-8.66 3.48,-3.61 6.23,-8.778 8.24,-15.477 2.01,-6.711 2.62,-14.633 1.82,-23.742 -4.02,-55.809 -0.95,-83.8478 9.26,-84.1212 4.02,-0.2696 8.98,2.9531 14.88,9.6601 10.73,12.0701 20.06,25.4101 27.97,40.0431 7.91,14.617 13.21,26.219 15.9,34.82 l 3.62,12.469"
         style="fill:#111011;fill-opacity:1;fill-rule:nonzero;stroke:none"
         id="path140" /><path
         d="m 3144.23,193.852 c 19.32,-6.172 23.48,-22.801 12.49,-49.903 -1.89,0 -3.7,0.332 -5.44,1 -1.75,0.672 -2.89,1.41 -3.42,2.223 l -1.21,0.797 c 0.26,0.543 0.53,1.34 0.81,2.41 0.26,1.082 0.52,2.953 0.8,5.641 0.26,2.679 0.2,5.031 -0.2,7.039 -0.41,2.023 -1.55,3.89 -3.42,5.632 -1.88,1.75 -4.57,2.758 -8.05,3.02 -1.61,0.269 -3.02,0.34 -4.23,0.211 -1.2,-0.141 -3.21,-0.953 -6.04,-2.422 -2.81,-1.48 -5.37,-3.691 -7.64,-6.641 -2.28,-2.961 -4.63,-7.578 -7.04,-13.879 -2.42,-6.308 -4.3,-13.89 -5.64,-22.738 -4.56,-28.4412 1.08,-41.8514 16.91,-40.242 16.09,2.1406 38.49,17.43 67.2,45.879 17.97,17.703 29.38,31.519 34.21,41.441 l 8.05,-6.429 c -22.28,-41.59 -50.58,-72.5824 -84.91,-92.9613 -28.71,-16.9102 -53.4,-22 -74.06,-15.2891 -20.39,6.6914 -30.17,23.461 -29.37,50.3004 0.26,4.821 0.8,9.918 1.61,15.289 1.88,11.532 5.24,21.731 10.06,30.59 4.83,8.84 10.32,15.821 16.5,20.922 6.17,5.09 12.68,9.317 19.52,12.68 6.84,3.348 13.68,5.488 20.52,6.437 6.85,0.93 12.94,1.27 18.31,1 5.36,-0.269 9.92,-0.949 13.68,-2.007"
         style="fill:#111011;fill-opacity:1;fill-rule:nonzero;stroke:none"
         id="path142" /><path
         d="m 3415.07,164.059 7.65,-2.411 c -0.81,-2.679 -2.08,-6.168 -3.83,-10.457 -1.75,-4.289 -5.22,-11.871 -10.46,-22.742 -5.23,-10.859 -10.46,-20.32 -15.69,-28.367 -5.23,-8.0507 -11.47,-15.0898 -18.72,-21.1211 -7.24,-6.039 -14.22,-8.3906 -20.92,-7.039 -7.79,1.5976 -13.95,9.3789 -18.51,23.3398 -4.57,13.9373 -7.52,28.8283 -8.86,44.6603 -1.34,15.828 -3.76,30.187 -7.24,43.058 -3.49,12.879 -8.19,19.321 -14.09,19.321 -4.82,0 -8.58,-5.371 -11.27,-16.102 -2.68,-10.73 -4.96,-23.679 -6.83,-38.828 -1.89,-15.16 -4.43,-30.332 -7.65,-45.469 -3.22,-15.1715 -9,-27.9723 -17.31,-38.4411 -8.32,-10.4609 -19.05,-15.5625 -32.19,-15.289 -8.59,-0.2735 -15.49,4.7578 -20.73,15.0898 -5.23,10.3281 -8.59,23.9492 -10.05,40.8403 -1.49,16.91 -2.22,35.878 -2.22,56.949 0,21.058 0.94,42.32 2.81,63.789 1.88,21.461 3.43,42.051 4.63,61.769 1.21,19.723 2.28,36.422 3.22,50.102 0.94,13.68 0.61,23.34 -1,28.98 1.87,0.528 4.35,1 7.44,1.411 3.08,0.398 8.46,0.269 16.1,-0.411 7.65,-0.671 14.29,-2.41 19.92,-5.222 5.64,-2.828 10.6,-8.199 14.89,-16.11 4.28,-7.91 5.89,-18.039 4.83,-30.379 -4.57,-59.558 -7.38,-109.46 -8.46,-149.699 10.2,48.02 25.09,72.039 44.68,72.039 10.46,0 18.58,-7.32 24.35,-21.941 5.76,-14.629 9.19,-30.789 10.26,-48.488 1.07,-17.711 2.88,-34.352 5.43,-49.911 2.55,-15.558 6.37,-24.0112 11.47,-25.3511 6.17,-1.6094 14.09,3.6328 23.75,15.7031 9.65,12.07 17.84,24.547 24.55,37.418 l 10.05,19.309"
         style="fill:#111011;fill-opacity:1;fill-rule:nonzero;stroke:none"
         id="path144" /></g></g></svg>
