<?xml version="1.0" encoding="utf-8"?>
<svg viewBox="211.028 3550.573 1180.412 240.971" xmlns="http://www.w3.org/2000/svg">
  <path d="m 1935.46,2425.2 c 0,-3.8 0,-9.5 0,-13.3 221.09,154.4 358.32,581.3 242.05,588.9 -121.98,7.6 -224.9,-482.2 -242.05,-575.6 z M 2352.87,2288 c -7.63,162 -283.99,87.7 -423.13,-28.6 -3.81,-215.4 5.72,-390.7 41.93,-411.7 0,0 390.73,162 381.2,440.3 z m 0,-291.6 c -131.52,-158.2 -322.11,-266.9 -594.67,-266.9 -339.26,-9.5 -72.42,1360.9 -125.79,1553.4 0,0 365.94,82 337.36,-270.6 -3.82,-51.5 -7.63,-110.6 -11.44,-175.4 62.9,135.3 158.19,259.2 285.89,244 184.89,-24.8 116.27,-345 -81.95,-585.2 30.49,7.7 64.8,11.5 101.02,11.5 287.8,0 270.65,-291.6 89.58,-510.8" style="fill:#100f0d;fill-opacity:1;fill-rule:nonzero;stroke:none" id="path14" transform="matrix(0.133333, 0, 0, -0.133333, 0, 4000)"/>
  <path d="m 2857.9,2209.8 c 123.88,-7.6 171.53,53.4 190.59,91.5 13.34,26.7 28.59,110.6 -45.74,112.5 -22.87,1.9 -108.64,7.6 -144.85,-204 z m 577.51,181.1 c -322.11,-600.4 -960.62,-771.9 -865.32,-202 57.18,343.1 369.76,360.2 466.97,329.7 76.24,-24.8 144.85,-118.2 60.99,-253.5 -57.18,-93.4 -179.16,-104.8 -247.78,-102.9 -51.46,-459.3 480.31,122 547.02,259.2 l 38.12,-30.5" style="fill:#100f0d;fill-opacity:1;fill-rule:nonzero;stroke:none" id="path16" transform="matrix(0.133333, 0, 0, -0.133333, 0, 4000)"/>
  <path d="m 3690.76,2838.8 c 0,11.5 13.34,160.1 -51.46,253.5 -9.53,-125.8 -20.97,-291.6 -28.59,-457.4 36.21,49.5 68.61,114.3 80.05,203.9 z m -223,-996.8 c -5.72,-1.9 -11.44,-1.9 -19.06,-1.9 -1.91,0 -1.91,0 -1.91,0 -234.43,1.9 -116.26,1216 -112.45,1261.7 17.15,169.7 22.87,272.6 106.73,268.8 1.91,0 64.81,0 131.52,-45.8 40.02,-26.6 72.42,-62.9 101.01,-106.7 32.41,-55.3 55.28,-122 66.71,-200.1 20.97,-137.2 5.72,-259.2 -49.55,-360.2 -24.78,-45.8 -55.28,-83.9 -83.87,-112.5 -5.71,-139.1 -7.62,-270.7 -5.71,-373.6 7.62,-118.1 17.15,-135.3 93.39,-85.7 177.26,112.4 278.27,314.4 278.27,314.4 l 53.37,-20.9 c -9.53,-34.3 -253.5,-436.5 -495.55,-524.2 -20.97,-9.5 -43.84,-13.3 -62.9,-13.3" style="fill:#100f0d;fill-opacity:1;fill-rule:nonzero;stroke:none" id="path18" transform="matrix(0.133333, 0, 0, -0.133333, 0, 4000)"/>
  <path d="m 4239.66,2307.1 c 3.81,38.1 7.62,74.3 13.34,108.6 -57.18,0 -232.53,-11.4 -236.34,-143 -5.72,-139.1 139.14,-57.1 223,34.4 z m 720.46,152.4 c 0,0 -186.79,-638.5 -577.51,-638.5 -150.57,0 -169.64,162 -158.2,345 -64.8,-62.9 -152.48,-125.8 -282.09,-104.8 -196.31,34.3 -152.47,293.5 13.35,396.4 121.98,76.3 249.68,64.8 306.86,55.3 3.81,51.5 3.81,97.2 -3.81,127.7 0,0 324.01,72.4 299.23,-242.1 -22.87,-314.4 -7.62,-487.9 114.36,-352.6 173.45,194.4 224.91,413.6 224.91,413.6 h 62.9" style="fill:#100f0d;fill-opacity:1;fill-rule:nonzero;stroke:none" id="path20" transform="matrix(0.133333, 0, 0, -0.133333, 0, 4000)"/>
  <path d="m 5724.33,2425.2 c 0,-3.8 0,-9.5 0,-13.3 221.09,154.4 358.32,581.3 242.06,588.9 -121.99,7.6 -224.91,-482.2 -242.06,-575.6 z M 6141.74,2288 c -7.62,162 -283.99,87.7 -423.13,-28.6 -3.81,-215.4 5.72,-390.7 41.93,-411.7 0,0 390.73,162 381.2,440.3 z m 0,-291.6 c -131.52,-158.2 -322.11,-266.9 -594.66,-266.9 -339.27,-9.5 -72.43,1360.9 -125.8,1553.4 0,0 365.95,82 337.36,-270.6 -3.82,-51.5 -7.63,-110.6 -11.44,-175.4 62.9,135.3 158.2,259.2 285.9,244 184.88,-24.8 116.26,-345 -81.96,-585.2 30.5,7.7 64.8,11.5 101.02,11.5 287.8,0 270.65,-291.6 89.58,-510.8" style="fill:#100f0d;fill-opacity:1;fill-rule:nonzero;stroke:none" id="path22" transform="matrix(0.133333, 0, 0, -0.133333, 0, 4000)"/>
  <path d="m 6776.37,2307.1 c 3.82,38.1 7.62,74.3 13.34,108.6 -57.18,0 -232.53,-11.4 -236.34,-143 -5.71,-139.1 139.14,-57.1 223,34.4 z m 720.46,152.4 c 0,0 -186.79,-638.5 -577.51,-638.5 -150.57,0 -169.63,162 -158.2,345 -64.8,-62.9 -152.47,-125.8 -282.08,-104.8 -196.32,34.3 -152.48,293.5 13.34,396.4 121.99,76.3 249.69,64.8 306.86,55.3 3.82,51.5 3.82,97.2 -3.81,127.7 0,0 324.02,72.4 299.24,-242.1 -22.87,-314.4 -7.62,-487.9 114.36,-352.6 173.44,194.4 224.91,413.6 224.91,413.6 h 62.89" style="fill:#100f0d;fill-opacity:1;fill-rule:nonzero;stroke:none" id="path24" transform="matrix(0.133333, 0, 0, -0.133333, 0, 4000)"/>
  <path d="m 8192.5,2366.1 c -15.25,-45.7 -188.7,-819.5 -558.46,-802.4 -253.49,11.5 -116.26,543.2 -87.67,817.7 -423.13,9.5 -264.93,169.6 -304.96,301.1 0,0 276.37,118.2 257.31,-123.9 -3.81,-51.4 80.05,-49.5 81.96,-49.5 81.95,5.7 285.89,-7.6 255.4,-259.2 -40.03,-312.6 -93.39,-630.9 57.18,-468.9 150.57,160.1 238.24,613.7 238.24,613.7 0,0 76.24,17.2 61,-28.6" style="fill:#100f0d;fill-opacity:1;fill-rule:nonzero;stroke:none" id="path26" transform="matrix(0.133333, 0, 0, -0.133333, 0, 4000)"/>
  <path d="m 8827.18,2423.3 c 0,0 -247.78,-688 -621.35,-659.5 -188.69,7.7 -167.73,585.2 -141.04,1040.7 -22.88,-1.9 -43.84,-1.9 -62.9,-3.8 -20.97,0 -41.93,0 -60.99,-1.9 -38.12,0 -68.61,0 -89.58,0 -11.44,0 -20.97,0 -26.69,0 -5.71,0 -7.62,0 -7.62,0 l -5.72,59.1 c 0,0 3.81,0 9.53,1.9 5.72,0 13.35,1.9 24.78,3.8 20.97,3.8 51.46,7.6 89.58,13.3 17.15,1.9 38.12,5.8 59.09,7.7 20.96,3.8 43.83,5.7 66.71,7.6 3.81,1.9 5.71,1.9 7.62,1.9 13.34,209.6 22.87,381.2 9.53,434.6 0,0 324.01,72.4 299.24,-242.1 -1.91,-45.8 -5.72,-104.8 -9.53,-167.7 17.15,0 36.21,1.9 53.37,1.9 20.96,1.9 40.02,1.9 59.08,1.9 19.06,0 36.21,1.9 51.46,1.9 15.25,0 28.59,0 40.03,0 20.96,0 34.3,0 34.3,0 l 3.82,-59.1 c 0,0 -11.44,-3.8 -32.4,-7.6 -11.44,-1.9 -24.79,-3.8 -40.03,-5.7 -15.25,-1.9 -32.4,-5.8 -49.55,-7.7 -19.07,-1.9 -40.03,-5.7 -61,-7.6 -19.06,-1.9 -41.93,-5.7 -62.9,-7.6 -5.71,-102.9 -9.52,-219.2 -11.43,-331.7 1.91,-333.5 -19.06,-640.4 129.61,-518.4 125.79,101 303.04,474.6 303.04,474.6 l 41.94,-30.5" style="fill:#100f0d;fill-opacity:1;fill-rule:nonzero;stroke:none" id="path28" transform="matrix(0.133333, 0, 0, -0.133333, 0, 4000)"/>
  <path d="m 9097.78,2430.9 c 3.82,-7.6 9.53,-13.3 15.25,-19 9.53,-9.5 19.06,-17.2 32.4,-22.9 5.72,-3.8 13.34,-7.6 20.97,-9.5 7.62,-1.9 15.25,-5.7 24.78,-5.7 15.25,-3.8 30.49,-5.8 45.74,-5.8 -7.62,43.9 -26.68,76.3 -57.18,85.8 -24.77,7.6 -53.36,-1.9 -81.96,-22.9 z m 123.89,-234.4 c 7.63,21 11.44,40 15.25,61 -19.06,-1.9 -40.03,-3.8 -59.08,-1.9 -13.34,1.9 -26.69,1.9 -40.03,5.7 -13.34,1.9 -26.68,5.7 -40.03,9.5 -24.77,7.7 -47.64,21 -66.71,34.3 -5.71,3.9 -11.43,7.7 -15.24,11.5 -7.63,-15.3 -13.34,-32.4 -19.06,-47.7 -38.12,-121.9 -19.06,-238.2 41.93,-257.3 62.9,-19 144.85,62.9 182.97,184.9 z m 461.25,257.3 c 0,0 -9.53,-7.6 -26.68,-19 -3.81,-3.9 -9.54,-5.8 -15.25,-9.6 -5.72,-3.8 -11.44,-7.6 -17.16,-11.4 -5.71,-3.8 -13.34,-7.6 -19.05,-11.4 -7.63,-5.8 -15.25,-9.6 -22.88,-15.3 -7.62,-3.8 -17.15,-7.6 -24.78,-13.3 -7.62,-5.8 -17.15,-9.6 -26.68,-15.3 -3.81,-1.9 -9.53,-5.7 -13.34,-7.6 -3.81,-1.9 -5.72,-1.9 -7.62,-3.8 -1.91,-1.9 -5.72,-1.9 -7.63,-3.8 -5.72,-1.9 -9.53,-3.8 -15.24,-7.7 -5.72,-1.9 -9.53,-3.8 -15.25,-7.6 -20.97,-9.5 -43.84,-19 -66.71,-28.6 -22.87,-9.5 -45.74,-17.1 -70.52,-24.8 -11.44,-1.9 -20.97,-5.7 -30.5,-7.6 -3.81,-22.8 -9.53,-45.7 -17.15,-68.6 -62.9,-198.2 -238.25,-320.2 -392.63,-270.6 -154.39,47.6 -226.81,247.7 -163.92,447.9 62.9,198.2 238.25,318.3 392.63,270.6 106.74,-34.3 175.36,-144.8 184.88,-274.4 1.91,0 3.81,0 5.72,0 20.97,3.8 43.84,7.6 64.8,13.3 20.97,3.8 43.84,11.4 62.9,17.2 5.72,1.9 11.43,3.8 15.25,5.7 5.72,1.9 11.43,3.8 15.25,3.8 3.81,1.9 5.72,1.9 7.62,3.8 1.91,0 5.72,1.9 7.63,1.9 3.81,1.9 9.52,3.8 13.34,5.7 9.53,3.8 19.05,7.6 28.59,11.5 7.62,1.9 17.15,5.7 24.78,9.5 7.62,3.8 15.24,7.6 22.87,9.5 7.62,3.8 15.24,7.6 20.96,9.5 5.72,3.9 13.34,5.8 17.16,9.6 5.71,1.9 11.43,3.8 17.15,5.7 17.15,9.5 28.59,15.2 28.59,15.2 l 22.87,-40" style="fill:#100f0d;fill-opacity:1;fill-rule:nonzero;stroke:none" id="path30" transform="matrix(0.133333, 0, 0, -0.133333, 0, 4000)"/>
  <path d="m 9875.4,2288 c 102.92,139.1 158.2,284 87.67,282.1 -55.27,0 -66.71,-131.5 -87.67,-282.1 z m 560.4,175.3 c 0,0 -131.6,-548.9 -427,-548.9 -129.59,-7.6 -181.05,141.1 -181.05,141.1 -36.21,-122 -101.02,-219.2 -223,-215.4 -301.14,-7.6 -62.9,1332.3 -110.55,1503.8 0,0 324.02,72.4 301.15,-240.2 -13.34,-169.6 -34.31,-465 -40.03,-709 36.22,169.7 99.11,341.2 209.66,341.2 207.72,0 171.52,-324 -78.14,-547 0,-13.4 -1.91,-211.6 133.46,-211.6 249.6,0 383.1,503.2 383.1,503.2 l 32.4,-17.2" style="fill:#100f0d;fill-opacity:1;fill-rule:nonzero;stroke:none" id="path32" transform="matrix(0.133333, 0, 0, -0.133333, 0, 4000)"/>
</svg>
