<?xml version="1.0" encoding="utf-8"?>
<svg viewBox="359.034 617.411 447.739 65.181" width="158.733" height="65.181" xmlns="http://www.w3.org/2000/svg">
  <path d="m 2874.77,454.148 c -3.48,0 -12.47,-2.75 -26.96,-8.25 -14.48,-5.488 -28.98,-10.668 -43.47,-15.488 -14.48,-4.84 -30.31,-7.781 -47.48,-8.859 -17.18,-1.063 -30.32,2.82 -39.44,11.668 -9.66,6.179 -16.44,20.39 -20.32,42.66 -3.89,22.262 -5.17,47.211 -3.82,74.851 1.34,27.641 3.02,56.352 5.03,86.122 2.01,29.789 4.02,55.136 6.03,76.07 2.01,20.93 1.81,35.949 -0.6,45.066 1.07,0.262 2.55,0.532 4.42,0.813 1.88,0.258 5.44,0.519 10.67,0.801 5.23,0.257 10.19,0.058 14.89,-0.614 4.69,-0.668 9.86,-2.207 15.5,-4.629 5.63,-2.41 10.39,-5.629 14.28,-9.648 3.89,-4.031 6.98,-9.801 9.26,-17.313 2.28,-7.507 3.02,-16.367 2.21,-26.558 -8.05,-103.828 -10.6,-175.719 -7.65,-215.699 17.71,7.781 34.47,14.347 50.3,19.718 11.01,3.481 20.13,4.223 27.38,2.211 7.23,-2.011 12.87,-5.898 16.89,-11.672 4.02,-5.769 6.97,-11.668 8.86,-17.707 1.87,-6.031 2.95,-11.472 3.22,-16.3 l 0.8,-7.243" style="fill:#111011;fill-opacity:1;fill-rule:nonzero;stroke:none" id="path112" transform="matrix(0.133333, 0, 0, -0.133333, 0, 720.493347)"/>
  <path d="m 3091.69,585.34 8.84,0.808 c 4.03,-0.269 5.5,-2.277 4.44,-6.027 0,-0.281 -0.68,-3.301 -2.01,-9.07 -1.35,-5.77 -2.76,-11.672 -4.23,-17.699 -1.48,-6.043 -3.83,-13.622 -7.04,-22.743 -3.23,-9.121 -6.59,-17.699 -10.06,-25.75 -3.5,-8.058 -7.99,-16.379 -13.49,-24.949 -5.5,-8.59 -11.34,-15.898 -17.51,-21.93 -6.17,-6.039 -13.48,-11.011 -21.92,-14.898 -8.46,-3.883 -17.39,-5.84 -26.77,-5.84 -25.75,0 -38.37,22.539 -37.83,67.617 -13.68,-21.199 -31.13,-31.257 -52.32,-30.179 -12.07,0.531 -21.12,5.429 -27.15,14.679 -6.05,9.262 -9.26,20.789 -9.66,34.61 -0.41,13.82 0.06,27.57 1.4,41.25 1.34,13.679 2.88,26.429 4.63,38.242 1.74,11.789 2.21,19.039 1.41,21.719 1.61,0.269 3.75,0.609 6.43,1.011 2.69,0.399 7.46,0.399 14.29,0 6.85,-0.402 12.68,-1.609 17.51,-3.621 4.83,-2.019 8.99,-5.832 12.47,-11.468 3.49,-5.633 4.56,-12.883 3.22,-21.743 -6.98,-49.089 -7.38,-76.187 -1.21,-81.289 3.76,-2.941 9.93,0 18.52,8.86 8.31,8.59 14.29,20.66 17.91,36.218 3.62,15.563 5.16,28.981 4.63,40.25 l -0.81,16.891 c 1.07,0.262 2.42,0.543 4.02,0.813 1.61,0.269 4.77,0.457 9.46,0.609 4.69,0.121 9.12,-0.082 13.29,-0.609 4.15,-0.551 8.77,-1.883 13.87,-4.02 5.1,-2.16 9.33,-5.031 12.69,-8.652 3.35,-3.629 6.09,-8.801 8.24,-15.5 2.15,-6.711 2.82,-14.629 2.01,-23.739 -0.54,-7.25 -1.47,-17.312 -2.81,-30.191 -2.96,-31.93 -3.22,-50.039 -0.81,-54.32 2.95,-4.571 9.39,-1.078 19.31,10.461 8.86,10.461 16.37,24.078 22.54,40.839 6.18,16.77 10.06,30.918 11.67,42.469 l 2.83,16.891" style="fill:#111011;fill-opacity:1;fill-rule:nonzero;stroke:none" id="path114" transform="matrix(0.133333, 0, 0, -0.133333, 0, 720.493347)"/>
  <path d="m 3099.33,552.34 c -0.81,-10.192 2.68,-15.149 10.46,-14.891 9.12,0.539 18.64,7.11 28.58,19.731 5.08,6.699 9.25,14.211 12.47,22.531 -32.74,1.07 -49.91,-8.051 -51.51,-27.371 z m 171.84,19.719 9.66,-6.84 c -12.88,-34.61 -30.05,-59.02 -51.52,-73.239 -16.64,-10.73 -35.41,-15.57 -56.33,-14.488 -9.94,0.539 -17.38,4.02 -22.34,10.469 -4.97,6.43 -7.45,14.281 -7.45,23.527 0,9.262 0.67,19.391 2.01,30.391 -5.62,-10.199 -14.55,-18.981 -26.76,-26.348 -12.2,-7.39 -24.48,-9.601 -36.82,-6.64 -12.87,2.941 -20.92,9.918 -24.14,20.91 -3.23,11.008 -1.75,22.539 4.42,34.609 6.17,12.078 15.16,21.34 26.96,27.781 19.86,10.719 41.59,13.278 65.2,7.637 2.67,20.66 4.76,45.281 6.24,73.852 1.46,28.57 2.21,50.769 2.21,66.601 0,15.828 -0.14,26.688 -0.4,32.598 1.07,0 2.41,0.062 4.02,0.191 1.61,0.141 4.83,0 9.66,-0.398 4.83,-0.402 9.39,-1.203 13.68,-2.41 4.3,-1.211 8.99,-3.223 14.09,-6.032 5.09,-2.832 9.32,-6.242 12.68,-10.269 3.35,-4.02 5.9,-9.602 7.64,-16.699 1.74,-7.114 2.07,-15.09 1.01,-23.942 -0.81,-7.25 -2.41,-19.59 -4.83,-37.019 -10.46,-72.18 -14.22,-118.192 -11.27,-138.039 2.42,-17.442 8.85,-22.68 19.32,-15.692 9.66,6.43 18.04,13.739 25.15,21.93 7.11,8.172 11.87,14.809 14.29,19.91 l 3.62,7.649" style="fill:#111011;fill-opacity:1;fill-rule:nonzero;stroke:none" id="path116" transform="matrix(0.133333, 0, 0, -0.133333, 0, 720.493347)"/>
  <path d="m 3481.24,583.742 v 3.207 c 0,2.949 -0.15,5.242 -0.41,6.852 -1.08,4.82 -2.28,8.308 -3.63,10.461 -2.14,2.949 -4.56,4.558 -7.23,4.828 -3.23,0.531 -6.45,-0.27 -9.66,-2.418 -2.96,-1.602 -5.11,-4.16 -6.45,-7.652 -0.8,-3.211 -0.67,-6.43 0.41,-9.661 1.07,-2.949 3.22,-6.3 6.44,-10.058 4.29,-3.75 7.65,-6.43 10.06,-8.039 l 8.86,-5.242 c 0,0.269 0.19,2.218 0.6,5.839 0.4,3.629 0.6,6.371 0.6,8.262 0.26,0.52 0.41,1.731 0.41,3.621 z m 73.64,3.207 8.05,-2.41 c -0.28,-0.797 -0.54,-1.75 -0.8,-2.82 -0.28,-1.078 -1.09,-3.348 -2.43,-6.84 -1.33,-3.488 -2.95,-6.508 -4.82,-9.047 -1.89,-2.562 -4.5,-5.641 -7.85,-9.262 -3.36,-3.621 -7.18,-6.172 -11.47,-7.648 -4.29,-1.473 -9.46,-2.82 -15.49,-4.024 -6.04,-1.207 -12.82,-0.738 -20.33,1.411 -1.87,-12.071 -4.16,-22.129 -6.83,-30.188 -3.5,-10.73 -7.39,-19.582 -11.67,-26.551 -4.3,-7.519 -9.4,-14.23 -15.3,-20.129 -3.49,-4.019 -7.64,-7.64 -12.48,-10.871 -7.51,-5.359 -16.49,-9.511 -26.96,-12.468 -7.78,-1.872 -14.76,-1.063 -20.93,2.41 -6.17,3.5 -11.2,9.129 -15.09,16.91 -3.89,7.777 -7.04,16.019 -9.46,24.738 -2.41,8.731 -4.42,18.852 -6.03,30.391 -14.76,-36.492 -38.77,-56.742 -72.03,-60.77 -11.81,-1.609 -21.07,1.949 -27.78,10.668 -6.71,8.723 -10.86,20.52 -12.47,35.422 -1.61,14.879 -2.48,30.098 -2.62,45.668 -0.13,15.563 -0.4,30.852 -0.8,45.883 -0.41,15.019 -1.81,25.476 -4.22,31.387 0.8,0.261 2.01,0.66 3.62,1.211 1.61,0.531 4.75,1.128 9.45,1.8 4.7,0.672 9.19,1.012 13.49,1.012 4.28,0 9.05,-0.742 14.28,-2.223 5.23,-1.468 9.79,-3.808 13.69,-7.039 3.88,-3.211 7.24,-8.039 10.05,-14.48 2.83,-6.449 4.5,-14.231 5.03,-23.34 0.27,-7.789 0.67,-18.648 1.22,-32.602 0.8,-31.128 2.67,-48.558 5.63,-52.316 3.21,-4.031 9.11,0.41 17.7,13.277 9.66,14.762 16.91,29.782 21.73,45.082 -1.61,17.43 -2.68,27.758 -3.21,30.981 1.6,0.797 3.68,1.668 6.23,2.617 2.55,0.941 7.18,1.941 13.89,3.02 6.7,1.062 12.81,1 18.31,-0.207 5.5,-1.204 10.93,-4.821 16.3,-10.86 5.36,-6.043 8.85,-14.562 10.46,-25.551 5.09,-33.55 10.06,-56.211 14.89,-68.019 3.49,2.949 7.11,7.25 10.87,12.879 4.02,5.64 7.64,12.48 10.86,20.531 3.48,9.379 5.9,17.969 7.24,25.75 0,0.258 0.07,0.809 0.21,1.609 0.13,0.797 0.33,1.34 0.6,1.61 -6.71,3.23 -11.27,5.5 -13.68,6.84 -5.11,2.679 -9.39,5.629 -12.88,8.859 -4.83,4.281 -8.32,8.98 -10.47,14.082 -1.34,2.949 -2.27,6.297 -2.81,10.066 -0.27,2.954 0,6.43 0.8,10.461 2.15,7.243 6.31,12.879 12.48,16.903 6.17,4.82 13.01,6.84 20.53,6.039 4.02,0 7.77,-1.082 11.26,-3.231 3.22,-1.351 6.31,-3.761 9.26,-7.238 1.87,-2.684 3.76,-5.781 5.63,-9.25 0.81,-2.16 1.74,-5.371 2.82,-9.66 0.8,-3.223 1.2,-6.313 1.2,-9.262 0.27,-1.07 0.4,-2.68 0.4,-4.828 v -4.031 c 0,-7.5 -0.4,-14.891 -1.2,-22.121 1.07,-0.282 2.62,-0.551 4.63,-0.809 2.01,-0.269 5.76,-0.34 11.27,-0.199 5.49,0.129 10.46,1.008 14.88,2.617 4.44,1.602 8.92,4.82 13.49,9.66 4.56,4.821 7.77,10.992 9.66,18.5" style="fill:#111011;fill-opacity:1;fill-rule:nonzero;stroke:none" id="path118" transform="matrix(0.133333, 0, 0, -0.133333, 0, 720.493347)"/>
  <path d="m 3589.08,640.082 c -5.9,-5.91 -13.01,-8.863 -21.33,-8.863 -8.32,0 -15.43,2.953 -21.33,8.863 -5.9,5.887 -8.85,13 -8.85,21.316 0,8.321 2.95,15.422 8.85,21.332 5.9,5.899 13.01,8.86 21.33,8.86 8.32,0 15.43,-2.961 21.33,-8.86 5.9,-5.91 8.86,-13.011 8.86,-21.332 0,-8.316 -2.96,-15.429 -8.86,-21.316 z m 78.48,-59.961 11.67,-4.441 c -0.27,-0.258 -2.08,-4.16 -5.43,-11.668 -3.36,-7.512 -6.99,-15.364 -10.87,-23.532 -3.89,-8.199 -9.4,-17.511 -16.5,-27.98 -7.12,-10.461 -14.42,-19.648 -21.93,-27.559 -7.52,-7.921 -16.51,-14.562 -26.96,-19.921 -10.47,-5.372 -21.07,-7.918 -31.8,-7.649 -12.07,0.539 -21.12,5.43 -27.16,14.688 -6.04,9.261 -9.26,20.793 -9.66,34.613 -0.41,13.816 0.06,27.566 1.41,41.25 1.34,13.68 2.88,26.418 4.63,38.226 1.74,11.801 2.2,19.043 1.4,21.731 1.62,0.262 3.75,0.601 6.44,1.012 2.68,0.398 7.45,0.398 14.29,0 6.84,-0.411 12.67,-1.621 17.51,-3.629 4.82,-2.012 8.98,-5.832 12.47,-11.461 3.48,-5.641 4.56,-12.879 3.22,-21.742 -7.25,-49.09 -6.04,-75.52 3.62,-79.278 4.03,-1.609 9.52,0 16.5,4.84 8.58,5.891 17.64,15.75 27.16,29.578 9.53,13.801 16.97,26.082 22.34,36.813 l 7.65,16.109" style="fill:#111011;fill-opacity:1;fill-rule:nonzero;stroke:none" id="path120" transform="matrix(0.133333, 0, 0, -0.133333, 0, 720.493347)"/>
  <path d="m 3741.2,376.078 c 1.06,31.934 0.94,70.82 -0.4,116.703 -49.9,-39.429 -69.22,-70.152 -57.95,-92.16 10.99,-20.652 22.79,-34.609 35.41,-41.84 12.33,-7.25 19.72,-3.492 22.14,11.258 0.52,1.883 0.8,3.891 0.8,6.039 z m -61.97,166.203 c -0.28,-13.41 6.97,-18.101 21.72,-14.082 13.42,4.02 25.62,11.801 36.62,23.34 0.27,0.262 0.54,0.543 0.82,0.801 v 0.398 c -0.82,9.66 -1.35,16.91 -1.62,21.742 -4.29,0 -9.05,-0.41 -14.28,-1.21 -5.24,-0.801 -11.34,-2.149 -18.31,-4.02 -6.99,-1.891 -12.82,-5.168 -17.51,-9.871 -4.7,-4.688 -7.18,-10.399 -7.44,-17.098 z m 200.41,49.098 3.62,-10.059 c -26.3,-13.422 -54.2,-29.379 -83.71,-47.89 6.44,-84.239 8.58,-142.59 6.44,-175.059 -3.22,-48.82 -14.23,-73.371 -33,-73.652 -3.22,-0.528 -6.91,-0.598 -11.07,-0.188 -4.16,0.399 -10.6,2.34 -19.32,5.828 -8.72,3.493 -17.3,8.59 -25.75,15.289 -8.45,6.711 -18.04,17.313 -28.78,31.801 -10.73,14.481 -20.65,31.789 -29.77,51.903 -15.57,30.859 11.8,71.367 82.1,121.546 -0.55,8.043 -0.81,14.223 -0.81,18.5 -9.66,-9.656 -21.61,-18.039 -35.81,-25.136 -14.23,-7.121 -27.64,-9.602 -40.25,-7.461 -13.42,2.429 -22.07,9.129 -25.96,20.129 -3.88,11 -3.01,22.8 2.62,35.41 5.63,12.609 14.35,22.672 26.15,30.191 11.54,7.239 24.75,11.668 39.64,13.278 14.9,1.613 24.61,1.339 29.18,-0.809 -1.07,13.68 -2.15,22.672 -3.22,26.961 0.81,0.258 1.94,0.539 3.42,0.809 1.47,0.269 4.29,0.609 8.46,1.011 4.15,0.399 8.18,0.328 12.07,-0.211 3.88,-0.531 8.31,-1.871 13.28,-4.019 4.96,-2.153 9.25,-5.031 12.88,-8.653 3.62,-3.628 6.83,-9 9.66,-16.097 2.81,-7.11 4.62,-15.5 5.43,-25.153 l 1.21,-21.328 c 13.13,7.512 26.48,14.891 40.04,22.141 13.54,7.23 23.8,12.469 30.79,15.687 l 10.46,5.231" style="fill:#111011;fill-opacity:1;fill-rule:nonzero;stroke:none" id="path122" transform="matrix(0.133333, 0, 0, -0.133333, 0, 720.493347)"/>
  <path d="M 539.992 644.794 C 540.564 645.224 540.994 645.527 541.28 645.706 C 541.315 645.527 541.379 645.206 541.467 644.741 C 541.558 644.276 541.62 643.918 541.656 643.667 C 541.656 643.595 541.664 643.498 541.683 643.371 C 541.7 643.246 541.71 643.167 541.71 643.131 C 541.744 643.024 541.763 642.845 541.763 642.594 C 541.835 642.272 541.835 641.95 541.763 641.629 C 541.763 640.913 541.62 640.358 541.334 639.966 C 541.12 639.536 540.798 639.267 540.368 639.16 C 539.939 639.053 539.456 639.125 538.919 639.374 C 538.418 639.66 538.062 640.019 537.847 640.448 C 537.667 640.842 537.632 641.325 537.739 641.897 C 537.882 642.433 538.187 642.953 538.651 643.453 C 538.972 643.882 539.419 644.33 539.992 644.794 Z M 550.992 644.687 L 552.066 645.009 C 552.066 645.081 552.047 645.189 552.012 645.331 C 551.975 645.474 551.886 645.743 551.744 646.135 C 551.6 646.529 551.422 646.869 551.207 647.155 C 550.992 647.442 550.679 647.791 550.268 648.201 C 549.856 648.613 549.374 648.881 548.819 649.006 C 548.264 649.133 547.584 649.239 546.78 649.329 C 545.975 649.417 545.054 649.301 544.018 648.979 C 543.587 650.695 543.123 652.164 542.622 653.379 C 542.014 654.81 541.315 656.079 540.528 657.189 C 539.778 658.227 538.938 659.157 538.007 659.979 C 537.327 660.551 536.631 661.053 535.914 661.481 C 534.77 662.196 533.374 662.696 531.73 662.983 C 530.155 663.234 528.867 662.814 527.866 661.723 C 526.863 660.633 526.176 659.059 525.799 657.001 C 525.424 654.945 525.174 652.967 525.048 651.072 C 524.923 649.177 524.86 647.121 524.86 644.902 C 524.86 642.684 524.843 641.289 524.807 640.717 C 525.058 640.609 525.379 640.502 525.774 640.394 C 526.167 640.288 526.874 640.198 527.894 640.126 C 528.912 640.054 529.824 640.143 530.63 640.394 C 531.434 640.645 532.203 641.262 532.936 642.245 C 533.67 643.23 534.09 644.545 534.198 646.189 C 534.591 651.377 535.056 654.829 535.592 656.545 C 536.2 656.009 536.774 655.418 537.31 654.774 C 538.062 653.845 538.687 652.86 539.188 651.823 C 539.759 650.679 540.26 649.408 540.69 648.014 C 540.69 647.942 540.726 647.799 540.798 647.583 C 540.547 647.477 539.886 647.083 538.812 646.405 C 538.132 645.903 537.542 645.384 537.042 644.849 C 536.468 644.241 535.986 643.489 535.592 642.594 C 535.486 642.307 535.396 641.825 535.324 641.145 C 535.324 640.681 535.412 640.143 535.592 639.536 C 535.95 638.534 536.631 637.746 537.632 637.176 C 538.598 636.567 539.671 636.336 540.852 636.477 C 541.423 636.583 541.978 636.8 542.515 637.121 C 542.944 637.408 543.355 637.818 543.748 638.355 C 543.999 638.713 544.248 639.214 544.5 639.857 L 544.822 641.306 C 544.856 641.629 544.875 642.093 544.875 642.701 L 544.875 643.4 C 544.84 643.578 544.822 643.794 544.822 644.042 C 544.715 645.189 544.554 646.296 544.339 647.369 C 544.482 647.442 544.679 647.522 544.928 647.611 C 545.179 647.701 545.635 647.807 546.298 647.933 C 546.959 648.059 547.559 648.067 548.095 647.96 C 548.632 647.853 549.186 647.53 549.758 646.994 C 550.33 646.458 550.743 645.689 550.992 644.687" style="fill:#111011;fill-opacity:1;fill-rule:nonzero;stroke:none" id="path124"/>
  <path d="M 552.602 649.247 C 552.53 651.072 553.299 651.715 554.91 651.179 C 556.196 650.715 557.52 649.749 558.88 648.282 C 559.022 646.922 559.148 645.903 559.255 645.224 C 558.684 645.224 558.102 645.269 557.512 645.357 C 556.922 645.448 556.224 645.609 555.419 645.841 C 554.615 646.074 553.952 646.483 553.434 647.075 C 552.915 647.665 552.636 648.389 552.602 649.247 Z M 577.392 643.989 L 579.163 643.989 C 579.02 644.49 578.804 645.142 578.519 645.948 C 578.232 646.753 577.588 648.184 576.587 650.241 C 575.584 652.298 574.512 654.122 573.367 655.713 C 572.223 657.305 570.702 658.745 568.807 660.033 C 566.911 661.321 564.943 661.965 562.906 661.965 C 561.58 661.965 560.552 661.49 559.819 660.542 C 559.086 659.595 558.647 658.459 558.504 657.135 C 558.36 655.812 558.344 654.184 558.451 652.251 C 555.947 654.686 553.299 655.669 550.51 655.203 C 548.756 654.882 547.63 654.006 547.13 652.575 C 546.63 651.143 546.744 649.606 547.478 647.96 C 548.211 646.314 549.347 645.009 550.886 644.042 C 553.424 642.469 556.304 641.95 559.523 642.486 C 559.632 640.842 559.595 639.642 559.416 638.891 C 559.559 638.855 559.739 638.821 559.954 638.785 C 560.168 638.749 560.587 638.722 561.214 638.703 C 561.84 638.687 562.43 638.713 562.984 638.785 C 563.539 638.855 564.147 639.036 564.808 639.321 C 565.47 639.607 566.034 639.991 566.5 640.474 C 566.964 640.958 567.331 641.646 567.599 642.541 C 567.867 643.436 567.948 644.49 567.842 645.706 C 567.304 653.147 567.715 656.886 569.076 656.921 C 569.612 656.957 570.274 656.527 571.06 655.634 C 572.491 654.022 573.735 652.245 574.79 650.294 C 575.844 648.345 576.551 646.798 576.91 645.653 L 577.392 643.989" style="fill:#111011;fill-opacity:1;fill-rule:nonzero;stroke:none" id="path126"/>
  <path d="M 596.976 644.471 L 598.103 645.009 C 596.528 648.084 595.42 650.178 594.776 651.288 C 594.24 652.325 593.686 653.183 593.114 653.862 C 592.612 654.435 592.2 654.847 591.879 655.096 C 591.843 655.133 591.78 655.177 591.691 655.231 C 591.602 655.285 591.539 655.33 591.504 655.365 C 591.467 655.401 591.396 655.437 591.29 655.471 C 591.182 655.509 591.11 655.543 591.075 655.578 C 591.038 655.578 590.948 655.615 590.806 655.687 L 590.644 655.687 L 590.591 655.741 L 590.376 655.741 L 590.323 655.741 L 590.27 655.741 L 590.216 655.741 L 590.055 655.741 C 589.804 655.741 589.59 655.669 589.411 655.525 C 589.16 655.418 588.982 655.241 588.874 654.989 C 588.767 654.847 588.624 654.453 588.446 653.808 C 588.372 653.307 588.338 652.61 588.338 651.715 C 588.372 650.822 588.463 649.517 588.606 647.799 C 588.678 646.941 588.714 646.314 588.714 645.921 C 588.714 645.134 588.695 644.598 588.66 644.312 C 588.624 644.169 588.534 644.062 588.392 643.989 C 588.284 643.918 588.14 643.971 587.963 644.15 L 587.64 644.471 C 587.39 644.794 587.139 645.224 586.89 645.76 C 586.71 646.081 586.478 646.565 586.191 647.209 C 585.655 648.603 585.314 649.534 585.172 649.999 C 584.707 651.358 584.278 652.807 583.884 654.346 L 583.402 656.117 C 582.686 658.906 581.13 660.338 578.734 660.408 C 577.266 660.445 576.202 659.881 575.54 658.718 C 574.878 657.557 574.592 656.071 574.683 654.265 C 574.771 652.459 574.931 650.501 575.164 648.389 C 575.398 646.279 575.647 644.312 575.915 642.486 C 576.184 640.662 576.175 639.125 575.89 637.871 C 575.996 637.837 576.158 637.801 576.372 637.765 C 576.587 637.73 576.98 637.693 577.552 637.658 C 578.124 637.624 578.671 637.649 579.188 637.738 C 579.707 637.827 580.271 638.042 580.879 638.382 C 581.487 638.722 582.007 639.187 582.435 639.777 C 582.864 640.367 583.195 641.198 583.428 642.272 C 583.66 643.346 583.742 644.598 583.67 646.027 L 583.67 646.296 C 585.528 643.078 587.175 641.486 588.606 641.522 C 589.607 641.557 590.18 642.353 590.323 643.908 C 590.466 645.466 590.395 646.906 590.108 648.229 C 590.108 648.515 590.074 648.908 590.002 649.408 L 590.002 649.731 C 589.928 650.159 589.858 650.841 589.787 651.77 C 589.787 652.593 589.804 653.165 589.84 653.486 C 589.911 653.774 589.966 653.953 590.002 654.022 L 590.055 654.078 L 590.108 654.131 L 590.162 654.131 L 590.216 654.131 L 590.376 654.078 L 590.484 654.078 L 590.538 654.078 C 590.538 654.042 590.574 654.022 590.644 654.022 C 590.68 653.988 590.716 653.969 590.752 653.969 C 590.823 653.934 590.878 653.915 590.912 653.915 L 591.022 653.808 C 591.092 653.774 591.146 653.738 591.182 653.701 C 591.29 653.63 591.611 653.326 592.147 652.79 C 592.755 652.074 593.292 651.288 593.756 650.427 L 596.976 644.471" style="fill:#111011;fill-opacity:1;fill-rule:nonzero;stroke:none" id="path128"/>
  <path d="M 625.305 628.75 C 624.52 628.715 623.715 629.377 622.892 630.737 C 622.069 632.095 621.353 633.813 620.744 635.888 C 620.136 637.962 619.653 639.724 619.297 641.172 C 618.939 642.621 618.671 643.882 618.492 644.955 L 618.492 645.331 C 621.137 643.47 623.321 640.555 625.037 636.583 C 626.433 633.294 626.861 630.95 626.325 629.555 C 626.111 629.055 625.771 628.788 625.305 628.75 Z M 619.512 661.213 C 619.797 661.106 620.189 660.927 620.691 660.677 C 621.192 660.426 622.069 659.9 623.321 659.094 C 624.573 658.29 625.673 657.439 626.621 656.545 C 627.568 655.651 628.417 654.506 629.169 653.112 C 629.92 651.715 630.279 650.286 630.243 648.818 C 630.207 647.96 629.895 647.307 629.303 646.859 C 628.713 646.413 627.971 646.189 627.077 646.189 C 626.183 646.189 625.207 646.333 624.152 646.619 C 623.097 646.906 622.06 647.315 621.04 647.853 C 620.021 648.389 619.117 648.979 618.331 649.623 C 618.188 656.813 618.58 660.677 619.512 661.213 Z M 627.721 642.648 C 630.297 642.648 632.076 643.426 633.06 644.982 C 634.043 646.538 634.248 648.415 633.677 650.617 C 633.104 652.815 631.96 654.954 630.243 657.027 C 626.092 662.035 620.512 664.539 613.501 664.539 C 612.213 664.575 611.176 663.888 610.389 662.474 C 609.601 661.062 609.101 659.21 608.887 656.921 C 608.672 654.633 608.565 652.038 608.565 649.139 C 608.565 646.243 608.699 643.318 608.967 640.367 C 609.236 637.415 609.459 634.59 609.637 631.89 C 609.816 629.189 609.977 626.882 610.121 624.967 C 610.264 623.054 610.209 621.667 609.96 620.809 C 610.103 620.774 610.299 620.738 610.551 620.701 C 610.8 620.666 611.275 620.631 611.972 620.594 C 612.671 620.56 613.332 620.586 613.959 620.676 C 614.583 620.765 615.272 620.97 616.023 621.293 C 616.775 621.614 617.409 622.043 617.928 622.579 C 618.447 623.117 618.857 623.886 619.163 624.888 C 619.465 625.889 619.565 627.07 619.457 628.429 C 619.351 629.824 619.244 631.469 619.135 633.365 C 621.424 628.429 624.107 626.139 627.185 626.496 C 629.688 626.962 630.653 628.948 630.081 632.453 C 629.509 635.96 627.775 639.465 624.877 642.969 C 625.736 642.754 626.684 642.648 627.721 642.648" style="fill:#111011;fill-opacity:1;fill-rule:nonzero;stroke:none" id="path130"/>
  <path d="M 648.539 645.277 C 648.324 645.277 648.127 645.277 647.948 645.277 C 647.768 645.277 647.492 645.376 647.116 645.572 C 646.741 645.769 646.411 646.046 646.124 646.405 C 645.837 646.762 645.533 647.343 645.212 648.147 C 644.889 648.953 644.639 649.91 644.461 651.019 C 647.107 651.196 648.896 650.339 649.827 648.443 C 649.968 648.121 650.076 647.737 650.148 647.29 C 650.22 646.842 650.131 646.395 649.88 645.948 C 649.629 645.501 649.183 645.277 648.539 645.277 Z M 659.645 645.062 L 660.719 645.921 C 657.748 651.467 654.012 655.705 649.504 658.636 C 645.676 661.142 642.439 661.982 639.792 661.159 C 637.037 660.266 635.821 657.672 636.143 653.379 C 636.179 652.807 636.251 652.217 636.357 651.609 C 636.68 649.785 637.261 648.21 638.101 646.888 C 638.943 645.565 639.872 644.571 640.892 643.908 C 641.911 643.246 643.003 642.765 644.165 642.46 C 645.327 642.157 646.355 642.014 647.251 642.03 C 648.144 642.049 648.896 642.148 649.504 642.326 C 650.291 642.577 650.935 643.015 651.436 643.639 C 651.936 644.266 652.223 645.081 652.295 646.081 C 652.365 647.083 652.008 648.21 651.221 649.463 C 649.968 651.502 647.643 652.467 644.245 652.359 C 643.852 655.902 644.621 657.529 646.553 657.243 C 648.663 656.921 651.615 654.703 655.407 650.589 C 657.588 648.193 659.001 646.35 659.645 645.062" style="fill:#111011;fill-opacity:1;fill-rule:nonzero;stroke:none" id="path132"/>
  <path d="M 666.676 645.277 C 666.461 645.277 666.263 645.277 666.084 645.277 C 665.905 645.277 665.629 645.376 665.252 645.572 C 664.877 645.769 664.547 646.046 664.26 646.405 C 663.973 646.762 663.671 647.343 663.349 648.147 C 663.025 648.953 662.776 649.91 662.597 651.019 C 665.244 651.196 667.032 650.339 667.964 648.443 C 668.105 648.121 668.212 647.737 668.285 647.29 C 668.356 646.842 668.267 646.395 668.017 645.948 C 667.765 645.501 667.319 645.277 666.676 645.277 Z M 677.783 645.062 L 678.855 645.921 C 675.885 651.467 672.148 655.705 667.64 658.636 C 663.812 661.142 660.576 661.982 657.928 661.159 C 655.175 660.266 653.959 657.672 654.28 653.379 C 654.315 652.807 654.388 652.217 654.495 651.609 C 654.816 649.785 655.399 648.21 656.239 646.888 C 657.079 645.565 658.009 644.571 659.028 643.908 C 660.048 643.246 661.139 642.765 662.301 642.46 C 663.464 642.157 664.492 642.014 665.388 642.03 C 666.281 642.049 667.032 642.148 667.64 642.326 C 668.427 642.577 669.072 643.015 669.573 643.639 C 670.073 644.266 670.359 645.081 670.431 646.081 C 670.503 647.083 670.144 648.21 669.357 649.463 C 668.105 651.502 665.78 652.467 662.383 652.359 C 661.988 655.902 662.757 657.529 664.689 657.243 C 666.799 656.921 669.751 654.703 673.543 650.589 C 675.725 648.193 677.137 646.35 677.783 645.062" style="fill:#111011;fill-opacity:1;fill-rule:nonzero;stroke:none" id="path134"/>
  <path d="M 696.025 644.15 L 697.205 645.009 C 697.099 645.295 696.956 645.662 696.777 646.109 C 696.597 646.557 696.195 647.45 695.571 648.791 C 694.944 650.134 694.291 651.403 693.611 652.601 C 692.931 653.801 692.064 655.123 691.009 656.572 C 689.953 658.02 688.88 659.254 687.789 660.274 C 686.697 661.294 685.436 662.126 684.007 662.769 C 682.576 663.413 681.144 663.682 679.713 663.575 C 678.855 663.538 678.121 663.109 677.515 662.288 C 676.905 661.463 676.449 660.257 676.145 658.665 C 675.841 657.074 675.609 655.418 675.448 653.701 C 675.287 651.983 675.224 649.901 675.26 647.45 C 675.296 645.001 675.349 642.827 675.42 640.93 C 675.492 639.036 675.6 636.817 675.744 634.277 C 675.528 634.277 675.224 634.286 674.831 634.303 C 674.437 634.322 674.151 634.35 673.972 634.384 C 673.185 634.384 672.612 634.403 672.255 634.438 L 669.733 634.438 L 668.981 634.438 L 668.768 634.438 L 668.607 632.776 C 668.679 632.776 668.768 632.757 668.875 632.721 C 668.911 632.721 669.143 632.686 669.573 632.614 C 669.751 632.578 669.965 632.542 670.216 632.507 C 670.465 632.47 670.78 632.426 671.155 632.371 C 671.531 632.318 671.844 632.274 672.095 632.238 C 672.201 632.238 672.452 632.212 672.845 632.158 C 673.239 632.103 673.543 632.06 673.757 632.024 C 674.151 631.953 674.777 631.881 675.635 631.808 C 675.707 631.774 675.779 631.755 675.851 631.755 C 676.315 624.672 676.405 620.594 676.119 619.522 C 676.261 619.486 676.44 619.45 676.655 619.413 C 676.869 619.378 677.291 619.353 677.916 619.334 C 678.541 619.315 679.132 619.343 679.688 619.413 C 680.241 619.486 680.849 619.665 681.512 619.951 C 682.173 620.238 682.736 620.622 683.201 621.105 C 683.667 621.586 684.033 622.277 684.301 623.17 C 684.571 624.065 684.649 625.121 684.543 626.336 C 684.507 626.979 684.416 628.554 684.275 631.058 C 684.416 631.058 684.668 631.049 685.025 631.03 C 685.383 631.014 685.633 631.005 685.777 631.005 C 686.171 630.969 686.724 630.95 687.44 630.95 C 687.619 630.95 687.869 630.942 688.191 630.924 C 688.515 630.906 688.745 630.897 688.889 630.897 L 690.016 630.897 L 690.981 630.897 L 691.089 632.56 C 690.875 632.633 690.571 632.703 690.177 632.776 C 689.855 632.848 689.479 632.901 689.051 632.936 C 688.907 632.936 688.684 632.963 688.379 633.017 C 688.076 633.07 687.833 633.115 687.655 633.15 C 687.475 633.15 687.199 633.178 686.823 633.231 C 686.448 633.285 686.152 633.33 685.937 633.365 C 685.795 633.365 685.517 633.391 685.107 633.446 C 684.695 633.5 684.381 633.545 684.168 633.579 C 684.023 636.406 683.916 639.518 683.845 642.915 C 683.88 649.427 683.935 653.093 684.007 653.915 C 684.256 656.85 684.883 658.3 685.884 658.262 C 686.349 658.262 686.885 658.013 687.495 657.511 C 688.531 656.653 689.765 655.115 691.196 652.897 C 692.627 650.679 693.791 648.657 694.685 646.833 L 696.025 644.15" style="fill:#111011;fill-opacity:1;fill-rule:nonzero;stroke:none" id="path136"/>
  <path d="M 723.016 645.974 L 724.034 646.296 C 723.926 646.654 723.757 647.121 723.524 647.691 C 723.292 648.263 722.828 649.274 722.13 650.723 C 721.432 652.172 720.734 653.433 720.037 654.506 C 719.34 655.578 718.508 656.519 717.541 657.323 C 716.577 658.129 715.645 658.442 714.752 658.262 C 713.713 658.047 712.892 657.011 712.284 655.15 C 711.675 653.291 711.281 651.305 711.103 649.194 C 710.924 647.083 710.601 645.17 710.137 643.453 C 709.672 641.736 709.045 640.877 708.259 640.877 C 707.616 640.877 707.115 641.593 706.756 643.024 C 706.399 644.455 706.095 646.181 705.845 648.201 C 705.593 650.223 705.255 652.245 704.825 654.265 C 704.396 656.286 703.627 657.994 702.519 659.389 C 701.409 660.785 699.977 661.463 698.225 661.427 C 697.08 661.463 696.16 660.794 695.463 659.415 C 694.764 658.039 694.316 656.223 694.121 653.969 C 693.923 651.715 693.825 649.186 693.825 646.377 C 693.825 643.57 693.951 640.736 694.2 637.871 C 694.451 635.012 694.657 632.265 694.817 629.636 C 694.979 627.007 695.121 624.779 695.247 622.955 C 695.372 621.131 695.328 619.843 695.113 619.091 C 695.363 619.021 695.693 618.958 696.105 618.905 C 696.517 618.851 697.233 618.869 698.252 618.958 C 699.272 619.048 700.157 619.279 700.909 619.655 C 701.66 620.03 702.321 620.746 702.893 621.801 C 703.465 622.857 703.68 624.207 703.537 625.854 C 702.928 633.795 702.553 640.448 702.411 645.813 C 703.769 639.412 705.755 636.209 708.367 636.209 C 709.761 636.209 710.844 637.184 711.613 639.134 C 712.381 641.083 712.839 643.238 712.981 645.6 C 713.124 647.96 713.365 650.178 713.705 652.251 C 714.045 654.327 714.555 655.455 715.235 655.634 C 716.057 655.847 717.113 655.15 718.401 653.541 C 719.688 651.93 720.78 650.267 721.674 648.55 L 723.016 645.974" style="fill:#111011;fill-opacity:1;fill-rule:nonzero;stroke:none" id="path138"/>
  <path d="M 732.834 644.15 C 732.154 643.936 731.385 644.15 730.526 644.794 C 730.598 644.938 730.742 645.117 730.957 645.331 C 731.242 645.618 731.546 645.833 731.868 645.974 C 732.046 646.118 732.244 646.207 732.458 646.243 C 732.888 646.35 733.12 646.405 733.156 646.405 C 733.585 646.511 734.014 646.565 734.444 646.565 C 734.193 645.206 733.657 644.401 732.834 644.15 Z M 728.862 656.598 C 729.757 656.886 730.705 656.519 731.706 655.5 C 732.708 654.479 733.477 653.112 734.014 651.394 C 734.157 650.965 734.3 650.393 734.444 649.677 C 733.728 649.749 733.174 649.766 732.781 649.731 C 732.708 649.731 732.592 649.722 732.432 649.703 C 732.27 649.687 732.128 649.669 732.002 649.65 C 731.877 649.633 731.761 649.606 731.653 649.57 C 731.404 649.534 731.026 649.445 730.526 649.301 C 729.917 649.123 729.293 648.801 728.649 648.335 C 728.434 648.193 728.292 648.084 728.22 648.014 C 728.148 648.193 727.968 648.639 727.684 649.355 C 727.146 651.072 726.994 652.637 727.228 654.05 C 727.46 655.465 728.005 656.313 728.862 656.598 Z M 746.356 643.024 L 747 644.15 C 746.82 644.294 746.57 644.471 746.248 644.687 C 746.212 644.724 746.141 644.767 746.033 644.821 C 745.926 644.874 745.854 644.919 745.818 644.955 L 745.337 645.277 C 745.3 645.313 745.22 645.366 745.094 645.438 C 744.969 645.51 744.87 645.565 744.8 645.6 C 744.728 645.634 744.621 645.706 744.477 645.813 C 744.334 645.921 744.228 645.993 744.156 646.027 C 743.761 646.207 743.529 646.333 743.458 646.405 C 743.386 646.475 743.261 646.557 743.082 646.645 C 742.904 646.735 742.778 646.798 742.706 646.833 C 742.672 646.869 742.608 646.913 742.52 646.967 C 742.429 647.022 742.366 647.047 742.332 647.047 L 742.117 647.155 C 742.08 647.155 742.045 647.174 742.01 647.209 C 741.973 647.245 741.937 647.262 741.902 647.262 C 741.758 647.299 741.616 647.369 741.473 647.477 C 741.329 647.514 741.186 647.583 741.044 647.691 C 740.649 647.87 740.024 648.139 739.166 648.497 C 738.629 648.711 737.966 648.945 737.181 649.194 C 737.073 649.23 736.92 649.274 736.725 649.329 C 736.526 649.382 736.393 649.408 736.321 649.408 C 736.214 650.053 736.053 650.695 735.84 651.341 C 734.945 654.131 733.424 656.269 731.278 657.751 C 729.132 659.238 726.966 659.639 724.785 658.96 C 722.602 658.281 721.065 656.715 720.172 654.265 C 719.277 651.814 719.277 649.177 720.172 646.35 C 721.065 643.56 722.585 641.422 724.732 639.938 C 726.878 638.454 729.042 638.051 731.225 638.731 C 732.69 639.195 733.889 640.134 734.82 641.548 C 735.749 642.962 736.286 644.598 736.429 646.458 L 736.59 646.458 C 737.484 646.279 738.092 646.154 738.414 646.081 C 738.7 646.046 739.29 645.886 740.186 645.6 C 740.4 645.527 740.542 645.474 740.614 645.438 C 740.829 645.366 740.97 645.331 741.044 645.331 L 741.258 645.224 C 741.294 645.224 741.329 645.215 741.365 645.195 C 741.401 645.179 741.437 645.17 741.473 645.17 C 741.509 645.134 741.572 645.098 741.661 645.062 C 741.749 645.026 741.812 645.009 741.849 645.009 L 742.653 644.687 C 742.868 644.615 743.1 644.525 743.352 644.418 C 743.636 644.276 743.852 644.187 743.994 644.15 C 744.281 644.007 744.477 643.918 744.585 643.882 C 744.621 643.848 744.701 643.801 744.826 643.748 C 744.952 643.694 745.032 643.649 745.069 643.614 L 745.55 643.453 L 746.356 643.024" style="fill:#111011;fill-opacity:1;fill-rule:nonzero;stroke:none" id="path140"/>
  <path d="M 755.637 644.794 C 756.209 645.224 756.638 645.527 756.925 645.706 C 756.961 645.527 757.024 645.206 757.113 644.741 C 757.202 644.276 757.265 643.918 757.301 643.667 C 757.301 643.595 757.309 643.498 757.328 643.371 C 757.346 643.246 757.354 643.167 757.354 643.131 C 757.39 643.024 757.409 642.845 757.409 642.594 C 757.48 642.272 757.48 641.95 757.409 641.629 C 757.409 640.913 757.265 640.358 756.978 639.966 C 756.765 639.536 756.442 639.267 756.014 639.16 C 755.584 639.053 755.101 639.125 754.565 639.374 C 754.064 639.66 753.706 640.019 753.492 640.448 C 753.312 640.842 753.277 641.325 753.384 641.897 C 753.526 642.433 753.832 642.953 754.297 643.453 C 754.618 643.882 755.065 644.33 755.637 644.794 Z M 766.637 644.687 L 767.71 645.009 C 767.71 645.081 767.692 645.189 767.657 645.331 C 767.621 645.474 767.53 645.743 767.389 646.135 C 767.245 646.529 767.068 646.869 766.853 647.155 C 766.637 647.442 766.324 647.791 765.913 648.201 C 765.502 648.613 765.02 648.881 764.465 649.006 C 763.91 649.133 763.23 649.239 762.425 649.329 C 761.621 649.417 760.698 649.301 759.662 648.979 C 759.233 650.695 758.768 652.164 758.266 653.379 C 757.658 654.81 756.961 656.079 756.174 657.189 C 755.422 658.227 754.582 659.157 753.652 659.979 C 752.972 660.551 752.276 661.053 751.56 661.481 C 750.414 662.196 749.02 662.696 747.374 662.983 C 745.8 663.234 744.513 662.814 743.512 661.723 C 742.509 660.633 741.821 659.059 741.445 657.001 C 741.07 654.945 740.818 652.967 740.693 651.072 C 740.569 649.177 740.506 647.121 740.506 644.902 C 740.506 642.684 740.488 641.289 740.453 640.717 C 740.702 640.609 741.024 640.502 741.418 640.394 C 741.812 640.288 742.52 640.198 743.538 640.126 C 744.558 640.054 745.469 640.143 746.274 640.394 C 747.078 640.645 747.849 641.262 748.581 642.245 C 749.314 643.23 749.736 644.545 749.844 646.189 C 750.237 651.377 750.701 654.829 751.238 656.545 C 751.846 656.009 752.418 655.418 752.956 654.774 C 753.706 653.845 754.332 652.86 754.833 651.823 C 755.405 650.679 755.906 649.408 756.336 648.014 C 756.336 647.942 756.37 647.799 756.442 647.583 C 756.192 647.477 755.53 647.083 754.458 646.405 C 753.777 645.903 753.188 645.384 752.688 644.849 C 752.114 644.241 751.632 643.489 751.238 642.594 C 751.132 642.307 751.041 641.825 750.969 641.145 C 750.969 640.681 751.058 640.143 751.238 639.536 C 751.594 638.534 752.276 637.746 753.277 637.176 C 754.244 636.567 755.316 636.336 756.497 636.477 C 757.069 636.583 757.624 636.8 758.16 637.121 C 758.589 637.408 759 637.818 759.394 638.355 C 759.644 638.713 759.894 639.214 760.145 639.857 L 760.466 641.306 C 760.502 641.629 760.521 642.093 760.521 642.701 L 760.521 643.4 C 760.485 643.578 760.466 643.794 760.466 644.042 C 760.36 645.189 760.198 646.296 759.984 647.369 C 760.128 647.442 760.324 647.522 760.574 647.611 C 760.824 647.701 761.281 647.807 761.942 647.933 C 762.604 648.059 763.204 648.067 763.741 647.96 C 764.277 647.853 764.83 647.53 765.404 646.994 C 765.974 646.458 766.388 645.689 766.637 644.687" style="fill:#111011;fill-opacity:1;fill-rule:nonzero;stroke:none" id="path142"/>
  <path d="M 774.956 645.277 C 774.741 645.277 774.542 645.277 774.364 645.277 C 774.185 645.277 773.909 645.376 773.532 645.572 C 773.157 645.769 772.826 646.046 772.54 646.405 C 772.253 646.762 771.95 647.343 771.629 648.147 C 771.305 648.953 771.056 649.91 770.877 651.019 C 773.522 651.196 775.312 650.339 776.244 648.443 C 776.385 648.121 776.492 647.737 776.565 647.29 C 776.636 646.842 776.546 646.395 776.297 645.948 C 776.045 645.501 775.598 645.277 774.956 645.277 Z M 786.062 645.062 L 787.134 645.921 C 784.165 651.467 780.428 655.705 775.92 658.636 C 772.092 661.142 768.854 661.982 766.208 661.159 C 763.454 660.266 762.238 657.672 762.56 653.379 C 762.594 652.807 762.668 652.217 762.774 651.609 C 763.096 649.785 763.678 648.21 764.518 646.888 C 765.358 645.565 766.289 644.571 767.308 643.908 C 768.328 643.246 769.418 642.765 770.581 642.46 C 771.744 642.157 772.772 642.014 773.668 642.03 C 774.561 642.049 775.312 642.148 775.92 642.326 C 776.706 642.577 777.352 643.015 777.853 643.639 C 778.353 644.266 778.638 645.081 778.71 646.081 C 778.782 647.083 778.424 648.21 777.637 649.463 C 776.385 651.502 774.06 652.467 770.662 652.359 C 770.268 655.902 771.037 657.529 772.969 657.243 C 775.078 656.921 778.03 654.703 781.822 650.589 C 784.005 648.193 785.417 646.35 786.062 645.062" style="fill:#111011;fill-opacity:1;fill-rule:nonzero;stroke:none" id="path144"/>
  <path d="M 805.646 644.471 L 806.773 645.009 C 805.198 648.084 804.09 650.178 803.446 651.288 C 802.91 652.325 802.354 653.183 801.784 653.862 C 801.282 654.435 800.87 654.847 800.549 655.096 C 800.513 655.133 800.45 655.177 800.361 655.231 C 800.272 655.285 800.209 655.33 800.174 655.365 C 800.137 655.401 800.066 655.437 799.96 655.471 C 799.852 655.509 799.78 655.543 799.744 655.578 C 799.708 655.578 799.618 655.615 799.476 655.687 L 799.314 655.687 L 799.261 655.741 L 799.046 655.741 L 798.993 655.741 L 798.94 655.741 L 798.886 655.741 L 798.725 655.741 C 798.474 655.741 798.26 655.669 798.081 655.525 C 797.83 655.418 797.652 655.241 797.544 654.989 C 797.437 654.847 797.294 654.453 797.116 653.808 C 797.042 653.307 797.008 652.61 797.008 651.715 C 797.042 650.822 797.132 649.517 797.276 647.799 C 797.348 646.941 797.384 646.314 797.384 645.921 C 797.384 645.134 797.365 644.598 797.33 644.312 C 797.294 644.169 797.204 644.062 797.062 643.989 C 796.954 643.918 796.81 643.971 796.632 644.15 L 796.31 644.471 C 796.06 644.794 795.809 645.224 795.56 645.76 C 795.38 646.081 795.148 646.565 794.861 647.209 C 794.325 648.603 793.984 649.534 793.842 649.999 C 793.377 651.358 792.948 652.807 792.554 654.346 L 792.072 656.117 C 791.354 658.906 789.798 660.338 787.404 660.408 C 785.936 660.445 784.872 659.881 784.21 658.718 C 783.548 657.557 783.262 656.071 783.353 654.265 C 783.441 652.459 783.601 650.501 783.834 648.389 C 784.068 646.279 784.317 644.312 784.585 642.486 C 784.854 640.662 784.845 639.125 784.56 637.871 C 784.666 637.837 784.828 637.801 785.042 637.765 C 785.257 637.73 785.65 637.693 786.222 637.658 C 786.794 637.624 787.341 637.649 787.858 637.738 C 788.377 637.827 788.941 638.042 789.549 638.382 C 790.157 638.722 790.677 639.187 791.105 639.777 C 791.534 640.367 791.865 641.198 792.098 642.272 C 792.33 643.346 792.41 644.598 792.34 646.027 L 792.34 646.296 C 794.198 643.078 795.845 641.486 797.276 641.522 C 798.277 641.557 798.85 642.353 798.993 643.908 C 799.136 645.466 799.065 646.906 798.778 648.229 C 798.778 648.515 798.744 648.908 798.672 649.408 L 798.672 649.731 C 798.598 650.159 798.528 650.841 798.457 651.77 C 798.457 652.593 798.474 653.165 798.51 653.486 C 798.581 653.774 798.634 653.953 798.672 654.022 L 798.725 654.078 L 798.778 654.131 L 798.832 654.131 L 798.886 654.131 L 799.046 654.078 L 799.154 654.078 L 799.208 654.078 C 799.208 654.042 799.244 654.022 799.314 654.022 C 799.35 653.988 799.386 653.969 799.422 653.969 C 799.493 653.934 799.548 653.915 799.582 653.915 L 799.69 653.808 C 799.762 653.774 799.816 653.738 799.852 653.701 C 799.96 653.63 800.281 653.326 800.817 652.79 C 801.425 652.074 801.962 651.288 802.426 650.427 L 805.646 644.471" style="fill:#111011;fill-opacity:1;fill-rule:nonzero;stroke:none" id="path146"/>
</svg>