<?xml version="1.0" encoding="UTF-8" standalone="no"?>
<!-- Created with Inkscape (http://www.inkscape.org/) -->

<svg
   version="1.1"
   id="svg2"
   width="3460.0205"
   height="4520.6953"
   viewBox="0 0 3460.0205 4520.6953"
   xmlns="http://www.w3.org/2000/svg"
   xmlns:svg="http://www.w3.org/2000/svg">
  <defs
     id="defs6" />
  <g
     id="g8"
     transform="matrix(1.3333333,0,0,-1.3333333,-1605.5127,5833.863)">
    <g
       id="g10"
       transform="scale(0.1)">
      <path
         d="m 37991.5,14451.2 c -44.8,-43.7 -85.3,-9.2 -124.9,2 -194,55.1 -384.9,124.2 -581.8,165.1 -242.4,50.3 -477.4,112.3 -695.4,233.4 -76.7,42.5 -164.8,63.8 -244.2,102.1 -176.7,85.4 -356.7,138.5 -556.4,159.5 -605.4,63.5 -1186.6,232 -1753,454.2 -407,159.8 -792.5,359.7 -1160.4,594.9 -506.4,323.8 -987.4,681.6 -1428,1090.8 -170.7,158.5 -327.8,332.3 -485,504.8 -67.5,74.1 -122.5,160.5 -177.8,244.8 -130.7,199.2 -176.2,411.8 -117.9,649.5 88.6,361.6 165.6,725.9 246.6,1089.3 21.9,98.5 37.3,198.6 61.4,296.5 13.4,54.4 32.3,109.4 59.8,157.8 37.2,65.4 119.3,85.8 181.1,44.9 100.6,-66.5 197.7,-141 235,-263 39.9,-130.3 114.7,-237.8 202.8,-338.1 191.7,-218.2 377.6,-441.8 576.6,-653 472,-500.6 936.9,-1008.4 1473.3,-1444.2 131.8,-107 271,-179.7 435.5,-213.3 185.8,-37.9 364,-98.1 538.4,-175.2 300.9,-133.1 560.4,-323.6 768.5,-572.2 315.3,-376.7 696.3,-676.6 1078.2,-977.3 163.7,-128.9 325.6,-260.3 493.4,-383.7 111.5,-82 230.2,-155 349,-226.4 124.4,-74.7 251.1,-146 379.9,-212.7 137.7,-71.5 216.1,-182 245.3,-330.5"
         style="fill:#b21d23;fill-opacity:1;fill-rule:nonzero;stroke:none"
         id="path44" />
      <path
         d="m 15229.7,31836.8 c 0,-132.5 7.9,-265.4 -1.4,-397.2 -38.6,-547.5 -76.4,-1095.2 -126.2,-1641.8 -40.6,-446 -99.1,-890.3 -147.5,-1335.6 -72.7,-668.3 -63.8,-1335.9 30.2,-2001.5 42.5,-301 128.6,-590.8 247.9,-871.1 266.8,-627 517.9,-1260.2 752.3,-1900 134.8,-367.7 250.6,-740.8 335.9,-1123.1 20.5,-92.1 33,-186.2 45.5,-280 12.8,-95.3 3.4,-190.4 -32.1,-279.5 -51,-128.2 -143.7,-206.2 -287.9,-204.9 -56.5,0.4 -115.2,1 -169.1,15.5 -380.8,102.1 -742.4,246.5 -1048.7,503.6 -67.4,56.6 -129.6,119.9 -191.3,182.9 -78.9,80.6 -112.5,177 -108.8,291.9 7.8,239.8 5.7,479.7 -35.4,717.4 -116.9,675.5 -322.1,1322.8 -627,1937.2 -44.7,89.9 -101.6,174.5 -159.2,257.1 -74.6,107.2 -74.5,210 0,315.2 32.8,46.4 64.4,93.5 97.6,139.6 174.8,243.3 257.9,517.1 271.3,814 11.1,247.3 -14.7,492.5 -57.4,734.8 -45.9,260.5 -103.7,519.2 -162.3,777.3 -23.4,102.6 -19.3,198.8 16.2,296.8 137.4,379.4 261.9,764.1 412.8,1138 225.1,557.5 388.5,1133.2 538.5,1713.3 32.8,126.9 33.5,262.1 49,393.5 24.5,206.6 46.9,413.4 74.8,619.5 7.5,55.4 25.1,112 50.4,161.8 22,43.1 57.2,82.4 94.3,114.4 43.3,37.2 106,8.5 110.9,-49.2 4.9,-56.3 1.5,-113.2 1.8,-169.8 1.5,-290.1 3.2,-580.2 4.8,-870.2 6.7,0 13.4,0 20.1,0.1"
         style="fill:#b21d23;fill-opacity:1;fill-rule:nonzero;stroke:none"
         id="path46" />
      <path
         d="m 29518,33148.7 c 57.8,-103 45.8,-180.3 53.9,-253.2 8.5,-75.1 12.8,-150.7 19.3,-230.7 79,-55.2 137.9,-126 177.8,-214.6 244,-541.2 469.1,-1090 614,-1666.7 143.7,-572 212.9,-1153.2 170.7,-1745 -51.8,-725.4 -246,-1401.7 -665.8,-2004.7 -144.3,-207.1 -278.1,-421.5 -422.8,-628.3 -330.9,-473 -591,-983 -814.8,-1513.9 -284.2,-674.3 -571,-1347.6 -866.6,-2017.1 -191.1,-432.8 -399.8,-858.3 -640.6,-1266.2 -131.4,-222.4 -277.3,-436.6 -424.3,-649.3 -67.7,-98.1 -150.8,-186.3 -232.8,-273.5 -38,-40.4 -86.3,-75 -136.2,-99.4 -122.8,-60.1 -253.1,24.7 -244.5,161.6 4.2,67.8 27.2,135.9 50.4,200.7 183.3,510.5 365.3,1021.5 554.1,1530 382.4,1029.8 722.8,2072 971.2,3143.5 71,306.7 169.5,607.2 257.6,909.8 19.4,66.4 47.3,130.4 72.8,194.9 110.8,281.1 277.6,522.7 508.5,719.1 158.7,135 320.1,266.8 474.3,406.8 168,152.5 333.1,308.8 492.1,470.7 189.3,192.8 307.1,429.2 390.3,684.5 186.7,573.2 161.9,1143.9 -20.2,1711.8 -44.2,137.8 -99.4,272.5 -155.9,406 -121.1,285.9 -216.5,578.6 -258.9,887.4 -46.8,341.1 -29.1,679.9 31.7,1017.3 5.4,29.9 21.4,57.8 44.7,118.5"
         style="fill:#b21d23;fill-opacity:1;fill-rule:nonzero;stroke:none"
         id="path48" />
      <path
         d="m 33054.8,23764.2 c -75.4,256.6 -148,503.4 -220.6,750.2 -61.2,22.8 -123.8,38.1 -177.7,68.8 -41.6,23.7 -79.8,61.8 -106,102.2 -35.8,55.5 0.1,134.4 64.9,150.6 42.2,10.6 87.6,15.5 131,12.7 343.4,-21.7 664.4,64.6 970.5,208.8 211,99.4 414.8,214.1 622.1,321.5 55.9,29 111.2,60.5 169.8,82.8 75.6,28.7 151.3,21.4 212.5,-35.8 65.8,-61.4 83.5,-138.7 57.4,-225.3 -27.9,-93.2 -81.8,-171.1 -150.1,-237.8 -72.1,-70.3 -149.2,-135.4 -220.5,-199.6 3.2,-84.1 23.8,-168.9 4.3,-243.3 -19.6,-75 -79.1,-139.5 -130.1,-223.6 0.5,7.1 -4.1,-6.3 -0.8,-17.4 57.3,-197.6 38.7,-278 -126.5,-388.3 -194,-129.6 -395.3,-248.8 -597.9,-364.8 -63.9,-36.6 -142,-48.4 -222.5,-74.4 -1.8,-23.3 -8.2,-54.3 -5.6,-84.5 26.3,-315.7 -65.5,-599.3 -235.2,-860.5 -205,-315.4 -485.4,-542.8 -822.1,-707.4 -501.6,-245.3 -1007.5,-253.2 -1521,-44.3 -113.4,46.1 -119.8,52.4 -212.9,215.3 -143.5,36.3 -294.4,74.6 -450.3,114 -13.5,-31.4 -26.2,-53 -32.2,-76.4 -53.1,-206 -160.7,-383 -290.2,-548.4 -199.3,-254.6 -426.7,-482.2 -669.8,-694.3 -386,-336.7 -792.3,-647.1 -1220.7,-927.7 -148.5,-97.3 -287.3,-204.9 -417.3,-325.6 -292.1,-271.2 -604.8,-516.7 -940,-732.8 -63.6,-40.9 -129.1,-79.5 -196.8,-112.9 -38.8,-19.2 -83.1,-33.1 -126,-36.8 -163.5,-14.5 -274,146.8 -195.2,293.2 37.8,70.4 94.9,135 155.9,187.5 186.4,160.6 374.5,320.1 570.3,469.1 291.4,221.7 589.3,434.8 885.8,649.8 133.5,96.9 253.6,207.5 366,328.1 379.4,407.1 720.3,846 1060.6,1285.3 112.1,144.8 219.8,292.9 329.6,439.5 26.5,35.3 55,69.3 80.1,105.6 133.7,193.4 315.6,262.4 543.8,211.3 80,-17.9 160.3,-35.2 239,-57.7 207.2,-59 418.4,-95.3 632.4,-114.6 191.8,-17.2 377.7,14.5 557.7,80.2 449.5,164 824,434.4 1128.6,802.1 60.3,72.9 114.4,150.9 171.4,226.6 120.2,159.5 129.6,166.2 334.3,229"
         style="fill:#b21d23;fill-opacity:1;fill-rule:nonzero;stroke:none"
         id="path50" />
      <path
         d="m 22519.7,16747.8 c 163.1,-80.3 193,-221.6 188.6,-383.3 -8,-292.3 -62.8,-577.1 -133,-858.9 -84,-336.6 -176.8,-671 -266.4,-1006.2 -83,-310.7 -164.2,-622.1 -251.4,-931.7 -76.9,-273.2 -158,-545.2 -242.4,-816.2 -78.8,-252.9 -169,-502.4 -245.3,-756 -44.9,-149.1 -128.3,-273.6 -220.1,-393.6 -88.7,-115.7 -166.7,-128.2 -295.2,-61.9 -176.5,91.2 -215.8,169.4 -175.8,363.3 14,67.8 35.4,134.2 56.5,200.2 173.6,541.1 330.8,1086.7 431.6,1646.6 121.9,676.9 242.3,1354 325.7,2037.2 35.2,288 87.4,573.9 130.3,861 5.2,35.3 0.7,72.1 0.7,119.1 -43.5,-10.5 -81.3,-13.6 -113.5,-28.6 -62.8,-29.3 -124.1,-62.6 -183,-99 -267.7,-165.6 -556,-202.8 -855.8,-122.7 -212.8,56.9 -422.6,127.2 -630,202 -254.3,91.7 -462.9,254.9 -649.9,446.8 -118.9,122.1 -232.4,249.6 -354.8,368 -85.8,83 -180.7,157 -274.7,231 -148.7,117 -303.3,226.9 -449.2,347.3 -77.3,63.7 -144.3,140.8 -209.8,217.1 -16,18.6 -20.5,66.7 -7.5,85.3 13.6,19.3 55.8,28.8 83.5,25.8 42.9,-4.8 86.8,-18.7 125.8,-37.8 289,-141.1 579.4,-279.7 863.9,-429.4 110.7,-58.2 208.4,-141.6 309.8,-216.4 50.7,-37.4 99.6,-78.3 144.1,-122.8 330.1,-329.8 746.3,-457.2 1193.9,-512.9 103.9,-12.9 201.1,4.1 291.7,56.9 38.2,22.2 76.5,44.2 113.8,67.8 191,121.1 401,183.1 625.1,197.2 177.1,11.1 351.3,30.1 518.5,97.3 50.7,20.5 111.5,25.4 167,22.9 239.8,-10.9 372.8,-266.7 243.5,-469.1 -29.7,-46.5 -74.2,-85.7 -117.8,-120.8 -66.3,-53.4 -114.5,-115.6 -138.4,-225.5"
         style="fill:#b21d23;fill-opacity:1;fill-rule:nonzero;stroke:none"
         id="path52" />
      <path
         d="m 35344.2,27004.3 c 133.9,100.7 218.8,232.9 293.3,371.9 98.7,184.1 170.6,379.4 228,580.1 12.1,42.4 21.5,86 38.2,126.6 20.5,50.1 59.1,81.9 116.3,81 57.1,-0.9 99.3,-33.8 114.3,-84.1 19.6,-65.4 31,-134.6 35.6,-202.9 4.2,-62.3 -5.3,-125.5 -9.1,-195.7 136.5,-97.5 144.4,-235.6 116.7,-387.4 -44.3,-242.8 -106.1,-480.6 -197.6,-709.8 -63.9,-160.1 -158.1,-302.1 -283.5,-421.1 -262.6,-249.3 -572.3,-332.2 -925.5,-256.3 -12.3,2.7 -24.3,7 -36.4,10.6 -240,71.3 -328.7,178.4 -354.9,438.8 -34.8,13.7 -74.1,30.3 -114.3,44.5 -125.7,44.4 -245.1,100.1 -349.7,184.7 -163.3,132.1 -239.2,241 -307.4,447.5 -154.6,94.3 -332,140 -507.8,189.1 -72.7,20.3 -148.3,30.3 -221.7,48.5 -48.8,12.1 -98.4,25.5 -143.5,47 -89.5,42.8 -132.3,124.3 -121,215.5 10.7,86.3 77.5,157.9 173.6,176.1 49.1,9.3 100.9,12.5 150.7,8.6 138.3,-10.8 278.2,-16.2 413.7,-42.8 303,-59.4 604.9,-125.4 904.8,-198.8 159.4,-39 308.3,-110.1 450.6,-194.1 130.3,-77 262.8,-150.6 396,-222.4 43.5,-23.4 92.4,-36.5 140.6,-55.1"
         style="fill:#b21d23;fill-opacity:1;fill-rule:nonzero;stroke:none"
         id="path54" />
      <path
         d="m 20696.1,24959.9 c 29.1,-28.7 58.9,-56.8 87.2,-86.2 30.6,-31.7 64.7,-61.4 88.6,-97.7 90.8,-137.3 21.1,-285.9 -143.3,-304.4 -42.6,-4.8 -88.3,2.1 -130.5,12.1 -210.2,49.9 -412.9,118.9 -580.4,261.9 -57.9,49.4 -118,62.4 -191.8,53.5 -308.2,-37.5 -584.4,66.1 -850.4,204.6 -107.5,56 -195.7,138.3 -268.1,235.6 -115.3,155 -114.7,260.9 4.9,436.4 -4,35.7 -9.6,78.6 -13.5,121.7 -4.9,54.9 11.3,102.3 64.4,124.8 47.5,20.2 85.6,-6.2 117.1,-39.8 47.4,-50.7 93.7,-102.3 139.9,-154.1 139.7,-156.6 297.1,-291.3 482.5,-391.3 33.3,-17.9 67.4,-34.3 101,-51.6 62.5,-32.2 120.3,-29.6 173.6,20.6 32.2,30.2 64.8,60.3 100.1,86.6 204.4,153 428.7,210.8 676.5,127.9 119.3,-39.9 234.1,-93.1 352.7,-135.1 106.4,-37.7 213.2,-80.9 323.6,-99.2 159.4,-26.6 236.6,18.3 299.5,166.2 49.2,115.5 82,238.1 119.5,358.3 30.1,96.2 50.9,195.6 86.3,289.7 23.9,63.8 58.2,127.3 101.5,179.6 103.5,124.9 273.3,147 410.3,59.9 100.4,-63.9 167.3,-157.1 191.3,-271.6 17.8,-84.9 26,-175.7 17,-261.7 -21.9,-208.9 -91.5,-404.8 -191.3,-590 -95,-176.4 -252,-278 -428.1,-355.3 -32.9,-14.4 -79.7,-26.7 -109.2,-14.2 -90.2,38.1 -171.7,5.9 -257.1,-10.9 -191.9,-37.8 -376.1,-1.7 -556.1,65.5 -68.7,25.7 -137.3,51.9 -205.9,77.9 -4,-6.6 -7.9,-13.1 -11.8,-19.7"
         style="fill:#b21d23;fill-opacity:1;fill-rule:nonzero;stroke:none"
         id="path56" />
      <path
         d="m 33631.7,30006.1 c -346,-15.8 -679,-75.3 -1002.1,-189.3 -95.1,-33.6 -187.8,-74.2 -283.8,-104.6 -53.1,-16.8 -110.5,-24.2 -166.3,-26.5 -55.8,-2.3 -89.1,63.5 -54.6,108.7 34,44.6 74,86.4 118.2,120.8 135.1,105.2 282.3,190.9 443.8,249.1 261.7,94.4 529.8,164.8 806.1,200 326.9,41.6 644.2,122.6 952.1,237.8 243.8,91.3 471,214.5 660.2,397.5 58.8,56.7 109.6,121.7 163.9,182.9 29.3,33 55.5,69.4 88.1,98.6 130,116.2 300.8,91.8 380.9,-64.6 42.1,-82.1 69.1,-177.6 78.6,-269.5 38.4,-374.1 -119.5,-676.2 -373.6,-933.2 -133.6,-135.2 -309,-194.3 -495.7,-210.1 -112.8,-9.6 -226.9,-7.4 -340.3,-4.4 -220.5,5.9 -440.4,32.3 -661.6,6.6 -116.3,-13.6 -210.1,29.6 -270.9,134.3 -12.1,20.9 -26.4,40.6 -43,65.9"
         style="fill:#b21d23;fill-opacity:1;fill-rule:nonzero;stroke:none"
         id="path58" />
      <path
         d="m 19523.5,21887 c 35.2,-23.1 70,-49.4 108,-69.7 32.9,-17.6 68.7,-37.7 104.5,-40.5 275.9,-21.9 550.6,-55.1 827.2,-72.8 243.1,-15.5 477.9,9.3 715.3,41.7 143.8,19.6 288.3,33.7 432.1,52.9 68.3,9.2 140.7,13.2 202.5,39.9 109.7,47.3 233,-37.9 257.6,-153.3 10.4,-48.5 12.5,-101.2 6.3,-150.5 -36.2,-287.9 -74.5,-575.6 -115.9,-862.8 -7,-48.9 -26.1,-98.4 -49.9,-142 -65.4,-120.3 -185.9,-152.3 -305.9,-85.2 -27.4,15.3 -53.2,34.1 -77.4,54.2 -337.9,280.7 -713.7,495.7 -1120.3,661.2 -227.7,92.7 -451.5,195.6 -673.8,300.9 -90.2,42.7 -174.1,100.4 -256,158.3 -57.9,40.9 -92,103.1 -108.7,173.1 -5.8,24 1.6,37.3 54.4,94.6"
         style="fill:#b21d23;fill-opacity:1;fill-rule:nonzero;stroke:none"
         id="path60" />
      <path
         d="m 34156.3,33287.8 c 4.7,-151.5 -46.8,-242.7 -146.5,-300.4 -59,-34.2 -125.6,-59.8 -192.1,-75.8 -244.6,-59 -490.7,-112.4 -736.2,-168 -209.7,-47.5 -410.8,-119.5 -606.7,-207.9 -82.4,-37.2 -153.4,-88.5 -207.9,-159.4 -134.3,-174.8 -266,-351.6 -398.7,-527.6 -45.4,-60.3 -84.9,-126.2 -137.1,-179.9 -73.1,-75.3 -179.7,-48.4 -205.6,53.7 -14.7,58.2 -11.7,125.4 0.6,184.9 31,149.6 100,284.8 179.1,414.6 210.2,345 488.2,625.6 822.1,849.8 140.9,94.6 287,184.3 439.3,258.6 254.6,124.2 517.7,230.7 774.1,351.3 193.1,90.9 355.9,-37.2 376.4,-208.4 12.6,-106.3 29,-212.2 39.2,-285.5"
         style="fill:#b21d23;fill-opacity:1;fill-rule:nonzero;stroke:none"
         id="path62" />
      <path
         d="m 25041.9,30286.9 c -106.6,192.9 -42.4,349.3 46,498.9 54.1,91.5 122.5,174.4 182.1,262.8 38.4,57 87.6,86.6 157.7,83.3 233.1,-10.9 465.5,-0.8 697.7,20.7 34.9,3.2 75.1,-8.4 107,-24.7 61.9,-31.7 89.5,-96.3 73.9,-158.6 -15.3,-61.3 -56.8,-102.1 -119.2,-103.3 -134.9,-2.6 -260.2,-46.9 -385.5,-85.8 -101.1,-31.4 -197.9,-79.9 -292,-129.7 -48.5,-25.7 -87.8,-69.6 -129.5,-107.1 -88.2,-79.3 -174,-161.1 -263.7,-238.5 -16.1,-13.9 -46.1,-11.7 -74.5,-18"
         style="fill:#b21d23;fill-opacity:1;fill-rule:nonzero;stroke:none"
         id="path64" />
      <path
         d="m 17544.5,30793.1 c 162,8.2 324.1,14.1 485.9,25.4 119.2,8.3 214.5,-63.1 323.2,-89.1 31.4,-7.5 40.9,-72.2 20.1,-99.5 -41.4,-54.4 -100.2,-69.7 -164.8,-78.6 -124.4,-17.1 -249.6,-32.5 -371.7,-60.9 -247.6,-57.5 -482.1,-145.2 -662,-337.7 -8.5,-9.1 -18.4,-17.3 -28.6,-24.5 -52.2,-36.6 -119.9,-44.8 -158.9,-15.8 -53.3,39.7 -52.8,95.8 -40.2,153.7 4.1,18.4 6.3,39.2 16.4,53.9 64.8,93.9 97.7,202.5 144,304.8 19.1,42.3 44.1,75.5 90.7,88.6 90.5,25.4 180.7,51.7 271.3,76.8 24.2,6.7 49.1,10.5 73.7,15.7 0.3,-4.2 0.6,-8.5 0.9,-12.8"
         style="fill:#b21d23;fill-opacity:1;fill-rule:nonzero;stroke:none"
         id="path66" />
      <path
         d="m 19842.5,15697.3 c -14.9,-182.2 -30.7,-376.8 -46.9,-571.5 -16.3,-195.5 -17.9,-390.6 12,-585.4 42.9,-278.5 24,-552.5 -53.2,-824.6 -53,-186.8 -157.6,-327.8 -325.9,-422.4 -49.5,-27.8 -99.6,-54.7 -150.3,-80.2 -259.5,-130.2 -521,-256.8 -778.8,-390.3 -684.3,-354.1 -1389.3,-664.7 -2086.6,-991.2 -383,-179.3 -767.1,-356.2 -1151.9,-531.8 -143.4,-65.4 -289.2,-126 -435.6,-184.7 -58.2,-23.4 -120,-40.2 -181.6,-52.1 -78.7,-15.1 -150.4,8.3 -210.8,61 -68.1,59.3 -89.6,138.1 -53.3,222 22.2,51.4 49.7,104.2 87.3,144.7 128.4,138.8 258.6,276.4 395.2,407 205.3,196.1 414.4,388.5 626,577.9 253.9,227.3 515.2,446.4 767.5,675.4 271.1,245.8 541.2,493.2 800.8,751 170,168.9 315.6,360.4 425.2,577.2 98.7,195.4 152.7,402.2 153.9,619.3 1.1,201.5 -11.4,403.3 -23.4,604.7 -12,201.4 -30.1,402.5 -46.5,603.7 -22.2,270.3 -45.7,540.5 -67.8,810.8 -15.9,194.9 -30,389.9 -45.8,584.8 -8.2,100.6 -21.2,200.9 -26.4,301.6 -2.9,55.8 0.4,113.3 11,168.2 8.7,45.2 42.3,77.6 91.1,85.5 130.5,21.1 260.7,44.8 391.8,60.5 153.8,18.5 285.6,-30.8 393.8,-143.7 52.4,-54.7 107.7,-106.5 163,-158.4 174.8,-164.1 348.3,-329.7 525.9,-490.8 215.6,-195.6 414.7,-406.2 601.3,-629.3 105.2,-125.6 164.6,-269.5 179.4,-430.1 23,-251.2 39.4,-503 59.6,-768.8"
         style="fill:#58c9f5;fill-opacity:1;fill-rule:nonzero;stroke:none"
         id="path68" />
      <path
         d="m 17344.4,24294.8 c -2.7,-368.8 -54.2,-730.9 -110.2,-1093 -34.7,-224.4 -68.9,-449.3 -90.6,-675.2 -24.8,-258.3 -15.8,-516.8 38.2,-772.5 87.3,-413.6 173,-827.6 258,-1241.7 25.4,-123.5 43.6,-248.6 70,-371.8 10.4,-48.1 25,-100.3 53.9,-138.4 141.5,-186.4 299.2,-357.8 485.4,-502.1 197.2,-152.9 421.8,-223.1 667.4,-235.4 56.7,-2.9 113.8,-5.4 170.4,-1.6 414.2,27.2 729.2,-162.5 995.3,-456 88.9,-98.1 168.5,-204.6 254.8,-305.2 57.4,-66.9 113.9,-136.2 180,-193.9 190,-166 406.9,-241.1 664.3,-201.2 177.4,27.6 343.5,77.7 501.4,161.7 144.8,77.1 294.5,145.4 437.9,225 182.3,101.1 372.7,107.5 569.5,64.6 98.6,-21.4 196.4,-47.1 294.6,-70.5 118.6,-28.3 237.2,-25.7 357.1,-6.1 256.2,41.9 505.2,110.9 752.4,188.1 806.4,252.1 1562.9,610.5 2272.9,1067.1 212.3,136.5 419.1,281.7 625.6,426.9 458.2,322.3 845.6,718 1193.7,1154.6 141.6,177.6 287.1,352.2 433.3,526.1 36.2,43.1 78.7,82.3 123.7,116.2 49.1,36.9 112.2,32.5 159.3,-1 47.7,-34 72,-91.2 53.2,-150.2 -15.1,-47.5 -37.7,-93.7 -63.6,-136.4 -164.5,-270.2 -353.7,-521.4 -562,-760.2 -341.6,-391.7 -723.1,-741.5 -1121.8,-1071.2 -399.2,-330.2 -828,-622.3 -1280.6,-875.2 -380.1,-212.4 -767.8,-410.9 -1170.1,-579.9 -392,-164.8 -795.8,-286.3 -1216.3,-348.3 -124.3,-18.3 -252.5,-31.1 -377.1,-21.9 -279.8,20.7 -536.9,-57.6 -792.6,-151.9 -242.7,-89.6 -482.1,-189 -728.2,-268.1 -345.6,-111.1 -695.8,-103.5 -1043.8,-0.7 -337.5,99.8 -618.6,285.1 -830,566.8 -99.4,132.5 -221.4,224.5 -379.4,266.2 -291.1,76.8 -545.7,229.1 -802.3,378.3 -97.9,56.9 -198,110.8 -300.9,157.8 -124.8,56.9 -231.6,120.7 -265,271.5 -12.3,56.1 -63.1,107.8 -106.1,152.2 -119.5,123.7 -214.3,264.6 -301.9,411.2 -52.5,87.7 -95.7,182 -97.5,283.8 -1.6,86.3 -33.1,156.4 -65.2,232.5 -63.7,150.8 -119,305.5 -170,461.2 -54.7,167.3 -101.5,335.3 -176.1,497.5 -70.1,152.3 -95.8,325.8 -134.8,491.5 -89.5,380.8 -175,762.6 -262.5,1144 -29.8,129.7 -73.3,253.6 -140.6,370.1 -73.2,126.6 -117.8,264.1 -137.3,410.4 -20.9,156.6 -61.1,308.9 -112.3,458.9 -50.9,149.3 -96.5,300.6 -139.2,452.4 -145.6,517.5 -324.9,1022.3 -553.1,1509.6 -189.1,403.8 -303.8,830.3 -351,1272.2 -20.6,193.5 -12.3,391 -4.3,586.1 3.5,86.4 34.2,173 61.7,256.4 15.3,46.5 43.8,91.9 76.5,128.7 70.7,79.3 172,86.9 254.5,20.2 33.2,-26.9 62.4,-63.4 82.2,-101.4 25.9,-50 46.8,-104.3 59.1,-159.2 75.4,-335.9 222,-643.6 371.3,-950.2 105.9,-217.3 246.9,-409 413.8,-584.9 151.6,-160 300.2,-325.3 430.5,-502.7 249.8,-340.2 426.2,-716.5 475.6,-1141 24.7,-212.6 33.2,-427.2 48.9,-640.8"
         style="fill:#58c9f5;fill-opacity:1;fill-rule:nonzero;stroke:none"
         id="path70" />
      <path
         d="m 15596.1,31656.9 c 25.1,26.3 50.3,52.4 75.2,78.7 394.3,417.6 870.6,638.5 1452.5,600.9 61.3,-3.9 127.1,-16.1 180.9,-43.8 100.6,-51.8 105.2,-173 6.2,-226.8 -81.8,-44.6 -174.9,-70.5 -265.4,-96.2 -72.5,-20.6 -149.3,-25.6 -223.1,-42.4 -263.6,-60.1 -496.7,-181.1 -702.9,-355.6 -174.7,-148 -273.2,-344.2 -352.4,-552.7 -22.4,-59 -38.1,-121.1 -66.3,-177.1 -47.4,-94.3 -136.9,-109.9 -219.4,-40.6 -33.1,27.7 -59.3,63.5 -100.4,108.7 -27.8,-52.5 -47.8,-88.7 -66.4,-125.6 -25.5,-50.6 -46.5,-103.7 -75.7,-152 -30.2,-50.1 -101.7,-43.2 -117.9,14.4 -25.4,90.4 -50.8,183.6 -55.2,276.5 -20.7,432.6 14.3,858 185.1,1263.4 16.4,39 27.4,86.9 21.4,127.8 -102.1,697.9 -51.8,1399.8 -44.6,2099.5 3.6,345.6 4.6,695 64,1038.6 42,242.4 75.6,487.4 136,725.4 138.5,545.6 317.3,1078 578.5,1579.5 306.5,588.5 699.5,1112 1200,1548.3 363.4,316.7 764.1,579.1 1215.5,759.2 251.9,100.6 511.3,134.6 779.6,116.1 37.7,-2.6 77.3,-3.5 112.3,-15.6 276.5,-95.9 568.2,-117.3 851.7,-178.6 79.9,-17.3 159,-40.7 236.1,-67.7 40.8,-14.3 80.6,-37.8 113.3,-65.9 21,-18.1 40.3,-52.9 38.9,-79 -2,-36.6 -41.5,-42.1 -73.7,-42.1 -31.4,0 -63.8,-0.2 -94.2,6.6 -168,37.9 -339.4,26 -509,39.2 -220.9,17.3 -440.8,6 -661.3,0.9 -193.1,-4.4 -376.9,-44.6 -550.4,-124.2 -433.5,-198.9 -826.9,-455.9 -1172.6,-789.1 -460.6,-443.9 -830.7,-949.7 -1094,-1532 -187.8,-415.3 -330.8,-846.4 -433.9,-1290.7 -83,-357.1 -141.9,-718.3 -182.9,-1082.2 -19.7,-175.5 -31.6,-352 -42.5,-528.3 -16.8,-270.9 -23.2,-542.5 -46,-812.7 -21.3,-251.3 -58.9,-501.2 -87.9,-751.8 -4.1,-34.9 -0.6,-70.7 -0.6,-103.4 55.5,-16.6 79,18.9 104.4,44.2 279.4,278.9 630,437 988.1,581.7 46,18.6 97.2,27.7 146.9,33.4 66,7.5 113.9,-17.7 126.5,-59.4 15.2,-50.4 -13.2,-85.5 -47.4,-115 -28.5,-24.6 -60.7,-45.1 -92.1,-66.1 -68.3,-45.7 -137.1,-90.4 -205.6,-135.6 -337.2,-222.6 -602.5,-517.7 -828.9,-846.9 -84.9,-123.5 -140.8,-267.4 -205.7,-403.9 -17.7,-37.2 -20.4,-81.6 -30,-122.8 11.8,-5.7 23.5,-11.4 35.3,-17.2"
         style="fill:#58c9f5;fill-opacity:1;fill-rule:nonzero;stroke:none"
         id="path72" />
      <path
         d="m 33846,36841.7 c 11.2,-343.4 -48.4,-684.6 -130.7,-1022.9 -16.4,-67.5 -41,-133.5 -51.7,-201.7 -50.3,-319.2 -243.5,-548.1 -472.2,-754.4 -51.4,-46.4 -106.7,-90.2 -165.8,-125.9 -221.4,-133.6 -444.4,-264.9 -668.5,-394 -88.9,-51.1 -186.9,-77.8 -290.5,-71.9 -43.6,2.4 -88.7,8.2 -129.4,23 -58.2,21 -96.9,68.3 -87.7,131.2 9.9,67.4 27.5,136.1 55.4,198.1 163.8,363.3 295.9,738.5 421.2,1115.9 113.4,341.6 211.8,688.1 259.3,1046.3 18.3,137.4 30.7,275.9 39.2,414.3 27.9,460.2 38.6,920.3 -5.3,1380.6 -27.1,283.8 -86.6,560.9 -155.2,836.8 -24.4,98 -43.6,197.2 -63.7,296.2 -6.2,30.7 -11.5,62.6 -10.6,93.7 4.5,151.1 133.2,245.7 274.5,189.9 86.3,-34.1 170.2,-85.5 240.7,-146 299,-256.7 512.3,-573.8 629.8,-950.7 112.9,-362.1 196.8,-731 240.9,-1108.6 36.6,-313.4 73.9,-626.7 70.3,-949.9"
         style="fill:#58c9f5;fill-opacity:1;fill-rule:nonzero;stroke:none"
         id="path74" />
      <path
         d="m 26878.3,39969 c 5.5,39.8 37.8,50.6 68.1,51 100.8,1.5 203.9,11.4 301.9,-5.6 316.9,-54.8 636.3,-103.2 946.4,-185.5 452.3,-120 853,-343.5 1181.1,-684.3 264.2,-274.4 430.1,-606 544.6,-964.2 105.9,-331 191.9,-667.1 214.9,-1016 4.3,-66 22.7,-123.5 76.2,-166.1 59.3,-47.1 76.6,-113.2 83,-184.2 3.4,-37.7 10.9,-75.5 10.2,-113 -8.9,-462.5 -56.3,-919.1 -208.3,-1359.9 -86.4,-250.6 -168.5,-502.6 -255,-753.1 -115.5,-334.8 -198.5,-678 -274,-1023.4 -18.9,-86.2 -40.4,-172.1 -66.1,-256.5 -32.3,-106.3 -84.5,-210 -203.2,-227.2 -131.9,-19.1 -207.4,82.1 -260,184.2 -45.5,88.4 -79.8,185.6 -101.3,282.9 -56.9,256.7 -35.2,514.1 12.3,770.5 45.1,243.5 125.9,475.4 224.4,701.6 27.7,63.6 56.5,127.1 90.4,187.5 239.9,426.4 387.8,889.6 544.1,1349.7 72.8,214.2 82,431.5 51.9,653.9 -49.3,364.1 -133.9,719.1 -261.3,1063.9 -155.7,421.6 -415,759.3 -791.2,1010.3 -292.3,195 -604.2,337.8 -946.4,419.1 -319.1,75.8 -636.1,160.5 -953.8,242 -10.7,2.8 -19.1,14.6 -28.9,22.4"
         style="fill:#58c9f5;fill-opacity:1;fill-rule:nonzero;stroke:none"
         id="path76" />
      <path
         d="m 19387.9,32328 c 13.9,-68 19.2,-98.3 26.4,-128.2 25.1,-103.7 54.1,-126.3 154.6,-120.2 12.4,0.7 24.5,6 36.9,8.3 59.4,10.6 96.9,-21.1 122.5,-68.3 17.9,-33.1 30.4,-69.3 43.9,-104.7 54.2,-141.5 105.2,-284.2 162.3,-424.6 67.5,-166 88.3,-341.6 112.6,-516.5 12.7,-91.7 -5.7,-182.2 -83.4,-239.2 -81.7,-60 -78.7,-131.4 -64.3,-217.3 20.8,-124.1 37.9,-249.5 46,-375 19.7,-305.2 -16.3,-605.4 -103.5,-898.6 -102.6,-344.9 -207.7,-689 -313.3,-1033 -107.4,-350.1 -213.3,-700.7 -325.9,-1049.1 -110.9,-343 -247.1,-676.2 -418.8,-993.7 -41.9,-77.4 -91,-151.6 -142.8,-222.9 -25.2,-34.7 -61.8,-63 -97.8,-87.7 -44.8,-30.9 -95.7,-32.3 -143.1,-3.6 -53.6,32.5 -77.9,82.4 -68.8,144.5 4.5,30.9 15.2,61.2 26.1,90.6 239.1,647 426,1308.5 552.4,1986.7 47.7,255.6 126.5,501.8 220.7,743.4 110.2,282.7 210,568 262.5,868.6 41.9,240.6 36.6,477.9 -28.9,712.8 -54.3,194.6 -114.7,387.4 -170.2,581.7 -33,115.3 -63.8,231.3 -91.6,347.9 -43.7,182.9 -39.5,362.2 43.3,536.3 59.6,125.3 112.4,253.9 170.4,380 9.5,20.6 30.7,35.7 71.8,81.8"
         style="fill:#58c9f5;fill-opacity:1;fill-rule:nonzero;stroke:none"
         id="path78" />
      <path
         d="m 22395.3,11377.4 c 102.8,77.1 191.8,109.1 277,148.2 149,68.5 298.2,136.8 446.6,206.7 511.6,241.1 874.7,631.3 1131.8,1128.3 199.1,384.9 321.8,794.8 397.1,1219.4 55.1,310.5 98.3,623.2 155.2,933.3 43.5,237.5 131.4,460.8 252.6,670.2 102.8,177.5 234.7,327.4 410.4,437.2 360.9,225.4 869,119 1117.9,-295.8 147.3,-245.6 74.1,-650.4 -139.4,-836.1 -28.2,-24.4 -59.9,-47.8 -94,-61.9 -85.7,-35.2 -169.5,18.4 -175.5,111.9 -2.5,37.1 2.3,75.9 11.1,112.1 14.9,61.1 33.9,121.4 54.2,181 77.8,228.5 -38.1,451.7 -270.7,517 -118.4,33.2 -226,3.8 -321.4,-68.2 -111.9,-84.4 -202.1,-188.4 -272.9,-310.7 -145.4,-251.3 -204,-528 -244.2,-810.4 -60.5,-425.2 -134.3,-847.6 -261.2,-1258.9 -163.1,-528.8 -426.7,-994.3 -843.7,-1368.2 -327.3,-293.4 -710,-477 -1126.8,-598.5 -90.8,-26.5 -182.9,-49 -275.3,-69.5 -65.5,-14.6 -132.9,-31.2 -228.8,12.9"
         style="fill:#58c9f5;fill-opacity:1;fill-rule:nonzero;stroke:none"
         id="path80" />
      <path
         d="m 24975.5,32792.3 c 465,16.1 915,-97.8 1355.6,-261.7 82.5,-30.7 169.1,-50.7 251.2,-82.3 93.5,-35.9 186.5,-75 275.3,-121 62.2,-32.3 57.6,-107.2 -6.2,-130.9 -52.3,-19.4 -108.9,-33.3 -164.3,-36.7 -289.4,-17.5 -578.9,-30.7 -868.4,-45.7 -429.5,-22.1 -852.4,-80 -1264.4,-210.7 -264.3,-83.8 -532.5,-155.6 -799,-232.4 -24.2,-7 -50.1,-18.3 -73.4,-15 -28.6,4 -69.6,13.7 -80.5,34.2 -80,149.8 -157.1,301.4 -227.9,455.8 -29.9,65.2 3.7,123.4 56.5,166.6 132.3,108.3 275.2,200 431.4,270.3 351.4,158.3 719.5,228.9 1114.1,209.5"
         style="fill:#58c9f5;fill-opacity:1;fill-rule:nonzero;stroke:none"
         id="path82" />
      <path
         d="m 20496.3,22367.9 c -69.9,20.9 -151.7,35.3 -224.3,69.3 -137,64.1 -272.7,132.9 -401.6,211.7 -209.5,127.9 -437.6,190.2 -677.6,223.1 -149.9,20.5 -299.9,43.6 -447.3,76.9 -78.3,17.7 -152.9,56 -225.5,92.5 -32.1,16 -58,48.1 -81.2,77.2 -35.2,44.2 -8.9,110.1 46.1,115.3 37,3.6 77.1,5.1 112.1,-5.1 232.5,-67.8 473.5,-72.5 711.5,-96.5 242,-24.4 470.3,-88.8 683.7,-205.5 121.8,-66.6 244,-132.6 365.2,-200.2 88.1,-49.1 177,-56 273.3,-23.6 155.4,52.3 312.5,99.6 469.1,148.3 199.8,62.1 406.4,88.7 612.6,117.3 193.6,26.9 388,49.9 579.6,87.2 193.7,37.7 374.7,112.8 530.2,238.8 89.8,72.7 188.4,126.6 301.8,150.7 36.8,7.8 74.8,15.7 112,14.5 134.8,-4.5 204.5,-118.8 142.9,-237 -59.7,-114.5 -144.8,-205.7 -265,-260.4 -424,-193.2 -866.7,-310.4 -1334.2,-319 -293.6,-5.3 -575.8,-64.5 -852.2,-158.7 -71.6,-24.4 -142.2,-52.7 -215,-72.8 -66.3,-18.3 -135,-27.9 -216.2,-44"
         style="fill:#58c9f5;fill-opacity:1;fill-rule:nonzero;stroke:none"
         id="path84" />
      <path
         d="m 22883.6,29691.4 c 68.4,-37.7 89.8,-100.9 110.4,-157.7 94.4,-260.5 297.2,-417.4 520.3,-554.7 151.6,-93.3 318.4,-153.1 487.6,-205.4 90.4,-28 182.5,-50.7 272.9,-78.7 48,-14.8 96.9,-30.8 140.6,-54.9 124.7,-68.5 161.4,-166.3 119.7,-302.9 -63.2,-206.8 -276.1,-365.4 -515.2,-384.8 -108.7,-8.8 -214,8.5 -317.7,38.9 -197.1,57.8 -367.2,160.1 -523.6,294.1 -313.3,268.7 -459.2,625.7 -557.8,1010.9 -17.2,67.3 -4.9,123.2 42.2,174.5 55.4,60.5 106.4,125 162,185.2 15.4,16.8 40.3,24.8 58.6,35.5"
         style="fill:#58c9f5;fill-opacity:1;fill-rule:nonzero;stroke:none"
         id="path86" />
      <path
         d="m 21952.8,30519.8 c -30,-257.5 -50.6,-502.6 -88.6,-745 -67.5,-429.3 -139.6,-858.1 -221.6,-1284.8 -40.4,-209.7 -106,-414.6 -163.3,-620.9 -13.3,-47.9 -33.2,-96.1 -60.4,-137.4 -55.2,-84 -158.6,-89.9 -225.5,-14.5 -24.3,27.4 -47.7,62.5 -54.3,97.4 -24.5,129.6 -49.3,259 -36.5,393.5 24.6,256.9 39.4,514.8 63.5,771.9 43.4,460.7 135.7,909.4 341.2,1328.9 36.1,73.5 67.2,149.4 102.7,223.2 36.1,75.2 86.2,139.6 159.5,182.3 76.1,44.3 156.9,9.6 173.5,-76.5 8.3,-42.9 7.5,-87.5 9.8,-118.1"
         style="fill:#58c9f5;fill-opacity:1;fill-rule:nonzero;stroke:none"
         id="path88" />
      <path
         d="m 28970.8,17113.7 c -15.1,-79.8 -26.8,-160.5 -46.8,-239.1 -9,-35.4 -30.8,-69.5 -53.3,-99.3 -71.4,-94.7 -168.2,-91.7 -229.9,9 -50.1,81.7 -79.9,171.5 -77.2,269.2 1.2,44.1 9.2,88.7 4.7,132.1 -18.7,181.4 -194.8,269.3 -345,168.8 -121.5,-81.3 -224.2,-186 -300.3,-311.1 -75.3,-123.8 -141.8,-253 -209.9,-381 -68.4,-128.6 -144.4,-250.8 -248.4,-355.2 -139.5,-140.2 -308.4,-218.2 -501.2,-243.6 -142.3,-18.7 -276.2,15.7 -394.8,97.8 -17,11.8 -32.9,44.7 -28.4,62.7 4.3,17.6 33.8,36 55.2,40.6 36.5,7.8 75.2,7 113,6.6 260,-3.2 444.5,123.2 571.3,340.2 57.1,97.7 101.4,203 151.1,305 80.2,164.4 156.6,330.2 272.3,475 87.9,109.9 189,203.6 304.7,281.2 193.4,129.7 395.2,152.2 608.1,43.9 216.3,-110 334.4,-281 342.6,-525.1 0.9,-25.2 0.1,-50.5 0.1,-75.7 4.1,-0.7 8.1,-1.3 12.1,-2"
         style="fill:#58c9f5;fill-opacity:1;fill-rule:nonzero;stroke:none"
         id="path90" />
      <path
         d="m 30363.4,18773.1 c 308.9,2.8 490.6,-135.8 568.1,-417.4 27.1,-98.6 36.4,-198.2 28.5,-299.5 -6.1,-78.5 -37.1,-146 -95.6,-199.8 -91.3,-84 -204.3,-72.2 -276,30.4 -40.9,58.5 -61.3,123.8 -54.4,196.2 3.5,37.6 11.1,75.5 8.7,112.7 -9.2,141.2 -110,219.1 -246.1,183 -186.6,-49.4 -349.2,-146.3 -482.6,-285.1 -78.3,-81.3 -144.4,-174.4 -214.8,-263.2 -58.7,-74.1 -114.2,-150.8 -173.8,-224.2 -60.5,-74.4 -133.7,-135.6 -225.1,-166.8 -39.5,-13.5 -85.7,-13.2 -128.1,-10 -37.3,2.9 -58.2,57.9 -38.5,89.9 9.8,16 20.6,32.2 34,45 116.5,110.8 186.9,252.4 263.8,389.8 52.3,93.5 101.6,189.2 161,277.9 147.8,220.9 352.2,375.5 592.6,483.9 93.2,42.1 192.3,59.5 278.3,57.2"
         style="fill:#58c9f5;fill-opacity:1;fill-rule:nonzero;stroke:none"
         id="path92" />
      <path
         d="m 23897.5,30557.4 c -10.6,97.9 46.2,186.1 148.2,257.3 253.1,176.8 539.1,269.7 836,334.8 48,10.5 100.8,7.3 150.2,1.4 71.9,-8.6 119.2,-54.5 132.6,-116.4 13.7,-63.5 -10.9,-118.7 -77.7,-156.2 -49.2,-27.6 -101.3,-51.3 -154.4,-70.6 -267.5,-97.5 -457.9,-282.3 -597.6,-524.5 -37.8,-65.4 -70,-133.9 -105.5,-200.6 -24.9,-46.8 -58.5,-82.6 -116.8,-81.6 -59.4,1 -89.8,38.4 -108.8,89 -53.2,141.8 -101.9,284.8 -106.2,467.4"
         style="fill:#58c9f5;fill-opacity:1;fill-rule:nonzero;stroke:none"
         id="path94" />
      <path
         d="m 16837,30710.1 c 17.2,-1.3 36,-1.9 54.6,-4.3 52.8,-6.9 97.3,-28.4 117.4,-80.9 24.7,-64.8 11.9,-124.8 -38,-172.5 -26.8,-25.6 -59.3,-46.3 -91.7,-65 -179.1,-103.6 -358.9,-206.1 -538.6,-308.6 -21.8,-12.3 -43.9,-25.9 -67.7,-32.2 -23.5,-6.1 -50.2,-8.7 -73.8,-3.9 -61.4,12.4 -214.9,176.5 -225.2,237.8 -11.2,67.3 8.1,123.9 63.5,166.2 5,3.8 9.5,8.6 15.2,11 236.7,98.8 468.3,212.7 726.4,249.3 18.5,2.6 37.5,2.1 57.9,3.1"
         style="fill:#58c9f5;fill-opacity:1;fill-rule:nonzero;stroke:none"
         id="path96" />
      <path
         d="m 26473.9,30914.1 c 4.7,29.3 7.2,67.2 17.4,102.9 21,74.4 65.5,91.6 141.9,67.3 58.7,-18.6 120,-29 180,-43.5 96.9,-23.4 195.5,-42 290.1,-72.7 55.4,-18 65.3,-78.7 30.9,-123.6 -11.4,-14.9 -22.7,-31 -37.4,-41.9 -132.4,-98 -276.7,-172 -440.3,-199.9 -88.6,-15 -123.9,11.7 -149.2,100 -10.3,36.1 -19.4,72.7 -25.6,109.7 -5.1,30.8 -5,62.4 -7.8,101.7"
         style="fill:#58c9f5;fill-opacity:1;fill-rule:nonzero;stroke:none"
         id="path98" />
      <path
         d="m 18663.1,30853.2 c 50.2,0 100.4,2.1 150.5,-0.6 52.3,-2.8 96.1,-26.3 130.5,-66.5 40.1,-46.9 45.6,-103 15.3,-157.3 -73.6,-131.6 -305.1,-220.4 -445.7,-169.4 -61,22.1 -109.7,61.9 -138.4,121 -63.1,129.7 11.1,259.3 156,272.1 43.6,3.9 87.8,0.6 131.8,0.7"
         style="fill:#58c9f5;fill-opacity:1;fill-rule:nonzero;stroke:none"
         id="path100" />
      <path
         d="m 34310,24413.3 c -355.1,-222.8 -397.7,-240 -727.8,-287 -74.5,-10.6 -150.3,-11.7 -225.2,-19.4 -29,-2.9 -57.4,-12 -97.9,-20.8 15.8,-41.4 24.6,-70.1 37.4,-97 34.7,-72.7 71.1,-144.6 104.5,-212.2 323.2,0.9 634.9,215 909,636.4 z M 14695.8,22731 c 268.5,-322.3 1131.1,-589.3 1533,-473.7 -20.4,140.2 -45.3,279.7 -101.8,413.3 -166.2,-32.1 -324.1,-79.7 -484.1,-88.5 -155.1,-8.6 -313.9,13.6 -468.4,38.8 -159.4,25.9 -315.5,71.7 -478.7,110.1 z m 18222.6,1802.7 c 52,-64.9 100.1,-121.2 143.8,-180.8 38.7,-52.5 89.3,-67.9 149.3,-56.7 135.9,25.3 275.1,40.8 406.3,81.6 347.8,108.3 560.8,348.2 643.3,702.6 14.3,61.3 27.8,124 30.1,186.5 6,163.5 8.5,327.3 6.6,491 -0.9,70.8 -17.4,81 -107.2,101.5 0,-46.4 2.6,-90.1 -0.4,-133.5 -11,-158.3 -46.5,-311 -106.8,-458.1 -108.4,-264.3 -287.1,-458.6 -561.7,-550.5 -190.5,-63.8 -384.4,-117.5 -603.3,-183.6 z m -201.8,214.3 c 5,-67.3 40.2,-79 92.2,-72.9 248.2,29 475.8,114.2 683.1,252.5 256.9,171.4 394,417.4 438.8,718.7 31.9,215.1 10.8,427.2 -40.6,637 -36.1,147.3 -110,252.6 -270.7,385.3 4.1,-46.8 2.8,-83.2 11,-117.3 43,-180.1 43.8,-362.6 30.1,-545.1 -19.9,-267.2 -90.3,-520.7 -230.8,-751.2 -146.7,-240.8 -350.7,-409.4 -625.9,-485.2 -29,-7.9 -58.3,-14.6 -87.2,-21.8 z m -2938,-2177.5 c -203.8,-581.2 -491.3,-1082.5 -837.8,-1550 -344.8,-465.2 -778.3,-846.4 -1196.1,-1244.4 36.9,9 67.2,26.5 95.5,46.6 457.9,325.3 892.9,679 1306.5,1059.1 350.3,321.9 650.5,684.5 895.9,1099.3 -44.7,87.1 -94.3,174.6 -135.4,266 -43.2,95.9 -78.2,195.5 -128.6,323.4 z M 13788.1,33083 c -35.1,-6.7 -54,-5.4 -67,-13.5 -252.7,-157.9 -373.8,-388.2 -348.3,-683.5 21.3,-245.6 131.9,-457.9 294.1,-641.9 67.1,-76.1 147.9,-136.3 243.9,-173.8 111.2,-43.5 224.4,-48.7 328.4,10.7 75.3,42.9 146.4,97.9 208.2,158.9 99.4,98.2 166.2,221 224.5,347.2 108.9,235.4 184.8,481.5 233.7,735.9 10.5,54.4 17,109.5 25.4,164.3 -38.1,-56.5 -56.5,-116.1 -76.3,-175.3 -40,-119.6 -84.2,-237.5 -162.1,-339 -136.2,-177.4 -312.4,-268.2 -539.6,-251.4 -342.8,25.4 -609.5,436.9 -425.5,753.5 17.8,30.6 34.7,61.7 60.6,107.9 z m 3849.2,6627 c -33.7,8.3 -40.5,12.5 -45,10.7 -29,-11.8 -58.2,-23.4 -86,-37.9 -338.6,-176.6 -638.1,-406 -910.4,-672.7 -230.6,-225.8 -439.6,-470.7 -635.5,-726.4 -543.5,-709.8 -891.5,-1506.6 -1040.8,-2387.8 -35.7,-210.8 -64.5,-424.9 -38.2,-640.9 45.7,-375.8 91,-751.8 137.1,-1127.6 2,-16.3 10.2,-31.7 26.2,-79.4 6.7,61.4 10.5,86.2 12,111.1 16.2,258.3 24.7,517.4 49.4,774.9 60.2,629.2 162.3,1252.5 334.8,1860.7 338,1192 987.6,2161.6 2058.3,2821.5 42.6,26.2 82.8,56.1 138.1,93.8 z m -1838,-15931.3 c -47.7,-26 -94.7,-55.4 -144.6,-78.1 -85.6,-39 -170,-88.5 -260.4,-107.8 -370.4,-78.8 -728.5,-33.7 -1064.9,142.9 -190.2,99.9 -369.1,218.3 -518.8,375.9 -17.5,18.4 -32.6,54.6 -71.2,35.6 0,-14.9 -3.9,-28.7 0.6,-38.8 180.1,-410.2 442.3,-746.1 851.3,-952.9 373.4,-188.8 771.8,-268.3 1186.3,-278.9 94.2,-2.4 187.3,10.8 275.4,42.7 -18.8,208.8 -162.9,699.2 -253.7,859.4 z m -967.6,1311.7 c 167.5,-100.7 332.3,-237.7 565.9,-191 -5.7,105.4 -59.3,185.4 -92.8,271.3 -31.9,82.1 -66.3,163.7 -105.7,242.4 -40.7,81.5 -62.1,174.9 -130,245.9 -211.8,-108.2 -418.6,-195 -648.1,-224.4 -235.1,-30.2 -461.1,27.9 -682.8,58.1 -16,-20.3 -27.4,-28.9 -30.9,-40 -113.6,-366.9 -29.6,-699.7 191.7,-998.9 188.9,-255.1 450.5,-421.1 746.3,-526.2 340.6,-121.1 682.6,-80.5 1020.5,22.5 27.3,8.3 50.6,30 82.9,50 -86.5,264.8 -173.7,519.1 -281.8,769.3 -64.2,-4.2 -120,-9.3 -175.9,-11.2 -149.5,-4.9 -286.9,38.6 -411.6,117.3 -40.4,25.6 -75.5,66 -101.2,107.1 -28.4,45.5 -6.7,83.7 53.5,107.8 z m -21.3,4020.6 c -54.2,-45.2 -72.3,-62.1 -92.1,-76.6 -276.6,-202.8 -577.9,-299.3 -924.2,-228.1 -188.8,38.9 -360.9,111.4 -521.1,215.6 -46.9,30.5 -92.7,62.9 -132.4,90 -73.7,-10.8 -107.6,-55 -138.4,-104.5 -77.2,-123.9 -138.9,-254.8 -181.3,-394.5 -178,-586.5 -159.7,-1169.8 23.1,-1752.1 143.2,-455.9 438.3,-774.8 867.6,-972.3 263.9,-121.5 539.3,-176.5 829,-106 146.2,35.7 287.2,83.5 409.3,184.7 -21.2,60.1 -38.9,113.6 -58.7,166.3 -88.6,236.7 -169.8,475.8 -214.1,725.3 -15.4,87.1 -55.3,122 -144.5,143.1 -290.2,68.7 -528.3,231.6 -737.5,441.2 -196.2,196.6 -202.5,592 5.5,813.7 47.4,50.4 97.1,100.5 185.8,87.7 2.8,-30.1 11.5,-61.2 6.7,-90 -6,-36.7 -21.5,-72.3 -35.6,-107.4 -82.2,-205.1 -35.9,-383 113.1,-539.4 122.9,-129 261.2,-238.2 420.9,-318.2 30.6,-15.4 67.9,-17.7 119.7,-30.4 -19.5,318.9 10,620.1 51.7,919.8 41.5,298.6 93.8,595.7 147.5,932.1 z m 7977.1,-11793.1 c -79.5,20.7 -134.8,33.6 -189.1,49.6 -78.6,23.3 -155.8,51.8 -234.9,72.7 -168.3,44.7 -325.2,28.4 -461,-93.4 -42.2,-37.9 -86.8,-73.5 -132.9,-106.7 -293.8,-211.1 -617.4,-309.7 -980.6,-256.9 -77.9,11.3 -156.1,21.1 -234.1,31.5 38.6,-48.2 83.1,-81.8 132,-106.7 348.8,-176.9 698.4,-352.1 1047.8,-527.8 45,-22.6 92.5,-41.2 134.4,-68.5 50.9,-33 66.7,-96.5 45.4,-150.6 -18.3,-46.5 -65.6,-79.5 -119.8,-75.3 -37,3 -75.2,11.1 -109.7,24.8 -140.6,55.9 -283.1,108.2 -419.2,173.8 -386.4,186.3 -769.3,380 -1155.2,567.4 -95.9,46.5 -197.2,82.5 -298,117.9 -23.7,8.4 -55.1,-4.9 -95.3,-9.7 14.3,-37.6 19.3,-62.4 32.1,-82 31.2,-47.3 62.6,-95.3 99.9,-137.5 122.3,-138.1 262.8,-255.5 423.3,-346.5 120.7,-68.4 243.4,-133.9 368.5,-193.8 427.1,-204.4 860.5,-393.8 1316.4,-526.8 47.3,-13.8 95.1,-35.2 134.9,-63.8 50.5,-36.3 61.9,-93.3 45.8,-153.2 -14.8,-55.1 -64.3,-97.2 -125.5,-97.5 -49.6,-0.2 -100.9,6.2 -148.8,19.4 -389.8,106.6 -774.5,228.1 -1141.6,400.1 -137.1,64.2 -273.9,129.6 -413.5,187.9 -126.6,53 -257.8,89.2 -406.5,60.7 11.1,-113.9 79.5,-180.8 151.8,-238.7 218,-174.7 453.2,-325.8 721.2,-407.7 393.5,-120.2 768.1,-286.4 1146.3,-444.3 34.9,-14.5 69.5,-30.7 101.6,-50.4 76.6,-47 104.9,-119.3 78.4,-192.2 -25.3,-69.5 -93.9,-101.4 -188.3,-87.1 -12.4,1.9 -24.8,4.9 -37,7.9 -553.4,134.2 -1092.7,308.7 -1600.8,569.5 -81.9,42.1 -164.1,67.2 -254.2,52 -33.6,-5.7 -64.1,-29.4 -100.4,-47 33,-148.7 135.7,-234.5 229.8,-326.4 41.6,-40.6 88.8,-62.3 148.9,-72.1 564.4,-92.3 1049.8,-348.2 1473.8,-725.7 46.1,-41 87.6,-92.5 116.1,-147 52.1,-99.6 -9.7,-215 -120.8,-224.4 -67.8,-5.8 -140,0.2 -205.6,17.9 -483.4,130.2 -955.4,287.8 -1358.4,600.9 -16.1,12.5 -37.2,39.7 -69.3,3.9 9.7,-68.2 55.5,-121.8 102.3,-169.3 75,-76.1 154.2,-149.6 239.4,-213.9 333.1,-251.3 688.5,-468.9 1047,-681.6 43.3,-25.7 88.9,-49 127.9,-80.3 72.6,-58.2 93.6,-147.2 58.5,-219.7 -36.5,-75.6 -112.5,-113.9 -206.3,-96.5 -42.6,7.9 -84.8,24.8 -123.8,44.2 -288,144 -573,293.4 -842.6,470.5 -31.7,20.8 -62.7,42.9 -96.2,60.2 -69,35.8 -140.8,51 -218.7,19.2 1.2,-21.7 -3,-42.5 4.2,-58 18.5,-39.9 38.9,-79.7 64.2,-115.5 91.4,-129.7 197.4,-246.6 322.7,-344.4 278.1,-217.3 574.5,-407 886.2,-586.5 57.5,57.8 76.5,132.6 104.5,200.4 310.7,751.7 491.4,1538.1 609.3,2339.4 66.1,449.4 108.5,902.3 163,1353.5 20.4,169.2 42.3,338.2 68.1,506.6 30.6,200 112.9,373.5 274.6,503.1 18.6,15 33.6,34.6 67.8,70.4 z m -6173.9,844.7 c -16.1,-38.4 -28.7,-60.5 -34.8,-84.4 -144,-562.8 -277.3,-1128.1 -334.2,-1707.7 -35.9,-365.6 -45.6,-731.9 29.3,-1094.4 42,-203.8 89.3,-406.9 144.1,-607.6 48.8,-178.5 3.4,-323.9 -127.4,-446.5 -55.1,-51.7 -115,-98.5 -174.4,-145.5 -128.7,-101.9 -259.1,-201.7 -387.4,-304.1 -38.7,-30.8 -72.8,-67.4 -112.9,-105 10.8,-59.7 19.5,-115.3 31,-170.3 97.9,-469.5 196.4,-938.8 294.4,-1408.3 74.7,-358.2 142,-718.2 248.8,-1069 64.6,-212 144.8,-417.2 257,-609 64.1,-109.6 136,-213.8 238.6,-291 27.4,-20.7 65.2,-27.5 95.5,-39.6 56.5,66.6 58.8,138.3 53,206.4 -13.8,163.2 -23.2,328.3 -56,488.2 -137.3,670.6 -365.6,1311.8 -646.4,1935 -72.6,161.1 -145.7,322 -217,483.6 -20.4,46.1 -38.8,93.6 -52.2,142 -18.2,66.4 5,116.6 59.3,143.5 49.3,24.3 106.8,8.2 147.1,-50 32.1,-46.4 60.1,-96.8 82.6,-148.6 115.9,-266.1 228.9,-533.5 343.9,-800 37.5,-86.8 72.1,-175.6 118.1,-257.9 187.7,-336.2 375.4,-672.4 570.5,-1004.3 163.3,-277.7 342.5,-545.6 545.1,-796.7 67.1,-83.2 142.8,-159.9 217.9,-236.3 18.9,-19.2 50.6,-25.7 90.9,-44.9 -3.3,56 -2.4,93.5 -8,129.9 -34,219.8 -109.3,427.6 -187.7,634.2 -170.5,449.2 -385.6,878 -601.8,1306.3 -164.9,326.8 -329.3,654 -491.7,982 -44.7,90.4 -87.1,182.8 -120,277.9 -17.8,51.4 -21.9,111.3 -16.8,165.9 6,64.7 92.7,103.2 146.4,66.4 40.3,-27.7 77.5,-65.1 104.5,-105.9 83.8,-126.1 163.4,-255.1 242.1,-384.6 420,-690.5 844.3,-1378.3 1313.4,-2037.1 128.1,-179.8 261.3,-356.7 403.6,-525.4 101.3,-120 219.8,-226 334.5,-334 44.5,-41.8 93.5,-84.2 164.3,-93.3 6.7,20.9 16.7,37.4 16.3,53.6 -1.3,44 -2.2,88.8 -11.7,131.5 -60.4,272.8 -163.4,530.2 -286.9,779.9 -11.1,22.4 -24.8,44.1 -40,64 -300.4,392.5 -538.7,823.7 -784.3,1250.5 -242.3,421.2 -466.4,853.2 -738.4,1257 -20.9,31.1 -42.5,65.6 -48.8,101.2 -4.6,25.8 7.7,67 27.2,81.2 19.3,14 67.4,15 84.7,0.3 47.5,-40.2 88.5,-89.3 126.7,-139.1 582.2,-758 1098.8,-1557.4 1521.6,-2415.9 25.1,-50.9 47.1,-104.4 79.6,-150.2 34.9,-49 67.7,-107.8 143.5,-110.4 20.8,74 -2.7,140.3 -18,207.4 -74.5,327.9 -195.1,639.5 -335.6,943.7 -203.9,441.6 -433,870.2 -678.1,1290.2 -111.3,190.9 -226.5,379.4 -337.8,570.3 -28.2,48.5 -54.4,100.2 -69.1,153.8 -6.3,23 11.7,65.7 32.2,79.4 20.9,14 65.7,14.8 87,1.1 41.4,-26.5 74.8,-66.3 109.6,-102.4 446.9,-463.8 891.4,-930 1340.9,-1391.3 286.8,-294.3 597.6,-562.8 919,-818.6 78.5,-62.5 166.3,-113.6 251.4,-167.5 27.5,-17.4 59.2,-20.9 90.8,12.5 -4.1,19.9 -5.1,45.3 -14.5,67.1 -99,227.9 -226.5,438.2 -414,603.6 -162.2,143.1 -310.3,296.3 -425.8,479.8 -23.4,37.2 -51.2,72.1 -79.6,105.8 -158.8,188.1 -317.3,376.6 -478.2,563 -140.3,162.5 -270.8,336.6 -429.2,479.3 -138.6,124.9 -241.2,272.8 -351.7,417.3 -20.2,26.5 -32.2,60.6 3.3,80.6 16.2,9.1 48.4,1.7 67.5,-8.8 27,-14.8 49.8,-38.4 72.5,-60.2 337.6,-323.1 674.7,-646.5 984,-997.5 27.6,-31.3 45.5,-77.6 97.6,-78.8 60.2,71 119.5,141 176.4,208.2 -69.2,110.5 -144.1,212.7 -200.8,324.2 -89.5,176.1 -114.3,360 -19.8,545.7 5.1,10.1 2,24.3 3.1,44.4 -27.6,42 -63,86.9 -88.6,136.9 -34.3,67.1 -72,135.5 -88.7,207.8 -38.3,165.8 -7.7,314 144.4,417.5 23.1,15.7 42.5,37 63.6,55.7 -42.6,55.8 -79.7,99.1 -110.6,146.5 -30.8,47.4 -60.1,96.8 -81.9,148.8 -84.3,201.5 -43.8,343.2 131.4,478.4 8.1,6.3 11.6,18.5 17.6,28.4 -78.8,90.7 -161.8,177.3 -234.4,272 -77.5,101.1 -132.1,214.5 -137.8,346.5 -5.3,123.4 34,222.5 143.2,288.6 24.2,14.7 64.6,14.1 61.9,74 -180.5,178 -347.9,382.1 -470.5,614.3 -363.3,11.4 -698.2,87.4 -1009.6,258.4 -40.7,22.4 -96.5,24.7 -145.2,24.2 -239.8,-2.4 -479.5,-10.6 -719.3,-13.3 -214.4,-2.5 -428.8,-0.5 -655.3,-0.5 z m -1436.4,19288.1 c 6.9,-2.9 13.8,-5.8 20.8,-8.8 29.9,52.1 58.3,105.2 90,156.2 123.1,198.2 237,403.2 373.4,591.9 222.2,307.2 472.8,592 739.4,862.1 491,497.5 1065.3,867 1720,1111 327.6,122.2 664.4,201.3 1016.8,193.6 273.3,-6 543.3,-39.4 791.2,-161.7 192.1,-94.8 376.5,-205.3 563.4,-310.5 120.9,-68.2 237.1,-145.5 360.7,-208 355,-179.4 729,-276.6 1130.9,-261.3 235,8.9 463.9,47.2 691.5,101.8 420,100.9 810.6,277 1201.3,455.5 258,117.9 520.5,227.6 787.1,324.1 464.8,168.1 946.6,266.5 1438.2,318.2 507.4,53.3 1009.2,28.8 1501.6,-111.2 587.9,-167.1 1129.8,-430.3 1634.4,-776.4 397,-272.3 724.6,-607.4 981.5,-1012.8 335.7,-529.8 511.2,-1108.2 526.5,-1735.8 13.5,-554.1 -80.8,-1094.2 -211.7,-1629 -103.7,-423.7 -251.3,-833.6 -404,-1241.8 -57.4,-153.5 -106.8,-310.2 -157.3,-466.2 -94.2,-291.2 -90.3,-583.6 -8.2,-877.1 77,-274.8 185.3,-537.4 322.5,-786.7 153.4,-278.7 262.1,-573.4 341.7,-879.8 35,-134.3 61.1,-270.9 95.9,-405.3 128.1,-493.3 162.1,-995.7 147.8,-1502.8 -14.8,-520.2 -119,-1027.6 -228.2,-1533.7 -109.2,-505.9 -227,-1009.8 -335.5,-1515.8 -106.7,-497.5 -139,-999.7 -73.8,-1506.3 10.4,-81.3 12.7,-163.7 15.3,-245.7 12.5,-391.3 21.1,-782.8 36.8,-1174 6,-151 20.9,-302.3 42.6,-451.9 31.6,-217.6 128.5,-405.8 270,-575.1 234,-279.8 535.9,-433.9 888.1,-500.9 130.7,-24.9 265.1,-50.7 394.9,-19.6 267.9,64.3 514.1,183.1 709.5,379.3 313.5,314.8 494.2,696.8 534.3,1142.8 33.1,368.4 13.6,467.6 -164.1,794.8 -144.2,265.6 -340.3,484.3 -587,658.7 -116.8,82.6 -242.7,130.9 -388.7,123.9 -126.1,-6 -252.5,-5.2 -378.7,-6.8 -42.3,-0.5 -94.1,-21.2 -119.4,28.7 -31.4,61.7 21.6,88.5 60.9,119.1 11.8,9.3 20.5,22.3 36.8,40.5 -69.1,40.8 -128.4,75.6 -187.6,110.6 -120,70.9 -233.9,150.4 -329.3,253 -86.7,93.2 -162.2,194 -194,320.5 -8.7,34.4 -0.6,61.9 46.2,74 34.9,-28.8 74.1,-59.5 111.5,-92.3 220.5,-193.7 467.5,-344.3 741.5,-448.4 225.1,-85.5 455.9,-147.8 700.4,-142 251.7,6 448.5,113.4 594.6,316.6 82,114 138.7,240.4 174.6,375.7 62.4,235.7 69,476.4 29.9,714.4 -54.8,334 -203.2,620.4 -468.8,841.8 -131.6,109.7 -277.4,169.8 -447.5,179.7 -151.1,8.8 -301.7,23.8 -452.7,34.4 -42.6,2.9 -79.6,20.8 -83,61 -2.8,33.6 8,84.1 31.5,101 55.1,39.6 118.7,73.8 183.8,91.9 221.8,61.6 447.8,71.6 675.6,34.7 265.6,-43.1 508.4,-147.2 738.6,-281.6 69.3,-40.4 136.1,-57.3 215.4,-48.6 89.4,9.7 172.7,33.1 252.1,74.7 306.8,160.8 513.4,403.1 604.1,739.8 54.2,201.3 95.9,405.2 116.5,613.1 2.8,28.7 14.9,56.4 22.1,82.5 75.5,3.2 104.2,-42 114,-91 13.5,-67.2 20,-137.6 16.8,-206.1 -12.2,-259.2 -54.7,-514.6 -111.1,-767.5 -27.8,-124.8 -90.2,-235.4 -169.9,-335.2 -123.9,-155.3 -273.5,-278.8 -454.1,-364 -30.6,-14.5 -57.3,-37.1 -83,-54.1 108.3,-177 259.9,-174.6 422.8,-131.8 18.2,4.8 35.4,13.2 53.4,19.1 137.4,44.6 242.2,133.8 329.8,244.7 142.4,180.2 250.9,379.5 312.6,600.9 59.3,212.6 109.1,427.9 164.4,641.6 10.9,42.3 26.4,83.6 42.6,124.2 8.4,21.1 47.4,19.8 64.9,3.9 36.4,-32.9 46,-75.8 44.3,-120.3 -3.8,-100.8 -5.4,-202.3 -18.8,-302.1 -32,-237.6 -60.9,-476.3 -108.2,-711.1 -86.4,-429 -309.3,-741.7 -765.4,-837 -12.2,-2.6 -25.7,-5.3 -35.3,-12.5 -8.3,-6.2 -11.9,-18.7 -23.3,-38.2 33.1,-38.2 68.5,-79.1 108.3,-125.1 117,35.9 236,50 330.1,105.9 179.6,106.5 336,247.7 448.6,427.3 124.5,198.3 226.5,408.2 297,632.5 20.8,66.1 44.6,131.5 71.2,195.4 8.5,20.4 30.6,35.1 60.1,67.4 19.3,-56.1 39.5,-94.2 44.8,-134.3 17.9,-134.7 -11.4,-265.3 -56.9,-390.1 -75.6,-207.3 -157.3,-412.5 -240.7,-616.8 -127.7,-313.2 -362.4,-491.1 -696.3,-540.3 -15.5,-2.3 -29.9,-12.4 -46.2,-19.5 168.8,-227 385.2,-278.3 612,-148.3 111,63.6 201.6,151.6 283.6,248.5 136.2,161 228.5,346.4 306.6,541.1 81.3,203.1 130.9,408 81.1,627.3 -6.9,30.5 -7.4,62.7 -8.6,94.2 -18.9,479.7 -190.3,910.3 -423.7,1321.2 -109,191.9 -261.5,338.7 -454,445 -245.7,135.7 -508.2,222.9 -785.6,262.1 -181.2,25.6 -363.5,43.7 -545.6,62.7 -26.8,2.8 -62.1,18.6 -86.4,-29.1 22.9,-32.2 47.3,-67.4 72.7,-101.9 94.5,-128.2 166.6,-267.6 212.1,-420.5 145.8,-489.5 -153.8,-997.6 -656.5,-1096.4 -191.5,-37.6 -387.9,-50.6 -582.6,-69.7 -41.5,-4.1 -86.9,8.7 -127.3,23 -42.8,15.1 -47.8,84.7 -8.8,109.3 31.5,19.8 66.5,36.4 102.2,46.5 97.1,27.4 195.9,48.6 292.9,76.1 115.2,32.6 233.6,58.9 342.9,106 270,116.3 397.8,370.4 329.5,649 -141.9,579.2 -639.1,810.6 -1099.5,706.7 -197.1,-44.5 -393.5,-91.1 -571.6,-192.9 -27.1,-15.5 -57.5,-25.8 -87.4,-35.5 -29.7,-9.7 -68,24 -58.7,53.5 11.2,35.1 24,72.3 46,100.9 70.9,91.9 164.1,159.3 271.3,200.1 147.1,55.9 297.6,103 447.6,150.9 59.9,19.1 122.5,30.1 183.8,45 46.9,11.5 76.9,40.5 90.4,87.2 51.2,177.3 91.4,355 35.9,539.7 -16.3,54.3 -29.2,109.9 -39.6,165.7 -6.8,36.8 -11.4,75.5 -7.9,112.5 7.6,82.1 88.9,137.7 164.9,105.2 49.6,-21.2 99.8,-58.2 131.1,-101.5 96.2,-133 136.4,-284.3 105.3,-448.1 -15.3,-80.4 -41.1,-158.8 -60.6,-238.5 -8.3,-34.2 -12.6,-69.3 -21.5,-120.1 133.7,9 252.8,14.1 371,27 26.2,2.9 60.4,27.5 72.4,51.4 116,230.2 189.4,467.6 112.7,729 -37.9,129 -94.7,247 -176.9,353.3 -30.8,39.8 -63.9,79 -87.3,123.1 -44.9,84.6 5.8,168.3 102.3,174.7 65.1,4.3 124,-14.8 179.5,-48.6 100.2,-61 174.5,-146.8 227.5,-248.7 174.1,-334.7 197.2,-673.6 18.1,-1015.7 -16.2,-30.9 -50.6,-58.6 -20.6,-115.3 58.5,-6.5 126,-15.3 193.7,-21.2 74.7,-6.5 149.6,-10.4 217.8,-14.9 111.3,109.6 171.7,234.8 201.5,371.5 36.4,166.8 47.9,336.4 31.8,508.4 -39,418.3 -174.7,786.3 -516.7,1056.7 -71.9,56.9 -50,149.9 38,174.7 40,11.3 90,13.7 127.9,-0.4 70,-26.2 139.1,-60.9 200.4,-103.6 175.5,-122.5 297.9,-290.7 382,-485.1 132.8,-307.1 186.6,-629.3 152.5,-962.3 -23.4,-228.2 -73.2,-449.7 -243.7,-622.4 -5.5,-5.6 -0.7,-21.6 -0.7,-40.9 30.6,-13.5 64.5,-29 98.7,-43.6 51.5,-21.9 103.2,-43.3 165.4,-69.2 78.2,106.4 151.8,207.6 226.7,307.8 65,86.9 113.1,182 144.2,285.8 136.3,454.3 105,899.6 -84.3,1331.5 -151.3,345.1 -408.4,593.4 -756.9,732.4 -441.8,176.2 -899,245.6 -1372.6,143.1 -433.1,-93.7 -806.3,-289.6 -1091.8,-634.7 -104.5,-126.4 -201.7,-258.8 -301.9,-388.8 -23.1,-29.9 -42.6,-63 -68.1,-90.6 -26.4,-28.6 -59.8,-46 -101.5,-31.8 -40.4,13.6 -63.5,44.8 -68,83.4 -4.3,36.4 -4.3,77.1 7.8,110.8 27.6,76.9 57.1,154.3 97.3,225 263,462.3 636.6,794.6 1146.5,964.5 76.9,25.6 152.7,54.5 235.9,84.4 21.8,141.5 43.9,278 63.8,414.9 32.1,221.5 -2.4,427.3 -144.3,608.5 -26.6,34 -48.8,74.2 -62.6,115 -22,65.2 20.4,127.9 88.3,140.9 72.2,13.8 137,-5.5 197.8,-44.3 110.3,-70.5 186.8,-169.3 236.5,-288.4 57,-136.6 78.4,-280.3 58.2,-426.7 -15.6,-112.3 -43.5,-222.7 -65,-334.2 -6.6,-34.4 -10.2,-69.4 -15.5,-106.8 30.1,-4.9 48.6,-11.1 66.7,-10.2 81.6,3.8 163.2,9.5 240,14.3 277.3,440.6 135.6,914.2 -103.1,1182.8 -137.9,155.2 -304.8,240.3 -513.6,242.6 -216.8,2.5 -428.5,-25.2 -630.7,-106.2 -134.6,-53.9 -266.6,-114.3 -400.9,-169.2 -39.9,-16.3 -83.1,-26.5 -125.7,-33.8 -28.5,-5 -61.8,35.8 -52.1,63.8 14.1,41 28.8,83.9 53.5,118.8 66.3,93.7 152.3,168.1 248.4,230.6 171.3,111.4 358.1,186.2 557,229.5 110.4,24 222.8,39.2 338.7,59.1 75.1,157.9 147.7,318.1 197,488.6 105.6,365 173.2,736.4 208.9,1114.8 37.6,398.1 34.7,794.6 -29.6,1189.5 -151.6,931.4 -501.1,1783.6 -1040,2556.5 -509.5,730.6 -1125.5,1359.3 -1828.9,1906.4 -560.9,436.2 -1181.2,748.3 -1859.5,951.4 -455,136.3 -920.4,213.9 -1391.9,267 -622.8,70.2 -1246.7,89.8 -1872.3,72.1 -568,-16.1 -1136,-32.2 -1703.9,-53.5 -454.4,-17.1 -906.5,-59.4 -1356.8,-126.4 -324.5,-48.2 -650.8,-83.1 -979.8,-93.3 -378.7,-11.7 -756.3,-46.4 -1129.5,-114.7 -348.3,-63.7 -690.7,-150 -1012.6,-302.6 -400.8,-190.1 -777.9,-418.9 -1124.9,-695.8 -1348.3,-1075.7 -2282.6,-2447.1 -2888.8,-4051.8 -60.1,-159.2 -107.4,-323.2 -159.5,-485.4 -7.2,-22.5 -7.6,-47.3 -11.1,-71 z m -29,-6216.1 c 52.6,-19.4 49.1,-68 57.2,-110 104.9,-537.7 108,-1079.4 55.5,-1621.9 -44.5,-459 -83.8,-917.7 -88,-1379.3 -5.6,-616.1 117.2,-1203.4 371.9,-1763.9 143.9,-316.7 254.7,-645 351,-979.1 122.3,-424.4 243.7,-849.4 383,-1268.3 216.7,-652 447.7,-1299.1 653.6,-1968 14,51.8 25.3,93.5 39,144.3 62.4,-65.4 81,-133.7 98.1,-199.6 52.5,-201.3 107.5,-402.5 147.1,-606.5 72.1,-371.5 138.2,-743.8 227.4,-1112.3 122.6,-505.9 393.7,-925 720.5,-1316.1 14.4,-17.1 49.9,-39.8 59.6,-33.8 53.4,32.7 73.6,-1 108.5,-33.1 64.3,-59.5 135.1,-114.2 210,-159.6 167.3,-101.4 341.6,-191.2 507.4,-294.8 120.5,-75.3 241.3,-99.2 375.9,-51.6 8.9,81.6 11.8,163.6 28.1,243 14.2,68.7 92.1,98 149.9,57.9 40.1,-27.8 77.2,-65.3 103.7,-106.3 34.1,-52.4 52.8,-114.6 84.4,-169.1 53.5,-92.3 100.7,-191.8 170.4,-270.8 230.7,-261.2 517.2,-442 851.4,-541.9 217.6,-65 436.5,-66.6 649.7,21 247.3,101.6 447.1,260 567.1,504.2 53.6,109.1 119.3,208.3 205.6,292.9 35.5,34.8 75.5,68.7 119.6,90.7 105.4,52.5 212.4,-17.8 206,-134.2 -2.4,-42.9 -14.4,-87.6 -32.1,-126.9 -30.9,-68.8 -70.2,-133.9 -104.9,-201.1 -12.7,-24.7 -22.3,-51 -41.8,-96.2 120.8,16.1 219.7,35.5 319.5,41.4 370,21.7 719.1,126.7 1063,255.8 184.3,69.2 357.6,158.6 516.7,274.4 112.3,81.7 222.2,166.7 333.9,249.1 49.8,36.8 93.1,86.9 163,88 46.3,-48.9 22.1,-96.5 -9.4,-135.1 -58.7,-72.1 -124.1,-138.8 -205.3,-228.2 100.5,17.5 162,61.6 226.1,95.9 691.1,369.1 1362.8,770.1 1996.2,1232.3 270.2,197.2 539.2,396.7 797.8,608.5 555.6,455.1 975.6,1020.1 1298.9,1657.8 309.5,610.4 498.5,1267 727.9,1908.3 82.6,230.7 74.8,455.1 59.9,688.3 -10.9,169.6 -18.3,341.3 -5.4,510.3 49.8,655.9 157.1,1303.1 313.3,1942 105,429.1 213.9,856.9 293.6,1292.1 107.2,585.8 88.2,1169 -10.1,1751.9 -64.2,381.4 -188,746.6 -328.6,1105.3 -110.4,281.9 -233.4,558.9 -351.1,838 -85.9,203.7 -169.8,407.8 -218,624.8 -51.2,230.2 -70.9,459.6 -25.5,694.7 56.5,292.3 143.2,575.2 237.4,856.7 134.2,400.9 274.4,800.3 393.6,1205.7 165,561.5 250,1133.8 171.4,1721.3 -52.7,393.9 -173.1,762.9 -396.6,1093.7 -221.1,327.4 -486.3,613.2 -814.8,836.2 -135.8,92.1 -271,185.7 -411.9,269.6 -531.6,316.8 -1094.2,538 -1719.1,596.8 -586.3,55.1 -1159,10.2 -1725.1,-146.4 -524.2,-145 -1030.4,-337.2 -1526.6,-559.6 -427.8,-191.7 -873.3,-326.5 -1340.2,-389.3 -612.2,-82.4 -1181.3,25.6 -1700.6,366.4 -121.3,79.5 -235.9,169.2 -356.3,250.2 -167.4,112.7 -334.8,225.8 -507,330.9 -156.2,95.4 -324.5,132.9 -508,80.1 -96.7,-27.9 -198,-39.2 -296.3,-61.9 -251.9,-58.4 -506.8,-109.1 -742.4,-220.1 -721.6,-339.9 -1334.6,-810.4 -1787.2,-1478 -329.9,-486.5 -557.9,-1016.9 -707,-1582.5 -189,-717.4 -305.3,-1444.5 -278.3,-2189.9 6.1,-170.3 2.1,-341 1.6,-511.5 -1.1,-411.4 -37.5,-819.6 -118.1,-1223.4 -63.2,-316.7 -149.7,-626 -299.9,-914.2 -79.2,-151.9 -168.9,-297 -294.2,-415.6 -224.3,-212.4 -484.8,-284.5 -785.1,-194.9 -34.7,10.4 -70.9,16.1 -109.9,24.7 -67.9,-91.6 -140,-172.5 -193.6,-264.3 -212.8,-363.8 -235.2,-775.6 21.2,-1120.9 157.3,-211.8 394.5,-296.3 652.2,-226.7 185.4,50.1 354.9,130.2 492,269.8 34.1,34.7 64.3,80.7 126.2,73.9 37.1,-72.5 9.3,-139.2 -34.2,-192.4 -59.3,-72.5 -125.1,-143 -199.5,-199.3 -131.7,-99.7 -282.4,-166.3 -442.8,-208 -251.7,-65.3 -483.6,-12.4 -669.2,162.4 -404.5,381 -509.8,942.4 -216.3,1471.9 55.6,100.4 136.5,181.2 231.6,246.7 34.9,24 69.8,47.9 106.2,72.8 -41,55.6 -80.2,92.5 -147.9,72 -23.9,-7.2 -50.8,-13.5 -74.6,-9.6 -119.8,19.5 -187.9,-48.5 -247.1,-137.2 -89.4,-133.8 -134,-284.1 -169.3,-438.9 -94.5,-414.9 -58.7,-815.4 130.1,-1199 150.9,-306.5 390.2,-503.2 723.3,-590.1 191.2,-49.9 374.6,-38.6 556.4,32.4 185.7,72.5 341.3,190.2 479.2,331.3 29.1,29.8 52.7,72.7 61.6,113.3 74.3,339.3 135.6,680.8 158.7,1028 11.7,176.4 20,353.1 31.7,529.5 3.3,48.8 -1.4,103.1 53.5,132.2 z M 27556.1,19647.7 c -21.9,-14.7 -43.8,-29.4 -39.9,-26.7 -1.9,-7.1 46.9,-14.8 35.5,31.1 38.2,-2.2 77.2,-5.3 72.9,61.3 -26.1,-25 -47.3,-45.4 -68.5,-65.7 z m 7609.2,5848.5 c 23.1,-311.1 -11.6,-598.3 -117,-873.1 -147.5,-384.3 -384,-709.7 -689.4,-983.3 -176.8,-158.2 -388.4,-257.1 -615.7,-322.2 -48.1,-13.7 -96.6,-25.8 -156.4,-41.7 -12.5,-86.6 -29,-172.8 -36.5,-259.7 -21.8,-252.8 -73.6,-499.2 -150.8,-740.5 -13.5,-42 -27.8,-83.9 -44.1,-124.9 -154.5,-388.9 -415.3,-675.8 -811.5,-824.8 -320.9,-120.7 -648.9,-211 -998,-165 -112.5,14.8 -224.1,36 -336.3,53.8 -23.3,3.7 -47,5.5 -78.3,9 -19.5,-173.7 -3,-321.3 100.7,-469.7 176.9,-253.1 332.8,-521.3 489.8,-787.7 286.4,-486 610,-943 1000.9,-1351.7 302.4,-316.1 629.6,-601.8 993.7,-844.8 351.8,-234.7 704.1,-468.7 1055.8,-703.5 52.4,-35 106.5,-69 152.9,-111 19,-17.2 30.7,-56.7 26,-82.4 -7.5,-40.9 -48.1,-60.4 -86.9,-57.5 -43.3,3.2 -87.8,13.8 -127.7,30.7 -92.8,39.5 -184.3,82.5 -274.2,128.2 -286.8,146 -571.6,295.8 -858.9,440.8 -881.8,445 -1562.6,1103.1 -2063.4,1949.8 -118.6,200.7 -219.4,412 -328,618.6 -28.6,54.5 -55.6,109.9 -82.4,163 -57.5,-7.1 -46.7,-47.3 -52.1,-72.7 -50,-234.4 -96.8,-469.6 -146.6,-704.1 -15.6,-73.7 -35.8,-146.6 -58.1,-218.5 -3.8,-12.2 -30.3,-26.3 -43.9,-24.2 -14.7,2.2 -38,22.3 -38.1,34.8 -1.1,94.2 -3.7,189.2 6,282.6 20.8,200.9 46.1,401.4 74.1,601.4 30.8,220 34.6,440.7 23,661.6 -9.3,176.5 -29.7,352.3 -41.7,528.6 -4.7,70 -34,115.2 -96.5,148.9 -121.9,65.8 -240.2,138.3 -371.3,214.7 -19.8,-24.3 -42.6,-50.9 -63.7,-78.8 -11.4,-15 -20.8,-31.7 -29.9,-48.3 -307.3,-561.7 -733.2,-1023.1 -1207.3,-1446.9 -877,-784 -1847.7,-1426 -2902.7,-1942.7 -272.1,-133.3 -545.7,-263.4 -817.5,-397.3 -522.8,-257.5 -1075.2,-435.8 -1628.2,-613.2 -120.1,-38.5 -240.1,-77.7 -359.3,-119.3 -71.4,-24.9 -141.4,-54 -211.3,-83.1 -113.1,-47.1 -178.2,-124 -196.1,-253.5 -68.2,-493.9 -148.5,-986.2 -218.4,-1479.8 -99.2,-700.5 -210.2,-1398.3 -418.8,-2076.5 -147.9,-480.9 -363.8,-927.2 -667.9,-1330.1 -129.9,-172.1 -271.7,-332.7 -432.7,-475.5 -61,-54.1 -128,-102.9 -197.8,-145 -41.8,-25.2 -93.6,-41.8 -141.9,-44.8 -32.1,-2 -73.3,19.7 -97.4,43.8 -30.2,30.4 -14,71.4 9.2,103.7 88.2,123.2 179.7,244.1 265.4,369 78.3,114 150.7,232 233.6,360.5 -62.9,36 -116.7,64.7 -168.3,96.9 -52.4,32.8 -102.7,69 -153.3,103.2 -32.9,-37.3 -6.7,-65 -2.1,-93.4 10,-61.8 29.8,-123.7 28.3,-185.2 -3.1,-127.7 -99.6,-208.7 -227.4,-197 -82.6,7.6 -161.6,33.9 -229.5,82.2 -97.6,69.4 -195.2,139.6 -286.7,216.7 -314.3,264.5 -612.5,546.4 -896.2,843.6 -183.1,191.8 -365.4,384.5 -548.1,576.7 -38.5,40.4 -77.5,80.3 -141.3,146.3 9.9,-86 40.8,-124.8 63.8,-164.8 201.1,-350.8 385.4,-710.2 545.6,-1081.3 150.4,-348.5 275.8,-705.4 331.5,-1083.1 8.3,-55.9 16.2,-113.2 13.2,-169.2 -4.8,-87.6 -37.8,-159.7 -136.7,-179.3 -17.3,-3.4 -33.2,-14.2 -54.6,-23.8 12.3,-44.9 24.8,-86.6 35.3,-128.9 24.3,-97.9 50.2,-195.5 70.4,-294.3 10,-49 13.2,-100.4 11.8,-150.5 -6,-207.7 -155.3,-343.8 -374.3,-213.9 -96.7,57.3 -185.4,131.5 -268.6,207.9 -177.4,162.8 -329.3,349.3 -465.9,547 -175.9,254.4 -345.6,513.1 -518,769.9 -38.5,57.3 -77.5,114.2 -140,206.3 8.5,-64.6 6.7,-91.2 15.8,-113.3 97.9,-239.4 203.2,-476 294.8,-717.8 62.4,-164.8 113.9,-334.7 155.8,-505.8 23.7,-96.5 25,-200.2 23.3,-300.4 -1,-54 -20.9,-112.4 -47.7,-160.1 -49,-87.4 -151.7,-124.4 -245.4,-87.8 -63.4,24.7 -127.4,59.2 -177.6,104.4 -84,75.7 -162.1,159.4 -234.2,246.8 -193.3,234.3 -354.6,491 -513,749.6 -27.4,44.7 -41,103.9 -113.7,129.7 6.9,-45.7 11.6,-82.1 17.9,-118.3 28.2,-161.5 61.8,-322.3 83.9,-484.7 20.6,-150.5 22.8,-302.6 -22.1,-450.8 -62.7,-206.7 -227.4,-276 -412.4,-162 -84.3,52 -158.8,124.6 -225.4,199 -118.8,132.6 -198.7,291.3 -273.3,452.1 -139.1,299.8 -219,618.2 -294.5,937.6 -143.8,608.3 -260.5,1221.9 -354.1,1839.9 -6.6,43.6 -16.9,86.7 -27.7,129.4 -2.5,10 -14.3,17.6 -28.7,34.2 -48.6,-37.4 -99.2,-73.6 -146.6,-113.4 -454.6,-381.6 -907.7,-765 -1363.4,-1145.2 -140.4,-117.2 -287.6,-226.3 -432.1,-338.6 -14.7,-11.4 -31.2,-21.4 -48.3,-28.7 -74.3,-31.6 -159.5,24.1 -162,105.8 -2,67.4 28.2,123.3 71.8,170.2 94.6,101.6 186.7,206.4 289.6,299 342.8,308.2 691.4,609.8 1034.8,917.4 253.9,227.5 504.9,458.3 753.7,691.4 170.7,160.1 343.3,317.9 538.9,446.6 92.4,60.8 125.1,132.3 99.4,238.9 -25.2,104.1 -37.6,211.4 -64.3,315.1 -115.1,446.4 -124.2,898.5 -79.7,1354.2 56.1,574.6 190.8,1131.7 370.8,1678.9 21.6,65.8 46.4,130.9 74.2,194.4 45,102.9 121.6,153.2 238.5,148.9 220.8,-8.2 441.8,-11.1 662.8,-13.3 113.5,-1.1 227.2,3.6 340.8,6.9 29.9,0.9 59.6,6.9 83.3,9.8 22.2,41.2 -4.9,56.4 -21.1,71.6 -419.3,393.7 -691.6,880.1 -895.4,1410.8 -140.9,367.2 -231,747.2 -297.2,1133.7 -28.7,168 -53.8,336.6 -83.4,504.4 -11.8,66.8 -14.2,137.6 -54.9,198.6 -457.3,-85.9 -880.8,1.1 -1281.1,220.7 -16.6,9.1 -33.1,18.6 -50.4,26.2 -582.7,256.1 -997.6,699.7 -1343.2,1215.8 -333.2,497.5 -510.7,1053.5 -582,1644.7 -27.7,229 -0.1,453.6 76.9,671.6 10.3,29 19.6,58.3 30.9,92 -30.4,30.2 -55.6,57.3 -83,82 -84.4,76 -170.1,150.7 -254.6,226.6 -297.5,267.3 -501.4,598.6 -654,963.7 -86.1,206.1 -118.8,424.6 -132.6,646.4 -21.7,348.7 -1.6,693.9 85.4,1033.6 9.4,36.6 20.2,73 31.8,108.9 110.8,343.2 214.9,495.4 512.1,743.5 -13.6,29.5 -26.6,63.2 -44.1,94.5 -58.6,104.6 -120.4,207.4 -178.3,312.5 -246,446.6 -277.1,910.2 -107.8,1389.4 113.9,322.3 328.1,532.9 668.5,604.6 36.1,7.6 71.3,19.3 116.4,31.7 -24.3,67.3 -44.6,126.2 -66.7,184.6 -112.4,296.5 -101.9,593.7 -2.7,890.5 75.1,224.8 222.1,393.8 417.6,522.6 114.5,75.4 241.1,108.3 378.3,94.8 153.4,-15.2 280.2,-69.6 342.5,-225.9 15.9,-40 51.7,-71.9 69.2,-111.5 17,-38.7 29,-82.3 31,-124.3 2,-41.3 -27.7,-69.4 -69.9,-75.6 -18.1,-2.7 -37.6,5.9 -56.1,4.5 -80.9,-6.3 -111.7,-39.4 -111,-120.2 0.2,-31.4 3.2,-63.2 9.2,-94 15.7,-80.5 66.4,-107.4 137.7,-70.4 156.9,81.5 276.1,198.9 336.2,368.7 57.3,161.9 85.1,329.4 90.8,501 8.4,253.7 -25,504.2 -58,754.6 -69.3,525.9 -136,1051.7 -130.7,1584 6.7,663.2 122.4,1304.8 361.3,1924.6 258,669.5 606.9,1290 1004.5,1884.3 390.3,583.5 814.2,1140.6 1302.2,1647.4 276.3,286.8 560,565.8 868.1,817.9 486.9,398.6 1016.9,726.1 1614.3,933.4 383.2,132.9 780.3,208.7 1183,248.6 339.1,33.7 680,48.5 1019.5,78.9 232.4,20.9 464.9,47.4 695.4,83.5 543.8,85.1 1091,124 1640.4,140 561.7,16.4 1123.3,39 1685.1,48.8 517.9,8.9 1034.6,-15.8 1550.4,-71.9 458.9,-50 913.8,-117.7 1359.2,-239.4 756.8,-206.8 1452.1,-536.6 2076,-1019.4 750.6,-580.8 1400.6,-1254.9 1939.7,-2034.6 546.9,-790.8 901.2,-1661.4 1050.1,-2612.9 58.7,-375.9 68.8,-753.5 29,-1132.8 -34.3,-326.9 -74.2,-652.9 -164.2,-969.5 -74.2,-260.7 -161,-517.7 -245.2,-785.7 17,-8.5 43.1,-26.2 72,-35.2 464.5,-144.5 709.4,-481.1 813.5,-936.6 58.6,-256.1 28.8,-502 -113.3,-729 -20,-31.9 -35.4,-66.8 -52.4,-100.5 -2.6,-5.3 -2.3,-11.9 -3.5,-18.2 10.5,-38.2 44.5,-37.6 74.3,-45.3 134.2,-34.9 271.1,-62 401.9,-107.1 772.3,-266.3 1192,-816.2 1279.5,-1621.7 35.2,-323.9 -2.8,-642.4 -116.6,-950.5 -73.5,-199 -176.9,-376.5 -340.5,-515.4 -23.5,-20 -42.4,-45.6 -62.7,-69.2 -3.4,-3.9 -2.7,-11.3 -5.5,-24.8 46.2,-36.7 94.3,-77 144.5,-114.4 180.5,-134.5 327,-299.5 422.4,-502.8 99.1,-211 192.9,-425.3 274,-643.7 41,-110.5 53.1,-232.7 70.7,-350.7 15.7,-106 22.5,-213.4 30.9,-320.3 22.2,-285 14.2,-572.9 -45,-848.9 -76.5,-357.3 -195.3,-706.5 -427.1,-1001.7 -155.6,-197.9 -348.5,-346.2 -590.3,-425.9 -23.2,-7.6 -46.3,-15.9 -81.1,-27.9"
         style="fill:#231f20;fill-opacity:1;fill-rule:nonzero;stroke:none"
         id="path102" />
      <path
         d="m 29851,18950.6 c 70.1,28.5 127.6,52.9 185.8,75.5 461.7,179.4 822.5,-53.5 1011.7,-299.6 202.3,-263.3 194.6,-641.5 -13.7,-898.2 -44.1,-54.4 -93.7,-102.7 -167.3,-116 -71.4,-12.8 -127.2,36.4 -116.7,108.1 11.7,81 33.4,160.8 42,242.1 29.3,276.4 -133.9,518.1 -397.5,591.2 -81.4,22.6 -163.7,14.6 -242,-15.2 -93.9,-35.9 -186.1,-76.4 -286.5,-118.1 -95.2,-393.3 -327.8,-686.6 -688.1,-894.5 22.6,-57.7 45.8,-114.4 67.2,-171.8 93.3,-250.4 59.1,-485.2 -95.8,-700.1 -35.7,-49.4 -88,-89.9 -139.7,-123.6 -44.2,-28.7 -96.8,-24.2 -140.7,13.2 -37.7,32.1 -43.1,76.1 -14.9,137.7 13.1,28.6 30.5,55.2 43.2,84 100.8,229.4 50,486.6 -129.6,659.8 -172.4,166.2 -454.4,214.4 -669,109.1 -49.8,-24.4 -96.1,-60.9 -135.7,-100.2 -76.1,-75.5 -144.7,-158.5 -219.3,-235.5 -39,-40.2 -41.1,-88.3 -48.4,-138.7 -17,-118.3 -31.8,-237.9 -62.4,-353.1 -36.1,-135.3 -106.6,-255.9 -202,-360.2 -127.3,-139 -276.9,-237.9 -468.2,-264.1 -61.8,-8.4 -123,-21.9 -194.4,-35 21.2,-45.4 38.1,-85.1 57.9,-123.3 62,-119.2 96.7,-246.7 113.6,-379 41.8,-328.9 -145.2,-703.7 -431.1,-869.6 -84.2,-48.8 -172.7,-77.8 -270.9,-63.3 -91.9,13.5 -168,52.9 -212.4,139.4 -28.6,55.7 13.7,120.6 76.3,116.9 12.4,-0.7 24.9,-4.1 36.7,-8.1 121.6,-41.5 205.5,15.8 280.3,103.4 265.8,311.3 211.3,747.9 -129.6,973.7 -345.3,228.6 -702.8,198 -1006.3,-78 -143.2,-130.2 -242.2,-290.6 -294.3,-477.6 -22,-78.8 -33.1,-160.7 -54.7,-239.7 -38.3,-139.9 -95.8,-276.4 -117.6,-418.5 -21.8,-142 -1.1,-290.1 -14.2,-434.1 -41.5,-457.5 -182.1,-888.7 -365.5,-1306.8 -50.7,-115.4 -111.9,-226.4 -171.6,-337.5 -371,-690.1 -948.2,-1134.8 -1672.9,-1403.5 -90,-33.4 -181,-55.2 -277.6,-40.8 -40.5,6.1 -72,26.9 -84.9,65.6 -13.2,40 4.2,76.3 33.9,101.8 33.2,28.5 70.7,52.6 108.2,75.6 123.8,75.8 247.9,151.2 372.9,225 497.1,293 876.9,695.3 1141.4,1209.1 239.3,464.8 395.9,955.3 473.8,1471 31.3,207.2 28.2,415.4 -17.8,621.6 -22.1,99.4 -56.4,193.5 -110.8,280.1 -54.8,87.3 -128.9,153.1 -214.8,209.6 -137.1,90.3 -337.1,52.3 -363,-141.2 37.6,-33.6 69.4,2.7 103.9,8.6 107.9,18.5 194.8,-16.9 244.3,-100.8 54.7,-92.7 40.8,-182.9 -18.8,-266.3 -95,-132.9 -357.3,-252.1 -578.1,-108.1 -208,135.6 -266.4,376 -212.3,543 90.6,279.5 259.7,473 558.7,530.3 155.7,29.8 301.7,-5.7 438.5,-79.2 141.1,-75.6 258.9,-179.5 354.1,-308.7 28.8,-39.1 58.6,-77.4 95.5,-126.2 54,58.9 52.9,125.8 70.7,182.2 84.9,268.8 242.2,486.5 467.8,649.9 385.9,279.7 796.7,329.1 1228.4,105.8 16.8,-8.7 32.8,-19 49.7,-27.5 11.2,-5.7 23.3,-9.6 39.9,-16.3 55.5,16.7 114.1,39.3 174.7,51 55.4,10.8 112.9,10.7 169.6,13.8 135.3,7.6 247,67 320.2,176.8 158.1,237.1 218,495.9 128.2,774.6 -42.4,131.3 -121.2,241.3 -259.2,281.9 -157.7,46.3 -312.8,27.2 -455.4,-61 -61.2,-37.9 -97.5,-94.6 -128,-159.5 -35.9,-76 8.8,-133.2 33.6,-189 -16.8,-58.7 -56.8,-71.7 -102.8,-76.2 -52.8,-5.2 -100.5,7.5 -141.2,41.9 -90.3,76.2 -118.7,176.8 -104.8,289.4 15.2,122.9 69.7,228.1 158.1,315.7 256,253.5 865.9,381.4 1226.3,-86.7 34.3,-44.6 63.5,-93.2 102.1,-150.3 386.3,454.7 833.9,546 1341.6,239.7 288.6,91 456.2,290.2 550.1,562.3 44.6,129.4 49.1,260.3 19.8,391.9 -10.7,48.3 -31.3,96.7 -57.3,138.8 -59.2,95.7 -153.8,126.9 -262.4,94.8 -113.8,-33.7 -199.7,-105.5 -269.8,-198.4 -37.5,-49.7 -73.4,-100.5 -108.7,-148.9 -86,8.8 -124.3,54 -128.1,124.5 -2.4,43 3.9,88.7 17,129.8 88.8,280.1 395.5,465.5 685.9,414.9 152.2,-26.6 264.9,-114 346,-242.4 33.4,-52.8 59.5,-110.2 99.2,-184.7"
         style="fill:#231f20;fill-opacity:1;fill-rule:nonzero;stroke:none"
         id="path104" />
      <path
         d="m 20494,24841.5 c -65.8,78.1 -135,119.7 -198.7,167 -76,56.4 -155.5,108.2 -230.1,166.3 -147.1,114.6 -156.2,246.4 -114.9,349.6 49.7,124.2 185.2,186.2 349.2,159.8 157.7,-25.3 304.3,-83.7 441.6,-163.2 147.4,-85.3 291.5,-176.4 436,-266.6 150.9,-94.2 309.2,-170.4 483.1,-211.9 272,-64.9 378.4,-11.6 490.4,245.4 93.7,214.9 121.7,435 65,665.5 -60,243.7 -249,397.6 -486.4,450.2 -86.4,19.1 -225.9,-72.2 -267.4,-173.7 -28.4,-69.7 -45.3,-144.1 -69.6,-215.6 -20.3,-59.4 -40.9,-119.1 -67.6,-175.8 -12.7,-27.1 -36.8,-51.3 -60.8,-70.5 -46.6,-37.3 -122.2,-16.9 -140.9,40.8 -17.3,53.5 -31.7,110.3 -33.4,166.1 -6.8,226.8 -12,453.9 -10.3,680.9 1,127.6 14.9,137.7 129.1,176.2 53.7,18.2 107.3,36.5 161.4,53.3 80.7,25.1 158.5,26 239.7,-8.6 68.9,-29.4 143.9,-44.6 216.8,-64 517.5,-138 843.1,-461 845.4,-1121.6 0.8,-235.2 -52.4,-463.9 -148.1,-679.9 -33.1,-74.4 -73.2,-147.8 -121.9,-212.8 -153.7,-205 -359.8,-315.3 -618.6,-305 -112.7,4.5 -228.6,17.1 -335.9,49.6 -131.4,39.7 -247.8,6.7 -335.5,-72.2 -184.3,-165.8 -397.1,-203.2 -631.5,-199.3 -471.1,7.9 -930,82.7 -1373.2,242.1 -135.9,48.8 -269,110.1 -394.9,180.9 -203.7,114.4 -354.8,281.2 -443.4,500.7 -11.6,28.9 -26.3,56.6 -38.7,83 -11.8,-1 -19.4,0.7 -23.5,-2.4 -242.5,-177.7 -448.3,-388.3 -568.3,-668.6 -137.3,-320.9 -222.5,-656.7 -270,-1002.3 -12.8,-93.8 -28.2,-187.2 -45.1,-280.3 -4.2,-23.1 -18.8,-44.3 -27.5,-63.8 -50.9,-3.1 -60.3,33 -64.4,58.7 -16.1,99.2 -40.6,200.1 -36,299.1 22,471.3 140.1,922.2 318.2,1357.1 37.5,91.6 99.6,175.3 160.4,255 130.7,171.8 290.7,315.5 459.1,449.3 95.2,75.7 178.2,157.9 226,273.8 26.2,63.5 67,121.6 105,179.6 202.1,308.6 353.6,641.6 461.9,992.6 264.1,856.2 523,1714.2 733.6,2585.5 84.5,349.6 155.9,702.5 187.5,1061.8 4.4,50.3 7.9,100.7 9.6,151.2 6.7,208.3 -48.8,397.1 -165.3,571.8 -80.2,120.2 -153.1,246.6 -215.8,376.7 -69.2,143.5 -95.6,299 -93.7,459.9 1.1,83.8 35.8,143.7 96.2,195.7 64.7,55.8 125.2,48.6 171.4,-26.2 19.7,-32 36.2,-66.7 49.4,-102 99.6,-264.9 273.8,-481.1 450.6,-695.9 33.9,-41.2 67.6,-63.2 129,-53.4 69.8,11.3 108.4,-22.9 112.7,-92.1 6.2,-100.1 16.8,-204.4 -3.7,-300.8 -54,-253.9 -71.3,-511.6 -105.7,-767.5 -51.9,-387.4 -117.3,-774.2 -202.1,-1155.6 -145.3,-652.8 -310.7,-1301 -466.3,-1951.5 -93.1,-388.9 -237.2,-759.2 -421.6,-1112.5 -69.3,-132.9 -170.5,-249 -253.6,-375.1 -51.8,-78.8 -101.9,-159.5 -144,-243.8 -64,-128.3 -34.5,-244 61.6,-347.2 84,-90.3 189.5,-147.2 300.7,-192.4 269.5,-109.5 546.5,-196.2 834.8,-240.1 137,-20.9 275.8,-30.5 414,-43.4 21.9,-2 44.8,5.9 89,12.4"
         style="fill:#231f20;fill-opacity:1;fill-rule:nonzero;stroke:none"
         id="path106" />
      <path
         d="m 25946.9,31217.9 c -318.3,27.6 -635.1,35.1 -958.1,-33 20.6,-8.5 31.8,-17.4 42.6,-16.9 287.8,11.7 575.6,24.2 863.3,37.4 17.6,0.8 34.8,8.2 52.2,12.5 z M 27298,30571 c -8,35.4 -7.4,42.9 -10.9,46.9 -165.1,188.4 -382.5,304.6 -596.1,424.5 -52.9,29.7 -117.3,33.5 -176.2,-10.7 17.7,-54.3 35.6,-101.5 48.4,-149.9 103.8,-390.4 -1,-730.6 -299.2,-961.8 19.2,-6.4 35.1,-16.6 50.7,-16 71.3,2.7 131.6,35.6 192.6,70.4 199.4,113.7 364.2,268.9 522.2,431.9 74.7,77.1 146.4,155.4 268.5,164.7 z m -2003.2,432.8 c -50.5,-72.5 -95,-133.1 -135.9,-196 -63,-97 -96.8,-204.6 -98.6,-320.1 -2.7,-166.2 76.3,-292.6 215.4,-372.6 102.9,-59.2 216.8,-96.6 341,-95.7 152.1,1 298.1,22 444.5,67.8 136.2,42.7 208,128.8 247.7,257.7 75.7,246 -14.5,465.9 -87.5,683.4 -315.2,-8.4 -616.1,-16.3 -926.6,-24.5 z m -355.7,-5.9 c -88.6,50.7 -208.1,-0.6 -250.7,117.7 -2.3,6.4 -35.6,5.5 -53.2,1.9 -30.7,-6.3 -59.8,-20.4 -90.5,-26 -150.8,-27.5 -263.6,-107.2 -349.1,-234.5 -63,-93.8 -136.3,-180.8 -205.8,-270.2 -87,-112.1 -192.9,-196.6 -333.7,-233.4 -39.6,-10.4 -75.8,-34.1 -117.3,-53.4 7.5,-34.6 10,-59.5 18.6,-82.1 13,-34.4 30.3,-67.2 42.3,-92.9 75.1,-30.1 134.8,-3.2 196,6.5 169.4,26.8 330.4,26.7 495.7,-51.3 204.7,-96.7 428.6,-143.6 656.2,-160.4 26.7,-2 61.8,-18 80.6,19.9 -329.2,408.9 -345.9,602.5 -89.1,1058.2 z m 2902.7,-623.3 c 197.2,-28.1 376.8,-6.1 552.1,51.2 300,98.1 596,206 868.9,368.1 9.9,5.9 22.9,6.4 34.7,9.5 27.3,-25.9 7.3,-49.3 -10.3,-63.4 -48.9,-39.2 -98.9,-78.4 -153.1,-109.5 -268.9,-154.6 -555.5,-270.9 -848.3,-369.8 -176.5,-59.7 -354.5,-71.1 -531.2,24.9 -69.7,37.8 -158.2,31.3 -232.3,-21.7 -112.9,-80.7 -227.3,-159.4 -341.1,-238.8 -51.7,-36.1 -102.8,-73.2 -155.5,-107.8 -324.4,-213.1 -405.7,-249.1 -792.4,-261.9 -434.9,-14.5 -869.8,-44.7 -1305.6,-11.2 -171.5,13.1 -335.6,46.2 -496.9,106.4 -99.6,37.2 -205.2,60.3 -309.7,81.7 -80.7,16.5 -161.7,5.1 -243.6,-11.8 -91.8,-19 -187.1,-27 -280.9,-27.8 -131.3,-1.1 -233,61.2 -285.4,182.4 -42.3,97.8 -79.6,199.7 -102.1,303.5 -26.8,123.7 11.8,187.7 125.7,243.9 56.4,27.8 115.1,52.2 175.1,71 95.3,29.9 162.4,89.2 218.1,170.9 95.9,140.7 197.4,277.6 297.9,415.1 140.5,192.2 332.3,311.5 562.8,353.3 229.1,41.6 461.8,66 693.8,88.6 207.1,20.2 415.2,33 623.2,39.4 277.9,8.7 555.1,-0.3 825.3,-79.8 48.1,-14.1 99.1,-19.8 149.2,-25.2 117.6,-12.9 218.1,-63.6 304.3,-140.9 222.1,-199.2 416.8,-421.8 563.2,-683.5 76.9,-137.6 86.1,-174.4 94.1,-356.8"
         style="fill:#231f20;fill-opacity:1;fill-rule:nonzero;stroke:none"
         id="path108" />
      <path
         d="m 16580.8,31027.1 c 900,-4 1715.7,36 1928.5,96.2 -32,15.8 -51.6,32.4 -72.8,34.7 -56.2,6 -112.9,7.4 -169.5,8.1 -485.1,5.8 -967.1,-42.6 -1449.6,-83.3 -66.3,-5.6 -131,-30.2 -236.6,-55.7 z m 1910.4,-251.4 c 28.5,-94.3 60.2,-168.9 71.9,-246.6 13.1,-85.9 16.1,-175.4 8.1,-261.9 -7.3,-77.9 -35.4,-153.9 -54.7,-232.5 73.1,-6 95.6,45.7 128.2,81.2 148.3,161.6 182.2,166.6 365.4,57.7 57.7,-34.3 112.5,-80.9 191.6,-69.5 45.4,92.7 45.9,175.7 -10.8,265.4 -127.9,202.3 -316.1,315.4 -538.3,381.2 -45.6,13.5 -94.9,15.1 -161.4,25 z M 16806.7,30610 c -322.9,12.1 -595.6,-39.4 -789.5,-299.1 107.5,-102 212.2,-200.8 316.1,-300.3 51.7,-49.5 114.4,-77.1 182.6,-92.1 67.4,-14.9 135.3,-29.4 203.7,-37.1 97.1,-10.8 195,-19.4 308,-0.9 -46.3,85.2 -92,152.5 -120.6,226.4 -31.4,81.2 -51.1,167.6 -68.1,253.3 -15.8,79.4 -21.2,160.8 -32.2,249.8 z m 349.8,50.5 c -44.5,-194.5 -39.2,-375.6 -13.7,-556.7 5.1,-36.5 22.1,-72.2 38.3,-106 45.1,-94 119.6,-149.7 225.6,-139.4 225.5,21.9 452.3,9.3 678.3,46.4 154.4,25.4 238.6,110.1 291.4,235.3 61.8,146.7 52.3,299.5 -30.7,436.7 -72.1,119.1 -172.5,194.3 -327.6,175.3 -281.3,-34.5 -563.6,-60.4 -861.6,-91.6 z m -1337.3,-471 c -107,-49.1 -202.7,-75.1 -305.5,-40.9 -70.4,23.5 -102,77.3 -69.7,146.4 26.4,56.6 60.1,111.3 99,160.1 125.7,157.8 251,316.2 385,466.8 66.1,74.2 150.6,132.2 227.7,196.4 24,20 55.1,32.5 76.5,54.6 110.7,114.6 251.7,157.3 402.7,190.4 290.6,63.8 582.5,102.9 880.6,101.2 283.6,-1.5 567.4,3.4 851,9.4 146,3.1 264.1,-44.8 378.9,-138.3 221.6,-180.2 416.6,-384.2 598.3,-602.8 24.1,-29 47,-59.2 68.8,-90.1 111.5,-157.8 138.5,-319.6 29.9,-492.7 -39.8,-63.7 -65.6,-136 -100.1,-203.1 -53.3,-103.5 -119,-120.2 -205.1,-39.9 -66.1,61.9 -146.5,64 -229.2,89.7 -248.2,-263.7 -579.6,-318 -914,-343.8 -383.4,-29.4 -768.2,-32.3 -1150.8,25.6 -99.5,15.1 -200.4,21.1 -300.4,33.1 -168.6,20.3 -311.4,90.5 -431.7,212.7 -88,89.4 -185.6,169.4 -291.9,265.2"
         style="fill:#231f20;fill-opacity:1;fill-rule:nonzero;stroke:none"
         id="path110" />
      <path
         d="m 23695.1,34023.8 c 15.7,13.3 24,25 34.9,28.7 257.2,88.3 519.2,156 791.6,174.5 514.2,34.9 1003.9,-57 1469.6,-281 443.2,-213.1 893.8,-411 1313.4,-670.6 210.2,-130 405.3,-279.4 589.6,-442.7 60.6,-53.8 112.9,-118.7 160.9,-184.4 24.8,-33.9 37.8,-79.6 45.7,-121.9 12,-64.3 -49.2,-111.7 -107.7,-84.2 -39.3,18.5 -75.2,45.2 -110.4,71.1 -198.5,146 -404.2,280.8 -625.6,389.7 -489.2,240.6 -1003.6,318.8 -1545.1,253.8 -570.2,-68.5 -1135.7,-164.1 -1700.6,-264.8 -18.7,-3.4 -37,-8.8 -55.8,-10.7 -291,-30.1 -259.8,-2.4 -262.7,222.4 -3.3,265 -5,530 -6.3,795.1 -0.2,43.5 5.8,87.1 8.5,125"
         style="fill:#231f20;fill-opacity:1;fill-rule:nonzero;stroke:none"
         id="path112" />
      <path
         d="m 23283.6,22830.9 c -238.9,-81.2 -469.3,-166 -703.7,-237.6 -284.5,-86.9 -576.5,-135.9 -874.7,-148.3 -182.8,-7.6 -365,-26.4 -547.7,-35.4 -61.4,-3.1 -109.2,-23.6 -149.9,-67.4 -189.7,-203.7 -411.3,-199.3 -639.9,-85.3 -146.3,73 -285.9,160.6 -424.1,248.7 -92.7,59.2 -188.1,90.9 -298.2,105.4 -243.6,32 -486.2,74.7 -726.8,124.8 -122.5,25.5 -240,75.3 -359.2,116 -52.8,17.9 -104.1,40.3 -157.9,61.4 -68.1,-54.7 -80.7,-133.9 -119.2,-196.7 -29.6,-48.5 -53.2,-105.5 -124.1,-96.1 -53.7,7.1 -70.5,64.9 -48.3,158.3 11.6,49.1 26.6,97.3 39.4,146.2 33.5,128.5 61.9,254.8 23.3,390.8 -28.1,98.9 10.5,164.5 80.5,186.8 76.6,24.5 148.8,-20.9 183.3,-120.8 18.3,-53.1 28.7,-109.1 42.1,-161.8 102.9,-94.6 223.9,-142.2 357.5,-164.9 243,-41.4 486.5,-74.3 733.6,-74.4 50.5,0 101,-0.7 151.4,-3.8 124.3,-7.7 232.6,-50.7 320.2,-143 69.4,-73.3 142,-143.7 213.8,-214.7 59.2,-58.6 126.7,-104.6 208.1,-126.1 64.6,-17 124.5,-13.6 172.7,42.5 24.6,28.6 54,53.1 81.7,78.9 91.5,85.6 198.7,126.6 325.3,130.4 270.9,8 536.6,61.2 805.5,112.4 -32.4,3.9 -64.7,11.1 -97.1,11.3 -253.4,0.9 -504.8,19.8 -750.3,85.8 -72.7,19.5 -136.8,13.7 -198.6,-26.3 -244.5,-158.7 -469.4,-79.5 -689.6,56.2 -16,9.9 -33.1,21 -43.9,35.7 -88,120.5 -209.5,121.7 -339.7,100.2 -238.3,-39.2 -478.5,-29.2 -718.1,-18.4 -80.9,3.6 -161.3,24.7 -241.1,42.2 -13.3,2.9 -32.7,30.7 -30.1,42.7 4.6,20.6 20.5,46 38.6,54.6 27.5,13 60.8,15.4 92,18.5 56.5,5.7 113.3,8.8 170,12.6 264.3,18.2 529.3,29.7 792.6,57 136.4,14.1 248.5,-9.3 344.5,-109.2 66.8,-69.6 152.5,-109.8 242.6,-142.6 75.8,-27.7 147.1,-29.9 217.2,14.6 26.6,16.8 55.2,30.5 82.9,45.5 98.6,53.7 201,71 310.2,36 212.2,-67.9 432.5,-82.7 652.6,-102.1 191,-16.9 377.3,-1.6 563.2,43.4 159.3,38.6 320.1,70.9 480.9,102.9 28.9,5.8 61.3,-1.3 91.2,-6.8 9.3,-1.6 20.4,-16.9 22.4,-27.6 1.9,-10.1 -3.7,-27.7 -11.7,-32.5 -32,-19.4 -65.1,-38.2 -100,-51.5 -206.4,-78.5 -415,-150.1 -632.1,-194 -17.4,-3.5 -34.1,-10.8 -70.5,-22.7 75.6,-31.1 135.3,-16.9 192.3,-11.4 253.2,24.6 492.1,108.1 732.4,184.4 29.2,9.3 55.7,29.2 81.1,47.4 32.5,23.3 51.7,55.2 43.6,97.4 -10.9,56.7 -15.2,112.3 13.3,166.2 39.3,74.4 137.5,87.1 188.4,20.3 22.1,-29.1 37.3,-65.5 48.5,-100.8 52.4,-164.3 124.3,-316.9 247.5,-441.6 27,-27.2 50.4,-59.1 28,-100.4 -18.5,-34.3 -72.6,-54.2 -117.2,-32.3 -67.1,32.9 -129.3,76 -200.7,119"
         style="fill:#231f20;fill-opacity:1;fill-rule:nonzero;stroke:none"
         id="path114" />
      <path
         d="m 15137.9,32211.6 c 7.6,27.4 10.8,52.4 21.2,74 95.6,198.8 192.2,397.2 289.2,595.4 36.6,74.6 89.5,136 152.2,190.9 247.4,216.2 506.4,416.8 783.9,593.3 290.6,184.8 609.6,300.5 938.9,391.8 255.5,70.8 513,130.4 777.4,158.9 247.3,26.7 491.4,2.7 734.5,-38.2 93.6,-15.7 183.8,-45.9 256.5,-112.8 34.1,-31.5 58.3,-65.9 45.1,-115.9 -77.2,-292.3 -154.2,-584.8 -231.8,-877 -1.1,-4.1 -9.7,-6.1 -28.2,-16.9 -23.4,16.4 -57.3,32 -80,57.6 -100.4,112.9 -229.7,174.3 -370.6,216.6 -391.6,117.3 -786.3,118.2 -1175.6,3.1 -611.8,-180.9 -1168.3,-470.3 -1653.1,-890 -76.4,-66 -151.5,-133.6 -229.8,-197.2 -66.2,-53.8 -139.2,-82 -229.8,-33.6"
         style="fill:#231f20;fill-opacity:1;fill-rule:nonzero;stroke:none"
         id="path116" />
      <path
         d="m 24899.8,19354.1 c -27.5,33.1 -5.9,54.5 4.7,75 381.7,732.4 634.9,1509.9 805.4,2315.2 87.5,413.2 163.9,828.8 239.4,1244.4 109.5,602 248.8,1197.5 380.3,1794.8 58.2,264.3 97.7,533.3 135.3,801.6 31.7,225.9 70.1,447.1 170.1,655.8 31.4,65.5 64.8,120.8 123.1,161.4 67.3,46.9 134.3,94.2 202.6,139.5 342,226.9 670,472.4 989.5,730.1 244.2,196.9 446.6,429.1 592.7,705.2 111.8,211.4 205.8,432.4 304.4,650.6 46.8,103.3 83.5,211.1 129.6,314.7 20.2,45.4 47.5,90.2 81.5,125.8 17,17.9 57.9,22.8 85,17.8 18.2,-3.5 43.4,-34 44.4,-53.6 3.7,-68.7 6.8,-139.5 -5.2,-206.8 -78.7,-445.6 -232,-864.7 -471.2,-1249.2 -214.4,-344.5 -509.6,-608.2 -859.5,-809.6 -267.8,-154.1 -537.5,-305.3 -811.8,-447.3 -93,-48.2 -148.9,-110.9 -175.7,-206.8 -50.9,-182.1 -102.6,-364 -152.3,-546.5 -122.5,-450.3 -243.2,-901.2 -318.4,-1362.4 -87.2,-535.5 -186.6,-1068.5 -308.9,-1597 -197.7,-854.6 -422.7,-1701.3 -759,-2513.9 -74.6,-180.3 -161.6,-355.8 -249.6,-530.1 -41.2,-81.6 -91.4,-161.5 -176.4,-208.7"
         style="fill:#231f20;fill-opacity:1;fill-rule:nonzero;stroke:none"
         id="path118" />
      <path
         d="m 26306.9,20791.1 c -5.6,24.9 -16.9,44.6 -12.3,59.5 16.7,54 35.3,107.9 59.3,159.1 235.3,502.9 433.5,1020.9 631,1539.2 132.8,348.4 214.8,711.9 309.3,1071.2 170.1,646.1 328.1,1295.4 495.1,1942.2 55.1,213.5 120,424.6 185.5,635.2 31.8,102 74.1,200.9 114.2,300.2 18.8,46.6 41.5,92 66.3,135.8 69.8,123.6 130.5,167.7 197.2,136 95.1,-45.1 75.7,-133.7 69.1,-214.7 -2,-25.1 -8.3,-49.8 -11.8,-74.8 -61.7,-437.6 -158.4,-867.9 -272.9,-1294.4 -138.9,-517.3 -274.2,-1035.6 -419.3,-1551.2 -80.3,-285.7 -204,-555.4 -330.7,-823.8 -137.2,-290.6 -260,-587.9 -392.2,-880.9 -114.1,-252.7 -230.6,-504.4 -350.3,-754.5 -40.7,-84.9 -91.2,-165.8 -143.4,-244.4 -45.1,-68 -102.3,-125.1 -194.1,-139.7"
         style="fill:#231f20;fill-opacity:1;fill-rule:nonzero;stroke:none"
         id="path120" />
      <path
         d="m 20757.4,21656.5 c -283.5,12.7 -567.2,21.2 -850.2,39.9 -137.9,9.1 -274.6,36.5 -411.6,57.2 -161.6,24.3 -295.1,104.2 -414.5,212.1 -132.8,120.1 -237.2,261.2 -311.9,423.4 -18.1,39.4 -31.6,82.6 -37.4,125.3 -6.5,47.3 18,85.8 60.5,108.8 42.5,22.9 85.4,18.1 125,-8 15.6,-10.3 30.2,-23.3 41.8,-37.9 19.6,-24.5 38.5,-50.1 54.2,-77.4 245.3,-426.2 639.1,-614.6 1105.3,-664.3 464.9,-49.6 931.5,-47.4 1393.7,41.6 61.5,11.8 123.1,28.5 181.4,51.2 174.2,67.8 325.6,165.6 420,334.8 37.6,67.4 87.7,122.5 162.4,151.8 103.7,40.7 193.3,-15.4 197.7,-127.1 3.4,-86.3 -31.4,-159.1 -84.7,-224.7 -201.7,-248.3 -463.8,-383 -780.6,-410.2 -94,-8.1 -189,-5.6 -283.6,-6 -189.1,-0.7 -378.3,-0.2 -567.4,-0.2 -0.1,3.3 -0.1,6.5 -0.1,9.7"
         style="fill:#231f20;fill-opacity:1;fill-rule:nonzero;stroke:none"
         id="path122" />
      <path
         d="m 25474,28840.8 c -369.6,7.7 -630.1,50.8 -884.8,127.6 -171.1,51.7 -326.8,133.4 -459.7,254 -36.8,33.5 -72.3,71.3 -98.2,113.3 -56,90.8 -0.7,182.7 107,177.8 49.5,-2.2 99.2,-16.8 147.1,-31.3 35.9,-10.8 69.8,-29 103.4,-46.3 321.5,-165.3 669.8,-219.5 1024.2,-232.2 142.9,-5.2 289.1,20.9 430.7,48.7 203.7,40 404.5,95.4 607,142.1 42.2,9.7 87.6,17.7 129.7,12.3 83.6,-10.9 121.6,-109.9 67,-172.7 -28.2,-32.5 -64.4,-61 -102.4,-81.3 -366.5,-196.5 -752,-323.6 -1071,-312"
         style="fill:#231f20;fill-opacity:1;fill-rule:nonzero;stroke:none"
         id="path124" />
      <path
         d="m 18789.4,31624.1 c -3.4,-52.7 -51.1,-90.6 -85.9,-78.4 -82.6,28.9 -166.5,57.7 -242.9,99.4 -161.9,88.4 -330.3,160 -510.8,193.2 -306.4,56.3 -614.5,62.5 -921.2,-3.6 -86.1,-18.6 -172.1,-38.9 -257.1,-62.1 -297.1,-81.2 -563.7,-218.4 -783.6,-437.4 -111.7,-111.2 -219.3,-226.5 -329.2,-339.4 -39.5,-40.5 -79.2,-81.1 -122,-117.9 -9.3,-8 -33.5,-3 -48.6,2.5 -6.1,2.3 -11.7,24.1 -7.9,32.7 15.3,34.4 30.9,69.4 52.7,99.7 62.5,87 122.9,176.4 193.4,256.7 268.6,306 569.6,576.4 948.7,735.3 344.7,144.5 702.4,244.8 1085.5,185.3 119.3,-18.5 235.9,-44.2 343.1,-99.5 162.4,-83.7 323.3,-170.6 482.8,-259.9 54.7,-30.6 108.3,-66.9 152.7,-110.6 28.7,-28.4 39.7,-74.7 50.3,-96"
         style="fill:#231f20;fill-opacity:1;fill-rule:nonzero;stroke:none"
         id="path126" />
      <path
         d="m 27341.1,31801.3 c -76.2,-12.9 -125.7,15.8 -175.3,38.9 -300,139.2 -619.7,209.6 -942.9,263.1 -193.3,32.1 -389.9,23.6 -584.5,1.3 -531.2,-61 -1033.7,-215.1 -1504.4,-470.9 -49.4,-26.9 -101.5,-51.7 -155.4,-66.1 -25,-6.7 -63,6.7 -85,23.9 -32.6,25.5 -34.4,68 -14.6,103.3 21.2,37.8 44.8,77.7 77.2,105 57.4,48.5 119.5,92.9 184.4,130.9 426.1,250 886.7,376.7 1379.9,411.8 524.1,37.3 1010.7,-95.7 1489.3,-281.4 105.4,-40.9 208.1,-92.3 287.1,-177.5 18.2,-19.6 26.5,-48.4 44.2,-82.3"
         style="fill:#231f20;fill-opacity:1;fill-rule:nonzero;stroke:none"
         id="path128" />
      <path
         d="m 17250,28938.3 c -194,21.9 -388.4,40.8 -581.9,66.8 -119.2,15.9 -234.3,52.5 -337.6,115.4 -41.6,25.4 -79.7,61.4 -109.4,100.2 -36.4,47.4 -2,122.5 61.1,127.9 61.3,5.2 126.4,1.8 185.8,-13.4 159.6,-40.9 321.1,-61 484.8,-74.8 208.2,-17.6 414.8,-16 623,0.6 185.1,14.7 359.1,61.3 527.7,135.6 132.6,58.4 266.1,114.7 399.7,170.6 34.7,14.5 70.6,27.6 107.3,35.3 57.4,12.2 111.6,-45.9 101.9,-104.4 -8.9,-53.3 -38.9,-93.9 -81.5,-122.7 -83.5,-56.2 -167.6,-112.2 -255.1,-161.8 -348.7,-197.9 -724.9,-284.4 -1125.8,-275.3"
         style="fill:#231f20;fill-opacity:1;fill-rule:nonzero;stroke:none"
         id="path130" />
      <path
         d="m 21643.5,20246.6 c -33.1,3.1 -54.3,-0.5 -69.8,7.4 -258.9,130.8 -542.6,152.2 -823,187.5 -74.8,9.4 -150.6,12.4 -225.2,22.8 -345.2,47.8 -661.9,-30.3 -955.8,-212.3 -26.7,-16.5 -53,-33.7 -80.4,-49 -37.2,-20.9 -73.2,-13.9 -105.7,10.5 -33,24.8 -51.2,62.9 -39.4,99.4 17,52.5 36.8,110.9 73.9,148.5 60.9,61.9 131.5,118.3 207.1,161.1 326.9,184.7 677.1,228.6 1040.4,142.5 207.8,-49.3 413,-110.8 616.7,-175.4 94.9,-30.1 187,-74.3 273.7,-123.8 74.3,-42.3 118.6,-109.8 87.5,-219.2"
         style="fill:#231f20;fill-opacity:1;fill-rule:nonzero;stroke:none"
         id="path132" />
      <path
         d="m 29856.5,30340 c -67.6,-123 -149.6,-170.9 -238,-200.9 -184.4,-62.4 -369.4,-126.1 -558.6,-170.2 -195.6,-45.6 -395.9,-72.1 -595.2,-100.3 -139.4,-19.8 -276.7,-0.2 -405.8,59.2 -33.8,15.6 -67.5,35.7 -94,61.3 -15.1,14.5 -25,47 -19.5,66.5 5.3,18.9 32.1,42.6 51.4,44.6 49.4,5 102,7.7 149.6,-3.8 302.2,-72.9 601.3,-32.5 899.5,21.9 241.5,44 481.1,97 705.8,201.7 20.6,9.7 45.9,9.2 104.8,20"
         style="fill:#231f20;fill-opacity:1;fill-rule:nonzero;stroke:none"
         id="path134" />
      <path
         d="m 14615.6,30239.5 c -5.3,-109.9 -58,-160.7 -123.2,-199.8 -91.1,-54.6 -190.6,-66.1 -290.8,-31.9 -218.7,74.7 -383.5,217.8 -481.5,425 -71.2,150.8 -56,306.9 35.1,450.4 32.6,51.3 54.4,55.3 155.4,35.3 -5.9,-28.3 -9.7,-57.1 -17.9,-84.7 -34.8,-116.1 -13.4,-223.9 46.8,-325.9 61.7,-104.4 143,-191.1 241.3,-261.7 86.6,-62.2 178.5,-88.6 283.5,-44.7 39.6,16.5 84,21.6 151.3,38"
         style="fill:#231f20;fill-opacity:1;fill-rule:nonzero;stroke:none"
         id="path136" />
      <path
         d="m 21152.2,27925.3 c 4.2,68.3 6.2,136.9 13,205.1 61.8,615.2 124.1,1230.5 187.6,1845.6 6.5,62.3 20.1,124.2 35,185.1 3.4,13.6 26,30.4 40.3,31 12.6,0.5 35.2,-18.1 37.4,-31 8.4,-49.2 16.1,-99.7 13.6,-149.3 -6.3,-119.7 -15.4,-239.4 -28.9,-358.6 -46.3,-407.5 -92.4,-815.1 -144.2,-1221.9 -17.4,-137.3 -50.1,-272.8 -78.9,-408.5 -7.5,-35.4 -26.5,-68.3 -40.2,-102.4 -11.6,1.6 -23.1,3.2 -34.7,4.9"
         style="fill:#231f20;fill-opacity:1;fill-rule:nonzero;stroke:none"
         id="path138" />
      <path
         d="m 23049.9,32454.6 c -34.5,-44.1 -65.7,-91.2 -104,-131.6 -165.1,-174.3 -350.4,-325.4 -546,-464 -25.5,-18 -53.8,-32.6 -82.4,-45.3 -40.7,-18.3 -95.6,-2.8 -93.9,27.4 1.6,27.2 14.5,65.1 35.1,78 246.3,154.4 465.9,343.6 693.4,522.6 22.4,17.7 50.2,28.5 75.5,42.5 7.4,-9.8 14.9,-19.7 22.3,-29.6"
         style="fill:#231f20;fill-opacity:1;fill-rule:nonzero;stroke:none"
         id="path140" />
      <path
         d="m 31062.5,23460.5 c 69,-56.3 95.7,-128.9 133.5,-192.3 91.5,-153.4 201.9,-289.7 341.4,-402 99.6,-80.2 209.7,-139.9 333,-174.3 230,-64.1 342.8,9.9 356.1,244.9 18.4,325.5 -97.3,607.1 -309.2,848.6 -43.4,49.5 -110.8,82.3 -172.8,110.2 -74.3,33.5 -155.1,52.3 -232.4,79.8 -47.3,16.8 -94.9,34.3 -139.1,57.8 -44.4,23.6 -64.8,72.1 -52.7,111 14.6,47 49.8,75.3 97,77.2 316,12.9 605,-41.1 800.4,-326.8 155.7,-227.8 261.9,-474.1 295.4,-749.8 16.3,-133.5 8.4,-265.9 -32.1,-393.6 -70.5,-221.8 -222.4,-377.7 -513.5,-346.6 -140.7,15.1 -272.3,58.6 -392.7,129.1 -267,156.3 -450.3,382.7 -537.2,681.3 -17.2,59 -18.2,123.5 -19.3,185.6 -0.3,17.6 25.5,35.7 44.2,59.9"
         style="fill:#231f20;fill-opacity:1;fill-rule:nonzero;stroke:none"
         id="path142" />
      <path
         d="m 32880.1,26333 c -0.1,-383.1 -145.7,-635.1 -446.2,-780.5 -180.8,-87.6 -375.1,-147.4 -564,-217.9 -29.1,-10.8 -61.6,-14 -92.9,-17.1 -45.6,-4.6 -89.4,1.4 -112.2,48.5 -18,37.2 -1.8,82.5 43.3,113.4 41.5,28.5 86,52.7 130.4,76.6 94.4,50.8 192.2,95.9 283.7,151.4 91.4,55.5 183.1,113.5 263.5,183.3 176.3,153 243.4,347 190.6,578.7 -63.4,278.2 -187.3,521.1 -408.2,708.3 -33.3,28.2 -75.2,54 -56,107.5 14.4,40.2 75.8,63.1 132.4,39.3 68.9,-29 140.8,-61.1 196.4,-109.1 282.9,-244.4 419,-561 439.2,-882.4"
         style="fill:#231f20;fill-opacity:1;fill-rule:nonzero;stroke:none"
         id="path144" />
      <path
         d="m 31758.9,22276.3 c -101.4,-29.6 -188.6,-27 -272.4,3 -88.5,31.8 -177.4,65.6 -259.9,110.1 -178.5,96.2 -334.3,224 -478.2,366.4 -102,101 -164,223.1 -183.8,364.1 -5.8,41.1 5.5,86.4 17.3,127.5 10.6,36.9 71.8,42.2 92.4,9.2 19.8,-31.6 32.2,-67.8 51.5,-99.9 51.7,-85.9 94.7,-180.1 160.1,-254.2 206.3,-233.5 441.5,-430.4 744.8,-529.9 45.5,-15 96.5,-24.8 128.2,-96.3"
         style="fill:#231f20;fill-opacity:1;fill-rule:nonzero;stroke:none"
         id="path146" />
      <path
         d="m 14419.6,26199.4 c -104.2,19.4 -198.6,30.9 -289.6,55.1 -158.3,42 -315.7,88.1 -471.4,139.1 -230.5,75.5 -410.7,219 -535.5,427.3 -284.7,475 -320.7,973.6 -131.1,1490.2 50.5,137.8 130.2,259.2 237.9,360.1 27.1,25.4 58.7,48.9 92.5,63.4 18.5,7.9 48.6,0 68,-10.6 9.7,-5.3 14,-35.2 8.9,-49.9 -14.1,-41.5 -31.1,-82.8 -52.8,-120.8 -155.8,-271.9 -206.7,-565.7 -186.1,-875 16.8,-252.1 100.1,-481.9 248.5,-684.1 58.6,-79.7 136.4,-149.2 216.6,-208.1 226.3,-166.2 482.8,-272.3 753.4,-341.4 77.9,-19.8 162.2,-14.6 243.7,-19.8 61.7,-4 88.6,-47.5 64.8,-103.5 -18.5,-43.5 -47.9,-75.8 -93,-87.2 -60.4,-15.2 -122.3,-24.6 -174.8,-34.8"
         style="fill:#231f20;fill-opacity:1;fill-rule:nonzero;stroke:none"
         id="path148" />
      <path
         d="m 15240.8,24232.3 c -12.8,2.3 -56.7,7.4 -99.2,18.1 -233.9,59.1 -453.6,154.5 -662,274.3 -146.6,84.2 -253.6,205.9 -306.9,370.2 -24.7,76.1 -22.4,148.8 21,217.9 16.3,25.9 63.6,30.8 82,7.3 11.5,-14.6 23.8,-29.9 30.3,-47 47.1,-123.4 140.8,-206.2 240,-286.4 193.5,-156.2 411,-269.8 639.7,-362.4 68.9,-27.9 145.9,-35.9 218.9,-54.1 29.8,-7.5 39.7,-54 19.5,-77.7 -40.3,-47.3 -92.4,-63.1 -183.3,-60.2"
         style="fill:#231f20;fill-opacity:1;fill-rule:nonzero;stroke:none"
         id="path150" />
      <path
         d="m 25977.8,30629.7 c 5.5,-272.7 -258.8,-394.6 -440.2,-329.8 -96.2,34.4 -166.6,146.9 -165.5,254.6 1,113.3 67.9,207.1 179,236.7 49.1,13.2 94.8,23.5 135.3,58.5 43.1,37.3 96.8,30.5 141.2,0.7 87.4,-58.6 147.6,-136.6 150.2,-220.7"
         style="fill:#231f20;fill-opacity:1;fill-rule:nonzero;stroke:none"
         id="path152" />
      <path
         d="m 17724.1,30393.6 c 63.9,60.6 97,96.1 134.2,126.5 59,48.1 140.1,58.2 192.7,23.9 57.4,-37.4 82.5,-93.8 77.1,-161.3 -2.4,-30.7 -7.1,-64 -21.4,-90.3 -70.3,-129.3 -176.1,-211.4 -326.1,-224.9 -116.7,-10.5 -226.2,50.9 -275.7,158.6 -51,110.8 -45.3,222.2 33,318.7 25.3,31.2 70.1,52.2 110.1,64.6 61.2,19 109.2,-27 102.5,-91.8 -3,-28.9 -11.9,-57.2 -26.4,-124"
         style="fill:#231f20;fill-opacity:1;fill-rule:nonzero;stroke:none"
         id="path154" />
      <path
         d="m 17989.4,30538.6 c 0,90.2 -73.1,163.4 -163.4,163.4 -90.2,0 -163.4,-73.2 -163.4,-163.4 0,-90.3 73.2,-163.4 163.4,-163.4 90.3,0 163.4,73.1 163.4,163.4"
         style="fill:#ffffff;fill-opacity:1;fill-rule:nonzero;stroke:none"
         id="path156" />
      <path
         d="m 25698.9,30775.7 c 0,90.2 -73.2,163.3 -163.4,163.3 -90.3,0 -163.4,-73.1 -163.4,-163.3 0,-90.3 73.1,-163.4 163.4,-163.4 90.2,0 163.4,73.1 163.4,163.4"
         style="fill:#ffffff;fill-opacity:1;fill-rule:nonzero;stroke:none"
         id="path158" />
    </g>
  </g>
</svg>
