<?xml version="1.0" encoding="UTF-8" standalone="no"?>
<!-- Created with Inkscape (http://www.inkscape.org/) -->

<svg
   width="652.12042mm"
   height="129.44054mm"
   viewBox="0 0 652.12042 129.44054"
   version="1.1"
   id="svg6148"
   xmlns="http://www.w3.org/2000/svg"
   xmlns:svg="http://www.w3.org/2000/svg">
  <defs
     id="defs6145" />
  <g
     id="layer1"
     transform="translate(356.13615,54.598553)">
    <path
       d="m -220.80346,1.0909504 c -0.70203,2.5082501 -6.223,35.6376136 -25.69634,35.6376136 -7.52827,0 -9.53911,-7.729362 -9.4368,-16.866307 -2.91042,4.519084 -7.12611,7.831667 -13.04925,7.528278 -15.9632,-0.599722 -6.12422,-33.3269184 -7.33072,-37.542613 0,0 15.15886,-2.811639 13.45141,8.9323338 -2.20839,15.3599452 -2.80811,25.4000012 4.318,18.0692792 7.02734,-7.2248896 5.4222,-23.2868629 5.4222,-23.2868629 0,0 17.16617,-3.8170561 15.86089,12.7458619 -1.30528,16.566446 -3.61597,27.206224 3.91583,18.471446 7.52828,-8.833556 9.23572,-24.99430748 9.23572,-24.99430748 0,0 4.01462,-1.10419452 3.30906,1.30527788"
       style="fill:#040606;fill-opacity:1;fill-rule:nonzero;stroke:none;stroke-width:0.0352778"
       id="path14" />
    <path
       d="m -226.82538,-19.186718 c 0,-4.215694 3.41489,-7.531806 7.52828,-7.531806 4.11692,0 7.52828,3.316112 7.52828,7.531806 0,4.11339 -3.41136,7.528279 -7.52828,7.528279 -4.11339,0 -7.52828,-3.414889 -7.52828,-7.528279 z m 35.33775,21.3818629 c -1.2065,2.1060835 -11.14425,30.1166411 -28.31041,29.5133911 -15.9632,-0.60325 -6.12423,-33.3304469 -7.3272,-37.5461416 0,0 15.15534,-2.8081113 13.45142,8.9358617 -2.20839,15.2576399 -1.90853,23.3891679 5.02003,18.5702229 7.12611,-5.0165 14.25222,-20.5775286 14.25222,-20.5775286 l 2.91394,1.1041945"
       style="fill:#040606;fill-opacity:1;fill-rule:nonzero;stroke:none;stroke-width:0.0352778"
       id="path16" />
    <path
       d="m -176.13121,22.87498 c -10.13883,8.029222 -17.76589,16.562917 -14.4533,22.987001 5.1188,9.637889 13.95236,16.46414 14.55561,6.124223 0.29986,-8.43139 0.20108,-19.275779 -0.10231,-29.111224 z m -0.59972,-14.8590014 c 0,0 0,0 0,-0.098778 0,0 -0.30339,-3.6159724 -0.40217,-5.4221948 -3.01272,0 -14.15344,0.9031112 -14.35453,8.0327512 -0.20108,7.528278 10.23762,2.409472 14.7567,-2.5117784 z m 36.13856,-7.22841713 c 0,0 -9.83897,5.02002813 -20.88092,11.94858453 1.90853,25.096612 5.02003,61.937198 -6.62517,62.039503 -2.30716,0.299862 -16.46414,0.702028 -28.61028,-26.102029 -4.61786,-9.133417 6.82625,-20.581057 20.47875,-30.317724 -0.0988,-1.506361 -0.20108,-3.1115 -0.20108,-4.617861 -3.91583,3.915833 -11.94505,9.338028 -18.97239,8.131528 -10.63978,-1.806223 -8.23383,-15.7585845 0.70203,-21.38186266 6.52639,-4.11691694 14.15344,-3.71475024 17.16617,-3.11150024 0,0 -0.40217,-5.1188058 -0.80434,-6.7274726 0,0 14.95778,-4.5155555 16.26306,13.0527786 0.10231,1.7039168 0.20108,3.5136669 0.30339,5.3198892 11.04194,-6.4240837 20.27767,-10.742084 20.27767,-10.742084 l 0.90311,2.50825017"
       style="fill:#040606;fill-opacity:1;fill-rule:nonzero;stroke:none;stroke-width:0.0352778"
       id="path18" />
    <path
       d="m -150.73121,-19.186718 c 0,-4.215694 3.41137,-7.531806 7.52828,-7.531806 4.11692,0 7.52828,3.316112 7.52828,7.531806 0,4.11339 -3.41136,7.528279 -7.52828,7.528279 -4.11691,0 -7.52828,-3.414889 -7.52828,-7.528279 z m 35.33423,21.3818629 c -1.20297,2.1060835 -11.14072,30.1166411 -28.30689,29.5133911 -15.9632,-0.60325 -6.12422,-33.3304469 -7.3272,-37.5461416 0,0 15.15534,-2.8081113 13.45142,8.9358617 -2.20839,15.2576399 -1.90853,23.3891679 5.0165,18.5702229 7.12964,-5.0165 14.25575,-20.5775286 14.25575,-20.5775286 l 2.91042,1.1041945"
       style="fill:#040606;fill-opacity:1;fill-rule:nonzero;stroke:none;stroke-width:0.0352778"
       id="path20" />
    <path
       d="m -77.649757,1.891756 c 0,0.2010833 0,0.5044722 0,0.7055556 11.645195,-8.1315283 18.873612,-30.6175856 12.74939,-31.0197516 -6.424084,-0.402167 -11.846279,25.3964735 -12.74939,30.314196 z m 21.985113,7.2284171 c -0.402167,-8.53369498 -14.957779,-4.6178614 -22.288502,1.5063609 -0.197555,11.345334 0.303389,20.581057 2.211917,21.685252 0,0 20.577529,-8.533695 20.076585,-23.1916129 z m 0,15.3599459 c -6.928556,8.332611 -16.965085,14.054667 -31.323141,14.054667 -17.868195,0.500945 -3.813528,-71.677393 -6.625167,-81.816227 0,0 19.275779,-4.314473 17.769418,14.255751 -0.201084,2.709333 -0.402167,5.820833 -0.603251,9.235722 3.312584,-7.126111 8.332612,-13.6525 15.060085,-12.848167 9.736667,1.30175 6.124222,18.168057 -4.318001,30.8186685 1.605139,-0.4021667 3.41489,-0.60325 5.31989,-0.60325 15.158862,0 14.255751,15.3599455 4.720167,26.9028355"
       style="fill:#040606;fill-opacity:1;fill-rule:nonzero;stroke:none;stroke-width:0.0352778"
       id="path22" />
    <path
       d="m -24.143948,1.5918949 c 0.201083,0.4021666 0.500945,0.7020278 0.800806,1.0054167 0.504472,0.5009445 1.005416,0.9031112 1.707444,1.2029723 0.299861,0.2010833 0.702028,0.4021667 1.104195,0.5009445 0.402166,0.1023055 0.804333,0.3033889 1.305278,0.3033889 0.804333,0.2010833 1.605139,0.2998611 2.409472,0.2998611 -0.402167,-2.3071668 -1.404056,-4.01461137 -3.012722,-4.51555584 -1.305278,-0.4021667 -2.808112,0.0987778 -4.314473,1.20297234 z m 6.522862,12.3472231 c 0.402166,-1.104195 0.60325,-2.106084 0.804333,-3.210278 -1.005417,0.09878 -2.109611,0.197555 -3.1115,0.09878 -0.702028,-0.09878 -1.407584,-0.09878 -2.109611,-0.299861 -0.702028,-0.102306 -1.404056,-0.303389 -2.106084,-0.504473 -1.305278,-0.3986386 -2.511778,-1.1041942 -3.513667,-1.8062221 -0.303389,-0.2010833 -0.60325,-0.4021667 -0.804333,-0.60325 -0.402167,0.8043334 -0.702028,1.7074446 -1.005417,2.5117781 -2.007306,6.424084 -1.001889,12.548306 2.211917,13.550195 3.312583,1.005417 7.627056,-3.312583 9.634362,-9.736667 z M 6.6747207,0.38892256 c 0,0 -0.5044722,0.39863891 -1.4075834,1.00188894 C 5.066054,1.5918949 4.7661928,1.6906726 4.4663317,1.891756 4.1629428,2.0928393 3.8630817,2.2939227 3.5632205,2.495006 3.2598316,2.6960894 2.8576649,2.8971727 2.5578038,3.0982561 2.1556371,3.3981172 1.7534704,3.5992005 1.3548315,3.9025894 0.95266481,4.100145 0.44819255,4.3012284 0.04955364,4.6046173 -0.35261305,4.9044784 -0.85355753,5.1055617 -1.3580298,5.4054229 -1.5591131,5.5077284 -1.8589743,5.7088118 -2.0600576,5.8075896 -2.261141,5.9098951 -2.3599187,5.9098951 -2.4622243,6.0086729 -2.5610021,6.1109785 -2.7620854,6.1109785 -2.864391,6.2097563 -3.1642521,6.308534 -3.3653355,6.4108396 -3.6651966,6.6119229 -3.9685855,6.7107007 -4.1696688,6.8130063 -4.46953,7.0140896 c -1.1041945,0.5009445 -2.3071668,1.001889 -3.5136669,1.5063612 -1.2029723,0.5009445 -2.4094721,0.9031112 -3.7147501,1.3017501 -0.599722,0.1023056 -1.104195,0.3033891 -1.605139,0.4021671 -0.201083,1.2065 -0.500945,2.409472 -0.903111,3.615972 -3.312584,10.438695 -12.548307,16.862779 -20.679835,14.252223 -8.131528,-2.50825 -11.945056,-13.049251 -8.632473,-23.5902513 3.312584,-10.4386951 12.548307,-16.7640007 20.679835,-14.2522231 5.61975,1.8062223 9.235723,7.627056 9.736667,14.4533064 0.09878,0 0.201084,0 0.299861,0 1.104195,-0.2010833 2.310695,-0.4021666 3.4148895,-0.7020278 1.1041945,-0.2010833 2.3071668,-0.60325 3.3125835,-0.9031111 0.2998612,-0.1023056 0.6032501,-0.2010834 0.8043334,-0.2998612 0.2998611,-0.1023055 0.5997223,-0.2010833 0.8008056,-0.2010833 0.2010834,-0.1023056 0.2998612,-0.1023056 0.4021667,-0.2010834 0.098778,0 0.2998611,-0.1023055 0.4021667,-0.1023055 0.2010834,-0.098778 0.5009445,-0.2010834 0.7020278,-0.2998612 0.5009445,-0.2010833 1.001889,-0.4021666 1.5063612,-0.60325 0.4021667,-0.098778 0.9031112,-0.2998611 1.30527789,-0.50094447 C 0.25063698,0.68878369 0.6492759,0.48770034 1.0514426,0.38892256 1.4536093,0.18783921 1.855776,-0.01324414 2.1556371,-0.1155497 2.459026,-0.31663304 2.8576649,-0.41541083 3.0587483,-0.61649417 c 0.3033889,-0.0987778 0.60325,-0.20108335 0.9031111,-0.29986113 0.906639,-0.5044723 1.5063612,-0.8043334 1.5063612,-0.8043334 l 1.2065001,2.10961126"
       style="fill:#040606;fill-opacity:1;fill-rule:nonzero;stroke:none;stroke-width:0.0352778"
       id="path24" />
    <path
       d="m 22.535611,8.820312 c -1.605139,0 -2.511778,-1.0054168 -2.511778,-1.0054168 0,0 2.010833,-5.7220559 -2.50825,-5.9231392 C 16.411388,1.7929782 11.793527,1.4931171 9.8849987,13.23709 5.7716096,38.534786 35.687167,8.9190898 39.398389,1.4931171 l 2.010834,1.605139 C 24.444139,34.820036 -9.5883359,40.341008 -5.1715578,13.738035 -2.1588354,-4.2289388 14.301777,-5.2343556 19.42411,-3.6292166 c 4.014612,1.3052779 6.424084,4.31800029 3.111501,12.4495286"
       style="fill:#040606;fill-opacity:1;fill-rule:nonzero;stroke:none;stroke-width:0.0352778"
       id="path26" />
    <path
       d="m 60.480391,8.820312 c -1.605139,0 -2.50825,-1.0054168 -2.50825,-1.0054168 0,0 2.007305,-5.7220559 -2.511778,-5.9231392 C 54.356168,1.7929782 49.738307,1.4931171 47.833307,13.23709 43.71639,38.534786 73.631947,8.9190898 77.346697,1.4931171 l 2.007306,1.605139 C 62.388919,34.820036 28.356444,40.341008 32.773222,13.738035 35.785945,-4.2289388 52.250085,-5.2343556 57.368891,-3.6292166 c 4.014611,1.3052779 6.424083,4.31800029 3.1115,12.4495286"
       style="fill:#040606;fill-opacity:1;fill-rule:nonzero;stroke:none;stroke-width:0.0352778"
       id="path28" />
    <path
       d="m 126.83789,4.4035339 c 0,0 -8.53369,24.1935011 -17.36725,22.3872791 -8.73477,-1.80975 -5.42219,-32.5261131 -12.149664,-32.5261131 -6.82625,0 -1.104194,38.8478911 -18.771306,38.4457251 -15.86089,0.402166 -3.411362,-70.167505 -5.820834,-79.202144 0,0 17.063862,-3.817056 15.758584,12.647084 -0.702028,8.935862 -1.806222,24.4933625 -2.106083,37.3450578 1.905,-8.9358617 5.319889,-17.9705008 11.140723,-17.9705008 11.64519,0 7.02733,34.734502 12.8517,36.339641 5.1188,1.407583 14.55561,-18.0692791 14.55561,-18.0692791 l 1.90852,0.60325"
       style="fill:#040606;fill-opacity:1;fill-rule:nonzero;stroke:none;stroke-width:0.0352778"
       id="path30" />
    <path
       d="m 134.06278,13.23709 c 6.52639,0.402167 9.03464,-2.811639 10.04006,-4.8189447 0.70203,-1.4040557 1.50636,-5.8208337 -2.40947,-5.9231393 -1.2065,-0.098778 -5.72206,-0.4021667 -7.63059,10.742084 z M 164.47929,3.7015061 C 147.5142,35.32098 113.88742,44.35562 118.90392,14.341285 c 3.01272,-18.0692794 19.47686,-18.9723905 24.59567,-17.3672515 4.01461,1.3052778 7.63058,6.2230003 3.21381,13.3526395 -3.01273,4.917723 -9.43681,5.520973 -13.05278,5.418667 -2.70934,24.193502 25.29769,-6.4240835 28.81136,-13.6525007 l 2.00731,1.6086668"
       style="fill:#040606;fill-opacity:1;fill-rule:nonzero;stroke:none;stroke-width:0.0352778"
       id="path32" />
    <path
       d="m 204.4349,5.006784 c -0.80433,2.4094723 -9.93775,43.165892 -29.41461,42.26278 -13.35264,-0.60325 -6.12423,-28.610279 -4.61786,-43.0671134 -22.28498,-0.5009445 -13.95237,-8.9358617 -16.06198,-15.8608896 0,0 14.55561,-6.223001 13.55373,6.526389 -0.20109,2.7093335 4.21569,2.6070279 4.31447,2.6070279 4.318,-0.2998611 15.06008,0.4021667 13.45142,13.6525011 -2.10609,16.46414 -4.91773,33.228141 3.01272,24.697974 7.93044,-8.434918 12.5483,-32.3250302 12.5483,-32.3250302 0,0 4.01462,-0.9031112 3.21381,1.5063612"
       style="fill:#040606;fill-opacity:1;fill-rule:nonzero;stroke:none;stroke-width:0.0352778"
       id="path34" />
    <path
       d="m 196.70554,-19.186718 c 0,-4.215694 3.41136,-7.531806 7.52828,-7.531806 4.11339,0 7.52827,3.316112 7.52827,7.531806 0,4.11339 -3.41488,7.528279 -7.52827,7.528279 -4.11692,0 -7.52828,-3.414889 -7.52828,-7.528279 z m 35.33422,21.3818629 c -1.20297,2.1060835 -11.14425,30.1166411 -28.31042,29.5133911 -15.95966,-0.60325 -6.12069,-33.3304469 -7.32719,-37.5461416 0,0 15.15886,-2.8081113 13.45142,8.9358617 -2.20839,15.2576399 -1.905,23.3891679 5.02002,18.5702229 7.12612,-5.0165 14.25576,-20.5775286 14.25576,-20.5775286 l 2.91041,1.1041945"
       style="fill:#040606;fill-opacity:1;fill-rule:nonzero;stroke:none;stroke-width:0.0352778"
       id="path36" />
    <path
       d="m 264.86574,1.9940615 c 0,0 -4.41678,8.6324725 -6.223,11.7439735 -0.80434,1.506361 -1.80623,3.213805 -3.1115,4.818944 -0.70203,0.804334 -1.40406,1.605139 -2.3107,2.310695 -0.20108,0.201083 -0.50094,0.299861 -0.70203,0.500944 -0.29986,0.09878 -0.50094,0.299861 -0.8008,0.402167 -0.20108,0 -0.30339,0.09878 -0.50447,0.201083 h -0.29987 c 0,0.09878 -0.0988,0.09878 -0.0988,0.09878 h -0.40217 c 0.0988,0 -0.10231,0 -0.10231,0 h -0.0988 -0.10231 c -0.0988,0 -0.20108,0 -0.29986,0 -0.40217,0 -0.80433,-0.09878 -1.2065,-0.402167 -0.39864,-0.201083 -0.80081,-0.599722 -1.00189,-1.001889 -0.50094,-0.705555 -0.60325,-1.506361 -0.80433,-2.208389 -0.20109,-1.407583 -0.20109,-2.712861 -0.20109,-3.915833 0.10231,-2.50825 0.30339,-4.9177226 0.50448,-7.327195 0.0988,-1.2065001 0.20108,-2.4094724 0.20108,-3.5136669 0,-1.1041945 0,-2.208389 -0.10231,-3.01272241 -0.0988,-0.4021667 -0.29986,-0.50094448 -0.50094,-0.60325004 -0.20108,-0.09877779 -0.60325,0.10230556 -0.80433,0.30338891 -0.20109,0.19755556 -0.40217,0.39863891 -0.60325,0.59972226 -0.50095,0.70202778 -1.00189,1.60866678 -1.40406,2.40947238 -0.50094,0.9031112 -0.90311,1.8062223 -1.30528,2.7128613 -0.70202,1.8062223 -1.40405,3.5136669 -1.90852,5.2175835 -1.1042,3.312584 -1.905,6.226528 -2.40948,8.131528 -0.29986,1.005417 -0.90311,3.312584 -0.90311,3.312584 -1.80622,7.027334 -6.02192,7.930445 -8.73125,8.03275 -14.65792,0.500945 -3.01272,-31.22083483 -5.31989,-42.164002 0,0 15.75859,-4.515556 14.55561,15.2611674 0,0.1975556 0,0.398639 0,0.5009445 2.00731,-3.51366687 5.82084,-9.0346394 9.23573,-8.9358617 4.21569,0.1023056 3.41136,7.6305839 2.80811,12.5483064 0,0.7020278 -0.0988,1.5063612 -0.20109,2.2083894 0,0.201083 0,0.402166 0,0.60325 -0.19755,1.305278 -0.29986,2.610555 -0.39863,3.813528 0,1.104194 0,2.310694 0.0988,3.213805 0.10231,0.402167 0.20109,0.804334 0.29986,1.005417 0.10231,0.09878 0.10231,0.09878 0.10231,0.09878 0.0988,0 0.0988,0.09878 0.20108,0.09878 0,0 0,0 0.0988,0 l 0.30339,-0.09878 c 0.0988,0 0.20108,0 0.20108,0 h 0.0988 c 0,-0.09878 0.10231,-0.09878 0.20108,-0.09878 0.0988,-0.102305 0.29987,-0.102305 0.50095,-0.201083 0.10231,-0.102306 0.30339,-0.201084 0.50447,-0.402167 0.59972,-0.402167 1.20297,-1.104194 1.80622,-1.707444 1.20298,-1.404056 2.20839,-2.910417 3.0092,-4.416778 1.70744,-2.9104173 6.02544,-11.14425118 6.02544,-11.14425118 l 2.10609,1.00541668"
       style="fill:#040606;fill-opacity:1;fill-rule:nonzero;stroke:none;stroke-width:0.0352778"
       id="path38" />
    <path
       d="m 260.65004,-19.186718 c 0,-4.215694 3.41136,-7.531806 7.52828,-7.531806 4.11692,0 7.52828,3.316112 7.52828,7.531806 0,4.11339 -3.41136,7.528279 -7.52828,7.528279 -4.11692,0 -7.52828,-3.414889 -7.52828,-7.528279 z m 35.33423,21.3818629 c -1.20298,2.1060835 -11.14073,30.1166411 -28.30689,29.5133911 -15.9632,-0.60325 -6.12423,-33.3304469 -7.33073,-37.5461416 0,0 15.15887,-2.8081113 13.45142,8.9358617 -2.20839,15.2576399 -1.905,23.3891679 5.02003,18.5702229 7.12964,-5.0165 14.25575,-20.5775286 14.25575,-20.5775286 l 2.91042,1.1041945"
       style="fill:#040606;fill-opacity:1;fill-rule:nonzero;stroke:none;stroke-width:0.0352778"
       id="path40" />
    <path
       d="m -347.81405,21.802535 c -1.94381,1.68275 -1.94381,6.928556 2.69875,7.563556 4.37797,0.596195 10.24467,-4.236861 11.28536,-5.686778 -5.27403,-4.840112 -9.96244,-5.362223 -13.98411,-1.876778 z m 5.12233,18.062223 c -3.429,0 -6.56872,-1.135944 -9.09814,-3.404305 -4.13808,-3.711223 -5.4998,-9.786057 -3.30905,-14.767279 2.5788,-5.863167 9.51089,-8.043334 15.67744,-6.960306 4.2792,0.751417 7.46831,2.815167 8.67128,3.443111 9.17575,-9.069917 13.51492,-18.55963983 16.41475,-29.467529 l 0.12347,-0.465667 c 1.55223,-5.834945 2.65642,-11.560529 3.63362,-16.608779 1.34761,-6.967361 2.51177,-12.982223 4.445,-17.522473 2.63877,-6.194778 11.4935,-8.710084 16.95802,-8.710084 8.0645,0 14.59089,5.323417 16.24542,13.246806 0.87489,4.187473 0.27164,8.628945 -1.69333,12.509501 -2.159,4.261556 -5.79614,7.602362 -10.51984,9.662584 -2.37066,1.033639 -5.12586,-0.05292 -6.16655,-2.420056 -1.91558,-4.34975 -2.42358,-4.011083 -0.38806,-4.914194 7.89164,-3.51014 15.43756,-8.530168 13.87123,-18.238613 -0.53623,-3.337278 -9.63084,-10.414 -14.94367,3.157362 -1.43581,3.672416 -2.62114,9.189861 -3.86645,15.631584 -1.00541,5.196417 -2.14489,11.087806 -3.77825,17.2367232 l -0.12347,0.4656667 c -2.8963,10.9043618 -8.77358,25.7986401 -19.58622,35.9304191 10.11061,6.466417 22.23911,4.423833 34.10656,-7.443612 3.89819,-3.894667 3.50308,-3.037417 6.7698,1.273528 1.56281,2.06375 1.62984,5.68325 -0.42686,7.253112 -8.91822,6.805083 -18.64078,9.902473 -27.67189,8.600722 -6.16303,-0.885472 -11.40531,-3.654778 -16.08314,-6.558139 -2.68111,2.074334 -5.71853,4.113389 -9.16517,6.099528 -3.44311,1.982612 -6.8968,2.970389 -10.0965,2.970389"
       style="fill:#231f20;fill-opacity:1;fill-rule:nonzero;stroke:none;stroke-width:0.0352778"
       id="path42" />
  </g>
</svg>
