<?xml version="1.0" encoding="UTF-8" standalone="no"?>
<!-- Created with Inkscape (http://www.inkscape.org/) -->

<svg
   version="1.1"
   id="svg2"
   xml:space="preserve"
   width="663.47998"
   height="745.73334"
   viewBox="0 0 663.47998 745.73334"
   xmlns="http://www.w3.org/2000/svg"
   xmlns:svg="http://www.w3.org/2000/svg"><defs
     id="defs6" /><g
     id="g8"
     transform="matrix(1.3333333,0,0,-1.3333333,0,745.73333)"><g
       id="g10"
       transform="scale(0.1)"><path
         d="m 1348.95,3222.88 c -5.37,36.39 -7.02,73.32 -4.91,110.05 -96.73,-23.72 -208.55,-56.21 -291.95,-112.18 12.52,-57.25 82.57,-13.98 118.15,-6.02 16.29,3.64 175.97,26.72 178.71,8.15"
         style="fill:#5dcbf5;fill-opacity:1;fill-rule:nonzero;stroke:none"
         id="path12" /><path
         d="m 2415.47,3275.82 c 40.97,-6.12 84.55,-20 107.67,-54.36 9.51,20.65 17.68,41.92 24.44,63.63 0.55,1.77 1.08,3.75 0.26,5.42 -0.74,1.48 -2.34,2.28 -3.84,2.98 -36.21,16.95 -72.41,33.9 -108.62,50.85 -26.1,12.22 -52.41,24.51 -80.36,31.54 -6.98,1.76 -14.31,3.18 -21.35,1.66 -11.66,-2.52 -20.14,-12.52 -26.5,-22.62 -19.14,-30.43 -33.36,-73.87 -34.16,-109.69 40.93,33.53 91.37,38.22 142.46,30.59"
         style="fill:#5dcbf5;fill-opacity:1;fill-rule:nonzero;stroke:none"
         id="path14" /><path
         d="m 2215.81,2867.8 c 3.7,-11.47 7.41,-22.95 11.11,-34.42 0.71,-2.21 1.4,-4.69 0.34,-6.75 -1.17,-2.27 -3.97,-3.06 -6.45,-3.72 -25.94,-6.83 -49.13,-23.64 -63.69,-46.17 -26.3,86 -52.9,174.35 -46.94,264.09 13.61,3.08 37.56,13.96 48.04,5.4 9.6,-7.83 14.86,-46.03 18.82,-58.31 12.92,-40.04 25.85,-80.08 38.77,-120.12"
         style="fill:#5dcbf5;fill-opacity:1;fill-rule:nonzero;stroke:none"
         id="path16" /><path
         d="m 1178.35,2779.98 c 37.54,-6.43 74.71,-15.06 111.24,-25.84 -8.23,2.43 58.01,183.11 46.39,202.2 -58.56,-47.67 -107.44,-119.41 -157.63,-176.36"
         style="fill:#5dcbf5;fill-opacity:1;fill-rule:nonzero;stroke:none"
         id="path18" /><path
         d="m 3612.59,3134.13 c 21.22,71.84 37.04,145.27 47.3,219.47 0.95,6.88 1.61,14.68 -2.86,20.01 -3.33,3.97 -8.67,5.48 -13.69,6.79 -27.52,7.18 -55.04,14.36 -82.57,21.54 -92.24,-85.65 -172.17,-208.97 -194.51,-334.7 -10.19,-57.33 33.65,-58.59 76.8,-33.81 28.37,16.29 52.82,40.05 81.1,57.07 13.29,8 85.57,33.94 88.43,43.63"
         style="fill:#5dcbf5;fill-opacity:1;fill-rule:nonzero;stroke:none"
         id="path20" /><path
         d="m 1096.69,1209.61 c 4.44,-7.19 9.04,-15.86 5.79,-23.66 -3.17,-7.62 -12.22,-10.55 -20.2,-12.63 -258.471,-67.12 -512.186,-152.55 -758.616,-255.429 0.32,44.379 34.57,80.308 67.094,110.519 109.344,101.56 226.66,196.73 357.801,268.88 49.863,27.43 149.273,93.36 207.859,88.82 63.642,-4.93 105.322,-119.92 140.272,-176.5"
         style="fill:#5dcbf5;fill-opacity:1;fill-rule:nonzero;stroke:none"
         id="path22" /><path
         d="m 1597.9,872.93 c 6.04,3.121 12.81,6.23 19.4,4.55 13.3,-3.39 14.67,-21.57 12.83,-35.16 -19.13,-141.379 -72.59,-285.648 -32.88,-422.679 81.32,62.937 162.64,125.879 243.95,188.82 -23.94,-72.961 -33.69,-150.539 -28.54,-227.141 1.47,-21.968 7.51,-48.242 28.39,-55.191 12.44,-4.141 25.9,0.383 38.33,4.551 48.71,16.32 99.11,27.59 150.14,33.558 12.11,1.41 26.06,1.934 34.64,-6.738 6.67,-6.75 7.92,-17 8.81,-26.449 6.99,-74.602 13.99,-149.199 20.99,-223.801 -167.69,3.148 -339.93,-8.6797 -498.83,45.008 -144.21,48.73 -295.69,180 -297.24,344.254 -1.47,156.187 171.91,310.308 300.01,376.418"
         style="fill:#5dcbf5;fill-opacity:1;fill-rule:nonzero;stroke:none"
         id="path24" /><path
         d="m 1747.43,3500.28 c 35.76,2.21 71.87,-1.21 106.58,-10.09 -30.47,113.5 -61.15,228.45 -62.5,345.95 -9.76,-0.53 -17.84,-8.51 -21.49,-17.57 -3.65,-9.07 -3.75,-19.11 -3.79,-28.88 -0.11,-22.36 -0.2,-288.4 -18.8,-289.41"
         style="fill:#5dcbf5;fill-opacity:1;fill-rule:nonzero;stroke:none"
         id="path26" /><path
         d="m 1953.92,3478.36 c 28.57,-4.98 56.78,-12.04 84.33,-21.12 -10.56,60.72 -21.12,121.44 -31.69,182.17 -3.3,18.98 -6.8,39.39 -20.23,53.65 -24.92,-22.81 -31.61,-59.17 -31.7,-91.41 -0.03,-12.75 1.05,-123.6 -0.71,-123.29"
         style="fill:#5dcbf5;fill-opacity:1;fill-rule:nonzero;stroke:none"
         id="path28" /><path
         d="m 1212.38,3392.23 c 9.07,-5.25 18.35,-10.58 28.63,-12.59 18.83,-3.68 38.73,4.22 57.27,-0.69 28.42,-7.53 40.81,-40.17 61.89,-60.65 29.68,-28.82 77.58,-33.58 105,-64.56 28.3,-31.98 27.2,-83.71 58.68,-112.57 72.58,83.04 142.98,167.98 211.11,254.71 -144.53,15.08 -288.43,36.11 -431.22,63.03 -37.54,7.08 -75.09,14.59 -113.08,18.91 -30.98,3.53 -83.65,13.17 -111.43,-1.6 6.98,-18.99 41.8,-31.09 58.76,-40.91 24.8,-14.36 49.59,-28.72 74.39,-43.08"
         style="fill:#b82327;fill-opacity:1;fill-rule:nonzero;stroke:none"
         id="path30" /><path
         d="m 2027.89,3246.56 c -0.15,-43.11 -1.9,-86.21 -5.26,-129.18 74.36,48.49 131.75,117.68 184.51,188.03 17.33,23.1 65.87,69.31 25.22,94.16 -32.82,20.06 -73.37,-23.28 -95.26,-42.1 -19.69,-16.94 -38.68,-34.69 -56.9,-53.2 -9.81,-9.95 -52.27,-44.35 -52.31,-57.71"
         style="fill:#b82327;fill-opacity:1;fill-rule:nonzero;stroke:none"
         id="path32" /><path
         d="m 915.949,2592.45 c 19.731,-12.08 40.75,-23.47 54.821,-41.84 10.664,-13.91 16.515,-30.81 22.437,-47.3 47.963,-133.61 111.473,-261.62 188.843,-380.64 -44.64,-52.97 -102.39,-94.81 -166.63,-120.73 20.95,8.45 -145.635,439.64 -162.295,479.48 -13.691,32.73 -114.336,200.4 -100.719,226.43 15.84,30.27 55.02,-30.1 67.821,-42.17 29.281,-27.61 61.39,-52.21 95.722,-73.23"
         style="fill:#b82327;fill-opacity:1;fill-rule:nonzero;stroke:none"
         id="path34" /><path
         d="m 659.02,3775.94 c -18.372,-90.53 -15.426,-225.5 -64.715,-301.92 -27.707,-42.96 -72.559,-79.95 -108.821,-115.56 -13.351,-13.11 -95.507,-78.59 -93.242,-92.48 -16.672,102.14 -20.711,232.66 41.895,319.64 29.383,40.83 63.879,77.94 102.371,110.32 15.945,13.41 119.867,66.96 122.512,80"
         style="fill:#b82327;fill-opacity:1;fill-rule:nonzero;stroke:none"
         id="path36" /><path
         d="m 797.273,4071.03 c 38.727,58.69 77.454,117.39 116.176,176.08 93.181,141.22 197.581,291.44 357.531,346.62 -39.31,-13.66 -151.68,152.39 -173.23,177.66 -100.68,-37.58 -123.922,-211.47 -157.711,-303.26 -48.594,-132 -96.184,-264.37 -142.766,-397.1"
         style="fill:#b82327;fill-opacity:1;fill-rule:nonzero;stroke:none"
         id="path38" /><path
         d="m 3475.29,3570.28 c -41.21,13.73 -81.65,29.78 -121.06,48.05 -8.04,-132.49 4.64,-266.23 37.44,-394.85 -64.1,82.07 -130.31,168.75 -147.82,271.41 -10.66,62.54 -2.32,126.59 -3.95,190.02 -2.74,106.52 -60.01,200.55 -51.63,307.15 0.92,11.68 2.93,24.65 12.18,31.84 10.83,8.44 27.46,4.74 37.6,-4.52 10.14,-9.25 15.36,-22.57 20.25,-35.4 33.92,-89.03 83.08,-161.48 122.1,-247.11 18.34,-40.25 47.39,-150.76 94.89,-166.59"
         style="fill:#b82327;fill-opacity:1;fill-rule:nonzero;stroke:none"
         id="path40" /><path
         d="m 2866.85,1334.79 c -2.16,-15.92 -4.41,-32.29 -12.26,-46.3 -7.97,-14.21 -21.01,-24.75 -33.73,-34.93 -62.66,-50.13 -125.33,-100.26 -187.99,-150.38 18.8,147.99 71.09,289.2 137.96,421.84 33.05,65.56 69.8,129.18 108.2,191.73 26.2,42.69 69.55,147.41 117.69,163.56 -58.79,-181.01 -104.21,-356.08 -129.87,-545.52"
         style="fill:#b82327;fill-opacity:1;fill-rule:nonzero;stroke:none"
         id="path42" /><path
         d="m 1561.6,2072.96 c -4.87,-24.77 -9.75,-49.55 -14.62,-74.32 -1.77,-8.98 -2.83,-20.01 4.39,-25.64 6.57,-5.13 16.05,-2.56 23.9,0.26 125.91,45.26 251.49,98.44 384.85,109.34 -33.26,-46.2 -56.1,-99.85 -66.35,-155.84 38.65,-3.05 77.03,-9.45 114.57,-19.11 -7.5,-19.85 -15.01,-39.7 -22.52,-59.56 -110.05,35.37 -230.02,70.71 -338.68,31.29 -26.93,-9.76 -52.63,-24.03 -80.99,-28.08 -25.43,-3.64 -51.28,1.21 -76.96,0.59 -65.29,-1.57 -121.06,-39.76 -174.94,-72.47 -57.04,-34.63 -119.19,-56.19 -180.75,-82.56 80.65,90.91 137.71,169.15 235.45,243.84 28.21,21.55 187,103.52 192.65,132.26"
         style="fill:#b82327;fill-opacity:1;fill-rule:nonzero;stroke:none"
         id="path44" /><path
         d="m 1930.69,3480.35 c 37.51,-15.58 72.79,-43.1 84.93,-81.85 -36.91,14.25 -77.19,16.77 -116.74,17.91 -35.23,1.01 -262.85,-30.03 -227.13,41.8 15.43,31.02 87.72,36.63 117.99,39.89 47.62,5.14 96.45,0.72 140.95,-17.75"
         style="fill:#b82327;fill-opacity:1;fill-rule:nonzero;stroke:none"
         id="path46" /><path
         d="m 1138.16,2831.64 c 14.54,0 64.77,7.93 84.6,7.93 19.83,0 79.32,17.19 89.89,44.95 10.58,27.76 39.66,76.67 62.13,100.46 22.47,23.8 10.58,47.59 10.58,47.59 l -34.37,-9.25 c -48.91,-91.21 -103.11,-99.14 -103.11,-99.14 0,0 40.98,-7.94 14.54,-14.55 -26.44,-6.61 -166.56,31.73 -166.56,31.73 l -10.58,-18.51 -126.901,116.33 -15.863,-6.61 c 0,0 17.183,-60.81 27.757,-74.02 10.579,-13.22 46.267,-31.73 46.267,-31.73 55.52,-87.25 107.08,-95.18 121.62,-95.18"
         style="fill:#111011;fill-opacity:1;fill-rule:nonzero;stroke:none"
         id="path48" /><path
         d="m 1431.6,3199.11 c 0,0 -25.6,-44.2 -106,-56.7 1.8,1.3 43.9,33.7 45.2,69.9 0.9,25.2 -2.5,60.7 -4.7,80.9 39.7,-20.1 86.5,-36.8 90.6,-48.7 5.3,-15 15.9,-53.3 15.9,-53.3 z m -175.7,-62.1 c -38.6,-1.9 -80.5,-3.4 -119.4,-4.4 -20.2,13.7 -50.9,41.8 -53.6,87 12.7,5 25.9,10.5 39.4,16.5 16.8,7.5 32.5,15.1 47.4,22.6 -5.7,-7.8 -9.1,-17.4 -9.1,-27.9 0,-26.3 21.3,-47.6 47.6,-47.6 26.3,0 47.7,21.3 47.7,47.6 0,26.3 -21.3,47.7 -47.6,47.7 54.9,28.5 94.3,48.3 122.6,34.6 10.9,-46.5 10.9,-143 -75,-176.1 z m -248.6,-6.6 c -47.601,0 -80.601,41 -80.601,41 0,0 45.5,8.9 110.701,31.4 5.6,-18.8 18.1,-52.4 39.3,-71.6 -29.9,-0.6 -54.6,-0.8 -69.4,-0.8 z m 48.9,132.2 c 121.6,58.1 236.6,93.8 256.5,96.5 19.8,2.6 23.7,-29.1 23.7,-29.1 0,0 -67.8,5.3 -148.2,-34.4 -80.4,-39.6 -245.7,-96.5 -245.7,-96.5 0,0 -7.898,5.3 113.7,63.5 z m 436.2,-45 c -7.9,18.5 -13.2,39.7 -38.3,54.2 -25.1,14.6 -76.7,33.1 -76.7,33.1 l 5.3,9.2 c 0,0 -13.2,33.1 -38.3,54.2 -25.1,21.2 -76.7,23.8 -163.9,-18.5 -87.3,-42.3 -251.199,-109.7 -272.398,-121.6 -21.102,-11.9 -27.704,-51.6 -27.704,-51.6 l 22.5,-5.2 c 0,0 26.403,-39.7 39.602,-46.3 13.199,-6.6 97.8,-19.8 193,-22.5 95.2,-2.6 239.3,27.8 271,39.7 31.7,11.9 39.7,43.6 39.7,43.6 l 46.2,-23.8 c 0,0 8,37 0,55.5"
         style="fill:#111011;fill-opacity:1;fill-rule:nonzero;stroke:none"
         id="path50" /><path
         d="m 2604.2,3270.81 -191.5,98.1 34.2,14.9 z m -73.5,-111.7 c 7.8,10 15.6,23.1 19,38.5 4.9,22.5 8.1,47.5 9.8,62.9 64.9,-42.1 119.7,-82.1 119.7,-82.1 0,0 -67.1,-12.4 -148.5,-19.3 z m -67.7,-4.1 c -27.8,-0.9 -55.7,-0.7 -81.7,1.1 -14.5,1.1 -27.6,2 -39.4,2.9 -22.3,15.7 -52,44.1 -56.1,86.5 -4.2,44.5 15.6,77.7 30.1,95.6 13.7,9.6 30.5,15.9 52.8,15.2 28.3,-0.9 84.2,-30 140.9,-64.4 3.7,-38.1 -10.8,-104 -46.6,-136.9 z m -225.6,12 c 0,0 -14.4,38.4 -35.3,38.4 -20.9,0 -51,-23.1 -51,-23.1 l -8.7,10 c 0,0 71.9,60.6 105.9,79.8 2.3,1.3 4.6,2.9 6.7,4.6 -4.4,-37 0.7,-81.9 39.8,-114.2 -48.9,3.7 -57.4,4.5 -57.4,4.5 z m 10.9,167.5 17.5,-3.9 -5.2,-24.2 v -0.1 l -69.5,-40.5 c 4.5,4.4 57.2,68.7 57.2,68.7 z m 596.1,121.4 c 0,0 -44.6,-2 -86.5,-6.6 -41.9,-4.7 -102.5,21.9 -102.5,21.9 20.9,13.2 80,72.3 110.1,103.1 h 0.1 c 11,11.3 18.2,18.7 18.2,18.7 l -30.6,4 c -32.7,-16.3 -68.9,-31.9 -106.7,-46.5 -190,-73.4 -418.2,-122.5 -418.2,-122.5 0,0 -18.2,-8.7 -27.5,-21.3 -9.3,-12.7 7.1,-82.6 7.1,-82.6 l -90.2,-106.3 c 4,-4.1 -6.6,-58.3 18.5,-63.6 25.1,-5.3 64.8,23.8 64.8,23.8 0,0 14.5,-34.4 41,-42.3 26.4,-8 272.3,-22.8 330.4,-33.2 0,0 152.1,6.7 203.6,68.9 0,0 -198.7,176 -295.2,225.9 28.8,13.6 84.1,38.5 102,38 24.7,-0.7 175.7,-14 175.7,-14 0,0 45.3,7.3 75.3,7.3 29.9,0 10.6,27.3 10.6,27.3"
         style="fill:#111011;fill-opacity:1;fill-rule:nonzero;stroke:none"
         id="path52" /><path
         d="m 2385.99,3206.14 c 30.04,0 54.39,24.35 54.39,54.39 0,30.03 -24.35,54.38 -54.39,54.38 -30.03,0 -54.38,-24.35 -54.38,-54.38 0,-30.04 24.35,-54.39 54.38,-54.39"
         style="fill:#111011;fill-opacity:1;fill-rule:nonzero;stroke:none"
         id="path54" /><path
         d="m 2647.95,2978 c -19.26,2.4 -106.73,-72.23 -129.2,-88.28 -22.47,-16.05 -72.23,-3.21 -170.94,0 -98.71,3.21 -89.09,36.11 -108.34,69.02 -19.27,32.9 -65.01,97.1 -65.01,97.1 0,0 -21.67,-10.43 -24.08,-10.43 0,0 34.51,-82.66 52.97,-170.94 18.46,-88.28 49.76,-91.49 49.76,-91.49 0,0 244.77,1.61 277.61,15.25 32.84,13.64 117.23,165.32 117.23,165.32 0,0 19.26,12.04 0,14.45"
         style="fill:#111011;fill-opacity:1;fill-rule:nonzero;stroke:none"
         id="path56" /><path
         d="m 1968.21,2728.32 -14.7,-34.3 c 0,0 48.06,-5.69 80.03,-42.46 32.66,-37.56 68.59,-84.92 99.62,-155.14 31.03,-70.23 99.62,-151.89 212.31,-127.39 l -8.17,16.33 c 0,0 -42.46,-11.43 -127.38,125.75 -84.93,137.19 -117.59,174.75 -117.59,174.75 0,0 -13.06,27.76 -65.32,27.76 -52.26,0 -58.8,14.7 -58.8,14.7"
         style="fill:#111011;fill-opacity:1;fill-rule:nonzero;stroke:none"
         id="path58" /><path
         d="m 1805.59,3562.79 -30.48,375.96 -23.22,-10.17 -30.49,-358.54 c 30.49,-30.48 84.19,-7.25 84.19,-7.25"
         style="fill:#111011;fill-opacity:1;fill-rule:nonzero;stroke:none"
         id="path60" /><path
         d="m 2008.21,3500.37 c -32.54,31.93 -45.84,287.41 -45.84,287.41 h -21.78 l -11.61,-269.99 c 4.35,-42.1 79.23,-17.42 79.23,-17.42"
         style="fill:#111011;fill-opacity:1;fill-rule:nonzero;stroke:none"
         id="path62" /><path
         d="m 3423.6,3496.41 c 0,0 32.9,-75.2 94,-82.3 v -237.3 l 30.6,-17.7 c 0,0 70.5,154.3 70.5,224.7 l 21.1,-16.7 c 0,0 -21.1,-190.3 -82.2,-274.9 -36.8,-51 -57.5,-126.9 -70.6,-194.8 -8.6,-44.8 -14,-86 -18.7,-114.4 -3.2,-19 -6.6,-45.9 -10.9,-74.8 -11.8,-79.8 -29.8,-175.4 -64.3,-167.4 -15.2,3.6 -23,20 -26.7,40.6 -7.6,43 3.2,104.3 3.2,104.3 0,0 75.2,-11.8 61.1,86.9 0,0 -13.5,81.2 9.7,182.4 7.4,32.2 18.5,66.5 34.9,100.8 0,0 -23.5,54.2 -110.4,54.7 0,0 -16.5,202.6 -94,317.7 0,0 32.9,195.1 -11.8,350.2 -44.6,155.1 -47,211.5 -47,211.5 h 16.5 c 0,0 258.2,-214.4 384.8,-268.5 l 28.8,-10.1 c -8.5,2.1 -18.3,5.6 -28.8,10.1 l -302.6,106.3 -11.7,-28.2 c 0,0 343.1,-279.3 648.6,-415.7 0,0 -383.1,4.5 -524.1,112.6 z m -80.4,-485.1 c -4.6,-69.3 -29.7,-119.5 -29.7,-119.5 l -101.4,34.6 13.3,111.5 37.9,318.4 c 0,0 72.7,-209.2 79.6,-300.5 1.2,-15.5 1.1,-30.4 0.3,-44.5 z m -52.7,-1292.1 -610.6,-559.2 c 0,0 34.1,146 57.3,265.2 39.6,42.7 106,163.2 177,294.7 70.9,131.6 146.4,274 203.9,360.4 84.2,126.1 163,323.9 199.4,421.4 4.4,11.7 8.1,22 11.2,30.5 1.4,-1.4 2.9,-2.7 4.4,-3.9 1.8,-1.6 3.7,-2.9 5.6,-4.1 -99.9,-323.2 -48.2,-805 -48.2,-805 z M 2591,1047.31 C 2573.2,964.309 2448.7,849.711 2448.7,849.711 L 2401.3,626.41 C 2312.4,586.91 2255.1,415.012 2255.1,415.012 2136.5,426.91 2063.4,258.91 2063.4,258.91 c 0,0 -183.8,-9.898 -337.9,-9.898 -154.2,0 -272.7,35.597 -328.1,47.398 -55.3,11.899 -124.4,472.301 -124.4,583 0,110.602 -92.9,167.9 -92.9,167.9 h -29.7 l -11.8,302.4 c -81,23.7 -118.6,148.2 -118.6,148.2 0,0 -4.7,70.1 5.8,141.6 34,5.8 66,13.9 93.1,23.9 32.2,11.8 67.6,28.6 102.6,47.1 104.9,55.2 206,126 206,126 6.7,-1.8 13.3,-3.5 19.7,-5 2.8,-22.4 12.6,-54.4 43.1,-82.7 53.4,-49.4 126.5,-92.8 264.8,-58.2 96.9,24.3 155.3,87.7 181.7,123.5 140.9,-36.8 496.8,-55.9 765.2,74.5 3.2,-53.1 8.2,-159.3 3.9,-253.4 -1.2,-26.8 -3.2,-52.7 -6.2,-76.1 -17.8,-138.3 -90.9,-428.8 -108.7,-511.8 z m -767.7,822.5 c -46.1,-17.3 -99.6,-79 -196.6,-93.3 -67.5,-10 -98.5,17.3 -112.6,43.2 152.9,-16.6 204.9,57.9 258,69.1 32.2,6.7 35.4,-2.8 51.2,-19 z m -998.402,-177 c 0,0 62.102,8.2 53.903,44.1 -8.199,35.9 -35.903,16.3 -124.102,35.9 -88.199,19.6 -204.199,71.9 -259.699,168.2 0,0 81.699,-68.6 204.199,-44.1 0,0 21.199,26.2 21.199,36 0,9.5 -50.597,52.7 -53.699,55.4 5.403,-1.9 116.102,-41 195.801,-52.2 58,-8.1 188.7,25.8 280.5,66.7 37.4,16.6 68.3,34.4 85.3,50.9 58.8,57.2 145.3,182.9 145.3,182.9 0,0 168.2,-114.3 236.8,-96.3 l 117.6,127.3 c 0,0 129,39.2 210.7,-24.5 81.6,-63.6 153.9,-236.4 496.4,-102.8 0,0 -127.3,-80.1 -112.6,-114.4 14.5,-33.8 238.8,65.9 244.8,68.5 -5.3,-3.8 -176.1,-127.6 -171.3,-148.5 4.9,-21.2 -3.1,-70.2 328.3,27.8 0,0 -166.7,-114.3 -485.1,-117.6 -318.5,-3.3 -377.3,75.1 -462.2,78.4 -84.9,3.3 -107.8,-58.8 -196,-47.4 -88.2,11.5 -166.5,52.1 -249.8,-31.1 -35.3,-35.2 -89,-73.1 -157.3,-103.7 -92.9,-41.7 -212.502,-69.9 -349.002,-59.5 z m 25.801,848 c -131.801,311.6 -232.199,467.8 -188.898,921.1 0.097,0.1 0.097,0.1 0.097,0.1 0.102,1.3 0.204,2.5 0.301,3.8 0.903,9 1.801,18.1 2.801,27.4 0,0.2 0,0.3 0.102,0.5 37.898,354.2 225.398,702.7 360.698,888.3 v 0.1 c 47,64.4 87.7,109.2 113.6,127.8 100.6,71.8 173.2,89.8 259.7,11.9 7.4,-6.6 14.9,-12.8 22.4,-18.5 80.8,-61.9 169.6,-73.5 240.8,-32.4 77.9,45 364.6,492.8 477.3,497.7 15.3,0.7 28.9,-3.5 28.9,-3.5 0,0 331.6,-461.5 630.5,-677.3 l -314.9,99.2 c -25.4,-37.6 77.1,-96.3 157,-159.8 79.9,-63.4 303.1,-188 303.1,-188 -148,-16.4 -380.7,94 -390.1,51.7 -9.4,-42.3 61.1,-96.3 61.1,-96.3 -79.9,11.7 -320.4,159.8 -320.4,159.8 72.1,-131.6 362.7,-251.5 384.4,-215.7 21.6,35.8 -64,107.6 -64,107.6 96.4,-49.4 352.5,-47 352.5,-47 0,0 31.5,-38.9 72.1,-95.3 v -0.1 c 76.1,-106 183.9,-274 174.7,-362.9 -9.6,-92.6 -52.8,-346.1 -79.5,-499.3 -12.6,-72.4 -21.6,-122.3 -21.6,-122.3 l 223.3,-120.9 c 0,0 -4,-84.2 -11.9,-153.2 -32.4,-63.5 -98.6,-199.6 -136.3,-321.9 -40.9,-132.9 -167.4,-343.2 -250.7,-487.7 -21,-36.5 -39.3,-68.8 -52.7,-94.5 -38.4,-73.5 -91.2,-149.1 -129.2,-200.1 2.4,36.1 1,82.4 -2.2,130.4 -5.8,88 -17.8,182.1 -24.5,231 2.7,1.4 5.4,2.8 8.1,4.2 274.3,151.9 253.1,336.4 253.1,336.4 -111,-71.8 -207.4,-96.3 -207.4,-96.3 156.8,122.5 251.5,318.4 251.5,318.4 l -13.1,9.8 c -125.3,-152.7 -310.9,-237.3 -316.7,-239.9 112.6,101.2 133.8,239.9 133.8,239.9 l -22.8,8.2 c -71.9,-161.7 -271.1,-194.3 -447.5,-223.7 -109.5,-18.3 -197,21.4 -259.3,63.6 -38,25.6 -66.7,52.1 -85.3,67 -49,39.2 -137.2,45.8 -137.2,45.8 -129,-9.8 -323.3,-187.9 -323.3,-187.9 -27.8,8.2 -138.8,75.2 -138.8,75.2 -34.3,148.6 -18,458.9 17.9,609.1 35.9,150.3 215.6,375.6 302.1,418.1 86.6,42.5 249.9,47.4 249.9,47.4 -60.4,88.1 -305.4,57.1 -305.4,57.1 -63.7,65.3 -218.8,83.3 -218.8,83.3 -30.6,18.5 -68.2,38.8 -101,56 -0.1,-0.1 -0.1,-0.1 -0.1,0 -42.6,22.1 -76.9,38.7 -76.9,38.7 l -3.3,-26.1 23,-25.5 45.5,-50.4 c -3,0.8 -50.7,14.6 -112.4,41.2 -28.1,12.1 -59,27 -90,44.5 -101.3,57.1 -231.902,94.7 -231.902,94.7 -4.296,-6.8 -3.398,-15.8 1.403,-26.2 0,0 0,0 0.097,-0.1 27.801,-60.2 183.002,-168 183.002,-168 -156.701,42.4 -326.599,127.3 -326.599,127.3 -34.301,-57.1 178,-187.8 178,-187.8 0,0 109.399,-19.6 274.399,-32.6 164.9,-13.1 455.6,-73.5 455.6,-73.5 -360.3,-279.5 -318.4,-728.4 -318.4,-728.4 0,0 -197.3,-435.3 -330.6,-577.4 -26.7,80.1 -90.101,262 -189.101,496.2 z m -393.898,735.9 c -80,-24.1 -53.301,92.8 -37.903,270.8 10.903,125.9 44.204,257.3 62.801,323.5 114.699,44 184,100.9 186.102,102.5 -3.102,-9.3 -102.602,-307.8 -110.403,-679.2 -18.296,0 -51.5,-2.8 -100.597,-17.6 z m -408.9026,762.4 c 0,0 283.7036,15.1 441.4996,79 157.903,63.8 240.102,167.9 240.102,167.9 0,0 -261.898,-92.4 -381.102,-18.5 l 171.301,80.6 c 0,0 -141.097,25.2 -218.301,28.5 0,0 183,63.8 214.903,95.7 31.898,31.9 0,31.9 0,31.9 0,0 -35.301,-8.4 -95.699,-1.7 -60.403,6.8 -107.5,43.7 -107.5,43.7 0,0 599.398,78 797.598,173.31 l 119.6,-106.21 11.3,-10 c 0,0 -18.9,-5.7 -47.1,-19.4 -51.5,-24.9 -133.9,-76.5 -189.4,-168.7 -85.799,-142.7 -141.202,-250.1 -141.202,-250.1 0,0 -114.199,-105.8 -272,-169.6 -157.898,-63.8 -332.5,-95.7 -332.5,-95.7 0,0 60.5,26.8 78.903,62.1 0,0 -236.699,18.5 -290.4026,77.2 z M 1009.4,5192.81 c 44.9,365.4 633.6,353.4 754.1,332.4 120.5,-21 473.9,-152.69 473.9,-152.69 0,0 -258.9,23.89 -473.9,62.89 -215,38.9 -415.7,-147.2 -382.7,-349.2 32.9,-201.9 89.8,-318.8 89.8,-318.8 l -50.2,-36 -0.3,-0.2 -129.2,-92.5 c 0,0 -5,2.9 -13.6,8.6 -61.3,40.6 -307.3,225.1 -267.9,545.5 z m 919.6,-308.5 -275.7,-164.79 c 0,0 -36.4,39.39 -78.5,100.5 -78.2,113.19 -176,300.79 -98.2,450.59 117.7,226.7 517.5,94.6 531.2,90 -8.9,0.7 -150,9.8 -123.8,-146.9 11.6,-70.1 21.7,-141.4 29.3,-199.6 9.9,-76 15.7,-129.8 15.7,-129.8 z m 511.4,365.4 c 57.6,-74.9 521.8,-317.5 677.6,-383.4 155.7,-65.9 476.2,-209.7 643.9,-215.7 0,0 -113.8,-65.9 -524.1,21 -410.4,86.91 -320.5,24 -320.5,24 0,0 416.3,-386.4 709.8,-446.3 0,0 -281.5,3 -431.3,77.9 0,0 198.1,-258.1 395.1,-347.4 -12.1,4 -402.8,134.1 -679.9,302.6 -58.4,35.5 -111.7,72.6 -155.4,110.7 -254.6,221.6 -455.3,617 -569.1,617 -113.8,0 -131.8,-48 -131.8,-48 l -17.5,121.5 -29,202 25.5,32.91 c 0,0 349.1,6 406.7,-68.81 z m 568.8,-1146.9 c 81.7,-46.1 146.5,-84.7 146.5,-84.7 -45.6,6.6 -88.4,16.2 -128.3,27.8 -263.4,76.1 -402.8,240.1 -402.8,240.1 0,0 131.6,-47 260.5,-115.2 41.7,-22.1 84.9,-45.9 124.1,-68 z m 1044.2,-728.6 -561.6,314.9 c 0,0 2.3,16.4 195,-48.6 192.7,-65.1 293.8,15.7 293.8,15.7 -87,18.8 -416,263.2 -416,263.2 l -12.7,29.6 c 142.4,-51.9 247.8,-78 258.1,-44.2 0,0 -173.9,83.9 -377.5,317.5 0,0 299.9,-74.8 377.5,12 0,0 -368.6,155.8 -536.3,389.4 0,0 524.2,-89.9 584.1,41.9 0,0 -515.2,119.8 -886.6,326.5 -371.4,206.6 -261.3,101.8 -487.1,269.5 -225.7,167.8 -588.1,452.3 -1175.2,275.6 -587.002,-176.69 -467.201,-482.19 -308.5,-691.9 0,0 -572.099,-284.5 -751.798,-257.6 0,0 13.398,-104.8 187.898,-116.8 0,0 -175.898,-32.9 -205.801,-110.8 0,0 65.903,-18 164.699,-26.9 0,0 -71.898,-6 -89.898,-62.9 0,0 113.898,-95.9 239.602,-83.9 0,0 -350.403,-152.8 -545.102,-122.8 0,0 48,-120.9 251.602,-124.9 l -65.903,-45.8 c 0,0 16.801,-6.8 43.602,-14.7 48.398,-14.3 129.5,-32.4 202.597,-20.7 -50.097,-148.5 -61.597,-413.2 -67.699,-542.6 -7,-148.5 75.699,-74.4 124,-54.4 28.403,11.8 53.199,9.7 68.801,6 -0.102,-16.1 -0.102,-32.4 0.102,-48.7 6,-412.2 137.796,-517.7 191.699,-547.3 0,0 95.398,-174.9 131.597,-305.9 30.5,-110.7 84.403,-305.2 100.403,-362.9 -0.199,-0.1 -0.5,-0.2 -0.801,-0.3 -122.398,-29.4 -365.801,40.9 -365.801,40.9 0,0 -11.398,52.2 -42.398,45.7 -31.102,-6.5 98,-160 98,-160 -155.199,-4.9 -230.301,109.4 -230.301,109.4 0,0 -27.801,-65.4 86.5,-179.7 114.398,-114.3 272.801,-130.6 272.801,-130.6 -34.301,-24.5 -106.199,-22.9 -106.199,-22.9 41,-66 169.398,-82.8 287,-70.9 l -22.801,-214.5 -656.102,-262.8 19.801,-37.5 709.4,185.7 c -4,-128.4 31.6,-438.698 31.6,-438.698 37.6,23.797 85,116.597 85,116.597 44.9,-386.898 162,-636.3 162,-636.3 0,0 79.1,-132.399 213.4,-256.7973 134.4,-124.5 341.9,-86.99998 527.6,-71.2031 185.8,15.8008 201.6,67.2031 282.6,197.6014 81,130.399 128.5,413 128.5,413 112.6,142.301 207.5,343.899 207.5,343.899 l -43.5,3.902 29.6,77.099 c 203.6,-15.8 685.7,201.5 685.7,201.5 0,0 586.9,-130.4 586.9,-79 0,51.4 -501.9,282.6 -539.5,282.6 -37.5,0 -59.2,262.8 -59.2,262.8 0,0 7.9,229.2 15.7,454.5 6.2,178.2 17.5,295.8 21.9,337.1 3.8,-0.9 6.2,-1.3 6.2,-1.3 l 28.2,0.3 c 72.9,-7.1 84.6,145.7 98.7,239.7 14.1,94 25.9,216.2 103.4,351 77.6,134.8 68.2,253.8 68.2,253.8 l 383,-41.4 v 59.3"
         style="fill:#111011;fill-opacity:1;fill-rule:nonzero;stroke:none"
         id="path64" /><path
         d="m 1233.62,3242.87 c 0,-9.83 -7.97,-17.8 -17.8,-17.8 -9.83,0 -17.8,7.97 -17.8,17.8 0,9.83 7.97,17.8 17.8,17.8 9.83,0 17.8,-7.97 17.8,-17.8"
         style="fill:#ffffff;fill-opacity:1;fill-rule:nonzero;stroke:none"
         id="path66" /><path
         d="m 2412.3,3276.7 c 0,-9.53 -7.73,-17.26 -17.26,-17.26 -9.54,0 -17.26,7.73 -17.26,17.26 0,9.54 7.72,17.27 17.26,17.27 9.53,0 17.26,-7.73 17.26,-17.27"
         style="fill:#ffffff;fill-opacity:1;fill-rule:nonzero;stroke:none"
         id="path68" /><path
         d="m 3698.41,2418.87 0.81,-0.8 c 2.41,-4.83 5.36,-9.8 8.85,-14.89 2.68,-3.76 4.83,-6.58 6.44,-8.45 0.26,0 0.4,-0.14 0.4,-0.41 h 0.4 c 2.95,-3.49 5.77,-5.23 8.46,-5.23 2.68,0 4.82,3.22 6.43,9.66 v 1.21 c 0,0.53 0.13,0.93 0.4,1.21 1.88,17.97 3.49,41.85 4.84,71.63 -5.91,-2.96 -10.33,-5.37 -13.28,-7.25 -4.84,-2.68 -9.53,-6.03 -14.09,-10.06 -4.57,-4.02 -7.92,-7.91 -10.06,-11.67 -1.08,-2.15 -1.88,-4.16 -2.42,-6.03 -0.53,-1.35 -0.8,-3.49 -0.8,-6.44 0,-1.88 0.41,-4.02 1.2,-6.44 0.27,-0.54 0.54,-1.15 0.82,-1.81 0.26,-0.67 0.4,-1.15 0.4,-1.41 v -0.4 h 0.4 v -0.41 -0.4 h 0.4 v -0.4 l 0.4,-0.81 z m 177.88,103.42 3.22,-15.69 c -3.49,-0.54 -14.89,-1.81 -34.21,-3.82 -19.31,-2.01 -31.26,-3.56 -35.82,-4.63 -1.07,-0.54 -2.15,-0.8 -3.21,-0.8 2.14,-107.86 -11.42,-161.11 -40.66,-159.77 -5.37,0.54 -11.4,2.01 -18.1,4.43 l -1.61,0.8 c -5.37,1.88 -8.72,3.22 -10.06,4.03 -7.52,3.76 -13.68,7.51 -18.52,11.27 -5.63,4.02 -11,8.85 -16.09,14.48 -4.3,4.83 -8.72,10.34 -13.28,16.5 -3.22,4.83 -6.71,11 -10.46,18.51 l -0.41,1.21 -0.4,0.81 v 0.4 l -0.4,0.4 -0.4,0.81 -0.4,0.8 v 0.4 0.41 c -1.09,1.87 -1.75,3.75 -2.02,5.63 -1.08,3.48 -1.61,7.65 -1.61,12.48 0,5.09 0.53,9.38 1.61,12.87 1.07,3.76 2.82,7.51 5.23,11.27 2.15,3.75 4.56,6.98 7.25,9.66 1.61,1.87 4.28,4.43 8.04,7.65 3.76,2.95 9.66,6.84 17.71,11.67 5.37,2.67 11.53,5.63 18.51,8.85 2.95,1.07 4.83,1.74 5.64,2.01 0.8,46.15 -0.14,86.79 -2.82,121.94 -3.76,-0.27 -15.7,-1.21 -35.81,-2.82 -9.13,-0.8 -16.58,0.81 -22.34,4.83 -5.77,4.03 -9.46,9.26 -11.07,15.7 -1.6,6.44 -2.55,12.93 -2.81,19.51 -0.27,6.57 0,12.14 0.8,16.71 l 1.61,7.24 c 2.68,-0.8 9.46,-0.54 20.32,0.8 10.87,1.35 22.4,2.42 34.61,3.23 12.21,0.8 24.55,0.46 37.03,-1.01 12.47,-1.48 23,-6.18 31.58,-14.09 8.59,-7.91 13.28,-19.11 14.09,-33.6 v -4.02 c 0.27,-7.52 1.01,-24.62 2.21,-51.32 1.21,-26.7 2.08,-47.68 2.62,-62.98 4.83,1.07 16.97,2.42 36.42,4.03 19.45,1.61 30.79,2.68 34.01,3.21"
         style="fill:#111011;fill-opacity:1;fill-rule:nonzero;stroke:none"
         id="path70" /><path
         d="m 3925.78,2513.85 c -5.1,1.6 -10.87,0 -17.3,-4.83 0.53,-1.08 1.61,-2.42 3.22,-4.03 2.14,-2.15 4.42,-3.76 6.83,-4.83 1.34,-1.07 2.83,-1.75 4.43,-2.01 3.22,-0.8 4.96,-1.21 5.23,-1.21 3.22,-0.8 6.44,-1.2 9.66,-1.2 -1.87,10.19 -5.9,16.23 -12.07,18.11 z m -29.79,-93.37 c 6.71,-2.15 13.82,0.6 21.33,8.25 7.51,7.65 13.28,17.91 17.31,30.79 1.07,3.22 2.15,7.51 3.22,12.88 -5.37,-0.54 -9.52,-0.68 -12.47,-0.41 -0.55,0 -1.42,0.07 -2.62,0.2 -1.21,0.14 -2.28,0.27 -3.22,0.41 -0.94,0.13 -1.81,0.33 -2.62,0.6 -1.87,0.27 -4.69,0.94 -8.44,2.02 -4.58,1.33 -9.26,3.75 -14.09,7.24 -1.61,1.07 -2.68,1.87 -3.22,2.41 -0.54,-1.34 -1.88,-4.69 -4.02,-10.06 -4.03,-12.88 -5.17,-24.62 -3.42,-35.21 1.74,-10.61 5.83,-16.97 12.26,-19.12 z m 131.21,101.81 4.82,-8.44 c -1.35,-1.08 -3.22,-2.42 -5.63,-4.02 -0.28,-0.28 -0.8,-0.61 -1.62,-1.02 -0.8,-0.4 -1.33,-0.73 -1.61,-1 l -3.61,-2.41 c -0.27,-0.27 -0.88,-0.68 -1.82,-1.21 -0.93,-0.54 -1.68,-0.95 -2.2,-1.21 -0.55,-0.27 -1.35,-0.8 -2.43,-1.61 -1.07,-0.8 -1.87,-1.35 -2.41,-1.61 -2.96,-1.35 -4.7,-2.28 -5.23,-2.82 -0.54,-0.54 -1.48,-1.14 -2.81,-1.81 -1.35,-0.67 -2.29,-1.14 -2.83,-1.4 -0.26,-0.28 -0.74,-0.61 -1.4,-1.01 -0.68,-0.41 -1.15,-0.6 -1.41,-0.6 l -1.61,-0.81 c -0.27,0 -0.54,-0.14 -0.8,-0.4 -0.28,-0.28 -0.55,-0.41 -0.81,-0.41 -1.08,-0.27 -2.15,-0.8 -3.22,-1.6 -1.08,-0.28 -2.15,-0.81 -3.22,-1.61 -2.96,-1.35 -7.64,-3.36 -14.08,-6.04 -4.03,-1.61 -8.99,-3.36 -14.89,-5.23 -0.81,-0.27 -1.96,-0.6 -3.42,-1.01 -1.48,-0.4 -2.49,-0.6 -3.03,-0.6 -0.8,-4.83 -2.01,-9.66 -3.61,-14.49 -6.71,-20.93 -18.12,-36.96 -34.21,-48.09 -16.1,-11.14 -32.33,-14.15 -48.7,-9.06 -16.37,5.1 -27.9,16.84 -34.6,35.22 -6.71,18.37 -6.71,38.16 0,59.36 6.7,20.92 18.1,36.95 34.2,48.09 16.1,11.13 32.33,14.14 48.7,9.05 11,-3.49 19.98,-10.53 26.96,-21.12 6.98,-10.61 11,-22.88 12.07,-36.83 h 1.21 c 6.7,1.34 11.26,2.28 13.69,2.82 2.13,0.26 6.56,1.47 13.28,3.62 1.6,0.54 2.67,0.94 3.21,1.21 1.61,0.53 2.68,0.8 3.22,0.8 l 1.61,0.81 c 0.27,0 0.53,0.06 0.81,0.2 0.26,0.13 0.53,0.2 0.8,0.2 0.27,0.27 0.74,0.53 1.41,0.81 0.67,0.26 1.13,0.4 1.41,0.4 l 6.03,2.42 c 1.61,0.53 3.35,1.2 5.24,2.01 2.14,1.07 3.75,1.74 4.82,2.01 2.15,1.07 3.62,1.74 4.43,2.01 0.27,0.26 0.87,0.6 1.81,1.01 0.94,0.4 1.55,0.73 1.82,1 l 3.61,1.21 6.05,3.21"
         style="fill:#111011;fill-opacity:1;fill-rule:nonzero;stroke:none"
         id="path72" /><path
         d="m 4201.85,2500.16 7.65,-2.41 c -0.81,-2.69 -2.08,-6.18 -3.83,-10.46 -1.75,-4.3 -5.22,-11.87 -10.46,-22.74 -5.23,-10.87 -10.47,-20.33 -15.69,-28.37 -5.23,-8.05 -11.47,-15.1 -18.72,-21.13 -7.24,-6.04 -14.22,-8.39 -20.92,-7.04 -7.79,1.61 -13.95,9.38 -18.51,23.34 -4.57,13.94 -7.52,28.84 -8.86,44.67 -1.34,15.83 -3.76,30.18 -7.24,43.06 -3.49,12.88 -8.19,19.31 -14.09,19.31 -4.82,0 -8.58,-5.37 -11.27,-16.1 -2.68,-10.73 -4.96,-23.67 -6.84,-38.83 -1.88,-15.16 -4.42,-30.32 -7.64,-45.47 -3.22,-15.16 -9,-27.97 -17.31,-38.43 -8.32,-10.47 -19.05,-15.56 -32.19,-15.3 -8.59,-0.26 -15.49,4.76 -20.73,15.1 -5.23,10.32 -8.59,23.94 -10.05,40.84 -1.49,16.91 -2.22,35.88 -2.22,56.94 0,21.06 0.94,42.32 2.81,63.79 1.88,21.46 3.43,42.05 4.63,61.78 1.21,19.71 2.28,36.42 3.22,50.1 0.94,13.68 0.61,23.34 -1,28.97 1.87,0.54 4.35,1.01 7.44,1.41 3.08,0.4 8.46,0.27 16.1,-0.4 7.65,-0.67 14.29,-2.41 19.92,-5.23 5.64,-2.82 10.6,-8.19 14.89,-16.1 4.28,-7.92 5.9,-18.05 4.83,-30.38 -4.57,-59.57 -7.38,-109.46 -8.46,-149.71 10.2,48.03 25.09,72.04 44.68,72.04 10.46,0 18.58,-7.32 24.35,-21.94 5.76,-14.62 9.19,-30.78 10.26,-48.49 1.06,-17.71 2.88,-34.34 5.43,-49.9 2.55,-15.57 6.37,-24.02 11.46,-25.36 6.18,-1.6 14.1,3.63 23.75,15.7 9.66,12.07 17.85,24.55 24.56,37.42 l 10.05,19.32"
         style="fill:#111011;fill-opacity:1;fill-rule:nonzero;stroke:none"
         id="path74" /><path
         d="m 4218.75,2475.62 c -0.54,-13.69 5.23,-18.51 17.3,-14.49 9.66,3.48 19.58,10.73 29.79,21.73 1.06,10.19 2.01,17.84 2.81,22.94 -4.29,0 -8.65,-0.34 -13.08,-1.01 -4.42,-0.67 -9.65,-1.88 -15.69,-3.62 -6.03,-1.75 -11,-4.83 -14.89,-9.26 -3.89,-4.42 -5.98,-9.85 -6.24,-16.29 z m 185.93,39.43 h 13.28 c -1.08,-3.76 -2.69,-8.65 -4.84,-14.68 -2.14,-6.04 -6.97,-16.78 -14.48,-32.2 -7.52,-15.43 -15.57,-29.11 -24.15,-41.05 -8.58,-11.94 -19.99,-22.74 -34.2,-32.39 -14.23,-9.66 -28.98,-14.49 -44.27,-14.49 -9.93,0 -17.64,3.56 -23.14,10.66 -5.5,7.11 -8.79,15.63 -9.86,25.56 -1.08,9.92 -1.2,22.13 -0.4,36.62 -18.78,-18.25 -38.64,-25.62 -59.56,-22.13 -13.15,2.41 -21.61,8.98 -25.36,19.71 -3.75,10.73 -2.88,22.27 2.62,34.61 5.5,12.34 14.02,22.14 25.56,29.38 19.04,11.81 40.64,15.7 64.78,11.67 0.81,12.34 0.54,21.33 -0.8,26.97 1.07,0.26 2.41,0.53 4.03,0.8 1.61,0.27 4.75,0.47 9.45,0.6 4.7,0.14 9.12,-0.07 13.28,-0.6 4.16,-0.54 8.72,-1.88 13.68,-4.03 4.96,-2.14 9.19,-5.02 12.69,-8.65 3.47,-3.62 6.23,-8.79 8.24,-15.49 2.01,-6.71 2.62,-14.63 1.82,-23.74 -4.03,-55.81 -0.95,-83.85 9.25,-84.11 4.03,-0.27 8.99,2.95 14.89,9.65 10.73,12.08 20.05,25.42 27.97,40.05 7.91,14.62 13.21,26.22 15.89,34.81 l 3.63,12.47"
         style="fill:#111011;fill-opacity:1;fill-rule:nonzero;stroke:none"
         id="path76" /><path
         d="m 4551.55,2511.43 8.45,-4.02 c -11.81,-23.08 -20.12,-38.77 -24.95,-47.09 -4.03,-7.78 -8.19,-14.22 -12.47,-19.31 -3.76,-4.3 -6.85,-7.39 -9.26,-9.26 -0.27,-0.27 -0.74,-0.6 -1.41,-1.01 -0.67,-0.4 -1.14,-0.74 -1.4,-1 -0.28,-0.27 -0.81,-0.54 -1.61,-0.81 -0.81,-0.27 -1.35,-0.54 -1.62,-0.8 -0.27,0 -0.94,-0.27 -2.01,-0.8 h -1.21 l -0.4,-0.41 h -1.61 -0.4 -0.4 -0.4 -1.21 c -1.88,0 -3.49,0.54 -4.83,1.61 -1.88,0.81 -3.22,2.14 -4.03,4.02 -0.8,1.07 -1.87,4.03 -3.21,8.86 -0.55,3.75 -0.81,8.99 -0.81,15.7 0.26,6.69 0.94,16.49 2.01,29.37 0.54,6.44 0.81,11.13 0.81,14.09 0,5.9 -0.14,9.92 -0.4,12.07 -0.27,1.07 -0.95,1.87 -2.01,2.41 -0.81,0.54 -1.89,0.14 -3.22,-1.2 l -2.42,-2.42 c -1.88,-2.41 -3.76,-5.63 -5.63,-9.66 -1.35,-2.41 -3.09,-6.03 -5.24,-10.86 -4.02,-10.47 -6.58,-17.44 -7.64,-20.93 -3.49,-10.2 -6.71,-21.06 -9.66,-32.6 l -3.62,-13.28 c -5.38,-20.92 -17.04,-31.66 -35.01,-32.19 -11.01,-0.27 -18.99,3.96 -23.95,12.67 -4.97,8.72 -7.11,19.86 -6.44,33.41 0.67,13.54 1.87,28.23 3.62,44.07 1.75,15.82 3.62,30.58 5.63,44.26 2.01,13.68 1.95,25.22 -0.19,34.61 0.8,0.27 2.01,0.54 3.62,0.8 1.61,0.27 4.56,0.54 8.85,0.81 4.29,0.26 8.39,0.06 12.27,-0.6 3.89,-0.68 8.12,-2.29 12.68,-4.83 4.56,-2.55 8.46,-6.04 11.67,-10.46 3.22,-4.43 5.7,-10.67 7.45,-18.72 1.74,-8.05 2.34,-17.44 1.81,-28.17 v -2.01 c 13.94,24.15 26.29,36.08 37.02,35.81 7.51,-0.26 11.8,-6.23 12.88,-17.9 1.07,-11.68 0.54,-22.48 -1.61,-32.4 0,-2.15 -0.27,-5.1 -0.8,-8.85 v -2.42 c -0.55,-3.22 -1.08,-8.32 -1.61,-15.29 0,-6.17 0.13,-10.46 0.4,-12.88 0.53,-2.15 0.93,-3.49 1.21,-4.02 l 0.4,-0.4 0.4,-0.41 h 0.4 0.41 l 1.2,0.41 h 0.81 0.4 c 0,0.26 0.26,0.4 0.8,0.4 0.26,0.26 0.54,0.4 0.81,0.4 0.53,0.26 0.94,0.41 1.2,0.41 l 0.81,0.8 c 0.54,0.26 0.94,0.53 1.21,0.8 0.81,0.54 3.22,2.82 7.24,6.84 4.56,5.37 8.58,11.27 12.07,17.71 l 24.15,44.67"
         style="fill:#111011;fill-opacity:1;fill-rule:nonzero;stroke:none"
         id="path78" /><path
         d="m 4685.16,2511.43 8.44,-4.02 c -11.8,-23.08 -20.11,-38.77 -24.95,-47.09 -4.02,-7.78 -8.18,-14.22 -12.47,-19.31 -3.76,-4.3 -6.84,-7.39 -9.26,-9.26 -0.27,-0.27 -0.74,-0.6 -1.4,-1.01 -0.68,-0.4 -1.15,-0.74 -1.41,-1 -0.27,-0.27 -0.81,-0.54 -1.61,-0.81 -0.81,-0.27 -1.35,-0.54 -1.61,-0.8 -0.28,0 -0.95,-0.27 -2.01,-0.8 h -1.22 l -0.39,-0.41 h -1.62 -0.4 -0.4 -0.4 -1.21 c -1.87,0 -3.49,0.54 -4.82,1.61 -1.89,0.81 -3.22,2.14 -4.04,4.02 -0.8,1.07 -1.87,4.03 -3.21,8.86 -0.55,3.75 -0.81,8.99 -0.81,15.7 0.26,6.69 0.94,16.49 2.01,29.37 0.54,6.44 0.81,11.13 0.81,14.09 0,5.9 -0.13,9.92 -0.4,12.07 -0.27,1.07 -0.94,1.87 -2.01,2.41 -0.81,0.54 -1.88,0.14 -3.22,-1.2 l -2.41,-2.42 c -1.89,-2.41 -3.76,-5.63 -5.64,-9.66 -1.35,-2.41 -3.09,-6.03 -5.23,-10.86 -4.03,-10.47 -6.59,-17.44 -7.65,-20.93 -3.49,-10.2 -6.71,-21.06 -9.66,-32.6 l -3.62,-13.28 c -5.37,-20.92 -17.04,-31.66 -35.01,-32.19 -11.01,-0.27 -18.99,3.96 -23.95,12.67 -4.97,8.72 -7.11,19.86 -6.43,33.41 0.66,13.54 1.86,28.23 3.61,44.07 1.75,15.82 3.62,30.58 5.64,44.26 2.01,13.68 1.94,25.22 -0.2,34.61 0.8,0.27 2.01,0.54 3.62,0.8 1.62,0.27 4.56,0.54 8.85,0.81 4.29,0.26 8.39,0.06 12.28,-0.6 3.88,-0.68 8.11,-2.29 12.67,-4.83 4.56,-2.55 8.46,-6.04 11.67,-10.46 3.23,-4.43 5.71,-10.67 7.45,-18.72 1.74,-8.05 2.35,-17.44 1.81,-28.17 v -2.01 c 13.95,24.15 26.29,36.08 37.02,35.81 7.51,-0.26 11.81,-6.23 12.88,-17.9 1.08,-11.68 0.54,-22.48 -1.61,-32.4 0,-2.15 -0.26,-5.1 -0.8,-8.85 v -2.42 c -0.55,-3.22 -1.07,-8.32 -1.61,-15.29 0,-6.17 0.14,-10.46 0.4,-12.88 0.54,-2.15 0.94,-3.49 1.21,-4.02 l 0.4,-0.4 0.4,-0.41 h 0.4 0.41 l 1.2,0.41 h 0.81 0.4 c 0,0.26 0.27,0.4 0.8,0.4 0.27,0.26 0.54,0.4 0.82,0.4 0.52,0.26 0.93,0.41 1.2,0.41 l 0.81,0.8 c 0.53,0.26 0.93,0.53 1.2,0.8 0.81,0.54 3.22,2.82 7.24,6.84 4.56,5.37 8.59,11.27 12.07,17.71 l 24.16,44.67"
         style="fill:#111011;fill-opacity:1;fill-rule:nonzero;stroke:none"
         id="path80" /><path
         d="m 4744.72,2505.4 c -1.62,0 -3.1,0 -4.44,0 -1.35,0 -3.42,-0.75 -6.24,-2.22 -2.81,-1.48 -5.29,-3.56 -7.44,-6.24 -2.15,-2.68 -4.42,-7.04 -6.83,-13.07 -2.43,-6.04 -4.3,-13.22 -5.64,-21.54 19.84,-1.34 33.26,5.1 40.24,19.32 1.07,2.42 1.87,5.3 2.42,8.65 0.53,3.36 -0.14,6.71 -2.02,10.07 -1.88,3.35 -5.23,5.03 -10.05,5.03 z m 83.3,1.61 8.04,-6.44 c -22.27,-41.6 -50.3,-73.39 -84.11,-95.38 -28.71,-18.78 -52.99,-25.08 -72.84,-18.92 -20.65,6.71 -29.77,26.16 -27.36,58.36 0.26,4.29 0.81,8.71 1.61,13.28 2.41,13.68 6.78,25.48 13.07,35.41 6.31,9.92 13.29,17.37 20.93,22.34 7.65,4.96 15.83,8.58 24.55,10.86 8.71,2.28 16.43,3.35 23.15,3.22 6.7,-0.13 12.33,-0.87 16.89,-2.21 5.9,-1.88 10.73,-5.17 14.5,-9.86 3.75,-4.7 5.89,-10.8 6.43,-18.31 0.54,-7.51 -2.15,-15.97 -8.05,-25.36 -9.39,-15.29 -26.83,-22.53 -52.31,-21.72 -2.96,-26.57 2.81,-38.78 17.3,-36.63 15.82,2.42 37.96,19.05 66.4,49.9 16.37,17.98 26.96,31.8 31.8,41.46"
         style="fill:#111011;fill-opacity:1;fill-rule:nonzero;stroke:none"
         id="path82" /><path
         d="m 4850.55,2373.8 c 2.42,-2.68 6.04,-5.64 10.86,-8.85 l 2.42,-1.21 c 9.12,-3.22 14.75,-1.34 16.9,5.64 2.15,7.24 1.82,15.08 -1,23.54 -2.82,8.45 -6.38,15.89 -10.67,22.33 -4.29,6.44 -10.87,15.56 -19.72,27.37 -1.34,1.6 -2.28,2.81 -2.82,3.62 -2.15,-4.57 -3.88,-9.8 -5.22,-15.7 -1.61,-7.78 -2.29,-15.16 -2.01,-22.13 0.26,-2.15 0.66,-5.64 1.2,-10.47 0.26,-0.8 0.53,-1.88 0.81,-3.21 0.26,-1.35 0.52,-2.56 0.8,-3.63 0.26,-1.07 0.54,-2.01 0.8,-2.81 1.35,-5.1 3.89,-9.93 7.65,-14.49 z m 123.95,121.53 1.61,-9.66 c -1.61,0.81 -3.89,1.95 -6.84,3.43 -2.95,1.47 -8.52,3.68 -16.7,6.64 -8.19,2.95 -15.9,5.03 -23.15,6.23 -7.23,1.21 -15.08,1.27 -23.53,0.21 -8.46,-1.08 -15.36,-4.03 -20.74,-8.86 2.95,-4.57 7.18,-10.8 12.69,-18.71 5.49,-7.92 9.92,-14.36 13.27,-19.32 3.36,-4.97 7.38,-11.13 12.08,-18.51 4.69,-7.38 8.26,-13.55 10.67,-18.51 2.41,-4.97 4.89,-10.6 7.44,-16.9 2.55,-6.31 3.88,-11.81 4.02,-16.5 0.14,-4.69 -0.26,-9.46 -1.2,-14.29 -0.95,-4.83 -3.1,-9.26 -6.45,-13.28 -3.35,-4.02 -7.71,-7.65 -13.07,-10.86 -19.05,-9.13 -35.15,-12.21 -48.29,-9.26 h -0.4 c -0.81,0 -1.35,0.13 -1.61,0.4 -3.5,0.54 -6.85,1.48 -10.06,2.82 -3.76,1.07 -8.46,3.35 -14.09,6.84 -6.18,4.02 -11.27,8.59 -15.3,13.68 -5.1,6.44 -8.85,13.69 -11.27,21.73 0,0.54 -0.06,1.15 -0.19,1.81 -0.14,0.67 -0.21,1.14 -0.21,1.41 l -0.4,0.81 v 0.8 l -0.4,1.61 -0.4,1.21 v 1.61 c -0.27,0.81 -0.41,1.88 -0.41,3.22 -0.8,4.02 -1.2,8.31 -1.2,12.88 0,9.66 1.06,18.64 3.21,26.96 2.42,8.31 5.9,16.76 10.47,25.35 0,0.27 0.13,0.4 0.4,0.4 l 0.4,0.81 c -4.28,5.9 -8.72,12.34 -13.28,19.31 -7.51,11.81 -12.67,22.74 -15.49,32.8 -2.82,10.07 -3.48,18.45 -2.01,25.16 1.47,6.7 4.02,12.74 7.65,18.1 3.62,5.37 7.98,9.59 13.07,12.68 5.1,3.09 9.87,5.7 14.29,7.85 4.42,2.15 8.25,3.48 11.47,4.03 l 4.83,1.2 c -6.98,-16.9 0.14,-42.39 21.33,-76.46 8.31,4.56 17.36,7.31 27.17,8.25 9.78,0.94 18.64,0.47 26.55,-1.41 7.92,-1.88 15.29,-4.16 22.14,-6.84 6.84,-2.68 12.14,-5.23 15.9,-7.65 l 6.03,-3.22"
         style="fill:#111011;fill-opacity:1;fill-rule:nonzero;stroke:none"
         id="path84" /><path
         d="m 3786.54,2199.35 c -5.9,0.26 -11.93,-4.7 -18.1,-14.9 -6.17,-10.2 -11.55,-23.07 -16.11,-38.63 -4.56,-15.56 -8.18,-28.77 -10.86,-39.64 -2.68,-10.86 -4.69,-20.32 -6.03,-28.37 v -2.82 c 19.84,13.95 36.22,35.82 49.09,65.6 10.47,24.68 13.68,42.26 9.66,52.72 -1.61,3.75 -4.16,5.76 -7.65,6.04 z m -43.45,-243.48 c 2.13,0.81 5.08,2.15 8.84,4.03 3.76,1.87 10.34,5.83 19.73,11.87 9.38,6.03 17.64,12.41 24.74,19.11 7.1,6.71 13.48,15.3 19.12,25.76 5.63,10.47 8.32,21.19 8.04,32.19 -0.26,6.44 -2.6,11.34 -7.04,14.7 -4.42,3.35 -9.99,5.02 -16.7,5.02 -6.71,0 -14.02,-1.07 -21.93,-3.22 -7.91,-2.15 -15.69,-5.23 -23.34,-9.25 -7.65,-4.02 -14.42,-8.45 -20.32,-13.28 -1.08,-53.93 1.87,-82.9 8.86,-86.93 z m 61.57,139.24 c 19.31,0 32.65,-5.83 40.04,-17.5 7.37,-11.67 8.91,-25.76 4.62,-42.26 -4.29,-16.5 -12.87,-32.53 -25.76,-48.09 -31.12,-37.56 -72.97,-56.34 -125.55,-56.34 -9.66,-0.26 -17.44,4.9 -23.34,15.5 -5.91,10.59 -9.66,24.47 -11.27,41.65 -1.61,17.16 -2.41,36.62 -2.41,58.35 0,21.73 1,43.66 3.01,65.8 2.02,22.13 3.68,43.32 5.03,63.58 1.34,20.25 2.55,37.56 3.62,51.92 1.08,14.35 0.67,24.75 -1.2,31.19 1.07,0.26 2.54,0.53 4.43,0.8 1.87,0.27 5.43,0.53 10.66,0.8 5.24,0.27 10.2,0.07 14.89,-0.6 4.69,-0.67 9.86,-2.21 15.49,-4.63 5.64,-2.41 10.39,-5.63 14.29,-9.65 3.89,-4.03 6.97,-9.8 9.26,-17.31 2.27,-7.51 3.02,-16.37 2.2,-26.56 -0.8,-10.47 -1.6,-22.81 -2.41,-37.02 17.17,37.02 37.29,54.19 60.37,51.51 18.77,-3.49 26.02,-18.38 21.73,-44.67 -4.29,-26.3 -17.3,-52.59 -39.03,-78.88 6.44,1.61 13.54,2.41 21.33,2.41"
         style="fill:#111011;fill-opacity:1;fill-rule:nonzero;stroke:none"
         id="path86" /><path
         d="m 4043.29,2071.37 8.86,0.4 c 3.75,-0.8 5.09,-2.95 4.02,-6.44 0,-0.27 -0.95,-3.62 -2.82,-10.06 -1.88,-6.44 -3.89,-13.41 -6.04,-20.92 -2.15,-7.52 -5.23,-16.7 -9.25,-27.57 -4.03,-10.87 -8.26,-21.27 -12.68,-31.19 -4.42,-9.93 -9.85,-19.99 -16.3,-30.18 -6.43,-10.19 -13.08,-18.92 -19.92,-26.16 -6.84,-7.24 -14.69,-13.08 -23.54,-17.51 -8.85,-4.42 -17.97,-6.36 -27.37,-5.83 -7.23,0.27 -13.28,2.62 -18.1,7.04 -4.84,4.43 -8.19,10.54 -10.06,18.31 -1.89,7.79 -3.09,16.1 -3.63,24.96 -0.54,8.85 -0.2,19.17 1.01,30.98 1.2,11.8 2.48,22.47 3.82,31.99 1.34,9.53 2.88,20.19 4.63,32 1.74,11.8 3.01,20.92 3.82,27.36 -16.9,0.27 -30.25,1.82 -40.04,4.63 -9.8,2.82 -16.03,6.37 -18.71,10.67 -2.69,4.28 -4.37,9.11 -5.03,14.48 -0.68,5.37 -0.4,10.93 0.81,16.71 1.2,5.76 0.73,11.46 -1.42,17.1 1.61,0.8 3.69,1.61 6.24,2.41 2.55,0.81 7.11,1.74 13.68,2.82 6.57,1.07 12.34,1.07 17.31,0 4.96,-1.08 9.26,-4.16 12.88,-9.25 3.62,-5.11 5.03,-12.48 4.23,-22.14 -0.55,-6.98 5.22,-10.46 17.3,-10.46 4.29,0.26 8.58,0.26 12.87,0 4.29,-0.28 9.4,-1.41 15.29,-3.43 5.9,-2.01 10.81,-4.89 14.69,-8.65 3.89,-3.76 7.04,-9.32 9.47,-16.7 2.41,-7.38 2.94,-16.03 1.61,-25.95 -6.45,-49.37 -9.4,-79.42 -8.86,-90.15 0.54,-20.39 7.51,-23.34 20.93,-8.85 9.38,9.92 18.31,25.69 26.75,47.28 8.46,21.59 14.56,40.71 18.32,57.35 l 5.23,24.95"
         style="fill:#111011;fill-opacity:1;fill-rule:nonzero;stroke:none"
         id="path88" /><path
         d="m 4059.38,2045.62 c -0.53,-13.69 5.24,-18.51 17.31,-14.49 9.66,3.48 19.58,10.73 29.78,21.73 1.07,10.19 2.02,17.84 2.82,22.94 -4.29,0 -8.66,-0.34 -13.08,-1.01 -4.42,-0.67 -9.66,-1.88 -15.69,-3.62 -6.04,-1.75 -11.01,-4.83 -14.9,-9.26 -3.88,-4.42 -5.97,-9.85 -6.24,-16.29 z m 185.93,39.43 h 13.28 c -1.07,-3.76 -2.68,-8.65 -4.83,-14.68 -2.15,-6.04 -6.97,-16.78 -14.48,-32.2 -7.52,-15.43 -15.57,-29.11 -24.15,-41.05 -8.59,-11.94 -19.99,-22.74 -34.2,-32.39 -14.23,-9.66 -28.99,-14.49 -44.27,-14.49 -9.93,0 -17.65,3.56 -23.14,10.66 -5.5,7.11 -8.79,15.63 -9.87,25.56 -1.07,9.92 -1.2,22.13 -0.4,36.62 -18.78,-18.25 -38.63,-25.62 -59.56,-22.13 -13.14,2.41 -21.6,8.98 -25.35,19.71 -3.75,10.73 -2.88,22.27 2.62,34.61 5.49,12.34 14.01,22.14 25.55,29.38 19.05,11.81 40.65,15.7 64.79,11.67 0.81,12.34 0.54,21.33 -0.8,26.97 1.06,0.26 2.41,0.53 4.02,0.8 1.61,0.27 4.76,0.47 9.45,0.6 4.7,0.14 9.12,-0.07 13.28,-0.6 4.16,-0.54 8.73,-1.88 13.69,-4.03 4.96,-2.14 9.19,-5.02 12.68,-8.65 3.48,-3.62 6.23,-8.79 8.24,-15.49 2.02,-6.71 2.62,-14.63 1.82,-23.74 -4.02,-55.81 -0.95,-83.85 9.26,-84.11 4.02,-0.27 8.98,2.95 14.88,9.65 10.73,12.08 20.06,25.42 27.97,40.05 7.91,14.62 13.21,26.22 15.9,34.81 l 3.62,12.47"
         style="fill:#111011;fill-opacity:1;fill-rule:nonzero;stroke:none"
         id="path90" /><path
         d="m 4443.71,2070.16 7.65,-2.41 c -0.81,-2.69 -2.08,-6.18 -3.83,-10.46 -1.75,-4.3 -5.23,-11.87 -10.46,-22.74 -5.23,-10.87 -10.47,-20.33 -15.69,-28.37 -5.24,-8.05 -11.48,-15.1 -18.72,-21.13 -7.24,-6.04 -14.22,-8.39 -20.92,-7.04 -7.79,1.6 -13.96,9.38 -18.52,23.34 -4.57,13.94 -7.52,28.84 -8.86,44.67 -1.33,15.83 -3.76,30.18 -7.23,43.06 -3.5,12.88 -8.2,19.31 -14.09,19.31 -4.83,0 -8.59,-5.37 -11.27,-16.1 -2.69,-10.73 -4.96,-23.67 -6.84,-38.83 -1.88,-15.16 -4.42,-30.32 -7.65,-45.47 -3.22,-15.16 -8.99,-27.97 -17.3,-38.43 -8.32,-10.47 -19.05,-15.56 -32.2,-15.3 -8.58,-0.26 -15.49,4.76 -20.72,15.1 -5.24,10.32 -8.59,23.94 -10.06,40.84 -1.48,16.91 -2.22,35.88 -2.22,56.94 0,21.06 0.94,42.32 2.82,63.79 1.87,21.46 3.42,42.05 4.63,61.78 1.21,19.71 2.27,36.42 3.22,50.1 0.94,13.68 0.6,23.34 -1.01,28.97 1.88,0.54 4.36,1.01 7.44,1.41 3.09,0.4 8.46,0.27 16.11,-0.4 7.64,-0.67 14.28,-2.41 19.92,-5.23 5.63,-2.82 10.59,-8.19 14.88,-16.1 4.29,-7.92 5.9,-18.05 4.84,-30.38 -4.57,-59.57 -7.39,-109.46 -8.46,-149.71 10.19,48.03 25.09,72.04 44.68,72.04 10.46,0 18.57,-7.32 24.34,-21.94 5.76,-14.62 9.19,-30.78 10.27,-48.49 1.06,-17.71 2.88,-34.34 5.43,-49.9 2.54,-15.57 6.36,-24.02 11.46,-25.36 6.17,-1.6 14.09,3.63 23.75,15.7 9.66,12.07 17.84,24.55 24.55,37.42 l 10.06,19.32"
         style="fill:#111011;fill-opacity:1;fill-rule:nonzero;stroke:none"
         id="path92" /><path
         d="m 4723.4,2066.14 7.64,-1.61 c -1.61,-3.22 -3.82,-7.58 -6.64,-13.08 -2.81,-5.5 -8.85,-15.29 -18.1,-29.38 -9.26,-14.08 -18.59,-26.49 -27.97,-37.22 -9.4,-10.73 -21.08,-20.53 -35.02,-29.38 -13.95,-8.85 -27.5,-13.28 -40.65,-13.28 -8.04,0 -13.95,3.22 -17.7,9.66 -3.76,6.44 -5.57,14.82 -5.43,25.15 0.13,10.33 1.06,21.59 2.81,33.81 1.75,12.2 3.68,24.34 5.84,36.42 2.14,12.07 3.68,22.99 4.63,32.79 0.94,9.79 0.2,17.37 -2.22,22.74 -2.41,5.37 -6.84,7.38 -13.28,6.04 l -0.4,-0.41 c -4.02,-1.34 -7.78,-3.76 -11.27,-7.24 -4.29,-4.83 -7.64,-9.8 -10.05,-14.89 -2.69,-5.63 -5.1,-12.61 -7.25,-20.93 -1.89,-8.59 -3.49,-16.77 -4.84,-24.54 -0.26,-0.81 -0.53,-1.95 -0.8,-3.43 -0.27,-1.47 -0.4,-2.61 -0.4,-3.41 0,-0.55 -0.13,-1.21 -0.4,-2.02 -0.27,-0.8 -0.41,-1.34 -0.41,-1.61 -0.53,-1.07 -0.8,-1.88 -0.8,-2.41 -0.53,-1.08 -1.07,-2.02 -1.61,-2.82 l -2.01,-2.01 c -0.27,-0.27 -0.61,-0.4 -1.01,-0.4 -0.4,0 -0.74,-0.14 -1,-0.4 l -0.8,-0.41 c -0.28,0 -0.55,0 -0.81,0 h -0.8 c -1.62,0 -3.09,0.41 -4.43,1.21 -0.55,0.26 -1.21,0.8 -2.02,1.61 -0.8,1.07 -1.47,2.14 -2.01,3.22 -0.54,1.06 -0.8,1.87 -0.8,2.41 -0.54,1.88 -1.08,4.43 -1.61,7.65 -0.28,1.61 -0.61,4.02 -1.01,7.25 -0.4,3.21 -0.74,5.62 -1,7.24 l -1.22,14.08 c -0.26,1.34 -0.59,3.48 -1,6.44 -0.4,2.95 -0.74,5.23 -1.01,6.85 -2.15,6.97 -3.35,10.72 -3.61,11.26 -0.27,0.54 -0.68,1.07 -1.21,1.61 l -1.21,-1.21 c -0.27,-0.54 -0.74,-1.34 -1.41,-2.41 -0.67,-1.08 -1.14,-1.88 -1.4,-2.41 l -4.84,-10.87 -3.62,-11.27 c -2.42,-7.51 -4.43,-14.76 -6.04,-21.73 -1.07,-4.57 -2.48,-10.53 -4.22,-17.91 -1.74,-7.38 -2.89,-12.41 -3.42,-15.09 -0.54,-3.49 -1.21,-7.25 -2.02,-11.27 -5.09,-20.66 -17.04,-31.39 -35.81,-32.19 -11,-0.28 -18.98,4.22 -23.94,13.48 -4.97,9.25 -7.04,20.92 -6.24,35.01 0.8,14.09 2.01,29.31 3.62,45.67 1.61,16.37 3.42,31.4 5.43,45.08 2.01,13.68 1.94,24.81 -0.19,33.4 0.8,0.26 2.01,0.53 3.61,0.81 1.61,0.26 4.56,0.53 8.86,0.8 4.28,0.27 8.37,0.06 12.27,-0.6 3.89,-0.68 8.12,-2.15 12.68,-4.43 4.56,-2.28 8.44,-5.37 11.67,-9.26 3.22,-3.89 5.69,-9.52 7.44,-16.9 1.75,-7.38 2.35,-16.03 1.81,-25.96 0,-2.68 -0.27,-6.17 -0.8,-10.46 0.53,1.07 1.14,2.62 1.81,4.63 0.66,2.01 1.13,3.42 1.41,4.23 1.87,4.55 3.88,8.85 6.03,12.87 2.15,3.76 3.62,6.04 4.44,6.84 l 3.21,3.22 c 1.34,1.34 3.08,2.55 5.23,3.62 1.07,0.54 2.28,0.81 3.63,0.81 0.53,0 0.93,0.13 1.21,0.4 h 0.4 0.4 l 0.8,-0.4 h 1.21 c 2.68,-0.54 4.82,-1.35 6.43,-2.41 1.88,-1.35 3.36,-2.82 4.44,-4.43 0.26,-0.54 0.66,-1.28 1.2,-2.21 0.54,-0.95 0.94,-1.68 1.21,-2.22 0.8,-1.88 1.74,-4.42 2.81,-7.65 0.54,-1.88 1.08,-4.42 1.61,-7.64 0.54,-3.49 1.08,-8.45 1.62,-14.89 0.53,-6.44 0.8,-11.14 0.8,-14.09 v -1.2 c 0.26,0.8 0.93,3.15 2.01,7.04 1.07,3.88 1.87,6.77 2.42,8.65 2.41,8.05 5.5,15.43 9.26,22.13 3.21,6.18 7.5,11.68 12.87,16.51 4.02,3.48 8.72,6.16 14.09,8.04 l 0.8,0.4 c 0.54,0 0.94,0 1.21,0 2.95,0.54 5.97,1.01 9.06,1.42 3.07,0.4 8.44,0.13 16.09,-0.81 7.65,-0.94 14.15,-2.89 19.52,-5.84 5.36,-2.95 9.99,-8.32 13.89,-16.09 3.88,-7.79 5.43,-17.71 4.62,-29.78 -0.54,-8.05 -1.6,-19.19 -3.22,-33.41 -2.68,-26.83 -2.95,-42.52 -0.81,-47.08 2.95,-5.63 10.87,-3.22 23.75,7.24 11,8.86 21.79,19.58 32.4,32.2 10.59,12.61 18.44,22.94 23.54,30.99 l 8.05,12.07"
         style="fill:#111011;fill-opacity:1;fill-rule:nonzero;stroke:none"
         id="path94" /><path
         d="m 4741.49,1943.8 c 2.42,-2.68 6.05,-5.64 10.87,-8.85 l 2.41,-1.21 c 9.13,-3.22 14.76,-1.34 16.91,5.64 2.15,7.24 1.81,15.08 -1.01,23.54 -2.81,8.45 -6.37,15.89 -10.66,22.33 -4.3,6.44 -10.87,15.56 -19.72,27.37 -1.34,1.6 -2.28,2.81 -2.82,3.62 -2.15,-4.57 -3.89,-9.8 -5.23,-15.7 -1.61,-7.78 -2.28,-15.16 -2.01,-22.13 0.27,-2.15 0.67,-5.64 1.2,-10.47 0.27,-0.8 0.54,-1.88 0.81,-3.21 0.27,-1.35 0.53,-2.56 0.81,-3.63 0.26,-1.07 0.53,-2.01 0.8,-2.81 1.35,-5.1 3.88,-9.93 7.64,-14.49 z m 123.96,121.53 1.61,-9.66 c -1.61,0.81 -3.9,1.95 -6.85,3.43 -2.94,1.47 -8.51,3.68 -16.69,6.64 -8.19,2.95 -15.9,5.03 -23.15,6.23 -7.24,1.21 -15.09,1.27 -23.53,0.21 -8.46,-1.08 -15.37,-4.03 -20.74,-8.86 2.95,-4.57 7.18,-10.8 12.69,-18.71 5.49,-7.92 9.92,-14.36 13.27,-19.32 3.36,-4.97 7.38,-11.13 12.08,-18.51 4.69,-7.38 8.25,-13.55 10.66,-18.51 2.42,-4.97 4.9,-10.6 7.44,-16.9 2.55,-6.31 3.89,-11.81 4.03,-16.5 0.14,-4.69 -0.27,-9.46 -1.2,-14.29 -0.95,-4.83 -3.1,-9.26 -6.45,-13.28 -3.36,-4.02 -7.71,-7.65 -13.07,-10.86 -19.06,-9.13 -35.15,-12.21 -48.3,-9.26 h -0.4 c -0.81,0 -1.34,0.13 -1.61,0.4 -3.49,0.54 -6.84,1.48 -10.06,2.82 -3.76,1.07 -8.45,3.35 -14.09,6.84 -6.17,4.02 -11.27,8.59 -15.29,13.68 -5.1,6.44 -8.85,13.69 -11.27,21.73 0,0.54 -0.07,1.15 -0.19,1.81 -0.14,0.67 -0.21,1.14 -0.21,1.41 l -0.4,0.81 v 0.8 l -0.4,1.61 -0.4,1.21 v 1.61 c -0.27,0.81 -0.41,1.88 -0.41,3.22 -0.8,4.02 -1.2,8.31 -1.2,12.88 0,9.66 1.06,18.64 3.21,26.96 2.42,8.31 5.9,16.76 10.47,25.35 0,0.27 0.13,0.4 0.4,0.4 l 0.4,0.81 c -4.29,5.9 -8.72,12.34 -13.28,19.31 -7.51,11.81 -12.68,22.74 -15.49,32.8 -2.82,10.07 -3.49,18.45 -2.01,25.16 1.46,6.7 4.02,12.74 7.64,18.1 3.63,5.37 7.98,9.59 13.08,12.68 5.1,3.09 9.86,5.7 14.29,7.85 4.42,2.15 8.25,3.48 11.46,4.03 l 4.84,1.2 c -6.99,-16.9 0.13,-42.39 21.33,-76.46 8.31,4.56 17.36,7.31 27.16,8.25 9.79,0.94 18.65,0.47 26.56,-1.41 7.92,-1.88 15.29,-4.16 22.14,-6.84 6.84,-2.68 12.13,-5.23 15.89,-7.65 l 6.04,-3.22"
         style="fill:#111011;fill-opacity:1;fill-rule:nonzero;stroke:none"
         id="path96" /></g></g></svg>
