<?xml version="1.0" encoding="utf-8"?>
<svg viewBox="488.117 385.279 342.921 51.375" xmlns="http://www.w3.org/2000/svg">
  <path d="m 3698.41,2418.87 0.81,-0.8 c 2.41,-4.83 5.36,-9.8 8.85,-14.89 2.68,-3.76 4.83,-6.58 6.44,-8.45 0.26,0 0.4,-0.14 0.4,-0.41 h 0.4 c 2.95,-3.49 5.77,-5.23 8.46,-5.23 2.68,0 4.82,3.22 6.43,9.66 v 1.21 c 0,0.53 0.13,0.93 0.4,1.21 1.88,17.97 3.49,41.85 4.84,71.63 -5.91,-2.96 -10.33,-5.37 -13.28,-7.25 -4.84,-2.68 -9.53,-6.03 -14.09,-10.06 -4.57,-4.02 -7.92,-7.91 -10.06,-11.67 -1.08,-2.15 -1.88,-4.16 -2.42,-6.03 -0.53,-1.35 -0.8,-3.49 -0.8,-6.44 0,-1.88 0.41,-4.02 1.2,-6.44 0.27,-0.54 0.54,-1.15 0.82,-1.81 0.26,-0.67 0.4,-1.15 0.4,-1.41 v -0.4 h 0.4 v -0.41 -0.4 h 0.4 v -0.4 l 0.4,-0.81 z m 177.88,103.42 3.22,-15.69 c -3.49,-0.54 -14.89,-1.81 -34.21,-3.82 -19.31,-2.01 -31.26,-3.56 -35.82,-4.63 -1.07,-0.54 -2.15,-0.8 -3.21,-0.8 2.14,-107.86 -11.42,-161.11 -40.66,-159.77 -5.37,0.54 -11.4,2.01 -18.1,4.43 l -1.61,0.8 c -5.37,1.88 -8.72,3.22 -10.06,4.03 -7.52,3.76 -13.68,7.51 -18.52,11.27 -5.63,4.02 -11,8.85 -16.09,14.48 -4.3,4.83 -8.72,10.34 -13.28,16.5 -3.22,4.83 -6.71,11 -10.46,18.51 l -0.41,1.21 -0.4,0.81 v 0.4 l -0.4,0.4 -0.4,0.81 -0.4,0.8 v 0.4 0.41 c -1.09,1.87 -1.75,3.75 -2.02,5.63 -1.08,3.48 -1.61,7.65 -1.61,12.48 0,5.09 0.53,9.38 1.61,12.87 1.07,3.76 2.82,7.51 5.23,11.27 2.15,3.75 4.56,6.98 7.25,9.66 1.61,1.87 4.28,4.43 8.04,7.65 3.76,2.95 9.66,6.84 17.71,11.67 5.37,2.67 11.53,5.63 18.51,8.85 2.95,1.07 4.83,1.74 5.64,2.01 0.8,46.15 -0.14,86.79 -2.82,121.94 -3.76,-0.27 -15.7,-1.21 -35.81,-2.82 -9.13,-0.8 -16.58,0.81 -22.34,4.83 -5.77,4.03 -9.46,9.26 -11.07,15.7 -1.6,6.44 -2.55,12.93 -2.81,19.51 -0.27,6.57 0,12.14 0.8,16.71 l 1.61,7.24 c 2.68,-0.8 9.46,-0.54 20.32,0.8 10.87,1.35 22.4,2.42 34.61,3.23 12.21,0.8 24.55,0.46 37.03,-1.01 12.47,-1.48 23,-6.18 31.58,-14.09 8.59,-7.91 13.28,-19.11 14.09,-33.6 v -4.02 c 0.27,-7.52 1.01,-24.62 2.21,-51.32 1.21,-26.7 2.08,-47.68 2.62,-62.98 4.83,1.07 16.97,2.42 36.42,4.03 19.45,1.61 30.79,2.68 34.01,3.21" style="fill:#111011;fill-opacity:1;fill-rule:nonzero;stroke:none" id="path70" transform="matrix(0.133333, 0, 0, -0.133333, 0, 745.733337)"/>
  <path d="m 3925.78,2513.85 c -5.1,1.6 -10.87,0 -17.3,-4.83 0.53,-1.08 1.61,-2.42 3.22,-4.03 2.14,-2.15 4.42,-3.76 6.83,-4.83 1.34,-1.07 2.83,-1.75 4.43,-2.01 3.22,-0.8 4.96,-1.21 5.23,-1.21 3.22,-0.8 6.44,-1.2 9.66,-1.2 -1.87,10.19 -5.9,16.23 -12.07,18.11 z m -29.79,-93.37 c 6.71,-2.15 13.82,0.6 21.33,8.25 7.51,7.65 13.28,17.91 17.31,30.79 1.07,3.22 2.15,7.51 3.22,12.88 -5.37,-0.54 -9.52,-0.68 -12.47,-0.41 -0.55,0 -1.42,0.07 -2.62,0.2 -1.21,0.14 -2.28,0.27 -3.22,0.41 -0.94,0.13 -1.81,0.33 -2.62,0.6 -1.87,0.27 -4.69,0.94 -8.44,2.02 -4.58,1.33 -9.26,3.75 -14.09,7.24 -1.61,1.07 -2.68,1.87 -3.22,2.41 -0.54,-1.34 -1.88,-4.69 -4.02,-10.06 -4.03,-12.88 -5.17,-24.62 -3.42,-35.21 1.74,-10.61 5.83,-16.97 12.26,-19.12 z m 131.21,101.81 4.82,-8.44 c -1.35,-1.08 -3.22,-2.42 -5.63,-4.02 -0.28,-0.28 -0.8,-0.61 -1.62,-1.02 -0.8,-0.4 -1.33,-0.73 -1.61,-1 l -3.61,-2.41 c -0.27,-0.27 -0.88,-0.68 -1.82,-1.21 -0.93,-0.54 -1.68,-0.95 -2.2,-1.21 -0.55,-0.27 -1.35,-0.8 -2.43,-1.61 -1.07,-0.8 -1.87,-1.35 -2.41,-1.61 -2.96,-1.35 -4.7,-2.28 -5.23,-2.82 -0.54,-0.54 -1.48,-1.14 -2.81,-1.81 -1.35,-0.67 -2.29,-1.14 -2.83,-1.4 -0.26,-0.28 -0.74,-0.61 -1.4,-1.01 -0.68,-0.41 -1.15,-0.6 -1.41,-0.6 l -1.61,-0.81 c -0.27,0 -0.54,-0.14 -0.8,-0.4 -0.28,-0.28 -0.55,-0.41 -0.81,-0.41 -1.08,-0.27 -2.15,-0.8 -3.22,-1.6 -1.08,-0.28 -2.15,-0.81 -3.22,-1.61 -2.96,-1.35 -7.64,-3.36 -14.08,-6.04 -4.03,-1.61 -8.99,-3.36 -14.89,-5.23 -0.81,-0.27 -1.96,-0.6 -3.42,-1.01 -1.48,-0.4 -2.49,-0.6 -3.03,-0.6 -0.8,-4.83 -2.01,-9.66 -3.61,-14.49 -6.71,-20.93 -18.12,-36.96 -34.21,-48.09 -16.1,-11.14 -32.33,-14.15 -48.7,-9.06 -16.37,5.1 -27.9,16.84 -34.6,35.22 -6.71,18.37 -6.71,38.16 0,59.36 6.7,20.92 18.1,36.95 34.2,48.09 16.1,11.13 32.33,14.14 48.7,9.05 11,-3.49 19.98,-10.53 26.96,-21.12 6.98,-10.61 11,-22.88 12.07,-36.83 h 1.21 c 6.7,1.34 11.26,2.28 13.69,2.82 2.13,0.26 6.56,1.47 13.28,3.62 1.6,0.54 2.67,0.94 3.21,1.21 1.61,0.53 2.68,0.8 3.22,0.8 l 1.61,0.81 c 0.27,0 0.53,0.06 0.81,0.2 0.26,0.13 0.53,0.2 0.8,0.2 0.27,0.27 0.74,0.53 1.41,0.81 0.67,0.26 1.13,0.4 1.41,0.4 l 6.03,2.42 c 1.61,0.53 3.35,1.2 5.24,2.01 2.14,1.07 3.75,1.74 4.82,2.01 2.15,1.07 3.62,1.74 4.43,2.01 0.27,0.26 0.87,0.6 1.81,1.01 0.94,0.4 1.55,0.73 1.82,1 l 3.61,1.21 6.05,3.21" style="fill:#111011;fill-opacity:1;fill-rule:nonzero;stroke:none" id="path72" transform="matrix(0.133333, 0, 0, -0.133333, 0, 745.733337)"/>
  <path d="m 4201.85,2500.16 7.65,-2.41 c -0.81,-2.69 -2.08,-6.18 -3.83,-10.46 -1.75,-4.3 -5.22,-11.87 -10.46,-22.74 -5.23,-10.87 -10.47,-20.33 -15.69,-28.37 -5.23,-8.05 -11.47,-15.1 -18.72,-21.13 -7.24,-6.04 -14.22,-8.39 -20.92,-7.04 -7.79,1.61 -13.95,9.38 -18.51,23.34 -4.57,13.94 -7.52,28.84 -8.86,44.67 -1.34,15.83 -3.76,30.18 -7.24,43.06 -3.49,12.88 -8.19,19.31 -14.09,19.31 -4.82,0 -8.58,-5.37 -11.27,-16.1 -2.68,-10.73 -4.96,-23.67 -6.84,-38.83 -1.88,-15.16 -4.42,-30.32 -7.64,-45.47 -3.22,-15.16 -9,-27.97 -17.31,-38.43 -8.32,-10.47 -19.05,-15.56 -32.19,-15.3 -8.59,-0.26 -15.49,4.76 -20.73,15.1 -5.23,10.32 -8.59,23.94 -10.05,40.84 -1.49,16.91 -2.22,35.88 -2.22,56.94 0,21.06 0.94,42.32 2.81,63.79 1.88,21.46 3.43,42.05 4.63,61.78 1.21,19.71 2.28,36.42 3.22,50.1 0.94,13.68 0.61,23.34 -1,28.97 1.87,0.54 4.35,1.01 7.44,1.41 3.08,0.4 8.46,0.27 16.1,-0.4 7.65,-0.67 14.29,-2.41 19.92,-5.23 5.64,-2.82 10.6,-8.19 14.89,-16.1 4.28,-7.92 5.9,-18.05 4.83,-30.38 -4.57,-59.57 -7.38,-109.46 -8.46,-149.71 10.2,48.03 25.09,72.04 44.68,72.04 10.46,0 18.58,-7.32 24.35,-21.94 5.76,-14.62 9.19,-30.78 10.26,-48.49 1.06,-17.71 2.88,-34.34 5.43,-49.9 2.55,-15.57 6.37,-24.02 11.46,-25.36 6.18,-1.6 14.1,3.63 23.75,15.7 9.66,12.07 17.85,24.55 24.56,37.42 l 10.05,19.32" style="fill:#111011;fill-opacity:1;fill-rule:nonzero;stroke:none" id="path74" transform="matrix(0.133333, 0, 0, -0.133333, 0, 745.733337)"/>
  <path d="m 4218.75,2475.62 c -0.54,-13.69 5.23,-18.51 17.3,-14.49 9.66,3.48 19.58,10.73 29.79,21.73 1.06,10.19 2.01,17.84 2.81,22.94 -4.29,0 -8.65,-0.34 -13.08,-1.01 -4.42,-0.67 -9.65,-1.88 -15.69,-3.62 -6.03,-1.75 -11,-4.83 -14.89,-9.26 -3.89,-4.42 -5.98,-9.85 -6.24,-16.29 z m 185.93,39.43 h 13.28 c -1.08,-3.76 -2.69,-8.65 -4.84,-14.68 -2.14,-6.04 -6.97,-16.78 -14.48,-32.2 -7.52,-15.43 -15.57,-29.11 -24.15,-41.05 -8.58,-11.94 -19.99,-22.74 -34.2,-32.39 -14.23,-9.66 -28.98,-14.49 -44.27,-14.49 -9.93,0 -17.64,3.56 -23.14,10.66 -5.5,7.11 -8.79,15.63 -9.86,25.56 -1.08,9.92 -1.2,22.13 -0.4,36.62 -18.78,-18.25 -38.64,-25.62 -59.56,-22.13 -13.15,2.41 -21.61,8.98 -25.36,19.71 -3.75,10.73 -2.88,22.27 2.62,34.61 5.5,12.34 14.02,22.14 25.56,29.38 19.04,11.81 40.64,15.7 64.78,11.67 0.81,12.34 0.54,21.33 -0.8,26.97 1.07,0.26 2.41,0.53 4.03,0.8 1.61,0.27 4.75,0.47 9.45,0.6 4.7,0.14 9.12,-0.07 13.28,-0.6 4.16,-0.54 8.72,-1.88 13.68,-4.03 4.96,-2.14 9.19,-5.02 12.69,-8.65 3.47,-3.62 6.23,-8.79 8.24,-15.49 2.01,-6.71 2.62,-14.63 1.82,-23.74 -4.03,-55.81 -0.95,-83.85 9.25,-84.11 4.03,-0.27 8.99,2.95 14.89,9.65 10.73,12.08 20.05,25.42 27.97,40.05 7.91,14.62 13.21,26.22 15.89,34.81 l 3.63,12.47" style="fill:#111011;fill-opacity:1;fill-rule:nonzero;stroke:none" id="path76" transform="matrix(0.133333, 0, 0, -0.133333, 0, 745.733337)"/>
  <path d="m 4551.55,2511.43 8.45,-4.02 c -11.81,-23.08 -20.12,-38.77 -24.95,-47.09 -4.03,-7.78 -8.19,-14.22 -12.47,-19.31 -3.76,-4.3 -6.85,-7.39 -9.26,-9.26 -0.27,-0.27 -0.74,-0.6 -1.41,-1.01 -0.67,-0.4 -1.14,-0.74 -1.4,-1 -0.28,-0.27 -0.81,-0.54 -1.61,-0.81 -0.81,-0.27 -1.35,-0.54 -1.62,-0.8 -0.27,0 -0.94,-0.27 -2.01,-0.8 h -1.21 l -0.4,-0.41 h -1.61 -0.4 -0.4 -0.4 -1.21 c -1.88,0 -3.49,0.54 -4.83,1.61 -1.88,0.81 -3.22,2.14 -4.03,4.02 -0.8,1.07 -1.87,4.03 -3.21,8.86 -0.55,3.75 -0.81,8.99 -0.81,15.7 0.26,6.69 0.94,16.49 2.01,29.37 0.54,6.44 0.81,11.13 0.81,14.09 0,5.9 -0.14,9.92 -0.4,12.07 -0.27,1.07 -0.95,1.87 -2.01,2.41 -0.81,0.54 -1.89,0.14 -3.22,-1.2 l -2.42,-2.42 c -1.88,-2.41 -3.76,-5.63 -5.63,-9.66 -1.35,-2.41 -3.09,-6.03 -5.24,-10.86 -4.02,-10.47 -6.58,-17.44 -7.64,-20.93 -3.49,-10.2 -6.71,-21.06 -9.66,-32.6 l -3.62,-13.28 c -5.38,-20.92 -17.04,-31.66 -35.01,-32.19 -11.01,-0.27 -18.99,3.96 -23.95,12.67 -4.97,8.72 -7.11,19.86 -6.44,33.41 0.67,13.54 1.87,28.23 3.62,44.07 1.75,15.82 3.62,30.58 5.63,44.26 2.01,13.68 1.95,25.22 -0.19,34.61 0.8,0.27 2.01,0.54 3.62,0.8 1.61,0.27 4.56,0.54 8.85,0.81 4.29,0.26 8.39,0.06 12.27,-0.6 3.89,-0.68 8.12,-2.29 12.68,-4.83 4.56,-2.55 8.46,-6.04 11.67,-10.46 3.22,-4.43 5.7,-10.67 7.45,-18.72 1.74,-8.05 2.34,-17.44 1.81,-28.17 v -2.01 c 13.94,24.15 26.29,36.08 37.02,35.81 7.51,-0.26 11.8,-6.23 12.88,-17.9 1.07,-11.68 0.54,-22.48 -1.61,-32.4 0,-2.15 -0.27,-5.1 -0.8,-8.85 v -2.42 c -0.55,-3.22 -1.08,-8.32 -1.61,-15.29 0,-6.17 0.13,-10.46 0.4,-12.88 0.53,-2.15 0.93,-3.49 1.21,-4.02 l 0.4,-0.4 0.4,-0.41 h 0.4 0.41 l 1.2,0.41 h 0.81 0.4 c 0,0.26 0.26,0.4 0.8,0.4 0.26,0.26 0.54,0.4 0.81,0.4 0.53,0.26 0.94,0.41 1.2,0.41 l 0.81,0.8 c 0.54,0.26 0.94,0.53 1.21,0.8 0.81,0.54 3.22,2.82 7.24,6.84 4.56,5.37 8.58,11.27 12.07,17.71 l 24.15,44.67" style="fill:#111011;fill-opacity:1;fill-rule:nonzero;stroke:none" id="path78" transform="matrix(0.133333, 0, 0, -0.133333, 0, 745.733337)"/>
  <path d="m 4685.16,2511.43 8.44,-4.02 c -11.8,-23.08 -20.11,-38.77 -24.95,-47.09 -4.02,-7.78 -8.18,-14.22 -12.47,-19.31 -3.76,-4.3 -6.84,-7.39 -9.26,-9.26 -0.27,-0.27 -0.74,-0.6 -1.4,-1.01 -0.68,-0.4 -1.15,-0.74 -1.41,-1 -0.27,-0.27 -0.81,-0.54 -1.61,-0.81 -0.81,-0.27 -1.35,-0.54 -1.61,-0.8 -0.28,0 -0.95,-0.27 -2.01,-0.8 h -1.22 l -0.39,-0.41 h -1.62 -0.4 -0.4 -0.4 -1.21 c -1.87,0 -3.49,0.54 -4.82,1.61 -1.89,0.81 -3.22,2.14 -4.04,4.02 -0.8,1.07 -1.87,4.03 -3.21,8.86 -0.55,3.75 -0.81,8.99 -0.81,15.7 0.26,6.69 0.94,16.49 2.01,29.37 0.54,6.44 0.81,11.13 0.81,14.09 0,5.9 -0.13,9.92 -0.4,12.07 -0.27,1.07 -0.94,1.87 -2.01,2.41 -0.81,0.54 -1.88,0.14 -3.22,-1.2 l -2.41,-2.42 c -1.89,-2.41 -3.76,-5.63 -5.64,-9.66 -1.35,-2.41 -3.09,-6.03 -5.23,-10.86 -4.03,-10.47 -6.59,-17.44 -7.65,-20.93 -3.49,-10.2 -6.71,-21.06 -9.66,-32.6 l -3.62,-13.28 c -5.37,-20.92 -17.04,-31.66 -35.01,-32.19 -11.01,-0.27 -18.99,3.96 -23.95,12.67 -4.97,8.72 -7.11,19.86 -6.43,33.41 0.66,13.54 1.86,28.23 3.61,44.07 1.75,15.82 3.62,30.58 5.64,44.26 2.01,13.68 1.94,25.22 -0.2,34.61 0.8,0.27 2.01,0.54 3.62,0.8 1.62,0.27 4.56,0.54 8.85,0.81 4.29,0.26 8.39,0.06 12.28,-0.6 3.88,-0.68 8.11,-2.29 12.67,-4.83 4.56,-2.55 8.46,-6.04 11.67,-10.46 3.23,-4.43 5.71,-10.67 7.45,-18.72 1.74,-8.05 2.35,-17.44 1.81,-28.17 v -2.01 c 13.95,24.15 26.29,36.08 37.02,35.81 7.51,-0.26 11.81,-6.23 12.88,-17.9 1.08,-11.68 0.54,-22.48 -1.61,-32.4 0,-2.15 -0.26,-5.1 -0.8,-8.85 v -2.42 c -0.55,-3.22 -1.07,-8.32 -1.61,-15.29 0,-6.17 0.14,-10.46 0.4,-12.88 0.54,-2.15 0.94,-3.49 1.21,-4.02 l 0.4,-0.4 0.4,-0.41 h 0.4 0.41 l 1.2,0.41 h 0.81 0.4 c 0,0.26 0.27,0.4 0.8,0.4 0.27,0.26 0.54,0.4 0.82,0.4 0.52,0.26 0.93,0.41 1.2,0.41 l 0.81,0.8 c 0.53,0.26 0.93,0.53 1.2,0.8 0.81,0.54 3.22,2.82 7.24,6.84 4.56,5.37 8.59,11.27 12.07,17.71 l 24.16,44.67" style="fill:#111011;fill-opacity:1;fill-rule:nonzero;stroke:none" id="path80" transform="matrix(0.133333, 0, 0, -0.133333, 0, 745.733337)"/>
  <path d="m 4744.72,2505.4 c -1.62,0 -3.1,0 -4.44,0 -1.35,0 -3.42,-0.75 -6.24,-2.22 -2.81,-1.48 -5.29,-3.56 -7.44,-6.24 -2.15,-2.68 -4.42,-7.04 -6.83,-13.07 -2.43,-6.04 -4.3,-13.22 -5.64,-21.54 19.84,-1.34 33.26,5.1 40.24,19.32 1.07,2.42 1.87,5.3 2.42,8.65 0.53,3.36 -0.14,6.71 -2.02,10.07 -1.88,3.35 -5.23,5.03 -10.05,5.03 z m 83.3,1.61 8.04,-6.44 c -22.27,-41.6 -50.3,-73.39 -84.11,-95.38 -28.71,-18.78 -52.99,-25.08 -72.84,-18.92 -20.65,6.71 -29.77,26.16 -27.36,58.36 0.26,4.29 0.81,8.71 1.61,13.28 2.41,13.68 6.78,25.48 13.07,35.41 6.31,9.92 13.29,17.37 20.93,22.34 7.65,4.96 15.83,8.58 24.55,10.86 8.71,2.28 16.43,3.35 23.15,3.22 6.7,-0.13 12.33,-0.87 16.89,-2.21 5.9,-1.88 10.73,-5.17 14.5,-9.86 3.75,-4.7 5.89,-10.8 6.43,-18.31 0.54,-7.51 -2.15,-15.97 -8.05,-25.36 -9.39,-15.29 -26.83,-22.53 -52.31,-21.72 -2.96,-26.57 2.81,-38.78 17.3,-36.63 15.82,2.42 37.96,19.05 66.4,49.9 16.37,17.98 26.96,31.8 31.8,41.46" style="fill:#111011;fill-opacity:1;fill-rule:nonzero;stroke:none" id="path82" transform="matrix(0.133333, 0, 0, -0.133333, 0, 745.733337)"/>
  <path d="m 4850.55,2373.8 c 2.42,-2.68 6.04,-5.64 10.86,-8.85 l 2.42,-1.21 c 9.12,-3.22 14.75,-1.34 16.9,5.64 2.15,7.24 1.82,15.08 -1,23.54 -2.82,8.45 -6.38,15.89 -10.67,22.33 -4.29,6.44 -10.87,15.56 -19.72,27.37 -1.34,1.6 -2.28,2.81 -2.82,3.62 -2.15,-4.57 -3.88,-9.8 -5.22,-15.7 -1.61,-7.78 -2.29,-15.16 -2.01,-22.13 0.26,-2.15 0.66,-5.64 1.2,-10.47 0.26,-0.8 0.53,-1.88 0.81,-3.21 0.26,-1.35 0.52,-2.56 0.8,-3.63 0.26,-1.07 0.54,-2.01 0.8,-2.81 1.35,-5.1 3.89,-9.93 7.65,-14.49 z m 123.95,121.53 1.61,-9.66 c -1.61,0.81 -3.89,1.95 -6.84,3.43 -2.95,1.47 -8.52,3.68 -16.7,6.64 -8.19,2.95 -15.9,5.03 -23.15,6.23 -7.23,1.21 -15.08,1.27 -23.53,0.21 -8.46,-1.08 -15.36,-4.03 -20.74,-8.86 2.95,-4.57 7.18,-10.8 12.69,-18.71 5.49,-7.92 9.92,-14.36 13.27,-19.32 3.36,-4.97 7.38,-11.13 12.08,-18.51 4.69,-7.38 8.26,-13.55 10.67,-18.51 2.41,-4.97 4.89,-10.6 7.44,-16.9 2.55,-6.31 3.88,-11.81 4.02,-16.5 0.14,-4.69 -0.26,-9.46 -1.2,-14.29 -0.95,-4.83 -3.1,-9.26 -6.45,-13.28 -3.35,-4.02 -7.71,-7.65 -13.07,-10.86 -19.05,-9.13 -35.15,-12.21 -48.29,-9.26 h -0.4 c -0.81,0 -1.35,0.13 -1.61,0.4 -3.5,0.54 -6.85,1.48 -10.06,2.82 -3.76,1.07 -8.46,3.35 -14.09,6.84 -6.18,4.02 -11.27,8.59 -15.3,13.68 -5.1,6.44 -8.85,13.69 -11.27,21.73 0,0.54 -0.06,1.15 -0.19,1.81 -0.14,0.67 -0.21,1.14 -0.21,1.41 l -0.4,0.81 v 0.8 l -0.4,1.61 -0.4,1.21 v 1.61 c -0.27,0.81 -0.41,1.88 -0.41,3.22 -0.8,4.02 -1.2,8.31 -1.2,12.88 0,9.66 1.06,18.64 3.21,26.96 2.42,8.31 5.9,16.76 10.47,25.35 0,0.27 0.13,0.4 0.4,0.4 l 0.4,0.81 c -4.28,5.9 -8.72,12.34 -13.28,19.31 -7.51,11.81 -12.67,22.74 -15.49,32.8 -2.82,10.07 -3.48,18.45 -2.01,25.16 1.47,6.7 4.02,12.74 7.65,18.1 3.62,5.37 7.98,9.59 13.07,12.68 5.1,3.09 9.87,5.7 14.29,7.85 4.42,2.15 8.25,3.48 11.47,4.03 l 4.83,1.2 c -6.98,-16.9 0.14,-42.39 21.33,-76.46 8.31,4.56 17.36,7.31 27.17,8.25 9.78,0.94 18.64,0.47 26.55,-1.41 7.92,-1.88 15.29,-4.16 22.14,-6.84 6.84,-2.68 12.14,-5.23 15.9,-7.65 l 6.03,-3.22" style="fill:#111011;fill-opacity:1;fill-rule:nonzero;stroke:none" id="path84" transform="matrix(0.133333, 0, 0, -0.133333, 0, 745.733337)"/>
  <path d="M 686.969 396.184 C 686.183 396.149 685.379 396.81 684.556 398.17 C 683.733 399.53 683.016 401.246 682.408 403.321 C 681.8 405.396 681.317 407.157 680.96 408.606 C 680.603 410.054 680.335 411.316 680.156 412.389 L 680.156 412.765 C 682.801 410.905 684.985 407.989 686.701 404.018 C 688.097 400.728 688.525 398.384 687.989 396.989 C 687.775 396.489 687.435 396.221 686.969 396.184 Z M 681.176 428.648 C 681.46 428.54 681.853 428.361 682.355 428.11 C 682.856 427.861 683.733 427.333 684.985 426.528 C 686.236 425.724 687.337 424.873 688.284 423.98 C 689.231 423.085 690.081 421.94 690.833 420.545 C 691.584 419.149 691.943 417.72 691.905 416.253 C 691.871 415.394 691.559 414.741 690.967 414.293 C 690.377 413.846 689.635 413.624 688.74 413.624 C 687.845 413.624 686.871 413.766 685.816 414.053 C 684.761 414.34 683.724 414.75 682.704 415.286 C 681.684 415.822 680.781 416.413 679.995 417.057 C 679.851 424.248 680.244 428.11 681.176 428.648 Z M 689.385 410.082 C 691.96 410.082 693.739 410.86 694.724 412.416 C 695.707 413.972 695.912 415.85 695.34 418.05 C 694.768 420.25 693.624 422.388 691.905 424.462 C 687.756 429.47 682.176 431.974 675.165 431.974 C 673.877 432.009 672.84 431.321 672.053 429.908 C 671.265 428.496 670.765 426.645 670.551 424.354 C 670.336 422.066 670.229 419.472 670.229 416.574 C 670.229 413.677 670.363 410.753 670.631 407.801 C 670.9 404.85 671.121 402.025 671.301 399.324 C 671.48 396.624 671.641 394.316 671.784 392.401 C 671.928 390.488 671.873 389.101 671.624 388.243 C 671.767 388.208 671.963 388.172 672.215 388.136 C 672.464 388.1 672.939 388.065 673.636 388.029 C 674.335 387.993 674.996 388.02 675.621 388.109 C 676.247 388.199 676.936 388.404 677.687 388.727 C 678.439 389.048 679.072 389.477 679.592 390.013 C 680.111 390.551 680.521 391.32 680.827 392.321 C 681.129 393.322 681.229 394.504 681.12 395.862 C 681.013 397.258 680.907 398.904 680.799 400.798 C 683.088 395.862 685.771 393.573 688.848 393.93 C 691.351 394.396 692.317 396.381 691.745 399.886 C 691.173 403.393 689.439 406.898 686.541 410.404 C 687.4 410.189 688.347 410.082 689.385 410.082" style="fill:#111011;fill-opacity:1;fill-rule:nonzero;stroke:none" id="path86"/>
  <path d="M 721.203 413.248 L 722.384 413.194 C 722.884 413.301 723.063 413.588 722.92 414.053 C 722.92 414.089 722.793 414.536 722.544 415.394 C 722.293 416.253 722.025 417.182 721.739 418.184 C 721.452 419.186 721.041 420.41 720.505 421.86 C 719.968 423.309 719.404 424.696 718.815 426.018 C 718.225 427.342 717.501 428.684 716.641 430.042 C 715.784 431.401 714.897 432.565 713.985 433.53 C 713.073 434.496 712.027 435.274 710.847 435.865 C 709.667 436.454 708.451 436.713 707.197 436.642 C 706.233 436.606 705.427 436.293 704.784 435.704 C 704.139 435.113 703.692 434.298 703.443 433.262 C 703.191 432.224 703.031 431.116 702.959 429.934 C 702.887 428.754 702.932 427.378 703.093 425.804 C 703.253 424.23 703.424 422.808 703.603 421.538 C 703.781 420.268 703.987 418.846 704.22 417.272 C 704.452 415.698 704.621 414.482 704.729 413.624 C 702.476 413.588 700.696 413.381 699.391 413.006 C 698.084 412.63 697.253 412.157 696.896 411.584 C 696.537 411.013 696.313 410.369 696.225 409.653 C 696.135 408.937 696.172 408.196 696.333 407.425 C 696.493 406.657 696.431 405.897 696.144 405.145 C 696.359 405.038 696.636 404.93 696.976 404.824 C 697.316 404.716 697.924 404.592 698.8 404.448 C 699.676 404.305 700.445 404.305 701.108 404.448 C 701.769 404.592 702.343 405.002 702.825 405.681 C 703.308 406.362 703.496 407.345 703.389 408.633 C 703.316 409.564 704.085 410.028 705.696 410.028 C 706.268 409.993 706.84 409.993 707.412 410.028 C 707.984 410.065 708.665 410.216 709.451 410.485 C 710.237 410.753 710.892 411.137 711.409 411.638 C 711.928 412.14 712.348 412.881 712.672 413.865 C 712.993 414.849 713.064 416.002 712.887 417.325 C 712.027 423.908 711.633 427.914 711.705 429.345 C 711.777 432.064 712.707 432.457 714.496 430.525 C 715.747 429.202 716.937 427.1 718.063 424.221 C 719.191 421.342 720.004 418.793 720.505 416.574 L 721.203 413.248" style="fill:#111011;fill-opacity:1;fill-rule:nonzero;stroke:none" id="path88"/>
  <path d="M 723.348 416.681 C 723.277 418.506 724.047 419.149 725.656 418.613 C 726.944 418.149 728.267 417.182 729.627 415.716 C 729.769 414.357 729.896 413.337 730.003 412.657 C 729.431 412.657 728.848 412.702 728.259 412.792 C 727.669 412.881 726.971 413.042 726.167 413.274 C 725.361 413.508 724.699 413.918 724.18 414.509 C 723.663 415.098 723.384 415.822 723.348 416.681 Z M 748.139 411.424 L 749.909 411.424 C 749.767 411.925 749.552 412.577 749.265 413.381 C 748.979 414.186 748.336 415.618 747.335 417.674 C 746.332 419.732 745.259 421.556 744.115 423.148 C 742.969 424.74 741.449 426.18 739.555 427.466 C 737.657 428.754 735.689 429.398 733.652 429.398 C 732.328 429.398 731.299 428.924 730.567 427.977 C 729.833 427.029 729.395 425.893 729.251 424.569 C 729.108 423.246 729.091 421.618 729.197 419.686 C 726.693 422.12 724.047 423.102 721.256 422.637 C 719.504 422.316 718.376 421.44 717.876 420.009 C 717.376 418.578 717.492 417.04 718.225 415.394 C 718.957 413.749 720.093 412.442 721.632 411.477 C 724.172 409.902 727.052 409.384 730.271 409.921 C 730.379 408.276 730.343 407.077 730.164 406.325 C 730.305 406.29 730.485 406.254 730.7 406.218 C 730.915 406.182 731.335 406.156 731.96 406.138 C 732.587 406.12 733.176 406.148 733.731 406.218 C 734.285 406.29 734.895 406.469 735.556 406.756 C 736.217 407.041 736.781 407.425 737.247 407.909 C 737.711 408.392 738.077 409.081 738.345 409.974 C 738.615 410.869 738.695 411.925 738.588 413.14 C 738.052 420.581 738.461 424.32 739.823 424.354 C 740.359 424.39 741.02 423.961 741.807 423.068 C 743.237 421.457 744.481 419.678 745.536 417.728 C 746.591 415.778 747.297 414.232 747.656 413.086 L 748.139 411.424" style="fill:#111011;fill-opacity:1;fill-rule:nonzero;stroke:none" id="path90"/>
  <path d="M 774.592 413.409 L 775.612 413.73 C 775.504 414.089 775.334 414.554 775.101 415.125 C 774.868 415.698 774.404 416.708 773.706 418.157 C 773.009 419.606 772.31 420.868 771.614 421.94 C 770.916 423.013 770.084 423.953 769.118 424.757 C 768.153 425.562 767.222 425.876 766.329 425.696 C 765.29 425.482 764.468 424.445 763.86 422.584 C 763.25 420.725 762.857 418.738 762.678 416.628 C 762.501 414.517 762.177 412.604 761.714 410.886 C 761.248 409.169 760.621 408.312 759.836 408.312 C 759.192 408.312 758.69 409.028 758.333 410.458 C 757.974 411.889 757.672 413.614 757.421 415.636 C 757.17 417.657 756.832 419.678 756.401 421.698 C 755.972 423.72 755.202 425.428 754.094 426.822 C 752.985 428.218 751.554 428.897 749.801 428.862 C 748.657 428.897 747.736 428.228 747.039 426.849 C 746.34 425.473 745.893 423.657 745.697 421.404 C 745.5 419.149 745.401 416.62 745.401 413.812 C 745.401 411.004 745.527 408.169 745.777 405.306 C 746.027 402.445 746.233 399.7 746.395 397.069 C 746.556 394.441 746.697 392.213 746.824 390.389 C 746.949 388.565 746.904 387.277 746.689 386.527 C 746.94 386.455 747.271 386.392 747.681 386.339 C 748.093 386.285 748.809 386.303 749.829 386.392 C 750.848 386.481 751.733 386.713 752.485 387.089 C 753.236 387.465 753.897 388.181 754.469 389.236 C 755.041 390.292 755.256 391.643 755.114 393.286 C 754.505 401.229 754.129 407.881 753.986 413.248 C 755.345 406.844 757.332 403.642 759.944 403.642 C 761.338 403.642 762.42 404.618 763.189 406.568 C 763.957 408.517 764.414 410.672 764.558 413.033 C 764.7 415.394 764.942 417.612 765.282 419.686 C 765.621 421.762 766.13 422.889 766.81 423.068 C 767.633 423.281 768.689 422.584 769.977 420.974 C 771.265 419.365 772.356 417.701 773.25 415.985 L 774.592 413.409" style="fill:#111011;fill-opacity:1;fill-rule:nonzero;stroke:none" id="path92"/>
  <path d="M 811.884 413.945 L 812.902 414.16 C 812.688 414.589 812.393 415.17 812.017 415.904 C 811.642 416.637 810.837 417.942 809.604 419.821 C 808.369 421.698 807.125 423.353 805.874 424.784 C 804.621 426.214 803.064 427.521 801.205 428.701 C 799.345 429.881 797.538 430.472 795.785 430.472 C 794.713 430.472 793.925 430.042 793.425 429.184 C 792.924 428.325 792.682 427.208 792.701 425.83 C 792.718 424.453 792.842 422.952 793.076 421.322 C 793.309 419.696 793.566 418.077 793.854 416.466 C 794.14 414.857 794.345 413.401 794.472 412.094 C 794.597 410.789 794.498 409.778 794.176 409.062 C 793.854 408.346 793.264 408.078 792.405 408.257 L 792.352 408.312 C 791.816 408.49 791.314 408.813 790.849 409.277 C 790.277 409.921 789.83 410.584 789.509 411.262 C 789.15 412.013 788.829 412.944 788.542 414.053 C 788.29 415.198 788.077 416.289 787.897 417.325 C 787.862 417.433 787.826 417.585 787.79 417.782 C 787.754 417.978 787.737 418.13 787.737 418.237 C 787.737 418.31 787.72 418.398 787.684 418.506 C 787.648 418.613 787.629 418.685 787.629 418.721 C 787.558 418.864 787.522 418.972 787.522 419.042 C 787.452 419.186 787.38 419.312 787.308 419.418 L 787.04 419.686 C 787.004 419.722 786.958 419.74 786.905 419.74 C 786.852 419.74 786.806 419.758 786.772 419.793 L 786.665 419.848 C 786.628 419.848 786.592 419.848 786.557 419.848 L 786.45 419.848 C 786.234 419.848 786.038 419.793 785.86 419.686 C 785.786 419.652 785.698 419.58 785.59 419.472 C 785.484 419.329 785.394 419.186 785.322 419.042 C 785.25 418.901 785.216 418.793 785.216 418.721 C 785.144 418.47 785.072 418.13 785.001 417.701 C 784.964 417.486 784.92 417.165 784.866 416.734 C 784.813 416.306 784.768 415.985 784.733 415.769 L 784.57 413.892 C 784.536 413.713 784.492 413.428 784.437 413.033 C 784.384 412.64 784.338 412.336 784.302 412.12 C 784.016 411.19 783.856 410.69 783.821 410.618 C 783.785 410.546 783.73 410.476 783.66 410.404 L 783.498 410.565 C 783.462 410.637 783.4 410.744 783.31 410.886 C 783.221 411.03 783.158 411.137 783.124 411.208 L 782.478 412.657 L 781.996 414.16 C 781.673 415.161 781.405 416.128 781.19 417.057 C 781.048 417.666 780.86 418.461 780.628 419.445 C 780.396 420.429 780.242 421.1 780.172 421.457 C 780.1 421.922 780.01 422.424 779.902 422.96 C 779.224 425.714 777.63 427.145 775.128 427.252 C 773.661 427.289 772.597 426.689 771.936 425.454 C 771.273 424.221 770.997 422.665 771.104 420.786 C 771.21 418.908 771.372 416.878 771.586 414.697 C 771.801 412.514 772.042 410.51 772.31 408.686 C 772.578 406.862 772.569 405.378 772.285 404.233 C 772.392 404.198 772.553 404.162 772.766 404.125 C 772.981 404.09 773.374 404.054 773.948 404.018 C 774.518 403.982 775.064 404.01 775.584 404.098 C 776.102 404.189 776.666 404.385 777.274 404.689 C 777.882 404.993 778.4 405.405 778.83 405.924 C 779.26 406.442 779.589 407.193 779.822 408.177 C 780.056 409.161 780.136 410.314 780.064 411.638 C 780.064 411.996 780.028 412.461 779.957 413.033 C 780.028 412.89 780.109 412.684 780.198 412.416 C 780.286 412.148 780.349 411.96 780.386 411.852 C 780.636 411.245 780.904 410.672 781.19 410.136 C 781.477 409.634 781.673 409.33 781.782 409.224 L 782.21 408.794 C 782.389 408.616 782.621 408.454 782.908 408.312 C 783.05 408.24 783.212 408.204 783.392 408.204 C 783.462 408.204 783.516 408.186 783.553 408.15 L 783.606 408.15 L 783.66 408.15 L 783.766 408.204 L 783.928 408.204 C 784.285 408.276 784.57 408.384 784.785 408.525 C 785.036 408.705 785.233 408.901 785.377 409.116 C 785.412 409.188 785.465 409.286 785.537 409.41 C 785.609 409.537 785.662 409.634 785.698 409.706 C 785.805 409.957 785.93 410.296 786.073 410.726 C 786.145 410.977 786.217 411.316 786.288 411.745 C 786.36 412.21 786.432 412.872 786.504 413.73 C 786.574 414.589 786.61 415.216 786.61 415.609 L 786.61 415.769 C 786.645 415.662 786.734 415.349 786.878 414.83 C 787.021 414.313 787.128 413.928 787.201 413.677 C 787.522 412.604 787.934 411.62 788.436 410.726 C 788.864 409.902 789.436 409.169 790.152 408.525 C 790.688 408.061 791.314 407.704 792.03 407.453 L 792.137 407.4 C 792.209 407.4 792.262 407.4 792.298 407.4 C 792.692 407.328 793.094 407.265 793.506 407.21 C 793.916 407.157 794.632 407.193 795.652 407.318 C 796.672 407.444 797.538 407.704 798.254 408.097 C 798.969 408.49 799.586 409.206 800.106 410.242 C 800.624 411.281 800.83 412.604 800.722 414.213 C 800.65 415.286 800.509 416.772 800.293 418.668 C 799.936 422.245 799.9 424.337 800.185 424.945 C 800.578 425.696 801.634 425.374 803.352 423.98 C 804.818 422.798 806.257 421.369 807.672 419.686 C 809.084 418.005 810.13 416.628 810.81 415.554 L 811.884 413.945" style="fill:#111011;fill-opacity:1;fill-rule:nonzero;stroke:none" id="path94"/>
  <path d="M 814.296 430.257 C 814.618 430.614 815.102 431.009 815.745 431.437 L 816.066 431.598 C 817.284 432.028 818.034 431.777 818.321 430.846 C 818.608 429.881 818.562 428.836 818.186 427.708 C 817.812 426.581 817.337 425.589 816.765 424.73 C 816.192 423.872 815.316 422.656 814.136 421.081 C 813.957 420.868 813.832 420.706 813.76 420.598 C 813.473 421.208 813.241 421.905 813.062 422.692 C 812.848 423.729 812.758 424.713 812.794 425.642 C 812.83 425.929 812.884 426.394 812.954 427.038 C 812.99 427.145 813.026 427.289 813.062 427.466 C 813.098 427.646 813.133 427.808 813.17 427.95 C 813.205 428.093 813.241 428.218 813.277 428.325 C 813.457 429.005 813.794 429.649 814.296 430.257 Z M 830.824 414.053 L 831.038 415.341 C 830.824 415.233 830.518 415.081 830.125 414.884 C 829.733 414.688 828.99 414.393 827.9 413.998 C 826.808 413.605 825.78 413.328 824.813 413.168 C 823.848 413.006 822.801 412.998 821.676 413.14 C 820.548 413.284 819.626 413.677 818.91 414.321 C 819.304 414.93 819.868 415.761 820.602 416.816 C 821.334 417.872 821.925 418.73 822.372 419.392 C 822.82 420.054 823.356 420.876 823.982 421.86 C 824.608 422.844 825.082 423.666 825.404 424.328 C 825.726 424.99 826.057 425.741 826.396 426.581 C 826.736 427.422 826.914 428.156 826.933 428.781 C 826.952 429.406 826.897 430.042 826.773 430.686 C 826.646 431.33 826.36 431.921 825.913 432.457 C 825.465 432.993 824.885 433.477 824.17 433.905 C 821.629 435.122 819.484 435.533 817.73 435.14 L 817.677 435.14 C 817.569 435.14 817.498 435.122 817.462 435.086 C 816.997 435.014 816.55 434.889 816.121 434.71 C 815.62 434.568 814.994 434.264 814.242 433.798 C 813.42 433.262 812.74 432.653 812.204 431.974 C 811.524 431.116 811.024 430.149 810.701 429.077 C 810.701 429.005 810.692 428.924 810.676 428.836 C 810.657 428.746 810.648 428.684 810.648 428.648 L 810.594 428.54 L 810.594 428.433 L 810.541 428.218 L 810.488 428.057 L 810.488 427.842 C 810.452 427.734 810.433 427.592 810.433 427.413 C 810.326 426.877 810.273 426.305 810.273 425.696 C 810.273 424.408 810.414 423.21 810.701 422.101 C 811.024 420.993 811.488 419.866 812.097 418.721 C 812.097 418.685 812.114 418.668 812.15 418.668 L 812.204 418.56 C 811.632 417.773 811.041 416.914 810.433 415.985 C 809.432 414.41 808.742 412.953 808.368 411.612 C 807.992 410.269 807.902 409.152 808.1 408.257 C 808.294 407.364 808.636 406.558 809.118 405.844 C 809.602 405.128 810.182 404.565 810.862 404.153 C 811.542 403.741 812.177 403.393 812.768 403.106 C 813.357 402.82 813.868 402.642 814.296 402.569 L 814.941 402.409 C 814.009 404.662 814.958 408.061 817.785 412.604 C 818.893 411.996 820.1 411.629 821.406 411.504 C 822.712 411.378 823.893 411.441 824.948 411.692 C 826.004 411.942 826.986 412.246 827.9 412.604 C 828.812 412.961 829.517 413.301 830.018 413.624 L 830.824 414.053" style="fill:#111011;fill-opacity:1;fill-rule:nonzero;stroke:none" id="path96"/>
</svg>