<?xml version="1.0" encoding="UTF-8" standalone="no"?>
<!-- Created with Inkscape (http://www.inkscape.org/) -->

<svg
   width="620.1897mm"
   height="123.12319mm"
   viewBox="0 0 620.1897 123.12319"
   version="1.1"
   id="svg657"
   xmlns="http://www.w3.org/2000/svg"
   xmlns:svg="http://www.w3.org/2000/svg">
  <defs
     id="defs654" />
  <g
     id="layer1"
     transform="translate(-996.55589,-1563.6584)">
    <path
       d="m 1015.1357,1609.8167 c 0,0.2011 0,0.5045 0,0.7056 11.6452,-8.1315 18.8736,-30.6176 12.7494,-31.0198 -6.4241,-0.4021 -11.8463,25.3965 -12.7494,30.3142 z m 21.9851,7.2284 c -0.4022,-8.5337 -14.9578,-4.6178 -22.285,1.5064 -0.2011,11.3453 0.2999,20.5811 2.2084,21.6853 0,0 20.5775,-8.5337 20.0766,-23.1917 z m 0,15.36 c -6.9286,8.3326 -16.9651,14.0547 -31.3196,14.0547 -17.87176,0.5009 -3.8171,-71.6774 -6.62874,-81.8163 0,0 19.27574,-4.3144 17.76944,14.2558 -0.2011,2.7093 -0.4022,5.8208 -0.6033,9.2357 3.3161,-7.1261 8.3326,-13.6525 15.0601,-12.8482 9.7367,1.3018 6.1242,18.1681 -4.318,30.8187 1.6087,-0.4022 3.4149,-0.6032 5.3199,-0.6032 15.1589,0 14.2558,15.3599 4.7202,26.9028"
       style="fill:#040606;fill-opacity:1;fill-rule:nonzero;stroke:none;stroke-width:0.0352778"
       id="path14" />
    <path
       d="m 1063.7237,1621.1621 c 6.5229,0.4021 9.0347,-2.8117 10.0366,-4.819 0.702,-1.404 1.5063,-5.8208 -2.4095,-5.9231 -1.203,-0.099 -5.7221,-0.4022 -7.6271,10.7421 z m 30.4165,-9.5356 c -16.965,31.6194 -50.5953,40.6541 -45.5753,10.6398 3.0092,-18.0693 19.4733,-18.9724 24.5921,-17.3673 4.0182,1.3053 7.6306,6.223 3.2138,13.3526 -3.0127,4.9178 -9.4368,5.521 -13.0492,5.4187 -2.7129,24.1935 25.2977,-6.4241 28.8113,-13.6525 l 2.0073,1.6087"
       style="fill:#040606;fill-opacity:1;fill-rule:nonzero;stroke:none;stroke-width:0.0352778"
       id="path16" />
    <path
       d="m 1130.7798,1609.919 c 0,0 -4.4168,8.6325 -6.223,11.744 -0.8044,1.5064 -1.8098,3.2138 -3.1115,4.8189 -0.7056,0.8044 -1.4076,1.6052 -2.3107,2.3107 -0.2011,0.2011 -0.501,0.2999 -0.7021,0.501 -0.3034,0.099 -0.5009,0.2998 -0.8043,0.4022 -0.2011,0 -0.2999,0.099 -0.5009,0.201 h -0.2999 c 0,0.099 -0.1023,0.099 -0.1023,0.099 h -0.4022 c 0.1023,0 -0.099,0 -0.099,0 h -0.1023 -0.099 c -0.1023,0 -0.2011,0 -0.2999,0 -0.4022,0 -0.8043,-0.099 -1.2065,-0.4022 -0.4022,-0.201 -0.8043,-0.5997 -1.0019,-1.0018 -0.5045,-0.7056 -0.6032,-1.5064 -0.8043,-2.2084 -0.2011,-1.4076 -0.2011,-2.7129 -0.2011,-3.9159 0.099,-2.5082 0.2998,-4.9177 0.5009,-7.3272 0.1023,-1.2065 0.2011,-2.4094 0.2011,-3.5136 0,-1.1042 0,-2.2084 -0.099,-3.0127 -0.1023,-0.4022 -0.3034,-0.501 -0.5044,-0.6033 -0.1976,-0.099 -0.5998,0.1023 -0.8008,0.3034 -0.2011,0.1975 -0.4022,0.3986 -0.6033,0.5997 -0.5009,0.702 -1.0054,1.6087 -1.404,2.4095 -0.5045,0.9031 -0.9032,1.8062 -1.3053,2.7128 -0.7021,1.8063 -1.4076,3.5137 -1.9086,5.2176 -1.1041,3.3126 -1.9085,6.2266 -2.4094,8.1316 -0.2999,1.0054 -0.9031,3.3125 -0.9031,3.3125 -1.8063,7.0274 -6.022,7.9305 -8.7348,8.0328 -14.6544,0.5009 -3.0092,-31.2208 -5.3199,-42.164 0,0 15.7621,-4.5156 14.5556,15.2612 0,0.1975 0,0.3986 0,0.5009 2.0073,-3.5137 5.8244,-9.0346 9.2357,-8.9359 4.2157,0.1023 3.4149,7.6306 2.8117,12.5483 0,0.7021 -0.099,1.5064 -0.2011,2.2084 0,0.2011 0,0.4022 0,0.6033 -0.2011,1.3053 -0.2999,2.6105 -0.4022,3.8135 0,1.1042 0,2.3107 0.1023,3.2138 0.099,0.4022 0.2011,0.8044 0.2999,1.0019 0.1023,0.1023 0.1023,0.1023 0.1023,0.1023 0.099,0 0.099,0.099 0.1976,0.099 0,0 0,0 0.1023,0 l 0.2998,-0.099 c 0.1023,0 0.2011,0 0.2011,0 h 0.1023 c 0,-0.1023 0.099,-0.1023 0.2011,-0.1023 0.099,-0.099 0.2999,-0.099 0.5009,-0.1975 0.099,-0.1024 0.2999,-0.2011 0.501,-0.4022 0.6032,-0.4022 1.2065,-1.1042 1.8062,-1.7075 1.2065,-1.404 2.2084,-2.9104 3.0127,-4.4167 1.7075,-2.9105 6.0219,-11.1443 6.0219,-11.1443 l 2.1097,1.0054"
       style="fill:#040606;fill-opacity:1;fill-rule:nonzero;stroke:none;stroke-width:0.0352778"
       id="path18" />
    <path
       d="m 1122.8493,1588.5372 c 0,-4.117 3.4114,-7.5283 7.5283,-7.5283 4.2157,0 7.5283,3.4113 7.5283,7.5283 0,4.1134 -3.3126,7.5282 -7.5283,7.5282 -4.1169,0 -7.5283,-3.4148 -7.5283,-7.5282 z m 4.0146,44.9721 c -10.1388,8.7348 -17.6671,17.9705 -14.4568,24.2923 5.1188,9.6378 13.9559,16.4641 14.5556,6.1242 0.3034,-8.8336 0.2011,-20.2777 -0.099,-30.4165 z m 34.9356,-23.7914 c 0,0 -8.9359,4.4168 -20.4787,12.5484 1.905,25.0966 5.6197,64.3466 -6.3254,64.4489 -2.3106,0.2999 -16.5629,0.7021 -28.7125,-26.102 -4.5156,-9.1334 6.8262,-21.4806 20.3799,-32.325 -0.099,-3.0092 -1.1042,-18.9724 -1.1042,-18.9724 0,0 -0.5009,-5.1188 -0.9031,-6.724 0,0 14.8555,-4.318 16.2631,13.0493 0,0.8043 0.099,1.5063 0.099,2.3072 11.3453,-7.5283 19.5756,-11.2431 19.5756,-11.2431 l 1.2065,3.0127"
       style="fill:#040606;fill-opacity:1;fill-rule:nonzero;stroke:none;stroke-width:0.0352778"
       id="path20" />
    <path
       d="m 1172.0371,1616.0433 c 0.2011,-2.0074 0.4022,-3.9159 0.702,-5.7221 -3.0127,0 -12.2484,0.5997 -12.4495,7.5283 -0.2998,7.3272 7.3307,3.0127 11.7475,-1.8062 z m 37.9448,-8.0328 c 0,0 -9.8355,33.6303 -30.4165,33.6303 -7.9305,0 -8.9359,-8.5337 -8.3326,-18.1716 -3.4114,3.3126 -8.0292,6.6287 -14.8555,5.5245 -10.3399,-1.8097 -8.0327,-15.4622 0.702,-20.8809 6.4241,-4.0181 13.1516,-3.4149 16.1608,-2.9139 0.2011,-2.7094 0.2011,-5.1188 -0.2011,-6.724 0,0 17.0674,-3.8135 15.7621,12.7494 -1.203,16.5629 -0.4022,25.6999 6.0219,18.5702 9.137,-10.2376 11.8463,-21.784 11.8463,-21.784 h 3.3126"
       style="fill:#040606;fill-opacity:1;fill-rule:nonzero;stroke:none;stroke-width:0.0352778"
       id="path22" />
    <path
       d="m 1224.9397,1606.0032 c 0,-0.099 0,-0.099 0,-0.099 -0.099,0 0,0 0,0.099 z m 54.8111,7.1261 c 0,0 -14.3546,30.5188 -32.0217,30.5188 -15.0601,0 5.6198,-43.9702 -6.3253,-41.5607 -0.1023,0 -0.1023,0.1023 -0.1023,0.1023 -0.9031,0.2998 -1.905,0.9031 -2.8081,1.8062 -0.9031,1.0019 -1.8098,2.2084 -2.5118,3.7147 -0.702,1.5064 -1.3053,3.3126 -1.8062,5.2212 -0.4022,1.905 -0.8043,3.9123 -1.203,6.1206 -0.1023,0.6033 -0.2011,1.1042 -0.3034,1.7075 -0.099,0.3034 -0.099,0.6032 -0.201,0.9031 -0.099,0.2011 -0.2011,0.4022 -0.2011,0.6033 -0.099,0.201 -0.2011,0.4021 -0.3987,0.702 -0.1023,0.1023 -0.3034,0.3034 -0.5044,0.5009 -0.2011,0.1023 -0.2999,0.1023 -0.501,0.2011 -0.099,0 -0.2011,0.1023 -0.4022,0.1023 0,0 -0.099,0 -0.201,0 -0.4022,0 -0.8008,-0.1023 -1.1042,-0.3034 -0.2011,-0.099 -0.4022,-0.2998 -0.501,-0.3986 -0.2998,-0.4022 -0.4021,-0.6033 -0.5009,-0.8043 -0.1023,-0.2011 -0.2011,-0.4022 -0.2011,-0.6033 -0.2011,-0.702 -0.3034,-1.3053 -0.4022,-1.905 -0.2011,-1.2065 -0.2998,-2.4095 -0.5009,-3.616 -0.1023,-1.2029 -0.2011,-2.3071 -0.3034,-3.5136 -0.2011,-1.1042 -0.2999,-2.2084 -0.5009,-3.3126 -0.2999,-1.0019 -0.501,-2.1061 -0.9032,-2.8117 -0.1023,-0.201 -0.201,-0.2998 -0.3033,-0.3986 -0.099,0.099 -0.1976,0.1976 -0.2999,0.2999 -0.2011,0.4021 -0.501,0.8043 -0.702,1.2029 -0.4022,0.8044 -0.8044,1.8098 -1.2065,2.7129 -0.2999,0.9031 -0.5998,1.905 -0.9031,2.8081 -0.5998,1.9085 -1.1042,3.7148 -1.5064,5.4222 -0.8008,3.3126 -1.4041,6.223 -1.905,8.2303 -0.2011,1.3053 -0.4022,2.3107 -0.501,2.8116 -1.7074,7.0274 -6.1242,7.9305 -8.9358,8.0328 -14.6579,0.4022 -3.0127,-33.1294 -5.3199,-43.0671 0,0 15.7586,-4.2157 14.5556,13.8536 0,0.9031 -0.099,1.8062 -0.2011,2.6105 0.2999,-0.702 0.501,-1.4076 0.8044,-2.2084 0.3986,-1.0054 0.9031,-2.1096 1.5028,-3.2138 0.3034,-0.5009 0.6032,-1.1042 1.1077,-1.7039 0.2011,-0.3034 0.501,-0.5045 0.8008,-0.8043 0.3034,-0.2999 0.702,-0.6033 1.3053,-0.9031 0.2011,-0.1023 0.6032,-0.2011 0.9031,-0.2011 0.1023,0 0.2011,0 0.3034,-0.1023 h 0.099 0.099 l 0.201,0.1023 c 0.1023,0 0.2011,0 0.3034,0 0.6033,0.099 1.203,0.2998 1.6052,0.6032 0.5009,0.3987 0.8043,0.7021 1.1042,1.1042 0.201,0.3987 0.4021,0.7021 0.6032,1.1042 0.2999,0.7021 0.501,1.3053 0.702,1.905 0.2011,0.7056 0.2999,1.3053 0.4022,1.9086 0.2011,1.3052 0.2999,2.5082 0.4022,3.7147 0.099,1.203 0.2011,2.4095 0.2011,3.5137 0,0.099 0,0.2011 0,0.2998 0.3986,-1.404 0.702,-2.7093 1.1041,-3.9158 0.5998,-2.0073 1.4041,-3.9123 2.3072,-5.521 0.9031,-1.7074 2.0073,-3.0092 3.2138,-4.1134 1.203,-1.0054 2.4095,-1.6086 3.5137,-2.0108 0.099,0 0.3986,-0.099 0.5009,-0.099 1.1042,-0.2011 16.9651,-3.2138 15.7621,12.7494 -1.3052,16.5629 -4.1169,25.6999 4.9178,18.2704 9.2357,-7.5283 15.9596,-18.7713 15.9596,-18.7713 l 1.9086,0.3986"
       style="fill:#040606;fill-opacity:1;fill-rule:nonzero;stroke:none;stroke-width:0.0352778"
       id="path24" />
    <path
       d="m 1272.8257,1588.7383 c 0,-4.2157 3.4114,-7.5319 7.5283,-7.5319 4.1134,0 7.5283,3.3162 7.5283,7.5319 0,4.1133 -3.4149,7.5282 -7.5283,7.5282 -4.1169,0 -7.5283,-3.4149 -7.5283,-7.5282 z m 35.3343,21.3818 c -1.203,2.1061 -11.1443,30.1167 -28.3105,29.5134 -15.9596,-0.6032 -6.1207,-33.3304 -7.3272,-37.5461 0,0 15.1589,-2.8081 13.4515,8.9358 -2.2084,15.2577 -1.905,23.3892 5.02,18.5702 7.1261,-5.0165 14.2557,-20.5775 14.2557,-20.5775 l 2.9105,1.1042"
       style="fill:#040606;fill-opacity:1;fill-rule:nonzero;stroke:none;stroke-width:0.0352778"
       id="path26" />
    <path
       d="m 1340.9859,1609.919 c 0,0 -4.4167,8.6325 -6.223,11.744 -0.8043,1.5064 -1.8062,3.2138 -3.1115,4.8189 -0.702,0.8044 -1.404,1.6052 -2.3107,2.3107 -0.201,0.2011 -0.5009,0.2999 -0.702,0.501 -0.2999,0.099 -0.5009,0.2998 -0.8008,0.4022 -0.2011,0 -0.3034,0.099 -0.5045,0.201 h -0.2998 c 0,0.099 -0.1023,0.099 -0.1023,0.099 h -0.3987 c 0.099,0 -0.1023,0 -0.1023,0 h -0.099 -0.1023 c -0.099,0 -0.201,0 -0.2998,0 -0.4022,0 -0.8044,-0.099 -1.2065,-0.4022 -0.3987,-0.201 -0.8008,-0.5997 -1.0019,-1.0018 -0.501,-0.7056 -0.6033,-1.5064 -0.8043,-2.2084 -0.2011,-1.4076 -0.2011,-2.7129 -0.2011,-3.9159 0.1023,-2.5082 0.3034,-4.9177 0.5044,-7.3272 0.099,-1.2065 0.1976,-2.4094 0.1976,-3.5136 0,-1.1042 0,-2.2084 -0.099,-3.0127 -0.099,-0.4022 -0.2998,-0.501 -0.5009,-0.6033 -0.2011,-0.099 -0.6033,0.1023 -0.8044,0.3034 -0.201,0.1975 -0.4021,0.3986 -0.6032,0.5997 -0.501,0.702 -1.0019,1.6087 -1.4041,2.4095 -0.5009,0.9031 -0.9031,1.8062 -1.3052,2.7128 -0.7021,1.8063 -1.4041,3.5137 -1.9086,5.2176 -1.1042,3.3126 -1.905,6.2266 -2.4094,8.1316 -0.2999,1.0054 -0.9032,3.3125 -0.9032,3.3125 -1.8062,7.0274 -6.0219,7.9305 -8.7312,8.0328 -14.6579,0.5009 -3.0127,-31.2208 -5.3199,-42.164 0,0 15.7586,-4.5156 14.5556,15.2612 0,0.1975 0,0.3986 0,0.5009 2.0073,-3.5137 5.8209,-9.0346 9.2357,-8.9359 4.2157,0.1023 3.4114,7.6306 2.8082,12.5483 0,0.7021 -0.099,1.5064 -0.2011,2.2084 0,0.2011 0,0.4022 0,0.6033 -0.1976,1.3053 -0.2999,2.6105 -0.3987,3.8135 0,1.1042 0,2.3107 0.099,3.2138 0.1023,0.4022 0.2011,0.8044 0.2999,1.0019 0.1023,0.1023 0.1023,0.1023 0.1023,0.1023 0.099,0 0.099,0.099 0.2011,0.099 0,0 0,0 0.099,0 l 0.3034,-0.099 c 0.099,0 0.2011,0 0.2011,0 h 0.099 c 0,-0.1023 0.099,-0.1023 0.2011,-0.1023 0.099,-0.099 0.2998,-0.099 0.5009,-0.1975 0.1023,-0.1024 0.3034,-0.2011 0.501,-0.4022 0.6032,-0.4022 1.2065,-1.1042 1.8097,-1.7075 1.203,-1.404 2.2084,-2.9104 3.0092,-4.4167 1.7074,-2.9105 6.0254,-11.1443 6.0254,-11.1443 l 2.1061,1.0054"
       style="fill:#040606;fill-opacity:1;fill-rule:nonzero;stroke:none;stroke-width:0.0352778"
       id="path28" />
    <path
       d="m 1379.2341,1609.8167 c 0,0.2011 0,0.5045 0,0.7056 11.6452,-8.1315 18.8701,-30.6176 12.7494,-31.0198 -6.4276,-0.4021 -11.8463,25.3965 -12.7494,30.3142 z m 21.9851,7.2284 c -0.4022,-8.5337 -14.9578,-4.6178 -22.2885,1.5064 -0.2011,11.3453 0.3034,20.5811 2.2084,21.6853 0,0 20.5811,-8.5337 20.0801,-23.1917 z m 0,15.36 c -6.9285,8.3326 -16.9686,14.0547 -31.3231,14.0547 -17.8682,0.5009 -3.8136,-71.6774 -6.6252,-81.8163 0,0 19.2758,-4.3144 17.7694,14.2558 -0.2011,2.7093 -0.4021,5.8208 -0.6032,9.2357 3.3126,-7.1261 8.3326,-13.6525 15.0601,-12.8482 9.7366,1.3018 6.1207,18.1681 -4.318,30.8187 1.6051,-0.4022 3.4113,-0.6032 5.3198,-0.6032 15.1589,0 14.2558,15.3599 4.7202,26.9028"
       style="fill:#040606;fill-opacity:1;fill-rule:nonzero;stroke:none;stroke-width:0.0352778"
       id="path30" />
    <path
       d="m 1459.2406,1612.9318 c -0.8044,2.4094 -9.9378,43.1658 -29.4146,42.2627 -13.3491,-0.6032 -6.1243,-28.6102 -4.6179,-43.0671 -22.285,-0.5009 -13.9524,-8.9358 -16.062,-15.8609 0,0 14.5556,-6.223 13.5538,6.5264 -0.2011,2.7094 4.2156,2.607 4.3144,2.607 4.318,-0.2998 15.0601,0.4022 13.455,13.6525 -2.1096,16.4642 -4.9213,33.2282 3.0092,24.698 7.9304,-8.4349 12.5483,-32.325 12.5483,-32.325 0,0 4.0181,-0.9031 3.2138,1.5064"
       style="fill:#040606;fill-opacity:1;fill-rule:nonzero;stroke:none;stroke-width:0.0352778"
       id="path32" />
    <path
       d="m 1451.5112,1588.7383 c 0,-4.2157 3.4114,-7.5319 7.5283,-7.5319 4.1169,0 7.5283,3.3162 7.5283,7.5319 0,4.1133 -3.4114,7.5282 -7.5283,7.5282 -4.1169,0 -7.5283,-3.4149 -7.5283,-7.5282 z m 35.3342,21.3818 c -1.2029,2.1061 -11.1407,30.1167 -28.3069,29.5134 -15.9631,-0.6032 -6.1242,-33.3304 -7.3307,-37.5461 0,0 15.1589,-2.8081 13.4514,8.9358 -2.2083,15.2577 -1.905,23.3892 5.0201,18.5702 7.1296,-5.0165 14.2557,-20.5775 14.2557,-20.5775 l 2.9104,1.1042"
       style="fill:#040606;fill-opacity:1;fill-rule:nonzero;stroke:none;stroke-width:0.0352778"
       id="path34" />
    <path
       d="m 1506.4211,1595.06 c -2.0073,0.2011 -3.9123,0.3034 -5.8209,0.5045 -1.1041,0.099 -2.1096,0.099 -3.1115,0.2011 -0.8043,0.099 -1.6086,0.1975 -2.4094,0.1975 -0.2011,3.8171 -0.3034,7.8317 -0.3034,11.7475 0,17.6672 -1.0019,33.8314 6.8262,27.4038 1.3053,-1.1042 2.6106,-2.6105 4.0182,-4.5155 -0.5045,-10.1389 0,-22.5884 0.702,-33.7291 0,-0.2011 0,-1.0054 0.099,-1.8098 z m 40.0544,16.062 c 0,0 -11.042,40.5589 -32.7237,40.5589 -4.5191,-0.2011 -6.7275,-6.5264 -7.7329,-15.6634 -5.1188,6.1243 -11.6417,10.9432 -18.9724,10.3399 -9.2357,-0.3986 -8.9323,-26.5006 -7.8281,-49.3888 -0.3034,0 -0.6033,0 -0.9031,0.099 -1.5064,0 -2.914,0.1023 -4.1169,0.1023 -1.3053,0.099 -2.3107,0.099 -3.2138,0.099 -0.9032,0.1023 -1.6052,0.1023 -2.1061,0.1023 -0.5045,0 -0.7056,0 -0.7056,0 l -0.2998,-3.2138 c 0,0 0.2998,0 0.702,-0.099 0.5045,-0.1023 1.2065,-0.201 2.1096,-0.3033 0.8043,-0.099 1.9085,-0.2999 3.1115,-0.3987 1.3053,-0.2011 2.6105,-0.4022 4.1169,-0.6032 0.501,0 1.0019,-0.1023 1.6051,-0.1023 0,-0.3987 0,-0.7021 0,-1.1042 0,-0.5998 0.2011,-3.2103 0.2999,-4.6179 0.6033,-11.1407 1.2065,-20.0766 0.4022,-22.8882 0,0 17.1661,-3.8136 15.8609,12.6506 -0.2011,2.5082 -0.4022,5.521 -0.5998,8.9358 0,0 -0.201,3.7113 -0.201,4.6144 0,0.3034 0,0.5045 0,0.7055 0.5997,0 1.2029,-0.1023 1.8062,-0.1023 1.0019,-0.099 2.0073,-0.201 3.0127,-0.2998 2.0073,-0.2011 4.1134,-0.3034 6.0219,-0.501 0.2011,0 0.4022,0 0.6033,0 0.5997,-10.04 1.0019,-18.0728 0.2998,-20.6798 0,0 17.0674,-3.8171 15.7621,12.7494 -0.1023,1.905 -0.3033,4.3145 -0.4021,6.925 1.5063,0 2.9104,-0.099 4.1134,-0.099 1.3052,-0.1023 2.3107,-0.1023 3.2138,-0.1023 0.9031,-0.099 1.6051,-0.099 2.1096,-0.099 0.3986,0 0.702,0 0.702,0 l 0.2999,3.2102 c 0,0 -0.2999,0 -0.8008,0.1023 -0.4022,0.099 -1.1042,0.2011 -2.0109,0.2999 -0.9031,0.099 -1.905,0.2999 -3.1115,0.4022 -1.3052,0.201 -2.6105,0.4021 -4.2157,0.6032 -0.099,0 -0.2998,0 -0.5009,0 -0.1023,0.9031 -0.1023,1.8062 -0.1023,2.2084 -0.2999,5.521 -0.501,11.5429 -0.5997,17.466 0.099,17.6671 0,31.7218 7.7293,25.1989 7.0274,-5.9231 15.0566,-28.7125 15.0566,-28.7125 l 2.2084,1.6051"
       style="fill:#040606;fill-opacity:1;fill-rule:nonzero;stroke:none;stroke-width:0.0352778"
       id="path36" />
    <path
       d="m 1549.6893,1621.1621 c 6.5264,0.4021 9.0346,-2.8117 10.04,-4.819 0.7021,-1.404 1.5029,-5.8208 -2.4094,-5.9231 -1.2065,-0.099 -5.7221,-0.4022 -7.6306,10.7421 z m 30.4165,-9.5356 c -16.9651,31.6194 -50.5954,40.6541 -45.5754,10.6398 3.0127,-18.0693 19.4769,-18.9724 24.5957,-17.3673 4.0146,1.3053 7.627,6.223 3.2103,13.3526 -3.0092,4.9178 -9.4368,5.521 -13.0493,5.4187 -2.7093,24.1935 25.2977,-6.4241 28.8114,-13.6525 l 2.0073,1.6087"
       style="fill:#040606;fill-opacity:1;fill-rule:nonzero;stroke:none;stroke-width:0.0352778"
       id="path38" />
    <path
       d="m 1616.7453,1609.919 c 0,0 -4.4168,8.6325 -6.223,11.744 -0.8044,1.5064 -1.8062,3.2138 -3.1115,4.8189 -0.702,0.8044 -1.4041,1.6052 -2.3107,2.3107 -0.1976,0.2011 -0.501,0.2999 -0.702,0.501 -0.2999,0.099 -0.501,0.2998 -0.8008,0.4022 -0.2011,0 -0.3034,0.099 -0.5045,0.201 h -0.2999 c 0,0.099 -0.099,0.099 -0.099,0.099 h -0.4021 c 0.099,0 -0.1023,0 -0.1023,0 h -0.099 -0.1023 c -0.099,0 -0.2011,0 -0.2999,0 -0.4021,0 -0.8043,-0.099 -1.2065,-0.4022 -0.3986,-0.201 -0.8008,-0.5997 -1.0019,-1.0018 -0.5009,-0.7056 -0.6032,-1.5064 -0.8043,-2.2084 -0.2011,-1.4076 -0.2011,-2.7129 -0.2011,-3.9159 0.1023,-2.5082 0.3034,-4.9177 0.5045,-7.3272 0.099,-1.2065 0.2011,-2.4094 0.2011,-3.5136 0,-1.1042 0,-2.2084 -0.1023,-3.0127 -0.099,-0.4022 -0.2999,-0.501 -0.501,-0.6033 -0.2011,-0.099 -0.6032,0.1023 -0.8043,0.3034 -0.2011,0.1975 -0.4022,0.3986 -0.6033,0.5997 -0.5009,0.702 -1.0018,1.6087 -1.404,2.4095 -0.501,0.9031 -0.9031,1.8062 -1.3053,2.7128 -0.702,1.8063 -1.404,3.5137 -1.9085,5.2176 -1.1042,3.3126 -1.905,6.2266 -2.406,8.1316 -0.3034,1.0054 -0.9066,3.3125 -0.9066,3.3125 -1.8062,7.0274 -6.0219,7.9305 -8.7313,8.0328 -14.6579,0.5009 -3.0127,-31.2208 -5.3198,-42.164 0,0 15.7585,-4.5156 14.5556,15.2612 0,0.1975 0,0.3986 0,0.5009 2.0073,-3.5137 5.8208,-9.0346 9.2357,-8.9359 4.2157,0.1023 3.4114,7.6306 2.8081,12.5483 0,0.7021 -0.099,1.5064 -0.2011,2.2084 0,0.2011 0,0.4022 0,0.6033 -0.1975,1.3053 -0.2998,2.6105 -0.3986,3.8135 0,1.1042 0,2.3107 0.099,3.2138 0.1023,0.4022 0.201,0.8044 0.2998,1.0019 0.1023,0.1023 0.1023,0.1023 0.1023,0.1023 0.099,0 0.099,0.099 0.2011,0.099 0,0 0,0 0.099,0 l 0.3034,-0.099 c 0.099,0 0.2011,0 0.2011,0 h 0.099 c 0,-0.1023 0.1023,-0.1023 0.2011,-0.1023 0.099,-0.099 0.2999,-0.099 0.501,-0.1975 0.1023,-0.1024 0.3034,-0.2011 0.5044,-0.4022 0.5998,-0.4022 1.203,-1.1042 1.8063,-1.7075 1.2029,-1.404 2.2083,-2.9104 3.0092,-4.4167 1.7074,-2.9105 6.0254,-11.1443 6.0254,-11.1443 l 2.1061,1.0054"
       style="fill:#040606;fill-opacity:1;fill-rule:nonzero;stroke:none;stroke-width:0.0352778"
       id="path40" />
  </g>
</svg>
