<?xml version="1.0" encoding="utf-8"?>
<svg viewBox="211.117 3550.573 1478.91 303.231" width="1478.91" height="303.231" xmlns="http://www.w3.org/2000/svg">
  <path d="m 2425.29,2274.6 c -421.22,-737.6 -914.87,-747.1 -832.91,202.1 66.71,800.5 436.47,844.3 552.73,770 91.49,-57.2 146.77,-190.6 70.52,-548.9 l -55.27,41.9 c 0,0 43.84,257.3 -57.18,264.9 -24.78,1.9 -148.66,17.2 -192.5,-503.1 -62.9,-768.2 205.84,-596.6 461.24,-200.2 l 53.37,-26.7" style="fill:#100f0d;fill-opacity:1;fill-rule:nonzero;stroke:none" id="path14" transform="matrix(0.133333, 0, 0, -0.133333, 0, 4000)"/>
  <path d="m 2716.88,2838.8 c 0,11.5 13.35,160.1 -51.46,253.5 -9.53,-125.8 -20.96,-291.6 -28.58,-457.4 36.21,49.5 68.61,114.3 80.04,203.9 z M 2493.89,1842 c -5.72,-1.9 -11.44,-1.9 -19.06,-1.9 -1.91,0 -1.91,0 -1.91,0 -234.43,1.9 -116.26,1216 -112.45,1261.7 17.15,169.7 22.87,272.6 106.73,268.8 1.91,0 64.81,0 131.52,-45.8 40.02,-26.6 72.42,-62.9 101.01,-106.7 32.4,-55.3 55.27,-122 66.71,-200.1 20.97,-137.2 5.72,-259.2 -49.56,-360.2 -24.77,-45.8 -55.26,-83.9 -83.86,-112.5 -5.72,-139.1 -7.62,-270.7 -5.72,-373.6 7.63,-118.1 17.16,-135.3 93.4,-85.7 177.25,112.4 278.27,314.4 278.27,314.4 l 53.37,-20.9 c -9.53,-34.3 -253.5,-436.5 -495.55,-524.2 -20.97,-9.5 -43.84,-13.3 -62.9,-13.3" style="fill:#100f0d;fill-opacity:1;fill-rule:nonzero;stroke:none" id="path16" transform="matrix(0.133333, 0, 0, -0.133333, 0, 4000)"/>
  <path d="m 3265.79,2307.1 c 3.81,38.1 7.62,74.3 13.34,108.6 -57.18,0 -232.53,-11.4 -236.34,-143 -5.72,-139.1 139.13,-57.1 223,34.4 z m 720.46,152.4 c 0,0 -186.79,-638.5 -577.51,-638.5 -150.58,0 -169.64,162 -158.2,345 -64.8,-62.9 -152.48,-125.8 -282.09,-104.8 -196.31,34.3 -152.47,293.5 13.35,396.4 121.98,76.3 249.68,64.8 306.86,55.3 3.81,51.5 3.81,97.2 -3.82,127.7 0,0 324.02,72.4 299.24,-242.1 -22.87,-314.4 -7.62,-487.9 114.36,-352.6 173.44,194.4 224.91,413.6 224.91,413.6 h 62.9" style="fill:#100f0d;fill-opacity:1;fill-rule:nonzero;stroke:none" id="path18" transform="matrix(0.133333, 0, 0, -0.133333, 0, 4000)"/>
  <path d="m 4973.49,2440.5 c -13.34,-47.7 -118.17,-676.7 -487.93,-676.7 -142.95,0 -181.07,146.8 -179.16,320.3 -55.28,-85.8 -135.33,-148.7 -247.78,-143 -303.05,11.4 -116.26,632.8 -139.13,712.8 0,0 287.8,53.4 255.4,-169.6 -41.94,-291.6 -53.37,-482.2 81.95,-343.1 133.42,137.3 102.93,442.2 102.93,442.2 0,0 325.92,72.4 301.14,-242 -24.78,-314.5 -68.62,-516.6 74.33,-350.7 142.95,167.7 175.35,474.5 175.35,474.5 0,0 76.24,21 62.9,-24.7" style="fill:#100f0d;fill-opacity:1;fill-rule:nonzero;stroke:none" id="path20" transform="matrix(0.133333, 0, 0, -0.133333, 0, 4000)"/>
  <path d="m 5190.74,2438.6 c -55.27,1.9 -232.53,1.9 -243.96,-129.6 -11.44,-139.2 173.44,-59.1 243.96,129.6 z m 615.63,-68.6 c -17.15,-45.8 -141.04,-436.5 -510.8,-415.6 -150.57,9.6 -154.38,154.4 -131.51,305 -45.74,-82 -173.44,-186.8 -301.14,-156.3 -194.41,43.9 -135.33,301.2 34.3,394.5 125.8,68.7 253.5,49.6 308.77,36.3 41.93,324 43.84,789 38.12,819.5 0,0 337.36,30.5 297.33,-282.1 -41.93,-335.4 -169.63,-1025.4 15.25,-903.4 152.48,101 203.94,234.5 203.94,234.5 l 45.74,-32.4" style="fill:#100f0d;fill-opacity:1;fill-rule:nonzero;stroke:none" id="path22" transform="matrix(0.133333, 0, 0, -0.133333, 0, 4000)"/>
  <path d="m 5943.59,2209.8 c 123.89,-7.6 171.54,53.4 190.6,91.5 13.34,26.7 28.59,110.6 -45.74,112.5 -22.87,1.9 -108.65,7.6 -144.86,-204 z m 577.51,181.1 c -322.11,-600.4 -960.61,-771.9 -865.31,-202 57.18,343.1 369.76,360.2 466.96,329.7 76.24,-24.8 144.86,-118.2 61,-253.5 -57.18,-93.4 -179.17,-104.8 -247.78,-102.9 -51.46,-459.3 480.3,122 547.01,259.2 l 38.12,-30.5" style="fill:#100f0d;fill-opacity:1;fill-rule:nonzero;stroke:none" id="path24" transform="matrix(0.133333, 0, 0, -0.133333, 0, 4000)"/>
  <path d="m 7325.33,1908.7 c 213.47,223 268.75,1103.6 148.67,1111.2 -135.32,9.5 -158.19,-444.1 -158.19,-444.1 -13.35,-274.5 -19.07,-560.4 9.52,-667.1 z m -106.73,-141 c -30.49,-11.5 -62.9,-19.1 -85.77,-19.1 -339.27,-9.5 -72.42,1360.9 -125.79,1553.4 0,0 365.94,81.9 337.35,-270.7 0,-9.5 0,-19 -1.9,-30.5 53.36,64.8 120.07,108.7 198.22,99.1 264.93,-34.3 101.01,-1193.1 -322.11,-1332.2" style="fill:#100f0d;fill-opacity:1;fill-rule:nonzero;stroke:none" id="path26" transform="matrix(0.133333, 0, 0, -0.133333, 0, 4000)"/>
  <path d="m 7965.7,2209.8 c 123.88,-7.6 171.54,53.4 190.59,91.5 13.34,26.7 28.59,110.6 -45.74,112.5 -22.87,1.9 -108.64,7.6 -144.85,-204 z m 577.51,181.1 C 8221.1,1790.5 7582.6,1619 7677.9,2188.9 c 57.17,343.1 369.75,360.2 466.96,329.7 76.24,-24.8 144.85,-118.2 60.99,-253.5 -57.18,-93.4 -179.16,-104.8 -247.78,-102.9 -51.46,-459.3 480.31,122 547.02,259.2 l 38.12,-30.5" style="fill:#100f0d;fill-opacity:1;fill-rule:nonzero;stroke:none" id="path28" transform="matrix(0.133333, 0, 0, -0.133333, 0, 4000)"/>
  <path d="m 8947.23,2478.6 c -114.36,7.6 -209.66,-507 -209.66,-507 190.6,131.5 310.68,501.3 209.66,507 z M 8649.9,1838.2 c -30.5,-13.4 -60.99,-17.2 -85.77,-17.2 -301.15,-7.6 -64.81,1332.3 -110.55,1503.8 0,0 324.02,72.5 299.24,-242 -15.25,-204 -41.93,-598.5 -40.03,-861.5 49.56,144.8 144.86,345 291.62,325.9 228.72,-30.5 7.62,-588.9 -354.51,-709" style="fill:#100f0d;fill-opacity:1;fill-rule:nonzero;stroke:none" id="path30" transform="matrix(0.133333, 0, 0, -0.133333, 0, 4000)"/>
  <path d="m 10245.2,2440.5 c -13.4,-47.7 -118.2,-676.7 -487.95,-676.7 -142.95,0 -181.07,146.8 -179.17,320.3 -55.27,-85.8 -135.32,-148.7 -247.77,-143 -303.05,11.4 -116.27,632.8 -139.14,712.8 0,0 287.8,53.4 255.4,-169.6 -41.93,-291.6 -53.37,-482.2 81.96,-343.1 133.41,137.3 102.92,442.2 102.92,442.2 0,0 325.92,72.4 301.14,-242 -24.77,-314.5 -68.61,-516.6 74.31,-350.7 143,167.7 175.4,474.5 175.4,474.5 0,0 76.2,21 62.9,-24.7" style="fill:#100f0d;fill-opacity:1;fill-rule:nonzero;stroke:none" id="path32" transform="matrix(0.133333, 0, 0, -0.133333, 0, 4000)"/>
  <path d="m 10395.7,1748.6 c 3.8,-1.9 7.6,-3.8 11.4,-5.7 36.2,-13.4 66.7,-15.3 80.1,26.7 34.3,112.4 -53.4,221.1 -162,364 -11.5,-24.8 -19.1,-49.5 -24.8,-74.3 -7.6,-34.3 -11.4,-70.6 -9.5,-104.9 1.9,-15.2 3.8,-32.4 5.7,-49.5 3.8,-15.3 7.6,-32.4 11.4,-45.7 7.6,-26.7 21,-49.6 36.2,-68.7 15.3,-17.1 34.3,-30.5 51.5,-41.9 z m 543.2,571.8 c 0,0 -293.5,158.2 -430.8,36.2 179.2,-268.7 425.1,-554.6 186.8,-695.7 -47.6,-22.8 -135.3,-64.8 -228.7,-43.8 -1.9,0 -1.9,0 -1.9,0 -1.9,0 -5.7,0 -7.6,1.9 -11.5,1.9 -28.6,5.7 -47.7,13.3 -19,5.8 -41.9,17.2 -66.7,32.4 -22.8,15.3 -49.5,36.2 -72.4,64.8 -22.9,28.6 -41.9,64.8 -53.4,103 0,5.7 -1.9,11.4 -1.9,15.2 l -1.9,3.8 v 3.8 l -1.9,7.7 -1.9,5.7 v 7.6 c -1.9,5.7 -1.9,11.4 -1.9,15.3 -3.8,19 -5.7,40 -5.7,60.9 0,42 3.8,83.9 15.2,127.7 11.5,42 28.6,82 49.6,120.1 1.9,1.9 1.9,3.8 3.8,5.7 -21,28.6 -41.9,59.1 -62.9,91.5 -261.12,407.9 160.1,482.2 160.1,482.2 -40,-99.1 17.2,-226.8 101,-362.1 209.7,116.3 463.2,-51.5 463.2,-51.5 l 7.6,-45.7" style="fill:#100f0d;fill-opacity:1;fill-rule:nonzero;stroke:none" id="path34" transform="matrix(0.133333, 0, 0, -0.133333, 0, 4000)"/>
  <path d="m 11085.6,1748.6 c 3.8,-1.9 7.7,-3.8 11.5,-5.7 36.2,-13.4 66.7,-15.3 80,26.7 34.3,112.4 -53.3,221.1 -162,364 -11.4,-24.8 -19,-49.5 -24.8,-74.3 -7.6,-34.3 -11.4,-70.6 -9.5,-104.9 1.9,-15.2 3.8,-32.4 5.7,-49.5 3.8,-15.3 7.7,-32.4 11.5,-45.7 7.6,-26.7 20.9,-49.6 36.2,-68.7 15.2,-17.1 34.3,-30.5 51.4,-41.9 z m 543.2,571.8 c 0,0 -293.5,158.2 -430.7,36.2 179.2,-268.7 425,-554.6 186.8,-695.7 -47.7,-22.8 -135.3,-64.8 -228.7,-43.8 -1.9,0 -1.9,0 -1.9,0 -2,0 -5.8,0 -7.7,1.9 -11.4,1.9 -28.6,5.7 -47.6,13.3 -19.1,5.8 -42,17.2 -66.7,32.4 -22.9,15.3 -49.6,36.2 -72.5,64.8 -22.8,28.6 -41.9,64.8 -53.3,103 0,5.7 -1.9,11.4 -1.9,15.2 l -1.9,3.8 v 3.8 l -1.9,7.7 -1.9,5.7 v 7.6 c -2,5.7 -2,11.4 -2,15.3 -3.8,19 -5.7,40 -5.7,60.9 0,42 3.8,83.9 15.3,127.7 11.4,42 28.6,82 49.5,120.1 1.9,1.9 1.9,3.8 3.8,5.7 -20.9,28.6 -41.9,59.1 -62.9,91.5 -261.1,407.9 160.1,482.2 160.1,482.2 -40,-99.1 17.2,-226.8 101.1,-362.1 209.6,116.3 463.1,-51.5 463.1,-51.5 l 7.6,-45.7" style="fill:#100f0d;fill-opacity:1;fill-rule:nonzero;stroke:none" id="path36" transform="matrix(0.133333, 0, 0, -0.133333, 0, 4000)"/>
  <path d="m 12290.2,2009.7 c -1.9,-205.8 1.9,-434.5 19.1,-585.1 83.8,259.2 9.5,507 -19.1,585.1 z m 385,417.4 -327.8,-415.5 c 175.3,-735.7 -51.5,-880.5 -99.1,-897.7 -24.8,-11.4 -49.6,-15.2 -68.7,-17.1 -209.6,-17.2 -196.3,646.1 -188.6,1086.4 -51.5,-144.9 -144.9,-289.7 -314.5,-284 -303.1,11.4 -116.3,634.7 -139.2,714.7 0,0 287.8,51.5 255.4,-169.6 -41.9,-291.6 -53.3,-482.2 82,-343.1 91.5,93.4 106.7,263 106.7,364 l -3.8,76.3 c 0,0 320.2,97.2 314.5,-244 0,-74.3 -1.9,-163.9 -1.9,-259.2 213.5,230.6 346.9,411.7 346.9,411.7 l 38.1,-22.9" style="fill:#100f0d;fill-opacity:1;fill-rule:nonzero;stroke:none" id="path38" transform="matrix(0.133333, 0, 0, -0.133333, 0, 4000)"/>
</svg>