<?xml version="1.0" encoding="utf-8"?>
<svg viewBox="0 655.706 298.867 50.321" width="298.867" height="50.321" xmlns="http://www.w3.org/2000/svg">
  <path d="m 119.121,189.629 c 4.832,-0.539 8.445,-0.801 10.867,-0.801 0.266,4.024 0.735,10.262 1.407,18.711 0.668,8.449 1.132,14.82 1.41,19.121 0.261,1.871 0.73,6.77 1.406,14.692 0.672,7.91 1.141,14.207 1.414,18.91 0.266,4.687 0.598,11 1.008,18.91 0.398,7.906 0.457,14.348 0.191,19.316 -0.261,4.973 -0.801,9.992 -1.609,15.094 -0.801,5.086 -2.149,8.848 -4.024,11.27 -1.875,2.41 -4.16,3.617 -6.836,3.617 -24.9487,-1.078 -44.0034,-45.348 -57.148,-132.797 0.8008,0 1.4727,-0.141 2.0118,-0.41 l 10.871,-1.203 c 0.5235,-0.27 1.461,-0.399 2.8125,-0.399 1.336,0 2.4102,-0.148 3.2188,-0.41 0.8008,-0.262 1.875,-0.469 3.2266,-0.602 1.3359,-0.136 2.4101,-0.199 3.2109,-0.199 2.6758,-0.269 6.9727,-0.668 12.8794,-1.211 3.222,-0.539 7.777,-1.078 13.683,-1.609 z m 80.09,111.07 C 193.84,154.219 197.195,77.4883 209.27,70.5195 207.117,63.5313 201.152,57.2305 191.355,51.6016 181.563,45.9688 172.773,42.7383 165,41.9414 149.172,40.8711 138.699,52 133.613,75.3398 c -5.105,23.3399 -6.582,55.1402 -4.433,95.3792 -5.371,0.531 -9.258,0.801 -11.668,0.801 l -13.684,1.21 c -5.91,0.532 -10.3319,0.801 -13.2811,0.801 -0.8008,0 -1.9453,0.141 -3.418,0.399 -1.4726,0.269 -2.4805,0.398 -3.0195,0.398 -0.543,0 -1.4805,0.07 -2.8203,0.211 -1.336,0.141 -2.4102,0.199 -3.211,0.199 -2.6875,0.274 -6.4453,0.672 -11.2734,1.211 -0.2734,0 -0.6719,0.063 -1.2109,0.199 -0.5352,0.133 -0.9375,0.211 -1.1993,0.211 C 62.5117,162.66 60.2227,144.02 57.5469,120.41 54.8633,96.8008 52.5781,78.9609 50.7031,66.8906 48.8281,54.8086 46.9453,46.7695 45.0781,42.7383 42.918,35.5 36.8281,29 26.7578,23.2188 16.6992,17.4609 7.78125,14.4414 0,14.1719 6.17188,53.3516 12.7422,89.1602 19.7188,121.621 c 6.9804,32.457 13.7578,60.168 20.3203,83.098 6.5703,22.941 13.6132,43.332 21.1328,61.179 7.5078,17.832 14.2187,32.25 20.1172,43.262 5.8984,10.988 12.539,20.25 19.9219,27.762 7.375,7.508 13.418,12.937 18.113,16.297 4.692,3.351 10.254,5.64 16.699,6.851 6.438,1.2 10.997,1.731 13.684,1.602 2.676,-0.141 6.301,-0.473 10.867,-1.012 1.34,0 3.078,-0.262 5.227,-0.801 h 0.808 c 21.196,-5.097 32.051,-22.398 32.602,-51.91 v -1.609 -0.801 -0.41 -4.43" style="fill:#111011;fill-opacity:1;fill-rule:nonzero;stroke:none" id="path96" transform="matrix(0.133333, 0, 0, -0.133333, 0, 706.026672)"/>
  <path d="m 384.727,185.602 8.449,-4.024 C 381.367,158.5 373.059,142.809 368.223,134.5 c -4.024,-7.781 -8.184,-14.23 -12.469,-19.32 -3.762,-4.289 -6.848,-7.379 -9.262,-9.25 -0.269,-0.282 -0.738,-0.61 -1.402,-1.008 -0.676,-0.402 -1.145,-0.742 -1.406,-1.012 -0.278,-0.269 -0.813,-0.531 -1.614,-0.808 -0.808,-0.262 -1.347,-0.532 -1.609,-0.801 -0.273,0 -0.949,-0.27 -2.016,-0.801 h -1.211 l -0.398,-0.41 h -1.609 -0.403 -0.398 -0.403 -1.21 c -1.875,0 -3.489,0.539 -4.825,1.609 -1.883,0.813 -3.222,2.153 -4.035,4.031 -0.801,1.071 -1.875,4.02 -3.211,8.848 -0.547,3.75 -0.808,8.992 -0.808,15.703 0.261,6.699 0.933,16.5 2.007,29.367 0.539,6.454 0.813,11.141 0.813,14.09 0,5.903 -0.137,9.93 -0.399,12.071 -0.277,1.07 -0.949,1.882 -2.011,2.421 -0.813,0.532 -1.887,0.129 -3.227,-1.199 l -2.41,-2.429 c -1.887,-2.411 -3.762,-5.633 -5.637,-9.653 -1.343,-2.418 -3.086,-6.039 -5.23,-10.859 -4.027,-10.469 -6.582,-17.449 -7.649,-20.93 -3.488,-10.211 -6.711,-21.07 -9.66,-32.601 L 282.91,98.2813 c -5.371,-20.9297 -17.043,-31.6602 -35.012,-32.2032 -11.003,-0.2578 -18.984,3.961 -23.945,12.6836 -4.969,8.7188 -7.105,19.8477 -6.433,33.4063 0.664,13.543 1.867,28.23 3.613,44.062 1.75,15.829 3.625,30.579 5.637,44.27 2.007,13.68 1.941,25.211 -0.2,34.609 0.801,0.262 2.016,0.532 3.625,0.801 1.614,0.27 4.563,0.531 8.848,0.809 4.285,0.261 8.391,0.062 12.273,-0.61 3.887,-0.668 8.118,-2.281 12.676,-4.82 4.563,-2.559 8.457,-6.051 11.672,-10.469 3.223,-4.429 5.703,-10.672 7.449,-18.711 1.742,-8.05 2.348,-17.441 1.809,-28.179 v -2.008 c 13.945,24.148 26.289,36.09 37.019,35.816 7.512,-0.269 11.809,-6.238 12.883,-17.906 1.074,-11.672 0.535,-22.473 -1.609,-32.391 0,-2.16 -0.266,-5.101 -0.805,-8.863 v -2.406 c -0.547,-3.223 -1.07,-8.32 -1.609,-15.293 0,-6.168 0.137,-10.469 0.398,-12.879 0.539,-2.148 0.942,-3.488 1.211,-4.031 l 0.403,-0.399 0.402,-0.398 h 0.398 0.41 l 1.204,0.398 h 0.808 0.403 c 0,0.27 0.261,0.399 0.796,0.399 0.266,0.269 0.539,0.402 0.813,0.402 0.527,0.27 0.937,0.41 1.199,0.41 l 0.813,0.797 c 0.539,0.274 0.937,0.543 1.203,0.813 0.808,0.531 3.218,2.82 7.246,6.839 4.558,5.36 8.582,11.27 12.066,17.711 l 24.153,44.661" style="fill:#111011;fill-opacity:1;fill-rule:nonzero;stroke:none" id="path98" transform="matrix(0.133333, 0, 0, -0.133333, 0, 706.026672)"/>
  <path d="m 528.391,188.031 8.843,-6.453 c -0.796,-2.148 -1.875,-4.887 -3.211,-8.246 -1.347,-3.352 -4.367,-10.062 -9.05,-20.121 -4.7,-10.063 -9.602,-19.59 -14.7,-28.57 -5.097,-9 -11.601,-18.922 -19.511,-29.7816 C 482.844,83.9883 474.797,74.7305 466.609,67.0898 458.43,59.4414 448.965,53.2109 438.242,48.3789 427.512,43.5508 416.777,41.5313 406.047,42.3398 399.609,42.6211 394.102,45.832 389.551,52 c -4.571,6.1719 -7.988,15.2188 -10.266,27.1719 -2.281,11.9297 -4.019,24.3401 -5.23,37.2191 -1.211,12.879 -1.684,28.5 -1.41,46.879 0.265,18.378 0.668,34.679 1.203,48.898 0.539,14.223 1.347,30.852 2.422,49.902 -1.614,0 -3.899,-0.07 -6.844,-0.211 -2.949,-0.129 -5.102,-0.328 -6.438,-0.589 -5.91,0 -10.207,-0.149 -12.883,-0.411 h -18.914 -5.632 -1.606 l -1.211,12.481 c 0.539,0 1.211,0.129 2.016,0.398 0.269,0 2.012,0.262 5.23,0.813 1.34,0.258 2.95,0.527 4.825,0.801 1.875,0.257 4.23,0.609 7.042,1.007 2.825,0.403 5.165,0.731 7.051,1 0.801,0 2.676,0.211 5.625,0.61 2.949,0.402 5.235,0.73 6.848,1 2.945,0.543 7.644,1.07 14.082,1.609 0.535,0.274 1.07,0.402 1.609,0.402 3.489,53.129 4.16,83.711 2.012,91.758 1.074,0.274 2.41,0.532 4.023,0.801 1.614,0.27 4.766,0.473 9.461,0.609 4.692,0.133 9.114,-0.07 13.286,-0.609 4.148,-0.527 8.711,-1.879 13.679,-4.019 4.961,-2.149 9.18,-5.032 12.676,-8.649 3.484,-3.633 6.238,-8.793 8.254,-15.5 2.012,-6.711 2.605,-14.621 1.805,-23.742 -0.274,-4.828 -0.95,-16.641 -2.012,-35.41 1.062,0 2.949,0.062 5.637,0.191 2.672,0.141 4.558,0.211 5.632,0.211 2.95,0.258 7.098,0.399 12.469,0.399 1.34,0 3.227,0.058 5.637,0.199 2.422,0.133 4.16,0.199 5.234,0.199 h 8.45 7.246 l 0.808,-12.469 c -1.609,-0.551 -3.894,-1.07 -6.847,-1.609 -2.411,-0.539 -5.235,-0.949 -8.446,-1.211 -1.086,0 -2.754,-0.199 -5.039,-0.609 -2.273,-0.399 -4.094,-0.731 -5.43,-1 -1.347,0 -3.417,-0.2 -6.242,-0.602 -2.808,-0.406 -5.027,-0.738 -6.636,-1.008 -1.079,0 -3.157,-0.199 -6.235,-0.601 -3.086,-0.399 -5.437,-0.739 -7.039,-1.008 -1.086,-21.199 -1.887,-44.539 -2.422,-70.031 0.266,-48.821 0.672,-76.321 1.211,-82.489 1.875,-21.9997 6.571,-32.8708 14.082,-32.5896 3.489,0 7.512,1.8594 12.078,5.6289 7.778,6.4375 17.036,17.9687 27.766,34.6097 10.723,16.629 19.453,31.789 26.16,45.468 l 10.063,20.133" style="fill:#111011;fill-opacity:1;fill-rule:nonzero;stroke:none" id="path100" transform="matrix(0.133333, 0, 0, -0.133333, 0, 706.026672)"/>
  <path d="m 611.688,188.031 c -5.094,1.598 -10.868,0 -17.301,-4.84 0.535,-1.07 1.609,-2.41 3.218,-4.019 2.141,-2.152 4.426,-3.762 6.836,-4.844 1.34,-1.066 2.825,-1.738 4.426,-2.008 3.223,-0.8 4.961,-1.199 5.235,-1.199 3.222,-0.812 6.433,-1.211 9.66,-1.211 -1.875,10.199 -5.903,16.231 -12.074,18.121 z M 581.902,94.6602 c 6.711,-2.1485 13.821,0.6015 21.328,8.2498 7.512,7.641 13.286,17.91 17.305,30.781 1.074,3.219 2.153,7.508 3.227,12.879 -5.371,-0.539 -9.524,-0.672 -12.473,-0.398 -0.547,0 -1.418,0.058 -2.617,0.199 -1.211,0.129 -2.285,0.258 -3.223,0.41 -0.937,0.117 -1.804,0.328 -2.617,0.59 -1.875,0.27 -4.695,0.938 -8.445,2.02 -4.574,1.339 -9.258,3.75 -14.082,7.238 -1.614,1.07 -2.688,1.871 -3.227,2.422 -0.535,-1.352 -1.883,-4.699 -4.019,-10.071 -4.028,-12.871 -5.168,-24.621 -3.418,-35.199 1.738,-10.609 5.828,-16.9802 12.261,-19.1208 z m 131.203,101.8088 4.825,-8.438 c -1.348,-1.09 -3.223,-2.429 -5.633,-4.031 -0.277,-0.27 -0.805,-0.602 -1.613,-1.012 -0.801,-0.398 -1.336,-0.738 -1.614,-1.008 l -3.609,-2.41 c -0.273,-0.269 -0.883,-0.679 -1.816,-1.199 -0.942,-0.551 -1.68,-0.953 -2.207,-1.211 -0.547,-0.281 -1.348,-0.801 -2.422,-1.609 -1.078,-0.813 -1.875,-1.352 -2.414,-1.621 -2.957,-1.34 -4.7,-2.27 -5.235,-2.809 -0.539,-0.551 -1.472,-1.141 -2.812,-1.82 -1.348,-0.672 -2.285,-1.141 -2.825,-1.403 -0.261,-0.269 -0.742,-0.609 -1.406,-1.007 -0.672,-0.403 -1.14,-0.602 -1.402,-0.602 l -1.613,-0.801 c -0.274,0 -0.539,-0.136 -0.801,-0.398 -0.274,-0.281 -0.547,-0.41 -0.813,-0.41 -1.074,-0.27 -2.144,-0.801 -3.211,-1.61 -1.086,-0.269 -2.16,-0.808 -3.222,-1.609 -2.957,-1.34 -7.649,-3.359 -14.082,-6.031 -4.035,-1.61 -8.992,-3.36 -14.895,-5.239 -0.808,-0.269 -1.949,-0.601 -3.418,-1 -1.48,-0.402 -2.488,-0.613 -3.023,-0.613 -0.801,-4.816 -2.016,-9.66 -3.614,-14.476 C 627.52,113.172 616.113,97.1406 600.02,86 583.918,74.8711 567.688,71.8516 551.316,76.9492 c -16.367,5.0899 -27.898,16.8399 -34.597,35.2188 -6.707,18.371 -6.707,38.152 0,59.352 6.699,20.929 18.105,36.949 34.199,48.101 16.102,11.117 32.336,14.141 48.699,9.047 10.996,-3.496 19.985,-10.539 26.965,-21.129 6.973,-10.598 10.996,-22.871 12.07,-36.82 h 1.211 c 6.7,1.34 11.258,2.281 13.684,2.812 2.137,0.27 6.558,1.481 13.277,3.629 1.606,0.531 2.68,0.93 3.215,1.211 1.609,0.52 2.676,0.801 3.223,0.801 l 1.609,0.797 c 0.266,0 0.527,0.07 0.805,0.203 0.262,0.137 0.535,0.207 0.808,0.207 0.262,0.262 0.735,0.531 1.407,0.801 0.664,0.261 1.132,0.398 1.406,0.398 l 6.035,2.422 c 1.609,0.531 3.352,1.199 5.234,2.012 2.137,1.066 3.75,1.738 4.825,2.019 2.148,1.059 3.625,1.731 4.433,2.008 0.266,0.262 0.867,0.59 1.809,1 0.933,0.402 1.543,0.742 1.812,1.012 l 3.618,1.199 6.042,3.219" style="fill:#111011;fill-opacity:1;fill-rule:nonzero;stroke:none" id="path102" transform="matrix(0.133333, 0, 0, -0.133333, 0, 706.026672)"/>
  <path d="m 836.238,185.602 8.45,-4.024 C 832.883,158.5 824.57,142.809 819.734,134.5 c -4.019,-7.781 -8.179,-14.23 -12.468,-19.32 -3.758,-4.289 -6.844,-7.379 -9.258,-9.25 -0.274,-0.282 -0.742,-0.61 -1.406,-1.008 -0.672,-0.402 -1.141,-0.742 -1.407,-1.012 -0.273,-0.269 -0.808,-0.531 -1.609,-0.808 -0.813,-0.262 -1.352,-0.532 -1.613,-0.801 -0.274,0 -0.95,-0.27 -2.012,-0.801 h -1.211 l -0.398,-0.41 h -1.614 -0.398 -0.402 -0.403 -1.211 c -1.875,0 -3.484,0.539 -4.82,1.609 -1.887,0.813 -3.227,2.153 -4.035,4.031 -0.801,1.071 -1.875,4.02 -3.211,8.848 -0.547,3.75 -0.813,8.992 -0.813,15.703 0.266,6.699 0.938,16.5 2.012,29.367 0.535,6.454 0.813,11.141 0.813,14.09 0,5.903 -0.137,9.93 -0.403,12.071 -0.273,1.07 -0.945,1.882 -2.012,2.421 -0.808,0.532 -1.882,0.129 -3.222,-1.199 l -2.41,-2.429 c -1.887,-2.411 -3.762,-5.633 -5.637,-9.653 -1.348,-2.418 -3.086,-6.039 -5.234,-10.859 -4.024,-10.469 -6.582,-17.449 -7.649,-20.93 -3.484,-10.211 -6.707,-21.07 -9.656,-32.601 l -3.621,-13.2777 c -5.371,-20.9297 -17.043,-31.6602 -35.012,-32.2032 -11.008,-0.2578 -18.984,3.961 -23.945,12.6836 -4.973,8.7188 -7.11,19.8477 -6.438,33.4063 0.664,13.543 1.867,28.23 3.614,44.062 1.75,15.829 3.625,30.579 5.636,44.27 2.012,13.68 1.946,25.211 -0.195,34.609 0.801,0.262 2.012,0.532 3.625,0.801 1.609,0.27 4.559,0.531 8.848,0.809 4.285,0.261 8.386,0.062 12.273,-0.61 3.887,-0.668 8.113,-2.281 12.676,-4.82 4.558,-2.559 8.457,-6.051 11.672,-10.469 3.218,-4.429 5.703,-10.672 7.449,-18.711 1.738,-8.05 2.344,-17.441 1.809,-28.179 v -2.008 c 13.945,24.148 26.289,36.09 37.019,35.816 7.512,-0.269 11.809,-6.238 12.883,-17.906 1.07,-11.672 0.535,-22.473 -1.613,-32.391 0,-2.16 -0.262,-5.101 -0.801,-8.863 v -2.406 c -0.547,-3.223 -1.074,-8.32 -1.613,-15.293 0,-6.168 0.136,-10.469 0.402,-12.879 0.539,-2.148 0.937,-3.488 1.211,-4.031 l 0.398,-0.399 0.403,-0.398 h 0.402 0.406 l 1.203,0.398 h 0.813 0.398 c 0,0.27 0.266,0.399 0.801,0.399 0.266,0.269 0.535,0.402 0.813,0.402 0.527,0.27 0.933,0.41 1.199,0.41 l 0.808,0.797 c 0.539,0.274 0.942,0.543 1.203,0.813 0.813,0.531 3.223,2.82 7.247,6.839 4.558,5.36 8.585,11.27 12.07,17.711 l 24.148,44.661" style="fill:#111011;fill-opacity:1;fill-rule:nonzero;stroke:none" id="path104" transform="matrix(0.133333, 0, 0, -0.133333, 0, 706.026672)"/>
  <path d="m 878.887,245.16 c -5.899,-5.89 -13.008,-8.84 -21.328,-8.84 -8.321,0 -15.43,2.95 -21.329,8.84 -5.898,5.899 -8.847,13.02 -8.847,21.328 0,8.321 2.949,15.434 8.847,21.332 5.899,5.899 13.008,8.86 21.329,8.86 8.32,0 15.429,-2.961 21.328,-8.86 5.898,-5.898 8.855,-13.011 8.855,-21.332 0,-8.308 -2.957,-15.429 -8.855,-21.328 z m 78.476,-59.961 11.668,-4.418 c -0.261,-0.269 -2.078,-4.16 -5.426,-11.672 -3.363,-7.519 -6.984,-15.359 -10.871,-23.55 -3.886,-8.18 -9.394,-17.508 -16.496,-27.957 -7.117,-10.461 -14.422,-19.6606 -21.929,-27.5707 -7.524,-7.9102 -16.504,-14.5508 -26.965,-19.9219 -10.469,-5.3789 -21.067,-7.9102 -31.797,-7.6485 -12.07,0.5391 -21.121,5.4375 -27.156,14.6875 -6.047,9.25 -9.258,20.793 -9.661,34.6096 -0.41,13.812 0.059,27.562 1.407,41.25 1.34,13.691 2.883,26.422 4.629,38.23 1.738,11.813 2.207,19.051 1.406,21.742 1.609,0.258 3.75,0.59 6.433,1 2.688,0.399 7.454,0.399 14.29,0 6.843,-0.41 12.675,-1.609 17.507,-3.621 4.828,-2.007 8.989,-5.839 12.473,-11.468 3.484,-5.641 4.563,-12.879 3.223,-21.731 -7.246,-49.109 -6.035,-75.531 3.625,-79.2811 4.019,-1.6094 9.519,0 16.492,4.8201 8.586,5.903 17.644,15.77 27.168,29.582 9.519,13.821 16.965,26.098 22.336,36.828 l 7.644,16.09" style="fill:#111011;fill-opacity:1;fill-rule:nonzero;stroke:none" id="path106" transform="matrix(0.133333, 0, 0, -0.133333, 0, 706.026672)"/>
  <path d="m 1092.59,185.602 8.45,-4.024 c -11.81,-23.078 -20.12,-38.769 -24.96,-47.078 -4.02,-7.781 -8.18,-14.23 -12.47,-19.32 -3.76,-4.289 -6.84,-7.379 -9.25,-9.25 -0.28,-0.282 -0.75,-0.61 -1.41,-1.008 -0.67,-0.402 -1.14,-0.742 -1.41,-1.012 -0.27,-0.269 -0.81,-0.531 -1.61,-0.808 -0.81,-0.262 -1.35,-0.532 -1.61,-0.801 -0.27,0 -0.95,-0.27 -2.01,-0.801 h -1.21 l -0.4,-0.41 h -1.61 -0.4 -0.4 -0.41 -1.21 c -1.87,0 -3.48,0.539 -4.82,1.609 -1.89,0.813 -3.22,2.153 -4.03,4.031 -0.8,1.071 -1.88,4.02 -3.22,8.848 -0.54,3.75 -0.81,8.992 -0.81,15.703 0.27,6.699 0.94,16.5 2.01,29.367 0.54,6.454 0.82,11.141 0.82,14.09 0,5.903 -0.14,9.93 -0.41,12.071 -0.27,1.07 -0.94,1.882 -2.01,2.421 -0.81,0.532 -1.88,0.129 -3.22,-1.199 l -2.41,-2.429 c -1.89,-2.411 -3.76,-5.633 -5.64,-9.653 -1.34,-2.418 -3.08,-6.039 -5.23,-10.859 -4.02,-10.469 -6.58,-17.449 -7.65,-20.93 -3.48,-10.211 -6.706,-21.07 -9.655,-32.601 L 990.77,98.2813 c -5.372,-20.9297 -17.04,-31.6602 -35.008,-32.2032 -11.004,-0.2578 -18.985,3.961 -23.946,12.6836 -4.968,8.7188 -7.109,19.8477 -6.433,33.4063 0.664,13.543 1.863,28.23 3.609,44.062 1.75,15.829 3.625,30.579 5.637,44.27 2.012,13.68 1.941,25.211 -0.195,34.609 0.8,0.262 2.011,0.532 3.625,0.801 1.609,0.27 4.558,0.531 8.843,0.809 4.289,0.261 8.391,0.062 12.278,-0.61 3.886,-0.668 8.117,-2.281 12.675,-4.82 4.563,-2.559 8.458,-6.051 11.668,-10.469 3.223,-4.429 5.707,-10.672 7.454,-18.711 1.738,-8.05 2.343,-17.441 1.804,-28.179 v -2.008 c 13.949,24.148 26.289,36.09 37.019,35.816 7.51,-0.269 11.81,-6.238 12.89,-17.906 1.07,-11.672 0.53,-22.473 -1.62,-32.391 0,-2.16 -0.26,-5.101 -0.8,-8.863 v -2.406 c -0.54,-3.223 -1.07,-8.32 -1.61,-15.293 0,-6.168 0.14,-10.469 0.4,-12.879 0.54,-2.148 0.94,-3.488 1.21,-4.031 l 0.4,-0.399 0.4,-0.398 h 0.4 0.41 l 1.21,0.398 h 0.81 0.4 c 0,0.27 0.26,0.399 0.8,0.399 0.26,0.269 0.53,0.402 0.81,0.402 0.53,0.27 0.94,0.41 1.2,0.41 l 0.81,0.797 c 0.54,0.274 0.94,0.543 1.2,0.813 0.81,0.531 3.22,2.82 7.25,6.839 4.56,5.36 8.58,11.27 12.07,17.711 l 24.15,44.661" style="fill:#111011;fill-opacity:1;fill-rule:nonzero;stroke:none" id="path108" transform="matrix(0.133333, 0, 0, -0.133333, 0, 706.026672)"/>
  <path d="m 1255.16,213.781 c -3.76,-75.133 -3.09,-122.0818 2.01,-140.8513 13.95,14.4805 25.09,40.9683 33.41,79.4803 8.31,38.5 12.13,73.84 11.46,106.039 -0.67,32.192 -5.16,48.551 -13.48,49.102 -5.37,0.258 -10.2,-2.762 -14.49,-9.063 -4.29,-6.297 -7.51,-14.09 -9.66,-23.347 -2.14,-9.243 -4.02,-18.5 -5.63,-27.762 -1.61,-9.258 -2.55,-17.238 -2.81,-23.938 z m 47.49,110.668 c 10.72,-1.347 18.44,-11 23.14,-28.98 4.69,-17.969 5.63,-39.707 2.81,-65.188 -2.81,-25.5 -7.85,-51.25 -15.08,-77.273 -7.25,-26.028 -17.98,-49.438 -32.2,-70.2267 -14.23,-20.793 -29.79,-34 -46.68,-39.6407 -7.25,-2.6718 -13.28,-4.0195 -18.12,-4.0195 -9.65,-0.2617 -17.44,4.8984 -23.34,15.5 -5.9,10.5898 -9.65,24.4687 -11.27,41.6484 -1.61,17.1715 -2.41,36.6215 -2.41,58.3515 0,21.738 1.01,43.66 3.02,65.801 2.01,22.129 3.68,43.316 5.03,63.578 1.34,20.262 2.55,37.559 3.62,51.918 1.08,14.344 0.67,24.742 -1.21,31.191 1.08,0.262 2.55,0.532 4.43,0.801 1.88,0.262 5.43,0.539 10.67,0.809 5.23,0.261 10.19,0.062 14.89,-0.61 4.69,-0.668 9.85,-2.211 15.49,-4.629 5.63,-2.41 10.39,-5.628 14.29,-9.652 3.88,-4.027 6.97,-9.797 9.25,-17.308 2.28,-7.52 3.02,-16.372 2.21,-26.559 0,-2.691 -0.14,-4.832 -0.4,-6.441 12.88,15.82 26.83,22.8 41.86,20.929" style="fill:#111011;fill-opacity:1;fill-rule:nonzero;stroke:none" id="path110" transform="matrix(0.133333, 0, 0, -0.133333, 0, 706.026672)"/>
  <path d="m 1443.49,183.191 c 4.28,-3.222 7.51,-5.5 9.65,-6.832 0.27,1.332 0.75,3.75 1.41,7.231 0.67,3.488 1.14,6.172 1.42,8.051 0,0.539 0.06,1.281 0.19,2.218 0.14,0.93 0.21,1.539 0.21,1.813 0.26,0.797 0.4,2.137 0.4,4.027 0.53,2.41 0.53,4.821 0,7.231 0,5.371 -1.08,9.519 -3.23,12.48 -1.6,3.231 -4.02,5.238 -7.23,6.039 -3.22,0.801 -6.85,0.262 -10.87,-1.609 -3.76,-2.149 -6.44,-4.828 -8.05,-8.051 -1.35,-2.961 -1.61,-6.57 -0.81,-10.871 1.08,-4.02 3.36,-7.906 6.85,-11.668 2.41,-3.211 5.76,-6.57 10.06,-10.059 z m 82.5,0.809 8.04,-2.422 c 0,-0.539 -0.13,-1.348 -0.4,-2.406 -0.27,-1.082 -0.94,-3.09 -2.01,-6.043 -1.07,-2.961 -2.41,-5.5 -4.02,-7.641 -1.61,-2.148 -3.97,-4.769 -7.04,-7.847 -3.09,-3.09 -6.71,-5.102 -10.87,-6.039 -4.16,-0.942 -9.26,-1.75 -15.3,-2.411 -6.03,-0.679 -12.94,0.2 -20.72,2.61 -3.22,-12.883 -6.71,-23.879 -10.47,-32.992 -4.56,-10.75 -9.79,-20.2699 -15.69,-28.5785 -5.63,-7.7813 -11.93,-14.75 -18.92,-20.9297 -5.09,-4.2891 -10.32,-8.0391 -15.69,-11.2617 -8.58,-5.3711 -19.05,-9.1289 -31.39,-11.2696 -11.8,-1.8789 -21.46,1.2813 -28.97,9.461 -7.52,8.1679 -12.68,19.9804 -15.5,35.4101 -2.81,15.4184 -4.7,30.2384 -5.63,44.4684 -0.94,14.211 -1.41,29.641 -1.41,46.282 0,16.629 -0.14,27.089 -0.4,31.39 1.87,0.797 4.29,1.61 7.25,2.41 2.94,0.809 8.25,1.469 15.89,2.008 7.65,0.539 14.49,-0.14 20.52,-2.008 6.04,-1.882 11.81,-6.5 17.31,-13.882 5.49,-7.379 8.65,-17.239 9.46,-29.579 2.95,-38.902 6.43,-64.789 10.46,-77.6714 4.56,4.0195 8.86,8.4534 12.88,13.2814 5.63,6.969 10.32,14.351 14.08,22.14 4.29,8.579 8.05,18.098 11.27,28.571 0,0.531 0.26,1.597 0.8,3.211 -1.87,0.808 -6.83,3.758 -14.88,8.859 -5.11,3.75 -9.53,7.649 -13.28,11.668 -4.3,4.563 -7.92,10.199 -10.87,16.91 -0.8,2.129 -1.48,5.762 -2.01,10.852 0,3.488 0.66,7.508 2.01,12.09 2.67,7.5 7.78,13.398 15.29,17.699 7.25,4.558 15.29,6.301 24.15,5.23 4.29,-0.808 8.45,-2.422 12.47,-4.832 3.23,-2.148 6.3,-5.226 9.26,-9.258 1.88,-2.679 3.75,-6.429 5.63,-11.269 l 2.42,-10.859 c 0.26,-2.422 0.4,-5.903 0.4,-10.461 v -5.231 c -0.27,-1.351 -0.4,-2.961 -0.4,-4.832 -0.8,-8.598 -2.01,-16.906 -3.63,-24.949 1.08,-0.539 2.55,-1.149 4.43,-1.809 1.87,-0.679 5.3,-1.492 10.26,-2.422 4.96,-0.937 9.46,-1.007 13.49,-0.199 4.02,0.801 8.17,3.211 12.47,7.25 4.29,4.02 7.38,9.781 9.26,17.301" style="fill:#111011;fill-opacity:1;fill-rule:nonzero;stroke:none" id="path112" transform="matrix(0.133333, 0, 0, -0.133333, 0, 706.026672)"/>
  <path d="m 1594.8,188.031 c -5.09,1.598 -10.86,0 -17.3,-4.84 0.54,-1.07 1.61,-2.41 3.22,-4.019 2.14,-2.152 4.43,-3.762 6.84,-4.844 1.34,-1.066 2.82,-1.738 4.42,-2.008 3.23,-0.8 4.96,-1.199 5.24,-1.199 3.22,-0.812 6.43,-1.211 9.66,-1.211 -1.88,10.199 -5.9,16.231 -12.08,18.121 z m -29.78,-93.3708 c 6.71,-2.1485 13.82,0.6015 21.33,8.2498 7.51,7.641 13.28,17.91 17.3,30.781 1.08,3.219 2.15,7.508 3.23,12.879 -5.38,-0.539 -9.53,-0.672 -12.48,-0.398 -0.54,0 -1.41,0.058 -2.61,0.199 -1.21,0.129 -2.29,0.258 -3.23,0.41 -0.93,0.117 -1.8,0.328 -2.61,0.59 -1.88,0.27 -4.7,0.938 -8.45,2.02 -4.57,1.339 -9.26,3.75 -14.08,7.238 -1.61,1.07 -2.69,1.871 -3.22,2.422 -0.54,-1.352 -1.89,-4.699 -4.03,-10.071 -4.02,-12.871 -5.16,-24.621 -3.42,-35.199 1.74,-10.609 5.83,-16.9802 12.27,-19.1208 z m 131.2,101.8088 4.82,-8.438 c -1.34,-1.09 -3.22,-2.429 -5.63,-4.031 -0.27,-0.27 -0.8,-0.602 -1.61,-1.012 -0.8,-0.398 -1.34,-0.738 -1.61,-1.008 l -3.62,-2.41 c -0.27,-0.269 -0.87,-0.679 -1.81,-1.199 -0.94,-0.551 -1.68,-0.953 -2.21,-1.211 -0.55,-0.281 -1.35,-0.801 -2.42,-1.609 -1.08,-0.813 -1.88,-1.352 -2.41,-1.621 -2.96,-1.34 -4.7,-2.27 -5.24,-2.809 -0.53,-0.551 -1.47,-1.141 -2.81,-1.82 -1.35,-0.672 -2.29,-1.141 -2.82,-1.403 -0.27,-0.269 -0.74,-0.609 -1.41,-1.007 -0.67,-0.403 -1.14,-0.602 -1.4,-0.602 l -1.62,-0.801 c -0.27,0 -0.53,-0.136 -0.8,-0.398 -0.27,-0.281 -0.54,-0.41 -0.81,-0.41 -1.07,-0.27 -2.15,-0.801 -3.21,-1.61 -1.08,-0.269 -2.16,-0.808 -3.22,-1.609 -2.96,-1.34 -7.65,-3.359 -14.09,-6.031 -4.03,-1.61 -8.99,-3.36 -14.89,-5.239 -0.81,-0.269 -1.95,-0.601 -3.42,-1 -1.48,-0.402 -2.49,-0.613 -3.02,-0.613 -0.8,-4.816 -2.01,-9.66 -3.62,-14.476 -6.71,-20.93 -18.11,-36.9614 -34.21,-48.102 -16.1,-11.1289 -32.33,-14.1484 -48.7,-9.0508 -16.36,5.0899 -27.9,16.8399 -34.6,35.2188 -6.7,18.371 -6.7,38.152 0,59.352 6.7,20.929 18.11,36.949 34.2,48.101 16.11,11.117 32.34,14.141 48.7,9.047 11,-3.496 19.98,-10.539 26.97,-21.129 6.97,-10.598 10.99,-22.871 12.07,-36.82 h 1.21 c 6.7,1.34 11.26,2.281 13.68,2.812 2.14,0.27 6.56,1.481 13.28,3.629 1.6,0.531 2.68,0.93 3.21,1.211 1.62,0.52 2.68,0.801 3.23,0.801 l 1.61,0.797 c 0.26,0 0.53,0.07 0.8,0.203 0.26,0.137 0.54,0.207 0.81,0.207 0.26,0.262 0.73,0.531 1.41,0.801 0.66,0.261 1.13,0.398 1.4,0.398 l 6.04,2.422 c 1.61,0.531 3.35,1.199 5.23,2.012 2.14,1.066 3.75,1.738 4.83,2.019 2.14,1.059 3.62,1.731 4.43,2.008 0.26,0.262 0.87,0.59 1.81,1 0.93,0.402 1.54,0.742 1.81,1.012 l 3.62,1.199 6.04,3.219" style="fill:#111011;fill-opacity:1;fill-rule:nonzero;stroke:none" id="path114" transform="matrix(0.133333, 0, 0, -0.133333, 0, 706.026672)"/>
  <path d="m 1851.95,175.551 8.86,0.398 c 3.75,-0.808 5.09,-2.949 4.02,-6.437 0,-0.274 -0.94,-3.621 -2.82,-10.063 -1.87,-6.441 -3.88,-13.418 -6.03,-20.929 -2.15,-7.52 -5.24,-16.7 -9.26,-27.559 -4.02,-10.871 -8.25,-21.2696 -12.68,-31.1993 -4.42,-9.9219 -9.85,-19.9922 -16.3,-30.1719 -6.43,-10.1992 -13.07,-18.9179 -19.92,-26.1601 -6.83,-7.25 -14.69,-13.0781 -23.53,-17.51173 -8.86,-4.42969 -17.98,-6.367189 -27.38,-5.8281262 -7.23,0.2695312 -13.28,2.6093762 -18.1,7.0390662 -4.84,4.42189 -8.18,10.53129 -10.06,18.31249 -1.88,7.7774 -3.09,16.0899 -3.62,24.9492 -0.55,8.8594 -0.21,19.1797 1,30.9883 1.2,11.8008 2.48,22.4731 3.82,31.9921 1.34,9.52 2.88,20.18 4.63,31.988 1.75,11.809 3.02,20.93 3.83,27.371 -16.91,0.27 -30.26,1.809 -40.05,4.629 -9.8,2.813 -16.03,6.371 -18.71,10.672 -2.69,4.278 -4.37,9.11 -5.03,14.481 -0.67,5.359 -0.4,10.929 0.81,16.699 1.2,5.769 0.73,11.469 -1.42,17.109 1.62,0.801 3.7,1.61 6.24,2.41 2.55,0.801 7.11,1.739 13.69,2.809 6.57,1.082 12.33,1.082 17.3,0 4.96,-1.07 9.26,-4.16 12.88,-9.25 3.62,-5.098 5.03,-12.48 4.23,-22.141 -0.55,-6.976 5.22,-10.449 17.3,-10.449 4.29,0.262 8.58,0.262 12.88,0 4.28,-0.277 9.39,-1.418 15.29,-3.429 5.9,-2.008 10.8,-4.891 14.69,-8.649 3.88,-3.762 7.04,-9.332 9.46,-16.703 2.41,-7.387 2.95,-16.039 1.61,-25.957 -6.45,-49.3712 -9.39,-79.4102 -8.86,-90.1524 0.54,-20.3789 7.51,-23.3398 20.93,-8.8398 9.39,9.9218 18.31,25.6796 26.76,47.2812 8.46,21.59 14.55,40.699 18.31,57.34 l 5.23,24.961" style="fill:#111011;fill-opacity:1;fill-rule:nonzero;stroke:none" id="path116" transform="matrix(0.133333, 0, 0, -0.133333, 0, 706.026672)"/>
  <path d="m 1868.05,149.789 c -0.54,-13.68 5.23,-18.508 17.3,-14.488 9.66,3.488 19.58,10.73 29.79,21.73 1.06,10.188 2.01,17.84 2.81,22.938 -4.29,0 -8.65,-0.328 -13.08,-1.008 -4.42,-0.672 -9.66,-1.871 -15.69,-3.609 -6.04,-1.75 -11.01,-4.832 -14.89,-9.262 -3.89,-4.43 -5.98,-9.86 -6.24,-16.301 z m 185.92,39.441 h 13.29 c -1.08,-3.761 -2.69,-8.66 -4.84,-14.691 -2.15,-6.039 -6.97,-16.769 -14.48,-32.199 -7.52,-15.43 -15.57,-29.11 -24.15,-41.039 -8.58,-11.9494 -19.99,-22.7424 -34.2,-32.4026 -14.23,-9.6484 -28.98,-14.4882 -44.27,-14.4882 -9.93,0 -17.64,3.5703 -23.14,10.6679 -5.5,7.1133 -8.79,15.6211 -9.87,25.5508 -1.07,9.9221 -1.2,22.1331 -0.4,36.6211 -18.78,-18.25 -38.63,-25.621 -59.56,-22.121 -13.14,2.41 -21.6,8.98 -25.35,19.711 -3.75,10.719 -2.88,22.269 2.62,34.609 5.5,12.34 14.01,22.129 25.56,29.379 19.04,11.801 40.64,15.692 64.78,11.672 0.81,12.328 0.54,21.32 -0.8,26.961 1.06,0.258 2.41,0.539 4.02,0.809 1.61,0.261 4.76,0.46 9.46,0.601 4.69,0.129 9.12,-0.07 13.28,-0.601 4.16,-0.551 8.72,-1.879 13.68,-4.032 4.96,-2.148 9.19,-5.027 12.69,-8.66 3.47,-3.609 6.23,-8.777 8.24,-15.476 2.01,-6.711 2.61,-14.633 1.81,-23.743 -4.02,-55.808 -0.94,-83.8473 9.26,-84.1207 4.03,-0.2695 8.99,2.9531 14.88,9.6597 10.74,12.071 20.06,25.411 27.97,40.043 7.91,14.618 13.22,26.219 15.9,34.821 l 3.62,12.468" style="fill:#111011;fill-opacity:1;fill-rule:nonzero;stroke:none" id="path118" transform="matrix(0.133333, 0, 0, -0.133333, 0, 706.026672)"/>
  <path d="m 2141.7,212.57 c -4.82,0 -8.32,-4.101 -10.46,-12.281 -2.15,-8.18 -4.42,-20.719 -6.85,-37.629 -0.53,-4.281 -0.93,-7.512 -1.2,-9.652 16.36,22.004 24.81,39.043 25.35,51.113 0,5.629 -2.28,8.449 -6.84,8.449 z m 92.97,-18.91 6.83,-3.621 c -0.27,-1.609 -0.8,-3.828 -1.61,-6.641 -0.8,-2.828 -2.61,-8.257 -5.43,-16.296 -2.81,-8.051 -5.77,-15.704 -8.85,-22.942 -3.09,-7.25 -7.24,-15.289 -12.48,-24.148 -5.23,-8.852 -10.73,-16.5 -16.5,-22.9417 -5.77,-6.4414 -12.61,-11.8711 -20.52,-16.3008 -7.92,-4.4179 -16.17,-6.6406 -24.75,-6.6406 -8.05,-0.5391 -15.3,1.6797 -21.73,6.6406 -6.44,4.961 -10.87,10.1289 -13.28,15.5 l -3.22,7.6405 c -9.13,-31.1209 -24.82,-46.2694 -47.09,-45.4686 -8.59,-0.2695 -15.49,4.7578 -20.72,15.0899 -5.23,10.3281 -8.52,23.9492 -9.86,40.8397 -1.35,16.91 -2.01,35.879 -2.01,56.949 0,21.059 0.87,42.321 2.61,63.789 1.74,21.461 3.23,42.051 4.43,61.77 1.21,19.723 2.27,36.422 3.22,50.101 0.94,13.68 0.61,23.34 -1,28.981 1.06,0.258 2.41,0.527 4.02,0.809 1.61,0.261 4.75,0.449 9.45,0.601 4.7,0.129 9.12,-0.082 13.28,-0.601 4.16,-0.551 8.72,-1.891 13.68,-4.032 4.97,-2.16 9.19,-5.039 12.68,-8.648 3.49,-3.621 6.24,-8.801 8.25,-15.5 2.01,-6.711 2.76,-14.481 2.22,-23.34 -4.57,-59.559 -7.38,-109.461 -8.46,-149.699 10.2,48.019 24.95,72.039 44.27,72.039 15.83,0 25.09,-7.801 27.77,-23.352 3.23,-18.25 -2.82,-39.039 -18.11,-62.379 -7.24,-10.73 -15.96,-20.66 -26.15,-29.769 0,-2.692 0.2,-5.578 0.6,-8.649 0.4,-3.101 1.27,-7.863 2.62,-14.293 1.34,-6.449 4.22,-11.6675 8.65,-15.6988 4.42,-4.0273 9.85,-6.039 16.3,-6.039 9.92,0 19.44,3.6211 28.56,10.8711 9.12,7.2497 16.71,16.0897 22.75,26.5587 6.03,10.461 11.39,20.93 16.09,31.39 4.69,10.469 8.12,19.321 10.27,26.559 l 3.22,10.871" style="fill:#111011;fill-opacity:1;fill-rule:nonzero;stroke:none" id="path120" transform="matrix(0.133333, 0, 0, -0.133333, 0, 706.026672)"/>
</svg>