<?xml version="1.0" encoding="UTF-8" standalone="no"?>
<!-- Created with Inkscape (http://www.inkscape.org/) -->

<svg
   version="1.1"
   id="svg2"
   xml:space="preserve"
   width="615.26666"
   height="709.40002"
   viewBox="0 0 615.26666 709.40002"
   xmlns="http://www.w3.org/2000/svg"
   xmlns:svg="http://www.w3.org/2000/svg"><defs
     id="defs6" /><g
     id="g8"
     transform="matrix(1.3333333,0,0,-1.3333333,0,709.4)"><g
       id="g10"
       transform="scale(0.1)"><path
         d="m 607.82,3389.26 c 40.66,-29.29 72.325,-69.4 111.477,-100.67 33.711,-26.92 72.476,-46.91 106.601,-73.3 34.129,-26.4 64.571,-61.58 71.559,-104.16 4.211,-25.65 0.523,-54.88 17.277,-74.76 11.934,-14.15 31.942,-20.05 42.559,-35.22 57.197,69.37 96.297,153.54 112.397,242 2.21,12.16 3.99,24.74 1.2,36.77 -4.77,20.63 -21.91,35.88 -39.1,48.23 -93.556,67.22 -211.118,89.4 -324.489,109.85 -31.496,5.69 -222.641,44.79 -232.086,1.33 48.117,-9.57 91.918,-20.77 132.605,-50.07"
         style="fill:#b82327;fill-opacity:1;fill-rule:nonzero;stroke:none"
         id="path12" /><path
         d="m 1547.09,3204.43 c 60.41,28.7 126.34,43.39 191.63,57.85 -86.81,82.03 -193.36,143.02 -308.04,176.34 -31.52,9.16 -64.48,16.3 -96.99,11.81 -32.51,-4.48 -64.74,-22.55 -78.56,-52.31 -19.98,-43.03 3.06,-92.82 26.09,-134.29 17.19,-30.96 34.62,-61.82 53.68,-91.67 10.49,-16.42 44.85,-83.51 65.78,-85.21 17.12,-1.39 47.1,49.07 61.72,62.16 25.21,22.56 54.18,40.83 84.69,55.32"
         style="fill:#b82327;fill-opacity:1;fill-rule:nonzero;stroke:none"
         id="path14" /><path
         d="m 1381.38,1740.59 c 33.46,-12.99 67.49,-26.12 103.26,-29.13 7.44,35.22 -5.02,72.29 -25.64,101.79 -20.61,29.51 -48.77,52.76 -76.57,75.63 -16.71,13.74 -33.43,27.49 -50.14,41.24 -12.53,10.31 -25.24,20.73 -39.99,27.5 -65.96,30.29 -209.17,-9.38 -155.69,-104.39 35.28,-62.67 182.65,-88.52 244.77,-112.64"
         style="fill:#b82327;fill-opacity:1;fill-rule:nonzero;stroke:none"
         id="path16" /><path
         d="m 768.367,1467.07 c 13.75,-1.99 28.485,-3.27 39.403,-11.86 7.953,-6.25 12.761,-15.57 17.332,-24.6 20.613,-40.69 41.222,-81.38 61.832,-122.08 -74.286,-3.53 -148.629,-5.75 -222.996,-6.67 -21.083,-0.26 -43.563,-0.03 -61.196,11.53 -14.371,9.42 -23.312,24.97 -31.726,39.95 -21.5,38.28 -43.004,76.56 -64.508,114.84 -11.426,20.33 -22.938,40.87 -29.688,63.2 -11.925,39.46 -8.242,81.73 -4.437,122.78 3.055,33 25.754,72.89 59.762,39.56 19.996,-19.61 25.843,-73.91 42.671,-99.83 43.157,-66.48 114.637,-115.39 193.551,-126.82"
         style="fill:#b82327;fill-opacity:1;fill-rule:nonzero;stroke:none"
         id="path18" /><path
         d="m 2913.22,3567.32 c 29.07,-125.16 103.59,-234.23 154.71,-352.11 51.13,-117.88 76.75,-260.96 9.35,-370.36 -29.08,-47.2 -73.8,-84.97 -93.74,-136.71 -12.44,-32.3 -14.18,-67.55 -20.19,-101.64 -17.43,-98.92 -71.46,-198.88 -40.2,-294.34 132.98,-0.23 255.85,85.47 327.09,197.75 71.23,112.28 97.33,247.67 104.36,380.46 1.18,22.22 2.62,46.45 17.47,63.03 14.85,16.58 48.28,16.43 54.66,-4.9 52.24,74.18 64.15,170.84 51.68,260.71 -12.47,89.86 -47.14,174.93 -81.51,258.89 -53.78,131.41 -107.56,262.83 -161.34,394.24 -24.36,59.52 -49.17,121.57 -45.36,185.78 3.47,58.39 30.13,119.39 6.55,172.92 -95.45,-89.1 -147.5,-222.71 -137.49,-352.9 8.24,-107.02 55.75,-211.15 43.54,-317.79 -0.03,-0.29 -112.29,98.47 -122.93,114.91 -23.08,35.65 -34.89,127.33 -68.88,145 -31.1,-61.07 -13.14,-176.79 2.23,-242.94"
         style="fill:#b82327;fill-opacity:1;fill-rule:nonzero;stroke:none"
         id="path20" /><path
         d="m 122.703,4569 c 1.789,-13.25 5.324,-26.86 14.164,-36.89 8.028,-9.1 19.578,-14.27 31.121,-18.02 58.114,-18.87 125.473,-6.07 172.614,32.8 -87.137,-146.11 -52.879,-332.28 -4.02,-495.24 13.258,-44.21 27.484,-88.64 31.047,-134.66 7.996,-103.4 -42.988,-209.36 -128.777,-267.63 -13.379,-9.08 -30.024,-17.34 -45.129,-11.56 -8.758,3.35 -15.168,10.86 -20.95,18.24 -105.3707,134.49 -127.816,314.55 -139.1089,485.03 -8.4063,126.89 -12.6368,255.82 15.8398,379.76 26.125,113.7 84.2071,232.88 181.1911,302.17 -58.199,-70.04 -120.992,-157.7 -107.992,-254"
         style="fill:#b82327;fill-opacity:1;fill-rule:nonzero;stroke:none"
         id="path22" /><path
         d="m 2554.62,4887.88 c 36.38,-5.35 77.28,5.85 98.42,35.95 35.81,-49.58 115.27,-59.66 162.33,-20.6 9.57,-29.12 -0.99,-62.03 -20.47,-85.7 -19.49,-23.66 -46.76,-39.52 -74.35,-52.87 -81.03,-39.19 -177.07,-60.64 -260.84,-27.72 -12.17,4.78 -25.19,12.14 -28.42,24.82 -2.59,10.16 1.95,20.59 5.81,30.34 10.5,26.48 6.56,89.96 24.84,108.94 24.89,25.82 61.1,-8.51 92.68,-13.16"
         style="fill:#b82327;fill-opacity:1;fill-rule:nonzero;stroke:none"
         id="path24" /><path
         d="m 156.516,1918.62 c 3.382,-6.22 7.8,-12.62 14.57,-14.72 7.941,-2.46 16.262,1.77 23.5,5.86 96.047,54.26 192.098,108.52 288.144,162.78 -2.808,-36.87 -2.21,-73.99 1.782,-110.75 113.386,51.86 231.105,94.23 351.527,126.54 1.879,-33.82 3.754,-67.65 5.633,-101.47 -81.262,-47.58 -171.207,-96.93 -264.164,-81.88 -18.059,2.93 -36.211,8.29 -54.32,5.71 -28.075,-4.01 -49.723,-25.95 -68.911,-46.83 -51.195,-55.71 -102.625,-113.94 -169.859,-148.64 -67.234,-34.7 -155.395,-40.6 -214.4414,6.71 -58.2696,46.68 -72.12504,134.32 -46.7696,204.55 20.8594,57.78 89,152.91 153.199,165.18 -10.285,-64.56 -58.281,-102.45 -19.89,-173.04"
         style="fill:#b82327;fill-opacity:1;fill-rule:nonzero;stroke:none"
         id="path26" /><path
         d="m 2569.26,733.738 c 149.18,84.973 307.32,154.223 470.94,206.231 -95.21,193.581 -270.29,333.521 -439.89,466.841 -9.65,7.58 -20.52,15.57 -32.77,14.79 -9,-0.58 -16.93,-5.85 -24.38,-10.95 -72.78,-49.86 -145.54,-99.75 -218.35,-149.57 -79.77,-54.59 -131.13,-73.56 -69.87,-160.46 21.3,-30.21 325.2,-360.69 314.32,-366.882"
         style="fill:#b82327;fill-opacity:1;fill-rule:nonzero;stroke:none"
         id="path28" /><path
         d="m 503.254,3160.51 c 41.832,15.74 87.187,20.05 131.875,19.35 46.945,-0.74 95.965,-7.67 134.207,-34.91 0.555,24.86 -7.148,49.83 -21.609,70.06 -5.039,7.04 -10.922,13.57 -17.981,18.6 -10.922,7.78 -24.117,11.62 -37.16,14.71 -23.195,5.51 -46.848,9.1 -70.633,10.72 -16.484,1.12 -33.078,1.3 -49.5,-0.52 -69.644,-7.73 -133.765,-53.99 -163.058,-117.65 -5.348,-11.62 -14.942,-32.97 -10.692,-46.1 6.352,-19.61 17.442,5.83 25.723,14.6 21.695,22.99 49.347,40.05 78.828,51.14"
         style="fill:#5dcbf5;fill-opacity:1;fill-rule:nonzero;stroke:none"
         id="path30" /><path
         d="m 1715.44,3137.95 c 72.46,-1.89 144.22,-25.39 203.77,-66.71 17.46,-12.12 34.89,-27.26 39.75,-47.95 3.3,8.56 14.15,11.43 19.72,18.73 7.44,9.77 3.32,23.8 -1.94,34.9 -10.82,22.88 -25.16,43.9 -39.73,64.59 -21.51,30.54 -44.97,61.71 -78.41,78.35 -19.28,9.58 -40.76,13.72 -62.04,17 -68.61,10.55 -141.92,12.47 -204.08,-18.42 -13.89,-6.9 -27.04,-15.37 -41.53,-20.87 -9.74,-3.69 -20.24,-6.15 -28.46,-12.54 -17.55,-13.64 -18.51,-39.33 -17.92,-61.54 0.57,-21.88 -2.95,-42.44 23.37,-30.28 20.12,9.3 39.45,19.03 60.6,25.98 40.65,13.35 84.08,20.23 126.9,18.76"
         style="fill:#5dcbf5;fill-opacity:1;fill-rule:nonzero;stroke:none"
         id="path32" /><path
         d="m 2499.24,2327.23 c 17.99,9.24 37.15,17.73 50.43,32.98 30.78,35.32 9.6,100.73 -36.04,111.31 -13.52,3.13 -27.72,2.09 -41.29,5 -34.79,7.46 -59.65,40.23 -68.44,74.71 -8.8,34.48 -4.59,70.78 -0.32,106.1 7.18,59.53 14.37,119.06 21.56,178.59 -24.95,-37.97 -49.9,-75.95 -74.85,-113.93 -20.97,-31.93 -42.23,-64.46 -53.08,-101.09 -10.38,-35.03 -10.73,-72.13 -11.01,-108.67 -0.33,-42.97 -26.34,-361.04 4.41,-372.72 18,-6.84 71.87,82.19 87.54,98.21 35.46,36.23 86.99,55.42 121.09,89.51"
         style="fill:#5dcbf5;fill-opacity:1;fill-rule:nonzero;stroke:none"
         id="path34" /><path
         d="m 2639.69,4027.03 c 9.39,-100.9 -32.92,-199.56 -37.32,-300.8 -6.49,-149.69 69.44,-289.51 148.14,-417 78.7,-127.5 164.76,-257.81 182.35,-406.61 -36.75,106.62 -101.96,203.28 -187.07,277.26 -54.52,47.4 -116.75,85.46 -169.92,134.36 -98.42,90.52 -162.65,219.41 -167.61,353.03 -2.23,59.86 7.02,119.47 15.1,178.82 13.87,101.96 24.37,204.38 31.47,307.03 3.14,45.44 5.47,92.13 -8.42,135.51 -13.44,41.96 -41.08,77.73 -60.22,117.43 -12.83,26.64 -34.76,85.63 -7.56,106.87 45.46,-84.22 93.53,-161.43 149.33,-240.07 52.39,-73.83 103.13,-153.45 111.73,-245.83"
         style="fill:#5dcbf5;fill-opacity:1;fill-rule:nonzero;stroke:none"
         id="path36" /><path
         d="m 640.387,4901.6 c 59.871,19.63 126.445,24.6 185.39,2.34 58.946,-22.26 108.246,-75.04 115.649,-137.61 6.82,-57.68 -20.817,-113.13 -32.86,-169.95 -2.187,-10.33 -4.132,-21.32 -11.109,-29.24 -5.652,-6.41 -13.844,-9.88 -21.746,-13.14 -46.602,-19.27 -93.207,-38.53 -139.813,-57.8 -9.085,51.67 -21.41,102.76 -36.871,152.9 -8.019,26 -17.824,53.14 -38.851,70.42 -22.406,18.4 -53.188,22.04 -82.137,23.56 -50.199,2.64 -170.07,-23.81 -104.258,52.73 42.36,49.26 105.473,85.74 166.606,105.79"
         style="fill:#5dcbf5;fill-opacity:1;fill-rule:nonzero;stroke:none"
         id="path38" /><path
         d="m 1365.07,5025.31 c 41.62,-6.65 83,-26.59 106.12,-61.84 17.26,-26.31 22.88,-58.42 26.61,-89.67 3.34,-28 5.49,-56.14 6.44,-84.33 0.19,-5.69 0.11,-12 -3.72,-16.2 -3.11,-3.41 -7.91,-4.56 -12.41,-5.54 -74.17,-16.31 -147.44,-36.73 -219.36,-61.11 25.37,19.85 43.83,48.36 51.57,79.63 18.57,75.06 -25.71,119.32 -47.88,184.05 -22.79,66.52 42.23,63.06 92.63,55.01"
         style="fill:#5dcbf5;fill-opacity:1;fill-rule:nonzero;stroke:none"
         id="path40" /><path
         d="m 1779.02,4993.06 c 21.13,-33.1 22.62,-76.48 9.01,-113.32 -13.6,-36.84 -40.93,-67.47 -72.79,-90.43 -16.42,19.54 -39.69,33.2 -64.76,38.01 29.02,30.02 52.3,66.67 61.06,107.49 8.24,38.44 -16.69,79.95 -6.28,113.39 27.56,-3.54 58.55,-31.32 73.76,-55.14"
         style="fill:#5dcbf5;fill-opacity:1;fill-rule:nonzero;stroke:none"
         id="path42" /><path
         d="m 725.363,1079.78 c 57.137,-46.16 127.75,-75.42 200.782,-83.202 67.539,-7.207 151.965,17.252 165.055,83.902 157.91,-52.05 323.34,-81.25 489.54,-86.421 10.4,-0.321 21.98,-1.051 29.13,-8.61 5.71,-6.031 7.03,-14.859 8.08,-23.09 12.14,-94.988 24.28,-189.98 36.41,-284.968 1.95,-15.27 1.66,-34.852 -12.43,-41.082 -6.86,-3.039 -14.78,-1.547 -22.1,0.121 -72.11,16.441 -141.45,45.019 -204.2,84.179 C 1351.2,760.82 1290.17,813.5 1215,824.32 c -40.62,5.848 -81.82,-1.261 -122.47,-6.902 -73.11,-10.129 -146.885,-15.5 -220.69,-16.059 C 725.637,800.238 719.164,964.48 725.363,1079.78"
         style="fill:#5dcbf5;fill-opacity:1;fill-rule:nonzero;stroke:none"
         id="path44" /><path
         d="m 594.727,3133.93 c 22.855,0 41.382,18.53 41.382,41.39 0,22.85 -18.527,41.38 -41.382,41.38 -22.856,0 -41.383,-18.53 -41.383,-41.38 0,-22.86 18.527,-41.39 41.383,-41.39"
         style="fill:#111011;fill-opacity:1;fill-rule:nonzero;stroke:none"
         id="path46" /><path
         d="m 380.766,2946.39 c -7.043,18.49 -17.282,19.37 -17.282,19.37 0,0 -5.613,-58.11 62.188,-77.48 67.797,-19.38 116.226,-2.65 147.043,-5.29 0,0 -29.055,22.9 -88.051,14.09 -58.992,-8.8 -96.855,30.82 -103.898,49.31"
         style="fill:#111011;fill-opacity:1;fill-rule:nonzero;stroke:none"
         id="path48" /><path
         d="m 1725.85,3071.89 c 23.83,0 43.15,19.32 43.15,43.15 0,23.83 -19.32,43.15 -43.15,43.15 -23.83,0 -43.15,-19.32 -43.15,-43.15 0,-23.83 19.32,-43.15 43.15,-43.15"
         style="fill:#111011;fill-opacity:1;fill-rule:nonzero;stroke:none"
         id="path50" /><path
         d="m 1809.82,2824.28 c -87.17,-7.93 -121.51,40.5 -132.08,14.97 -5.81,-14.05 38.74,-51.95 122.39,-40.5 83.65,11.44 125.03,68.67 120.63,84.52 -4.4,15.85 -23.77,-51.07 -110.94,-58.99"
         style="fill:#111011;fill-opacity:1;fill-rule:nonzero;stroke:none"
         id="path52" /><path
         d="m 3323.39,3347.1 c -54.9,101.6 -239.9,224.9 -306.5,319.8 -66.7,95 -58.3,251.6 -43.3,431.5 2.6,31.7 4.4,60.8 5,87.9 2.7,127.6 -19.1,212.9 -85,318.6 -68.3,109.6 -300.4,163.2 -366.8,176.5 160.5,-10.1 322.9,-19.3 322.9,-19.3 39.5,-8.2 77.7,-17.8 110.5,-28.9 148.3,-50 231.6,-191.6 239.9,-313.2 7.2,-103.8 -41.5,-190.6 -59,-339.2 -3.1,-25.5 -5.2,-52.8 -5.9,-82.3 -5,-201.6 129.9,-331.5 243.2,-509.8 33.2,-52.2 50.8,-102.7 59.1,-147.8 20,-108.9 -14.1,-187.1 -14.1,-187.1 -0.9,38.5 -14.5,92.7 -35.6,150.6 -17.3,47.2 -39.7,97 -64.4,142.7 z m -818,1647.6 c -41.6,101.7 -119.9,175 -119.9,175 0,0 191.2,-6.7 245.5,-126.6 54.4,-120 -73.9,-291.9 -73.9,-291.9 l -96.7,13.6 c 0,0 86.7,128.3 45,229.9 z m -119.9,-116.6 c -61.7,153.3 -191.6,179.9 -191.6,179.9 0,0 -88.3,-64.9 -188.3,-163.2 -99.9,-98.3 -303.2,-56.7 -303.2,-56.7 0,0 50,35 50,143.3 0,108.3 -136.6,133.3 -136.6,133.3 0,0 13.3,-91.6 -8.4,-179.9 -21.3,-86.9 -220.1,-164.2 -226.4,-166.5 3,3.8 53.2,69.5 -0.1,169.8 -55,103.3 -178.3,108.3 -178.3,108.3 0,0 -3.3,-66.7 -28.3,-193.3 -25,-126.6 -123.3,-196.6 -123.3,-196.6 -153.299,-15 -298.201,-118.2 -298.201,-118.2 0,0 28.301,123.2 36.602,178.2 8.402,55 -33.301,229.9 -249.899,171.6 -216.5,-58.3 -278.199,-416.5 -278.199,-416.5 -134.902,-43.3 -201.6016,-259.9 -201.6016,-259.9 -10,218.3 41.6996,438.2 223.3006,638.1 181.598,199.9 393.098,143.3 659.699,168.3 266.599,25 621.399,173.2 621.399,173.2 0,0 226.6,105 538.1,0 311.6,-104.9 283.3,-313.2 283.3,-313.2 z M 492.891,4385 c -70,-106.6 -111.598,-244.9 -111.598,-244.9 0,0 -50,199.9 68.297,349.8 118.301,150 198.199,95 221.5,26.7 0,0 -108.199,-25 -178.199,-131.6 z M 236.293,3665.3 c 0,0 -101.602,123.2 -124.902,361.5 -23.3988,238.2 138.199,389.8 138.199,389.8 0,0 -18.297,-143.2 -13.297,-326.5 5,-183.3 86.699,-298.2 86.699,-298.2 -18.402,-113.3 -86.699,-126.6 -86.699,-126.6 z M 2750.29,4944.8 c 0,0 46.7,-10 30,-76.7 -16.6,-66.6 -166.6,-116.9 -166.6,-116.9 58.3,47.9 136.6,193.6 136.6,193.6 z m 454.8,-329.9 c 48.4,-60 86.7,-201.6 86.7,-201.6 0,0 -72.8,-272.8 -68.2,-351.7 1.2,-8.4 2.5,-13.6 2.9,-15.6 -1.6,3.6 -2.5,9 -2.9,15.6 -4.5,29.9 -9.5,101.6 14.9,223.4 33.3,166.6 -23.4,279.9 -91.7,341.6 -68.3,61.6 -326.5,123.8 -326.5,123.8 0,0 281.6,19.4 384.8,-135.5 z m -2738,-1336.6 c 115.301,45.8 233.301,9.7 278.199,-15.8 44.902,-25.5 141.801,-120.6 145.301,-156.7 0,0 -8.797,-30 -43.199,-29.1 -16.2,0.4 -32.2,4 -44.598,7.6 2.598,30.3 3.098,125.8 -87.402,169.3 -108.301,52 -214,-4.3 -238.7,-25.5 -24.601,-21.1 -58.699,-40.3 -84.8,-129.3 -2,11.9 -3.899,27.7 -3.899,45.2 0,48.1 14.199,108.6 79.098,134.3 z m 49.801,-43.4 c 17.902,7.9 38.902,14.1 63.699,17 51.301,6.1 91.203,-5.4 118.902,-22.7 0.399,-1.1 24.399,-74.5 -14.101,-119.9 -38.7,-45.8 -118,-42.3 -154.098,-5.3 -33.402,34.2 -32.801,91.8 -14.402,130.9 z m 94.601,-226 c -92.301,-12.1 -149.601,0.4 -201.402,53.2 0,0.7 3.402,60.6 19.101,90.3 8.7,16.5 24.602,41.4 53.098,62.4 -9.398,-39.3 -7.297,-135.4 95.703,-156.6 116.797,-24.1 170.399,50.8 155.699,139.8 4.598,-6.6 8,-13.1 9.797,-19.2 7.602,-24.6 16.602,-74 21.004,-100 -25.301,-21.1 -80.601,-60.4 -153,-69.9 z m -363.5,-933 c 69.399,82.3 145,138 149.699,141.4 -4.398,-5.5 -96.699,-119.8 -38.101,-123 60,-3.4 78.301,126.5 229.902,168.2 0,0 -50,-88.3 -1.703,-96.6 48.402,-8.4 70,131.6 266.602,96.6 0,0 -18.301,-36.7 0,-50 17.699,-12.8 52.5,19.3 54.902,21.5 -2.801,-6.5 -65.402,-154.9 -9.902,-161.4 49.699,-5.9 58.3,189.9 158.299,189.9 99.9,0 111.6,-35 148.2,-53.3 36.7,-18.4 59.3,-115 103.8,-108.3 44.5,6.6 -17.1,129.9 -17.1,129.9 0,0 -7.3,12.5 0.5,13.3 6.6,0.8 24.2,-6.8 66.2,-37.3 14.2,-10.3 31.2,-23.2 51.6,-39.3 151.6,-119.9 93.3,-231.6 213.2,-198.2 107.8,29.9 -72,169.9 -109.8,198.2 -4.3,3.2 -6.8,5 -6.8,5 0,0 -23.3,15 3.3,30 14,7.8 39.2,-3.9 67.5,-26.4 26,-20.5 54.6,-50 79.7,-81.8 52.7,-66.7 76,-105 111,-96.7 33.1,7.9 -25.9,86.9 -32.6,95.8 2.5,-2.9 12.9,-10.1 42.6,14.8 0,0 128.3,-110.6 166.6,-192.2 38.4,-81.7 88.3,-221.6 48.4,-249.9 -40,-28.4 -66.7,23.3 -121.7,53.3 -54.9,30 -68.3,18.3 -114.9,66.6 -46.7,48.3 -96.6,10 -183.3,38.3 -86.6,28.3 -139.9,35 -219.9,110 -80,74.9 -154.9,45 -214.9,41.6 -60,-3.3 -120,-3.3 -196.599,36.7 -76.601,40 -141.601,-15 -181.601,-41.7 -40,-26.6 -76.598,-61.6 -158.301,-54.9 -81.598,6.6 -121.598,11.6 -191.598,-75 -69.898,-86.6 -225.402,-181.6 -308.402,-131.6 -83.0976,49.9 -126.3984,211.6 26.902,324.8 0,0 -36.6988,-134.9 -1.699,-126.6 35,8.4 48.301,83.3 120,168.3 z M 1520.79,1556.1 c -31.6,-48.3 -133.3,-51.7 -194.9,-61.6 -61.7,-10 -110,-31.7 -186.6,-35 -76.6,-3.4 -80,5 -131.6,11.6 -51.698,6.7 -59.999,-25 -111.6,-25 -51.699,0 -118.297,16.7 -193.301,70 -39.098,27.8 -78.098,80 -109.398,128.2 40.199,141.9 171.101,152.5 269.3,176.7 101.7,25 358.199,-33.3 379.899,-31.7 21.6,1.7 13.3,31.7 18.3,53.3 3.8,16.7 -42.2,78.5 -64,106.5 23.5,3.8 45.7,6.8 64,6.8 45,0 106.6,-81.6 199.9,-131.6 93.3,-50 218.3,-43.3 236.6,-43.3 7.6,0 28.7,-7.8 55.4,-20.9 -99.5,-10.9 -200.3,-155.7 -232,-204 z m -838.997,331.1 c 31.797,10.3 58.398,30.3 81,42.1 41.598,21.6 113.398,96.8 161.598,65.4 30.398,-19.8 67.699,-40 104.799,-51.4 -92.397,-20.5 -230.299,-51 -276.401,-60.7 -37.598,-7.8 -59.098,-2.4 -70.996,4.6 z M 532.891,1744.4 c -20,31.6 -55,74.9 -115.5,69.2 43.199,47.2 104.402,109.9 172.101,79 20.199,-9.2 38.801,-12.4 56.098,-11.9 31.902,-51.2 103.801,-44.7 103.801,-44.7 -110.098,-25.8 -158.403,-110 -177.399,-157.8 -18.199,30 -32.101,55 -39.101,66.2 z m 44.898,-468.2 h 175 c 0,0 161.602,61.6 274.901,-90 0,0 64.9,45 246.5,135 181.6,90 279.9,87.6 279.9,87.6 0,0 64.5,-585.698 41.4,-707.402 0,0 -166.3,61.704 -382.9,214.903 0,0 -58.4,58.699 -131.6,-6.602 0,0 -121.599,-38.301 -253.197,-43.301 0,0 -66.703,5 -76.703,61.602 0,0 -261.5,-159.898 -286.5,-169.898 0,0 -46.699,15 -130,358.198 -83.297,343.2 -91.598,358.2 -91.598,358.2 0,0 -21.301,48.9 13.301,93.3 37.797,48.3 226.598,44.9 321.496,-291.6 z m 1399.501,213.3 c 184.9,34.9 464.8,191.5 483.1,261.5 10.4,39.4 67.2,158.1 114.8,254.2 13.9,-19.1 23.6,-46.7 16.9,-85.9 -16.7,-96.6 -51.7,-233.3 -128.3,-391.5 -76.7,-158.3 -120,-248.3 -120,-248.3 0,0 -294.9,-166.6 -399,-223.2 -87,-47.3 -255.9,-124.902 -309.1,-149.101 -1.8,46.602 -3.8,98.801 -4.9,155.801 -2.5,122.1 -15.6,220.3 -27.9,287.8 85.2,52.1 200.2,105.7 374.4,138.7 z m 444.1,-97.6 6.4,13.6 -4,-9.3 z m 505.5,-432.201 -468.1,-231.597 51.6,-98.301 c 0,0 -713,-281.602 -871.3,-358.199 C 1480.79,195 1250.89,101.699 1250.89,101.699 l -288.199,591.403 273.199,85 c 0,0 299.9,-276.602 403.2,-261.602 103.3,15 101.6,273.199 101.6,273.199 l 621.4,404.901 161.6,113.3 z m -3.3,1384.401 c 0,0 -191.6,-63.3 -61.7,-96.6 130,-33.3 261.6,30 463.2,338.2 192.4,294.1 199.6,560.9 182.5,739.6 -0.8,8.6 -1.7,16.9 -2.6,25.1 -11.9,105.9 -27.9,182.4 -61.2,259.3 -22.8,52.4 -53.7,105 -97,167.2 -106.7,153.3 -73.3,296.5 -55,416.5 18.3,119.9 46.6,216.6 33.3,311.5 -13.3,95 -110,209.9 -223.2,273.3 -77,43 -188.6,35.2 -252.2,25.8 0,0 52.1,39.3 52.1,96.3 0,10.9 -2,22.4 -6.5,34.5 -28.4,74.9 -146.6,76.6 -146.6,76.6 0,0 20,144.9 -145,203.3 -164.9,58.3 -318.2,-11.7 -318.2,-11.7 0,0 -239.9,159.9 -594.8,106.6 -354.8,-53.3 -656.4,-169.9 -837.999,-159.9 C 671.09,5159.7 341.293,4991.4 289.59,4949.8 237.992,4908.1 74.6914,4699.9 38.0898,4561.6 1.39063,4423.3 -0.308594,4211.7 8.08984,4058.4 16.3906,3905.2 111.691,3670.3 189.789,3615.3 c 0,0 -42.598,-26.8 -71.898,-70.4 l -0.102,-0.1 c -17.5,-26.1 -30.1992,-58.2 -26.2968,-94.1 -34.1016,-18.3 -56,-41.7 -62,-70.2 -16.1016,-76.5 24.6992,-152.1 132.6988,-194.2 -21.199,-22.8 -42.5,-55 -52.601,-98.2 -23.8009,-101.2 19.402,-146.1 55.5,-191 36.101,-44.9 82.699,-68.7 64.199,-152.3 -6.098,-27.6 -15.496,-51.5 -26.898,-77.1 -23.102,-52.1 -54.2,-111.6 -81.399,-225 -40.4022,-168.8 39.399,-334 39.598,-334.5 -15.301,-17 -28.598,-32.1 -42.598,-44 -54.3006,-46 -204.9022,-224.9 -49.9022,-349.8 86.5002,-69.9 166.8012,-50.7 228.4022,-12.1 l 40.797,-90.6 c -46.797,5.6 -90.699,-3.4 -112.598,-32.3 -53.398,-70 3.301,-238.2 64.899,-401.5 61.703,-163.3 130,-479.798 130,-479.798 l 131.601,70 9.2,3 L 1209.29,0 c 0,0 646.4,259.898 816.3,294.898 169.9,35 628.1,193.301 653.1,214.903 25,21.699 -20,201.597 -20,201.597 l 479.8,199.903 c 0,0 6.7,38.398 -18.3,73.398 -24.5,34.301 -352.4,577.301 -534.6,756.501 0,0 40.2,103 40.2,183.7 0,13.5 -1.2,26.4 -3.8,38.1 -6.6,29.6 -20.2,51 -34.7,66.4 31.5,63.1 56.4,111.5 56.4,111.5 l -124.9,53.3 c 0,0 -85,-213.3 -108.3,-426.5 0,0 -40,-106.6 -268.3,-186.6 -228.2,-80 -406.5,-115 -451.5,-135 -31.5,-14 -72.8,-43.5 -94.7,-60 -9.4,44.4 -16.9,68.4 -16.9,68.4 -93.3,-1.7 -189.9,-23.4 -281.5,-60 -91.7,-36.7 -258.3,-151.6 -258.3,-151.6 -5,15 -116.599,103.3 -191.599,83.3 -74.898,-20 -246.5,-16.7 -246.5,-16.7 -4.3,29.8 -27.5,83.4 -58.398,137.7 l -21.602,235.5 c 51.7,-148.3 191.598,-241.6 311.5,-268.2 120,-26.7 128.899,50.9 185.399,31.6 56.5,-19.3 194.5,-23.3 221.2,0 26.6,23.4 161.6,36.7 259.9,63.3 98.2,26.7 129.9,121.7 243.2,156.7 63.1,19.5 96.2,27.6 113.2,30.9 7.5,-5.7 14.8,-11.6 21.7,-17.6 65,-56.7 106.7,-50 106.7,-50 0,0 48.3,36.7 54.9,63.3 3.6,14.3 -1.1,52.2 -16.1,103.5 l 0.1,-0.1 c 0,0 96,11.6 244.3,191.5 142.3,172.6 51.4,300.7 37.9,458 -0.6,6.6 -1,13.3 -1.3,20.1 -6.6,166.6 56.7,283.3 128.3,368.2 l 18.3,103.3 c 0,0 -65.1,-166.4 -128.2,-236.6 -56,-62.2 -72.9,-177.5 -74.9,-250.5 -0.3,-9.5 -0.3,-18.2 -0.1,-26 1.7,-68.3 21.6,-214.9 -26.8,-379.9 -42.2,-143.7 -171.6,-211.7 -204.2,-226.8 -13.1,40 -31.8,86.3 -57.2,135.2 -49.7,95.7 -177.6,199.1 -287.8,259.5 -33.8,18.6 -66,33.1 -93.7,42.1 -118.3,38.3 -256.6,38.3 -381.6,58.3 -1.4,0.2 -2.7,0.4 -4,0.7 -121.7,20.4 -157.4,69.4 -149.2,42.6 18.3,-60 -10,-56.7 -44.999,-76.7 -35,-19.9 -198.3,18.4 -266.601,26.7 -68.301,8.3 -131.598,25 -323.199,-37.7 -67.801,-22.2 -117.102,-48.5 -155,-75.2 -69.5,123.2 -83.2,304.1 -30.602,407.4 2.703,5.4 5.301,10.7 7.703,16 45.301,97.7 46.899,185.7 46.899,185.7 0,0 0.902,28.2 -15,76.8 -15.801,48.6 -63.399,217.3 0,278.9 l -1.301,2.2 c 52.402,-8.6 85.601,-4.6 103.101,-0.4 -1.5,-40.2 7.399,-72.2 7.399,-72.2 26.402,-66.1 72.203,-105.7 208.703,-108.3 136.398,-2.7 218.297,82.7 218.297,82.7 0,0 72.203,-20.2 92.5,-21.1 20.203,-0.9 29,46.7 29,46.7 0,0 0.898,48.4 -29,79.2 -30,30.8 -103,120.6 -209.602,147.9 -90.898,23.3 -215.699,19.4 -278.199,-48.4 -13.098,-14.1 -21.996,-30.2 -28,-46.7 -62.199,33.9 -114.496,103.7 -111.098,136.5 3.5,34.4 58.102,53.7 240.602,60.8 182.598,7 442.598,-68.7 508.697,-93.4 66,-24.6 50.2,-64.2 35.2,-102.1 -15,-37.9 -80.999,-183.1 -151.499,-320.5 C 826.289,2763.2 697.789,2589.8 706.59,2507 c 2.301,-21.3 6,-41.7 12.703,-61 19.195,-55.7 62.297,-102.4 161.598,-137.1 133.799,-46.7 157.599,13.2 144.399,45.8 -13.2,32.6 19.4,18.5 19.4,18.5 0,0 48.2,-23.7 108,-32.6 24.3,-3.5 50.4,-4.7 76,-0.9 88.9,13.2 88,80.1 74,154.1 -14.1,74 -107.5,118.9 -124.2,74.9 -16.7,-44.1 20.3,-48.5 53.7,-69.6 33.5,-21.1 68.7,-74 17.6,-116.2 -39.7,-32.9 -110.5,-18.3 -154.4,-4.5 -12.5,4 -22.8,7.9 -29.6,10.6 -30.8,12.4 -93.298,34.4 -76.599,-7 16.699,-41.4 40.499,-71.3 -56.398,-62.5 -96.801,8.8 -136.402,49.3 -171.602,109.2 -4.101,6.9 -7.402,13.5 -10,19.9 -20.703,48.8 -3.3,82.6 10,112.1 14.899,33.5 72.2,149.7 101.2,206.9 29.101,57.3 166.399,333.8 201.599,407.7 35.3,74 38.8,123.3 11.5,147.9 -27.3,24.7 -207.799,119.8 -288.799,136.5 -81,16.7 -191.101,35.2 -388.3,39.6 -100.399,2.3 -189.5,-6.9 -255.2,-27.5 v 0.1 c 0,0 8.2,76.7 113.102,138.4 18.398,10.8 34,23.3 47.199,37 62.5,64.7 73.598,157.5 84.5,234.5 13.301,93.3 46.598,319.9 213.199,454.9 166.602,134.9 533.099,256.5 806.299,323.2 273.2,66.6 614.8,103.3 614.8,103.3 0,0 104.9,-51.7 239.9,-63.3 19.7,-1.8 44.8,-3.7 73.3,-5.7 2.4,-16.8 7.5,-38.3 16.6,-66 46.7,-141.6 401.6,-151.6 401.6,-151.6 138.9,-78.3 142.8,-167 148.9,-260.5 0.8,-11.9 1.6,-23.9 2.7,-36 10,-106.7 -28.4,-309.9 11.6,-461.5 40,-151.6 233.3,-266.6 298.2,-403.2 22,-46.3 41,-105.3 54.4,-174.3 26,-134.5 30.8,-306.5 -4.4,-493.8 -53.3,-283.2 -268.2,-319.8 -341.5,-303.2"
         style="fill:#111011;fill-opacity:1;fill-rule:nonzero;stroke:none"
         id="path54" /><path
         d="m 1889.49,2984.4 c 0,0 1.7,152.6 -21.1,201.2 75.6,-35.7 104.3,-134.8 104.3,-134.8 -18,-34.4 -83.2,-66.4 -83.2,-66.4 z m -32.1,-18 c 0,0 -72,-21.8 -154,-12.9 -81.9,8.9 -134.2,57.3 -134.2,57.3 0,0 -20.9,88.1 38.1,143.4 -13.4,-44.8 7.8,-154.3 109.7,-155.3 101.9,-0.9 134.6,66.1 126.2,152 46.5,-67.7 14.2,-184.5 14.2,-184.5 z m -303.3,59.7 c 0,0 -16.4,4.9 -33.2,28.7 0,0 -20.8,59.9 -5,98.3 0,0 20.8,38 82.3,44.7 0,0 -41.7,-44.7 -44.1,-94.4 -2.5,-49.6 0,-77.3 0,-77.3 z m 106.6,159.2 c 18.2,6.2 39.8,10.5 65.4,12.1 21.6,1.3 39.9,-0.6 55.7,-4.7 16.6,-15.1 36.7,-36.8 36.1,-52.6 -0.9,-26.6 -7,-113.5 -93.8,-124.4 -86.8,-10.8 -127.7,121 -63.4,169.6 z m -176.4,-100.5 c -7.9,-12.8 -12.9,-13.8 -22.7,-6.9 -9.9,6.9 22.7,55.3 22.7,55.3 0,0 7.9,-35.5 0,-48.4 z m 299.1,175.7 c -183.6,31.6 -384,-110.5 -390.9,-205.3 -1.8,-23.8 76,-4.9 103.6,0 0,0 76,-111.5 204.4,-123.4 128.3,-11.8 214.2,18.8 299.1,123.4 0,0 -32.6,173.8 -216.2,205.3"
         style="fill:#111011;fill-opacity:1;fill-rule:nonzero;stroke:none"
         id="path56" /><path
         d="m 1311.53,3257 c 0,0 -200.7,66.9 -230.07,239.86 -29.37,172.96 349.18,78.32 460.14,44.06 110.96,-34.27 815.85,-303.5 850.12,-327.97 34.27,-24.48 99.53,-79.96 91.38,-143.6 -8.16,-63.63 -22.85,-169.69 -47.32,-305.13 -24.48,-135.43 -31.01,-247.28 31,-250.91 62,-3.63 145.22,2.9 137.06,-67.27 -8.16,-70.16 -48.95,-210.49 45.69,-210.49 94.64,0 209.38,164.02 242.93,311.65 33.56,147.62 -2.23,295.25 -111.83,489.84 -109.6,194.6 -250.52,263.94 -348.93,389.19 -98.42,125.26 -93.94,299.73 -64.87,442.88 29.08,143.15 85,297.48 55.92,411.56 -29.08,114.07 -161.04,237.09 -111.84,407.08 l 51.45,62.63 24.6,-69.34 c 0,0 -29.07,-80.52 64.87,-290.77 93.94,-210.26 87.23,-333.28 22.37,-601.68 -64.87,-268.41 78.28,-407.09 190.12,-514.45 111.83,-107.37 335.51,-295.25 357.88,-530.11 22.36,-234.86 -89.47,-539.05 -306.44,-630.76 -216.96,-91.7 -295.25,172.23 -199.07,281.83 0,0 53.69,67.17 -29.07,78.32 -82.76,11.15 -147.63,55.89 -118.55,190.09 29.08,134.2 116.31,382.48 51.44,467.48 -64.86,84.99 -525.63,178.93 -621.81,205.78 -96.18,26.84 -345.48,111.1 -447.34,46.97 -60.4,-38.03 -39.83,-126.74 -39.83,-126.74"
         style="fill:#111011;fill-opacity:1;fill-rule:nonzero;stroke:none"
         id="path58" /><path
         d="m 1720.41,3123.57 c 0,-7.65 -6.2,-13.84 -13.84,-13.84 -7.65,0 -13.85,6.19 -13.85,13.84 0,7.65 6.2,13.85 13.85,13.85 7.64,0 13.84,-6.2 13.84,-13.85"
         style="fill:#111011;fill-opacity:1;fill-rule:nonzero;stroke:none"
         id="path60" /><path
         d="m 600.445,3188.47 c 0,-7.26 -5.89,-13.15 -13.152,-13.15 -7.266,0 -13.156,5.89 -13.156,13.15 0,7.27 5.89,13.16 13.156,13.16 7.262,0 13.152,-5.89 13.152,-13.16"
         style="fill:#111011;fill-opacity:1;fill-rule:nonzero;stroke:none"
         id="path62" /><path
         d="m 1756.87,3123.54 c 0,-9.3 -7.54,-16.85 -16.85,-16.85 -9.3,0 -16.84,7.55 -16.84,16.85 0,9.31 7.54,16.85 16.84,16.85 9.31,0 16.85,-7.54 16.85,-16.85"
         style="fill:#ffffff;fill-opacity:1;fill-rule:nonzero;stroke:none"
         id="path64" /><path
         d="m 622.629,3180.96 c 0,-9.31 -7.543,-16.85 -16.848,-16.85 -9.304,0 -16.847,7.54 -16.847,16.85 0,9.3 7.543,16.85 16.847,16.85 9.305,0 16.848,-7.55 16.848,-16.85"
         style="fill:#ffffff;fill-opacity:1;fill-rule:nonzero;stroke:none"
         id="path66" /><path
         d="m 3686.07,1326.13 11.25,-5.63 c -14.75,-25.75 -30.51,-47.42 -47.29,-64.99 -16.76,-17.57 -32.6,-29.79 -47.48,-36.62 -14.88,-6.85 -28.85,-8.92 -41.86,-6.24 -13,2.68 -23.39,10.33 -31.19,22.94 -6.97,10.19 -11.46,28.03 -13.47,53.52 -2.02,25.48 -2.54,48.9 -1.61,70.23 0.94,21.33 2.88,50.1 5.83,86.32 2.94,36.22 4.7,58.76 5.23,67.61 0.55,12.61 5.7,22.13 15.51,28.57 9.78,6.44 21.93,9.86 36.4,10.26 14.5,0.41 28.91,-0.14 43.27,-1.61 14.35,-1.47 27.69,-3.09 40.03,-4.82 12.35,-1.75 19.87,-2.22 22.54,-1.42 0.28,-1.07 0.47,-2.41 0.61,-4.02 0.14,-1.61 0.27,-4.76 0.41,-9.46 0.14,-4.69 0.06,-9.12 -0.22,-13.28 -0.25,-4.16 -1.19,-8.72 -2.81,-13.68 -1.6,-4.97 -3.75,-9.13 -6.42,-12.48 -2.7,-3.35 -6.53,-5.97 -11.49,-7.84 -4.96,-1.88 -10.8,-2.29 -17.5,-1.21 -24.14,3.48 -41.05,5.5 -50.7,6.04 -2.15,-23.62 -4.02,-50.85 -5.65,-81.7 2.15,-0.8 5.38,-1.75 9.67,-2.81 0.8,-0.27 1.74,-0.55 2.81,-0.81 1.08,-0.27 2.02,-0.4 2.82,-0.4 0.54,-0.27 1.34,-0.41 2.42,-0.41 0.27,-0.26 0.66,-0.4 1.21,-0.4 0.53,0 0.94,-0.14 1.21,-0.4 0.53,0 1.33,-0.07 2.4,-0.21 1.08,-0.13 1.88,-0.19 2.42,-0.19 0.53,-0.28 1.22,-0.4 2.02,-0.4 1.07,0 1.73,-0.15 2.01,-0.41 h 2.01 1.6 2.83 1.61 0.41 l 1.6,-16.1 h -0.8 -0.8 c -0.55,-0.27 -1.08,-0.4 -1.63,-0.4 h -3.22 -2.01 -2.4 -2.42 -2.43 c -0.52,0.27 -1.46,0.4 -2.81,0.4 -1.35,0 -2.28,0.14 -2.81,0.4 h -2.81 c -0.55,0.27 -1.49,0.4 -2.82,0.4 l -6.05,1.22 c -0.8,0.26 -1.93,0.53 -3.42,0.81 -1.46,0.26 -2.62,0.4 -3.42,0.4 -2.95,-61.71 -2.4,-103.43 1.62,-125.16 3.75,-19.86 16.1,-21.74 37.02,-5.63 18.24,13.94 37.83,37.15 58.77,69.61"
         style="fill:#111011;fill-opacity:1;fill-rule:nonzero;stroke:none"
         id="path68" /><path
         d="m 3719.05,1338.2 c -0.8,-10.19 2.68,-15.15 10.47,-14.89 9.12,0.54 18.64,7.11 28.58,19.73 5.07,6.7 9.25,14.22 12.46,22.53 -32.74,1.07 -49.9,-8.05 -51.51,-27.37 z m 171.84,19.72 9.67,-6.83 c -12.89,-34.61 -30.06,-59.03 -51.53,-73.25 -16.64,-10.73 -35.41,-15.56 -56.32,-14.49 -9.95,0.54 -17.39,4.02 -22.35,10.47 -4.96,6.44 -7.44,14.29 -7.44,23.54 0,9.25 0.67,19.38 2.01,30.39 -5.62,-10.21 -14.55,-18.99 -26.76,-26.36 -12.2,-7.38 -24.49,-9.6 -36.83,-6.64 -12.87,2.95 -20.92,9.92 -24.14,20.92 -3.22,11 -1.74,22.53 4.43,34.61 6.17,12.08 15.16,21.33 26.96,27.77 19.86,10.72 41.58,13.28 65.19,7.65 2.68,20.65 4.77,45.27 6.25,73.84 1.47,28.58 2.21,50.77 2.21,66.6 0,15.83 -0.14,26.7 -0.41,32.6 1.07,0 2.42,0.07 4.02,0.2 1.62,0.13 4.84,0 9.67,-0.4 4.82,-0.4 9.39,-1.2 13.67,-2.42 4.3,-1.2 9,-3.21 14.1,-6.03 5.08,-2.82 9.32,-6.24 12.68,-10.26 3.34,-4.03 5.9,-9.6 7.63,-16.7 1.74,-7.11 2.07,-15.1 1.02,-23.95 -0.82,-7.24 -2.42,-19.58 -4.84,-37.02 -10.45,-72.18 -14.22,-118.18 -11.27,-138.04 2.42,-17.44 8.86,-22.67 19.33,-15.69 9.65,6.44 18.03,13.74 25.14,21.93 7.11,8.18 11.87,14.82 14.3,19.92 l 3.61,7.64"
         style="fill:#111011;fill-opacity:1;fill-rule:nonzero;stroke:none"
         id="path70" /><path
         d="m 3988.68,1363.97 c 4.28,-3.23 7.5,-5.51 9.65,-6.85 0.27,1.34 0.74,3.75 1.41,7.25 0.68,3.48 1.15,6.16 1.42,8.04 0,0.54 0.06,1.27 0.2,2.22 0.14,0.94 0.19,1.53 0.19,1.81 0.28,0.8 0.41,2.15 0.41,4.02 0.53,2.41 0.53,4.83 0,7.25 0,5.36 -1.07,9.52 -3.22,12.47 -1.6,3.23 -4.02,5.24 -7.24,6.04 -3.23,0.8 -6.84,0.27 -10.86,-1.61 -3.77,-2.15 -6.45,-4.83 -8.05,-8.05 -1.35,-2.95 -1.62,-6.58 -0.82,-10.86 1.07,-4.03 3.36,-7.92 6.85,-11.67 2.41,-3.23 5.77,-6.59 10.06,-10.06 z m 82.5,0.8 8.05,-2.41 c 0,-0.55 -0.14,-1.35 -0.41,-2.43 -0.27,-1.07 -0.94,-3.08 -2.01,-6.03 -1.08,-2.95 -2.4,-5.5 -4.03,-7.65 -1.6,-2.15 -3.96,-4.76 -7.03,-7.84 -3.08,-3.09 -6.72,-5.1 -10.88,-6.04 -4.16,-0.94 -9.25,-1.74 -15.29,-2.42 -6.03,-0.66 -12.95,0.21 -20.72,2.62 -3.22,-12.87 -6.7,-23.88 -10.47,-33 -4.55,-10.73 -9.79,-20.25 -15.68,-28.57 -5.65,-7.79 -11.94,-14.76 -18.93,-20.93 -5.1,-4.29 -10.31,-8.05 -15.68,-11.26 -8.6,-5.37 -19.07,-9.12 -31.39,-11.27 -11.82,-1.87 -21.46,1.27 -28.98,9.45 -7.52,8.19 -12.68,19.98 -15.49,35.42 -2.82,15.42 -4.71,30.25 -5.65,44.47 -0.93,14.22 -1.4,29.64 -1.4,46.28 0,16.63 -0.14,27.1 -0.39,31.38 1.87,0.81 4.27,1.61 7.24,2.42 2.95,0.81 8.24,1.47 15.9,2.02 7.64,0.53 14.47,-0.14 20.51,-2.02 6.03,-1.88 11.81,-6.51 17.3,-13.88 5.51,-7.38 8.66,-17.25 9.48,-29.58 2.94,-38.91 6.42,-64.8 10.44,-77.67 4.58,4.03 8.87,8.45 12.9,13.28 5.62,6.98 10.31,14.35 14.08,22.13 4.27,8.59 8.04,18.12 11.27,28.58 0,0.53 0.25,1.61 0.8,3.22 -1.88,0.8 -6.84,3.75 -14.88,8.85 -5.12,3.76 -9.54,7.64 -13.29,11.67 -4.29,4.56 -7.93,10.19 -10.88,16.9 -0.8,2.15 -1.46,5.77 -2.01,10.87 0,3.49 0.67,7.51 2.01,12.08 2.68,7.5 7.8,13.41 15.3,17.7 7.24,4.56 15.29,6.3 24.16,5.23 4.28,-0.8 8.44,-2.41 12.46,-4.82 3.22,-2.16 6.31,-5.24 9.26,-9.26 1.87,-2.69 3.75,-6.44 5.64,-11.27 l 2.4,-10.87 c 0.28,-2.41 0.41,-5.9 0.41,-10.46 v -5.23 c -0.27,-1.35 -0.41,-2.96 -0.41,-4.83 -0.8,-8.59 -2.01,-16.9 -3.61,-24.95 1.07,-0.55 2.54,-1.15 4.41,-1.82 1.88,-0.67 5.32,-1.47 10.28,-2.41 4.96,-0.95 9.45,-1 13.47,-0.2 4.03,0.81 8.19,3.22 12.48,7.24 4.28,4.03 7.39,9.8 9.26,17.31"
         style="fill:#111011;fill-opacity:1;fill-rule:nonzero;stroke:none"
         id="path72" /><path
         d="m 4083.25,1330.56 c -0.54,-13.68 5.24,-18.51 17.31,-14.48 9.65,3.47 19.57,10.72 29.78,21.72 1.06,10.2 2.01,17.85 2.82,22.94 -4.3,0 -8.66,-0.34 -13.09,-1 -4.41,-0.68 -9.65,-1.89 -15.68,-3.62 -6.04,-1.75 -11.02,-4.83 -14.91,-9.26 -3.88,-4.43 -5.97,-9.86 -6.23,-16.3 z m 185.92,39.44 h 13.28 c -1.07,-3.76 -2.67,-8.65 -4.82,-14.69 -2.15,-6.04 -6.97,-16.77 -14.49,-32.19 -7.52,-15.43 -15.57,-29.11 -24.14,-41.05 -8.6,-11.94 -20,-22.74 -34.2,-32.4 -14.24,-9.66 -28.99,-14.48 -44.28,-14.48 -9.92,0 -17.64,3.55 -23.15,10.66 -5.48,7.1 -8.78,15.63 -9.86,25.55 -1.07,9.93 -1.19,22.14 -0.39,36.63 -18.79,-18.25 -38.63,-25.63 -59.57,-22.14 -13.14,2.41 -21.6,8.98 -25.35,19.72 -3.75,10.73 -2.87,22.26 2.62,34.61 5.5,12.34 14.02,22.14 25.56,29.38 19.04,11.8 40.65,15.69 64.79,11.67 0.8,12.34 0.52,21.33 -0.8,26.96 1.05,0.27 2.4,0.54 4.02,0.81 1.6,0.26 4.75,0.46 9.45,0.6 4.69,0.13 9.12,-0.07 13.28,-0.6 4.16,-0.54 8.72,-1.88 13.68,-4.03 4.96,-2.15 9.2,-5.03 12.69,-8.65 3.48,-3.62 6.23,-8.79 8.24,-15.5 2.02,-6.71 2.62,-14.62 1.82,-23.74 -4.02,-55.81 -0.96,-83.85 9.26,-84.11 4.02,-0.26 8.98,2.95 14.88,9.66 10.72,12.08 20.06,25.42 27.97,40.05 7.91,14.62 13.2,26.22 15.9,34.8 l 3.61,12.48"
         style="fill:#111011;fill-opacity:1;fill-rule:nonzero;stroke:none"
         id="path74" /><path
         d="m 4416.48,1356.32 8.84,0.4 c 3.75,-0.81 5.1,-2.96 4.03,-6.44 0,-0.27 -0.94,-3.62 -2.82,-10.06 -1.87,-6.44 -3.88,-13.42 -6.03,-20.93 -2.15,-7.51 -5.24,-16.7 -9.26,-27.56 -4.02,-10.87 -8.26,-21.27 -12.67,-31.19 -4.44,-9.93 -9.87,-19.99 -16.31,-30.19 -6.43,-10.19 -13.07,-18.91 -19.92,-26.15 -6.84,-7.25 -14.69,-13.08 -23.54,-17.51 -8.85,-4.42 -17.97,-6.37 -27.36,-5.84 -7.25,0.27 -13.28,2.62 -18.11,7.05 -4.84,4.43 -8.18,10.53 -10.06,18.31 -1.89,7.79 -3.08,16.1 -3.63,24.95 -0.55,8.85 -0.2,19.17 1.02,30.99 1.19,11.8 2.48,22.46 3.8,31.99 1.35,9.52 2.89,20.19 4.63,31.99 1.76,11.81 3.03,20.93 3.83,27.37 -16.89,0.26 -30.25,1.81 -40.04,4.63 -9.8,2.82 -16.03,6.36 -18.71,10.66 -2.69,4.29 -4.37,9.12 -5.04,14.49 -0.66,5.36 -0.39,10.93 0.82,16.7 1.19,5.77 0.72,11.47 -1.42,17.11 1.62,0.8 3.69,1.61 6.25,2.41 2.54,0.8 7.11,1.74 13.67,2.82 6.58,1.07 12.34,1.07 17.3,0 4.96,-1.08 9.26,-4.16 12.89,-9.26 3.62,-5.1 5.02,-12.47 4.22,-22.13 -0.54,-6.98 5.24,-10.47 17.31,-10.47 4.29,0.26 8.57,0.26 12.87,0 4.3,-0.27 9.39,-1.41 15.29,-3.42 5.9,-2.01 10.8,-4.9 14.69,-8.65 3.89,-3.76 7.05,-9.33 9.47,-16.7 2.4,-7.38 2.95,-16.03 1.6,-25.96 -6.44,-49.36 -9.39,-79.42 -8.84,-90.14 0.52,-20.39 7.5,-23.34 20.91,-8.86 9.4,9.93 18.32,25.69 26.76,47.29 8.46,21.59 14.55,40.71 18.32,57.35 l 5.24,24.95"
         style="fill:#111011;fill-opacity:1;fill-rule:nonzero;stroke:none"
         id="path76" /><path
         d="m 4432.96,1338.2 c -0.8,-10.19 2.68,-15.15 10.47,-14.89 9.12,0.54 18.63,7.11 28.57,19.73 5.08,6.7 9.26,14.22 12.46,22.53 -32.73,1.07 -49.9,-8.05 -51.5,-27.37 z m 171.84,19.72 9.66,-6.83 c -12.89,-34.61 -30.05,-59.03 -51.52,-73.25 -16.64,-10.73 -35.41,-15.56 -56.33,-14.49 -9.94,0.54 -17.38,4.02 -22.34,10.47 -4.96,6.44 -7.44,14.29 -7.44,23.54 0,9.25 0.66,19.38 2.01,30.39 -5.63,-10.21 -14.55,-18.99 -26.76,-26.36 -12.21,-7.38 -24.49,-9.6 -36.83,-6.64 -12.88,2.95 -20.92,9.92 -24.15,20.92 -3.22,11 -1.73,22.53 4.44,34.61 6.17,12.08 15.15,21.33 26.95,27.77 19.86,10.72 41.58,13.28 65.2,7.65 2.67,20.65 4.76,45.27 6.25,73.84 1.46,28.58 2.2,50.77 2.2,66.6 0,15.83 -0.13,26.7 -0.41,32.6 1.08,0 2.43,0.07 4.03,0.2 1.62,0.13 4.84,0 9.66,-0.4 4.83,-0.4 9.4,-1.2 13.68,-2.42 4.29,-1.2 9,-3.21 14.1,-6.03 5.08,-2.82 9.31,-6.24 12.67,-10.26 3.34,-4.03 5.9,-9.6 7.64,-16.7 1.74,-7.11 2.07,-15.1 1.02,-23.95 -0.82,-7.24 -2.43,-19.58 -4.85,-37.02 -10.45,-72.18 -14.22,-118.18 -11.27,-138.04 2.43,-17.44 8.87,-22.67 19.34,-15.69 9.65,6.44 18.03,13.74 25.14,21.93 7.11,8.18 11.87,14.82 14.29,19.92 l 3.62,7.64"
         style="fill:#111011;fill-opacity:1;fill-rule:nonzero;stroke:none"
         id="path78" /><path
         d="m 3636.55,933.559 c 14.5,6.441 25.96,7.711 34.42,3.82 8.45,-3.891 14.28,-10.051 17.5,-18.508 3.22,-8.453 5.37,-19.109 6.44,-31.992 1.08,-12.879 1.47,-25.231 1.21,-37.02 -0.27,-11.808 0.34,-22.89 1.8,-33.211 1.49,-10.32 4.24,-17.23 8.26,-20.718 -1.62,-1.34 -3.69,-3.02 -6.25,-5.032 -2.54,-2.007 -7.17,-4.769 -13.86,-8.25 -6.72,-3.488 -12.84,-5.5 -18.32,-6.039 -5.51,-0.531 -10.81,1.75 -15.9,6.84 -5.1,5.11 -8.32,13.68 -9.65,25.762 -0.55,9.66 -0.88,15.687 -1.02,18.109 -0.13,2.41 0.2,7.848 1.02,16.301 0.8,8.449 1.19,13.328 1.19,14.68 -8.85,-34.071 -23.48,-54.192 -43.85,-60.36 -17.71,-5.363 -34.76,0.797 -51.11,18.52 -20.67,22.258 -32.07,54.047 -34.22,95.367 -0.8,11.531 -0.66,23.473 0.41,35.82 2.68,31.922 8.24,59.562 16.7,82.902 8.46,23.34 17.77,40.64 27.97,51.91 10.19,11.27 20.99,19.72 32.4,25.35 11.39,5.64 21.47,8.31 30.18,8.05 8.71,-0.27 15.76,-2.15 21.13,-5.63 5.35,-3.49 9.65,-7.32 12.87,-11.47 3.22,-4.17 5.76,-10.14 7.66,-17.91 1.87,-7.78 2.34,-18.1 1.4,-30.98 -0.95,-12.89 -3.3,-28.45 -7.05,-46.68 l -12.07,8.84 c 0.28,1.34 0.61,3.02 1.02,5.03 0.39,2.01 0.72,5.64 0.99,10.87 0.28,5.24 0.14,9.86 -0.41,13.89 -0.52,4.02 -1.87,7.77 -4.02,11.27 -2.15,3.47 -5.22,5.36 -9.24,5.62 -2.17,0.27 -4.24,0.27 -6.25,0 -2.01,-0.26 -5.51,-2.15 -10.47,-5.62 -4.96,-3.5 -9.39,-8.6 -13.28,-15.3 -3.89,-6.7 -7.91,-17.38 -12.07,-32 -4.16,-14.622 -7.44,-32.251 -9.84,-52.919 -6.19,-55.801 -2.29,-93.23 11.66,-112.269 7.77,-11.012 16.5,-12.75 26.15,-5.243 11.54,8.86 18.24,25.493 20.14,49.911 1.32,15.019 0.11,31.121 -3.64,48.289"
         style="fill:#111011;fill-opacity:1;fill-rule:nonzero;stroke:none"
         id="path80" /><path
         d="m 3901.75,926.32 8.87,0.399 c 3.75,-0.809 5.07,-2.957 4.02,-6.438 0,-0.269 -0.96,-3.621 -2.83,-10.062 -1.88,-6.438 -3.89,-13.418 -6.04,-20.93 -2.15,-7.508 -5.23,-16.699 -9.26,-27.559 -4.02,-10.871 -8.24,-21.269 -12.67,-31.191 -4.42,-9.93 -9.84,-19.988 -16.29,-30.187 -6.45,-10.192 -13.09,-18.911 -19.92,-26.153 -6.84,-7.25 -14.69,-13.078 -23.54,-17.508 -8.86,-4.421 -17.99,-6.371 -27.38,-5.839 -7.23,0.269 -13.28,2.617 -18.11,7.046 -4.82,4.43 -8.18,10.532 -10.05,18.313 -1.88,7.789 -3.09,16.098 -3.62,24.949 -0.54,8.852 -0.21,19.168 1,30.988 1.21,11.801 2.48,22.461 3.83,31.993 1.33,9.519 2.87,20.187 4.63,31.988 1.73,11.812 3,20.93 3.82,27.371 -16.91,0.262 -30.25,1.809 -40.05,4.629 -9.79,2.82 -16.02,6.359 -18.72,10.66 -2.67,4.289 -4.35,9.121 -5.02,14.492 -0.68,5.36 -0.41,10.93 0.81,16.699 1.21,5.758 0.74,11.469 -1.41,17.098 1.6,0.813 3.69,1.613 6.23,2.41 2.56,0.813 7.11,1.75 13.69,2.832 6.56,1.059 12.33,1.059 17.31,0 4.96,-1.082 9.25,-4.16 12.87,-9.261 3.63,-5.098 5.04,-12.469 4.24,-22.129 -0.55,-6.981 5.21,-10.469 17.3,-10.469 4.28,0.258 8.57,0.258 12.87,0 4.28,-0.27 9.4,-1.41 15.29,-3.422 5.9,-2.008 10.8,-4.898 14.69,-8.648 3.89,-3.762 7.03,-9.332 9.45,-16.7 2.43,-7.382 2.95,-16.031 1.63,-25.961 -6.45,-49.359 -9.4,-79.421 -8.87,-90.14 0.55,-20.391 7.52,-23.34 20.94,-8.86 9.37,9.93 18.3,25.688 26.75,47.29 8.46,21.589 14.55,40.71 18.3,57.351 l 5.24,24.949"
         style="fill:#111011;fill-opacity:1;fill-rule:nonzero;stroke:none"
         id="path82" /><path
         d="m 3935.15,995.941 c -5.9,-5.91 -13.01,-8.863 -21.33,-8.863 -8.32,0 -15.43,2.953 -21.33,8.863 -5.9,5.899 -8.85,13.009 -8.85,21.329 0,8.31 2.95,15.42 8.85,21.33 5.9,5.89 13.01,8.85 21.33,8.85 8.32,0 15.43,-2.96 21.33,-8.85 5.9,-5.91 8.86,-13.02 8.86,-21.33 0,-8.32 -2.96,-15.43 -8.86,-21.329 z m 78.47,-59.961 11.68,-4.441 c -0.27,-0.258 -2.09,-4.16 -5.43,-11.668 -3.36,-7.5 -6.99,-15.359 -10.87,-23.531 -3.89,-8.192 -9.4,-17.512 -16.49,-27.981 -7.13,-10.461 -14.43,-19.648 -21.93,-27.558 -7.52,-7.922 -16.51,-14.563 -26.98,-19.922 -10.46,-5.371 -21.05,-7.918 -31.79,-7.649 -12.07,0.54 -21.12,5.43 -27.15,14.688 -6.06,9.262 -9.26,20.793 -9.67,34.613 -0.41,13.821 0.06,27.571 1.41,41.25 1.35,13.68 2.89,26.43 4.63,38.231 1.73,11.797 2.2,19.047 1.4,21.726 1.62,0.27 3.75,0.614 6.45,1.012 2.67,0.398 7.44,0.398 14.28,0 6.85,-0.398 12.67,-1.609 17.51,-3.629 4.83,-2.012 8.99,-5.832 12.47,-11.461 3.49,-5.629 4.57,-12.879 3.22,-21.742 -7.25,-49.09 -6.04,-75.52 3.63,-79.277 4.02,-1.61 9.51,0 16.49,4.839 8.59,5.899 17.65,15.75 27.16,29.579 9.53,13.812 16.98,26.082 22.35,36.812 l 7.63,16.109"
         style="fill:#111011;fill-opacity:1;fill-rule:nonzero;stroke:none"
         id="path84" /><path
         d="m 4074.8,930.34 c -1.61,0 -3.09,0 -4.44,0 -1.35,0 -3.42,-0.738 -6.23,-2.211 -2.81,-1.481 -5.29,-3.559 -7.44,-6.238 -2.15,-2.692 -4.43,-7.039 -6.84,-13.082 -2.42,-6.028 -4.29,-13.207 -5.64,-21.528 19.84,-1.34 33.26,5.09 40.25,19.309 1.06,2.43 1.86,5.308 2.41,8.66 0.54,3.359 -0.14,6.699 -2.02,10.059 -1.87,3.351 -5.23,5.031 -10.05,5.031 z m 83.3,1.609 8.04,-6.441 c -22.26,-41.59 -50.29,-73.379 -84.1,-95.367 -28.71,-18.789 -52.99,-25.09 -72.85,-18.922 -20.64,6.699 -29.77,26.152 -27.36,58.351 0.27,4.289 0.82,8.719 1.62,13.282 2.4,13.679 6.78,25.488 13.06,35.41 6.31,9.929 13.29,17.379 20.94,22.347 7.64,4.961 15.82,8.571 24.55,10.86 8.71,2.269 16.43,3.351 23.15,3.222 6.7,-0.14 12.32,-0.882 16.89,-2.222 5.9,-1.867 10.72,-5.16 14.49,-9.848 3.75,-4.703 5.9,-10.812 6.43,-18.312 0.55,-7.52 -2.15,-15.969 -8.05,-25.36 -9.39,-15.301 -26.83,-22.531 -52.3,-21.73 -2.97,-26.559 2.81,-38.77 17.3,-36.617 15.82,2.406 37.95,19.039 66.39,49.898 16.37,17.969 26.97,31.801 31.8,41.449"
         style="fill:#111011;fill-opacity:1;fill-rule:nonzero;stroke:none"
         id="path86" /><path
         d="m 4243.41,731.949 c 1.07,31.922 0.94,70.821 -0.39,116.692 -49.9,-39.43 -69.22,-70.153 -57.95,-92.153 11,-20.66 22.79,-34.609 35.41,-41.847 12.32,-7.25 19.71,-3.493 22.13,11.257 0.53,1.883 0.8,3.903 0.8,6.051 z m -61.97,166.199 c -0.28,-13.418 6.97,-18.109 21.73,-14.089 13.42,4.031 25.61,11.8 36.63,23.339 0.25,0.27 0.52,0.543 0.8,0.801 v 0.41 c -0.8,9.653 -1.35,16.899 -1.6,21.731 -4.3,0 -9.07,-0.41 -14.3,-1.211 -5.24,-0.801 -11.33,-2.149 -18.3,-4.02 -6.99,-1.89 -12.81,-5.168 -17.52,-9.859 -4.69,-4.699 -7.17,-10.398 -7.44,-17.102 z m 200.41,49.09 3.63,-10.058 c -26.31,-13.418 -54.2,-29.379 -83.71,-47.891 6.44,-84.238 8.57,-142.59 6.44,-175.059 -3.22,-48.82 -14.23,-73.371 -33,-73.64 -3.23,-0.539 -6.92,-0.61 -11.08,-0.199 -4.16,0.398 -10.58,2.347 -19.31,5.828 -8.72,3.492 -17.31,8.601 -25.75,15.301 -8.45,6.699 -18.04,17.3 -28.79,31.789 -10.72,14.48 -20.64,31.793 -29.76,51.91 -15.57,30.859 11.8,71.359 82.09,121.539 -0.55,8.051 -0.8,14.222 -0.8,18.512 -9.67,-9.661 -21.6,-18.051 -35.82,-25.149 -14.22,-7.121 -27.64,-9.601 -40.24,-7.453 -13.41,2.422 -22.07,9.121 -25.95,20.121 -3.89,11 -3.03,22.813 2.61,35.41 5.63,12.61 14.34,22.672 26.16,30.192 11.52,7.25 24.74,11.668 39.62,13.277 14.91,1.613 24.61,1.34 29.18,-0.809 -1.07,13.68 -2.14,22.68 -3.22,26.961 0.82,0.27 1.95,0.539 3.42,0.809 1.48,0.269 4.3,0.609 8.46,1.012 4.16,0.398 8.18,0.328 12.07,-0.2 3.88,-0.543 8.32,-1.882 13.28,-4.031 4.96,-2.148 9.26,-5.031 12.89,-8.652 3.61,-3.617 6.83,-8.988 9.65,-16.09 2.81,-7.109 4.63,-15.5 5.43,-25.16 l 1.21,-21.328 c 13.14,7.511 26.48,14.89 40.04,22.14 13.55,7.239 23.81,12.469 30.8,15.692 l 10.45,5.226"
         style="fill:#111011;fill-opacity:1;fill-rule:nonzero;stroke:none"
         id="path88" /></g></g></svg>
