<?xml version="1.0" encoding="utf-8"?>
<svg viewBox="468.529 500 274.355 63.433" width="146.731" height="50.43" xmlns="http://www.w3.org/2000/svg">
  <path d="m 3686.07,1326.13 11.25,-5.63 c -14.75,-25.75 -30.51,-47.42 -47.29,-64.99 -16.76,-17.57 -32.6,-29.79 -47.48,-36.62 -14.88,-6.85 -28.85,-8.92 -41.86,-6.24 -13,2.68 -23.39,10.33 -31.19,22.94 -6.97,10.19 -11.46,28.03 -13.47,53.52 -2.02,25.48 -2.54,48.9 -1.61,70.23 0.94,21.33 2.88,50.1 5.83,86.32 2.94,36.22 4.7,58.76 5.23,67.61 0.55,12.61 5.7,22.13 15.51,28.57 9.78,6.44 21.93,9.86 36.4,10.26 14.5,0.41 28.91,-0.14 43.27,-1.61 14.35,-1.47 27.69,-3.09 40.03,-4.82 12.35,-1.75 19.87,-2.22 22.54,-1.42 0.28,-1.07 0.47,-2.41 0.61,-4.02 0.14,-1.61 0.27,-4.76 0.41,-9.46 0.14,-4.69 0.06,-9.12 -0.22,-13.28 -0.25,-4.16 -1.19,-8.72 -2.81,-13.68 -1.6,-4.97 -3.75,-9.13 -6.42,-12.48 -2.7,-3.35 -6.53,-5.97 -11.49,-7.84 -4.96,-1.88 -10.8,-2.29 -17.5,-1.21 -24.14,3.48 -41.05,5.5 -50.7,6.04 -2.15,-23.62 -4.02,-50.85 -5.65,-81.7 2.15,-0.8 5.38,-1.75 9.67,-2.81 0.8,-0.27 1.74,-0.55 2.81,-0.81 1.08,-0.27 2.02,-0.4 2.82,-0.4 0.54,-0.27 1.34,-0.41 2.42,-0.41 0.27,-0.26 0.66,-0.4 1.21,-0.4 0.53,0 0.94,-0.14 1.21,-0.4 0.53,0 1.33,-0.07 2.4,-0.21 1.08,-0.13 1.88,-0.19 2.42,-0.19 0.53,-0.28 1.22,-0.4 2.02,-0.4 1.07,0 1.73,-0.15 2.01,-0.41 h 2.01 1.6 2.83 1.61 0.41 l 1.6,-16.1 h -0.8 -0.8 c -0.55,-0.27 -1.08,-0.4 -1.63,-0.4 h -3.22 -2.01 -2.4 -2.42 -2.43 c -0.52,0.27 -1.46,0.4 -2.81,0.4 -1.35,0 -2.28,0.14 -2.81,0.4 h -2.81 c -0.55,0.27 -1.49,0.4 -2.82,0.4 l -6.05,1.22 c -0.8,0.26 -1.93,0.53 -3.42,0.81 -1.46,0.26 -2.62,0.4 -3.42,0.4 -2.95,-61.71 -2.4,-103.43 1.62,-125.16 3.75,-19.86 16.1,-21.74 37.02,-5.63 18.24,13.94 37.83,37.15 58.77,69.61" style="fill:#111011;fill-opacity:1;fill-rule:nonzero;stroke:none" id="path68" transform="matrix(0.133333, 0, 0, -0.133333, 0, 709.400024)"/>
  <path d="m 3719.05,1338.2 c -0.8,-10.19 2.68,-15.15 10.47,-14.89 9.12,0.54 18.64,7.11 28.58,19.73 5.07,6.7 9.25,14.22 12.46,22.53 -32.74,1.07 -49.9,-8.05 -51.51,-27.37 z m 171.84,19.72 9.67,-6.83 c -12.89,-34.61 -30.06,-59.03 -51.53,-73.25 -16.64,-10.73 -35.41,-15.56 -56.32,-14.49 -9.95,0.54 -17.39,4.02 -22.35,10.47 -4.96,6.44 -7.44,14.29 -7.44,23.54 0,9.25 0.67,19.38 2.01,30.39 -5.62,-10.21 -14.55,-18.99 -26.76,-26.36 -12.2,-7.38 -24.49,-9.6 -36.83,-6.64 -12.87,2.95 -20.92,9.92 -24.14,20.92 -3.22,11 -1.74,22.53 4.43,34.61 6.17,12.08 15.16,21.33 26.96,27.77 19.86,10.72 41.58,13.28 65.19,7.65 2.68,20.65 4.77,45.27 6.25,73.84 1.47,28.58 2.21,50.77 2.21,66.6 0,15.83 -0.14,26.7 -0.41,32.6 1.07,0 2.42,0.07 4.02,0.2 1.62,0.13 4.84,0 9.67,-0.4 4.82,-0.4 9.39,-1.2 13.67,-2.42 4.3,-1.2 9,-3.21 14.1,-6.03 5.08,-2.82 9.32,-6.24 12.68,-10.26 3.34,-4.03 5.9,-9.6 7.63,-16.7 1.74,-7.11 2.07,-15.1 1.02,-23.95 -0.82,-7.24 -2.42,-19.58 -4.84,-37.02 -10.45,-72.18 -14.22,-118.18 -11.27,-138.04 2.42,-17.44 8.86,-22.67 19.33,-15.69 9.65,6.44 18.03,13.74 25.14,21.93 7.11,8.18 11.87,14.82 14.3,19.92 l 3.61,7.64" style="fill:#111011;fill-opacity:1;fill-rule:nonzero;stroke:none" id="path70" transform="matrix(0.133333, 0, 0, -0.133333, 0, 709.400024)"/>
  <path d="m 3988.68,1363.97 c 4.28,-3.23 7.5,-5.51 9.65,-6.85 0.27,1.34 0.74,3.75 1.41,7.25 0.68,3.48 1.15,6.16 1.42,8.04 0,0.54 0.06,1.27 0.2,2.22 0.14,0.94 0.19,1.53 0.19,1.81 0.28,0.8 0.41,2.15 0.41,4.02 0.53,2.41 0.53,4.83 0,7.25 0,5.36 -1.07,9.52 -3.22,12.47 -1.6,3.23 -4.02,5.24 -7.24,6.04 -3.23,0.8 -6.84,0.27 -10.86,-1.61 -3.77,-2.15 -6.45,-4.83 -8.05,-8.05 -1.35,-2.95 -1.62,-6.58 -0.82,-10.86 1.07,-4.03 3.36,-7.92 6.85,-11.67 2.41,-3.23 5.77,-6.59 10.06,-10.06 z m 82.5,0.8 8.05,-2.41 c 0,-0.55 -0.14,-1.35 -0.41,-2.43 -0.27,-1.07 -0.94,-3.08 -2.01,-6.03 -1.08,-2.95 -2.4,-5.5 -4.03,-7.65 -1.6,-2.15 -3.96,-4.76 -7.03,-7.84 -3.08,-3.09 -6.72,-5.1 -10.88,-6.04 -4.16,-0.94 -9.25,-1.74 -15.29,-2.42 -6.03,-0.66 -12.95,0.21 -20.72,2.62 -3.22,-12.87 -6.7,-23.88 -10.47,-33 -4.55,-10.73 -9.79,-20.25 -15.68,-28.57 -5.65,-7.79 -11.94,-14.76 -18.93,-20.93 -5.1,-4.29 -10.31,-8.05 -15.68,-11.26 -8.6,-5.37 -19.07,-9.12 -31.39,-11.27 -11.82,-1.87 -21.46,1.27 -28.98,9.45 -7.52,8.19 -12.68,19.98 -15.49,35.42 -2.82,15.42 -4.71,30.25 -5.65,44.47 -0.93,14.22 -1.4,29.64 -1.4,46.28 0,16.63 -0.14,27.1 -0.39,31.38 1.87,0.81 4.27,1.61 7.24,2.42 2.95,0.81 8.24,1.47 15.9,2.02 7.64,0.53 14.47,-0.14 20.51,-2.02 6.03,-1.88 11.81,-6.51 17.3,-13.88 5.51,-7.38 8.66,-17.25 9.48,-29.58 2.94,-38.91 6.42,-64.8 10.44,-77.67 4.58,4.03 8.87,8.45 12.9,13.28 5.62,6.98 10.31,14.35 14.08,22.13 4.27,8.59 8.04,18.12 11.27,28.58 0,0.53 0.25,1.61 0.8,3.22 -1.88,0.8 -6.84,3.75 -14.88,8.85 -5.12,3.76 -9.54,7.64 -13.29,11.67 -4.29,4.56 -7.93,10.19 -10.88,16.9 -0.8,2.15 -1.46,5.77 -2.01,10.87 0,3.49 0.67,7.51 2.01,12.08 2.68,7.5 7.8,13.41 15.3,17.7 7.24,4.56 15.29,6.3 24.16,5.23 4.28,-0.8 8.44,-2.41 12.46,-4.82 3.22,-2.16 6.31,-5.24 9.26,-9.26 1.87,-2.69 3.75,-6.44 5.64,-11.27 l 2.4,-10.87 c 0.28,-2.41 0.41,-5.9 0.41,-10.46 v -5.23 c -0.27,-1.35 -0.41,-2.96 -0.41,-4.83 -0.8,-8.59 -2.01,-16.9 -3.61,-24.95 1.07,-0.55 2.54,-1.15 4.41,-1.82 1.88,-0.67 5.32,-1.47 10.28,-2.41 4.96,-0.95 9.45,-1 13.47,-0.2 4.03,0.81 8.19,3.22 12.48,7.24 4.28,4.03 7.39,9.8 9.26,17.31" style="fill:#111011;fill-opacity:1;fill-rule:nonzero;stroke:none" id="path72" transform="matrix(0.133333, 0, 0, -0.133333, 0, 709.400024)"/>
  <path d="m 4083.25,1330.56 c -0.54,-13.68 5.24,-18.51 17.31,-14.48 9.65,3.47 19.57,10.72 29.78,21.72 1.06,10.2 2.01,17.85 2.82,22.94 -4.3,0 -8.66,-0.34 -13.09,-1 -4.41,-0.68 -9.65,-1.89 -15.68,-3.62 -6.04,-1.75 -11.02,-4.83 -14.91,-9.26 -3.88,-4.43 -5.97,-9.86 -6.23,-16.3 z m 185.92,39.44 h 13.28 c -1.07,-3.76 -2.67,-8.65 -4.82,-14.69 -2.15,-6.04 -6.97,-16.77 -14.49,-32.19 -7.52,-15.43 -15.57,-29.11 -24.14,-41.05 -8.6,-11.94 -20,-22.74 -34.2,-32.4 -14.24,-9.66 -28.99,-14.48 -44.28,-14.48 -9.92,0 -17.64,3.55 -23.15,10.66 -5.48,7.1 -8.78,15.63 -9.86,25.55 -1.07,9.93 -1.19,22.14 -0.39,36.63 -18.79,-18.25 -38.63,-25.63 -59.57,-22.14 -13.14,2.41 -21.6,8.98 -25.35,19.72 -3.75,10.73 -2.87,22.26 2.62,34.61 5.5,12.34 14.02,22.14 25.56,29.38 19.04,11.8 40.65,15.69 64.79,11.67 0.8,12.34 0.52,21.33 -0.8,26.96 1.05,0.27 2.4,0.54 4.02,0.81 1.6,0.26 4.75,0.46 9.45,0.6 4.69,0.13 9.12,-0.07 13.28,-0.6 4.16,-0.54 8.72,-1.88 13.68,-4.03 4.96,-2.15 9.2,-5.03 12.69,-8.65 3.48,-3.62 6.23,-8.79 8.24,-15.5 2.02,-6.71 2.62,-14.62 1.82,-23.74 -4.02,-55.81 -0.96,-83.85 9.26,-84.11 4.02,-0.26 8.98,2.95 14.88,9.66 10.72,12.08 20.06,25.42 27.97,40.05 7.91,14.62 13.2,26.22 15.9,34.8 l 3.61,12.48" style="fill:#111011;fill-opacity:1;fill-rule:nonzero;stroke:none" id="path74" transform="matrix(0.133333, 0, 0, -0.133333, 0, 709.400024)"/>
  <path d="m 4416.48,1356.32 8.84,0.4 c 3.75,-0.81 5.1,-2.96 4.03,-6.44 0,-0.27 -0.94,-3.62 -2.82,-10.06 -1.87,-6.44 -3.88,-13.42 -6.03,-20.93 -2.15,-7.51 -5.24,-16.7 -9.26,-27.56 -4.02,-10.87 -8.26,-21.27 -12.67,-31.19 -4.44,-9.93 -9.87,-19.99 -16.31,-30.19 -6.43,-10.19 -13.07,-18.91 -19.92,-26.15 -6.84,-7.25 -14.69,-13.08 -23.54,-17.51 -8.85,-4.42 -17.97,-6.37 -27.36,-5.84 -7.25,0.27 -13.28,2.62 -18.11,7.05 -4.84,4.43 -8.18,10.53 -10.06,18.31 -1.89,7.79 -3.08,16.1 -3.63,24.95 -0.55,8.85 -0.2,19.17 1.02,30.99 1.19,11.8 2.48,22.46 3.8,31.99 1.35,9.52 2.89,20.19 4.63,31.99 1.76,11.81 3.03,20.93 3.83,27.37 -16.89,0.26 -30.25,1.81 -40.04,4.63 -9.8,2.82 -16.03,6.36 -18.71,10.66 -2.69,4.29 -4.37,9.12 -5.04,14.49 -0.66,5.36 -0.39,10.93 0.82,16.7 1.19,5.77 0.72,11.47 -1.42,17.11 1.62,0.8 3.69,1.61 6.25,2.41 2.54,0.8 7.11,1.74 13.67,2.82 6.58,1.07 12.34,1.07 17.3,0 4.96,-1.08 9.26,-4.16 12.89,-9.26 3.62,-5.1 5.02,-12.47 4.22,-22.13 -0.54,-6.98 5.24,-10.47 17.31,-10.47 4.29,0.26 8.57,0.26 12.87,0 4.3,-0.27 9.39,-1.41 15.29,-3.42 5.9,-2.01 10.8,-4.9 14.69,-8.65 3.89,-3.76 7.05,-9.33 9.47,-16.7 2.4,-7.38 2.95,-16.03 1.6,-25.96 -6.44,-49.36 -9.39,-79.42 -8.84,-90.14 0.52,-20.39 7.5,-23.34 20.91,-8.86 9.4,9.93 18.32,25.69 26.76,47.29 8.46,21.59 14.55,40.71 18.32,57.35 l 5.24,24.95" style="fill:#111011;fill-opacity:1;fill-rule:nonzero;stroke:none" id="path76" transform="matrix(0.133333, 0, 0, -0.133333, 0, 709.400024)"/>
  <path d="m 4432.96,1338.2 c -0.8,-10.19 2.68,-15.15 10.47,-14.89 9.12,0.54 18.63,7.11 28.57,19.73 5.08,6.7 9.26,14.22 12.46,22.53 -32.73,1.07 -49.9,-8.05 -51.5,-27.37 z m 171.84,19.72 9.66,-6.83 c -12.89,-34.61 -30.05,-59.03 -51.52,-73.25 -16.64,-10.73 -35.41,-15.56 -56.33,-14.49 -9.94,0.54 -17.38,4.02 -22.34,10.47 -4.96,6.44 -7.44,14.29 -7.44,23.54 0,9.25 0.66,19.38 2.01,30.39 -5.63,-10.21 -14.55,-18.99 -26.76,-26.36 -12.21,-7.38 -24.49,-9.6 -36.83,-6.64 -12.88,2.95 -20.92,9.92 -24.15,20.92 -3.22,11 -1.73,22.53 4.44,34.61 6.17,12.08 15.15,21.33 26.95,27.77 19.86,10.72 41.58,13.28 65.2,7.65 2.67,20.65 4.76,45.27 6.25,73.84 1.46,28.58 2.2,50.77 2.2,66.6 0,15.83 -0.13,26.7 -0.41,32.6 1.08,0 2.43,0.07 4.03,0.2 1.62,0.13 4.84,0 9.66,-0.4 4.83,-0.4 9.4,-1.2 13.68,-2.42 4.29,-1.2 9,-3.21 14.1,-6.03 5.08,-2.82 9.31,-6.24 12.67,-10.26 3.34,-4.03 5.9,-9.6 7.64,-16.7 1.74,-7.11 2.07,-15.1 1.02,-23.95 -0.82,-7.24 -2.43,-19.58 -4.85,-37.02 -10.45,-72.18 -14.22,-118.18 -11.27,-138.04 2.43,-17.44 8.87,-22.67 19.34,-15.69 9.65,6.44 18.03,13.74 25.14,21.93 7.11,8.18 11.87,14.82 14.29,19.92 l 3.62,7.64" style="fill:#111011;fill-opacity:1;fill-rule:nonzero;stroke:none" id="path78" transform="matrix(0.133333, 0, 0, -0.133333, 0, 709.400024)"/>
  <path d="M 643.027 524.309 C 644.961 523.45 646.489 523.281 647.617 523.8 C 648.743 524.319 649.521 525.14 649.95 526.267 C 650.379 527.395 650.666 528.815 650.809 530.533 C 650.953 532.25 651.005 533.897 650.97 535.469 C 650.934 537.043 651.015 538.521 651.21 539.897 C 651.409 541.273 651.775 542.194 652.311 542.66 C 652.095 542.838 651.819 543.062 651.478 543.33 C 651.139 543.598 650.522 543.966 649.63 544.43 C 648.734 544.896 647.918 545.164 647.187 545.236 C 646.453 545.306 645.746 545.002 645.067 544.324 C 644.387 543.642 643.958 542.5 643.781 540.889 C 643.707 539.601 643.663 538.797 643.645 538.474 C 643.627 538.153 643.671 537.428 643.781 536.301 C 643.887 535.174 643.939 534.524 643.939 534.343 C 642.759 538.886 640.809 541.569 638.093 542.391 C 635.731 543.106 633.458 542.285 631.278 539.922 C 628.522 536.954 627.002 532.716 626.715 527.207 C 626.609 525.669 626.627 524.077 626.77 522.431 C 627.127 518.174 627.869 514.489 628.997 511.377 C 630.125 508.265 631.366 505.958 632.726 504.456 C 634.085 502.953 635.525 501.826 637.046 501.076 C 638.565 500.324 639.909 499.968 641.07 500.002 C 642.231 500.038 643.171 500.289 643.887 500.753 C 644.601 501.218 645.174 501.729 645.603 502.282 C 646.033 502.838 646.371 503.634 646.625 504.67 C 646.874 505.708 646.937 507.084 646.811 508.801 C 646.685 510.52 646.371 512.594 645.871 515.025 L 644.262 513.846 C 644.299 513.668 644.343 513.444 644.398 513.176 C 644.45 512.908 644.494 512.424 644.53 511.726 C 644.567 511.028 644.549 510.412 644.475 509.874 C 644.406 509.338 644.226 508.838 643.939 508.372 C 643.653 507.909 643.243 507.657 642.707 507.622 C 642.418 507.586 642.142 507.586 641.874 507.622 C 641.606 507.657 641.139 507.909 640.478 508.372 C 639.817 508.838 639.226 509.518 638.707 510.412 C 638.189 511.305 637.653 512.729 637.098 514.678 C 636.543 516.628 636.106 518.978 635.786 521.734 C 634.961 529.174 635.481 534.165 637.341 536.703 C 638.377 538.172 639.541 538.403 640.827 537.402 C 642.366 536.221 643.259 534.003 643.513 530.748 C 643.689 528.745 643.527 526.598 643.027 524.309" style="fill:#111011;fill-opacity:1;fill-rule:nonzero;stroke:none" id="path80"/>
  <path d="M 678.387 525.274 L 679.57 525.221 C 680.07 525.329 680.246 525.615 680.106 526.079 C 680.106 526.115 679.978 526.562 679.729 527.421 C 679.478 528.279 679.21 529.21 678.923 530.212 C 678.637 531.213 678.226 532.438 677.689 533.886 C 677.153 535.336 676.59 536.722 675.999 538.045 C 675.41 539.369 674.687 540.71 673.827 542.07 C 672.967 543.429 672.082 544.591 671.171 545.557 C 670.259 546.524 669.213 547.301 668.033 547.891 C 666.851 548.481 665.634 548.741 664.382 548.67 C 663.418 548.634 662.611 548.321 661.967 547.73 C 661.325 547.14 660.877 546.326 660.627 545.289 C 660.377 544.25 660.215 543.142 660.145 541.962 C 660.073 540.782 660.117 539.406 660.278 537.831 C 660.439 536.257 660.609 534.836 660.789 533.565 C 660.966 532.296 661.171 530.873 661.406 529.3 C 661.637 527.725 661.806 526.509 661.915 525.65 C 659.661 525.615 657.882 525.409 656.575 525.033 C 655.27 524.657 654.439 524.185 654.079 523.612 C 653.723 523.04 653.499 522.396 653.41 521.679 C 653.319 520.965 653.355 520.222 653.518 519.453 C 653.679 518.685 653.617 517.924 653.33 517.173 C 653.543 517.065 653.822 516.958 654.161 516.852 C 654.502 516.743 655.109 516.619 655.986 516.474 C 656.861 516.333 657.63 516.333 658.294 516.474 C 658.955 516.619 659.527 517.029 660.01 517.709 C 660.494 518.389 660.682 519.372 660.575 520.66 C 660.502 521.59 661.27 522.055 662.882 522.055 C 663.453 522.021 664.025 522.021 664.598 522.055 C 665.169 522.091 665.851 522.243 666.637 522.512 C 667.423 522.779 668.077 523.165 668.595 523.665 C 669.114 524.166 669.533 524.909 669.855 525.891 C 670.179 526.876 670.249 528.029 670.073 529.353 C 669.213 535.934 668.819 539.942 668.89 541.372 C 668.963 544.09 669.893 544.484 671.682 542.553 C 672.931 541.229 674.122 539.128 675.249 536.248 C 676.377 533.369 677.189 530.82 677.689 528.601 L 678.387 525.274" style="fill:#111011;fill-opacity:1;fill-rule:nonzero;stroke:none" id="path82"/>
  <path d="M 682.841 515.991 C 682.054 516.779 681.106 517.173 679.997 517.173 C 678.887 517.173 677.939 516.779 677.153 515.991 C 676.366 515.205 675.973 514.257 675.973 513.148 C 675.973 512.04 676.366 511.092 677.153 510.304 C 677.939 509.518 678.887 509.124 679.997 509.124 C 681.106 509.124 682.054 509.518 682.841 510.304 C 683.627 511.092 684.022 512.04 684.022 513.148 C 684.022 514.257 683.627 515.205 682.841 515.991 Z M 693.303 523.986 L 694.861 524.578 C 694.825 524.613 694.582 525.133 694.137 526.134 C 693.689 527.134 693.205 528.182 692.687 529.272 C 692.169 530.364 691.434 531.607 690.489 533.002 C 689.538 534.397 688.565 535.622 687.565 536.677 C 686.562 537.733 685.363 538.618 683.967 539.333 C 682.573 540.049 681.161 540.389 679.729 540.353 C 678.119 540.281 676.913 539.629 676.109 538.395 C 675.301 537.16 674.874 535.622 674.819 533.779 C 674.765 531.937 674.827 530.103 675.007 528.279 C 675.187 526.455 675.393 524.755 675.625 523.182 C 675.855 521.609 675.918 520.642 675.811 520.285 C 676.027 520.249 676.311 520.203 676.671 520.15 C 677.027 520.097 677.663 520.097 678.575 520.15 C 679.489 520.203 680.265 520.365 680.91 520.634 C 681.554 520.902 682.109 521.412 682.573 522.162 C 683.038 522.913 683.182 523.879 683.002 525.061 C 682.035 531.607 682.197 535.131 683.486 535.631 C 684.022 535.846 684.754 535.631 685.685 534.986 C 686.83 534.2 688.038 532.886 689.306 531.042 C 690.577 529.201 691.57 527.565 692.286 526.134 L 693.303 523.986" style="fill:#111011;fill-opacity:1;fill-rule:nonzero;stroke:none" id="path84"/>
  <path d="M 701.461 524.738 C 701.246 524.738 701.049 524.738 700.869 524.738 C 700.689 524.738 700.413 524.837 700.038 525.033 C 699.663 525.231 699.333 525.508 699.046 525.865 C 698.759 526.224 698.455 526.803 698.134 527.609 C 697.811 528.413 697.562 529.37 697.382 530.479 C 700.027 530.658 701.817 529.801 702.749 527.905 C 702.89 527.581 702.997 527.197 703.07 526.75 C 703.142 526.302 703.051 525.857 702.801 525.409 C 702.551 524.962 702.103 524.738 701.461 524.738 Z M 712.567 524.524 L 713.639 525.383 C 710.671 530.928 706.934 535.166 702.426 538.098 C 698.598 540.603 695.361 541.443 692.713 540.621 C 689.961 539.728 688.743 537.134 689.065 532.841 C 689.101 532.269 689.174 531.678 689.281 531.07 C 689.601 529.246 690.185 527.672 691.022 526.349 C 691.863 525.025 692.794 524.031 693.814 523.369 C 694.833 522.708 695.923 522.226 697.087 521.921 C 698.249 521.619 699.278 521.474 700.174 521.491 C 701.067 521.51 701.817 521.609 702.426 521.788 C 703.213 522.037 703.855 522.476 704.358 523.101 C 704.858 523.728 705.145 524.542 705.215 525.542 C 705.289 526.545 704.929 527.672 704.142 528.924 C 702.89 530.964 700.565 531.928 697.169 531.821 C 696.773 535.362 697.543 536.99 699.475 536.703 C 701.585 536.383 704.535 534.165 708.327 530.05 C 710.51 527.654 711.923 525.81 712.567 524.524" style="fill:#111011;fill-opacity:1;fill-rule:nonzero;stroke:none" id="path86"/>
  <path d="M 723.942 551.19 C 724.085 546.934 724.067 541.748 723.89 535.631 C 717.237 540.889 714.661 544.985 716.163 547.918 C 717.63 550.673 719.202 552.533 720.885 553.498 C 722.527 554.465 723.513 553.964 723.835 551.997 C 723.906 551.746 723.942 551.477 723.942 551.19 Z M 715.679 529.031 C 715.642 530.82 716.609 531.445 718.577 530.909 C 720.366 530.372 721.991 529.336 723.461 527.797 C 723.494 527.761 723.53 527.725 723.567 527.69 L 723.567 527.636 C 723.461 526.349 723.387 525.383 723.354 524.738 C 722.781 524.738 722.145 524.793 721.447 524.9 C 720.749 525.007 719.937 525.186 719.007 525.436 C 718.075 525.688 717.299 526.125 716.671 526.75 C 716.046 527.377 715.715 528.137 715.679 529.031 Z M 742.4 522.485 L 742.884 523.826 C 739.376 525.615 735.658 527.743 731.723 530.212 C 732.582 541.443 732.866 549.224 732.582 553.553 C 732.152 560.062 730.684 563.336 728.182 563.371 C 727.751 563.443 727.259 563.453 726.705 563.398 C 726.15 563.345 725.294 563.085 724.13 562.621 C 722.967 562.155 721.822 561.474 720.697 560.581 C 719.57 559.688 718.291 558.274 716.858 556.342 C 715.429 554.412 714.106 552.103 712.89 549.421 C 710.814 545.306 714.463 539.906 723.835 533.216 C 723.762 532.142 723.729 531.32 723.729 530.748 C 722.439 532.036 720.849 533.154 718.953 534.101 C 717.057 535.05 715.267 535.381 713.587 535.095 C 711.799 534.772 710.645 533.878 710.127 532.412 C 709.609 530.945 709.723 529.37 710.475 527.69 C 711.226 526.009 712.387 524.667 713.963 523.665 C 715.499 522.698 717.262 522.109 719.246 521.895 C 721.234 521.679 722.527 521.716 723.137 522.002 C 722.994 520.178 722.851 518.978 722.707 518.408 C 722.817 518.372 722.967 518.336 723.163 518.3 C 723.361 518.264 723.737 518.219 724.291 518.165 C 724.846 518.112 725.382 518.121 725.901 518.191 C 726.418 518.264 727.01 518.442 727.671 518.729 C 728.332 519.015 728.906 519.4 729.39 519.883 C 729.871 520.365 730.3 521.081 730.676 522.028 C 731.051 522.976 731.294 524.095 731.4 525.383 L 731.562 528.226 C 733.314 527.225 735.092 526.241 736.9 525.274 C 738.707 524.309 740.075 523.612 741.007 523.182 L 742.4 522.485" style="fill:#111011;fill-opacity:1;fill-rule:nonzero;stroke:none" id="path88"/>
</svg>