<?xml version="1.0" encoding="utf-8"?>
<svg viewBox="0 661.975 284.18 63.572" xmlns="http://www.w3.org/2000/svg">
  <path d="m 37.5195,191.621 0.8125,-0.812 c 2.4102,-4.817 5.3594,-9.789 8.8477,-14.879 2.6836,-3.758 4.832,-6.578 6.4453,-8.461 0.2617,0 0.3984,-0.129 0.3984,-0.399 h 0.4024 c 2.9492,-3.48 5.7695,-5.23 8.457,-5.23 2.6758,0 4.8242,3.219 6.4336,9.66 v 1.211 c 0,0.527 0.1289,0.937 0.4024,1.211 1.875,17.969 3.4843,41.84 4.832,71.629 -5.9063,-2.961 -10.332,-5.371 -13.2813,-7.25 -4.832,-2.68 -9.5312,-6.031 -14.0898,-10.063 -4.5625,-4.019 -7.9102,-7.918 -10.0586,-11.668 -1.0742,-2.152 -1.875,-4.16 -2.4141,-6.031 -0.5351,-1.348 -0.8007,-3.5 -0.8007,-6.449 0,-1.871 0.4023,-4.02 1.2031,-6.43 0.2617,-0.539 0.5351,-1.14 0.8086,-1.82 0.2656,-0.66 0.4023,-1.141 0.4023,-1.399 v -0.402 h 0.3985 v -0.398 -0.403 h 0.4023 v -0.418 l 0.3984,-0.8 z m 177.8825,103.418 3.223,-15.687 c -3.496,-0.543 -14.895,-1.813 -34.211,-3.821 -19.316,-2.011 -31.258,-3.562 -35.82,-4.633 -1.074,-0.539 -2.149,-0.796 -3.211,-0.796 2.137,-107.86 -11.418,-161.114 -40.656,-159.782 -5.3715,0.551 -11.4067,2.032 -18.1059,4.442 l -1.6094,0.797 c -5.3711,1.882 -8.7226,3.222 -10.0586,4.023 -7.5195,3.758 -13.6836,7.52 -18.5156,11.27 -5.6367,4.027 -11.0078,8.859 -16.0937,14.488 -4.2969,4.832 -8.7227,10.34 -13.2813,16.5 -3.2227,4.832 -6.7109,10.988 -10.4609,18.512 l -0.4102,1.218 -0.3984,0.801 v 0.399 l -0.4024,0.398 -0.3984,0.812 -0.4024,0.801 v 0.399 0.41 c -1.082,1.859 -1.746,3.75 -2.0195,5.629 -1.0742,3.48 -1.6015,7.652 -1.6015,12.472 0,5.098 0.5273,9.391 1.6015,12.879 1.0742,3.75 2.8203,7.508 5.2344,11.27 2.1484,3.75 4.5586,6.98 7.2461,9.66 1.6094,1.871 4.2851,4.43 8.0469,7.648 3.7578,2.954 9.6562,6.84 17.7031,11.672 5.3711,2.668 11.5351,5.629 18.5156,8.848 2.9492,1.07 4.8242,1.742 5.6367,2.012 0.8008,46.14 -0.1367,86.789 -2.8242,121.941 -3.7578,-0.269 -15.6914,-1.211 -35.8086,-2.82 -9.1211,-0.801 -16.5742,0.808 -22.3359,4.828 -5.76956,4.031 -9.46096,9.262 -11.07424,15.699 -1.60157,6.434 -2.546879,12.942 -2.8125037,19.512 -0.2617193,6.57 0,12.14 0.8007817,16.711 l 1.613282,7.23 c 2.68359,-0.801 9.46098,-0.531 20.32028,0.809 10.8711,1.34 22.4024,2.422 34.6094,3.23 12.207,0.801 24.5508,0.461 37.0313,-1.011 12.4723,-1.481 23.0003,-6.18 31.5823,-14.09 8.586,-7.91 13.281,-19.11 14.093,-33.598 v -4.031 c 0.262,-7.508 1.004,-24.621 2.207,-51.309 1.211,-26.699 2.079,-47.679 2.618,-62.972 4.832,1.062 16.972,2.41 36.425,4.023 19.442,1.609 30.782,2.668 34.004,3.207" style="fill:#111011;fill-opacity:1;fill-rule:nonzero;stroke:none" id="path88" transform="matrix(0.133333, 0, 0, -0.133333, 0, 725.546692)"/>
  <path d="m 264.895,286.59 c -5.098,1.621 -10.872,0 -17.305,-4.82 0.535,-1.079 1.609,-2.418 3.223,-4.032 2.136,-2.148 4.421,-3.758 6.835,-4.828 1.336,-1.07 2.821,-1.75 4.422,-2.012 3.223,-0.796 4.961,-1.207 5.235,-1.207 3.222,-0.8 6.437,-1.199 9.66,-1.199 -1.875,10.18 -5.899,16.227 -12.07,18.098 z m -29.786,-93.352 c 6.707,-2.16 13.817,0.594 21.329,8.242 7.507,7.641 13.281,17.911 17.304,30.79 1.074,3.218 2.149,7.511 3.223,12.878 -5.371,-0.546 -9.524,-0.668 -12.473,-0.406 -0.547,0 -1.414,0.067 -2.617,0.199 -1.211,0.129 -2.285,0.27 -3.223,0.399 -0.937,0.14 -1.804,0.34 -2.617,0.609 -1.875,0.262 -4.695,0.942 -8.445,2.012 -4.57,1.34 -9.258,3.75 -14.082,7.25 -1.613,1.059 -2.688,1.871 -3.223,2.41 -0.539,-1.351 -1.887,-4.699 -4.023,-10.062 -4.024,-12.879 -5.168,-24.618 -3.418,-35.207 1.738,-10.614 5.828,-16.981 12.265,-19.114 z m 131.2,101.801 4.824,-8.449 c -1.348,-1.07 -3.223,-2.41 -5.633,-4.02 -0.273,-0.269 -0.801,-0.601 -1.613,-1 -0.801,-0.41 -1.336,-0.75 -1.61,-1.011 l -3.613,-2.411 c -0.273,-0.277 -0.879,-0.679 -1.816,-1.207 -0.938,-0.543 -1.68,-0.949 -2.207,-1.211 -0.547,-0.269 -1.348,-0.808 -2.422,-1.609 -1.074,-0.812 -1.875,-1.34 -2.414,-1.609 -2.957,-1.352 -4.696,-2.282 -5.235,-2.821 -0.535,-0.543 -1.472,-1.14 -2.812,-1.812 -1.348,-0.668 -2.285,-1.141 -2.82,-1.399 -0.266,-0.281 -0.743,-0.609 -1.407,-1.011 -0.676,-0.41 -1.144,-0.598 -1.406,-0.598 l -1.613,-0.812 c -0.274,0 -0.535,-0.137 -0.801,-0.399 -0.273,-0.281 -0.547,-0.41 -0.809,-0.41 -1.074,-0.27 -2.148,-0.801 -3.214,-1.609 -1.083,-0.27 -2.157,-0.801 -3.223,-1.61 -2.957,-1.34 -7.645,-3.359 -14.082,-6.031 -4.031,-1.609 -8.992,-3.359 -14.891,-5.238 -0.812,-0.262 -1.953,-0.594 -3.418,-1 -1.484,-0.403 -2.492,-0.602 -3.027,-0.602 -0.801,-4.832 -2.012,-9.66 -3.613,-14.488 -6.711,-20.934 -18.118,-36.961 -34.211,-48.09 -16.102,-11.141 -32.332,-14.16 -48.7,-9.062 -16.367,5.101 -27.902,16.839 -34.601,35.218 -6.707,18.371 -6.707,38.16 0,59.364 6.699,20.918 18.105,36.949 34.199,48.089 16.106,11.129 32.336,14.149 48.703,9.047 10.996,-3.488 19.981,-10.527 26.961,-21.117 6.973,-10.609 10.996,-22.883 12.07,-36.832 h 1.211 c 6.7,1.34 11.262,2.281 13.684,2.82 2.137,0.27 6.563,1.469 13.281,3.621 1.602,0.532 2.676,0.93 3.211,1.211 1.613,0.528 2.676,0.797 3.223,0.797 l 1.613,0.813 c 0.262,0 0.527,0.058 0.801,0.199 0.262,0.129 0.535,0.199 0.809,0.199 0.265,0.262 0.734,0.539 1.406,0.813 0.664,0.258 1.133,0.398 1.406,0.398 l 6.035,2.41 c 1.613,0.539 3.352,1.211 5.235,2.012 2.14,1.078 3.75,1.738 4.824,2.008 2.148,1.082 3.625,1.742 4.433,2.019 0.266,0.262 0.871,0.602 1.809,1 0.937,0.403 1.543,0.743 1.816,1.012 l 3.614,1.211 6.043,3.207" style="fill:#111011;fill-opacity:1;fill-rule:nonzero;stroke:none" id="path90" transform="matrix(0.133333, 0, 0, -0.133333, 0, 725.546692)"/>
  <path d="m 369.121,146.551 c 2.422,-2.68 6.047,-5.641 10.871,-8.852 l 2.41,-1.211 c 9.121,-3.226 14.758,-1.34 16.907,5.633 2.148,7.25 1.816,15.09 -1.008,23.547 -2.813,8.441 -6.375,15.902 -10.664,22.332 -4.297,6.441 -10.867,15.559 -19.715,27.359 -1.348,1.621 -2.285,2.832 -2.824,3.629 -2.149,-4.57 -3.887,-9.797 -5.223,-15.699 -1.613,-7.777 -2.285,-15.16 -2.012,-22.129 0.262,-2.148 0.664,-5.64 1.2,-10.461 0.265,-0.808 0.539,-1.89 0.812,-3.23 0.262,-1.34 0.527,-2.547 0.801,-3.617 0.262,-1.071 0.535,-2.012 0.801,-2.813 1.347,-5.098 3.886,-9.918 7.644,-14.488 z m 123.957,121.531 1.61,-9.66 c -1.61,0.808 -3.895,1.937 -6.844,3.43 -2.949,1.457 -8.516,3.679 -16.699,6.64 -8.184,2.949 -15.899,5.028 -23.145,6.227 -7.238,1.211 -15.09,1.273 -23.535,0.203 -8.457,-1.07 -15.363,-4.024 -20.735,-8.852 2.95,-4.558 7.18,-10.8 12.688,-18.711 5.488,-7.91 9.922,-14.359 13.27,-19.32 3.359,-4.969 7.382,-11.129 12.082,-18.508 4.687,-7.383 8.25,-13.551 10.664,-18.511 2.41,-4.969 4.89,-10.61 7.441,-16.911 2.547,-6.3 3.887,-11.8 4.023,-16.488 0.137,-4.699 -0.265,-9.461 -1.203,-14.289 -0.945,-4.832 -3.093,-9.262 -6.445,-13.281 -3.359,-4.02 -7.715,-7.641 -13.074,-10.871 -19.055,-9.121 -35.149,-12.2 -48.293,-9.258 h -0.399 c -0.812,0 -1.347,0.137 -1.613,0.398 -3.496,0.551 -6.844,1.489 -10.058,2.828 -3.758,1.071 -8.458,3.364 -14.09,6.84 -6.172,4.032 -11.27,8.59 -15.293,13.684 -5.098,6.437 -8.848,13.687 -11.27,21.726 0,0.543 -0.07,1.153 -0.195,1.813 -0.137,0.668 -0.207,1.141 -0.207,1.418 l -0.399,0.801 v 0.8 l -0.402,1.61 -0.398,1.211 v 1.609 c -0.274,0.801 -0.411,1.879 -0.411,3.211 -0.8,4.027 -1.203,8.32 -1.203,12.879 0,9.66 1.067,18.648 3.215,26.969 2.422,8.312 5.899,16.769 10.469,25.351 0,0.262 0.125,0.399 0.398,0.399 l 0.403,0.812 c -4.289,5.899 -8.723,12.328 -13.282,19.321 -7.511,11.796 -12.675,22.73 -15.488,32.789 -2.824,10.07 -3.488,18.449 -2.012,25.16 1.465,6.687 4.024,12.738 7.645,18.097 3.625,5.372 7.98,9.59 13.078,12.692 5.098,3.07 9.863,5.691 14.285,7.84 4.426,2.148 8.254,3.48 11.465,4.019 l 4.836,1.211 c -6.984,-16.898 0.137,-42.39 21.328,-76.461 8.309,4.563 17.363,7.301 27.168,8.25 9.785,0.942 18.641,0.473 26.551,-1.41 7.922,-1.879 15.293,-4.168 22.141,-6.84 6.843,-2.687 12.136,-5.238 15.898,-7.648 l 6.035,-3.219" style="fill:#111011;fill-opacity:1;fill-rule:nonzero;stroke:none" id="path92" transform="matrix(0.133333, 0, 0, -0.133333, 0, 725.546692)"/>
  <path d="m 561.086,278.148 c -1.613,0 -3.098,0 -4.434,0 -1.347,0 -3.418,-0.738 -6.242,-2.218 -2.812,-1.469 -5.293,-3.551 -7.441,-6.239 -2.149,-2.691 -4.422,-7.043 -6.836,-13.082 -2.422,-6.027 -4.297,-13.211 -5.633,-21.527 19.844,-1.344 33.262,5.098 40.242,19.316 1.067,2.422 1.867,5.301 2.414,8.653 0.535,3.359 -0.136,6.711 -2.011,10.07 -1.887,3.348 -5.235,5.027 -10.059,5.027 z m 83.301,1.614 8.047,-6.453 c -22.278,-41.59 -50.305,-73.379 -84.114,-95.368 -28.711,-18.793 -52.988,-25.089 -72.84,-18.91 -20.656,6.699 -29.777,26.149 -27.363,58.348 0.262,4.281 0.809,8.723 1.61,13.281 2.414,13.68 6.777,25.488 13.078,35.41 6.308,9.922 13.281,17.371 20.925,22.34 7.649,4.961 15.833,8.578 24.551,10.86 8.711,2.281 16.426,3.351 23.145,3.218 6.699,-0.129 12.336,-0.879 16.894,-2.207 5.899,-1.883 10.735,-5.172 14.493,-9.859 3.75,-4.692 5.898,-10.813 6.437,-18.313 0.535,-7.519 -2.148,-15.961 -8.047,-25.359 -9.394,-15.289 -26.836,-22.531 -52.316,-21.73 -2.957,-26.559 2.812,-38.77 17.304,-36.622 15.821,2.411 37.961,19.043 66.399,49.903 16.367,17.969 26.961,31.801 31.797,41.461" style="fill:#111011;fill-opacity:1;fill-rule:nonzero;stroke:none" id="path94" transform="matrix(0.133333, 0, 0, -0.133333, 0, 725.546692)"/>
  <path d="m 690.664,185.59 -0.398,0.402 v -0.812 c 17.968,12.082 32.449,31.519 43.457,58.359 9.121,21.992 11.394,37.02 6.843,45.07 -1.074,2.411 -2.957,3.762 -5.632,4.02 -7.246,0.539 -14.563,-8.117 -21.934,-25.957 -7.383,-17.84 -12.949,-35.883 -16.699,-54.121 z m 56.738,121.129 c 14.493,-1.879 20.93,-12.617 19.317,-32.199 -1.875,-21.719 -11.942,-44.54 -30.176,-68.411 -13.953,-18.25 -29.648,-32.058 -47.09,-41.449 -2.957,-72.4412 -0.937,-110.8006 6.035,-115.1014 -5.371,-18.7773 -18.242,-28.5664 -38.633,-29.3672 -8.582,-0.2695 -15.488,4.7578 -20.722,15.0899 -5.235,10.3281 -8.594,23.9375 -10.059,40.8476 -1.484,16.8906 -2.215,35.8711 -2.215,56.9411 0,21.059 0.938,42.309 2.813,63.782 1.875,21.457 3.426,42.058 4.629,61.777 1.211,19.711 2.273,36.41 3.222,50.101 0.938,13.68 0.606,23.34 -1.007,28.981 1.066,0.258 2.414,0.527 4.023,0.801 1.613,0.258 4.766,0.468 9.465,0.597 4.687,0.129 9.109,-0.058 13.269,-0.597 4.161,-0.543 8.723,-1.883 13.692,-4.024 4.961,-2.148 9.18,-5.027 12.676,-8.656 3.476,-3.621 6.23,-8.793 8.242,-15.504 2.012,-6.699 2.617,-14.609 1.816,-23.738 0,-1.34 -0.203,-4.891 -0.605,-10.66 -0.399,-5.77 -0.742,-10.399 -1.004,-13.891 15.293,32.461 32.723,47.359 52.312,44.68" style="fill:#111011;fill-opacity:1;fill-rule:nonzero;stroke:none" id="path96" transform="matrix(0.133333, 0, 0, -0.133333, 0, 725.546692)"/>
  <path d="m 991.68,272.91 7.648,-2.41 c -0.812,-2.68 -2.082,-6.18 -3.828,-10.469 -1.75,-4.293 -5.227,-11.863 -10.461,-22.73 -5.234,-10.871 -10.469,-20.321 -15.691,-28.371 -5.235,-8.051 -11.477,-15.098 -18.723,-21.129 -7.234,-6.039 -14.219,-8.391 -20.918,-7.051 -7.793,1.621 -13.953,9.391 -18.516,23.34 -4.57,13.949 -7.519,28.84 -8.855,44.672 -1.34,15.828 -3.762,30.187 -7.238,43.07 -3.496,12.879 -8.192,19.316 -14.09,19.316 -4.824,0 -8.586,-5.378 -11.27,-16.109 -2.687,-10.73 -4.961,-23.668 -6.836,-38.828 -1.886,-15.16 -4.425,-30.32 -7.648,-45.473 -3.223,-15.156 -8.992,-27.968 -17.305,-38.429 -8.32,-10.469 -19.051,-15.559 -32.195,-15.297 -8.586,-0.262 -15.488,4.758 -20.723,15.09 -5.234,10.32 -8.593,23.949 -10.058,40.847 -1.485,16.91 -2.219,35.883 -2.219,56.949 0,21.051 0.937,42.313 2.812,63.782 1.875,21.461 3.43,42.058 4.629,61.769 1.211,19.723 2.278,36.43 3.223,50.11 0.937,13.679 0.605,23.339 -1.004,28.972 1.875,0.539 4.356,1.008 7.441,1.41 3.086,0.399 8.458,0.258 16.102,-0.402 7.648,-0.668 14.289,-2.41 19.922,-5.23 5.637,-2.817 10.598,-8.188 14.883,-16.098 4.289,-7.922 5.898,-18.051 4.836,-30.391 -4.571,-59.558 -7.383,-109.449 -8.457,-149.699 10.195,48.02 25.086,72.039 44.675,72.039 10.461,0 18.575,-7.32 24.348,-21.941 5.762,-14.629 9.188,-30.778 10.262,-48.489 1.066,-17.71 2.883,-34.339 5.429,-49.898 2.551,-15.562 6.368,-24.023 11.465,-25.363 6.172,-1.598 14.094,3.621 23.75,15.691 9.66,12.078 17.844,24.559 24.551,37.442 l 10.059,19.308" style="fill:#111011;fill-opacity:1;fill-rule:nonzero;stroke:none" id="path98" transform="matrix(0.133333, 0, 0, -0.133333, 0, 725.546692)"/>
  <path d="m 1314.42,396.461 c -11.81,-156.68 -11.67,-238.641 0.41,-245.891 -2.42,-6.441 -8.66,-12.129 -18.72,-17.101 -10.06,-4.957 -18.98,-7.578 -26.76,-7.848 -9.4,-0.269 -16.98,4.43 -22.74,14.09 -5.77,9.66 -9.6,23.527 -11.47,41.648 -1.88,18.11 -2.76,36.481 -2.61,55.141 0.13,18.641 1.01,40.301 2.61,64.988 h -1.6 -2.83 -3.22 c -1.34,0 -2.41,0.121 -3.21,0.403 h -3.62 c -0.28,0 -0.88,0.058 -1.82,0.199 -0.94,0.129 -1.68,0.199 -2.21,0.199 -1.61,0 -2.82,0.133 -3.62,0.402 -1.89,0 -4.7,0.27 -8.46,0.809 -0.8,0.262 -2.15,0.469 -4.02,0.602 -1.88,0.128 -3.21,0.199 -4.03,0.199 l -30.58,4.429 c -2.15,0.532 -3.61,0.801 -4.42,0.801 -4.3,-89.883 -2.02,-137.5 6.84,-142.859 -2.16,-6.442 -8.25,-12.141 -18.31,-17.113 -10.07,-4.957 -18.98,-7.571 -26.77,-7.84 -9.66,-0.258 -17.44,4.89 -23.34,15.492 -5.91,10.598 -9.66,24.48 -11.27,41.66 -1.61,17.16 -2.41,36.617 -2.41,58.348 0,21.73 1.01,43.66 3.02,65.801 2.01,22.128 3.68,43.32 5.03,63.582 1.34,20.257 2.55,37.558 3.62,51.918 1.08,14.339 0.67,24.742 -1.21,31.179 1.07,0.262 2.55,0.539 4.43,0.813 1.88,0.258 5.43,0.527 10.67,0.797 5.23,0.261 10.19,0.07 14.89,-0.598 4.69,-0.68 9.85,-2.211 15.49,-4.633 5.63,-2.418 10.39,-5.637 14.29,-9.656 3.88,-4.024 6.97,-9.801 9.25,-17.313 2.28,-7.507 3.02,-16.359 2.21,-26.55 -2.15,-29.778 -3.89,-57.418 -5.22,-82.911 0.26,0 1.2,-0.187 2.81,-0.589 1.61,-0.411 2.95,-0.75 4.02,-1.008 l 29.39,-5.641 c 3.75,-0.539 6.43,-0.941 8.04,-1.211 l 8.05,-1.211 c 0.54,-0.258 1.21,-0.398 2.01,-0.398 0.8,0 1.34,-0.129 1.61,-0.399 1.61,0 2.82,-0.132 3.63,-0.402 1.33,0 2.41,-0.129 3.21,-0.398 h 2.82 c 0.27,0 0.8,-0.071 1.61,-0.2 0.8,-0.14 1.34,-0.211 1.61,-0.211 h 2.42 2.41 c 0.8,8.86 1.81,20.731 3.02,35.622 1.21,14.886 2.14,26.488 2.82,34.808 0.66,8.309 1.27,17.442 1.81,27.36 0.53,9.929 0.73,17.91 0.6,23.949 -0.14,6.031 -0.6,10.66 -1.41,13.89 1.07,0.262 2.54,0.532 4.43,0.801 1.87,0.262 5.43,0.531 10.66,0.809 5.24,0.261 10.2,0.062 14.89,-0.61 4.69,-0.668 9.86,-2.211 15.49,-4.629 5.64,-2.41 10.4,-5.628 14.29,-9.66 3.89,-4.019 6.97,-9.789 9.26,-17.3 2.27,-7.508 3.02,-16.372 2.21,-26.559" style="fill:#111011;fill-opacity:1;fill-rule:nonzero;stroke:none" id="path100" transform="matrix(0.133333, 0, 0, -0.133333, 0, 725.546692)"/>
  <path d="m 1370.75,248.359 c -0.53,-13.679 5.24,-18.5 17.31,-14.48 9.66,3.48 19.58,10.723 29.78,21.73 1.07,10.192 2.01,17.84 2.82,22.942 -4.29,0 -8.66,-0.34 -13.08,-1.012 -4.42,-0.668 -9.66,-1.879 -15.69,-3.617 -6.04,-1.75 -11.01,-4.832 -14.9,-9.262 -3.88,-4.422 -5.97,-9.851 -6.24,-16.301 z m 185.93,39.45 h 13.28 c -1.07,-3.758 -2.68,-8.661 -4.83,-14.688 -2.15,-6.051 -6.97,-16.781 -14.48,-32.199 -7.52,-15.434 -15.57,-29.113 -24.15,-41.043 -8.59,-11.949 -20,-22.75 -34.2,-32.41 -14.23,-9.649 -28.99,-14.481 -44.27,-14.481 -9.93,0 -17.65,3.563 -23.15,10.672 -5.49,7.09 -8.79,15.621 -9.86,25.539 -1.07,9.93 -1.2,22.141 -0.4,36.633 -18.78,-18.25 -38.63,-25.621 -59.56,-22.141 -13.14,2.418 -21.6,8.989 -25.35,19.719 -3.75,10.731 -2.88,22.27 2.62,34.61 5.49,12.339 14.01,22.14 25.55,29.39 19.04,11.789 40.65,15.692 64.79,11.66 0.81,12.34 0.53,21.328 -0.8,26.969 1.06,0.262 2.41,0.531 4.02,0.801 1.61,0.262 4.76,0.469 9.45,0.601 4.7,0.129 9.12,-0.062 13.28,-0.601 4.16,-0.539 8.72,-1.891 13.69,-4.02 4.96,-2.152 9.19,-5.031 12.68,-8.66 3.48,-3.621 6.23,-8.789 8.24,-15.5 2.02,-6.699 2.62,-14.609 1.82,-23.738 -4.02,-55.813 -0.95,-83.844 9.26,-84.113 4.02,-0.258 8.98,2.953 14.88,9.66 10.73,12.082 20.06,25.422 27.97,40.051 7.91,14.621 13.21,26.218 15.9,34.8 l 3.62,12.489" style="fill:#111011;fill-opacity:1;fill-rule:nonzero;stroke:none" id="path102" transform="matrix(0.133333, 0, 0, -0.133333, 0, 725.546692)"/>
  <path d="m 1718.86,69.2813 c 5.36,16.6406 7.98,34.3477 7.84,53.1287 -0.14,18.77 -1.41,33.129 -3.82,43.051 -2.41,9.918 -5.1,19.039 -8.04,27.359 -0.55,-54.449 0.8,-95.6286 4.02,-123.5387 z m 69.22,216.5077 8.04,-4.828 -69.21,-87.723 c 6.97,-29.25 11.26,-55.539 12.88,-78.879 1.6,-23.3473 1.27,-41.3902 -1.01,-54.1285 -2.28,-12.75 -5.84,-23.6094 -10.67,-32.6016 -4.83,-8.9805 -8.99,-14.9492 -12.47,-17.91015 -3.49,-2.94922 -6.71,-4.95703 -9.66,-6.03906 -4.03,-1.8711 -8.86,-3.070315 -14.49,-3.6210962 -10.46,-0.7968748 -18.85,6.3124962 -25.15,21.3320062 -6.31,15.0313 -10.26,34.0782 -11.88,57.1485 -1.61,23.0699 -2.75,48.1599 -3.41,75.2499 -0.68,27.102 -0.47,52.32 0.6,75.66 -14.49,-41.051 -36.62,-61.039 -66.4,-59.961 -12.08,0.532 -21.13,5.492 -27.16,14.891 -6.05,9.383 -9.26,20.98 -9.66,34.812 -0.41,13.809 0.06,27.559 1.41,41.25 1.33,13.68 2.88,26.418 4.62,38.219 1.74,11.809 2.21,19.059 1.41,21.738 0.8,0.27 1.94,0.461 3.42,0.602 1.47,0.141 4.29,0.27 8.46,0.41 4.15,0.129 8.04,0 11.67,-0.41 3.62,-0.398 7.57,-1.34 11.86,-2.809 4.3,-1.48 7.91,-3.492 10.87,-6.043 2.95,-2.558 5.17,-6.168 6.64,-10.867 1.47,-4.703 1.81,-10.261 1.01,-16.699 -6.99,-49.094 -7.39,-76.203 -1.21,-81.293 3.75,-2.961 9.92,0 18.51,8.852 15.02,15.289 22.54,40.918 22.54,76.871 l -0.81,16.097 c 1.07,0.262 2.42,0.61 4.02,1.012 1.61,0.399 4.7,0.797 9.26,1.199 4.56,0.41 8.98,0.469 13.28,0.2 4.29,-0.27 8.99,-1.399 14.08,-3.418 5.1,-2.012 9.47,-4.903 13.09,-8.653 3.62,-3.758 6.7,-9.199 9.26,-16.301 2.54,-7.117 3.68,-15.628 3.42,-25.546 0,-4.84 -0.07,-13.422 -0.21,-25.762 -0.14,-12.34 -0.19,-22 -0.19,-28.969 13.4,14.481 26.22,28.969 38.42,43.457 12.21,14.492 21.14,25.352 26.76,32.594 l 8.06,10.867" style="fill:#111011;fill-opacity:1;fill-rule:nonzero;stroke:none" id="path104" transform="matrix(0.133333, 0, 0, -0.133333, 0, 725.546692)"/>
  <path d="m 1799.75,256.012 c -0.81,-10.203 2.67,-15.16 10.46,-14.891 9.12,0.527 18.64,7.109 28.57,19.719 5.09,6.699 9.26,14.219 12.47,22.531 -32.73,1.078 -49.9,-8.051 -51.5,-27.359 z m 171.83,19.718 9.66,-6.839 c -12.88,-34.61 -30.05,-59.02 -51.51,-73.243 -16.64,-10.738 -35.41,-15.566 -56.34,-14.488 -9.93,0.531 -17.37,4.02 -22.33,10.461 -4.97,6.438 -7.46,14.289 -7.46,23.539 0,9.258 0.68,19.379 2.02,30.391 -5.63,-10.211 -14.55,-18.981 -26.76,-26.36 -12.21,-7.382 -24.48,-9.601 -36.83,-6.64 -12.87,2.949 -20.92,9.918 -24.14,20.918 -3.22,11.011 -1.75,22.543 4.43,34.613 6.17,12.078 15.15,21.336 26.96,27.77 19.85,10.718 41.58,13.277 65.19,7.648 2.68,20.648 4.76,45.27 6.24,73.852 1.47,28.57 2.21,50.769 2.21,66.597 0,15.832 -0.14,26.692 -0.4,32.602 1.07,0 2.41,0.051 4.02,0.187 1.62,0.141 4.84,0 9.66,-0.398 4.84,-0.399 9.4,-1.199 13.68,-2.41 4.3,-1.211 9,-3.219 14.1,-6.039 5.08,-2.821 9.31,-6.243 12.67,-10.262 3.35,-4.02 5.9,-9.598 7.65,-16.699 1.74,-7.11 2.07,-15.098 1,-23.942 -0.81,-7.25 -2.41,-19.59 -4.83,-37.027 -10.46,-72.172 -14.22,-118.18 -11.27,-138.031 2.42,-17.442 8.86,-22.68 19.33,-15.7 9.65,6.442 18.03,13.739 25.14,21.938 7.11,8.172 11.88,14.812 14.29,19.914 l 3.62,7.648" style="fill:#111011;fill-opacity:1;fill-rule:nonzero;stroke:none" id="path106" transform="matrix(0.133333, 0, 0, -0.133333, 0, 725.546692)"/>
  <path d="m 2122.9,284.18 8.45,-4.02 c -11.81,-23.078 -20.12,-38.769 -24.95,-47.09 -4.03,-7.781 -8.19,-14.218 -12.47,-19.32 -3.76,-4.289 -6.85,-7.379 -9.26,-9.262 -0.27,-0.258 -0.74,-0.59 -1.41,-0.996 -0.67,-0.402 -1.14,-0.742 -1.4,-1.012 -0.28,-0.261 -0.81,-0.531 -1.61,-0.8 -0.82,-0.27 -1.35,-0.532 -1.62,-0.801 -0.27,0 -0.94,-0.27 -2.01,-0.809 h -1.21 l -0.4,-0.398 h -1.61 -0.4 -0.4 -0.4 -1.21 c -1.88,0 -3.49,0.539 -4.83,1.609 -1.88,0.801 -3.22,2.141 -4.03,4.028 -0.8,1.062 -1.88,4.023 -3.21,8.839 -0.55,3.762 -0.81,9 -0.81,15.711 0.26,6.7 0.93,16.493 2.01,29.371 0.54,6.438 0.81,11.129 0.81,14.079 0,5.902 -0.14,9.929 -0.4,12.07 -0.28,1.082 -0.95,1.883 -2.01,2.43 -0.81,0.523 -1.89,0.121 -3.23,-1.219 l -2.41,-2.41 c -1.88,-2.41 -3.76,-5.629 -5.63,-9.66 -1.35,-2.411 -3.09,-6.028 -5.24,-10.86 -4.02,-10.461 -6.58,-17.449 -7.64,-20.93 -3.49,-10.199 -6.71,-21.07 -9.66,-32.601 l -3.62,-13.277 c -5.38,-20.922 -17.05,-31.661 -35.01,-32.192 -11.01,-0.269 -18.99,3.961 -23.95,12.68 -4.97,8.711 -7.11,19.851 -6.44,33.398 0.67,13.543 1.87,28.231 3.62,44.071 1.75,15.82 3.62,30.57 5.63,44.261 2.01,13.692 1.95,25.219 -0.19,34.61 0.8,0.269 2.01,0.531 3.62,0.808 1.61,0.262 4.56,0.532 8.85,0.801 4.28,0.262 8.39,0.063 12.27,-0.598 3.89,-0.671 8.12,-2.281 12.68,-4.832 4.56,-2.55 8.46,-6.039 11.67,-10.461 3.22,-4.437 5.7,-10.668 7.45,-18.718 1.74,-8.051 2.34,-17.442 1.81,-28.168 V 270.5 c 13.94,24.141 26.29,36.07 37.02,35.809 7.51,-0.258 11.8,-6.227 12.88,-17.899 1.07,-11.68 0.54,-22.48 -1.61,-32.398 0,-2.153 -0.27,-5.102 -0.8,-8.852 v -2.418 c -0.55,-3.211 -1.08,-8.32 -1.61,-15.293 0,-6.179 0.13,-10.461 0.4,-12.879 0.53,-2.152 0.93,-3.488 1.21,-4.019 l 0.4,-0.41 0.4,-0.403 h 0.4 0.41 l 1.2,0.403 h 0.81 0.4 c 0,0.269 0.26,0.41 0.8,0.41 0.26,0.269 0.54,0.398 0.81,0.398 0.53,0.27 0.94,0.403 1.2,0.403 l 0.81,0.796 c 0.54,0.27 0.94,0.543 1.2,0.813 0.82,0.539 3.23,2.82 7.25,6.84 4.56,5.371 8.58,11.269 12.07,17.711 l 24.15,44.668" style="fill:#111011;fill-opacity:1;fill-rule:nonzero;stroke:none" id="path108" transform="matrix(0.133333, 0, 0, -0.133333, 0, 725.546692)"/>
</svg>
