<?xml version="1.0" encoding="utf-8"?>
<svg version="1.1" id="svg2" width="4000" height="4000" viewBox="520.892 214.884 2856.438 3225.395" xmlns="http://www.w3.org/2000/svg">
  <g id="g8" transform="matrix(1.3333333,0,0,-1.3333333,0,4000)">
    <g id="g10" transform="scale(0.1)">
      <path d="m 23809.8,18980.8 c -43.5,105.2 -146.7,160.8 -257.7,135.4 -39,-9 -78.4,-22.6 -113,-42.3 -83.6,-47.6 -166.2,-97.4 -246.1,-150.8 -211.5,-141.3 -420.4,-286.3 -632.3,-427 -102.6,-68.2 -209.2,-130.3 -314.7,-194.2 -20.6,-12.5 -44,-20.5 -69.8,-32.2 -13.6,58.4 -7,110.3 2.4,160.4 24.9,132.4 52.4,264.4 81.4,396 40.9,186.2 86.8,371.4 124.5,558.2 12.4,61.2 13.5,127.1 6.1,189.2 -12.7,106.3 -95.3,175.5 -202,178.2 -34.2,0.9 -69.6,-2.6 -102.8,-10.9 -44.7,-11.1 -88.8,-26.2 -131.3,-44 -117.3,-48.9 -233.6,-100.4 -350.6,-150.1 -25.7,-11 -52.9,-18.8 -87.8,-31 1.9,28.3 1.2,47.2 4.7,65.3 14.8,75.6 25,152.6 47.3,226 89.8,294.8 185.2,587.8 275.1,882.6 102.3,335.2 203.1,670.9 300.1,1007.7 39.5,137.1 61.9,278.4 61.4,422 -0.2,79.4 -9.3,157.8 -40.5,232 -45.7,108.8 -127.2,173.1 -244.4,186.1 -155.9,17.4 -292.5,-31.7 -412.2,-130.7 -11.7,-9.6 -21.8,-21.9 -30.3,-34.5 -16.3,-24 -22.6,-50.7 -3.4,-75.2 14.9,-19 14.2,-38.1 12,-59.7 -19.1,-187.8 -39.1,-375.4 -56.1,-563.4 -18.2,-199.5 -35.3,-399.1 -49.5,-598.9 -19.9,-278.6 -37,-557.4 -54.6,-836.1 -16.8,-267.2 -26.7,-535 -50.7,-801.6 -28.8,-320.2 -70.6,-639.3 -104.5,-959.1 -24.5,-231.9 -39.5,-464.5 -41,-697.8 -1.2,-175.6 39.1,-336 158.3,-470.6 5.1,-5.7 9.1,-12.4 14,-18.3 38.1,-46.6 56.6,-100.5 58.4,-160 1.6,-55.8 2.9,-111.7 1.7,-167.5 -6.7,-302.8 -48.3,-602.7 -76.5,-903.8 -4.1,-44.1 -19.6,-80.6 -45.8,-115.6 -106.1,-142.4 -204.2,-290.4 -278.3,-452 -68.1,-148.6 -128.7,-300.8 -192,-451.6 -7.4,-17.6 -12.6,-36.5 -16.4,-55.3 -12.7,-62.3 4.2,-114.1 56.4,-152.8 10.2,-7.6 19.4,-16.5 29.8,-25.4 -13,-21.1 -24,-39.1 -35.1,-57.1 -165.4,-268.9 -298.2,-552.5 -383.5,-857 -17.1,-60.8 -28.7,-124.3 -32.8,-187.2 -7.3,-112.5 45.5,-185.9 151.4,-225.8 17,-6.4 33.8,-13.6 54.1,-21.9 -12.8,-25.4 -22,-44.3 -31.7,-62.9 -122.8,-236.1 -234.7,-477.1 -326.6,-727 -27.1,-73.8 -49,-150.1 -66.8,-226.8 -26.7,-115.7 -16.3,-226.3 63.9,-322 2.2,-2.6 2.2,-7 4.6,-15.1 -51.6,-42.8 -104.8,-86.7 -157.8,-130.8 -188.6,-156.5 -384.9,-301.8 -598,-424 -126.2,-72.3 -257,-131.7 -400.4,-160.2 -9.4,-1.9 -18.8,-4.7 -27.6,-8.6 -48.8,-21.4 -57.5,-72.6 -16.2,-105.6 16,-12.8 36.9,-24.6 56.6,-26.5 51.3,-5.1 104.3,-12.1 154.4,-4.3 79.2,12.4 156.5,36.2 238.4,56.1 42.7,-63.6 105.2,-62.9 171.5,-36.4 48.2,19.3 95.6,41 141.8,64.6 169.4,86.1 319.4,200.7 466.2,319.9 76.9,62.4 143.4,133.8 195.7,218.4 11.7,19 26.6,35.9 40.3,54 37.3,-16.4 68.3,-32.1 100.8,-43.6 32.4,-11.5 65.8,-23 99.7,-26.9 51.4,-5.9 91.1,19 108.3,59.7 16.7,39.6 6.4,76.2 -34.7,112.4 -28.9,25.4 -60.1,48.2 -89.5,73.1 -33,27.9 -62.4,61.8 -62.4,105.7 -0.1,46.6 -14.7,86.3 -33.3,126.8 -18.4,40.2 -34.1,81.7 -50.2,123 -23,59.4 -27.8,120.1 -7.8,181.1 35.2,107.9 66.7,217.5 109,322.6 38.5,95.6 78.2,191 145.5,273.7 42.7,52.6 67.4,119.7 100.1,180 10.4,0 18.3,1.3 25.6,-0.2 73.2,-14.8 146.1,-5.3 218.7,3.6 24,3 49.8,11.4 69.5,24.9 53.4,36.9 46,109 -13.7,134.3 -35.3,14.9 -73.5,22.6 -110.3,34.1 -13.7,4.4 -27,10.4 -41.8,16.2 4.1,11.6 6.6,18.7 9,25.8 21.7,65.1 4.8,114.3 -55.8,145.4 -28.5,14.7 -61,23.4 -92.8,29.3 -58.4,10.8 -77.1,28.9 -88.2,85.6 -7.6,38.8 -6.4,73.7 8.9,111.6 22.4,55.5 6.9,84 -47.6,109.9 -5,2.4 -9.4,5.8 -14.5,9 1.5,6.3 1.8,12.3 4.2,17.2 103.6,209.4 222.7,409.4 358.8,599.4 16,22.3 34.4,26.4 59.3,25.1 54.6,-2.9 100.6,15.1 140,55.4 57.1,58.5 60.9,103.7 4,164 -18.9,19.9 -28,39.1 -25.1,66.5 3.5,33.8 -6.4,64.5 -27.9,91.6 -6.9,8.6 -14.4,19.6 -14.8,29.7 -1.4,35.4 -26.8,44 -53.3,51.3 -14.1,3.8 -29.1,4.6 -51.6,8 45.1,79.9 87.2,154.4 131,232 13.9,-7.7 23.5,-13.3 33.4,-18.5 49.1,-25.4 98.5,-22.6 142.2,8.9 29.1,20.9 56.2,47.7 76.5,77.1 30.5,44.2 57.5,91.5 80.5,140.1 127.5,270 251.4,541.6 357.3,821.1 19.2,50.7 23.5,98.8 13.4,152 -29.5,154.9 -30.1,310.1 6.1,464.5 15.4,65.7 39.8,127.6 100.6,162.3 81.8,46.7 164.5,93.8 251.6,128.7 95,38.1 188.4,24.5 270.6,-44 14.5,-12.1 37.8,-19.5 56.9,-19.3 65.4,0.7 130.9,4.3 196.2,9.5 122.1,9.8 232.2,52.4 329.8,126.7 21.5,16.3 42.2,34.2 65.5,47.4 13.5,7.7 32.2,12.3 47.4,10 67.1,-9.9 101.6,2.3 134.6,60.6 23.7,41.7 43.6,85.9 61.2,130.6 52,132.8 101.3,266.5 152.8,399.4 68.5,176.6 114,359.8 157.5,543.5 10.6,44.7 15.3,91.1 19.6,137.1 5.2,56.2 -0.7,111.8 -22.5,164.5" style="fill:#b11d23;fill-opacity:1;fill-rule:nonzero;stroke:none" id="path46"/>
      <path d="m 15465.9,8068.9 c 84.9,8.4 141.1,55.4 146.2,122 5.1,66.9 -44.7,119.9 -130.7,136.1 -33.9,6.4 -68.6,10.4 -103.1,11.9 -105.2,4.8 -205.7,25.1 -299.2,76.6 -43.7,24.1 -90.7,42.4 -135.9,63.8 -435.1,206.4 -867.7,416.6 -1272.7,680.5 -421.5,274.7 -796,601.1 -1119.1,985.3 -386.2,459.1 -703.2,964.4 -975.7,1497.8 -112.9,221.2 -220.5,445.3 -323.9,671.2 -85.8,187.1 -169.8,375.7 -221.3,576.3 -5.2,20.4 -13.1,40.4 -22.3,59.4 -48.9,100.5 -149.4,145.6 -255.9,110.9 -37.8,-12.4 -76.2,-30.7 -106.6,-55.7 -50.4,-41.2 -96.3,-88.4 -140.8,-136.1 -55.1,-59.2 -108.3,-120.2 -159.6,-182.7 -84.2,-102.7 -167.9,-205.8 -248.4,-311.4 -71.1,-93.4 -133.83,-193.4 -206.68,-285.4 -108.09,-136.5 -186.79,-285.9 -226.99,-461.6 -21.04,-1.2 -43.59,-2.8 -66.17,-3.8 -64.59,-2.9 -125.96,-18.3 -181.76,-51 -21.21,-12.4 -41.14,-28.9 -57.48,-47.3 -23.44,-26.3 -28.64,-58.7 -14.46,-91.8 14.44,-33.7 42.71,-49.1 77.96,-50.2 21,-0.7 42.58,1 63.12,5.3 92.56,19.4 183.88,9.9 275.18,-8.5 124.1,-25.1 238.25,-75.3 348.58,-135.8 215.4,-118 412,-263.3 603.2,-416.3 278.5,-222.9 543.1,-461.4 793.9,-715.1 291.5,-295 598.4,-572.5 924.9,-828.3 171.6,-134.5 351.9,-256.1 542.1,-362.8 178.1,-99.8 354.8,-202.1 533.2,-301.1 220.9,-122.6 447.3,-233.6 684.6,-321.3 237.2,-87.7 480.3,-155.5 729,-199.9 174.5,-31.2 352.5,-30.1 529.5,-32.2 5.8,-0.1 11.6,0.6 17.3,1.2" style="fill:#b11d23;fill-opacity:1;fill-rule:nonzero;stroke:none" id="path48"/>
      <path d="m 8927.79,5935.4 c -190.57,315 -444.07,575.7 -728.52,807.1 -633.94,515.6 -1349.29,843.1 -2166.64,931.7 -263.38,28.6 -527.57,30.4 -789.56,-12.3 -212.76,-34.7 -424.25,-77.6 -635.49,-120.8 -67.52,-13.8 -133.66,-37.1 -198.24,-61.8 -83.86,-32.1 -98.63,-62.3 -84.94,-155.8 -24.64,-5.1 -45.87,-7.5 -65.73,-14 -67.46,-22 -135.21,-43.6 -201.27,-69.4 -30.53,-11.9 -58.38,-34.7 -64.59,-69.3 -3.32,-18.5 1.74,-42.5 12.11,-57.9 5.77,-8.5 31.36,-9.2 46,-5.5 131.81,33.4 265.51,47.1 401.06,39.6 303.4,-16.7 600.86,-69.9 891.02,-158.9 1270.31,-389.6 2343.11,-1091.4 3243.52,-2062.6 178.05,-192 353.48,-386.9 505.54,-601.3 26.32,-37.2 59.39,-72.1 96.14,-98.7 74.52,-53.9 165.16,-26.1 199.43,59.6 13.29,33.2 21.56,71.1 21.04,106.6 -1.27,86.5 -2.57,173.9 -15.26,259.2 -68.32,459.3 -225.66,887.8 -465.62,1284.5" style="fill:#b11d23;fill-opacity:1;fill-rule:nonzero;stroke:none" id="path50"/>
      <path d="m 7862.48,17752.4 c 219.13,-224.3 469.65,-411.1 750.91,-552.8 227.31,-114.4 460.75,-215.4 703.47,-293.1 204.31,-65.4 412.61,-111.9 653.2,-122.5 97.84,-10.8 194.74,37.4 262.84,137.4 54,79.3 104.8,161.6 148.3,247.1 91.6,180.3 176.8,363.9 266.3,545.3 21.9,44.6 29.2,89.9 31.2,139 4.9,128.8 8.2,258.3 23.9,386 17.5,143 46.6,284.7 73.8,426.4 5.8,30.6 0.3,51 -20.3,72.3 -96.8,100.4 -237.9,91.4 -317.7,-23.7 -28.4,-40.9 -50.8,-86.3 -73.5,-130.8 -81.4,-159.6 -157,-322.3 -243.8,-478.9 -80.3,-144.6 -168.04,-285.6 -260.11,-423 -72.69,-108.6 -118.25,-117.4 -233.28,-55.2 -77.65,42 -152.33,90.8 -223.61,143.1 -294.76,216 -559.97,464.6 -806.45,734.1 -272.5,297.9 -517.41,616.8 -735.37,956.5 -13.23,20.6 -26.67,37.6 -14.18,67.8 26.95,65.1 -2.85,119 -72.14,134.7 -29.17,6.6 -52.02,16.7 -74.19,38 -38.46,36.9 -86.7,22.3 -104.4,-28.1 -4.36,-12.5 -6.88,-26.6 -6.09,-39.6 1.65,-27.4 -11.68,-45.6 -27.68,-66.4 -40.9,-53.2 -83.15,-106.5 -115.05,-165.2 -114.4,-210.3 -132.71,-436.2 -94.18,-668.3 63.3,-381.3 240.81,-706.4 508.11,-980.1" style="fill:#b11d23;fill-opacity:1;fill-rule:nonzero;stroke:none" id="path52"/>
      <path d="m 9396.52,22835.6 c 8.35,11.6 14.78,24.6 24.87,41.6 11.93,-20.8 22.05,-34.9 28.65,-50.5 43.52,-102.9 90.27,-204.5 128.44,-309.3 72.49,-199.1 139.59,-400.1 209.83,-600 10.14,-28.9 22.19,-58 38.79,-83.4 27.43,-42.1 68.73,-61.1 119.39,-54.1 51.14,7 82.71,38.6 98.81,86 5.6,16.2 7.9,33.6 10.7,50.7 36.4,224.2 64.2,450.3 110.5,672.4 155.9,748 474.4,1423.2 937.3,2029.2 385.8,504.9 814.3,971.3 1293.9,1389.4 210.7,183.7 428.9,358 658,518.4 26.6,18.6 52.9,39.4 73.7,64 30.7,36.3 30,82.3 4.8,118 -23.8,33.8 -63.5,48 -107.5,37.1 -12.9,-3.2 -25.7,-8.4 -37.6,-14.4 -151.1,-76.7 -304.2,-149.8 -452.6,-231.5 -253.1,-139.3 -505.9,-280 -734.1,-459.4 -597.3,-469.8 -1088.8,-1032.6 -1479,-1684.3 -7.8,-13 -15.9,-25.9 -23.9,-38.8 -3.1,0.6 -6.3,1.2 -9.5,1.8 0,14.9 -2,30.1 0.4,44.7 20.3,125.4 35.4,252.1 63.6,375.7 40.7,178.3 91.3,354.3 137,531.4 7.7,29.7 15.6,60 17.8,90.4 3.5,48.2 -24,85.5 -65.5,96.8 -39.1,10.5 -78.6,-7.1 -102.9,-46.2 -5.1,-8.1 -8.6,-17.2 -12.9,-25.8 -82,-165.7 -163.6,-331.6 -246.3,-496.9 -87.85,-175.7 -179.3,-349.6 -264.76,-526.5 -210.05,-434.7 -352.15,-895.7 -517.35,-1347.7 -11.83,-32.4 -20.81,-66.5 -25.56,-100.6 -3.04,-21.8 -0.71,-47.1 7.64,-67.3 21.4,-52 82.37,-56.7 115.35,-10.9" style="fill:#b11d23;fill-opacity:1;fill-rule:nonzero;stroke:none" id="path54"/>
      <path d="m 11634.5,13627.7 c -11,-146.6 38.6,-268.8 152.3,-363.1 106.7,-88.6 224.5,-156.3 362.9,-181.3 72,-13 144.2,-24.6 216.6,-34.2 69.5,-9.2 71.4,-8.7 90.6,-74.7 29.7,-101.6 59.1,-203.4 88.2,-305.2 84.2,-294.9 237.5,-550.5 443.3,-775.7 91.7,-100.4 197,-183.6 319.6,-244.3 23.5,-11.6 45.4,-29.1 64.1,-47.9 89.7,-90.1 177.1,-182.4 267,-272.4 181.7,-181.7 389.5,-326.2 625,-429.6 33.4,-14.6 68.1,-27.9 103.6,-35.2 27.4,-5.7 57.8,-5.5 85.4,0 53.5,10.6 90.7,43.3 99.6,99.1 8.7,54.2 -19.3,90.1 -62.6,120.1 -64.8,44.8 -128.7,91.3 -189.6,141.2 -181.4,148.9 -328,330.6 -474.9,511.7 -31.5,38.9 -63.6,77.5 -98.4,113.4 -68.4,70.7 -150.3,97.2 -247.5,70 -15.3,-4.3 -35.6,-5.3 -48.9,1.4 -36.1,18.2 -67.4,41.9 -84.2,82.9 -59.3,144.3 -121.9,287.1 -181.1,431.4 -73.9,180 -142.1,362.3 -219.6,540.6 -37.3,86 -85.8,168.2 -137,247 -75,115.3 -187.3,176.4 -322.9,188.9 -60.8,5.5 -122.8,-1.9 -184.2,-4 -18.3,-0.7 -36.6,-3.3 -55.8,-5.1 -4.5,16.9 -8.5,27.7 -10.2,38.9 -28.9,188.4 -60.3,376.5 -85.5,565.5 -41,307.4 -76.7,615.4 -117.4,922.8 -9.3,70.3 -24.5,140.9 -47,208 -38.4,114.7 -120.5,186.4 -240.7,208.7 -52.9,9.9 -106.8,15 -160.4,19.4 -66.1,5.5 -70.4,3.9 -74.1,67.7 -8.6,148 -15.3,296.2 -17.7,444.4 -2.2,142.5 5.4,285.2 2.3,427.6 -2.8,125 -12.5,250 -23.4,374.5 -5.6,64.6 -30.2,120.9 -105.4,134.9 -2.8,72.1 -21.7,133.9 -95.2,158.3 -73.1,24.4 -125.6,-13.2 -165.7,-66.8 -21.8,6 -37.8,10.4 -53.9,14.9 -3.5,-3.3 -6.9,-6.6 -10.4,-9.8 73,-56 54.9,-134.7 59.4,-207.7 0.8,-11.5 0.4,-23.1 0,-34.7 -7.8,-225.2 -14,-450.5 -24.2,-675.7 -7.6,-169.9 -0.2,-338.7 18.1,-507.6 23.3,-215.1 136.1,-367.6 322.7,-470 15.2,-8.4 30.7,-16.1 46.3,-23.7 111.3,-53.8 111.3,-53.8 127.9,-179 0.5,-3.9 1,-7.7 1.4,-11.5 22.4,-251.3 47.2,-502.4 65.8,-754 6.2,-83.9 -2.2,-169.1 -6.9,-253.5 -3.1,-55.7 -13.1,-110.9 -17.3,-166.6" style="fill:#b11d23;fill-opacity:1;fill-rule:nonzero;stroke:none" id="path56"/>
      <path d="m 20289.6,6881.4 c -50.4,18.8 -102.3,34.4 -154.6,46.9 -283.9,67.3 -572.3,102.5 -863.4,117 -26.5,1.3 -52.9,2.8 -79.3,4.2 -0.8,4 -1.6,8.1 -2.4,12.2 13.9,12.9 28.6,25 41.6,38.8 53.4,56.7 64.3,137.5 28,203.2 -35,63.2 -107.4,97.6 -182,82.9 -27.9,-5.6 -57.1,-14.4 -80.7,-29.4 -37.7,-24 -77.9,-32.5 -120.6,-33.9 -129,-4.3 -258.1,-13.2 -387,-10.7 -314.3,6 -627.8,-5.3 -941.2,-27 -205.8,-14.3 -411.5,-30.3 -612.3,-80.4 -78.2,-19.4 -155.2,-45.1 -230.4,-74.3 -34.7,-13.4 -68.7,-37.2 -94,-64.6 -69.5,-75.2 -37.3,-182.5 62,-208.3 34.5,-9 72.9,-10.2 108.5,-6.1 149.2,17 298.3,35.7 447,56.9 301.5,43 604.2,73.5 907.7,96.1 17.9,1.3 35.9,0.2 55.6,0.2 -14.5,-44.1 -38.7,-57.5 -79.8,-57.6 -117.4,-0.2 -235,-3.3 -352.3,-9.6 -169.5,-9.2 -337.8,-29.1 -501.6,-76.4 -27.5,-7.9 -55.2,-17.7 -80.1,-31.6 -30.5,-17 -47.3,-45.6 -43.1,-81.9 4.2,-36.4 26.8,-59 60.6,-70.1 14.5,-4.7 29.9,-8.7 45.1,-9.3 101.9,-4.3 203.8,-11.1 305.7,-10.8 463.4,1.5 924,-35.4 1381.5,-104.9 169,-25.6 334.7,-72.7 501.4,-111.8 28.6,-6.7 55.2,-22 92.5,-37.3 -30.3,-31.9 -51.8,-55.9 -74.7,-78.3 -33.1,-32.3 -69.8,-61.1 -100.1,-95.6 -32.9,-37.5 -40.9,-82.9 -17.9,-129.4 21.7,-43.8 59.6,-63.8 107.5,-65.8 13.5,-0.5 27.1,-0.1 40.4,1.7 68.5,9.4 137.2,17.9 205.3,29.4 272.6,46 510,169 727.1,335.2 18.2,13.9 34.3,31.2 49,48.9 77.2,93.3 79.2,206.3 5.5,302.8 -45.6,59.7 -104.7,102.6 -174.5,128.7" style="fill:#b11d23;fill-opacity:1;fill-rule:nonzero;stroke:none" id="path58"/>
      <path d="m 16507.4,9414.2 c 66.1,-49.7 132.2,-100.2 202.9,-142.8 219.6,-132.6 449.1,-246.4 686.1,-344.9 90.7,-37.7 185.6,-66.9 272.5,-111.7 179.2,-92.4 368.5,-156.8 559.1,-218.2 397.4,-128.2 802.1,-220.6 1220.9,-241.1 86.5,-4.3 173.1,-6.9 257.2,-32 21.7,-6.4 45.8,-7.8 68.6,-7.3 50.8,1.3 85.5,25.9 98.4,66.2 13.7,42.4 -1.4,87.5 -45,114.6 -29,18.1 -62.1,30.5 -94.6,41.9 -128.9,45.3 -258.6,88.6 -387.6,133.8 -226.3,79.4 -439,186.8 -645.6,308.2 -411.2,241.8 -795.4,521.9 -1170.3,815.5 -51.3,40.2 -106.3,76.6 -162.6,109.4 -67.9,39.5 -142.9,56.9 -213.5,53.1 -115.8,-1.9 -206.2,-21.8 -305.4,-65.8 -38.7,-17.2 -77.2,-35 -116.1,-51.6 -74.4,-31.7 -149.5,-61.8 -223.5,-94.4 -112.4,-49.5 -142.6,-163.6 -69.1,-262.2 19.4,-26 41.9,-51.3 67.6,-70.7" style="fill:#b11d23;fill-opacity:1;fill-rule:nonzero;stroke:none" id="path60"/>
      <path d="m 13359.4,20690.1 c 41,-31.7 80.9,-67.7 127.2,-88.8 115.6,-52.5 234.3,-98.5 352.5,-145 20.2,-7.9 44.6,-8 66.8,-7 103.7,4.7 207.3,15.8 310.9,15.5 148.7,-0.4 295,-26.3 439.5,-61.2 193.5,-46.7 372.6,-122.7 522.5,-257.8 34.3,-30.9 67.6,-63 101.6,-94.2 68.2,-62.6 106.7,-135.9 85.1,-231.4 -0.7,-3 2.7,-6.9 4.9,-12 9.2,-4.3 19.3,-10.2 30.1,-13.7 157.5,-51 315.1,-101.9 472.8,-152.3 18.3,-5.8 37.4,-9.9 56.4,-12 84.4,-9.5 143.9,35.9 150.7,120.8 3.5,43.5 -0.1,88.8 -8.2,131.8 -23.8,125.7 -69.8,244.8 -126.4,358.7 -78.9,158.6 -164.7,313.7 -246,471.1 -70.5,136.5 -185,208.4 -333.5,228.9 -83.8,11.6 -168.4,17 -256.5,25.6 -25.1,55.2 -76.3,66.7 -133,67.1 -40.5,0.4 -81.1,3.5 -121.3,0.8 -130.6,-8.8 -261,-22.3 -391.6,-29 -173.9,-9 -338.2,-50.1 -492.7,-130.9 -14.8,-7.8 -33.1,-10.3 -50.1,-12.6 -120.7,-16.7 -238.8,-43.5 -351,-92.1 -29.7,-12.8 -57.7,-16 -88.8,-3 -22.8,9.5 -48.1,14.2 -72.7,18.2 -28,4.6 -55.6,1 -68.9,-28.6 -11.9,-26.3 -1.2,-50.8 19.7,-66.9" style="fill:#b11d23;fill-opacity:1;fill-rule:nonzero;stroke:none" id="path62"/>
      <path d="m 17493.2,19814 c 13.2,-54.4 34.6,-104.2 104,-104.9 -3.3,-24 -8.1,-42.7 -7.9,-61.4 0.4,-45.7 38.2,-75.3 82.3,-62.9 17.6,4.9 34.8,16.6 48.4,29.3 23.8,22.3 43.9,48.5 67.1,71.6 22.7,22.7 37,48.5 40.1,80.8 4.7,49.7 8.2,99.7 15.8,149 29.3,190.8 122,353 243.6,496.8 214.6,253.9 493.9,391.6 822.4,434 94.7,12.2 188.1,1.9 282.1,-5.1 18.1,-1.3 40.2,0.1 54.7,9.3 79.4,50.6 157.2,104 235.2,156.8 9.5,6.4 17.7,15 25.7,23.2 73.6,75.6 52,163.1 -49,196.1 -20,6.5 -41.1,9.9 -61.8,14.6 -110.6,25.2 -221.3,50.2 -331.9,75.5 -151.9,34.7 -303.6,70.6 -455.7,104.3 -179.1,39.7 -340.2,-3.4 -483.7,-113.8 -62.5,-48 -123.5,-98.6 -180.5,-152.9 -154.9,-148 -290.4,-313.3 -421,-482.8 -81.3,-105.6 -115.2,-224.9 -109.8,-356.5 7.1,-170 39.9,-336.2 79.9,-501" style="fill:#b11d23;fill-opacity:1;fill-rule:nonzero;stroke:none" id="path64"/>
      <path d="m 15825.6,16367.1 c -19.1,-11.9 -39,-22.7 -61.3,-35.6 -7.4,17.4 -13.6,29.2 -17.5,41.6 -35.6,114 -71.6,227.8 -105.9,342.1 -53.7,178.9 -105.8,358.3 -159.4,537.2 -8.2,27.5 -18.8,54.7 -31.6,80.4 -11.6,23.5 -30.7,40.7 -60.2,34.7 -26.2,-5.3 -39.2,-25.8 -41.7,-49.7 -3.9,-38 -7.1,-76.8 -4.3,-114.8 10.2,-138.9 36.5,-275.6 81,-407.1 89.4,-264.3 184.1,-527 277.7,-789.9 20.6,-57.9 68,-88.1 130.7,-83.9 30.4,2 62.4,7 89.8,19.2 70.1,31.3 141.4,62.1 206.1,102.8 87.9,55.2 170,119.7 254.9,179.7 80.1,56.8 160.6,113.1 241.1,169.4 55.8,39 116,49 181.1,26.5 18.2,-6.2 37.2,-10.1 55.8,-15.2 164.2,-45.3 328.8,-25.6 492.9,-0.5 58.6,9 96.1,48.4 107.1,107.4 10.7,56.9 -13.1,102.2 -58.3,135.4 -19.9,14.6 -43.6,24.2 -65.8,35.6 -84,42.9 -171.2,80.4 -251.4,129.4 -133.1,81.5 -268.3,89.2 -408.3,27.8 -68.7,-30.1 -135.4,-65 -201.2,-101.1 -173.9,-95.3 -347.1,-192 -519.9,-289.3 -45,-25.3 -87.5,-54.9 -131.4,-82.1" style="fill:#b11d23;fill-opacity:1;fill-rule:nonzero;stroke:none" id="path66"/>
      <path d="m 17248.3,7341.2 c 148.8,19.4 297.1,42.1 446,60.4 154.6,19 309.7,34.8 464.6,51.1 22.8,2.4 46.1,0.3 69.1,0.3 0,-0.3 0,-0.5 0,-0.8 19.2,0 38.5,-1.3 57.6,0.2 90.4,6.9 155.1,68.1 161.6,151.7 6.3,81.3 -50.7,157.4 -136.4,175.7 -33.4,7.1 -68.9,6.7 -103.3,5.3 -55.7,-2.3 -111.2,-9.5 -166.9,-12.5 -159.5,-8.7 -319.4,-11.9 -478.5,-25.6 -139.7,-12.1 -278.6,-33.8 -417.4,-54.7 -57.7,-8.7 -111.7,-32.1 -152.7,-75.8 -20,-21.4 -42.7,-29.9 -70.3,-34 -138.9,-20.8 -277.8,-41.9 -416.4,-64.4 -127.4,-20.6 -254.6,-43.8 -374.5,-93.4 -40.1,-16.6 -78.5,-40.9 -112.2,-68.3 -29.5,-24.1 -41.4,-60.4 -25.8,-99.4 15.5,-38.7 47.5,-55.5 86.7,-55.8 40.2,-0.2 80.8,2.3 120.8,7.2 171.9,21.2 343.6,43.9 515.4,65.7 177.5,22.5 355.2,44 532.6,67.1" style="fill:#b11d23;fill-opacity:1;fill-rule:nonzero;stroke:none" id="path68"/>
      <path d="m 17229.7,8204.3 c 46.7,5.6 89.1,24.6 125.4,55.2 103.6,87.1 89.5,242.6 -31,304 -38.1,19.4 -84.6,31.5 -127.1,31.1 -88.2,-0.9 -178.6,-2.3 -264.1,-21.4 -306.7,-68.2 -606.2,-162.6 -903,-265.4 -36.2,-12.5 -70.7,-30.5 -104.8,-48.3 -61.6,-32.1 -107.8,-75.7 -100,-155 -67.4,-31.4 -130.8,-55.7 -188.8,-89.4 -64.5,-37.5 -125.7,-81.4 -185.1,-126.8 -21.9,-16.6 -39.4,-43.3 -50.3,-69 -23.2,-55.1 12,-103.3 71.3,-99.2 26.4,1.8 53.2,9.7 78,19.4 332.5,130.3 674.5,229.5 1021,314.1 218.8,53.4 433.5,124.2 658.5,150.7" style="fill:#b11d23;fill-opacity:1;fill-rule:nonzero;stroke:none" id="path70"/>
      <path d="m 16544.3,14286 c 4.1,-6.8 7.2,-14.3 12.2,-20.1 60,-70.6 133.1,-122.5 222.1,-149.8 85.7,-26.3 171.5,-52.7 258.1,-76 57.8,-15.5 110.4,11.4 129.3,68.1 10.4,31.5 28.3,47.4 56.8,58.7 93.1,37 185.8,74.8 278.2,113.4 19.7,8.2 35.1,5 54.5,-2.5 55.4,-21.5 112.6,-38.2 168.5,-58.6 22.9,-8.3 45.2,-19.4 65.8,-32.4 58.3,-36.9 114.9,-76.8 173.9,-112.6 19.1,-11.5 43.2,-17.4 65.7,-20.1 75.8,-9.2 131.7,49.3 118.1,124.6 -4.7,25.9 -16.4,51.5 -29.5,74.6 -20.1,35 -42.1,69.4 -67.1,101 -68.8,87.1 -149.4,160.5 -251.6,207.7 -68.1,31.5 -137.5,37.1 -207.4,8.6 -153.2,-62.6 -308.8,-120.2 -452,-205.2 -17.8,-10.6 -36.7,-19.4 -56.5,-29.7 -26.6,21.8 -50.1,41.5 -74.1,60.6 -36.1,28.9 -72.1,57.9 -108.9,85.8 -67.1,50.8 -142.1,66.8 -223.9,46.5 -63.5,-15.8 -127.2,-31.3 -189.9,-49.7 -222.4,-65.2 -437.9,-148.1 -642,-258.5 -49,-26.4 -96.1,-57 -141.1,-89.8 -35.5,-25.9 -45.2,-56.1 -32.2,-78.6 17.9,-30.9 48.3,-27.7 77.1,-23.8 22.8,3.1 45.5,8.3 67.6,14.7 35.2,10.2 69.9,21.6 104.5,33.5 185.7,64 371.2,128.4 556.9,192.3 19.7,6.7 40.4,10.6 66.9,17.3" style="fill:#b11d23;fill-opacity:1;fill-rule:nonzero;stroke:none" id="path72"/>
      <path d="m 19336.9,20264.8 c 28.6,101.3 -18,184.3 -121.3,203.8 -53.8,10.1 -111.1,8.7 -166.2,4.3 -157.2,-12.5 -313.1,-34.8 -462.5,-89.4 -15.3,-11.5 -30.7,-23 -46,-34.6 -47.7,-71.2 -76.5,-149 -82.7,-235 -1.5,-21 -2.3,-43.3 -10.1,-62.4 -27.9,-68.5 -29.3,-131.4 31.5,-181.6 -5.3,-17.3 -9.5,-30 -13,-43 -13.7,-50.9 -5.3,-89.9 25.7,-109.8 40.7,-26.2 78.9,-11.6 112,14.3 33.2,26 63.7,55.7 93.2,85.8 81.4,83.1 170.2,156.8 275.5,207.1 65.6,31.4 133.2,59.8 202.1,82.8 81.1,27 138.3,74.6 161.8,157.7" style="fill:#b11d23;fill-opacity:1;fill-rule:nonzero;stroke:none" id="path74"/>
      <path d="m 13569.6,19270.5 c 13.8,6.2 26.5,15.8 37.8,26 28.4,25.8 56.7,51.9 83.4,79.6 108.7,113.1 231,208.8 366,288.1 74.6,43.9 150.4,85.5 226.1,127.3 45.1,25 75.9,59 76.5,113.2 0.6,55.4 -26.7,95.4 -73,122.5 -18,10.5 -38.5,17.2 -58.5,23.8 -55.6,18.3 -110.5,7.1 -164.9,-6.3 -146,-36 -287.8,-84.8 -424,-148.3 -46.7,-21.9 -91.3,-49.5 -133.9,-78.7 -71.6,-49.1 -99.5,-120.3 -90,-205.5 3.9,-34.2 15.5,-67.6 18.8,-101.8 4.8,-48.5 21,-89.5 62.3,-118.1 -4.8,-27.4 -11.6,-48.1 -11.3,-68.7 0.6,-46.9 41.7,-72.2 84.7,-53.1" style="fill:#b11d23;fill-opacity:1;fill-rule:nonzero;stroke:none" id="path76"/>
      <path d="m 12993.2,18858.9 c -62.5,4.6 -98.5,-46 -72.3,-102.5 14.9,-32 39.1,-61.9 65.3,-86.2 88,-81.4 187.8,-146.6 295.3,-199.8 84.5,-41.8 168.9,-83.6 253.5,-125.2 12,-5.9 24.5,-11.2 37.3,-15.3 104.3,-32.9 195.8,34.7 196.4,144.7 0.3,62 -36.5,107.4 -98.5,125.8 -47.8,14.2 -95.6,29.1 -141.6,48.1 -145.8,60.1 -290.4,123 -436.2,183.2 -31.6,13 -65.6,24.8 -99.2,27.2" style="fill:#b11d23;fill-opacity:1;fill-rule:nonzero;stroke:none" id="path78"/>
      <path d="m 18973.3,18823.5 c -56.4,45.6 -112.7,95.9 -177.6,125.8 -151.1,69.7 -291.6,155 -426.1,251.9 -26.3,19 -54.1,36.9 -83.4,50.7 -38,17.9 -75.4,12.8 -106.6,-17.5 -27.9,-27.1 -35.4,-72.2 -14.1,-112.3 14.2,-26.7 33.6,-51.6 54.4,-73.7 60.1,-63.6 133.6,-109.6 209.4,-151.7 90.7,-50.4 180.2,-103.6 273.7,-148.2 63.5,-30.3 133.1,-47.9 200,-71.2 42.9,5.6 75.4,21.7 89.8,51.6 17.4,36.2 8.7,71.8 -19.5,94.6" style="fill:#b11d23;fill-opacity:1;fill-rule:nonzero;stroke:none" id="path80"/>
      <path d="m 18586.7,20383.4 v 0 0 z m 0.2,0.1 v 0 c 0.4,0.3 0.8,0.6 1.1,0.9 l -1.3,-1 c 27.8,24.7 55.6,49.3 88,78.1 -121.3,-20.4 -354.6,-205.5 -386.7,-307.7 20.8,16.4 36.9,29.2 53.1,41.8 66.8,51.4 133.6,102.8 200.4,154.3 l -1,-1.3 v 0 0 c 0.1,0.1 0.2,0.2 0.4,0.3 v 0 c 15.3,11.6 30.7,23.1 46,34.6" style="fill:#b11d23;fill-opacity:1;fill-rule:nonzero;stroke:none" id="path82"/>
      <path d="m 15876.3,10400.5 c 25.2,62.1 60,84.8 114.3,77.8 58.7,-7.7 106.5,-52.4 109.1,-109.6 1.5,-33.9 -0.7,-70.9 -13,-101.8 -24.9,-62.3 -56,-122.4 -87.9,-181.5 -38.4,-71.1 -80.5,-140.1 -120.8,-210.2 -8.7,-15 -15.8,-30.9 -24.5,-45.8 -60.7,-103.5 -128.6,-137 -245.8,-116.3 -288.3,51 -576,104.1 -859.6,179 -468.9,123.9 -910.3,311.8 -1330.3,552.7 -251.2,144.2 -491.6,303.8 -714.4,489.1 -243.5,202.5 -467.1,425 -675.4,663.4 -164.8,188.8 -326,380.4 -473,583.3 -126.8,174.9 -246.3,354.5 -335.6,552.2 -14.2,31.5 -27,64.2 -35.2,97.6 -5.2,21.4 -7.8,48.9 1.3,67.1 13.2,26.2 8.7,47.6 1.4,71.8 -80.2,267.1 -125,539.4 -127.3,819.2 -2.1,256.9 6.7,512.6 60.6,764.3 19.7,92 50.5,181.7 80.5,271.1 9.3,27.8 32.4,51 48.9,76.4 8.1,12.5 16.8,24.8 23.4,38.1 18.7,37.7 46,47.2 78,19.9 24.5,-20.8 47.1,-46.5 62.7,-74.4 88.4,-157.6 123.7,-328.1 102,-507 -17.3,-143.2 -48.8,-284.6 -66.9,-427.7 -15.4,-122.4 -17.5,-245.9 5.5,-368.4 26.2,-139 96.2,-252.9 210.4,-334 97.1,-68.9 199.4,-131.3 303.5,-189.3 168.3,-93.9 291.6,-224.8 359.5,-406.3 20.3,-54.1 40.2,-108.4 62.5,-161.7 44.7,-106.4 88.1,-213.5 137.6,-317.7 41,-86.4 111.7,-145.6 197.1,-188.1 53.4,-26.6 105.7,-55.5 158.1,-84.2 103.4,-56.6 186.7,-134.9 252.1,-233 84.4,-126.5 164.6,-256.3 256,-377.7 125,-166 282.8,-299.6 454.9,-414.6 53.7,-35.8 116.9,-58.3 177.4,-82.8 74.9,-30.4 150.9,-25.1 225.6,3.9 28.8,11.1 57.6,22.2 86.1,33.9 109.7,45 222,49.6 333.4,11.8 85.6,-29.1 168.7,-65.5 252.2,-100.3 222.4,-92.7 445.6,-182.4 678.7,-245.9 77.9,-21.3 152.9,-53 229.2,-79.6 15.9,-5.5 32.1,-9.9 47.7,-14.7" style="fill:#5fcbf5;fill-opacity:1;fill-rule:nonzero;stroke:none" id="path84"/>
      <path d="m 19707.7,13836.3 c 6.7,102.8 13.9,214.2 21.2,325.5 0.9,13.5 3,26.9 2.9,40.3 -1.8,388.5 71.4,766 170.3,1139.1 149.3,562.8 332.2,1114.7 562.2,1649.9 113.3,263.6 232.5,525.2 400.5,760.2 32.2,45.1 69.2,87.9 109.7,125.7 24.1,22.4 57.7,40.6 89.8,47.6 85.4,18.5 149.9,-23.2 176.9,-108.7 24.3,-77.1 21.8,-156.7 9.1,-234.7 -17.9,-110.1 -36.4,-220.7 -65.1,-328.4 -89.9,-337.1 -152.4,-680.1 -224.1,-1021.1 -71.1,-337.2 -140.3,-674.8 -209,-1012.6 -68,-333.9 -130,-669.1 -202.5,-1002 -69.1,-317.4 -175.9,-622.4 -333.6,-908 -40,-72.5 -76.5,-146.9 -116.9,-219.1 -13.9,-24.8 -32.2,-48.3 -52.6,-68.2 -56.9,-55.6 -130.5,-55 -182.6,5.6 -25.6,29.7 -46.1,67.2 -58.3,104.6 -48.8,149 -71.2,303.3 -83.3,459.2 -6.1,78.6 -9.5,157.5 -14.6,245.1" style="fill:#5fcbf5;fill-opacity:1;fill-rule:nonzero;stroke:none" id="path86"/>
      <path d="m 17427.2,27060.8 c 19.1,-16 41,-29.7 56.2,-48.8 8.9,-11.3 13,-33.1 8.4,-46.4 -3.5,-10 -24.6,-20.1 -37.3,-19.4 -22.2,1.3 -47.1,6 -65.2,17.9 -82.3,53.6 -164.5,107.8 -231.3,181.4 -7.7,8.5 -15.5,17.1 -22.5,26.3 -64,84.6 -41,174.4 60.9,204.5 76.7,22.7 158.1,33.7 238.2,40 80.3,6.4 161.7,0.4 242.6,0.1 36.6,-0.1 73.2,0.3 109.8,1 26,0.4 43.6,12.2 50.4,38.6 20.4,80.3 78.9,105.4 154.8,113.5 95,10.1 188.8,4.1 281.4,-14.1 359,-70.4 705.8,-179.3 1031.9,-346.8 249.5,-128.1 476.6,-290.4 693.4,-467.9 285.5,-233.7 525.3,-508.7 735.1,-810.8 147.8,-212.8 266,-442.5 373,-677.6 179.6,-394.2 310.4,-804.9 395.5,-1229.7 53.7,-267.7 70.8,-538.2 45.3,-810.5 -9.3,-99.5 -24.2,-198.5 -38.7,-297.4 -4.4,-30.2 -13.5,-60.3 -24.3,-88.9 -15.9,-41.9 -41,-57.6 -78.5,-54.6 -34.2,2.7 -58.2,20.7 -64.4,63.1 -8,54.9 -17.4,112.4 -9.4,166.3 24.6,165.4 -15.1,321.9 -55.5,478.4 -21.7,83.8 -54,164.7 -77.9,247.9 -97.9,341 -214.7,675.7 -342.8,1006.2 -85.7,221.1 -181.1,438.9 -310.8,638.1 -91.3,140.1 -191.8,274.7 -294.3,407 -254.4,328.2 -567.7,591.8 -920.4,807 -147.5,90 -306.5,161.9 -463.4,235.1 -167.5,78.2 -337.3,152.1 -508.9,220.8 -133.9,53.7 -271.8,97.6 -408.7,143.5 -24.6,8.2 -53.1,8.3 -79.5,6.7 -61.4,-3.7 -122.7,-9.6 -183.8,-16.9 -46.8,-5.6 -92.3,-21.4 -123,-57.3 -31.4,-36.8 -66.1,-50.4 -111.9,-41.6 -5.3,1 -11,-0.8 -16.5,-1.2 -2.7,-4.5 -5.3,-9 -7.9,-13.5" style="fill:#5fcbf5;fill-opacity:1;fill-rule:nonzero;stroke:none" id="path88"/>
      <path d="m 8376.67,7475.8 c -49.85,-2.3 -95.09,22.7 -137.37,54.3 -93.88,70.2 -163.43,162.9 -231.67,256.1 -103.49,141.4 -201.67,286.8 -308.02,426 -77.03,100.8 -162.6,195.2 -246.32,290.7 -71.4,81.5 -86.03,146.3 -33.28,242.3 50.87,92.6 107.01,183.2 169.22,268.6 195.11,267.7 394.27,532.4 591.7,798.5 283.56,382.1 569.23,762.5 869.37,1131.8 27.93,34.4 56.68,68.1 86.22,101.1 28.56,31.9 59.45,58.9 106.04,64.1 15.63,1.8 32.6,18.7 43.2,33 27.52,37.1 51.02,77.1 77.81,114.8 12.12,17 26.19,34 42.97,46.1 27.36,19.6 55.48,4.4 55.35,-29.1 -0.06,-14.8 -4.42,-30.6 -10.44,-44.4 -12.3,-28.2 -25.84,-56 -40.95,-82.8 -183.11,-324.8 -332.86,-664.5 -460.31,-1014.5 -134.62,-369.8 -254.32,-743.7 -323.49,-1132 -37.83,-212.4 -66.9,-425.6 -79.03,-641.6 -8.67,-154.4 -3.72,-307.8 2.65,-461.7 2.78,-67.3 4.42,-135 0.72,-202.2 -2.3,-41.6 -10.51,-84.5 -25.1,-123.5 -23.94,-63.9 -74.23,-96.1 -149.27,-95.6" style="fill:#5fcbf5;fill-opacity:1;fill-rule:nonzero;stroke:none" id="path90"/>
      <path d="m 19638.7,9134 c 3.8,26.6 8,53.2 11.2,79.9 4.6,39.2 4.9,76.9 -28.9,106.4 -9.7,8.4 -18.2,21.8 -20.4,34.1 -2.9,16 -5,43.5 3,48.3 53.6,31.9 59.6,95.4 97.7,137.9 60,66.9 115.3,87.4 199.6,55.5 34.1,-12.9 66.3,-30.8 98.9,-47.4 145.9,-74.4 291.8,-148.4 437.1,-223.8 546,-283.2 1110.7,-525.1 1676.2,-765.2 446.8,-189.6 892.4,-382.1 1340.7,-568.2 254.3,-105.5 512.9,-200.5 769.6,-300.4 23.3,-9 47,-17.3 69.2,-28.5 21.1,-10.7 29.5,-30 24.7,-53.5 -4.8,-24 -21.5,-37.1 -44.7,-37.7 -20.9,-0.5 -42.5,1.4 -62.7,6.6 -102.6,26.3 -204.6,55 -307.2,81 -203.5,51.4 -406.6,104.2 -611,151.8 -519.7,121.1 -1037,251 -1551.3,393.1 -259.9,71.8 -520.8,140.1 -780.7,211.6 -345.8,95.1 -686.1,206.3 -1016.7,345.9 -53.2,22.4 -104.7,48.9 -155.9,75.4 -32,16.5 -53.8,40.3 -56.6,80.8 -1.3,18.4 -15.6,38.4 -29.1,53 -42.7,46.6 -63.6,100.2 -62.7,163.4" style="fill:#5fcbf5;fill-opacity:1;fill-rule:nonzero;stroke:none" id="path92"/>
      <path d="m 17316.7,17342.9 c -36.7,10.6 -74.4,18.7 -110,32.3 -185.3,70.8 -369.7,143.8 -555,214.6 -105.1,40.2 -214.6,66.5 -326.8,67 -78.4,0.3 -156.8,-15.5 -235.2,-23.6 -24.9,-2.6 -50,-6.4 -74.7,-4.8 -55,3.7 -93.2,41.6 -96.1,96.9 -1.5,26.5 2.8,53.8 8.1,79.9 28.9,141.5 66.7,281.6 87,424.3 45.4,320.1 52.4,640.7 -18.4,959.3 -21.5,96.7 7.7,152.8 98.6,195.4 112.8,52.8 233.9,78.4 355.1,99.6 81.4,14.3 156,-14.4 218,-70.6 62.3,-56.4 103.5,-128.7 148.2,-198.4 136.3,-212.8 262.5,-431.1 358.9,-665.4 109.2,-265 183.3,-539.4 221,-823.7 8.8,-66.7 24.4,-132.5 37,-198.7 2.8,-15.1 7.4,-30 9,-45.2 9.2,-87.7 -35.1,-135.5 -124.7,-138.9" style="fill:#5fcbf5;fill-opacity:1;fill-rule:nonzero;stroke:none" id="path94"/>
      <path d="m 9268.98,20853 c -9.69,13.3 -19.01,26.8 -29.13,39.8 -132.97,169.8 -265.91,339.6 -399.21,509.2 -39.27,50 -79.71,99 -119.55,148.5 -10.86,13.5 -22.72,26.4 -31.96,40.9 -18.08,28.5 -20.4,58.4 0.32,86.5 21.21,28.8 51.34,44.8 85.67,32.5 33.85,-12.1 67.81,-28.5 96.33,-50.2 168.76,-128.1 335.2,-259.2 504.02,-387.2 69,-52.3 141.84,-99.6 213.31,-148.6 13.84,-9.5 29.4,-16.5 56.9,-31.7 -7.54,27.4 -10.26,43.1 -16.09,57.5 -81.26,201.2 -127.22,411.8 -165.95,624.2 -11.42,62.7 4.48,101.7 44.02,119.3 38.27,17.1 83.73,1.2 120.24,-45.2 47.03,-59.7 79.55,-127.8 101.25,-200 62.58,-208.5 123.15,-417.5 184.57,-626.3 109.48,-372 239.58,-736.2 411.38,-1084.6 58.8,-119.2 115.4,-239.4 172.8,-359.2 5.8,-12.2 11.5,-24.6 15,-37.5 18.9,-70.8 -21.6,-126.4 -94.5,-121.7 -37.2,2.4 -76.5,13.7 -109.5,31.2 -162,86.2 -314.5,187.4 -448.95,312.8 -70.25,65.6 -133.58,138.5 -200.4,207.7 -24.05,25 -47.92,50.3 -74.01,73 -174.96,152.1 -330.87,322.5 -479.77,499.5 -141.32,168 -281.33,337.1 -421.45,506.1 -14.61,17.7 -29.18,36.5 -38.33,57.2 -18.61,42.1 5.28,86.1 51.03,88.4 27.01,1.3 58.09,-6.6 81.48,-20.4 49.66,-29.1 95.5,-64.8 142.87,-97.9 96.33,-67.2 192.5,-134.7 289.06,-201.6 16.48,-11.4 34.58,-20.5 51.93,-30.7 2.21,2.8 4.41,5.7 6.62,8.5" style="fill:#5fcbf5;fill-opacity:1;fill-rule:nonzero;stroke:none" id="path96"/>
      <path d="m 17896.8,10011.2 c -79.3,1.7 -149.7,26.9 -216.5,63.2 -123.3,67.1 -247.5,132.8 -368.2,204.6 -87.2,51.8 -179.2,88.1 -277.1,111.6 -26.2,6.3 -52.8,12 -77.8,21.6 -21.3,8.1 -42.9,18.6 -60.1,33.1 -45.2,37.8 -39.3,91.1 14.9,115.2 30.9,13.7 66.5,20.3 100.4,22.8 36.2,2.7 64.8,11.9 93.1,37.1 23.2,20.6 55.7,34.1 86.4,42.1 36.8,9.6 76,12.9 114.3,14.1 151.9,4.7 304,6.3 455.9,11.5 98,3.4 196.2,7.9 293.7,17.7 212.1,21.4 394.4,115.1 556.4,247.8 96.6,79 183.7,169.7 277.5,252.2 29.7,26 65.8,46.7 102.2,62.5 47.6,20.5 97.2,10.8 136.6,-20.7 71.6,-57.3 116.2,-133 128.4,-224.9 8.1,-61.3 -11.6,-114.7 -58.3,-155.7 -88.2,-77.4 -176.1,-155.3 -266.7,-229.9 -158.9,-131 -317.5,-262.5 -480.5,-388.3 -116.1,-89.5 -242.6,-164.3 -385.7,-204 -55.2,-15.3 -112.5,-22.6 -168.9,-33.6" style="fill:#5fcbf5;fill-opacity:1;fill-rule:nonzero;stroke:none" id="path98"/>
      <path d="m 10240.9,16779.9 c 24.6,64.5 46.1,121.9 68.3,179 40.1,103.4 57.3,211.5 63.6,321.3 3.7,66.1 26.8,124.8 65.2,175.6 59,77.9 160.2,71.9 218.6,-12.2 34.9,-50.5 64.3,-105 93.9,-158.9 131,-238.1 214.3,-493.6 271.4,-758 27.1,-125.5 -35.9,-184.8 -157.6,-147.1 -216.8,67 -432,139.2 -647.4,210.7 -34.4,11.4 -66.8,29.5 -99.1,46.6 -16.7,8.9 -33,20.4 -46.1,34 -43,45.2 -28,92.9 33.5,105 24.3,4.8 49.8,3.2 74.7,3.9 20.9,0.5 41.8,0.1 61,0.1" style="fill:#5fcbf5;fill-opacity:1;fill-rule:nonzero;stroke:none" id="path100"/>
      <path d="m 9080.14,16413.8 c -21.89,9.7 -37.78,16.2 -53.27,23.6 -47.86,22.9 -79.96,58.4 -91.8,111.5 -20.49,92 -43.1,183.5 -62.75,275.7 -5.54,25.9 -7.2,53.7 -4.87,80.2 6.57,74.7 65.58,117.9 138.28,97.7 53.52,-14.8 104.79,-38 156.72,-58.3 28.66,-11.2 56.98,-23.4 84.83,-36.5 28.64,-13.5 55.26,-20.3 88.24,-8.6 40.44,14.4 73.1,-3.1 85.72,-44.5 8.99,-29.6 25.19,-49.8 47.34,-69.5 67.13,-59.8 80.75,-123 37.54,-201.4 -18.9,-34.2 -48.6,-64 -78,-90.8 -81.02,-73.7 -164.43,-144.8 -247,-216.8 -17.37,-15.1 -34.02,-31.5 -53.1,-44.2 -29.24,-19.4 -61.13,-19.4 -80.59,-2.2 -23.72,21 -23.18,48.1 -13.32,74.5 10.09,26.9 24.16,52.3 35.95,78.7 3.76,8.4 5.8,17.5 10.08,30.9" style="fill:#5fcbf5;fill-opacity:1;fill-rule:nonzero;stroke:none" id="path102"/>
      <path d="m 13146.6,19190.7 c -19.1,-23.2 -36.7,-43 -52.6,-64.2 -28.9,-38.4 -57.9,-76.9 -85,-116.6 -50.4,-73.8 -156.2,-91 -219.5,-21.4 -21.8,24.1 -49.9,43.8 -67,70.6 -38.8,61 -5.8,117 66.5,117.1 24.5,0 49.1,-2.6 76.3,-4.2 18.1,111.6 94,185.6 157.9,266.4 32.4,41 71.8,74.4 121.3,95.5 16.7,7.1 30.4,22.2 44.1,35.1 11.2,10.5 19.5,23.9 30.4,34.6 29.7,29.4 65.1,42.1 105.5,27.3 41,-14.9 57,-47.6 59.8,-90 2.1,-30.6 7.5,-61.1 14.1,-91 8.5,-38.2 27.3,-64 71.6,-71.2 63,-10.2 84.7,-61.1 52.3,-115.9 -13.6,-22.9 -32.8,-42.6 -50.3,-63 -25,-29.2 -51.2,-57.3 -76,-86.6 -49,-57.8 -118.5,-57.7 -168.5,0.5 -17.5,20.4 -35.1,40.7 -53.5,60.3 -5,5.3 -12.7,8 -27.4,16.7" style="fill:#5fcbf5;fill-opacity:1;fill-rule:nonzero;stroke:none" id="path104"/>
      <path d="m 19379.4,20195.7 c -7.7,46.5 -16.6,78.5 -17.5,110.7 -1.7,59.5 40.5,91.6 98.9,77.5 18.4,-4.4 36.8,-11.9 53.2,-21.5 131.3,-76.1 262.5,-152.5 392.7,-230.5 27.7,-16.6 54.3,-37.3 75.8,-61.1 45.9,-50.7 48.6,-108.1 8.1,-163.2 -20.3,-27.6 -44.6,-53.6 -71.5,-74.7 -44.7,-35.1 -94,-29.4 -140,-1 -67,41.4 -132.8,84.9 -198.7,128 -61.2,39.9 -121.9,80.5 -182.7,120.9 -11.2,7.4 -23,14.3 -33,23.1 -29.9,26.6 -31.6,48.2 -5.5,78.8 5.9,7 16.1,10.5 20.2,13" style="fill:#5fcbf5;fill-opacity:1;fill-rule:nonzero;stroke:none" id="path106"/>
      <path d="m 18002,19480.4 c -47.1,-0.2 -75.7,22.9 -82.9,57.8 -7,34 -0.7,66.3 22.6,92.1 112.1,124.3 186.9,272.8 272.7,414.3 12,19.7 24.1,39.8 39.3,56.9 30.3,34.3 75.5,42.6 109.6,22.9 34.7,-20 47.8,-60.5 29.2,-106.7 -13.4,-33.2 -24.1,-61.1 -0.8,-96.5 7.7,-11.8 -5.4,-45 -18.1,-61.2 -45.4,-57.3 -93.4,-112.8 -142.9,-166.6 -57.1,-61.9 -116,-122.3 -176.2,-181.2 -16.9,-16.5 -41.4,-25.3 -52.5,-31.8" style="fill:#5fcbf5;fill-opacity:1;fill-rule:nonzero;stroke:none" id="path108"/>
      <path d="m 14918.7,19848.9 c -1.8,-53.6 -48.1,-94.4 -98.5,-87.9 -57.2,7.4 -114.1,17.6 -171,27.5 -62.6,10.8 -124.9,23.5 -187.6,33.6 -41.8,6.8 -71.9,23.1 -80.5,69.3 -3.3,18.2 -15.3,34.9 -23.5,52.3 -29.5,62.3 7.8,151.4 92.6,144.3 51.3,-4.2 103.1,-12 152.7,-25.4 89.7,-24 174.2,-61.9 251.3,-114.4 36.5,-24.8 61.5,-57.9 64.5,-99.3" style="fill:#5fcbf5;fill-opacity:1;fill-rule:nonzero;stroke:none" id="path110"/>
      <path d="m 20318.6,19549.7 c -49.9,70.5 -103.5,138.7 -148.9,212 -48.5,78.1 -67.1,167.8 -76.6,258.2 -7.5,72.6 -10.4,145.8 -13.1,218.8 -1.7,46.9 -11,90.4 -30.9,133.6 -11.3,24.4 -13.7,55.6 -11.1,82.9 2.9,29.6 29.9,48.1 56.5,48.4 29.1,0.3 46.2,-16.1 56.2,-41.6 31.6,-81.1 53.5,-163.9 53.5,-252.2 0,-137.5 19.3,-270.9 70.7,-400.8 28.7,-72.5 37.8,-152.8 55.1,-229.7 2,-8.7 0.3,-18.2 0.3,-27.3 -3.9,-0.8 -7.8,-1.5 -11.7,-2.3" style="fill:#5fcbf5;fill-opacity:1;fill-rule:nonzero;stroke:none" id="path112"/>
      <path d="m 19579.3,8572.7 c -275.8,82.4 -544.1,181.5 -784.6,344.8 -138.9,94.3 -271.8,196.1 -399.1,305.4 -166.6,143 -332.6,286.9 -499.3,429.8 -131.9,113 -270.7,216.7 -420,305.8 -111.4,66.4 -228.5,118.8 -356.2,146.7 -178.1,38.9 -344.3,11.3 -499.9,-82.9 -118.1,-71.6 -221.3,-161.5 -309.2,-267.1 -88.6,-106.5 -174.9,-215.4 -254.4,-328.8 -107.1,-153 -206.5,-311.3 -309.6,-467.2 -60.6,-91.5 -119.1,-184.6 -183.8,-273.2 -40.7,-55.6 -88.6,-106.6 -138,-154.9 -77.3,-75.6 -169.1,-92.8 -272.1,-57.2 -113.2,39 -222,87.5 -327.9,142.8 -268.8,140.6 -518.6,310.8 -760.7,492.4 -660.7,495.4 -1246.3,1066.4 -1736.8,1732.4 -485.4,659.1 -847.6,1380.5 -1086.6,2163.3 -99.6,326.3 -153.1,659.5 -145.8,1002.1 6.7,314.6 84.7,608.8 235.9,884.2 9.8,17.9 21.4,34.9 35.7,58.1 72.2,-90.2 106.5,-186.1 110.1,-293 2.6,-79.5 -12.8,-157 -29.4,-234.5 -35.7,-165.6 -72.3,-331.1 -103.1,-497.7 -27.6,-149 -28.1,-299.5 5,-448 55.1,-247.6 193.8,-429.2 432.2,-526.5 58.6,-24 120,-41.5 180.5,-60.8 38.5,-12.2 77.6,-22.8 116.6,-33.3 86.1,-23.1 145.8,-77.1 180.3,-157.8 19.7,-45.9 35.2,-93.7 50.4,-141.3 31,-97.3 58.7,-195.6 91.1,-292.4 32.7,-97.6 82.6,-186.2 149.5,-265.2 87.2,-102.7 192.5,-178.1 323.8,-211.1 65.6,-16.5 109.4,-53.8 137.1,-112.8 28.7,-61 57.4,-122 83.9,-184 44.1,-102.9 96.7,-201.1 154.6,-297 181,-299.5 446.2,-477.6 786.1,-548.8 45.2,-9.5 90.9,-16.9 136.7,-23.3 176.6,-24.8 344.9,4.4 507.2,77 117.1,52.3 97.1,63.1 226.4,-16.3 134.7,-82.7 268.8,-165.8 416.1,-225.4 123.7,-50.1 251.2,-86.7 381.9,-112.1 68.4,-13.3 137.5,-13.9 207.2,-7.5 39.7,3.7 80.7,2.4 120.5,-2.4 157.3,-19.2 311.8,-4.4 463.1,39.6 131.2,38.3 260.5,82.9 391.2,122.8 149.9,45.7 302.9,73.6 460.3,74.2 44.2,0.2 88.4,6.4 132.6,8.4 16.9,0.8 34.7,0.4 51,-3.9 334,-89.2 649.5,-33 950.1,125.3 188.7,99.4 356.2,228.7 504.8,382.1 6.6,6.8 10.9,16 14.4,21.2 57.1,-30.3 105.4,-62.7 158.4,-82 53.5,-19.5 111.8,-25.9 173.1,-39.2 11.5,-18.4 4.4,-43.7 2,-67.7 -10.1,-99.6 -23,-199 -32.3,-298.6 -18.8,-201.7 -23,-403.6 -12.4,-606.1 13.6,-260.2 42.4,-518.3 96.2,-773.2 46.7,-221 111.6,-436.5 209.9,-640.9 3.2,-6.7 5.4,-13.9 9.4,-24.5 -10.2,0 -17.7,-1.7 -24.1,0.2 z m -8428.4,6981.6 c -18.6,89.5 -22.2,179.1 -14.5,270 15.3,180.4 30.4,360.8 41.8,541.5 10.1,160.6 -5.7,319.3 -52.4,474.1 -2.6,8.6 -3.4,17.7 -6.5,34.3 63.9,-18.8 116.8,-42.3 160.7,-84.3 53.5,-51.1 95.5,-110.3 128.1,-176.8 71.4,-145.6 127.3,-297.2 173.4,-452.5 119.1,-400.5 237.4,-801.1 356.6,-1201.5 59.5,-199.9 138.9,-391.6 235.8,-576.5 238.7,-455.3 472.4,-913.5 736.9,-1354.8 294.2,-491 631.1,-949.3 1038.5,-1353.3 182.1,-180.6 375.5,-348.5 574.7,-509.8 16.3,-13.3 32.6,-26.6 53.5,-43.8 -48,-43.1 -98.4,-72.6 -157.8,-84.3 -139,-27.5 -272.9,-10.7 -397.9,56.6 -261,140.5 -440.9,350.3 -532.7,633.5 -19.5,60.5 -37.4,121.4 -57.9,181.6 -44.2,129.8 -133.7,213.5 -264.4,253.1 -44.1,13.4 -89.1,24.1 -133.7,35.9 -22.3,5.9 -44.6,11.9 -67.2,17 -109.1,24.6 -178.3,94.1 -218.7,195.2 -38.1,95.2 -61.5,194.4 -78.8,295.3 -13,75.9 -25.6,151.9 -40.9,227.3 -6.8,33.8 -17.8,67.1 -29.9,99.4 -40.8,108.6 -113.5,189.4 -223.7,227 -103.6,35.3 -210.3,61.7 -315.9,90.9 -48.1,13.4 -97.6,22.2 -145.4,36.9 -56.2,17.2 -104.1,49.1 -143.7,93.1 -48.2,53.4 -75.6,112.8 -74.6,187.7 1.9,139.8 24.4,276.1 57.3,411.1 24.6,101 54.8,200.8 75.9,302.5 69.3,335.4 -41.3,606.9 -303.7,818.8 -76.2,61.5 -159.5,115 -242.9,166.5 -72.6,44.8 -113.1,106.5 -130,188.3 z m -205.9,1812.8 c -112.6,205.5 -163.9,427.2 -162.8,660.5 0.4,82.5 12.4,165 18.9,247.5 4.1,51.9 9.8,103.7 10.7,155.6 0.5,26.3 -4.2,54.2 -13.5,78.7 -13.7,36.4 -48.2,45.1 -80,22.9 -15.5,-10.9 -28.1,-26 -44.4,-41.4 -63.5,-3.7 -97.9,-48.3 -127.3,-100.8 -141.4,-252.2 -207.4,-525.5 -223.7,-811.7 -7.5,-130.7 -6.9,-261.8 -9.9,-392.8 -0.4,-19.3 -0.8,-38.5 -1,-57.8 -1.3,-110.7 -13.1,-174 -170,-227.1 -124.6,-42.1 -253.55,-43.9 -383.1,-31.6 -290.97,27.6 -565.49,114.1 -829.51,235.8 -311.58,143.5 -600.45,321.6 -850.46,559.8 -234.78,223.6 -418.08,482.6 -550.22,778.2 -53.82,120.4 -90.58,245.3 -100.8,377.7 -9.16,118.6 4.47,234 34.54,348.8 41.59,158.8 143.94,259.7 293.02,318.1 81.24,31.8 166.51,46.8 252.68,57.9 218.96,28.4 429.74,-14.8 638.21,-74 206.9,-58.8 401.98,-144.4 581.4,-264.5 56,-37.4 113.24,-73.3 171.87,-106.5 27.97,-15.8 59.69,-28.1 91.2,-33.9 60.4,-11.1 111.37,22.6 127.5,82.1 6.42,23.7 9.74,49.9 7,74.1 -24.76,218.4 -56.12,435.5 -134.93,642.7 -57.52,151.3 -138.75,287.4 -247.36,407.5 -101.19,111.9 -213.09,212.1 -333.46,302.5 -144.79,108.7 -291.6,214.7 -437.4,322.1 -49.63,36.6 -99.84,72.4 -148.05,110.8 -190.11,151.3 -287.82,353.1 -314.02,590.8 -30.46,276.4 32.35,536.7 151.99,783.7 73.48,151.7 183.46,274.6 325.1,368.4 153.65,101.7 320.98,127.3 497.64,85.4 154.48,-36.7 267.56,-132.2 345.79,-268.9 44.7,-78.1 66.69,-163.8 75.25,-252.9 4.29,-44.6 -0.25,-88.5 -16.6,-130.7 -28.41,-73.3 -83.34,-109.6 -161.78,-103.4 -38.3,3 -76.25,10.5 -114.3,16.2 -17.14,2.7 -34.04,7.4 -51.24,8.8 -37.88,3.2 -60.46,-13 -60.87,-51.5 -0.41,-37.9 3.89,-77.1 14.01,-113.6 9.11,-32.8 26.09,-64.4 44.48,-93.5 105.87,-167.3 358.72,-323.7 615.12,-268 89.15,19.4 153.29,69.2 191.99,151.4 24.94,52.9 36.85,109.2 39.48,167.6 8.18,181.5 -27.01,356.5 -80.22,528.6 -67.22,217.5 -175.13,410.3 -344.25,565.9 -5.53,5.1 -9.89,11.5 -17.21,20.1 10.39,34 22.05,68.5 31.44,103.5 41.81,156.2 84.46,312.3 124.08,469.1 96.37,381.3 246.61,740.8 429.19,1088.5 344.5,656.2 802,1222.2 1353.5,1714.5 742.6,662.8 1578.1,1172.6 2511,1521.2 216.6,81 436.6,152 664.2,195.9 270.5,52.1 542.6,68.2 816.3,29.4 107.4,-15.2 210.9,-44.8 309.2,-91.2 70.3,-33.2 134.1,-75.8 188.6,-131.6 75.5,-77.2 118.9,-168.9 129.7,-276.9 4.4,-43.8 12.9,-87.6 24.4,-130.1 22.9,-85.4 116.3,-108.2 186.4,-62.7 6.4,4.2 13.5,8.3 18.2,14.1 73.1,91.2 178.2,135 280.2,177.5 308.2,128.4 624.3,232.4 957.1,278.1 235.8,32.4 472.6,39.9 709.3,22.4 448.9,-33.1 882.6,-135.3 1299.1,-306.8 536.4,-220.8 1011.5,-533.4 1406.8,-960 377.3,-407.4 662.2,-873.4 863.4,-1391.1 161.6,-415.8 260.4,-845.6 302.9,-1289.5 27.2,-284.1 46.1,-568.2 44.5,-853.8 -0.6,-100.1 3.5,-200.3 6.8,-300.4 0.9,-26.8 2.9,-54.5 10.5,-79.9 29.9,-98.8 141,-132.6 216.2,-62.4 84.8,79.2 185,131.1 288.2,178.5 97.4,44.8 201.4,64.7 307.7,72.4 58.4,4.2 115.1,-6.6 170.3,-25.7 83.9,-29.1 136.8,-90.6 173.3,-168.3 33,-70.3 49.2,-145.6 63.3,-221.5 29.2,-157.6 18.7,-314.7 -3.1,-471.8 -45.6,-327.6 -136.3,-643.9 -239.9,-956.9 -2.3,-7.2 -6.1,-13.9 -9.8,-22.2 -14.8,-4 -29.5,-8.1 -44.2,-11.8 -373.9,-95.5 -616.4,-328.4 -720.3,-699.7 -42.6,-152.2 -40,-309.1 -10.4,-464.3 8.6,-44.8 26.1,-88.5 44.4,-130.7 19.5,-45.2 54.2,-79.1 96.8,-104.2 75.6,-44.6 157.9,-40.9 226.8,13.5 27,21.3 51.8,46.4 73.6,73 41.6,50.6 78.8,104.7 120.4,155.3 62.3,75.8 123.6,152.8 191,223.9 80.8,85.2 180.5,143.2 299.1,180.1 68,-27.7 135.9,-62.8 191.8,-117.6 133.5,-130.6 227.6,-282.8 274.7,-466.5 58.4,-227.7 60.3,-457.3 46.2,-688.8 -8.3,-135.2 -32.9,-267.5 -73.7,-396.6 -10.4,-33 -20.8,-66.5 -35.8,-97.5 -62.7,-130.1 -125.5,-260.2 -208.2,-379.5 -50.5,-72.8 -95.7,-149.2 -145.1,-222.8 -59.3,-88.6 -104.2,-184.3 -142.1,-283.4 -11.7,-30.8 -29.4,-52.8 -57.2,-69 -66,-38.6 -136.9,-61.3 -213.1,-66.8 -146.8,-10.5 -292.5,4.8 -438.3,18.6 -88.1,8.3 -176,20.1 -265.1,8.7 -299.9,-38.5 -519.8,-320 -476.9,-618.2 11.7,-81.5 37.9,-160.9 58.3,-241.1 6.1,-24.1 15.2,-47.5 23.7,-73.8 -38.1,-101 -96.6,-190.9 -163.5,-276 -92.8,-118.2 -186.9,-235.4 -277.2,-355.4 -120.8,-160.6 -222.9,-332.7 -302.8,-517.4 -54.6,-126.4 -52.6,-254.7 -6.8,-383.3 7.1,-19.8 15.4,-39.2 25,-63.4 -17.9,-29.8 -36.1,-61.2 -55.5,-91.9 -83.2,-132 -168.2,-262.9 -249.9,-395.8 -80.1,-130 -142.3,-268.9 -189.9,-414 -10.1,-30.7 -16.7,-63.7 -18,-95.9 -0.9,-23.9 3.8,-51.4 15.5,-71.9 54.5,-95.5 117.5,-184.8 199.3,-260 33.7,-31.1 63,-67 98,-104.7 -15.3,-19.1 -28,-35.2 -41,-51 -97.9,-119.1 -197,-237.1 -293.2,-357.5 -44.4,-55.5 -84.3,-114.8 -124.6,-173.7 -86.1,-125.9 -136.8,-266.9 -169.5,-414.6 -8.1,-37 -5.6,-76.6 -5.4,-115 0.2,-14.7 5.4,-30.6 12.3,-43.8 40.4,-76.8 85.6,-150.3 145,-214.7 33.9,-36.6 63.8,-76.9 93.1,-112.7 -1.5,-9 -0.8,-13.9 -2.9,-16 -99.9,-101.6 -196.3,-206.9 -301.2,-303 -89.3,-81.8 -187.5,-153.9 -283.6,-228 -25.3,-19.5 -55.9,-35 -86.5,-44.4 -147.1,-45.5 -294,-92.3 -443.1,-130.3 -89,-22.7 -181.6,-32.1 -273.2,-43 -29.4,-3.5 -61.5,3.8 -90.5,12.3 -32.3,9.5 -57.3,30.9 -64.6,71.7 10.1,11.7 20.9,24.8 32.3,37.2 125,136.4 253.5,269.7 374.4,409.5 304.8,352.7 541.3,746.9 718.3,1179 139.7,340.8 256,689.4 367.8,1039.7 70.8,221.9 145.4,442.9 193,671.4 38.1,182.8 72.6,366.4 108.4,549.7 91.3,466.8 183.8,933.3 273.1,1400.4 66.9,350.1 120.7,702.4 152.2,1057.6 16.9,190.2 23.7,380.8 15.7,571.7 -9.7,231.2 -0.5,462.3 6.1,693.3 4.6,163.6 11.9,327.3 23.2,490.6 16.1,233 59.5,461.9 112.2,689.3 64.3,277.8 117.2,557.7 154.4,840.6 37.1,282.4 41.4,564.8 6.7,847.3 -29.5,240.8 -58.6,481.9 -96.9,721.3 -36.2,226.2 -85.6,450.2 -126.3,675.6 -18.8,104.1 -31.9,209.3 -45.3,314.4 -80.9,636.2 -294,1226.4 -622.4,1775.4 -175.2,292.9 -398.8,547.6 -644.9,782.8 -269.8,258 -570.8,475.8 -880.8,682 -171.7,114.2 -348.2,220.1 -531.3,315.5 -119.8,62.4 -242.4,117.6 -368.2,166.4 -103.2,40 -210.4,63.1 -320.4,70.2 -180.1,11.6 -328.6,-54 -440.9,-194.8 -38.2,-47.8 -71,-101.2 -98.8,-155.8 -47.2,-92.7 -118.8,-147.2 -220,-169.9 -117.7,-26.4 -235.5,-33.3 -355.7,-25.7 -228.7,14.6 -447.8,73.8 -666,137.5 -134.8,39.3 -269.3,80.1 -402.7,124.1 -65.5,21.6 -129.4,49.5 -191.6,79.3 -83.3,40 -164.6,84.2 -246.3,127.3 -99.1,52.2 -201.7,95.7 -307.9,131.2 -23.6,7.9 -47.1,17.5 -68.9,29.6 -80.7,44.8 -165.8,46.5 -252.3,25.7 -46.7,-11.3 -93,-25.4 -137.7,-42.8 -215.3,-83.7 -432,-164.3 -644.6,-254.6 -614.2,-260.8 -1179.7,-602.6 -1685.1,-1039.6 -364.7,-315.4 -708.5,-652.7 -1026.6,-1015.5 -310.9,-354.6 -584.2,-736.3 -809.1,-1151.5 -159.5,-294.4 -283.6,-602.7 -356.8,-930.4 -58.99,-264.5 -85.4,-532.3 -84.6,-803 0.26,-88.8 9.66,-177 33.16,-263 7.64,-27.8 16.54,-55.6 28.74,-81.6 47.3,-100.6 136.7,-140.8 243.7,-110.7 71.4,20.1 133.6,59 195.7,97.9 23.9,14.9 47.7,30 77.8,49 3.8,-25.3 6.9,-41.7 8.8,-58.2 37.7,-333.2 76.6,-666.2 161.9,-991.4 34.2,-130.4 72.4,-259.9 115.1,-387.7 63.4,-189.9 131.2,-378.4 199.8,-566.5 26.3,-72.1 63.4,-140.1 71.7,-218.4 2.4,-22.1 13.3,-44.3 24.2,-64.4 17.9,-32.8 47.2,-51.7 85.2,-49.4 40.5,2.4 68.3,25.9 81,63.9 7.3,21.6 11.7,44.9 13,67.7 4.2,75 9.9,150.2 8.6,225.2 -11.9,695.9 136.8,1361.8 375.2,2010.7 48.5,131.9 102.4,261.9 155.9,391.9 59.9,145.5 30.9,262.9 -97.4,355.5 -51.1,36.9 -108,67.3 -165.5,93.6 -82.3,37.5 -167,69.8 -251.6,102.1 -170.9,65.2 -342.6,128.4 -513.5,193.6 -46.4,17.7 -91.2,39.7 -138,60.3 3.2,14.4 4.7,25.7 8.3,36.4 114.4,344.2 247.4,680.4 419.6,1000.4 327.9,609.6 746.1,1146 1291.1,1576.4 495.9,391.5 1036.4,706 1629.9,929.3 274.5,103.3 555.8,168.9 845,206.2 83.9,10.8 168.6,15.5 253,22.5 69.1,5.7 138.7,7.6 207.3,16.9 141.3,19.2 280.2,6.7 419.1,-20.5 106.1,-20.6 209.7,-47.9 311.7,-84 215,-76.2 437.5,-120.7 662.9,-153.4 127.6,-18.5 254.3,-43.2 383.8,-47 235.4,-7 459.3,44.1 671.9,142 67.6,31.1 129.7,75.6 191.2,118.3 58.7,40.8 119,54.9 190.6,45 149.8,-20.8 292.6,-66.3 435.7,-111.9 222,-70.8 440.4,-151.5 655.1,-242.3 31.6,-13.4 61.9,-31.1 90.2,-50.6 224,-154.6 434.7,-325.8 632,-513.3 298.4,-283.7 547.1,-604 735.3,-972.2 222.1,-434.5 374.5,-889.4 443.3,-1373.2 47.8,-336 78.4,-672.9 93.5,-1011.9 12.4,-279.4 13.1,-558.5 -3.6,-837.6 -14.3,-238.7 -46,-475.3 -85.9,-711 -42.1,-248.7 -87.9,-496.8 -126.5,-746.1 -37.2,-240.3 -57.5,-482.8 -38.4,-725.8 12.7,-161 38.4,-321.1 59.9,-481.4 22.8,-169.9 47.6,-339.5 71.1,-509.3 2.9,-20.9 4.2,-42.2 5.1,-63.3 15.8,-373.9 12.2,-747.5 -25.6,-1120.1 -30,-295.3 -82.9,-587.2 -139.4,-878.4 -71.8,-370.5 -142.7,-741.2 -216.7,-1111.3 -130.2,-652 -288.1,-1296.9 -507.9,-1925.4 -102,-291.3 -225.2,-573.6 -363,-849.5 -148.8,-298.1 -340.7,-567.7 -556.3,-820.8 -81.2,-95.3 -166.5,-187.2 -247.9,-282.4 -41.2,-48.2 -79.4,-99.2 -116.2,-151 -43.3,-61 -69.9,-128.5 -61.7,-200.8 -75.9,-68 -143.7,-130.7 -213.5,-191.1 -165.7,-143.3 -359.7,-229.1 -572.8,-272.3 -152.6,-31 -306.5,-29.3 -459.6,-1.2 -33.6,6.2 -66.2,19.6 -98.4,32.1 -35.2,13.8 -50.2,41.9 -43.3,78.7 9.3,49.1 19.9,98.1 32.1,146.6 15,59.7 35.4,118.3 47.5,178.5 9,44.8 15.5,92.2 10.9,137.2 -12.1,118.3 -94.4,190.1 -213.1,193.9 -60.7,2 -120,-8.8 -174.7,-33.1 -57.8,-25.7 -116.9,-52.5 -167.3,-89.9 -92.6,-68.7 -182.1,-142.4 -267.6,-219.7 -164.6,-148.8 -332.7,-292.7 -515.9,-418.4 -68.6,-47 -140,-88.3 -217.6,-118.7 -72.7,-28.6 -147.6,-42.3 -226,-39.1 -48.8,2.1 -95.2,11.8 -140.4,29.9 -156.2,62.7 -301.5,145.9 -445.2,232.6 -72.5,43.7 -147,84.3 -220.1,127.2 -29.8,17.5 -59.6,35.6 -87.3,56.2 -254.8,190.4 -501.5,391 -736.2,605.7 -337.5,308.7 -621.8,662.5 -871.2,1044.9 -184.3,282.6 -350.1,576.1 -510.5,872.7 -107.2,198.3 -210.7,398.7 -324.3,593.2 -183.8,314.9 -316.7,650.1 -425.8,996.6 -109.4,347.4 -200.9,699.5 -289.6,1052.6 -28.1,111.8 -65.4,221.5 -103.6,330.4 -31.5,89.5 -79.6,170.9 -140.4,244.4 -62.4,75.4 -135,138.9 -226.7,174.6 -161.8,62.9 -269.5,181.8 -350.3,329.2 z m -1295.04,-704.3 c 122.05,0 238.29,0 359.34,0 29.6,-128.1 58.8,-254.5 90.9,-393.3 -35.2,17.4 -62.3,26.7 -84.5,42.7 -49.87,35.9 -100.59,71.8 -144.99,114 -68.25,64.8 -131.64,134.8 -196.67,203 -8.63,9 -14.77,20.5 -24.08,33.6 z m 1266.24,-40 c -26.1,-140 -51.8,-280.1 -80,-419.7 -30.1,-149.4 -50.7,-300 -61.7,-451.8 -7.1,-98.2 -5.5,-196.1 22.9,-297.4 -27.2,-8.4 -50,-17.7 -73.6,-22.5 -310.4,-61.9 -605.4,-21.9 -881.4,136.7 -154.74,89 -291.46,201 -412.43,332.1 -245.35,266 -418.52,574.6 -538.48,914.5 -5.62,15.9 -9.33,32.6 -16.25,57.1 183.6,-56.7 360.62,-111.3 545.95,-168.5 11.24,-16.6 26.77,-40.8 43.54,-64.1 60.77,-84.3 118.12,-171.5 184.2,-251.5 52.42,-63.4 112.67,-121.4 174.98,-175.4 71.19,-61.7 155.43,-99.4 251.79,-103.4 15.4,-0.6 30.9,-0.4 46.2,1.1 82.9,8.1 133.9,60.8 135,144.3 0.4,32.2 -6.1,65 -13.6,96.6 -11.1,46.8 -25.5,92.8 -39.3,138.9 -22.1,73.5 -27.7,147.1 -1.7,224.8 13,5.7 28.9,12.2 44.3,19.6 31.2,15 63.1,28.9 92.9,46.3 92.9,54.3 145.8,136.3 155.9,242.9 6.1,65 5.2,130.7 6.5,196.1 0.9,42.2 0.2,84.5 0.2,131.5 7.4,-5.9 14.8,-10.2 20,-16.3 44.9,-52.7 88.8,-106.2 134,-158.6 56.5,-65.7 115.2,-129.5 170.6,-196 86.9,-104.3 114.2,-224.7 89.5,-357.3 z M 25293.1,7341.4 c -15.2,14.5 -32.2,27.8 -50.2,38.7 -41.2,24.8 -83,48.7 -125.5,71.2 -178.6,94.9 -359.2,186.1 -536.1,284 -731.4,404.8 -1468.9,798.1 -2212.1,1180.8 -327.1,168.5 -651.2,342.4 -971.7,523.2 -698.3,393.9 -1341,861.9 -1922.2,1428.8 8,35.3 18.1,79.5 27.5,120.6 12.1,3.6 17.5,5.9 23.2,6.8 11.4,1.8 22.9,3 34.4,4.3 242.9,28.1 475.7,92.8 697.4,196 64.5,30.1 128,62.4 191.3,95 118.1,60.7 222.2,138.1 296.2,251.3 28.4,43.5 60.2,84.9 89.4,127.8 34.2,50.3 53.8,106.4 62.9,166.2 19.5,128.2 4.6,251.2 -67.7,361 -51.7,78.6 -110.5,152.6 -166.5,228.5 -14.7,19.8 -30.7,38.7 -49.6,62.4 26.1,27.7 48.6,53.6 73.2,77.3 90.1,87 182,172.2 271.1,260.2 130.1,128.5 234.3,275.4 306.9,444.2 52.3,121.4 57.3,243.9 1.5,364.1 -25.7,55.3 -58.6,109.2 -97.6,155.8 -51.7,61.8 -112.6,115.8 -169.6,173.2 -11.6,11.7 -23.1,23.7 -36.3,37.2 50.7,54.8 97.5,105.9 144.8,156.4 133.8,142.7 250.5,297.7 338.7,473 19.9,39.5 39.1,79.6 54.6,120.9 46.3,123.5 35,242 -35.6,354.2 -15.4,24.4 -30.1,49.3 -46.5,73.1 -48.3,70.2 -36.1,223.2 37.5,283 44.8,36.4 89.7,72.8 135,108.5 98.4,77.4 198.3,153 295.5,231.9 110.9,89.9 196.4,200.6 258,329.6 80.1,167.5 96.2,339.2 33.3,516.1 -16.7,47.2 -33.6,94.4 -48,142.3 -22.3,74 -39.2,149.2 -37.5,227.2 2.3,106.5 53.5,182.2 147.7,230.2 42.5,21.6 88,28.2 134.8,24.5 74.8,-6.1 149.7,-12.9 224.3,-20.9 151.7,-16.2 303.2,-24.4 455.6,-7.9 206.5,22.4 380.6,107.6 517,264.3 51.7,59.4 100,122.7 143,188.7 207.9,318.6 362.4,661.5 459.5,1029.9 16.2,61.3 35.3,121.9 52.4,183 5.7,20.3 11,41.1 13.7,62 25,191.6 29.1,383.9 17.5,576.8 -10.7,177.6 -49,350.6 -83.6,524.4 -41.2,206.5 -121.9,396.6 -222.9,579.9 -99.3,180.1 -241.6,307.5 -438.3,371.9 -14.4,4.7 -28.2,11.1 -41.6,16.5 0.6,6.3 -0.1,10.5 1.5,13.5 8,15.3 16.5,30.4 25.1,45.5 116.9,204.4 221.9,414.4 297.3,638 87.1,258.5 133.1,522.3 99.3,796 -15.4,125.1 -45.8,246.3 -98.4,360.9 -154.2,335.5 -421.7,520.4 -779.8,583.9 -216.6,38.3 -399.2,-26.7 -551.9,-181.8 -23,-23.3 -44.4,-48.2 -66.5,-72.3 -7.5,-8.3 -15,-16.5 -32,-35.2 -2.1,30.3 -4.1,47.3 -4.4,64.2 -5,268.1 -30.1,534.5 -60.6,800.7 -62.4,546.2 -206.8,1069.8 -432.2,1570.4 -436.2,968.9 -1126.3,1694.5 -2091.6,2145.4 -528.7,247 -1089.3,382 -1673.4,408.8 -272.3,12.5 -543.1,-6.2 -810.8,-60 -303.9,-61.1 -594.4,-160.6 -869.8,-303.7 -57.8,-30.1 -116.9,-57.7 -174.6,-86 -5.1,6 -8.3,8.5 -9.8,11.8 -2.5,5.1 -4.1,10.8 -5.6,16.3 -49.4,191 -163.4,333 -330.4,434.5 -94.3,57.3 -195,100.6 -301.3,130.4 -269.6,75.8 -544.1,79.4 -819.9,51.8 -248.3,-24.9 -489.5,-84.7 -725.9,-162.8 -943.4,-311.5 -1797.4,-785.9 -2568.4,-1411.4 -703.3,-570.5 -1275.1,-1249.1 -1694.98,-2053.9 -256.98,-492.6 -433.17,-1011.6 -525.18,-1559.5 -2.46,-14.6 -7.52,-28.9 -12.24,-46.6 -21.41,6.1 -39.31,12 -57.62,16.2 -52.48,11.8 -104.62,27.1 -157.79,33.6 -161.65,20 -319.17,-7 -473.02,-54.2 -291.52,-89.6 -540.17,-248.7 -753.55,-466.3 -300.71,-306.6 -461.58,-674 -480.93,-1101.8 -12.36,-272.9 68.72,-516.4 250.56,-724.1 107.95,-123.3 234.89,-222.2 378.07,-300.5 135.18,-73.9 271.4,-146 407.01,-219.1 16.31,-8.8 31.72,-19.3 55.34,-33.7 -26.39,-5.3 -42.85,-9.9 -59.62,-11.7 -115.72,-12.3 -226.82,-42.8 -335.23,-84 -204.56,-77.9 -388.94,-186.1 -532.63,-355.2 -31.18,-36.7 -62.21,-73.6 -93.01,-110.6 -176.42,-212 -250.94,-460.2 -260.26,-731.7 -8.14,-237.3 42.27,-463.3 131.97,-681.3 126.84,-308.2 326.99,-567.1 560.76,-799 232.97,-231.1 504.79,-409.9 803.21,-547.4 13.64,-6.3 26.71,-13.8 38.25,-19.8 25.84,-234.1 55.93,-350.6 145.17,-528.8 49.1,-98.1 102.6,-194.1 157.84,-289 165.62,-284.3 395.74,-504.3 675.48,-675.3 258.78,-158.1 538.5,-235.6 841.6,-222.1 80.5,3.7 160.6,17.9 240.8,27.6 43.5,5.3 86.9,11.5 122.6,16.2 50.4,-58.1 91,-115.6 142.2,-161 50.7,-44.9 112.2,-77.6 171,-117.1 -8.4,-14 -19.2,-29.8 -27.8,-46.7 -46.4,-90.9 -97.2,-179.8 -137.1,-273.4 -72.8,-171.1 -115.9,-350.7 -135.6,-535.9 -3.5,-32 -8.6,-65.5 -21.5,-94.4 -25.1,-56.1 -55.7,-109.8 -85.3,-163.7 -13.8,-25.2 -27.8,-51.2 -46.5,-72.7 -113.5,-131.1 -227.1,-262.1 -343.2,-390.8 -131.7,-145.9 -267.8,-287.8 -398.94,-434.1 -410.15,-457.8 -817.74,-917.9 -1240.3,-1364.4 -219.84,-232.2 -433.02,-471.3 -670.8,-685.7 -406.34,-366.4 -815.33,-729.9 -1223.48,-1094.4 -41.66,-37.2 -85.27,-72.2 -127.74,-108.5 -549.22,-469.7 -1117.24,-916.3 -1681.16,-1368 -260.41,-208.5 -510.64,-428.4 -752.75,-657.7 -114.9,-108.9 -221.42,-225.5 -317.61,-351.2 -21.85,-28.6 -42.2,-61.1 -52.53,-95.1 -20.78,-68.2 31.46,-129.8 102.4,-123.4 26.09,2.3 52.16,12.8 76.68,23.2 159.46,67.8 317.73,138.5 477.83,204.8 337.33,139.6 686.55,228.4 1053.46,237.3 341.39,8.4 676.36,-27.5 1002.35,-136.5 340.54,-113.9 655.93,-275.3 952.54,-477 447.31,-304.1 837.38,-667.6 1151.16,-1108.8 132.73,-186.6 251.89,-382.9 376.17,-575.5 36.53,-56.6 69.27,-115.7 104.13,-173.4 7.93,-13.1 16.34,-26.3 26.47,-37.7 32.91,-37.2 80.23,-48.7 119.95,-30.5 39.74,18.2 63.55,62 51.58,111.4 -13.54,56 -34.62,110.1 -52.1,165.1 -27.97,88 -58.5,175.3 -82.82,264.3 -36.04,131.8 -63.55,266.1 -101.72,397.2 -185.64,638 -471.74,1228.9 -847.32,1775.8 -144.96,211.1 -301.82,414.1 -456.07,618.7 -89.34,118.5 -184.76,232.3 -299.85,327.7 -7.05,5.8 -12.36,13.7 -19.88,22.3 7.41,11 13.17,20.9 20.12,29.8 175.2,224.9 348.5,451.4 526.27,674.3 315.97,396.2 630.37,793.4 931.97,1200.8 270.52,365.4 544.93,728 822.2,1088.3 293.79,381.8 598.99,754.5 919.89,1114 11.8,13.3 20.4,32 43.5,36.7 9.3,-24.3 17.4,-45.7 25.8,-67 90.5,-229.2 178.4,-459.5 272.1,-687.4 241.2,-586.8 568,-1122.6 965.1,-1617 291.5,-363 614.4,-696 951.6,-1015.7 265.4,-251.6 559.2,-465.8 870.4,-656.9 192.4,-118.2 396.4,-213.8 600,-310.5 261.6,-124.3 532.7,-222.1 812.6,-296.4 55.5,-14.8 111,-31.1 164.1,-52.6 50.2,-20.4 80.8,-20.4 120.5,18.5 21.9,21.5 40.9,46.1 59.7,70.4 149.7,193.6 297.4,388.7 448.8,580.9 293.8,372.8 624.8,707.2 1017.9,976.7 17.2,11.7 33.8,24.4 51,36.9 37.9,-17.5 73.9,-31.6 107.4,-50.2 48.8,-27.1 96.9,-55.7 143.3,-86.6 139.6,-93.3 266.8,-202.6 395,-310.6 197.4,-166.4 394,-333.9 597.3,-492.9 224.2,-175.4 469.9,-315.4 741,-407.3 83.9,-28.4 168.9,-53.6 252.4,-82.9 119.8,-42 239,-86 358.1,-130 52.2,-19.2 102.4,-22.6 146.2,17.4 41.6,38 44.9,85 31.8,138 -19.3,78.4 -35.7,157.7 -50.1,237.1 -40.1,221.1 -40.2,444.7 -38.8,668.3 0.1,6.8 4.7,13.6 7.9,22.6 22,-9.7 41.4,-18 60.5,-26.9 226.6,-106.5 452,-215.4 679.9,-319 487.3,-221.6 981.5,-427.1 1479.1,-624.6 425.8,-169 851.8,-337.9 1274.7,-514.4 513.5,-214.4 1023.5,-437.2 1535.5,-655.1 74.3,-31.6 150.8,-58.7 227.6,-83.5 34.1,-11 72,-15.8 107.8,-14.7 45.4,1.3 81.4,25.6 97,70.2 15.4,44.2 3.1,84 -30.3,116.1" style="fill:#231f20;fill-opacity:1;fill-rule:nonzero;stroke:none" id="path114"/>
      <path d="m 18895.5,7235.5 c -91,-24.7 -182.7,-47.2 -273.4,-73.3 -67.2,-19.4 -135.7,-27.2 -205.1,-31 -306.1,-16.6 -610.4,-48.5 -911.6,-107.1 -65.9,-12.8 -131.4,-27.8 -199.2,-36.9 11.8,5.5 23.3,11.6 35.3,16.4 198.1,80.3 396.1,160.7 594.5,240.1 26.4,10.6 54.8,19.7 82.9,22.5 276.3,27.4 553.1,43.7 830.9,34.6 61,-2.1 121.9,-7.6 182.9,-11.5 0.2,-4.6 0.4,-9.2 0.6,-13.8 -45.9,-13.4 -91.6,-27.5 -137.8,-40 z m 1601.4,-358.7 c -43.5,36.7 -94,69.1 -146.7,90.1 -83.7,33.4 -170.6,60.7 -258.3,81.4 -204.9,48.4 -414.3,66 -623.8,81.6 -15.7,1.2 -31.4,3.9 -53.6,6.8 23.7,21.5 42.1,35.7 57.4,52.5 71.1,78.1 56.4,188.1 -33.7,243 -24.2,14.7 -51.9,27.1 -79.6,32.5 -71.7,14 -143.9,27.4 -216.5,34 -224.9,20.7 -450.2,17.5 -675.5,3.9 -14,-0.8 -28,-0.1 -46.8,-0.1 27.3,36.1 52.3,63.1 70.3,94.2 55.6,96 26.3,198.3 -71.7,250.7 -28.4,15.2 -60.1,28.5 -91.7,33.1 -76,10.8 -152.9,21.8 -229.4,22.4 -286.1,2.3 -568.6,-35.8 -849.6,-85.1 -102.1,-18 -203.5,-40.1 -318.6,-63 23,20.3 36.9,32.1 50.4,44.4 66.8,61.1 135.3,120.5 199.8,183.9 77.1,75.8 145,159.7 200.4,253 31.7,53.3 57.4,108.9 68.3,170.7 18.1,102.1 -25.5,186 -123.1,220.4 -46.5,16.4 -97.3,24.2 -146.7,27.7 -104.4,7.3 -207.8,-7.4 -309.8,-28.4 -391.7,-80.6 -759.9,-224.2 -1109.2,-417.3 -92.8,-51.4 -181.9,-109.3 -261.3,-179.9 -37.2,-33.1 -71.2,-70.4 -102.2,-109.3 -16.2,-20.2 -26.7,-47.1 -32.9,-72.7 -8.8,-36 1.4,-69.1 33.8,-91.5 30.3,-21 58.8,-17.5 101.2,12.5 0,13.5 0,28.4 0,47.2 30.4,27.5 59.4,59 93.5,83.4 68.9,49.2 138,99 211.3,140.8 328.3,187 678.4,320.3 1043.4,415 114,29.5 230.3,46.6 348.9,40.7 34.6,-1.8 69.4,-3 96.6,-26.6 14.7,-26.8 5.5,-51.7 -4.9,-73.6 -18,-38.1 -36.4,-77.2 -61.8,-110.5 -46.6,-61.1 -95.6,-121 -148.5,-176.7 -170.7,-179.6 -366.1,-329.8 -569.4,-470.2 -21.8,-15.1 -47.7,-24.6 -72.3,-35.5 -95,-42.1 -191.9,-80.3 -284.7,-126.6 -72.1,-36 -140.2,-80.5 -208,-124.2 -23.7,-15.3 -45.7,-36.8 -60.9,-60.4 -34.2,-52.6 0.3,-112.9 63.1,-113.9 15.1,-0.2 30.9,2.9 45.2,7.9 36.3,12.7 73.9,23.6 107.4,41.8 123.5,66.8 245.4,136.7 368.5,204.3 31.8,17.5 64.7,35.2 99.2,45.2 112.8,32.4 225.8,64.6 340.1,91 296.9,68.6 597.9,112.7 901.7,135.5 136.3,10.2 273.3,14.1 409.3,-7.7 15.6,-2.5 30.5,-8.6 55.6,-16 -28.7,-22.1 -47,-39.1 -67.9,-51.7 -79.3,-47.5 -159.6,-93.2 -239.1,-140.2 -42.3,-25 -88.2,-36.1 -136.3,-43.8 -142.6,-22.6 -285.6,-43.6 -427,-72.3 -238,-48.4 -471.9,-112.7 -696.7,-206.1 -67.3,-28 -132.6,-61.8 -196.3,-97.3 -31.4,-17.5 -60.9,-41.7 -84.7,-68.7 -63.2,-72 -36.3,-157.5 55.5,-183.3 20.2,-5.6 41.6,-9.7 62.5,-9.8 38.4,-0.2 77.1,1 115.2,5.4 132.5,15.6 260.2,52.3 387.2,91.6 19.7,6.1 39.7,11.4 71.9,20.5 -25.2,-20 -41.1,-30.6 -54.5,-43.6 -57.1,-55.8 -37.3,-136.1 39.6,-157.3 21.9,-6.1 45.8,-9.1 68.4,-7.6 117.2,7.3 235.3,9.2 351.1,26.4 262.7,39.2 524.2,86.5 786.3,129.9 85.3,14.1 170.7,35.5 256.5,37.8 354.5,9.3 708.9,2.7 1062,-35 161.1,-17.2 321.2,-40.8 475.6,-91.8 54.5,-18 106.9,-43.2 158.9,-67.9 21.7,-10.4 45.1,-23.3 50.9,-59.2 -18.8,-20.9 -37.9,-48.1 -62.7,-68.1 -46.4,-37.4 -93.2,-75.7 -145,-104.4 -97.6,-54.1 -196.7,-106.3 -298.9,-150.9 -262,-114.2 -535.1,-196.1 -812,-265.1 -423.4,-105.7 -853.7,-168.3 -1288.8,-199 -425.4,-30.1 -850.6,-38.6 -1275.1,13.5 -155,19.1 -308.8,44.6 -457.9,92.4 -22.5,7.2 -44.3,16.5 -66.4,24.9 21.3,17.1 40.8,24.5 61,29 245.1,55.7 491.3,68.9 739.6,21.5 52.6,-10 107.5,-19.1 160.2,-14.5 74.3,6.5 147.7,25.4 221.2,40.7 18.4,3.8 37.2,11.3 53,21.6 52.8,34.4 52.4,94.6 -2.5,125.6 -24.5,13.8 -53.7,22.4 -81.7,26.2 -85.8,11.5 -172.1,20 -258.2,28.8 -51.7,5.2 -103.8,7.1 -155.4,13.4 -190.4,23.1 -380.5,24 -570.2,-6.4 -89.5,-14.3 -178.6,-31.8 -262,-68.5 -40.1,-17.7 -80.5,-38.8 -114,-66.5 -89.3,-73.9 -92.8,-187.3 -9.8,-267.7 25.9,-25.1 57.1,-46.4 89.2,-63 42.5,-22 87.5,-40.1 132.9,-55.6 194.2,-66.3 395.4,-100 598.2,-125.5 212.3,-26.8 425.5,-41.6 639.2,-50.6 519.2,-21.6 1036.1,-2.3 1549.2,85.3 313.8,53.6 623.2,125.3 924.1,229.9 213.4,74.2 420.5,162.3 612.8,282.5 85.2,53.2 165.5,112.8 235.4,185.5 44.4,46.1 83.1,96.3 108.9,155.4 56,128.7 29.5,260.5 -77.6,351.2" style="fill:#231f20;fill-opacity:1;fill-rule:nonzero;stroke:none" id="path116"/>
      <path d="m 15381.9,17605.2 c -160.4,-218.8 -289,-455.4 -390,-706.3 -81.9,-203.5 -154.5,-410.8 -231,-616.5 -4,-10.7 -7.7,-22 -9.1,-33.3 -7.1,-58.4 45.5,-101.3 100.3,-79.9 18.7,7.3 36.7,21.9 49.6,37.5 21.9,26.7 41.8,55.6 58.6,85.8 84,151.5 166.8,303.7 249.8,455.8 76.5,140.3 152.7,280.8 229.3,421 5.7,10.5 14.3,19.4 28,37.5 4.1,-37.2 7.6,-63.6 10,-90.2 16.3,-176.7 45,-350.2 98.5,-520.8 34.4,-109.7 96,-195.3 173.3,-274 11.4,-11.6 29,-17.8 44.6,-24.6 14,-6 29.7,-8 43.6,-14.2 31.7,-14.2 64.1,-14.1 95.9,-4.2 31.2,9.7 61.8,21.7 91.4,35.5 110.2,51.4 214.1,113.6 315.9,180 133.8,87.2 269.5,171.4 405,257.3 47.1,-2.4 78.8,-23.4 107.5,-50.1 36.6,-34.2 72.3,-69.3 109.3,-103.1 78.8,-72.1 165,-132.7 266,-170.3 82.5,-30.6 167.2,-51.3 254.2,-25.4 84.7,25.2 167.7,56.1 250.9,86 15.8,5.7 29.6,17.8 43.6,28 78.4,57.3 137.4,134 202.9,204 35.5,38 65.1,81.1 82.1,131.4 3.1,8.9 6.4,20.7 13.3,25 42.2,26 44.5,70 50.3,111.1 9.3,66.6 16.2,133.7 22.2,200.7 7.2,80.5 16.4,161 17.7,241.6 2.2,138.6 1.3,277.4 -2.9,416 -2.4,80.5 -9.7,161.5 -22,241.2 -30.7,200.3 -85.1,395.2 -143.5,588.8 -80.7,267.3 -152.5,537.9 -262.2,795.1 -103.8,243.4 -178.1,496.3 -260,746.9 -5.9,17.9 -9.5,36.6 -10.8,41.9 29.2,62.3 55,111.8 76,163.2 86,211.3 186.5,414.5 323.2,598.3 10.2,13.6 20.9,26.9 32.3,41.6 36.2,-5.1 70.2,-11.8 104.5,-14.4 199.7,-15.4 399.3,-33.1 599.3,-43.9 275,-14.8 550.3,-24.2 825.5,-36.1 192.4,-8.3 384.9,-14.2 577.1,-25.9 176.2,-10.7 347.2,-45.9 504.1,-132.7 16.8,-9.3 34.9,-16.6 53.2,-22.2 92.9,-28.5 166.3,18.1 180.6,114.2 10.3,68.6 -0.7,134.3 -29.8,197 -41.6,89.5 -103.6,161.8 -185.2,217.1 -89.7,60.7 -184.4,113 -286.4,148.7 -103.4,36.1 -209,66.6 -314.5,96.3 -142.7,40.1 -286.1,77.8 -434.1,94.2 -74.6,8.2 -149.5,14.5 -223.9,24.6 -129.7,17.5 -258.9,38.5 -388.7,55.7 -155,20.6 -311,24 -467.1,16.3 -164.5,-8.2 -308.6,-62.4 -418.1,-191.5 -4.8,-5.8 -11.3,-10.1 -17.4,-15.5 -55.6,3 -101.1,-21.2 -143.5,-52.8 -82.3,-61.1 -155.8,-131.8 -223.1,-209 -121.8,-139.6 -234,-286.9 -330.1,-445.2 -90.9,-149.6 -174.3,-303.9 -260.1,-456.6 -22.3,-39.8 -34.4,-83.2 -15.9,-127.7 44.3,-106.4 85.8,-214.4 137.2,-317.5 47.1,-94.5 105.7,-183.4 159.4,-274.7 60.6,-102.9 122.6,-204.9 181.8,-308.6 76.5,-134.1 142.1,-273.1 187.1,-421.5 29.1,-95.8 62.4,-190.3 93.8,-285.4 90.6,-274.6 169.4,-552.1 208.5,-839.5 22.6,-166.4 36.1,-333.2 16.1,-500.9 -12.8,-107.1 -26.9,-214 -38.8,-321.2 -5,-45.7 -20.7,-86 -50.4,-120.4 -29,-33.4 -57.7,-67.4 -89.8,-97.7 -110.6,-104.4 -305.5,-139.7 -451.8,-56.6 -38.4,21.8 -75.1,46.7 -112.6,70.2 -60.4,37.8 -119,78.8 -181.4,112.8 -189,103.2 -390,126.3 -599.1,80 -86.4,-19.1 -172.4,-40.8 -257.4,-65.2 -88.7,-25.5 -176.4,-54.5 -263.8,-84.2 -86.9,-29.6 -135.1,-90.5 -144.3,-183.4 -2.7,-27 -1.5,-57.1 -21.7,-85.3 -28.5,42.4 -40.9,86.9 -54.2,130.7 -45.2,149.7 -77.1,302.3 -88.9,458.5 -8,105.6 -12.6,211.4 -17.8,317.2 -2.1,42.2 7.2,80.5 53.1,110.9 25.5,-3.6 57.4,-8.1 89.4,-12.5 73.4,-10.1 133.3,36.7 132.9,109 -0.7,121.5 -99.1,192.7 -196.7,171.5 -51.8,-11.3 -98.4,-32.8 -141.4,-63 -67,-46.9 -121.1,-106.3 -169.4,-172.1" style="fill:#231f20;fill-opacity:1;fill-rule:nonzero;stroke:none" id="path118"/>
      <path d="m 11962.8,20273.8 c 28.6,-3.1 58,-4.7 86.5,-1.5 74.5,8.5 149.4,16.6 222.9,30.8 270.9,52.1 535.3,127.8 795.8,218.3 291,101.1 581.6,203.5 874.2,299.6 254.6,83.7 514.6,146.9 782,175.2 112.8,12 224,2.3 329.3,-40.8 80,-32.6 156.9,-73 235,-110.1 24.3,-11.5 47.6,-26.3 72.9,-34.5 110.5,-35.5 208.2,28.5 221.6,143.6 1.3,11.4 1.5,23 2.5,39.7 -2,16 -2.2,37.7 -7.8,57.9 -10.2,37 -21.4,74 -35.9,109.6 -45.4,111 -107.5,213 -172.3,313.5 -48.4,75 -118.8,121.2 -205,138.8 -60,12.2 -122,20.2 -183.2,20.6 -249.8,1.4 -494.5,-41.4 -737.5,-94.6 -278.7,-61.2 -548.4,-154.2 -818.9,-242.9 -296.2,-97.1 -590.3,-201 -884,-305.4 -165.8,-59 -322.3,-137.8 -462.5,-245.7 -80.9,-62.1 -160.7,-125.8 -238.8,-191.4 -21.3,-17.9 -38.7,-43.2 -50.8,-68.6 -8.4,-17.4 -11.3,-43.2 -4.8,-60.9 30.4,-83.4 85.6,-141.3 178.8,-151.2" style="fill:#231f20;fill-opacity:1;fill-rule:nonzero;stroke:none" id="path120"/>
      <path d="m 18984.9,14764.8 c -35.5,-8.1 -72.3,-12.5 -106.5,-24.5 -125.3,-43.8 -249.3,-91.3 -374.7,-135.1 -50.7,-17.6 -102.7,-34 -155.4,-42.7 -154.6,-25.5 -218.4,8.7 -288.2,147.5 -24.3,48.2 -46.5,97.4 -71.9,144.9 -41.6,77.7 -108.8,118.7 -195.8,124.1 -209.7,12.8 -411.4,-18.2 -597.6,-120.9 -67.3,-37.2 -131.5,-80.1 -197.5,-119.7 -23.1,-13.9 -46.7,-26.9 -70.9,-38.6 -20.6,-10 -41,-9.9 -61.4,15.3 0,31 0.3,67.3 -0.1,103.5 -0.5,36.6 2.5,73.8 -3.4,109.5 -10.2,62.1 -56.5,91.2 -118.3,78.5 -22.5,-4.7 -44.8,-11.6 -66.4,-19.4 -103.2,-37.2 -206.4,-74.6 -309.2,-112.9 -213.1,-79.4 -421.8,-168.9 -622.5,-276.2 -146.4,-78.1 -286.5,-166.2 -419.2,-265.8 -36.2,-27.1 -64.4,-60.7 -84.6,-100.8 -10.1,-20.1 -10.7,-41.1 5.7,-59.2 14.8,-16.4 34.6,-18.8 53.3,-12 25.1,9.2 51,19.2 72.6,34.5 62,44 130.7,73.6 200.6,101.2 295.4,116.7 590.7,233.7 886.5,349.2 80.6,31.5 162.9,58.7 244.7,87.2 10.1,3.5 21.7,2.9 33.3,4.2 3.5,-10.1 7.1,-17 8.4,-24.4 18.5,-109.2 97.1,-155.7 208,-137.3 7.6,1.3 15.2,2.7 22.8,4.2 137.8,27.1 275.1,57 413.5,80.9 159,27.4 319.1,48.8 483.2,55.6 13.6,-27.6 25.2,-56.2 41,-82.2 25,-40.9 49.2,-83.1 80.1,-119.4 73.9,-86.7 170.6,-114.5 281.3,-95.6 32.2,5.5 64.4,12.7 95.3,23.1 80.2,27.1 159.7,56.4 239.4,84.7 17.5,6.2 35.2,11.9 52.7,17.8 1.4,-2.5 2.9,-5 4.3,-7.5 -77.4,-62.7 -153.6,-126.9 -232.4,-187.9 -85.7,-66.3 -179.9,-118.2 -281.3,-157.5 -85.3,-33.1 -169.5,-34.6 -252.6,3 -70,31.7 -138.4,67.2 -207.3,101.5 -29.3,14.5 -57.3,31.7 -87.1,45.2 -68.5,31 -139.4,34.8 -206.5,0 -54.3,-28.2 -105.5,-63.1 -155.9,-98 -34.7,-24.1 -65.5,-53.7 -98.3,-80.5 -70.8,-57.8 -150.1,-64.5 -234.3,-37.3 -21.8,7.1 -43,16.8 -63.7,27.1 -82.6,41.2 -164.1,84.8 -247.6,124.2 -97.6,46.2 -199.8,55.2 -304.1,25.2 -48,-13.8 -95.8,-29 -142.6,-46.4 -77.6,-28.8 -153.7,-61.5 -231.5,-89.8 -130.2,-47.3 -259.9,-96.3 -398.2,-116.8 -64.4,-9.6 -125.9,-4.7 -187.4,17.5 -164,59.3 -299.4,156.4 -402.4,297.9 -9,12.3 -18.4,24.9 -29.9,34.8 -13.7,11.8 -30.3,16.4 -48.3,7.6 -19.6,-9.7 -29.6,-26.1 -26.5,-46.8 2.7,-18.7 7,-39 17.1,-54.4 31.6,-48.1 61,-99.2 100.6,-140 114.5,-117.9 257.7,-187.6 416.1,-224.7 44.2,-10.3 92.2,-11.7 137.5,-7.5 84.2,7.9 167.7,23.3 251.6,34.8 287.9,39.5 575.8,79.2 864,117.1 29.6,3.9 62.1,1.3 91,-6.6 92.6,-25.2 185,-51.8 275.6,-83 42.6,-14.6 82.8,-15.4 124.5,-5.5 194.5,46.4 388.9,93.4 587,141 52.2,-20.7 109.4,-43.3 166.6,-66 122,-48.4 242.2,-39.2 358.4,16.6 64.1,30.7 126.7,65.6 186.2,104.4 210.5,136.9 401.1,299.4 588.4,465.9 12.9,11.5 24.8,24.3 35.4,37.9 13.9,17.9 19.3,38.8 6.1,59.1 -11.9,18.4 -30.8,20.9 -51.3,16.2" style="fill:#231f20;fill-opacity:1;fill-rule:nonzero;stroke:none" id="path122"/>
      <path d="m 19524.1,20447.3 c -60.2,23.6 -122.2,42.3 -183.5,63.2 133.7,-9.8 250.1,-64.5 358,-140.7 -58.1,26.1 -115.3,54.3 -174.5,77.5 z m -240.1,-434.5 c -30.9,-142.7 -108.3,-253.2 -233.1,-329.6 -77.7,-47.5 -161.7,-61.7 -249.4,-35.7 -47.6,14.1 -93.9,33.7 -139,54.6 -59,27.3 -98.8,75 -115.3,137.2 -17.1,64.9 -30.9,131.1 -39.9,197.6 -10.8,79.9 5.1,156.9 43.4,232.2 200.8,125.8 419.3,176.2 661.5,135.5 -14.3,-78.6 12.6,-143.1 47.5,-206.8 31.5,-57.6 38.2,-120.7 24.3,-185 z m -292.5,-780 c 7.4,1.8 15.1,2.5 22.7,3.9 167,31.1 318.4,101.4 462.1,188.5 92,55.7 179.7,118.4 269.4,178 7.2,4.8 14.5,9.4 21.8,14.2 -214.4,-230 -470.4,-376.6 -791.6,-390.6 5.1,2 10.2,4.7 15.6,6 z m 1047.4,1021.2 c -96.1,119.3 -207.2,222 -340.5,300 -156.3,91.5 -329.7,113.5 -505.2,125.7 -170.7,11.9 -333.1,-27.9 -489.7,-91.8 -283,-115.3 -478.6,-315.8 -581.5,-604.9 -22.5,-63.5 -47.5,-126.1 -69.9,-189.6 -13.5,-38.2 -35.2,-62.4 -78.9,-63.4 -18.9,-0.4 -38.2,-5.5 -56.3,-11.8 -50.4,-17.4 -83.1,-54.2 -104.5,-101.8 -18.5,-41.4 -19.1,-81.7 8.7,-120.3 5.4,-7.5 7.1,-17.8 10,-27 12.6,-40.3 39.2,-70.2 71.2,-96 44.1,-35.6 93,-44.2 146.3,-23.7 42.1,16.2 78.1,41.4 108.9,74.2 14.3,15.3 28.3,30.9 49.3,53.8 48.5,-79.4 110.1,-133.9 176.7,-183.9 200.9,-150.6 426.3,-225.1 676.5,-197.2 259.3,28.9 490.7,128.1 679.5,313.7 49.4,48.6 96.1,100.1 141.6,152.4 57.4,66 101.9,140 123.4,226.1 8.8,35.3 9.8,69.9 -19.6,96.5 -31.4,28.4 -68.4,25.2 -102.5,7.2 -35.6,-18.8 -70.1,-40.5 -102.1,-64.8 -76.7,-58.3 -151,-119.6 -227.4,-178.3 -125.5,-96.4 -259.7,-179.2 -400.8,-251.2 -60.7,-31 -124.6,-50 -191.9,-60 -66.6,-10 -132.8,-22.9 -199.3,-33.4 -42.1,-6.7 -82.3,-17.1 -110.7,-45 -152,31.3 -250.7,121.6 -316.1,253 -7.7,15.6 -15.1,31.2 -23.4,46.4 -6.5,11.8 -13.2,23.7 -21.5,34.2 -31.7,40.1 -72.6,49.8 -117.7,25.3 -23.5,-12.7 -44.5,-30.3 -66.6,-45.7 -31.2,-21.8 -61,-46.3 -104.5,-56.3 -16.1,18.7 -32.6,37.9 -52.9,61.5 21.6,12.4 35.4,23.7 51.1,28.7 77.3,24.4 119.6,76.4 138,155.2 26.6,114.6 86.5,213.4 160.4,303.9 7.9,9.6 18.5,17.1 32.1,29.6 0,-16.5 1,-25.9 -0.1,-35.1 -10,-77.6 -0.5,-154 16.4,-229.4 20.4,-91 63.6,-170.7 136.4,-229.4 149.6,-120.8 318.9,-167.9 508.2,-117.9 199.2,52.6 325.9,187.2 410.3,369.4 65.8,142.3 74.4,285 14,430.8 -7.1,17 -12.1,34.9 -18.9,55.1 10.2,0 16,1.5 20.5,-0.2 167.6,-61.8 324.6,-142 457.6,-263.6 48.2,-44.1 95,-89.8 142.4,-134.7 39.8,-37.7 92.8,-27.3 110.6,24.9 7.7,22.5 8.4,49.5 4.6,73.3 -12.5,79.2 -41.8,152.9 -92.2,215.5" style="fill:#231f20;fill-opacity:1;fill-rule:nonzero;stroke:none" id="path124"/>
      <path d="m 12980.9,19476.7 c -17.4,-17.7 -32.7,-37.5 -56,-51.8 5.6,10.5 9.8,22.1 17,31.4 162.1,210.4 351,393.5 565.7,549.5 128.8,93.5 277.3,138 431.8,169.1 187.7,37.7 375.4,38 562.6,6.1 110.5,-18.8 214.9,-60.1 306.3,-128.1 25.5,-19 51.1,-38.4 60.9,-75.1 -16.5,7.7 -33,15.3 -49.5,23.3 -100.8,48.6 -204.4,91.2 -314.8,111 -202.7,36.3 -402.5,18.4 -599.4,-40.1 -269.8,-80.1 -510.7,-214.4 -724.9,-395.3 -71.7,-60.5 -133.8,-132.6 -199.7,-200 z m 1100,-230.5 c -220.6,-76.5 -433.9,3.6 -546.9,208.2 -20.1,36.4 -33.9,78 -41.9,118.8 -10.4,52.5 -11.9,106.7 -17.8,165.1 233.6,150.9 484.8,231.1 750.4,255.9 26.8,-42.9 49.7,-80 73.1,-116.8 148.1,-232.4 41.9,-541.4 -216.9,-631.2 z m 443.9,-125.5 c 111,88 203.6,193.6 282.7,311.1 37.6,55.8 75.2,111.8 110.8,168.9 14.1,22.5 26.8,47.7 11.8,78.6 -25.1,16.4 -43.6,8.7 -58.4,-9.5 -13.3,-16.4 -24.5,-34.5 -36.7,-51.8 -55.3,-78.7 -108,-159.5 -166.6,-235.6 -98.7,-128.2 -219.5,-233.3 -361.2,-310.7 -173.5,-94.8 -363.2,-123.4 -558.6,-118 -102,2.9 -195.4,35.1 -283.6,87.8 -121.3,72.5 -220.7,166.9 -302.2,281.3 -20.9,29.3 -41.4,58.9 -61.1,87 65.5,83.7 186,192.6 243.6,219.6 0.9,-19.8 1.5,-38.4 2.5,-56.9 12.2,-229.1 182.6,-439.6 402.3,-497.2 314,-82.5 636.8,102.1 721.7,416 43.8,161.8 28.7,317.1 -71,458 -6.4,9 -11.4,19.1 -20.5,34.8 46.9,3.1 85.6,-7.8 123.6,-17.8 154.3,-40.3 297.9,-103.4 423.2,-204.2 49.3,-39.6 100.9,-43.4 155.1,-10.2 14,8.5 28.7,15.9 48.4,26.7 3.9,-43.2 7.8,-79.5 10.3,-115.8 2.4,-35.8 17.1,-62.9 51.5,-76.5 32.9,-13.1 62.3,-2 84.6,21.1 76.6,79.1 117.3,172.3 93.5,283.6 -21.2,98.7 -111.8,148.9 -207.2,117.5 -27.1,-8.9 -52,-24.5 -77.9,-37.2 -13.2,-6.5 -26.2,-13.2 -40.6,-20.6 -13.6,18.3 -25.5,33.3 -36.3,49.1 -56.9,83.1 -131.4,146.1 -222.2,188.3 -85.7,39.9 -175.2,72.2 -268.8,85.3 -145,20.3 -291.1,32.4 -437.6,14.3 -214.7,-26.4 -416.2,-89.8 -600.7,-206.6 -160.6,-101.8 -301.6,-226 -437.8,-357.3 -167.1,-160.9 -288.4,-349.8 -358.4,-571.1 -5.7,-17.8 -8.1,-38.3 -5.2,-56.5 2.1,-13.2 12.8,-29.1 24.4,-36 48.3,-28.7 101,-16.6 137.5,28.9 55.4,69.1 110.4,138.6 165.8,207.7 11.9,14.8 24.9,28.7 38,43.8 34.2,-27.3 28.8,-68.8 48.6,-97.2 10.8,-5.4 20,-12.6 27.8,-21 56.1,-60.8 108,-126.1 168.7,-181.8 116,-106.4 251.1,-177.5 409.9,-196.7 120.2,-14.6 239.2,-3.8 355.2,27 175.9,46.5 329.6,137.8 471.1,249.8" style="fill:#231f20;fill-opacity:1;fill-rule:nonzero;stroke:none" id="path126"/>
      <path d="m 17931.4,13819.8 c -16.3,-5.1 -31.8,-13.9 -46.3,-23.1 -42.4,-26.6 -84.2,-54.2 -126.1,-81.5 -130.8,-85.2 -271.7,-145.1 -427.4,-164.6 -66.8,-8.4 -134.5,-9.4 -201.5,-16.2 -130.2,-13.2 -260.4,-26.2 -390.1,-42.9 -110.7,-14.2 -220.3,-36.6 -331,-49.5 -115.9,-13.4 -205.9,35.5 -271.1,130.9 -19.6,28.6 -36.5,59 -56.1,87.6 -10.8,15.7 -22.7,31.8 -37.6,43.2 -29.5,22.6 -63.7,8.8 -68.5,-27.9 -2.7,-20.5 -1.3,-42.6 3.5,-62.9 18.8,-80.4 56,-151.3 115.8,-209.3 13.7,-13.3 27.5,-26.4 46.8,-44.8 -34.2,-45.8 -66.1,-86.6 -96.1,-128.9 -67.8,-95.8 -138,-190.2 -201,-289.1 -79.2,-124.1 -131.1,-261.3 -172.3,-402.2 -9.1,-30.9 -12.3,-64.3 -12.8,-96.7 -0.7,-39.7 18.8,-71.1 56.6,-86.2 40.1,-15.9 77,-5.8 104.9,26.3 74.9,86.5 165.3,155.7 252.7,228.1 134.3,111.5 282.6,200.5 445.1,264.4 339.2,133.5 684.8,245.1 1046.4,301.1 62.7,9.8 125,22.7 186.9,36.7 84.1,19 138.9,69.2 162,154.5 12,44.4 30.6,86.9 46.4,130.3 21.8,59.6 45.5,118.7 64.7,179.1 7.9,25 10.7,53.5 7.8,79.5 -5.7,51.4 -52.3,79.6 -101.7,64.1" style="fill:#231f20;fill-opacity:1;fill-rule:nonzero;stroke:none" id="path128"/>
      <path d="m 13108.3,19961.5 c 153.8,118.9 307.6,237.8 460.7,357.4 53.1,41.5 105.4,84.1 156.1,128.3 18.4,16 35.5,36.3 45.8,58.1 18.7,39.3 -8.3,80.5 -51.8,80.9 -18.4,0.2 -38.3,-5.3 -55,-13.5 -29.3,-14.2 -57.6,-31.1 -84.7,-49.3 -162.9,-109.3 -326.9,-217.2 -487.6,-329.9 -152.8,-107.3 -299.2,-223.2 -438.2,-348.2 -81.8,-73.6 -158.4,-152.1 -217.9,-245.2 -17.4,-27.1 -33,-57.4 -40.5,-88.3 -12.4,-51.5 23.4,-95.1 85.5,-96.1 9.8,4.4 32.7,10.7 50.4,23.8 26.1,19.4 50.3,42 72.3,66 153.8,168.2 324.9,316.9 504.9,456" style="fill:#231f20;fill-opacity:1;fill-rule:nonzero;stroke:none" id="path130"/>
      <path d="m 20523.6,19963.9 c -58,115.3 -118,229.7 -197.3,332.1 -91.2,117.7 -194.3,224.3 -309,319.2 -121,100.1 -253.3,182.3 -401,237 -42.9,15.9 -88.9,23.3 -124.5,32.3 -23.6,-3.7 -37.2,-4.6 -50.1,-8.1 -60,-16.3 -75.1,-70.8 -29.8,-113.9 20.6,-19.6 46,-34.9 70.9,-49.1 83.9,-47.3 167.1,-96 253.2,-139.1 182.3,-91.2 330.5,-224.6 469.2,-370.4 55,-57.7 97.1,-123.9 129.1,-197.2 17.6,-40.4 39.8,-79 61.4,-117.6 8.3,-15 19.2,-29 31,-41.5 25.1,-26.7 56.6,-34.4 83.3,-22.4 27.1,12.2 40.3,40.2 33.2,78.6 -3.8,20.5 -10.2,41.4 -19.6,60.1" style="fill:#231f20;fill-opacity:1;fill-rule:nonzero;stroke:none" id="path132"/>
      <path d="m 14939.7,18878.6 c 62.2,95.6 110.7,197.8 145.5,306.6 24.4,76.3 29.8,154.7 30.2,233.7 0.1,20.9 -4.2,42.4 -10.3,62.4 -8.8,28.6 -18.7,31.7 -59.7,24.2 -3.5,-7.2 -9.2,-15.3 -11.3,-24.3 -4,-16.7 -6.7,-33.9 -8.7,-51 -17.6,-148.7 -55.4,-291.7 -132.4,-421 -130.6,-219.3 -319.1,-343.7 -581,-343.8 -65.3,-0.1 -130.7,-4.8 -195.8,-10.1 -28.4,-2.3 -57.1,-9 -84.1,-18.4 -33.9,-11.9 -49.9,-36.9 -46.3,-64.9 3.8,-30.9 24.6,-48.1 52.5,-54.2 28,-6.2 57,-9.8 85.7,-10.9 152.2,-5.8 299.2,25 440.5,77.4 155.2,57.6 283.7,153.6 375.2,294.3" style="fill:#231f20;fill-opacity:1;fill-rule:nonzero;stroke:none" id="path134"/>
      <path d="m 16768.5,16062.2 c -37.8,-31 -44.6,-65.9 -53.4,-98.4 -42.3,-155.9 -32.3,-303.5 64.2,-440.8 63.2,-90 127.7,-178.5 204.3,-257.4 22.6,-23.2 49.3,-42.7 75.6,-61.9 7.5,-5.5 20.1,-4.2 36.2,-7 -2.9,16.6 -2.3,28.6 -7.1,37.6 -16.2,30.4 -32.9,60.7 -52.1,89.3 -67.5,100.6 -136.8,200.1 -204.1,300.8 -61.8,92.3 -78.7,194.4 -63.6,303.6 5.6,40.8 8.9,82.6 0,134.2" style="fill:#231f20;fill-opacity:1;fill-rule:nonzero;stroke:none" id="path136"/>
      <path d="m 19033.6,20233.9 c -53,41.4 -110.6,49.7 -173.6,29.8 -7.3,-2.3 -15.3,-1.8 -22.8,-3.3 -109.8,-22.1 -184,-113.9 -183.2,-226.5 0.9,-115.8 62.1,-206.5 163.4,-230.7 190.6,-45.4 314.3,80.6 309.2,253.1 -2.2,73 -34.6,132.2 -93,177.6" style="fill:#231f20;fill-opacity:1;fill-rule:nonzero;stroke:none" id="path138"/>
      <path d="m 14039.3,19849.3 c -5.1,2.6 -11.2,4.3 -15.1,8.1 -36.5,35.3 -80.3,32.7 -124.4,22.9 -63.3,-14.1 -119.8,-42.5 -163.3,-91.3 -50.6,-56.7 -79.9,-123 -68.7,-200.4 17.3,-119.6 113.1,-197.8 238.3,-198.3 104.5,-0.4 195.3,57.2 239,151.7 55.1,119.3 11.1,247 -105.8,307.3" style="fill:#231f20;fill-opacity:1;fill-rule:nonzero;stroke:none" id="path140"/>
      <path d="m 13844.3,19703.3 c 0,-67 -54.3,-121.3 -121.3,-121.3 -67,0 -121.3,54.3 -121.3,121.3 0,67 54.3,121.3 121.3,121.3 67,0 121.3,-54.3 121.3,-121.3" style="fill:#ffffff;fill-opacity:1;fill-rule:nonzero;stroke:none" id="path142"/>
      <path d="m 18829.3,20134.9 c 0,-67 -54.3,-121.3 -121.3,-121.3 -67,0 -121.3,54.3 -121.3,121.3 0,67 54.3,121.3 121.3,121.3 67,0 121.3,-54.3 121.3,-121.3" style="fill:#ffffff;fill-opacity:1;fill-rule:nonzero;stroke:none" id="path144"/>
    </g>
  </g>
</svg>