<?xml version="1.0" encoding="utf-8"?>
<svg viewBox="211.13 3550.573 1685.737 234.575" xmlns="http://www.w3.org/2000/svg">
  <path d="m 1967.86,2981.8 c -7.63,-103 -17.16,-236.4 -24.78,-375.5 32.4,-7.6 70.52,-15.3 110.55,-21 11.43,-1.9 24.77,-3.8 38.12,-5.7 11.43,-1.9 24.77,-3.8 36.21,-5.7 5.72,-1.9 11.43,-1.9 17.15,-3.8 5.72,0 11.44,0 17.16,-1.9 5.72,0 11.44,0 15.24,-1.9 5.72,0 9.54,0 15.25,0 3.82,0 9.53,-1.9 13.34,-1.9 3.82,0 7.63,0 11.44,0 7.63,0 13.34,0 19.06,0 1.91,0 5.72,0 7.62,0 1.91,0 3.82,0 3.82,0 3.81,0 3.81,0 3.81,0 l 7.62,-76.3 c 0,0 -1.9,0 -5.72,0 -1.9,0 -3.81,0 -5.71,-1.9 -3.82,0 -5.72,0 -9.53,0 -5.72,0 -13.34,0 -22.88,0 -3.81,0 -7.62,0 -13.34,0 -3.81,0 -9.53,0 -15.24,0 -3.82,0 -9.54,0 -15.25,1.9 -5.72,0 -11.44,0 -17.16,0 -5.71,0 -11.43,1.9 -17.15,1.9 -5.72,0 -13.34,0 -19.06,1.9 -13.34,0 -24.78,1.9 -38.12,3.8 -13.34,1.9 -26.68,1.9 -40.02,3.9 -36.22,5.7 -70.52,9.5 -102.93,15.2 -13.34,-318.3 -15.25,-636.6 34.31,-667.1 -24.78,-66.7 -150.57,-116.3 -215.38,-118.2 -278.27,-7.6 -142.95,935.9 -118.16,1370.4 11.43,322.2 663.28,122 747.14,146.8 0,0 55.27,-327.8 -177.26,-293.5 -93.39,13.3 -175.35,24.8 -240.15,28.6" style="fill:#100f0d;fill-opacity:1;fill-rule:nonzero;stroke:none" id="path14" transform="matrix(0.133333, 0, 0, -0.133333, 0, 4000)"/>
  <path d="m 2497.69,2209.8 c 123.88,-7.6 171.53,53.4 190.59,91.5 13.34,26.7 28.59,110.6 -45.74,112.5 -22.87,1.9 -108.64,7.6 -144.85,-204 z m 577.51,181.1 c -322.11,-600.4 -960.62,-771.9 -865.32,-202 57.18,343.1 369.76,360.2 466.97,329.7 76.24,-24.8 144.85,-118.2 60.99,-253.5 -57.18,-93.4 -179.16,-104.8 -247.78,-102.9 -51.46,-459.3 480.31,122 547.02,259.2 l 38.12,-30.5" style="fill:#100f0d;fill-opacity:1;fill-rule:nonzero;stroke:none" id="path16" transform="matrix(0.133333, 0, 0, -0.133333, 0, 4000)"/>
  <path d="m 3330.54,2838.8 c 0,11.5 13.35,160.1 -51.46,253.5 -9.53,-125.8 -20.96,-291.6 -28.59,-457.4 36.22,49.5 68.62,114.3 80.05,203.9 z m -223,-996.8 c -5.71,-1.9 -11.43,-1.9 -19.05,-1.9 -1.91,0 -1.91,0 -1.91,0 -234.44,1.9 -116.26,1216 -112.45,1261.7 17.15,169.7 22.87,272.6 106.73,268.8 1.91,0 64.8,0 131.51,-45.8 40.03,-26.6 72.43,-62.9 101.02,-106.7 32.4,-55.3 55.27,-122 66.71,-200.1 20.96,-137.2 5.72,-259.2 -49.56,-360.2 -24.77,-45.8 -55.27,-83.9 -83.86,-112.5 -5.72,-139.1 -7.62,-270.7 -5.72,-373.6 7.63,-118.1 17.16,-135.3 93.4,-85.7 177.25,112.4 278.27,314.4 278.27,314.4 l 53.37,-20.9 c -9.54,-34.3 -253.5,-436.5 -495.56,-524.2 -20.96,-9.5 -43.83,-13.3 -62.9,-13.3" style="fill:#100f0d;fill-opacity:1;fill-rule:nonzero;stroke:none" id="path18" transform="matrix(0.133333, 0, 0, -0.133333, 0, 4000)"/>
  <path d="m 3589.72,2825.5 c 0,80 64.8,142.9 142.94,142.9 78.15,0 142.95,-62.9 142.95,-142.9 0,-78.2 -64.8,-143 -142.95,-143 -78.14,0 -142.94,64.8 -142.94,143 z m 670.9,-406 c -22.88,-40 -211.57,-571.8 -537.49,-560.3 -303.05,11.4 -116.26,632.7 -139.13,712.8 0,0 287.8,53.4 255.4,-169.6 -41.93,-289.8 -36.22,-444.1 95.3,-352.7 135.32,95.3 270.65,390.8 270.65,390.8 l 55.27,-21" style="fill:#100f0d;fill-opacity:1;fill-rule:nonzero;stroke:none" id="path20" transform="matrix(0.133333, 0, 0, -0.133333, 0, 4000)"/>
  <path d="m 4859.08,2638.7 c 0,0 -13.34,-11.4 -36.21,-28.6 -11.44,-9.5 -24.78,-21 -40.03,-34.3 -15.25,-13.3 -32.4,-28.6 -51.46,-45.8 -19.06,-17.1 -38.12,-36.2 -59.09,-57.1 -20.96,-21 -41.93,-42 -64.8,-64.8 -20.97,-22.9 -43.84,-45.8 -66.71,-70.6 -1.9,-1.9 -1.9,-1.9 -3.81,-3.8 89.58,-221.1 83.86,-266.8 150.57,-282 40.03,-144.9 -20.96,-177.3 -78.15,-192.5 -118.16,-21 -203.93,93.3 -274.45,242 -17.16,-21 -34.31,-41.9 -49.56,-62.9 -19.06,-22.9 -36.21,-43.8 -51.46,-62.9 -15.25,-21 -30.5,-40 -41.93,-55.3 -13.34,-17.1 -24.78,-30.5 -32.41,-41.9 -19.05,-24.8 -28.58,-38.1 -28.58,-38.1 l -78.15,61 c 0,0 11.44,13.3 30.49,36.2 9.54,11.4 20.97,24.8 34.32,41.9 13.34,15.3 28.59,34.3 45.74,53.4 17.15,19.1 34.31,41.9 53.37,62.9 19.06,22.9 40.02,45.7 62.89,70.5 5.72,5.7 11.44,13.4 17.16,21 -68.62,167.7 -123.89,352.6 -186.79,432.6 0,0 209.66,205.9 365.95,-141 11.43,-24.8 20.96,-49.6 30.49,-72.4 17.16,17.1 36.22,34.3 51.46,51.4 24.78,21 47.66,43.9 68.62,62.9 22.87,21 43.84,38.1 62.9,55.3 20.97,17.1 40.02,32.4 55.27,45.7 17.16,13.4 32.4,24.8 43.84,32.4 24.77,19.1 38.12,28.6 38.12,28.6 l 32.4,-43.8" style="fill:#100f0d;fill-opacity:1;fill-rule:nonzero;stroke:none" id="path22" transform="matrix(0.133333, 0, 0, -0.133333, 0, 4000)"/>
  <path d="m 5985.42,2850.3 c -1.9,0 -1.9,0 -1.9,0 0,0 0,0 1.9,0 z m 806.23,-913 c -20.96,-59.1 -144.85,-110.6 -209.65,-114.4 -285.9,-19 -141.05,751 -114.36,1128.4 7.62,83.8 -78.15,57.1 -110.55,7.6 -3.81,-5.7 -7.62,-11.4 -9.53,-17.2 -15.25,-24.7 -28.59,-49.5 -40.03,-78.1 -24.77,-57.2 -43.83,-123.9 -59.08,-194.4 -7.62,-36.2 -15.25,-72.4 -20.96,-110.6 -7.63,-38.1 -13.35,-76.2 -17.16,-116.2 -5.72,-40 -11.43,-80.1 -17.15,-122 0,-11.4 -1.91,-21 -3.81,-32.4 -1.91,-5.7 -1.91,-11.4 -3.82,-17.2 0,-3.8 -1.9,-5.7 -3.81,-9.5 0,-1.9 0,-5.7 -1.91,-7.6 0,0 -1.9,-1.9 -1.9,-3.8 l -1.91,-1.9 c 0,-1.9 -1.9,-1.9 -1.9,-3.8 -1.91,-2 -1.91,-3.9 -3.82,-3.9 -1.9,-1.9 -3.81,-3.8 -7.62,-5.7 -1.9,-1.9 -7.62,-3.8 -11.43,-3.8 -7.63,0 -13.34,0 -11.44,0 -7.63,1.9 -5.72,1.9 -9.53,3.8 -1.91,1.9 -3.82,1.9 -5.72,3.8 -1.9,1.9 -3.81,3.8 -5.72,5.8 -1.9,1.9 -3.81,5.7 -5.71,7.6 0,1.9 -1.91,3.8 -1.91,5.7 -1.91,3.8 -3.81,7.6 -5.72,9.5 0,3.8 -1.91,5.7 -1.91,9.6 -3.8,11.4 -7.62,22.8 -9.52,32.4 -3.82,22.8 -9.53,43.8 -13.35,64.8 -3.81,20.9 -5.72,41.9 -9.52,62.9 -7.63,43.8 -13.35,85.7 -20.97,127.7 -7.63,41.9 -13.35,85.7 -20.97,125.8 -3.81,20.9 -9.53,41.9 -13.34,62.8 -3.81,19.1 -9.53,40.1 -15.25,59.1 -1.91,-5.7 -3.81,-9.5 -3.81,-13.3 -3.81,-9.5 -5.72,-19.1 -9.53,-28.6 -1.91,-9.5 -3.81,-19.1 -5.72,-28.6 -3.81,-9.5 -5.72,-19 -7.62,-28.6 -15.25,-78.1 -26.69,-154.4 -36.22,-226.8 -9.52,-74.3 -19.05,-142.9 -26.68,-207.7 -7.62,-62.9 -15.25,-122 -20.96,-173.5 -7.63,-51.4 -15.25,-97.2 -20.97,-135.3 -1.9,-9.5 -1.9,-17.2 -3.81,-24.8 -1.91,-9.5 -3.81,-17.1 -3.81,-24.8 -3.82,-13.3 -5.72,-26.6 -7.63,-36.2 0,-5.7 0,-9.5 -1.9,-13.3 v -1.9 c -30.5,-137.3 -169.64,-160.1 -234.44,-160.1 -339.26,-9.6 -72.42,1360.8 -123.89,1553.3 0,0 364.04,82 337.36,-270.6 -13.34,-154.4 -24.78,-381.2 -28.59,-588.9 9.53,34.3 17.15,68.6 26.69,104.8 9.53,36.2 19.05,72.4 30.49,110.5 3.81,19.1 9.53,38.1 15.25,57.2 5.72,19.1 11.43,40 17.15,59.1 1.91,9.5 5.72,19 7.63,30.5 3.81,9.5 7.62,19 9.52,28.6 3.82,11.4 7.63,20.9 11.44,30.5 3.81,11.4 7.63,20.9 13.34,32.4 1.91,5.7 3.81,11.4 7.63,17.1 1.9,5.7 5.71,11.5 9.53,17.2 3.81,3.8 5.72,5.7 9.53,9.5 3.81,3.8 7.62,7.6 13.34,11.4 3.81,3.9 7.62,5.8 13.34,5.8 1.91,1.9 5.72,1.9 9.53,1.9 h 3.81 3.81 c 7.63,0 13.35,-1.9 17.16,-3.8 3.81,-1.9 7.62,-3.9 11.44,-7.7 5.71,-3.8 9.52,-7.6 11.43,-11.4 3.81,-3.8 5.72,-7.6 7.62,-11.4 3.82,-5.8 5.72,-11.5 7.63,-19.1 5.71,-11.4 9.53,-21 11.44,-32.4 5.71,-22.9 11.43,-43.8 15.24,-64.8 3.81,-22.9 7.63,-43.8 11.44,-64.8 7.62,-43.8 13.34,-85.8 19.06,-127.7 3.81,-22.9 5.72,-43.8 9.52,-64.8 3.82,-21 5.72,-41.9 9.54,-62.9 1.91,-15.3 3.81,-30.5 5.71,-45.7 1.91,17.1 5.72,32.4 7.63,47.6 5.72,40 11.44,80 17.15,118.2 5.72,40 13.34,76.2 20.97,114.3 9.53,36.2 17.15,72.5 26.68,106.8 11.44,34.3 20.97,66.7 34.31,97.2 11.44,32.4 26.68,61 41.93,87.6 15.25,28.6 34.31,53.4 53.37,74.4 19.06,19 40.02,36.2 60.99,47.6 1.91,1.9 3.81,1.9 5.72,3.8 24.77,13.4 47.65,19.1 70.52,22.9 1.91,0 3.81,0 5.71,1.9 0,0 251.6,53.4 257.31,-213.5 0,-1.9 0,-3.8 0,-5.7 0,-1.9 0,-1.9 0,-3.8 v -1.9 c 0,-5.7 0,-11.4 0,-19 -13.34,-320.3 -34.3,-901.6 47.65,-943.5" style="fill:#100f0d;fill-opacity:1;fill-rule:nonzero;stroke:none" id="path24" transform="matrix(0.133333, 0, 0, -0.133333, 0, 4000)"/>
  <path d="m 7088.93,2209.8 c 123.89,-7.6 171.54,53.4 190.6,91.5 13.34,26.7 28.59,110.6 -45.75,112.5 -22.87,1.9 -108.64,7.6 -144.85,-204 z m 577.51,181.1 c -322.11,-600.4 -960.61,-771.9 -865.31,-202 57.18,343.1 369.75,360.2 466.96,329.7 76.24,-24.8 144.85,-118.2 60.99,-253.5 -57.18,-93.4 -179.16,-104.8 -247.78,-102.9 -51.46,-459.3 480.31,122 547.02,259.2 l 38.12,-30.5" style="fill:#100f0d;fill-opacity:1;fill-rule:nonzero;stroke:none" id="path26" transform="matrix(0.133333, 0, 0, -0.133333, 0, 4000)"/>
  <path d="m 8362.08,2423.3 c 0,0 -83.87,-163.9 -118.17,-223 -15.25,-28.6 -34.32,-61 -59.09,-91.5 -13.34,-15.2 -26.69,-30.5 -43.84,-43.8 -3.81,-3.8 -9.53,-5.7 -13.34,-9.5 -5.72,-1.9 -9.53,-5.8 -15.25,-7.7 -3.81,0 -5.72,-1.9 -9.53,-3.8 h -5.72 c 0,-1.9 -1.9,-1.9 -1.9,-1.9 h -7.63 c 1.91,0 -1.9,0 -1.9,0 h -1.91 -1.91 c -1.9,0 -3.8,0 -5.71,0 -7.63,0 -15.25,1.9 -22.87,7.6 -7.63,3.9 -15.25,11.5 -19.06,19.1 -9.53,13.3 -11.44,28.6 -15.25,41.9 -3.81,26.7 -3.81,51.5 -3.81,74.4 1.9,47.6 5.71,93.4 9.53,139.1 1.9,22.9 3.81,45.8 3.81,66.7 0,21 0,41.9 -1.91,57.2 -1.9,7.6 -5.72,9.5 -9.53,11.4 -3.81,1.9 -11.43,-1.9 -15.24,-5.7 -3.82,-3.8 -7.63,-7.6 -11.44,-11.4 -9.53,-13.4 -19.06,-30.5 -26.68,-45.8 -9.54,-17.1 -17.16,-34.3 -24.78,-51.4 -13.34,-34.3 -26.68,-66.7 -36.22,-99.1 -20.96,-62.9 -36.21,-118.2 -45.74,-154.4 -5.72,-19.1 -17.15,-62.9 -17.15,-62.9 -34.31,-133.4 -114.36,-150.6 -165.82,-152.5 -278.27,-9.5 -57.18,592.8 -101.02,800.5 0,0 299.24,85.8 276.37,-289.7 0,-3.8 0,-7.6 0,-9.5 38.12,66.7 110.54,171.5 175.35,169.6 80.05,-1.9 64.8,-144.8 53.37,-238.2 0,-13.4 -1.91,-28.6 -3.82,-42 0,-3.8 0,-7.6 0,-11.4 -3.81,-24.8 -5.72,-49.6 -7.62,-72.4 0,-21 0,-43.9 1.9,-61 1.91,-7.6 3.82,-15.3 5.72,-19.1 1.91,-1.9 1.91,-1.9 1.91,-1.9 1.91,0 1.91,-1.9 3.81,-1.9 0,0 0,0 1.9,0 l 5.72,1.9 c 1.91,0 3.82,0 3.82,0 h 1.9 c 0,1.9 1.91,1.9 3.81,1.9 1.91,1.9 5.72,1.9 9.53,3.8 1.91,1.9 5.72,3.8 9.54,7.7 11.43,7.6 22.87,20.9 34.3,32.4 22.87,26.6 41.93,55.2 57.18,83.8 32.4,55.3 114.36,211.6 114.36,211.6 l 40.03,-19.1" style="fill:#100f0d;fill-opacity:1;fill-rule:nonzero;stroke:none" id="path28" transform="matrix(0.133333, 0, 0, -0.133333, 0, 4000)"/>
  <path d="m 8613.61,2438.6 c -55.27,1.9 -232.53,1.9 -243.96,-129.6 -11.44,-139.2 173.44,-59.1 243.96,129.6 z m 615.63,-68.6 c -17.15,-45.8 -141.04,-436.5 -510.8,-415.6 -150.57,9.6 -154.38,154.4 -131.51,305 -45.74,-82 -173.44,-186.8 -301.14,-156.3 -194.41,43.9 -135.33,301.2 34.3,394.5 125.8,68.7 253.5,49.6 308.77,36.3 41.93,324 43.84,789 38.12,819.5 0,0 337.36,30.5 297.33,-282.1 -41.93,-335.4 -169.63,-1025.4 15.25,-903.4 152.48,101 203.94,234.5 203.94,234.5 l 45.74,-32.4" style="fill:#100f0d;fill-opacity:1;fill-rule:nonzero;stroke:none" id="path30" transform="matrix(0.133333, 0, 0, -0.133333, 0, 4000)"/>
  <path d="m 9366.46,2209.8 c 123.89,-7.6 171.54,53.4 190.6,91.5 13.34,26.7 28.59,110.6 -45.74,112.5 -22.87,1.9 -108.64,7.6 -144.86,-204 z m 577.51,181.1 c -322.1,-600.4 -960.61,-771.9 -865.31,-202 57.18,343.1 369.76,360.2 466.97,329.7 76.24,-24.8 144.85,-118.2 60.99,-253.5 -57.18,-93.4 -179.16,-104.8 -247.78,-102.9 -51.46,-459.3 480.31,122 547.01,259.2 l 38.12,-30.5" style="fill:#100f0d;fill-opacity:1;fill-rule:nonzero;stroke:none" id="path32" transform="matrix(0.133333, 0, 0, -0.133333, 0, 4000)"/>
  <path d="m 10199.3,2838.8 c 0,11.5 13.4,160.1 -51.4,253.5 -9.6,-125.8 -21,-291.6 -28.6,-457.4 36.2,49.5 68.6,114.3 80,203.9 z M 9976.33,1842 c -5.72,-1.9 -11.44,-1.9 -19.06,-1.9 -1.91,0 -1.91,0 -1.91,0 -234.43,1.9 -116.26,1216 -112.45,1261.7 17.15,169.7 22.87,272.6 106.73,268.8 1.91,0 64.76,0 131.56,-45.8 40,-26.6 72.4,-62.9 101,-106.7 32.4,-55.3 55.2,-122 66.7,-200.1 20.9,-137.2 5.7,-259.2 -49.6,-360.2 -24.7,-45.8 -55.2,-83.9 -83.8,-112.5 -5.8,-139.1 -7.7,-270.7 -5.8,-373.6 7.7,-118.1 17.2,-135.3 93.4,-85.7 177.3,112.4 278.3,314.4 278.3,314.4 l 53.4,-20.9 c -9.6,-34.3 -253.5,-436.5 -495.6,-524.2 -20.9,-9.5 -43.81,-13.3 -62.87,-13.3" style="fill:#100f0d;fill-opacity:1;fill-rule:nonzero;stroke:none" id="path34" transform="matrix(0.133333, 0, 0, -0.133333, 0, 4000)"/>
  <path d="m 10633.9,1748.6 c 3.8,-1.9 7.6,-3.8 11.4,-5.7 36.2,-13.4 66.7,-15.3 80,26.7 34.3,112.4 -53.3,221.1 -162,364 -11.4,-24.8 -19,-49.5 -24.8,-74.3 -7.6,-34.3 -11.4,-70.6 -9.5,-104.9 1.9,-15.2 3.8,-32.4 5.7,-49.5 3.8,-15.3 7.7,-32.4 11.5,-45.7 7.6,-26.7 20.9,-49.6 36.2,-68.7 15.2,-17.1 34.3,-30.5 51.5,-41.9 z m 543.2,571.8 c 0,0 -293.6,158.2 -430.8,36.2 179.2,-268.7 425,-554.6 186.8,-695.7 -47.7,-22.8 -135.3,-64.8 -228.7,-43.8 -1.9,0 -1.9,0 -1.9,0 -1.9,0 -5.8,0 -7.7,1.9 -11.4,1.9 -28.5,5.7 -47.6,13.3 -19.1,5.8 -41.9,17.2 -66.7,32.4 -22.9,15.3 -49.6,36.2 -72.4,64.8 -22.9,28.6 -42,64.8 -53.4,103 0,5.7 -1.9,11.4 -1.9,15.2 l -1.9,3.8 v 3.8 l -1.9,7.7 -1.9,5.7 v 7.6 c -1.9,5.7 -1.9,11.4 -1.9,15.3 -3.9,19 -5.8,40 -5.8,60.9 0,42 3.9,83.9 15.3,127.7 11.4,42 28.6,82 49.5,120.1 1.9,1.9 1.9,3.8 3.9,5.7 -21,28.6 -42,59.1 -62.9,91.5 -261.2,407.9 160.1,482.2 160.1,482.2 -40.1,-99.1 17.1,-226.8 101,-362.1 209.6,116.3 463.1,-51.5 463.1,-51.5 l 7.7,-45.7" style="fill:#100f0d;fill-opacity:1;fill-rule:nonzero;stroke:none" id="path36" transform="matrix(0.133333, 0, 0, -0.133333, 0, 4000)"/>
  <path d="m 11323.8,1748.6 c 3.8,-1.9 7.6,-3.8 11.4,-5.7 36.2,-13.4 66.7,-15.3 80.1,26.7 34.3,112.4 -53.4,221.1 -162,364 -11.5,-24.8 -19.1,-49.5 -24.8,-74.3 -7.6,-34.3 -11.4,-70.6 -9.5,-104.9 1.9,-15.2 3.8,-32.4 5.7,-49.5 3.8,-15.3 7.6,-32.4 11.4,-45.7 7.6,-26.7 21,-49.6 36.2,-68.7 15.3,-17.1 34.3,-30.5 51.5,-41.9 z m 543.2,571.8 c 0,0 -293.5,158.2 -430.8,36.2 179.2,-268.7 425.1,-554.6 186.8,-695.7 -47.6,-22.8 -135.3,-64.8 -228.7,-43.8 -1.9,0 -1.9,0 -1.9,0 -1.9,0 -5.7,0 -7.6,1.9 -11.5,1.9 -28.6,5.7 -47.7,13.3 -19,5.8 -41.9,17.2 -66.7,32.4 -22.8,15.3 -49.5,36.2 -72.4,64.8 -22.9,28.6 -41.9,64.8 -53.4,103 0,5.7 -1.9,11.4 -1.9,15.2 l -1.9,3.8 v 3.8 l -1.9,7.7 -1.9,5.7 v 7.6 c -1.9,5.7 -1.9,11.4 -1.9,15.3 -3.8,19 -5.7,40 -5.7,60.9 0,42 3.8,83.9 15.2,127.7 11.5,42 28.6,82 49.6,120.1 1.9,1.9 1.9,3.8 3.8,5.7 -21,28.6 -41.9,59.1 -62.9,91.5 -261.1,407.9 160.1,482.2 160.1,482.2 -40,-99.1 17.2,-226.8 101,-362.1 209.7,116.3 463.2,-51.5 463.2,-51.5 l 7.6,-45.7" style="fill:#100f0d;fill-opacity:1;fill-rule:nonzero;stroke:none" id="path38" transform="matrix(0.133333, 0, 0, -0.133333, 0, 4000)"/>
  <path d="m 12130,2430.9 c 3.8,-7.6 9.5,-13.3 15.2,-19 9.6,-9.5 19.1,-17.2 32.4,-22.9 5.8,-3.8 13.4,-7.6 21,-9.5 7.6,-1.9 15.3,-5.7 24.8,-5.7 15.2,-3.8 30.5,-5.8 45.7,-5.8 -7.6,43.9 -26.6,76.3 -57.1,85.8 -24.8,7.6 -53.4,-1.9 -82,-22.9 z m 123.9,-234.4 c 7.6,21 11.4,40 15.2,61 -19,-1.9 -40,-3.8 -59.1,-1.9 -13.3,1.9 -26.6,1.9 -40,5.7 -13.3,1.9 -26.7,5.7 -40,9.5 -24.8,7.7 -47.7,21 -66.7,34.3 -5.7,3.9 -11.4,7.7 -15.3,11.5 -7.6,-15.3 -13.3,-32.4 -19,-47.7 -38.1,-121.9 -19.1,-238.2 41.9,-257.3 62.9,-19 144.9,62.9 183,184.9 z m 461.2,257.3 c 0,0 -9.5,-7.6 -26.7,-19 -3.8,-3.9 -9.5,-5.8 -15.2,-9.6 -5.7,-3.8 -11.4,-7.6 -17.2,-11.4 -5.7,-3.8 -13.3,-7.6 -19,-11.4 -7.6,-5.8 -15.3,-9.6 -22.9,-15.3 -7.6,-3.8 -17.1,-7.6 -24.8,-13.3 -7.6,-5.8 -17.1,-9.6 -26.6,-15.3 -3.9,-1.9 -9.6,-5.7 -13.4,-7.6 -3.8,-1.9 -5.7,-1.9 -7.6,-3.8 -1.9,-1.9 -5.7,-1.9 -7.6,-3.8 -5.8,-1.9 -9.6,-3.8 -15.3,-7.7 -5.7,-1.9 -9.5,-3.8 -15.2,-7.6 -21,-9.5 -43.9,-19 -66.7,-28.6 -22.9,-9.5 -45.8,-17.1 -70.6,-24.8 -11.4,-1.9 -20.9,-5.7 -30.5,-7.6 -3.8,-22.8 -9.5,-45.7 -17.1,-68.6 -62.9,-198.2 -238.3,-320.2 -392.6,-270.6 -154.4,47.6 -226.9,247.7 -164,447.9 62.9,198.2 238.3,318.3 392.7,270.6 106.7,-34.3 175.3,-144.8 184.9,-274.4 1.9,0 3.8,0 5.7,0 20.9,3.8 43.8,7.6 64.8,13.3 20.9,3.8 43.8,11.4 62.9,17.2 5.7,1.9 11.4,3.8 15.2,5.7 5.7,1.9 11.5,3.8 15.3,3.8 3.8,1.9 5.7,1.9 7.6,3.8 1.9,0 5.7,1.9 7.6,1.9 3.8,1.9 9.5,3.8 13.4,5.7 9.5,3.8 19,7.6 28.5,11.5 7.7,1.9 17.2,5.7 24.8,9.5 7.6,3.8 15.3,7.6 22.9,9.5 7.6,3.8 15.2,7.6 21,9.5 5.7,3.9 13.3,5.8 17.1,9.6 5.7,1.9 11.5,3.8 17.2,5.7 17.1,9.5 28.6,15.2 28.6,15.2 l 22.8,-40" style="fill:#100f0d;fill-opacity:1;fill-rule:nonzero;stroke:none" id="path40" transform="matrix(0.133333, 0, 0, -0.133333, 0, 4000)"/>
  <path d="m 13555.6,2377.6 c 0,0 -162,-459.4 -329.7,-425.1 -165.8,34.3 -102.9,617.6 -230.6,617.6 -129.6,0 -21,-737.6 -356.4,-730 -301.2,-7.6 -64.8,1332.3 -110.6,1503.8 0,0 324,72.4 299.3,-240.2 -13.4,-169.6 -34.3,-465 -40.1,-709 36.3,169.7 101.1,341.2 211.6,341.2 221.1,0 133.4,-659.5 244,-690 97.2,-26.7 276.3,343.1 276.3,343.1 l 36.2,-11.4" style="fill:#100f0d;fill-opacity:1;fill-rule:nonzero;stroke:none" id="path42" transform="matrix(0.133333, 0, 0, -0.133333, 0, 4000)"/>
  <path d="m 14226.5,2423.3 c 0,0 -83.9,-163.9 -118.2,-223 -15.2,-28.6 -34.3,-61 -59.1,-91.5 -13.3,-15.2 -26.6,-30.5 -43.8,-43.8 -3.8,-3.8 -9.5,-5.7 -13.3,-9.5 -5.7,-1.9 -9.6,-5.8 -15.3,-7.7 -3.8,0 -5.7,-1.9 -9.5,-3.8 h -5.7 c 0,-1.9 -1.9,-1.9 -1.9,-1.9 h -7.7 c 2,0 -1.9,0 -1.9,0 h -1.9 -1.9 c -1.9,0 -3.8,0 -5.7,0 -7.6,0 -15.2,1.9 -22.9,7.6 -7.6,3.9 -15.2,11.5 -19,19.1 -9.6,13.3 -11.5,28.6 -15.3,41.9 -3.8,26.7 -3.8,51.5 -3.8,74.4 1.9,47.6 5.7,93.4 9.5,139.1 1.9,22.9 3.9,45.8 3.9,66.7 0,21 0,41.9 -2,57.2 -1.9,7.6 -5.7,9.5 -9.5,11.4 -3.8,1.9 -11.4,-1.9 -15.2,-5.7 -3.8,-3.8 -7.6,-7.6 -11.5,-11.4 -9.5,-13.4 -19,-30.5 -26.6,-45.8 -9.6,-17.1 -17.2,-34.3 -24.8,-51.4 -13.4,-34.3 -26.7,-66.7 -36.2,-99.1 -21,-62.9 -36.2,-118.2 -45.8,-154.4 -5.7,-19.1 -17.1,-62.9 -17.1,-62.9 -34.3,-133.4 -114.4,-150.6 -165.9,-152.5 -278.2,-9.5 -57.1,592.8 -101,800.5 0,0 299.3,85.8 276.4,-289.7 0,-3.8 0,-7.6 0,-9.5 38.1,66.7 110.5,171.5 175.3,169.6 80.1,-1.9 64.9,-144.8 53.4,-238.2 0,-13.4 -1.9,-28.6 -3.8,-42 0,-3.8 0,-7.6 0,-11.4 -3.8,-24.8 -5.7,-49.6 -7.6,-72.4 0,-21 0,-43.9 1.9,-61 1.9,-7.6 3.8,-15.3 5.7,-19.1 1.9,-1.9 1.9,-1.9 1.9,-1.9 1.9,0 1.9,-1.9 3.8,-1.9 0,0 0,0 1.9,0 l 5.7,1.9 c 2,0 3.9,0 3.9,0 h 1.9 c 0,1.9 1.9,1.9 3.8,1.9 1.9,1.9 5.7,1.9 9.5,3.8 1.9,1.9 5.7,3.8 9.5,7.7 11.5,7.6 22.9,20.9 34.3,32.4 22.9,26.6 42,55.2 57.2,83.8 32.4,55.3 114.4,211.6 114.4,211.6 l 40,-19.1" style="fill:#100f0d;fill-opacity:1;fill-rule:nonzero;stroke:none" id="path44" transform="matrix(0.133333, 0, 0, -0.133333, 0, 4000)"/>
</svg>
