<?xml version="1.0" encoding="utf-8"?>
<svg viewBox="0 628.074 556.838 70.247" width="396.844" height="70.247" xmlns="http://www.w3.org/2000/svg">
  <path d="m 262.383,817.992 c 0.262,-0.281 2.551,-1.082 6.836,-2.422 -2.41,5.641 -3.887,8.852 -4.422,9.66 -1.613,2.68 -3.227,5.09 -4.824,7.25 -1.887,2.141 -3.496,3.622 -4.836,4.422 l -0.801,0.399 -0.398,0.398 h -0.415 -0.398 -0.398 -0.403 c -0.273,0.27 -0.676,0.41 -1.211,0.41 -0.273,-0.269 -0.8,-0.41 -1.609,-0.41 l -0.805,-0.797 c -0.808,-0.273 -1.211,-1.211 -1.211,-2.82 -0.269,-0.801 -0.133,-2.281 0.403,-4.422 0.808,-1.621 1.875,-3.09 3.222,-4.43 2.149,-2.148 3.887,-3.621 5.235,-4.417 0.8,-0.551 2.812,-1.493 6.035,-2.821 z m 74.453,0.809 4.023,-15.711 h -1.613 c -0.269,-0.258 -0.808,-0.399 -1.609,-0.399 -0.274,-0.269 -0.535,-0.402 -0.801,-0.402 -0.547,-0.269 -0.945,-0.398 -1.211,-0.398 -8.32,-1.879 -13.281,-2.961 -14.895,-3.219 -14.214,-1.883 -21.863,-2.813 -22.937,-2.813 0.535,-1.078 0.812,-2.16 0.812,-3.23 1.336,-5.09 2.809,-12.477 4.422,-22.129 2.676,-15.289 4.161,-30.051 4.422,-44.27 0.539,-15.019 0.141,-29.511 -1.199,-43.46 -1.074,-11.809 -3.223,-25.219 -6.445,-40.239 -3.758,-14.761 -7.649,-26.57 -11.668,-35.41 -5.102,-11.269 -10.332,-20.801 -15.696,-28.582 -4.824,-6.976 -10.461,-13.41 -16.906,-19.309 -1.875,-1.89 -6.297,-5.371 -13.277,-10.468 -2.153,-1.071 -3.488,-1.883 -4.028,-2.41 l -1.199,-0.813 v 0.41 c -7.519,-4.57 -13.828,-7.386 -18.918,-8.457 -9.121,-2.14 -17.371,-0.801 -24.746,4.02 -7.383,4.84 -13.484,12.539 -18.308,23.148 -4.832,10.59 -8.797,21.86 -11.875,33.801 -3.086,11.941 -5.84,25.961 -8.25,42.059 -2.153,-7.79 -4.973,-15.969 -8.45,-24.559 -3.496,-8.582 -8.593,-18.84 -15.293,-30.781 C 124.48,573.242 115.762,562.852 105.027,553.992 94.2969,545.129 82.6289,539.5 70.0195,537.09 c -0.539,0 -1.2812,-0.059 -2.2187,-0.199 -0.9375,-0.129 -1.6797,-0.34 -2.207,-0.602 -13.9532,-2.148 -25.1524,5.774 -33.6016,23.742 C 23.5352,578 17.9023,601.281 15.0898,629.852 12.2656,658.43 10.3242,687.262 9.25,716.379 8.18359,745.48 7.04297,772.512 5.83203,797.461 4.61719,822.41 2.67578,838.109 0,844.551 c 1.07422,0.262 2.55078,0.66 4.42578,1.211 1.875,0.527 5.4961,1.269 10.85552,2.207 5.375,0.933 10.5273,1.402 15.5,1.402 4.9609,0 10.5273,-0.801 16.6992,-2.41 6.1718,-1.609 11.4765,-4.09 15.8984,-7.441 4.4219,-3.36 8.3125,-8.457 11.668,-15.29 3.3515,-6.851 5.1679,-15.089 5.4297,-24.75 3.7617,-97.39 9.3945,-165.14 16.9062,-203.23 2.1485,-9.93 6.1722,-11.41 12.0702,-4.43 0.535,1.071 1.27,2.539 2.219,4.43 0.933,1.871 2.82,6.09 5.633,12.672 2.812,6.578 5.293,13.34 7.441,20.328 2.149,6.969 4.434,15.762 6.848,26.352 2.41,10.597 4.285,21.257 5.633,32 1.336,10.73 1.875,22.8 1.613,36.218 -0.277,13.41 -1.485,26.7 -3.625,39.84 l 2.414,-5.629 c -0.539,1.61 -1.352,3.481 -2.414,5.629 2.14,0.801 4.89,1.809 8.254,3.02 3.347,1.211 9.511,2.34 18.504,3.422 8.984,1.07 17.109,0.808 24.343,-0.813 7.247,-1.609 14.094,-6.168 20.532,-13.68 6.433,-7.519 10.457,-17.847 12.066,-30.98 5.899,-50.977 12.481,-89.207 19.731,-114.699 0.261,-0.27 0.398,-0.801 0.398,-1.61 1.609,-5.898 4.629,-8.718 9.055,-8.449 4.422,0.258 8.914,4.559 13.472,12.871 0.278,0.539 0.676,1.418 1.211,2.617 0.539,1.211 0.942,2.082 1.211,2.621 0,0.532 0.129,0.93 0.403,1.211 l 0.402,0.399 c 0,0.262 0,0.539 0,0.801 3.484,7.511 6.844,16.898 10.058,28.172 3.219,13.148 5.497,25.488 6.844,37.019 1.336,10.738 2.012,24.148 2.012,40.25 0,14.75 -0.945,28.57 -2.813,41.449 -0.808,6.981 -2.019,13.809 -3.625,20.52 -0.269,1.879 -0.945,4.699 -2.007,8.461 -0.547,0 -1.078,0.117 -1.614,0.398 l -8.457,1.211 c -3.484,0.801 -6.574,1.738 -9.25,2.809 -4.297,1.609 -7.382,3.09 -9.257,4.429 -3.219,1.61 -6.305,3.883 -9.254,6.84 -3.489,4.02 -5.774,7.371 -6.848,10.063 -2.41,5.097 -3.215,9.789 -2.41,14.09 0,1.867 0.535,4.429 1.609,7.648 1.336,2.672 2.949,4.961 4.824,6.832 1.614,2.148 3.887,3.891 6.844,5.238 1.613,0.801 4.289,1.461 8.051,2.012 h 4.019 2.012 l 0.813,-0.402 h 0.8 0.403 0.41 l 0.398,-0.41 h 0.403 0.398 0.403 c 0.261,-0.258 0.601,-0.399 1.003,-0.399 0.411,0 0.743,-0.141 1.004,-0.402 0.539,-0.27 1.211,-0.539 2.024,-0.797 0.801,-0.281 1.34,-0.551 1.601,-0.813 1.875,-1.347 3.758,-2.82 5.633,-4.429 1.875,-1.071 3.488,-2.551 4.836,-4.418 1.875,-2.422 4.149,-5.782 6.836,-10.071 4.023,-6.711 7.246,-13.82 9.656,-21.332 0.266,-0.257 0.41,-0.668 0.41,-1.199 h 3.618 c 6.98,0.27 14.214,0.942 21.738,2.012 1.336,0.269 3.074,0.598 5.223,1.008 2.148,0.402 3.886,0.73 5.234,1.011 1.34,0.258 2.551,0.52 3.625,0.801 1.07,0 1.734,0.129 2.012,0.399 0.808,0 1.336,0.129 1.609,0.41 h 1.211" style="fill:#111011;fill-opacity:1;fill-rule:nonzero;stroke:none" id="path86" transform="matrix(0.133333, 0, 0, -0.133333, 0, 749.213318)"/>
  <path d="m 420.535,680.359 c -5.097,1.602 -10.867,0 -17.305,-4.828 0.54,-1.082 1.614,-2.422 3.223,-4.031 2.141,-2.148 4.426,-3.758 6.84,-4.828 1.336,-1.082 2.82,-1.75 4.422,-2.012 3.223,-0.801 4.961,-1.199 5.234,-1.199 3.223,-0.82 6.438,-1.219 9.656,-1.219 -1.875,10.199 -5.894,16.227 -12.07,18.117 z m -29.781,-93.367 c 6.707,-2.152 13.816,0.61 21.324,8.25 7.512,7.649 13.281,17.91 17.309,30.778 1.074,3.23 2.144,7.511 3.218,12.882 -5.371,-0.531 -9.519,-0.672 -12.468,-0.402 -0.547,0 -1.414,0.063 -2.617,0.199 -1.211,0.141 -2.286,0.262 -3.223,0.41 -0.938,0.133 -1.809,0.332 -2.617,0.602 -1.875,0.269 -4.7,0.93 -8.45,2.019 -4.57,1.329 -9.253,3.75 -14.082,7.231 -1.609,1.078 -2.683,1.879 -3.218,2.418 -0.539,-1.34 -1.887,-4.688 -4.028,-10.059 -4.019,-12.871 -5.164,-24.621 -3.418,-35.211 1.743,-10.597 5.832,-16.968 12.27,-19.117 z m 131.199,101.821 4.824,-8.454 c -1.347,-1.078 -3.222,-2.418 -5.632,-4.019 -0.278,-0.277 -0.801,-0.61 -1.614,-1.02 -0.801,-0.398 -1.34,-0.73 -1.609,-1.011 l -3.613,-2.407 c -0.278,-0.261 -0.879,-0.672 -1.821,-1.203 -0.933,-0.547 -1.675,-0.949 -2.207,-1.207 -0.547,-0.273 -1.343,-0.801 -2.422,-1.613 -1.074,-0.797 -1.875,-1.348 -2.41,-1.609 -2.961,-1.348 -4.695,-2.278 -5.234,-2.809 -0.535,-0.551 -1.477,-1.148 -2.813,-1.82 -1.347,-0.68 -2.285,-1.141 -2.824,-1.411 -0.262,-0.269 -0.738,-0.601 -1.402,-1 -0.676,-0.398 -1.145,-0.609 -1.406,-0.609 l -1.614,-0.801 c -0.273,0 -0.539,-0.14 -0.801,-0.398 -0.273,-0.27 -0.546,-0.41 -0.808,-0.41 -1.074,-0.262 -2.152,-0.801 -3.215,-1.602 -1.086,-0.281 -2.156,-0.808 -3.223,-1.609 -2.961,-1.352 -7.644,-3.36 -14.082,-6.039 -4.035,-1.61 -8.996,-3.36 -14.89,-5.231 -0.813,-0.281 -1.953,-0.609 -3.418,-1.011 -1.489,-0.399 -2.492,-0.598 -3.031,-0.598 -0.797,-4.832 -2.008,-9.66 -3.614,-14.492 -6.707,-20.918 -18.113,-36.957 -34.207,-48.09 -16.101,-11.129 -32.336,-14.149 -48.699,-9.051 -16.367,5.082 -27.902,16.832 -34.602,35.211 -6.711,18.371 -6.711,38.152 0,59.359 6.7,20.922 18.106,36.954 34.2,48.09 16.101,11.121 32.336,14.141 48.703,9.051 10.996,-3.488 19.976,-10.531 26.961,-21.129 6.972,-10.59 10.996,-22.871 12.07,-36.82 h 1.211 c 6.699,1.34 11.262,2.281 13.684,2.82 2.136,0.258 6.558,1.469 13.281,3.621 1.597,0.539 2.676,0.938 3.211,1.207 1.609,0.531 2.676,0.801 3.222,0.801 l 1.614,0.801 c 0.261,0 0.523,0.07 0.797,0.211 0.265,0.129 0.539,0.199 0.812,0.199 0.266,0.269 0.731,0.531 1.406,0.801 0.664,0.269 1.133,0.398 1.407,0.398 l 6.035,2.43 c 1.613,0.519 3.347,1.199 5.234,2.012 2.141,1.058 3.75,1.738 4.824,2.007 2.149,1.063 3.621,1.743 4.434,2.012 0.266,0.258 0.871,0.598 1.808,1.008 0.938,0.402 1.54,0.73 1.817,1 l 3.609,1.203 6.047,3.231" style="fill:#111011;fill-opacity:1;fill-rule:nonzero;stroke:none" id="path88" transform="matrix(0.133333, 0, 0, -0.133333, 0, 749.213318)"/>
  <path d="m 543.281,718.582 c 9.121,12.609 14.754,26.957 16.907,43.07 v 2.411 c 0,1.339 0.054,2.738 0.195,4.226 0.137,1.461 0.137,3.492 0,6.031 -0.141,2.551 -0.332,5.09 -0.598,7.653 -0.273,2.547 -0.676,5.289 -1.211,8.246 -0.539,2.953 -1.14,5.832 -1.804,8.66 -0.676,2.812 -1.68,5.633 -3.02,8.441 -1.348,2.821 -2.82,5.43 -4.434,7.852 -2.683,-35.68 -4.699,-67.883 -6.035,-96.59 z m -16.902,-164.59 c -4.024,-1.883 -8.449,-2.82 -13.281,-2.82 -0.801,-0.262 -2.153,-0.402 -4.028,-0.402 h -0.398 c -24.414,0.261 -34.336,58.761 -29.777,175.46 1.066,23.879 3.078,54.2 6.039,90.961 2.671,26.278 5.359,42.25 8.046,47.891 3.219,6.16 8.043,9.109 14.481,8.84 9.121,0 18.379,-3.211 27.773,-9.652 7.774,-5.098 14.895,-12.61 21.329,-22.54 6.972,-12.07 11.667,-26.16 14.082,-42.25 4.558,-29.781 1.074,-55.14 -10.457,-76.058 -4.836,-8.859 -10.735,-16.77 -17.708,-23.742 -1.347,-29.789 -1.75,-56.09 -1.21,-78.879 0.8,-12.879 2.277,-20.321 4.421,-22.34 2.153,-2.02 7.247,-0.602 15.293,4.219 10.996,6.98 21.399,16.039 31.196,27.172 9.793,11.128 16.836,20.449 21.121,27.968 l 6.445,11.27 11.27,-4.43 c -0.813,-2.418 -4.297,-8.39 -10.469,-17.898 -6.172,-9.543 -13.875,-20.473 -23.137,-32.813 -9.258,-12.34 -20.469,-24.34 -33.601,-36.008 -13.157,-11.671 -25.625,-19.66 -37.43,-23.949" style="fill:#111011;fill-opacity:1;fill-rule:nonzero;stroke:none" id="path90" transform="matrix(0.133333, 0, 0, -0.133333, 0, 749.213318)"/>
  <path d="m 661.582,755.211 c 8.047,11.801 13.145,25.348 15.293,40.648 v 2.012 c 0,1.609 0.066,3.141 0.203,4.629 0.129,1.461 0.129,3.469 0,6.031 -0.137,2.539 -0.34,5.09 -0.601,7.649 -0.278,2.539 -0.676,5.289 -1.211,8.242 -0.539,2.949 -1.145,5.84 -1.809,8.648 -0.676,2.832 -1.68,5.641 -3.019,8.461 -1.344,2.809 -2.821,5.43 -4.43,7.84 -2.414,-47.211 -3.891,-78.609 -4.426,-94.16 z m 99.004,-80.492 -2.012,-7.637 -73.254,15.688 c 4.563,-27.641 7.051,-52.918 7.453,-75.86 0.403,-22.941 -0.671,-41.648 -3.222,-56.14 -2.547,-14.481 -6.375,-27.301 -11.465,-38.43 -5.098,-11.129 -10.137,-19.379 -15.098,-24.75 -4.961,-5.371 -10.527,-9.86 -16.699,-13.481 -6.172,-3.617 -10.598,-5.769 -13.281,-6.437 -2.688,-0.672 -5.098,-1.141 -7.238,-1.41 h -0.411 c -11.531,0.269 -19.851,19.66 -24.949,58.148 -5.097,38.5 -7.168,82.563 -6.23,132.199 0.937,49.641 2.207,92.821 3.816,129.59 1.613,36.75 2.824,58.481 3.625,65.18 2.676,26.57 5.359,42.672 8.047,48.312 3.223,6.161 7.91,9.11 14.082,8.84 8.855,0 18.242,-3.359 28.176,-10.062 8.582,-5.629 15.554,-13.137 20.926,-22.528 7.246,-11.269 12.07,-25.359 14.492,-42.261 4.289,-28.969 0.801,-54.188 -10.469,-75.649 -4.297,-7.789 -9.656,-15.16 -16.094,-22.14 -3.496,-96.051 -4.023,-164.871 -1.609,-206.45 9.383,22 14.949,46.821 16.695,74.45 1.738,27.629 1.145,49.629 -1.804,66 l -4.434,24.949 c 9.922,-1.348 22.473,-3.688 37.629,-7.039 15.152,-3.36 27.832,-6.379 38.035,-9.051 l 15.293,-4.031" style="fill:#111011;fill-opacity:1;fill-rule:nonzero;stroke:none" id="path92" transform="matrix(0.133333, 0, 0, -0.133333, 0, 749.213318)"/>
  <path d="m 828.184,473.5 c 1.062,31.941 0.937,70.832 -0.403,116.711 -49.898,-39.441 -69.218,-70.148 -57.945,-92.16 10.992,-20.649 22.793,-34.602 35.406,-41.852 12.336,-7.25 19.719,-3.488 22.141,11.27 0.527,1.871 0.801,3.902 0.801,6.031 z m -61.973,166.211 c -0.273,-13.422 6.973,-18.109 21.727,-14.09 13.417,4.031 25.617,11.809 36.625,23.34 0.261,0.269 0.535,0.539 0.808,0.809 v 0.402 c -0.808,9.66 -1.348,16.91 -1.609,21.73 -4.297,0 -9.055,-0.402 -14.289,-1.203 -5.235,-0.808 -11.336,-2.16 -18.313,-4.027 -6.98,-1.883 -12.808,-5.172 -17.508,-9.863 -4.699,-4.688 -7.175,-10.399 -7.441,-17.098 z m 200.41,49.102 3.621,-10.063 c -26.297,-13.418 -54.195,-29.391 -83.711,-47.891 6.449,-84.238 8.586,-142.597 6.449,-175.058 -3.222,-48.828 -14.23,-73.379 -33,-73.641 -3.222,-0.539 -6.914,-0.609 -11.074,-0.211 -4.16,0.403 -10.593,2.352 -19.316,5.84 -8.723,3.492 -17.305,8.59 -25.75,15.281 -8.457,6.719 -18.047,17.309 -28.781,31.801 -10.735,14.488 -20.657,31.801 -29.778,51.918 -15.562,30.852 11.809,71.363 82.102,121.531 -0.547,8.051 -0.813,14.219 -0.813,18.512 -9.656,-9.652 -21.597,-18.043 -35.808,-25.152 -14.231,-7.11 -27.637,-9.59 -40.242,-7.438 -13.418,2.41 -22.075,9.11 -25.957,20.11 -3.887,11 -3.02,22.808 2.617,35.418 5.625,12.609 14.343,22.671 26.148,30.179 11.535,7.25 24.746,11.672 39.641,13.281 14.89,1.61 24.609,1.34 29.179,-0.8 -1.074,13.679 -2.148,22.672 -3.222,26.961 0.808,0.269 1.941,0.539 3.418,0.8 1.472,0.27 4.297,0.61 8.457,1.008 4.148,0.41 8.183,0.332 12.07,-0.199 3.887,-0.539 8.313,-1.879 13.281,-4.02 4.961,-2.16 9.258,-5.031 12.879,-8.648 3.625,-3.621 6.836,-9 9.66,-16.113 2.813,-7.098 4.629,-15.477 5.43,-25.137 l 1.211,-21.332 c 13.137,7.5 26.484,14.879 40.039,22.129 13.547,7.25 23.809,12.48 30.789,15.691 l 10.461,5.243" style="fill:#111011;fill-opacity:1;fill-rule:nonzero;stroke:none" id="path94" transform="matrix(0.133333, 0, 0, -0.133333, 0, 749.213318)"/>
  <path d="m 963.801,642.129 c -0.539,-13.68 5.23,-18.52 17.304,-14.5 9.657,3.492 19.575,10.742 29.785,21.73 1.06,10.204 2.01,17.852 2.81,22.942 -4.29,0 -8.65,-0.328 -13.07,-1 -4.431,-0.68 -9.661,-1.879 -15.696,-3.621 -6.039,-1.739 -11.008,-4.828 -14.895,-9.25 -3.887,-4.438 -5.976,-9.867 -6.238,-16.301 z m 185.929,39.434 h 13.28 c -1.08,-3.762 -2.69,-8.653 -4.84,-14.692 -2.14,-6.031 -6.97,-16.762 -14.48,-32.191 -7.52,-15.43 -15.56,-29.121 -24.15,-41.051 -8.58,-11.938 -19.99,-22.727 -34.2,-32.387 -14.23,-9.66 -28.98,-14.492 -44.27,-14.492 -9.93,0 -17.64,3.563 -23.14,10.66 -5.5,7.11 -8.79,15.629 -9.86,25.559 -1.08,9.922 -1.2,22.133 -0.4,36.621 -18.783,-18.25 -38.639,-25.629 -59.565,-22.129 -13.144,2.41 -21.601,8.98 -25.351,19.719 -3.75,10.722 -2.883,22.261 2.617,34.609 5.496,12.332 14.016,22.121 25.559,29.371 19.043,11.809 40.64,15.692 64.78,11.672 0.81,12.328 0.54,21.328 -0.8,26.957 1.07,0.274 2.41,0.543 4.03,0.813 1.61,0.269 4.75,0.461 9.45,0.597 4.7,0.141 9.12,-0.07 13.28,-0.597 4.16,-0.539 8.72,-1.883 13.68,-4.032 4.96,-2.148 9.19,-5.031 12.69,-8.648 3.47,-3.621 6.23,-8.793 8.24,-15.492 2.01,-6.707 2.62,-14.629 1.82,-23.739 -4.03,-55.812 -0.95,-83.851 9.25,-84.109 4.03,-0.281 8.99,2.949 14.89,9.66 10.73,12.071 20.05,25.41 27.97,40.039 7.91,14.61 13.21,26.219 15.89,34.809 l 3.63,12.473" style="fill:#111011;fill-opacity:1;fill-rule:nonzero;stroke:none" id="path96" transform="matrix(0.133333, 0, 0, -0.133333, 0, 749.213318)"/>
  <path d="m 1296.61,677.941 8.45,-4.031 c -11.81,-23.07 -20.12,-38.769 -24.95,-47.078 -4.03,-7.781 -8.19,-14.223 -12.47,-19.312 -3.76,-4.297 -6.85,-7.391 -9.26,-9.258 -0.27,-0.27 -0.74,-0.61 -1.41,-1.012 -0.67,-0.398 -1.14,-0.738 -1.4,-1 -0.28,-0.281 -0.81,-0.539 -1.61,-0.809 -0.82,-0.269 -1.35,-0.539 -1.62,-0.8 -0.27,0 -0.94,-0.282 -2.01,-0.801 h -1.21 l -0.4,-0.41 h -1.61 -0.4 -0.4 -0.4 -1.21 c -1.88,0 -3.49,0.531 -4.83,1.609 -1.88,0.813 -3.22,2.152 -4.03,4.024 -0.8,1.066 -1.88,4.019 -3.21,8.859 -0.55,3.75 -0.81,8.98 -0.81,15.687 0.26,6.704 0.93,16.512 2.01,29.383 0.54,6.438 0.81,11.129 0.81,14.09 0,5.898 -0.14,9.918 -0.4,12.07 -0.28,1.059 -0.95,1.868 -2.01,2.411 -0.81,0.539 -1.89,0.136 -3.23,-1.204 l -2.41,-2.418 c -1.88,-2.41 -3.76,-5.64 -5.63,-9.66 -1.35,-2.41 -3.09,-6.039 -5.24,-10.859 -4.02,-10.473 -6.58,-17.442 -7.64,-20.93 -3.49,-10.203 -6.71,-21.062 -9.66,-32.601 l -3.63,-13.282 c -5.37,-20.918 -17.04,-31.66 -35,-32.187 -11.01,-0.27 -18.99,3.949 -23.95,12.668 -4.97,8.723 -7.11,19.859 -6.44,33.41 0.67,13.539 1.87,28.23 3.62,44.063 1.75,15.828 3.62,30.589 5.63,44.269 2.01,13.68 1.95,25.207 -0.19,34.609 0.8,0.258 2.01,0.539 3.62,0.801 1.61,0.27 4.56,0.539 8.85,0.809 4.28,0.258 8.39,0.058 12.27,-0.602 3.89,-0.679 8.12,-2.289 12.68,-4.828 4.56,-2.558 8.46,-6.039 11.67,-10.469 3.22,-4.422 5.7,-10.66 7.45,-18.711 1.74,-8.05 2.34,-17.441 1.81,-28.171 v -2.008 c 13.94,24.148 26.29,36.078 37.02,35.82 7.51,-0.281 11.8,-6.242 12.88,-17.91 1.07,-11.672 0.54,-22.473 -1.61,-32.402 0,-2.149 -0.27,-5.09 -0.8,-8.848 V 638.5 c -0.55,-3.219 -1.08,-8.32 -1.61,-15.289 0,-6.172 0.13,-10.469 0.4,-12.879 0.53,-2.152 0.93,-3.492 1.21,-4.019 l 0.4,-0.403 0.4,-0.398 h 0.4 0.41 l 1.2,0.398 h 0.81 0.4 c 0,0.262 0.26,0.403 0.8,0.403 0.26,0.257 0.54,0.398 0.81,0.398 0.53,0.262 0.94,0.41 1.2,0.41 l 0.81,0.801 c 0.54,0.258 0.94,0.539 1.2,0.797 0.82,0.543 3.23,2.82 7.25,6.84 4.56,5.371 8.58,11.273 12.07,17.711 l 24.15,44.671" style="fill:#111011;fill-opacity:1;fill-rule:nonzero;stroke:none" id="path98" transform="matrix(0.133333, 0, 0, -0.133333, 0, 749.213318)"/>
  <path d="m 1368.64,473.5 c 1.07,31.941 0.94,70.832 -0.4,116.711 -49.9,-39.441 -69.22,-70.148 -57.95,-92.16 11,-20.649 22.8,-34.602 35.41,-41.852 12.34,-7.25 19.72,-3.488 22.14,11.27 0.53,1.871 0.8,3.902 0.8,6.031 z m -61.97,166.211 c -0.27,-13.422 6.97,-18.109 21.73,-14.09 13.42,4.031 25.61,11.809 36.62,23.34 0.26,0.269 0.54,0.539 0.81,0.809 v 0.402 c -0.81,9.66 -1.35,16.91 -1.61,21.73 -4.3,0 -9.05,-0.402 -14.29,-1.203 -5.23,-0.808 -11.34,-2.16 -18.31,-4.027 -6.98,-1.883 -12.81,-5.172 -17.51,-9.863 -4.7,-4.688 -7.18,-10.399 -7.44,-17.098 z m 200.41,49.102 3.62,-10.063 c -26.3,-13.418 -54.2,-29.391 -83.71,-47.891 6.45,-84.238 8.59,-142.597 6.45,-175.058 -3.23,-48.828 -14.23,-73.379 -33,-73.641 -3.22,-0.539 -6.91,-0.609 -11.07,-0.211 -4.16,0.403 -10.6,2.352 -19.32,5.84 -8.72,3.492 -17.31,8.59 -25.75,15.281 -8.46,6.719 -18.05,17.309 -28.78,31.801 -10.73,14.488 -20.66,31.801 -29.78,51.918 -15.56,30.852 11.81,71.363 82.1,121.531 -0.55,8.051 -0.81,14.219 -0.81,18.512 -9.66,-9.652 -21.6,-18.043 -35.81,-25.152 -14.23,-7.11 -27.64,-9.59 -40.24,-7.438 -13.42,2.41 -22.07,9.11 -25.96,20.11 -3.89,11 -3.02,22.808 2.62,35.418 5.62,12.609 14.34,22.671 26.15,30.179 11.53,7.25 24.75,11.672 39.64,13.281 14.89,1.61 24.61,1.34 29.18,-0.8 -1.08,13.679 -2.15,22.672 -3.23,26.961 0.82,0.269 1.95,0.539 3.42,0.8 1.48,0.27 4.3,0.61 8.46,1.008 4.15,0.41 8.18,0.332 12.07,-0.199 3.89,-0.539 8.31,-1.879 13.28,-4.02 4.96,-2.16 9.26,-5.031 12.88,-8.648 3.63,-3.621 6.84,-9 9.66,-16.113 2.81,-7.098 4.63,-15.477 5.43,-25.137 l 1.21,-21.332 c 13.14,7.5 26.49,14.879 40.04,22.129 13.55,7.25 23.81,12.48 30.79,15.691 l 10.46,5.243" style="fill:#111011;fill-opacity:1;fill-rule:nonzero;stroke:none" id="path100" transform="matrix(0.133333, 0, 0, -0.133333, 0, 749.213318)"/>
  <path d="m 1660.8,681.961 c 4.83,-0.539 8.45,-0.801 10.87,-0.801 0.26,4.02 0.73,10.262 1.41,18.711 0.66,8.461 1.13,14.828 1.4,19.121 0.27,1.879 0.73,6.77 1.41,14.688 0.67,7.91 1.14,14.222 1.41,18.922 0.27,4.679 0.6,10.988 1.01,18.898 0.4,7.91 0.46,14.359 0.2,19.332 -0.27,4.957 -0.8,9.988 -1.62,15.09 -0.8,5.078 -2.14,8.84 -4.02,11.269 -1.87,2.411 -4.16,3.622 -6.83,3.622 -24.96,-1.094 -44.01,-45.352 -57.15,-132.801 0.8,0 1.47,-0.153 2.01,-0.41 l 10.87,-1.211 c 0.52,-0.27 1.46,-0.399 2.81,-0.399 1.34,0 2.41,-0.14 3.22,-0.41 0.8,-0.262 1.88,-0.461 3.23,-0.59 1.33,-0.152 2.41,-0.211 3.21,-0.211 2.67,-0.269 6.97,-0.672 12.88,-1.211 3.22,-0.531 7.77,-1.07 13.68,-1.609 z m 80.09,111.078 c -5.37,-146.488 -2.01,-223.219 10.06,-230.187 -2.15,-6.981 -8.12,-13.282 -17.91,-18.922 -9.8,-5.629 -18.59,-8.848 -26.36,-9.649 -15.83,-1.082 -26.3,10.051 -31.39,33.391 -5.1,23.34 -6.58,55.141 -4.43,95.379 -5.37,0.531 -9.26,0.808 -11.67,0.808 l -13.68,1.211 c -5.91,0.52 -10.33,0.801 -13.28,0.801 -0.8,0 -1.95,0.129 -3.42,0.399 -1.48,0.261 -2.48,0.402 -3.02,0.402 -0.55,0 -1.48,0.07 -2.82,0.199 -1.34,0.141 -2.41,0.211 -3.21,0.211 -2.69,0.258 -6.45,0.66 -11.27,1.199 -0.28,0 -0.68,0.071 -1.21,0.199 -0.54,0.129 -0.94,0.211 -1.21,0.211 -1.88,-13.691 -4.17,-32.332 -6.84,-55.949 -2.69,-23.601 -4.97,-41.441 -6.85,-53.512 -1.87,-12.078 -3.76,-20.128 -5.62,-24.148 -2.16,-7.25 -8.25,-13.742 -18.32,-19.531 -10.06,-5.762 -18.98,-8.77 -26.76,-9.051 6.17,39.18 12.74,74.992 19.72,107.449 6.98,32.461 13.76,60.172 20.32,83.114 6.57,22.937 13.61,43.316 21.13,61.167 7.51,17.833 14.22,32.262 20.12,43.262 5.9,11 12.54,20.258 19.92,27.77 7.37,7.508 13.42,12.937 18.12,16.289 4.68,3.351 10.25,5.64 16.7,6.851 6.43,1.2 10.99,1.739 13.68,1.598 2.67,-0.129 6.3,-0.469 10.87,-1 1.33,0 3.07,-0.27 5.22,-0.801 h 0.81 c 21.19,-5.097 32.05,-22.41 32.6,-51.918 v -1.609 -0.801 -0.41 -4.422" style="fill:#111011;fill-opacity:1;fill-rule:nonzero;stroke:none" id="path102" transform="matrix(0.133333, 0, 0, -0.133333, 0, 749.213318)"/>
  <path d="m 2064.84,662.641 7.65,-1.602 c -1.61,-3.219 -3.83,-7.578 -6.64,-13.078 -2.81,-5.5 -8.86,-15.301 -18.11,-29.379 -9.25,-14.082 -18.58,-26.492 -27.96,-37.223 -9.4,-10.738 -21.08,-20.527 -35.02,-29.379 -13.95,-8.859 -27.5,-13.281 -40.65,-13.281 -8.05,0 -13.95,3.223 -17.7,9.66 -3.76,6.43 -5.57,14.821 -5.43,25.153 0.12,10.328 1.06,21.597 2.81,33.801 1.75,12.207 3.68,24.347 5.84,36.429 2.14,12.071 3.68,23 4.63,32.789 0.94,9.801 0.19,17.371 -2.22,22.739 -2.41,5.371 -6.84,7.382 -13.28,6.043 l -0.4,-0.411 c -4.02,-1.339 -7.78,-3.761 -11.27,-7.242 -4.3,-4.828 -7.65,-9.801 -10.06,-14.89 -2.68,-5.629 -5.1,-12.618 -7.24,-20.93 -1.89,-8.59 -3.49,-16.758 -4.84,-24.551 -0.26,-0.797 -0.54,-1.937 -0.8,-3.41 -0.27,-1.477 -0.4,-2.617 -0.4,-3.418 0,-0.551 -0.14,-1.211 -0.4,-2.012 -0.27,-0.82 -0.41,-1.347 -0.41,-1.617 -0.54,-1.07 -0.8,-1.883 -0.8,-2.41 -0.54,-1.082 -1.08,-2.02 -1.61,-2.82 l -2.01,-2.012 c -0.28,-0.281 -0.61,-0.399 -1.01,-0.399 -0.4,0 -0.74,-0.14 -1.01,-0.402 l -0.8,-0.41 c -0.27,0 -0.54,0 -0.81,0 h -0.8 c -1.61,0 -3.08,0.41 -4.42,1.211 -0.55,0.262 -1.21,0.801 -2.02,1.609 -0.8,1.063 -1.48,2.141 -2.02,3.223 -0.53,1.07 -0.8,1.867 -0.8,2.41 -0.53,1.879 -1.07,4.43 -1.61,7.648 -0.27,1.61 -0.6,4.02 -1,7.25 -0.4,3.211 -0.75,5.622 -1.01,7.231 l -1.21,14.09 c -0.26,1.34 -0.6,3.48 -1.01,6.441 -0.4,2.949 -0.74,5.227 -1,6.848 -2.15,6.973 -3.35,10.723 -3.61,11.262 -0.28,0.527 -0.68,1.07 -1.22,1.609 l -1.21,-1.199 c -0.26,-0.551 -0.74,-1.352 -1.4,-2.43 -0.68,-1.07 -1.15,-1.871 -1.41,-2.41 l -4.83,-10.871 -3.63,-11.262 c -2.41,-7.519 -4.42,-14.758 -6.03,-21.738 -1.08,-4.559 -2.48,-10.52 -4.22,-17.91 -1.75,-7.371 -2.89,-12.411 -3.43,-15.078 -0.54,-3.493 -1.2,-7.25 -2.01,-11.274 -5.1,-20.668 -17.04,-31.387 -35.81,-32.187 -11.01,-0.27 -18.98,4.218 -23.95,13.48 -4.97,9.25 -7.04,20.918 -6.24,35.008 0.8,14.09 2.02,29.301 3.63,45.672 1.61,16.367 3.42,31.398 5.43,45.078 2.01,13.68 1.94,24.812 -0.2,33.402 0.8,0.258 2.01,0.528 3.61,0.809 1.62,0.262 4.57,0.519 8.86,0.801 4.29,0.257 8.38,0.07 12.28,-0.61 3.88,-0.672 8.11,-2.152 12.67,-4.422 4.56,-2.289 8.45,-5.371 11.67,-9.257 3.23,-3.891 5.7,-9.524 7.44,-16.903 1.75,-7.39 2.36,-16.039 1.82,-25.961 0,-2.687 -0.27,-6.168 -0.8,-10.457 0.53,1.059 1.13,2.617 1.81,4.629 0.66,2.008 1.13,3.418 1.4,4.231 1.88,4.55 3.89,8.847 6.04,12.867 2.15,3.761 3.62,6.031 4.43,6.84 l 3.21,3.222 c 1.34,1.348 3.09,2.551 5.24,3.621 1.06,0.539 2.27,0.809 3.62,0.809 0.54,0 0.94,0.129 1.21,0.398 h 0.4 0.4 l 0.8,-0.398 h 1.22 c 2.67,-0.551 4.82,-1.352 6.43,-2.41 1.88,-1.352 3.36,-2.821 4.43,-4.43 0.27,-0.539 0.67,-1.269 1.21,-2.211 0.53,-0.949 0.93,-1.68 1.21,-2.219 0.8,-1.878 1.74,-4.421 2.81,-7.652 0.54,-1.879 1.07,-4.418 1.61,-7.637 0.54,-3.492 1.08,-8.453 1.61,-14.89 0.54,-6.442 0.8,-11.141 0.8,-14.09 v -1.211 c 0.27,0.809 0.94,3.16 2.01,7.039 1.08,3.891 1.88,6.781 2.43,8.66 2.41,8.051 5.49,15.43 9.25,22.129 3.22,6.18 7.5,11.672 12.88,16.512 4.02,3.48 8.72,6.16 14.09,8.051 l 0.8,0.398 c 0.54,0 0.94,0 1.21,0 2.95,0.531 5.97,1 9.05,1.402 3.08,0.399 8.45,0.137 16.1,-0.8 7.64,-0.95 14.15,-2.891 19.52,-5.84 5.36,-2.949 9.99,-8.321 13.88,-16.09 3.88,-7.793 5.43,-17.711 4.62,-29.793 -0.53,-8.039 -1.6,-19.18 -3.21,-33.399 -2.69,-26.828 -2.96,-42.519 -0.81,-47.078 2.95,-5.632 10.87,-3.222 23.75,7.239 11,8.859 21.79,19.582 32.39,32.199 10.6,12.609 18.45,22.941 23.55,30.98 l 8.04,12.071" style="fill:#111011;fill-opacity:1;fill-rule:nonzero;stroke:none" id="path104" transform="matrix(0.133333, 0, 0, -0.133333, 0, 749.213318)"/>
  <path d="m 2078.92,642.129 c -0.54,-13.68 5.23,-18.52 17.3,-14.5 9.66,3.492 19.58,10.742 29.79,21.73 1.06,10.204 2.01,17.852 2.81,22.942 -4.29,0 -8.65,-0.328 -13.08,-1 -4.42,-0.68 -9.66,-1.879 -15.69,-3.621 -6.04,-1.739 -11.01,-4.828 -14.89,-9.25 -3.89,-4.438 -5.98,-9.867 -6.24,-16.301 z m 185.92,39.434 h 13.29 c -1.08,-3.762 -2.69,-8.653 -4.84,-14.692 -2.15,-6.031 -6.97,-16.762 -14.48,-32.191 -7.52,-15.43 -15.57,-29.121 -24.15,-41.051 -8.59,-11.938 -19.99,-22.727 -34.2,-32.387 -14.23,-9.66 -28.99,-14.492 -44.27,-14.492 -9.93,0 -17.65,3.563 -23.14,10.66 -5.5,7.11 -8.79,15.629 -9.87,25.559 -1.07,9.922 -1.2,22.133 -0.4,36.621 -18.78,-18.25 -38.63,-25.629 -59.56,-22.129 -13.14,2.41 -21.6,8.98 -25.35,19.719 -3.75,10.722 -2.88,22.261 2.62,34.609 5.5,12.332 14.01,22.121 25.55,29.371 19.05,11.809 40.65,15.692 64.79,11.672 0.81,12.328 0.54,21.328 -0.8,26.957 1.06,0.274 2.41,0.543 4.02,0.813 1.61,0.269 4.76,0.461 9.46,0.597 4.69,0.141 9.12,-0.07 13.28,-0.597 4.16,-0.539 8.72,-1.883 13.68,-4.032 4.96,-2.148 9.19,-5.031 12.68,-8.648 3.48,-3.621 6.23,-8.793 8.25,-15.492 2.01,-6.707 2.61,-14.629 1.81,-23.739 -4.02,-55.812 -0.94,-83.851 9.26,-84.109 4.02,-0.281 8.99,2.949 14.88,9.66 10.74,12.071 20.06,25.41 27.97,40.039 7.91,14.61 13.22,26.219 15.9,34.809 l 3.62,12.473" style="fill:#111011;fill-opacity:1;fill-rule:nonzero;stroke:none" id="path106" transform="matrix(0.133333, 0, 0, -0.133333, 0, 749.213318)"/>
  <path d="m 2287.78,649.77 c -0.81,-10.2 2.68,-15.161 10.46,-14.891 9.12,0.543 18.64,7.113 28.58,19.723 5.08,6.711 9.25,14.218 12.47,22.539 -32.74,1.058 -49.91,-8.051 -51.51,-27.371 z m 171.84,19.722 9.66,-6.851 c -12.88,-34.602 -30.05,-59.02 -51.52,-73.239 -16.64,-10.73 -35.41,-15.55 -56.33,-14.48 -9.94,0.539 -17.38,4.019 -22.34,10.457 -4.97,6.441 -7.45,14.293 -7.45,23.543 0,9.258 0.67,19.379 2.01,30.379 -5.62,-10.192 -14.55,-18.981 -26.76,-26.352 -12.2,-7.39 -24.48,-9.597 -36.82,-6.636 -12.87,2.949 -20.92,9.917 -24.14,20.917 -3.22,11 -1.75,22.54 4.42,34.61 6.17,12.07 15.16,21.332 26.96,27.769 19.86,10.731 41.59,13.282 65.2,7.641 2.68,20.672 4.76,45.281 6.24,73.852 1.46,28.578 2.21,50.769 2.21,66.597 0,15.832 -0.14,26.703 -0.4,32.602 1.07,0 2.41,0.07 4.02,0.211 1.61,0.117 4.83,0 9.66,-0.403 4.83,-0.398 9.39,-1.218 13.68,-2.429 4.3,-1.2 8.99,-3.207 14.09,-6.028 5.09,-2.812 9.32,-6.23 12.68,-10.273 3.35,-4.02 5.9,-9.59 7.64,-16.688 1.74,-7.109 2.07,-15.089 1.01,-23.949 -0.81,-7.242 -2.41,-19.582 -4.83,-37.023 -10.46,-72.168 -14.22,-118.18 -11.27,-138.039 2.42,-17.438 8.85,-22.66 19.32,-15.688 9.66,6.438 18.04,13.75 25.15,21.93 7.11,8.187 11.87,14.828 14.29,19.918 l 3.62,7.652" style="fill:#111011;fill-opacity:1;fill-rule:nonzero;stroke:none" id="path108" transform="matrix(0.133333, 0, 0, -0.133333, 0, 749.213318)"/>
  <path d="m 2528.85,671.902 c -1.61,0 -3.1,0 -4.44,0 -1.34,0 -3.41,-0.742 -6.24,-2.203 -2.81,-1.488 -5.29,-3.57 -7.44,-6.238 -2.15,-2.691 -4.42,-7.051 -6.83,-13.082 -2.43,-6.047 -4.3,-13.219 -5.64,-21.527 19.85,-1.352 33.26,5.078 40.25,19.308 1.06,2.41 1.86,5.301 2.41,8.649 0.54,3.351 -0.14,6.703 -2.01,10.062 -1.89,3.348 -5.24,5.031 -10.06,5.031 z m 83.3,1.61 8.05,-6.43 c -22.28,-41.59 -50.31,-73.391 -84.12,-95.383 -28.71,-18.777 -52.98,-25.078 -72.84,-18.918 -20.65,6.711 -29.77,26.16 -27.36,58.36 0.26,4.289 0.81,8.711 1.61,13.281 2.41,13.68 6.78,25.48 13.08,35.41 6.31,9.918 13.28,17.367 20.92,22.34 7.65,4.957 15.83,8.578 24.55,10.867 8.72,2.274 16.43,3.34 23.15,3.211 6.7,-0.141 12.33,-0.871 16.89,-2.211 5.9,-1.879 10.74,-5.168 14.5,-9.859 3.75,-4.7 5.89,-10.801 6.43,-18.309 0.54,-7.512 -2.15,-15.969 -8.05,-25.351 -9.39,-15.301 -26.83,-22.54 -52.31,-21.731 -2.96,-26.57 2.81,-38.777 17.31,-36.617 15.82,2.41 37.95,19.039 66.39,49.891 16.37,17.976 26.96,31.796 31.8,41.449" style="fill:#111011;fill-opacity:1;fill-rule:nonzero;stroke:none" id="path110" transform="matrix(0.133333, 0, 0, -0.133333, 0, 749.213318)"/>
  <path d="m 2816.57,682.77 8.85,0.8 c 4.02,-0.257 5.49,-2.269 4.43,-6.031 0,-0.277 -0.68,-3.289 -2.01,-9.059 -1.35,-5.769 -2.76,-11.671 -4.23,-17.699 -1.48,-6.039 -3.83,-13.621 -7.04,-22.742 -3.23,-9.129 -6.58,-17.707 -10.06,-25.758 -3.5,-8.039 -7.99,-16.359 -13.49,-24.949 -5.5,-8.59 -11.34,-15.902 -17.51,-21.93 -6.17,-6.043 -13.47,-11 -21.92,-14.89 -8.46,-3.891 -17.38,-5.832 -26.77,-5.832 -25.75,0 -38.37,22.531 -37.83,67.601 -13.68,-21.199 -31.12,-31.261 -52.31,-30.179 -12.07,0.527 -21.12,5.437 -27.16,14.687 -6.04,9.25 -9.26,20.793 -9.66,34.602 -0.41,13.82 0.06,27.57 1.41,41.25 1.34,13.699 2.88,26.429 4.63,38.238 1.74,11.801 2.21,19.051 1.4,21.742 1.62,0.258 3.75,0.59 6.44,1 2.69,0.399 7.45,0.399 14.29,0 6.84,-0.41 12.67,-1.609 17.51,-3.621 4.82,-2.008 8.98,-5.84 12.47,-11.48 3.48,-5.629 4.56,-12.868 3.22,-21.731 -6.98,-49.098 -7.38,-76.199 -1.21,-81.277 3.76,-2.961 9.92,0 18.52,8.84 8.3,8.589 14.28,20.66 17.9,36.218 3.62,15.559 5.16,28.981 4.63,40.25 l -0.81,16.899 c 1.07,0.273 2.42,0.543 4.02,0.801 1.61,0.269 4.77,0.472 9.47,0.609 4.68,0.141 9.11,-0.066 13.28,-0.609 4.15,-0.528 8.78,-1.868 13.87,-4.02 5.1,-2.148 9.33,-5.027 12.69,-8.648 3.35,-3.633 6.09,-8.789 8.24,-15.493 2.15,-6.707 2.82,-14.629 2.01,-23.75 -0.53,-7.25 -1.47,-17.308 -2.81,-30.179 -2.96,-31.93 -3.22,-50.051 -0.81,-54.328 2.95,-4.563 9.39,-1.082 19.32,10.468 8.85,10.461 16.36,24.071 22.54,40.852 6.17,16.75 10.05,30.91 11.67,42.449 l 2.82,16.899" style="fill:#111011;fill-opacity:1;fill-rule:nonzero;stroke:none" id="path112" transform="matrix(0.133333, 0, 0, -0.133333, 0, 749.213318)"/>
  <path d="m 2850.77,540.313 c 2.42,-2.684 6.04,-5.633 10.87,-8.864 l 2.41,-1.199 c 9.12,-3.219 14.75,-1.348 16.9,5.641 2.15,7.23 1.82,15.078 -1,23.531 -2.82,8.457 -6.38,15.898 -10.67,22.34 -4.29,6.437 -10.87,15.551 -19.71,27.367 -1.35,1.601 -2.29,2.812 -2.83,3.613 -2.15,-4.562 -3.88,-9.793 -5.22,-15.691 -1.61,-7.781 -2.29,-15.16 -2.01,-22.129 0.26,-2.152 0.66,-5.633 1.2,-10.473 0.26,-0.797 0.54,-1.867 0.81,-3.207 0.26,-1.351 0.53,-2.562 0.8,-3.621 0.26,-1.082 0.54,-2.019 0.8,-2.832 1.35,-5.078 3.89,-9.918 7.65,-14.476 z m 123.95,121.527 1.61,-9.649 c -1.61,0.801 -3.89,1.938 -6.84,3.411 -2.95,1.48 -8.52,3.687 -16.7,6.64 -8.19,2.949 -15.9,5.028 -23.15,6.238 -7.23,1.219 -15.08,1.27 -23.53,0.211 -8.46,-1.082 -15.36,-4.031 -20.73,-8.859 2.95,-4.57 7.17,-10.801 12.68,-18.711 5.49,-7.922 9.92,-14.351 13.27,-19.32 3.36,-4.969 7.39,-11.141 12.08,-18.512 4.69,-7.379 8.26,-13.559 10.67,-18.519 2.41,-4.957 4.89,-10.59 7.44,-16.891 2.55,-6.309 3.89,-11.816 4.02,-16.5 0.14,-4.688 -0.26,-9.457 -1.2,-14.289 -0.95,-4.828 -3.09,-9.258 -6.44,-13.277 -3.36,-4.032 -7.72,-7.653 -13.08,-10.864 -19.05,-9.117 -35.15,-12.207 -48.29,-9.258 h -0.4 c -0.81,0 -1.35,0.141 -1.61,0.399 -3.5,0.539 -6.85,1.469 -10.06,2.812 -3.76,1.09 -8.46,3.36 -14.09,6.848 -6.18,4.02 -11.27,8.59 -15.3,13.68 -5.09,6.441 -8.84,13.679 -11.27,21.73 0,0.551 -0.06,1.153 -0.19,1.809 -0.14,0.672 -0.21,1.14 -0.21,1.41 l -0.4,0.812 v 0.801 l -0.4,1.61 -0.4,1.199 v 1.621 c -0.27,0.808 -0.41,1.867 -0.41,3.219 -0.8,4.019 -1.2,8.308 -1.2,12.879 0,9.66 1.07,18.64 3.21,26.96 2.43,8.309 5.9,16.762 10.47,25.352 0,0.27 0.13,0.398 0.4,0.398 l 0.4,0.809 c -4.28,5.891 -8.72,12.34 -13.28,19.313 -7.51,11.808 -12.67,22.75 -15.49,32.8 -2.82,10.059 -3.48,18.45 -2.01,25.161 1.47,6.699 4.03,12.726 7.65,18.109 3.62,5.359 7.98,9.59 13.07,12.668 5.1,3.09 9.87,5.699 14.29,7.851 4.43,2.141 8.25,3.481 11.47,4.028 l 4.83,1.203 c -6.98,-16.902 0.14,-42.391 21.33,-76.461 8.31,4.551 17.36,7.309 27.17,8.25 9.78,0.93 18.64,0.461 26.55,-1.41 7.92,-1.879 15.29,-4.16 22.14,-6.84 6.84,-2.68 12.14,-5.231 15.9,-7.641 l 6.03,-3.23" style="fill:#111011;fill-opacity:1;fill-rule:nonzero;stroke:none" id="path114" transform="matrix(0.133333, 0, 0, -0.133333, 0, 749.213318)"/>
  <path d="M 444.212 651.565 C 443.496 668.448 443.944 677.302 445.553 678.124 C 445.267 678.912 444.471 679.627 443.167 680.271 C 441.859 680.915 440.689 681.272 439.651 681.344 C 438.542 681.415 437.621 681.084 436.888 680.351 C 436.155 679.619 435.645 678.536 435.359 677.106 C 435.072 675.675 434.876 674.127 434.768 672.465 C 434.661 670.801 434.687 668.87 434.849 666.67 C 435.01 664.469 435.17 662.466 435.332 660.661 C 435.494 658.854 435.698 656.85 435.949 654.65 C 436.199 652.45 436.359 650.759 436.432 649.579 C 436.504 648.865 436.342 648.398 435.949 648.183 C 435.555 647.97 435.099 647.996 434.581 648.265 C 434.061 648.532 433.642 648.899 433.32 649.365 C 433.177 649.579 433.087 649.739 433.052 649.847 C 432.586 650.599 432.211 651.332 431.924 652.047 C 431.281 653.514 430.725 655.338 430.262 657.52 C 429.975 658.881 429.779 659.918 429.67 660.632 C 429.457 661.706 429.296 662.796 429.189 663.906 L 428.706 667.339 C 428.706 667.519 428.669 667.823 428.597 668.253 C 428.597 668.287 428.579 668.359 428.544 668.466 C 428.508 668.574 428.491 668.665 428.491 668.734 C 428.491 668.771 428.455 668.86 428.383 669.003 C 428.383 669.111 428.365 669.182 428.329 669.218 C 428.294 669.254 428.276 669.29 428.276 669.326 L 428.223 669.379 L 428.169 669.432 L 428.169 669.486 L 428.061 669.594 C 427.99 669.666 427.918 669.719 427.846 669.754 C 427.774 669.827 427.668 669.862 427.524 669.862 L 427.418 669.862 L 427.203 669.862 C 427.13 669.827 427.042 669.79 426.935 669.754 L 426.881 669.701 C 426.808 669.701 426.773 669.683 426.773 669.647 L 426.613 669.486 C 426.577 669.486 426.541 669.45 426.505 669.379 L 426.452 669.272 L 426.452 669.218 C 426.415 669.182 426.398 669.147 426.398 669.111 C 426.325 668.967 426.272 668.879 426.237 668.842 C 426.237 668.807 426.228 668.762 426.209 668.708 C 426.191 668.655 426.184 668.611 426.184 668.574 C 426.041 668.144 425.951 667.841 425.915 667.662 C 425.879 667.411 425.817 667.09 425.728 666.696 C 425.638 666.303 425.574 666.017 425.539 665.837 C 425.504 665.659 425.459 665.373 425.405 664.979 C 425.352 664.586 425.306 664.281 425.271 664.066 C 425.199 663.71 425.102 663.127 424.977 662.323 C 424.851 661.518 424.753 660.901 424.681 660.471 C 424.609 660.114 424.51 659.532 424.385 658.727 C 424.26 657.923 424.161 657.325 424.091 656.93 C 424.055 656.717 423.992 656.413 423.902 656.018 C 423.813 655.625 423.75 655.338 423.715 655.161 C 423.608 654.695 423.465 654.141 423.286 653.496 C 423.213 653.711 423.179 653.837 423.179 653.873 C 423.142 653.979 423.097 654.122 423.044 654.301 C 422.991 654.48 422.945 654.606 422.91 654.677 L 422.748 655.482 C 422.677 655.662 422.606 655.93 422.535 656.286 C 422.177 658.182 421.837 660.311 421.516 662.671 C 421.443 663.173 421.354 663.826 421.247 664.63 C 421.14 665.435 421.049 666.151 420.979 666.777 C 420.906 667.402 420.835 667.984 420.764 668.52 C 420.37 671.669 420.173 673.295 420.173 673.403 L 419.583 677.214 C 419.583 677.284 419.574 677.401 419.557 677.56 C 419.538 677.723 419.512 677.839 419.477 677.91 C 419.404 678.268 419.368 678.502 419.368 678.608 C 419.333 678.679 419.262 679.019 419.154 679.627 C 419.154 679.807 419.135 679.932 419.101 680.003 L 419.101 680.058 C 418.851 681.236 418.278 682.184 417.384 682.901 C 416.489 683.615 415.648 684.071 414.862 684.27 C 414.074 684.465 413.286 684.563 412.5 684.563 C 411.213 684.599 410.174 683.911 409.388 682.499 C 408.602 681.084 408.1 679.234 407.887 676.944 C 407.672 674.656 407.564 672.06 407.564 669.165 C 407.564 666.267 407.698 663.342 407.966 660.391 C 408.234 657.441 408.467 654.614 408.664 651.913 C 408.861 649.213 409.03 646.905 409.175 644.991 C 409.316 643.078 409.263 641.691 409.013 640.834 C 409.155 640.798 409.353 640.762 409.603 640.726 C 409.853 640.69 410.328 640.655 411.024 640.618 C 411.722 640.584 412.384 640.61 413.01 640.699 C 413.635 640.789 414.326 640.994 415.077 641.317 C 415.827 641.638 416.462 642.067 416.981 642.605 C 417.498 643.141 417.911 643.91 418.215 644.911 C 418.518 645.913 418.617 647.094 418.51 648.451 C 418.081 653.354 417.812 658.881 417.706 665.032 C 417.812 664.675 417.946 664.166 418.108 663.503 C 418.268 662.842 418.384 662.368 418.457 662.082 C 418.813 660.723 419.101 659.684 419.315 658.969 C 419.386 658.613 419.53 658.075 419.745 657.359 L 420.228 655.696 C 420.228 655.625 420.254 655.491 420.307 655.294 C 420.362 655.098 420.406 654.946 420.441 654.837 C 420.585 654.48 420.674 654.213 420.709 654.032 C 420.781 653.818 420.89 653.532 421.033 653.174 C 421.14 652.853 421.264 652.549 421.407 652.262 C 421.479 652.047 421.551 651.887 421.622 651.779 C 421.657 651.671 421.747 651.51 421.891 651.296 L 422.159 651.027 C 422.302 650.886 422.427 650.779 422.535 650.706 C 422.642 650.599 422.767 650.546 422.91 650.546 C 422.945 650.51 423.035 650.491 423.179 650.491 L 423.286 650.491 L 423.393 650.491 C 423.572 650.491 423.733 650.527 423.876 650.599 C 424.018 650.67 424.126 650.742 424.198 650.814 C 424.341 650.92 424.448 651.027 424.519 651.135 C 424.591 651.207 424.663 651.315 424.734 651.457 C 424.806 651.601 424.878 651.779 424.949 651.994 C 425.128 652.351 425.235 652.656 425.271 652.906 C 425.521 653.873 425.664 654.48 425.701 654.73 C 425.772 655.161 425.879 655.768 426.022 656.555 C 426.165 657.378 426.344 658.575 426.558 660.15 C 426.594 660.33 426.64 660.623 426.693 661.035 C 426.747 661.447 426.792 661.759 426.827 661.974 C 426.862 662.189 426.907 662.494 426.961 662.887 C 427.016 663.281 427.06 663.566 427.095 663.744 L 427.257 665.032 C 427.292 664.854 427.337 664.622 427.391 664.335 C 427.444 664.05 427.471 663.835 427.471 663.691 L 427.955 660.365 C 428.024 659.756 428.223 658.683 428.544 657.144 C 428.616 656.859 428.732 656.377 428.893 655.696 C 429.055 655.017 429.189 654.499 429.296 654.141 C 429.796 652.673 430.118 651.762 430.262 651.403 C 430.512 650.689 430.905 649.866 431.441 648.935 C 431.835 648.22 432.336 647.522 432.944 646.842 C 433.552 646.234 434.125 645.787 434.661 645.502 L 434.715 645.447 C 434.786 645.447 434.823 645.43 434.823 645.393 C 435.395 645.108 436.056 644.893 436.807 644.75 C 436.879 644.75 436.932 644.731 436.969 644.696 C 437.147 644.662 437.398 644.625 437.72 644.589 C 438.042 644.554 438.613 644.581 439.436 644.67 C 440.259 644.759 440.983 644.974 441.609 645.314 C 442.235 645.654 442.818 646.289 443.354 647.219 C 443.89 648.149 444.175 649.311 444.212 650.706 L 444.212 650.867 L 444.212 650.974 L 444.212 651.027 L 444.212 651.565" style="fill:#111011;fill-opacity:1;fill-rule:nonzero;stroke:none" id="path116"/>
  <path d="M 458.861 663.583 C 458.181 663.37 457.411 663.583 456.553 664.227 C 456.625 664.371 456.768 664.55 456.983 664.765 C 457.268 665.051 457.573 665.266 457.895 665.408 C 458.073 665.553 458.271 665.642 458.484 665.677 C 458.914 665.783 459.146 665.837 459.182 665.837 C 459.612 665.946 460.04 665.999 460.47 665.999 C 460.22 664.639 459.684 663.835 458.861 663.583 Z M 454.89 676.032 C 455.784 676.319 456.732 675.951 457.733 674.932 C 458.734 673.912 459.504 672.544 460.04 670.829 C 460.184 670.398 460.327 669.827 460.47 669.111 C 459.754 669.182 459.2 669.201 458.807 669.165 C 458.734 669.165 458.618 669.156 458.458 669.138 C 458.297 669.119 458.154 669.103 458.029 669.083 C 457.904 669.066 457.788 669.039 457.68 669.003 C 457.43 668.967 457.053 668.879 456.553 668.734 C 455.944 668.556 455.319 668.234 454.675 667.77 C 454.461 667.626 454.318 667.519 454.246 667.447 C 454.174 667.626 453.995 668.072 453.709 668.789 C 453.173 670.505 453.021 672.071 453.254 673.483 C 453.485 674.896 454.031 675.746 454.89 676.032 Z M 472.383 662.457 L 473.026 663.583 C 472.846 663.727 472.596 663.906 472.274 664.119 C 472.238 664.156 472.168 664.201 472.06 664.255 C 471.953 664.308 471.881 664.353 471.845 664.39 L 471.363 664.711 C 471.327 664.746 471.246 664.801 471.121 664.871 C 470.996 664.944 470.897 664.998 470.827 665.032 C 470.753 665.069 470.647 665.139 470.503 665.247 C 470.361 665.354 470.253 665.427 470.182 665.462 C 469.788 665.642 469.556 665.766 469.484 665.837 C 469.412 665.91 469.288 665.99 469.109 666.079 C 468.929 666.17 468.805 666.231 468.733 666.267 C 468.698 666.303 468.634 666.347 468.546 666.401 C 468.456 666.454 468.393 666.482 468.358 666.482 L 468.143 666.589 C 468.107 666.589 468.072 666.607 468.036 666.642 C 468 666.678 467.963 666.696 467.929 666.696 C 467.785 666.731 467.641 666.803 467.5 666.91 C 467.356 666.947 467.212 667.018 467.07 667.124 C 466.675 667.305 466.051 667.572 465.193 667.93 C 464.655 668.144 463.994 668.378 463.207 668.627 C 463.099 668.665 462.946 668.708 462.752 668.762 C 462.553 668.815 462.419 668.842 462.347 668.842 C 462.24 669.486 462.079 670.13 461.866 670.774 C 460.971 673.563 459.45 675.702 457.305 677.186 C 455.157 678.67 452.994 679.072 450.811 678.393 C 448.629 677.715 447.091 676.148 446.198 673.698 C 445.303 671.248 445.303 668.611 446.198 665.783 C 447.091 662.994 448.612 660.857 450.758 659.371 C 452.905 657.889 455.069 657.486 457.252 658.165 C 458.718 658.63 459.916 659.569 460.846 660.982 C 461.776 662.394 462.312 664.031 462.456 665.891 L 462.617 665.891 C 463.51 665.713 464.118 665.587 464.441 665.515 C 464.726 665.48 465.317 665.319 466.212 665.032 C 466.425 664.961 466.569 664.907 466.64 664.871 C 466.856 664.801 466.997 664.765 467.07 664.765 L 467.285 664.658 C 467.32 664.658 467.356 664.649 467.391 664.63 C 467.427 664.613 467.463 664.603 467.5 664.603 C 467.535 664.567 467.597 664.532 467.687 664.496 C 467.776 664.461 467.838 664.443 467.875 664.443 L 468.679 664.119 C 468.895 664.05 469.126 663.959 469.377 663.851 C 469.662 663.71 469.877 663.619 470.021 663.583 C 470.307 663.442 470.503 663.351 470.612 663.315 C 470.647 663.281 470.728 663.235 470.852 663.181 C 470.978 663.127 471.058 663.083 471.095 663.047 L 471.577 662.887 L 472.383 662.457" style="fill:#111011;fill-opacity:1;fill-rule:nonzero;stroke:none" id="path118"/>
  <path d="M 477.533 688.427 C 478.891 683.847 477.962 679.324 474.742 674.851 C 469.126 678.858 466.909 682.059 468.088 684.457 C 469.198 686.638 470.699 688.32 472.596 689.501 C 474.742 690.823 476.263 690.753 477.157 689.286 C 477.299 689.035 477.425 688.748 477.533 688.427 Z M 478.337 672.544 C 483.488 675.193 486.029 679.556 485.957 685.636 C 485.92 687.46 485.679 689.071 485.233 690.466 C 484.785 691.862 484.249 692.943 483.622 693.712 C 482.996 694.482 482.253 695.115 481.396 695.617 C 480.538 696.118 479.777 696.457 479.116 696.636 C 478.453 696.815 477.783 696.923 477.102 696.958 C 472.417 697.138 468.303 693.418 464.762 685.798 C 463.152 682.471 466.104 678.358 473.616 673.457 L 472.381 672.223 L 472.113 670.72 C 472.291 670.648 472.523 670.559 472.811 670.451 C 473.096 670.344 473.624 670.086 474.393 669.674 C 475.162 669.263 475.886 668.834 476.567 668.387 C 477.246 667.939 477.944 667.367 478.659 666.67 C 479.375 665.971 479.929 665.266 480.323 664.55 C 481.252 662.832 481.109 661.993 479.893 662.027 C 478.82 662.027 476.173 662.958 471.951 664.818 C 470.485 665.462 469.305 665.373 468.411 664.55 C 467.515 663.727 466.979 662.762 466.801 661.653 L 466.533 659.935 C 466.854 659.935 467.633 659.667 468.867 659.13 C 470.101 658.594 471.45 658.039 472.918 657.467 C 474.384 656.894 475.877 656.42 477.398 656.046 C 478.918 655.67 480.277 655.678 481.476 656.071 C 482.674 656.466 483.453 657.325 483.811 658.647 C 485.169 663.549 482.147 667.717 474.742 671.15 C 475.35 671.293 475.923 671.471 476.459 671.686 C 478.749 670.327 481.262 668.986 483.999 667.662 C 486.734 666.338 488.907 665.337 490.518 664.658 L 492.879 663.691 L 493.253 664.871 C 487.996 667.124 483.023 669.683 478.337 672.544" style="fill:#111011;fill-opacity:1;fill-rule:nonzero;stroke:none" id="path120"/>
  <path d="M 492.824 668.681 C 492.752 670.505 493.522 671.15 495.131 670.614 C 496.419 670.148 497.742 669.182 499.102 667.717 C 499.245 666.357 499.371 665.337 499.478 664.658 C 498.906 664.658 498.324 664.702 497.734 664.791 C 497.145 664.882 496.446 665.042 495.641 665.274 C 494.837 665.506 494.174 665.918 493.656 666.507 C 493.138 667.099 492.859 667.823 492.824 668.681 Z M 517.614 663.423 L 519.385 663.423 C 519.242 663.925 519.027 664.577 518.74 665.382 C 518.454 666.186 517.811 667.617 516.81 669.674 C 515.807 671.731 514.734 673.556 513.59 675.147 C 512.445 676.739 510.924 678.178 509.029 679.466 C 507.133 680.754 505.165 681.398 503.127 681.398 C 501.803 681.398 500.774 680.923 500.041 679.977 C 499.308 679.029 498.87 677.893 498.726 676.569 C 498.583 675.246 498.566 673.618 498.673 671.686 C 496.169 674.119 493.522 675.103 490.732 674.636 C 488.979 674.315 487.851 673.439 487.351 672.007 C 486.851 670.578 486.968 669.039 487.7 667.393 C 488.434 665.749 489.568 664.443 491.108 663.477 C 493.647 661.902 496.527 661.384 499.746 661.92 C 499.854 660.277 499.818 659.077 499.639 658.326 C 499.781 658.29 499.961 658.254 500.175 658.218 C 500.39 658.182 500.81 658.156 501.436 658.138 C 502.062 658.119 502.652 658.147 503.207 658.218 C 503.762 658.29 504.37 658.469 505.031 658.755 C 505.692 659.042 506.257 659.426 506.723 659.908 C 507.186 660.391 507.553 661.081 507.822 661.974 C 508.09 662.868 508.17 663.925 508.063 665.139 C 507.527 672.581 507.937 676.319 509.298 676.354 C 509.835 676.391 510.496 675.96 511.283 675.066 C 512.713 673.457 513.957 671.678 515.012 669.727 C 516.066 667.779 516.773 666.231 517.131 665.086 L 517.614 663.423" style="fill:#111011;fill-opacity:1;fill-rule:nonzero;stroke:none" id="path122"/>
  <path d="M 537.253 665.247 L 538.434 665.194 C 538.934 665.301 539.113 665.587 538.972 666.053 C 538.972 666.089 538.845 666.535 538.594 667.393 C 538.345 668.253 538.077 669.182 537.79 670.183 C 537.503 671.186 537.092 672.41 536.556 673.859 C 536.019 675.308 535.455 676.695 534.866 678.018 C 534.276 679.341 533.552 680.683 532.692 682.042 C 531.835 683.401 530.949 684.563 530.036 685.53 C 529.125 686.496 528.078 687.274 526.898 687.865 C 525.717 688.454 524.501 688.714 523.249 688.642 C 522.284 688.606 521.478 688.293 520.835 687.703 C 520.19 687.114 519.743 686.298 519.493 685.262 C 519.242 684.224 519.082 683.115 519.01 681.935 C 518.937 680.754 518.983 679.378 519.145 677.803 C 519.304 676.229 519.475 674.807 519.653 673.538 C 519.832 672.268 520.038 670.846 520.271 669.272 C 520.503 667.698 520.673 666.482 520.781 665.622 C 518.527 665.587 516.747 665.382 515.441 665.005 C 514.135 664.63 513.304 664.156 512.946 663.583 C 512.588 663.011 512.364 662.368 512.276 661.653 C 512.186 660.938 512.223 660.195 512.384 659.426 C 512.544 658.656 512.481 657.895 512.195 657.144 C 512.41 657.038 512.687 656.93 513.027 656.823 C 513.367 656.717 513.975 656.591 514.851 656.447 C 515.728 656.305 516.496 656.305 517.159 656.447 C 517.82 656.591 518.393 657.003 518.876 657.681 C 519.359 658.362 519.547 659.344 519.44 660.632 C 519.367 661.563 520.136 662.027 521.747 662.027 C 522.318 661.993 522.89 661.993 523.463 662.027 C 524.035 662.063 524.716 662.217 525.502 662.484 C 526.289 662.753 526.942 663.137 527.461 663.638 C 527.979 664.139 528.4 664.882 528.723 665.865 C 529.044 666.848 529.116 668.003 528.937 669.326 C 528.078 675.907 527.685 679.914 527.757 681.344 C 527.828 684.062 528.757 684.457 530.547 682.524 C 531.798 681.202 532.988 679.101 534.114 676.22 C 535.242 673.341 536.054 670.793 536.556 668.574 L 537.253 665.247" style="fill:#111011;fill-opacity:1;fill-rule:nonzero;stroke:none" id="path124"/>
  <path d="M 555.658 663.583 L 556.838 664.443 C 556.732 664.729 556.588 665.095 556.41 665.543 C 556.23 665.99 555.828 666.884 555.202 668.226 C 554.577 669.566 553.922 670.836 553.244 672.035 C 552.564 673.234 551.697 674.558 550.642 676.005 C 549.586 677.454 548.513 678.689 547.421 679.708 C 546.33 680.727 545.069 681.559 543.64 682.203 C 542.208 682.846 540.777 683.115 539.346 683.007 C 538.488 682.971 537.753 682.543 537.146 681.72 C 536.538 680.896 536.082 679.69 535.778 678.098 C 535.474 676.506 535.242 674.851 535.08 673.135 C 534.919 671.418 534.857 669.335 534.893 666.884 C 534.928 664.434 534.981 662.261 535.053 660.365 C 535.125 658.469 535.233 656.251 535.376 653.711 C 535.161 653.711 534.857 653.72 534.463 653.738 C 534.07 653.756 533.784 653.782 533.605 653.818 C 532.817 653.818 532.245 653.837 531.888 653.873 L 529.366 653.873 L 528.614 653.873 L 528.401 653.873 L 528.239 652.208 C 528.311 652.208 528.401 652.191 528.507 652.155 C 528.544 652.155 528.776 652.119 529.205 652.047 C 529.384 652.011 529.599 651.977 529.849 651.941 C 530.099 651.905 530.412 651.859 530.788 651.806 C 531.164 651.753 531.476 651.708 531.728 651.671 C 531.835 651.671 532.085 651.644 532.478 651.591 C 532.871 651.538 533.175 651.494 533.39 651.457 C 533.784 651.386 534.41 651.315 535.268 651.242 C 535.34 651.207 535.411 651.189 535.483 651.189 C 535.948 644.106 536.038 640.029 535.751 638.954 C 535.894 638.919 536.073 638.884 536.288 638.848 C 536.502 638.813 536.923 638.784 537.549 638.767 C 538.174 638.75 538.764 638.777 539.32 638.848 C 539.873 638.919 540.481 639.099 541.144 639.384 C 541.806 639.67 542.368 640.055 542.834 640.538 C 543.3 641.02 543.666 641.71 543.934 642.605 C 544.202 643.499 544.282 644.554 544.176 645.77 C 544.14 646.413 544.049 647.989 543.908 650.491 C 544.049 650.491 544.301 650.483 544.658 650.465 C 545.016 650.447 545.266 650.438 545.41 650.438 C 545.804 650.402 546.357 650.384 547.073 650.384 C 547.252 650.384 547.502 650.377 547.824 650.357 C 548.146 650.339 548.378 650.331 548.522 650.331 L 549.648 650.331 L 550.614 650.331 L 550.722 651.994 C 550.508 652.066 550.202 652.137 549.81 652.208 C 549.488 652.281 549.112 652.335 548.684 652.37 C 548.538 652.37 548.316 652.395 548.012 652.45 C 547.708 652.503 547.466 652.549 547.288 652.584 C 547.108 652.584 546.832 652.611 546.456 652.665 C 546.081 652.719 545.785 652.763 545.57 652.798 C 545.426 652.798 545.149 652.826 544.74 652.879 C 544.328 652.932 544.014 652.978 543.801 653.013 C 543.656 655.839 543.549 658.951 543.477 662.35 C 543.513 668.86 543.568 672.527 543.64 673.348 C 543.889 676.282 544.516 677.731 545.517 677.695 C 545.981 677.695 546.518 677.447 547.128 676.944 C 548.164 676.086 549.398 674.548 550.829 672.33 C 552.258 670.112 553.422 668.091 554.317 666.267 L 555.658 663.583" style="fill:#111011;fill-opacity:1;fill-rule:nonzero;stroke:none" id="path126"/>
</svg>