<?xml version="1.0" encoding="utf-8"?>
<svg viewBox="0 666.434 324.088 70.247" width="324.088" height="70.247" xmlns="http://www.w3.org/2000/svg">
  <path d="m 147.309,200.871 c 1.062,-14.5 -2.422,-26.359 -10.469,-35.621 -8.051,-9.262 -18.652,-15.551 -31.789,-18.91 -13.1526,-3.352 -26.3674,-5.641 -39.6487,-6.852 -13.2695,-1.199 -25.8867,-2.008 -37.8203,-2.41 -11.9453,-0.398 -19.25778,-1.269 -21.93356,-2.617 -0.53906,1.891 -1.28125,4.301 -2.21875,7.25 -0.9375,2.961 -1.875,8.25 -2.812502,15.898 -0.937501,7.641 -0.808594,14.411 0.402342,20.321 1.21094,5.902 4.49219,11.39 9.86327,16.488 5.3594,5.102 13.0078,7.91 22.9375,8.461 45.0703,2.141 70.5587,6.43 76.4567,12.883 2.684,2.937 2.684,6.968 0,12.066 -3.761,7.254 -10.058,14.754 -18.9176,22.531 -8.8477,7.782 -17.7031,14.961 -26.5508,21.532 -8.8594,6.57 -17.9102,13.89 -27.168,21.941 -9.2578,8.039 -16.3008,16.898 -21.125,26.559 -4.832,9.66 -7.51951,20.379 -8.05466,32.199 -0.53906,11.789 3.42576,25.808 11.87496,42.051 8.4454,16.23 21.2579,34 38.4375,53.32 7.5,7.508 12.7344,12.48 15.6914,14.891 16.0938,12.878 30.7152,17.168 43.8592,12.878 23.614,-7.25 31.797,-26.031 24.547,-56.351 -3.211,-12.34 -5.965,-26.957 -8.25,-43.848 -2.273,-16.91 -3.418,-28.992 -3.418,-36.23 h -16.492 c 2.41,28.168 4.551,51.238 6.434,69.219 0.265,3.218 -0.946,4.148 -3.622,2.82 -2.414,-1.078 -8.046,-5.899 -16.906,-14.488 -13.6795,-13.684 -23.4764,-26.704 -29.3748,-39.043 -5.9063,-12.34 -8.0469,-23.34 -6.4336,-33 1.6094,-9.661 5.0273,-18.778 10.2617,-27.36 5.2266,-8.59 11.8672,-16.84 19.9141,-24.75 8.0546,-7.918 15.7616,-15.5 23.1446,-22.738 7.371,-7.242 13.945,-15.16 19.715,-23.742 5.773,-8.598 8.918,-17.039 9.465,-25.348" style="fill:#111011;fill-opacity:1;fill-rule:nonzero;stroke:none" id="path84" transform="matrix(0.133333, 0, 0, -0.133333, 0, 736.679993)"/>
  <path d="m 249.121,290.199 c -1.609,0 -3.094,0 -4.43,0 -1.347,0 -3.418,-0.738 -6.242,-2.199 -2.812,-1.488 -5.293,-3.57 -7.441,-6.238 -2.149,-2.692 -4.422,-7.051 -6.836,-13.082 -2.422,-6.051 -4.297,-13.219 -5.633,-21.532 19.844,-1.347 33.262,5.082 40.242,19.313 1.067,2.41 1.867,5.301 2.414,8.648 0.535,3.352 -0.136,6.7 -2.011,10.059 -1.887,3.352 -5.235,5.031 -10.063,5.031 z m 83.305,1.61 8.047,-6.43 C 318.195,243.789 290.168,211.988 256.359,190 227.648,171.219 203.371,164.922 183.52,171.078 c -20.657,6.711 -29.778,26.16 -27.364,58.363 0.262,4.289 0.809,8.707 1.61,13.278 2.414,13.679 6.777,25.48 13.078,35.41 6.308,9.922 13.277,17.371 20.926,22.34 7.648,4.961 15.832,8.582 24.55,10.871 8.711,2.269 16.426,3.351 23.145,3.211 6.699,-0.141 12.336,-0.871 16.894,-2.211 5.899,-1.879 10.735,-5.168 14.493,-9.86 3.75,-4.699 5.898,-10.8 6.437,-18.308 0.535,-7.512 -2.148,-15.973 -8.047,-25.352 -9.394,-15.3 -26.836,-22.539 -52.316,-21.73 -2.957,-26.559 2.812,-38.781 17.304,-36.621 15.821,2.41 37.961,19.043 66.399,49.89 16.367,17.981 26.961,31.801 31.797,41.45" style="fill:#111011;fill-opacity:1;fill-rule:nonzero;stroke:none" id="path86" transform="matrix(0.133333, 0, 0, -0.133333, 0, 736.679993)"/>
  <path d="m 487.758,286.18 8.855,0.398 c 3.75,-0.797 5.09,-2.949 4.024,-6.437 0,-0.27 -0.946,-3.621 -2.821,-10.051 -1.875,-6.449 -3.886,-13.418 -6.035,-20.93 -2.148,-7.519 -5.234,-16.699 -9.258,-27.57 -4.027,-10.871 -8.253,-21.27 -12.675,-31.192 -4.426,-9.918 -9.856,-19.988 -16.301,-30.179 -6.434,-10.188 -13.074,-18.91 -19.922,-26.16 -6.836,-7.25 -14.687,-13.079 -23.535,-17.508 -8.856,-4.422 -17.977,-6.371 -27.371,-5.832 -7.239,0.269 -13.281,2.621 -18.106,7.043 -4.836,4.429 -8.183,10.539 -10.058,18.308 -1.887,7.789 -3.086,16.102 -3.625,24.95 -0.547,8.859 -0.203,19.179 1.008,30.992 1.199,11.808 2.48,22.468 3.816,31.988 1.34,9.52 2.883,20.191 4.629,31.988 1.75,11.813 3.019,20.93 3.828,27.383 -16.902,0.258 -30.254,1.797 -40.047,4.629 -9.797,2.809 -16.027,6.359 -18.711,10.66 -2.687,4.289 -4.367,9.11 -5.031,14.481 -0.676,5.359 -0.399,10.929 0.812,16.699 1.2,5.769 0.731,11.48 -1.418,17.109 1.614,0.801 3.692,1.61 6.243,2.41 2.546,0.801 7.109,1.743 13.679,2.821 6.575,1.07 12.336,1.07 17.305,0 4.961,-1.078 9.258,-4.16 12.883,-9.25 3.621,-5.11 5.027,-12.481 4.226,-22.141 -0.547,-6.98 5.227,-10.461 17.305,-10.461 4.289,0.262 8.574,0.262 12.871,0 4.289,-0.269 9.395,-1.418 15.293,-3.43 5.899,-2.007 10.801,-4.886 14.688,-8.648 3.886,-3.762 7.043,-9.332 9.464,-16.699 2.411,-7.379 2.95,-16.031 1.61,-25.961 -6.445,-49.36 -9.395,-79.41 -8.856,-90.141 0.536,-20.379 7.508,-23.34 20.926,-8.847 9.387,9.918 18.313,25.679 26.758,47.277 8.457,21.601 14.551,40.711 18.312,57.351 l 5.235,24.95" style="fill:#111011;fill-opacity:1;fill-rule:nonzero;stroke:none" id="path88" transform="matrix(0.133333, 0, 0, -0.133333, 0, 736.679993)"/>
  <path d="m 566.621,91.8008 c 1.067,31.9372 0.942,70.8282 -0.398,116.7072 C 516.32,169.07 497.004,138.359 508.273,116.359 519.27,95.6992 531.066,81.75 543.684,74.5 c 12.336,-7.25 19.718,-3.4922 22.14,11.2695 0.528,1.8711 0.797,3.9024 0.797,6.0313 z M 504.652,258.012 c -0.273,-13.422 6.969,-18.114 21.727,-14.094 13.418,4.031 25.617,11.812 36.621,23.34 0.266,0.273 0.539,0.543 0.813,0.812 v 0.399 c -0.813,9.66 -1.348,16.91 -1.614,21.73 -4.297,0 -9.051,-0.398 -14.285,-1.199 -5.234,-0.809 -11.34,-2.16 -18.312,-4.031 -6.981,-1.879 -12.813,-5.168 -17.508,-9.86 -4.699,-4.687 -7.18,-10.398 -7.442,-17.097 z m 200.411,49.097 3.621,-10.058 c -26.297,-13.422 -54.2,-29.391 -83.711,-47.891 6.445,-84.238 8.586,-142.601 6.445,-175.0584 C 628.195,25.2695 617.191,0.71875 598.422,0.460938 595.199,-0.078125 591.508,-0.148438 587.348,0.25 c -4.16,0.398438 -10.598,2.35938 -19.317,5.83984 -8.722,3.48829 -17.304,8.58986 -25.754,15.28126 -8.457,6.7187 -18.047,17.3086 -28.781,31.7969 -10.73,14.4922 -20.652,31.8008 -29.773,51.922 -15.567,30.859 11.808,71.359 82.101,121.531 -0.547,8.051 -0.812,14.219 -0.812,18.508 -9.657,-9.649 -21.602,-18.039 -35.809,-25.149 -14.23,-7.109 -27.637,-9.589 -40.246,-7.441 -13.418,2.41 -22.07,9.109 -25.957,20.109 -3.887,11 -3.016,22.813 2.617,35.422 5.625,12.61 14.348,22.668 26.153,30.18 11.535,7.25 24.746,11.672 39.64,13.281 14.891,1.61 24.61,1.34 29.18,-0.801 -1.074,13.68 -2.149,22.668 -3.223,26.961 0.809,0.27 1.942,0.539 3.418,0.797 1.473,0.274 4.293,0.614 8.457,1.012 4.149,0.41 8.184,0.328 12.071,-0.199 3.886,-0.539 8.308,-1.879 13.281,-4.02 4.961,-2.16 9.258,-5.031 12.879,-8.652 3.625,-3.617 6.836,-9 9.66,-16.098 2.812,-7.109 4.629,-15.492 5.43,-25.152 l 1.21,-21.328 c 13.133,7.5 26.485,14.879 40.04,22.129 13.542,7.25 23.808,12.48 30.789,15.691 l 10.461,5.238" style="fill:#111011;fill-opacity:1;fill-rule:nonzero;stroke:none" id="path90" transform="matrix(0.133333, 0, 0, -0.133333, 0, 736.679993)"/>
  <path d="m 740.48,290.199 c -1.609,0 -3.093,0 -4.433,0 -1.348,0 -3.418,-0.738 -6.238,-2.199 -2.813,-1.488 -5.293,-3.57 -7.442,-6.238 -2.148,-2.692 -4.426,-7.051 -6.836,-13.082 -2.422,-6.051 -4.297,-13.219 -5.636,-21.532 19.843,-1.347 33.261,5.082 40.246,19.313 1.062,2.41 1.863,5.301 2.41,8.648 0.539,3.352 -0.137,6.7 -2.012,10.059 -1.883,3.352 -5.234,5.031 -10.059,5.031 z m 83.301,1.61 8.047,-6.43 C 809.555,243.789 781.527,211.988 747.719,190 719.008,171.219 694.73,164.922 674.875,171.078 c -20.652,6.711 -29.773,26.16 -27.363,58.363 0.265,4.289 0.812,8.707 1.609,13.278 2.414,13.679 6.781,25.48 13.078,35.41 6.309,9.922 13.281,17.371 20.93,22.34 7.644,4.961 15.828,8.582 24.551,10.871 8.711,2.269 16.425,3.351 23.144,3.211 6.699,-0.141 12.332,-0.871 16.895,-2.211 5.898,-1.879 10.73,-5.168 14.492,-9.86 3.75,-4.699 5.898,-10.8 6.434,-18.308 0.539,-7.512 -2.149,-15.973 -8.047,-25.352 -9.395,-15.3 -26.836,-22.539 -52.313,-21.73 -2.961,-26.559 2.813,-38.781 17.305,-36.621 15.82,2.41 37.957,19.043 66.394,49.89 16.368,17.981 26.965,31.801 31.797,41.45" style="fill:#111011;fill-opacity:1;fill-rule:nonzero;stroke:none" id="path92" transform="matrix(0.133333, 0, 0, -0.133333, 0, 736.679993)"/>
  <path d="m 863.617,355.801 c -5.898,-5.903 -13.008,-8.852 -21.328,-8.852 -8.32,0 -15.43,2.949 -21.328,8.852 -5.898,5.898 -8.848,13.019 -8.848,21.328 0,8.32 2.95,15.43 8.848,21.32 5.898,5.903 13.008,8.86 21.328,8.86 8.32,0 15.43,-2.957 21.328,-8.86 5.899,-5.89 8.856,-13 8.856,-21.32 0,-8.309 -2.957,-15.43 -8.856,-21.328 z m 78.477,-59.961 11.668,-4.43 c -0.266,-0.269 -2.078,-4.16 -5.43,-11.672 -3.359,-7.519 -6.98,-15.359 -10.867,-23.539 -3.887,-8.179 -9.395,-17.508 -16.496,-27.969 -7.117,-10.46 -14.422,-19.66 -21.934,-27.57 -7.519,-7.91 -16.504,-14.551 -26.961,-19.922 -10.469,-5.367 -21.066,-7.91 -31.797,-7.648 -12.074,0.539 -21.125,5.441 -27.16,14.691 -6.043,9.258 -9.258,20.789 -9.656,34.61 -0.41,13.82 0.059,27.57 1.406,41.25 1.336,13.687 2.879,26.429 4.629,38.23 1.738,11.809 2.207,19.059 1.406,21.738 1.61,0.262 3.75,0.602 6.434,1.012 2.687,0.399 7.453,0.399 14.285,0 6.848,-0.41 12.68,-1.609 17.512,-3.633 4.824,-2.008 8.984,-5.84 12.472,-11.468 3.485,-5.641 4.559,-12.872 3.223,-21.731 -7.25,-49.098 -6.039,-75.531 3.621,-79.281 4.024,-1.61 9.524,0 16.496,4.832 8.582,5.898 17.645,15.762 27.168,29.582 9.52,13.816 16.961,26.09 22.332,36.816 l 7.649,16.102" style="fill:#111011;fill-opacity:1;fill-rule:nonzero;stroke:none" id="path94" transform="matrix(0.133333, 0, 0, -0.133333, 0, 736.679993)"/>
  <path d="m 1156.17,411.34 c -5.89,0.531 -11.93,-4.301 -18.1,-14.488 -6.17,-10.204 -11.54,-23.071 -16.1,-38.633 -4.57,-15.571 -8.19,-28.778 -10.86,-39.649 -2.69,-10.859 -4.7,-20.32 -6.04,-28.371 v -3.211 c 19.84,13.953 36.22,35.813 49.09,65.602 10.47,24.668 13.68,42.25 9.66,52.711 -1.61,3.75 -4.16,5.758 -7.65,6.039 z m 14.1,16.898 c 16.35,-2.148 24,-13.816 22.93,-35.008 -1.34,-23.89 -11.81,-49.5 -31.39,-76.871 -16.64,-23.328 -35.81,-41.05 -57.55,-53.121 -1.35,-59.297 1.47,-91.078 8.46,-95.367 -2.16,-6.453 -8.25,-12.141 -18.31,-17.109 -10.07,-4.961 -18.99,-7.582 -26.77,-7.84 -9.66,-0.274 -17.44,4.887 -23.34,15.488 -5.91,10.602 -9.66,24.481 -11.27,41.649 -1.61,17.16 -2.41,36.621 -2.41,58.363 0,21.719 1,43.656 3.02,65.789 2.01,22.141 3.68,43.398 5.02,63.789 1.34,20.391 2.55,37.762 3.63,52.109 1.07,14.352 0.66,24.75 -1.21,31.192 1.07,0.258 2.55,0.527 4.43,0.808 1.88,0.262 5.43,0.52 10.66,0.801 5.24,0.262 10.2,0.07 14.9,-0.609 4.68,-0.672 9.85,-2.199 15.49,-4.633 5.63,-2.406 10.39,-5.617 14.28,-9.648 3.89,-4.032 6.97,-9.801 9.26,-17.309 2.28,-7.512 3.02,-16.371 2.21,-26.551 -0.8,-10.469 -1.6,-22.808 -2.42,-37.031 17.45,37.031 37.56,54.062 60.38,51.109" style="fill:#111011;fill-opacity:1;fill-rule:nonzero;stroke:none" id="path96" transform="matrix(0.133333, 0, 0, -0.133333, 0, 736.679993)"/>
  <path d="m 1381.14,286.18 8.85,0.398 c 3.75,-0.797 5.09,-2.949 4.03,-6.437 0,-0.27 -0.95,-3.621 -2.83,-10.051 -1.87,-6.449 -3.88,-13.418 -6.03,-20.93 -2.15,-7.519 -5.24,-16.699 -9.26,-27.57 -4.02,-10.871 -8.25,-21.27 -12.67,-31.192 -4.43,-9.918 -9.86,-19.988 -16.3,-30.179 -6.44,-10.188 -13.08,-18.91 -19.93,-26.16 -6.83,-7.25 -14.68,-13.079 -23.53,-17.508 -8.86,-4.422 -17.98,-6.371 -27.37,-5.832 -7.24,0.269 -13.29,2.621 -18.11,7.043 -4.83,4.429 -8.18,10.539 -10.06,18.308 -1.88,7.789 -3.08,16.102 -3.62,24.95 -0.55,8.859 -0.21,19.179 1,30.992 1.21,11.808 2.49,22.468 3.82,31.988 1.34,9.52 2.88,20.191 4.63,31.988 1.75,11.813 3.02,20.93 3.83,27.383 -16.9,0.258 -30.25,1.797 -40.05,4.629 -9.79,2.809 -16.02,6.359 -18.71,10.66 -2.69,4.289 -4.36,9.11 -5.03,14.481 -0.67,5.359 -0.4,10.929 0.81,16.699 1.2,5.769 0.73,11.48 -1.41,17.109 1.61,0.801 3.69,1.61 6.24,2.41 2.54,0.801 7.11,1.743 13.68,2.821 6.57,1.07 12.33,1.07 17.3,0 4.96,-1.078 9.26,-4.16 12.88,-9.25 3.63,-5.11 5.03,-12.481 4.23,-22.141 -0.55,-6.98 5.23,-10.461 17.31,-10.461 4.28,0.262 8.57,0.262 12.87,0 4.28,-0.269 9.39,-1.418 15.29,-3.43 5.9,-2.007 10.8,-4.886 14.69,-8.648 3.88,-3.762 7.04,-9.332 9.46,-16.699 2.41,-7.379 2.95,-16.031 1.61,-25.961 -6.44,-49.36 -9.39,-79.41 -8.86,-90.141 0.54,-20.379 7.51,-23.34 20.93,-8.847 9.39,9.918 18.31,25.679 26.76,47.277 8.46,21.601 14.55,40.711 18.31,57.351 l 5.24,24.95" style="fill:#111011;fill-opacity:1;fill-rule:nonzero;stroke:none" id="path98" transform="matrix(0.133333, 0, 0, -0.133333, 0, 736.679993)"/>
  <path d="m 1453.98,298.66 c -5.1,1.602 -10.87,0 -17.31,-4.828 0.54,-1.082 1.61,-2.422 3.23,-4.031 2.13,-2.153 4.42,-3.762 6.83,-4.832 1.34,-1.078 2.82,-1.75 4.42,-2.008 3.23,-0.801 4.97,-1.199 5.24,-1.199 3.22,-0.813 6.43,-1.223 9.66,-1.223 -1.88,10.199 -5.9,16.242 -12.07,18.121 z m -29.79,-93.371 c 6.71,-2.148 13.82,0.609 21.33,8.25 7.51,7.652 13.28,17.91 17.3,30.781 1.08,3.231 2.15,7.508 3.23,12.879 -5.37,-0.527 -9.52,-0.668 -12.47,-0.398 -0.55,0 -1.42,0.058 -2.62,0.199 -1.21,0.141 -2.29,0.258 -3.22,0.41 -0.94,0.129 -1.81,0.328 -2.62,0.602 -1.88,0.269 -4.7,0.929 -8.45,2.019 -4.57,1.328 -9.26,3.75 -14.08,7.227 -1.61,1.082 -2.69,1.883 -3.22,2.433 -0.54,-1.351 -1.89,-4.703 -4.03,-10.07 -4.02,-12.871 -5.16,-24.621 -3.41,-35.211 1.73,-10.601 5.83,-16.969 12.26,-19.121 z m 131.2,101.82 4.83,-8.449 c -1.35,-1.078 -3.23,-2.422 -5.64,-4.019 -0.27,-0.282 -0.8,-0.61 -1.61,-1.02 -0.8,-0.402 -1.34,-0.73 -1.61,-1.012 l -3.61,-2.41 c -0.28,-0.258 -0.88,-0.668 -1.82,-1.199 -0.94,-0.551 -1.68,-0.949 -2.21,-1.211 -0.54,-0.269 -1.34,-0.801 -2.42,-1.609 -1.07,-0.801 -1.87,-1.352 -2.41,-1.61 -2.96,-1.351 -4.7,-2.281 -5.24,-2.808 -0.53,-0.551 -1.47,-1.153 -2.81,-1.821 -1.35,-0.671 -2.28,-1.14 -2.82,-1.41 -0.26,-0.269 -0.74,-0.601 -1.41,-1 -0.67,-0.402 -1.14,-0.613 -1.4,-0.613 l -1.61,-0.797 c -0.28,0 -0.54,-0.141 -0.8,-0.402 -0.28,-0.27 -0.55,-0.41 -0.82,-0.41 -1.07,-0.258 -2.14,-0.797 -3.21,-1.598 -1.08,-0.27 -2.16,-0.813 -3.22,-1.609 -2.96,-1.352 -7.65,-3.364 -14.08,-6.043 -4.04,-1.61 -9,-3.36 -14.9,-5.231 -0.81,-0.277 -1.95,-0.609 -3.41,-1.008 -1.49,-0.402 -2.49,-0.601 -3.03,-0.601 -0.8,-4.828 -2.01,-9.66 -3.61,-14.489 -6.71,-20.921 -18.12,-36.96 -34.21,-48.089 -16.11,-11.129 -32.34,-14.153 -48.7,-9.051 -16.37,5.078 -27.9,16.828 -34.6,35.211 -6.71,18.371 -6.71,38.148 0,59.359 6.7,20.918 18.1,36.949 34.2,48.09 16.1,11.121 32.33,14.141 48.7,9.051 10.99,-3.492 19.98,-10.531 26.96,-21.133 6.97,-10.586 11,-22.867 12.07,-36.809 h 1.21 c 6.7,1.332 11.26,2.27 13.68,2.813 2.14,0.258 6.57,1.469 13.28,3.617 1.61,0.539 2.68,0.941 3.22,1.211 1.61,0.531 2.67,0.801 3.22,0.801 l 1.61,0.801 c 0.26,0 0.53,0.066 0.8,0.207 0.27,0.14 0.54,0.199 0.81,0.199 0.27,0.273 0.73,0.531 1.41,0.801 0.66,0.269 1.13,0.402 1.4,0.402 l 6.04,2.43 c 1.61,0.519 3.35,1.199 5.23,2.007 2.14,1.063 3.75,1.743 4.83,2.012 2.15,1.059 3.62,1.738 4.43,2.008 0.27,0.273 0.87,0.602 1.81,1.012 0.94,0.398 1.54,0.73 1.81,1 l 3.62,1.199 6.04,3.23" style="fill:#111011;fill-opacity:1;fill-rule:nonzero;stroke:none" id="path100" transform="matrix(0.133333, 0, 0, -0.133333, 0, 736.679993)"/>
  <path d="m 1619.37,323.199 c -4.83,0 -8.32,-4.09 -10.46,-12.269 -2.15,-8.192 -4.43,-20.731 -6.85,-37.629 -0.53,-4.289 -0.93,-7.512 -1.2,-9.66 16.36,22 24.81,39.039 25.35,51.109 0,5.641 -2.28,8.449 -6.84,8.449 z m 92.97,-18.91 6.83,-3.621 c -0.27,-1.609 -0.8,-3.828 -1.61,-6.637 -0.8,-2.82 -2.62,-8.25 -5.43,-16.301 -2.81,-8.039 -5.77,-15.691 -8.86,-22.941 -3.08,-7.238 -7.23,-15.289 -12.47,-24.148 -5.23,-8.852 -10.73,-16.493 -16.5,-22.942 -5.77,-6.429 -12.61,-11.859 -20.52,-16.301 -7.92,-4.418 -16.17,-6.64 -24.75,-6.64 -8.05,-0.528 -15.3,1.683 -21.73,6.64 -6.44,4.961 -10.87,10.133 -13.28,15.5 l -3.23,7.653 c -9.12,-31.121 -24.81,-46.281 -47.08,-45.481 -8.59,-0.261 -15.49,4.77 -20.72,15.102 -5.23,10.316 -8.52,23.937 -9.86,40.84 -1.35,16.898 -2.01,35.879 -2.01,56.937 0,21.071 0.86,42.332 2.61,63.789 1.74,21.461 3.23,42.051 4.43,61.782 1.21,19.71 2.27,36.41 3.22,50.089 0.94,13.692 0.6,23.34 -1.01,28.981 1.07,0.262 2.42,0.539 4.03,0.808 1.61,0.262 4.75,0.461 9.45,0.614 4.7,0.117 9.12,-0.082 13.28,-0.614 4.16,-0.546 8.72,-1.878 13.68,-4.019 4.96,-2.16 9.19,-5.039 12.68,-8.66 3.49,-3.617 6.24,-8.789 8.25,-15.489 2.01,-6.71 2.75,-14.492 2.22,-23.339 -4.57,-59.559 -7.39,-109.473 -8.46,-149.711 10.2,48.031 24.95,72.039 44.27,72.039 15.83,0 25.09,-7.789 27.77,-23.348 3.22,-18.242 -2.82,-39.031 -18.11,-62.371 -7.24,-10.73 -15.96,-20.672 -26.16,-29.781 0,-2.68 0.21,-5.571 0.61,-8.649 0.4,-3.101 1.27,-7.851 2.62,-14.289 1.33,-6.441 4.22,-11.672 8.65,-15.703 4.42,-4.019 9.85,-6.039 16.3,-6.039 9.92,0 19.44,3.633 28.56,10.871 9.12,7.25 16.71,16.102 22.75,26.57 6.03,10.461 11.39,20.918 16.09,31.379 4.69,10.469 8.12,19.321 10.26,26.571 l 3.23,10.859" style="fill:#111011;fill-opacity:1;fill-rule:nonzero;stroke:none" id="path102" transform="matrix(0.133333, 0, 0, -0.133333, 0, 736.679993)"/>
  <path d="m 1777.93,298.66 c -5.1,1.602 -10.87,0 -17.3,-4.828 0.53,-1.082 1.61,-2.422 3.22,-4.031 2.14,-2.153 4.42,-3.762 6.84,-4.832 1.33,-1.078 2.82,-1.75 4.42,-2.008 3.22,-0.801 4.96,-1.199 5.23,-1.199 3.23,-0.813 6.44,-1.223 9.66,-1.223 -1.87,10.199 -5.9,16.242 -12.07,18.121 z m -29.78,-93.371 c 6.71,-2.148 13.82,0.609 21.33,8.25 7.5,7.652 13.28,17.91 17.3,30.781 1.07,3.231 2.15,7.508 3.22,12.879 -5.37,-0.527 -9.52,-0.668 -12.47,-0.398 -0.55,0 -1.41,0.058 -2.62,0.199 -1.21,0.141 -2.28,0.258 -3.22,0.41 -0.94,0.129 -1.8,0.328 -2.62,0.602 -1.87,0.269 -4.69,0.929 -8.44,2.019 -4.57,1.328 -9.26,3.75 -14.08,7.227 -1.62,1.082 -2.69,1.883 -3.23,2.433 -0.53,-1.351 -1.88,-4.703 -4.02,-10.07 -4.02,-12.871 -5.17,-24.621 -3.42,-35.211 1.74,-10.601 5.83,-16.969 12.27,-19.121 z m 131.2,101.82 4.82,-8.449 c -1.35,-1.078 -3.22,-2.422 -5.63,-4.019 -0.28,-0.282 -0.8,-0.61 -1.61,-1.02 -0.8,-0.402 -1.34,-0.73 -1.62,-1.012 l -3.61,-2.41 c -0.27,-0.258 -0.88,-0.668 -1.81,-1.199 -0.94,-0.551 -1.68,-0.949 -2.21,-1.211 -0.55,-0.269 -1.35,-0.801 -2.42,-1.609 -1.08,-0.801 -1.88,-1.352 -2.42,-1.61 -2.95,-1.351 -4.69,-2.281 -5.23,-2.808 -0.54,-0.551 -1.47,-1.153 -2.81,-1.821 -1.35,-0.671 -2.29,-1.14 -2.82,-1.41 -0.27,-0.269 -0.75,-0.601 -1.41,-1 -0.67,-0.402 -1.14,-0.613 -1.41,-0.613 l -1.61,-0.797 c -0.27,0 -0.54,-0.141 -0.8,-0.402 -0.27,-0.27 -0.55,-0.41 -0.81,-0.41 -1.07,-0.258 -2.15,-0.797 -3.21,-1.598 -1.09,-0.27 -2.16,-0.813 -3.23,-1.609 -2.95,-1.352 -7.64,-3.364 -14.08,-6.043 -4.03,-1.61 -8.99,-3.36 -14.89,-5.231 -0.81,-0.277 -1.95,-0.609 -3.42,-1.008 -1.48,-0.402 -2.49,-0.601 -3.03,-0.601 -0.8,-4.828 -2.01,-9.66 -3.61,-14.489 -6.71,-20.921 -18.11,-36.96 -34.21,-48.089 -16.1,-11.129 -32.33,-14.153 -48.7,-9.051 -16.37,5.078 -27.9,16.828 -34.6,35.211 -6.71,18.371 -6.71,38.148 0,59.359 6.7,20.918 18.11,36.949 34.2,48.09 16.1,11.121 32.33,14.141 48.7,9.051 11,-3.492 19.98,-10.531 26.96,-21.133 6.98,-10.586 11,-22.867 12.08,-36.809 h 1.21 c 6.7,1.332 11.26,2.27 13.68,2.813 2.14,0.258 6.56,1.469 13.28,3.617 1.6,0.539 2.67,0.941 3.21,1.211 1.61,0.531 2.68,0.801 3.22,0.801 l 1.62,0.801 c 0.26,0 0.52,0.066 0.8,0.207 0.26,0.14 0.53,0.199 0.81,0.199 0.26,0.273 0.73,0.531 1.4,0.801 0.67,0.269 1.14,0.402 1.41,0.402 l 6.03,2.43 c 1.62,0.519 3.35,1.199 5.24,2.007 2.14,1.063 3.75,1.743 4.82,2.012 2.15,1.059 3.63,1.738 4.44,2.008 0.26,0.273 0.87,0.602 1.8,1.012 0.94,0.398 1.55,0.73 1.82,1 l 3.61,1.199 6.05,3.23" style="fill:#111011;fill-opacity:1;fill-rule:nonzero;stroke:none" id="path104" transform="matrix(0.133333, 0, 0, -0.133333, 0, 736.679993)"/>
  <path d="m 1902.68,373.508 c 8.05,11.801 13.14,25.351 15.29,40.652 v 2.008 c 0,1.613 0.07,3.141 0.21,4.633 0.12,1.461 0.12,3.48 0,6.027 -0.14,2.543 -0.35,5.094 -0.61,7.652 -0.27,2.54 -0.67,5.29 -1.21,8.239 -0.54,2.953 -1.14,5.84 -1.81,8.652 -0.67,2.828 -1.68,5.641 -3.01,8.457 -1.35,2.813 -2.83,5.434 -4.44,7.84 -2.41,-47.207 -3.88,-78.609 -4.42,-94.16 z m 99,-80.477 -2.01,-7.652 -73.25,15.691 c 4.56,-27.629 7.05,-52.922 7.45,-75.859 0.4,-22.941 -0.67,-41.652 -3.22,-56.141 -2.55,-14.48 -6.38,-27.289 -11.47,-38.429 -5.1,-11.129 -10.13,-19.379 -15.1,-24.75 -4.96,-5.36 -10.52,-9.8597 -16.69,-13.4808 -6.18,-3.6211 -10.6,-5.7696 -13.29,-6.4414 -2.68,-0.668 -5.09,-1.1407 -7.23,-1.4102 h -0.41 c -11.54,0.2695 -19.86,19.6604 -24.95,58.1524 -5.1,38.5 -7.17,82.559 -6.23,132.199 0.93,49.641 2.2,92.82 3.81,129.59 1.62,36.75 2.83,58.48 3.63,65.191 2.67,26.559 5.36,42.661 8.04,48.297 3.23,6.16 7.91,9.114 14.09,8.84 8.85,0 18.24,-3.359 28.17,-10.047 8.58,-5.64 15.56,-13.152 20.93,-22.543 7.24,-11.269 12.07,-25.359 14.49,-42.258 4.29,-28.968 0.8,-54.191 -10.47,-75.648 -4.3,-7.793 -9.66,-15.16 -16.09,-22.141 -3.5,-96.05 -4.03,-164.871 -1.61,-206.453 9.38,22 14.95,46.821 16.7,74.461 1.73,27.621 1.14,49.621 -1.81,65.992 l -4.43,24.95 c 9.92,-1.352 22.47,-3.692 37.62,-7.039 15.16,-3.364 27.83,-6.383 38.04,-9.051 l 15.29,-4.02" style="fill:#111011;fill-opacity:1;fill-rule:nonzero;stroke:none" id="path106" transform="matrix(0.133333, 0, 0, -0.133333, 0, 736.679993)"/>
  <path d="m 2023.81,355.801 c -5.9,-5.903 -13.01,-8.852 -21.33,-8.852 -8.32,0 -15.43,2.949 -21.33,8.852 -5.89,5.898 -8.84,13.019 -8.84,21.328 0,8.32 2.95,15.43 8.84,21.32 5.9,5.903 13.01,8.86 21.33,8.86 8.32,0 15.43,-2.957 21.33,-8.86 5.9,-5.89 8.86,-13 8.86,-21.32 0,-8.309 -2.96,-15.43 -8.86,-21.328 z m 78.48,-59.961 11.67,-4.43 c -0.27,-0.269 -2.08,-4.16 -5.43,-11.672 -3.36,-7.519 -6.98,-15.359 -10.87,-23.539 -3.89,-8.179 -9.4,-17.508 -16.5,-27.969 -7.11,-10.46 -14.42,-19.66 -21.93,-27.57 -7.52,-7.91 -16.5,-14.551 -26.96,-19.922 -10.47,-5.367 -21.07,-7.91 -31.8,-7.648 -12.07,0.539 -21.12,5.441 -27.16,14.691 -6.04,9.258 -9.25,20.789 -9.66,34.61 -0.41,13.82 0.06,27.57 1.41,41.25 1.34,13.687 2.88,26.429 4.63,38.23 1.74,11.809 2.21,19.059 1.41,21.738 1.61,0.262 3.75,0.602 6.43,1.012 2.69,0.399 7.45,0.399 14.29,0 6.84,-0.41 12.67,-1.609 17.51,-3.633 4.82,-2.008 8.98,-5.84 12.47,-11.468 3.49,-5.641 4.56,-12.872 3.22,-21.731 -7.24,-49.098 -6.03,-75.531 3.63,-79.281 4.02,-1.61 9.52,0 16.49,4.832 8.58,5.898 17.65,15.762 27.17,29.582 9.52,13.816 16.96,26.09 22.33,36.816 l 7.65,16.102" style="fill:#111011;fill-opacity:1;fill-rule:nonzero;stroke:none" id="path108" transform="matrix(0.133333, 0, 0, -0.133333, 0, 736.679993)"/>
  <path d="m 2163.46,290.199 c -1.61,0 -3.1,0 -4.43,0 -1.35,0 -3.42,-0.738 -6.24,-2.199 -2.82,-1.488 -5.3,-3.57 -7.45,-6.238 -2.14,-2.692 -4.42,-7.051 -6.83,-13.082 -2.42,-6.051 -4.3,-13.219 -5.64,-21.532 19.85,-1.347 33.27,5.082 40.25,19.313 1.06,2.41 1.86,5.301 2.41,8.648 0.54,3.352 -0.14,6.7 -2.01,10.059 -1.89,3.352 -5.24,5.031 -10.06,5.031 z m 83.3,1.61 8.05,-6.43 c -22.28,-41.59 -50.31,-73.391 -84.11,-95.379 -28.72,-18.781 -52.99,-25.078 -72.85,-18.922 -20.65,6.711 -29.77,26.16 -27.36,58.363 0.26,4.289 0.81,8.707 1.61,13.278 2.41,13.679 6.78,25.48 13.08,35.41 6.31,9.922 13.28,17.371 20.93,22.34 7.64,4.961 15.83,8.582 24.55,10.871 8.71,2.269 16.42,3.351 23.14,3.211 6.7,-0.141 12.34,-0.871 16.9,-2.211 5.89,-1.879 10.73,-5.168 14.49,-9.86 3.75,-4.699 5.9,-10.8 6.43,-18.308 0.54,-7.512 -2.14,-15.973 -8.04,-25.352 -9.4,-15.3 -26.84,-22.539 -52.32,-21.73 -2.96,-26.559 2.81,-38.781 17.31,-36.621 15.82,2.41 37.96,19.043 66.39,49.89 16.37,17.981 26.97,31.801 31.8,41.45" style="fill:#111011;fill-opacity:1;fill-rule:nonzero;stroke:none" id="path110" transform="matrix(0.133333, 0, 0, -0.133333, 0, 736.679993)"/>
  <path d="m 2340.11,293.832 c 4.29,-3.23 7.51,-5.504 9.66,-6.844 0.26,1.34 0.74,3.75 1.4,7.242 0.68,3.481 1.15,6.168 1.42,8.04 0,0.539 0.06,1.281 0.2,2.218 0.13,0.942 0.2,1.543 0.2,1.821 0.26,0.8 0.4,2.14 0.4,4.019 0.54,2.41 0.54,4.82 0,7.242 0,5.371 -1.07,9.52 -3.22,12.481 -1.6,3.219 -4.02,5.23 -7.24,6.027 -3.22,0.801 -6.84,0.274 -10.87,-1.609 -3.76,-2.149 -6.43,-4.821 -8.04,-8.051 -1.35,-2.957 -1.62,-6.566 -0.81,-10.867 1.07,-4.02 3.35,-7.91 6.84,-11.672 2.41,-3.211 5.76,-6.57 10.06,-10.047 z m 82.5,0.809 8.05,-2.43 c 0,-0.531 -0.14,-1.34 -0.4,-2.41 -0.28,-1.071 -0.95,-3.082 -2.02,-6.031 -1.07,-2.961 -2.41,-5.508 -4.02,-7.649 -1.61,-2.152 -3.96,-4.762 -7.04,-7.851 -3.09,-3.09 -6.71,-5.102 -10.87,-6.04 -4.16,-0.929 -9.26,-1.742 -15.29,-2.41 -6.04,-0.672 -12.95,0.211 -20.72,2.621 -3.23,-12.882 -6.71,-23.89 -10.47,-33 -4.56,-10.742 -9.8,-20.261 -15.7,-28.57 -5.63,-7.793 -11.93,-14.762 -18.91,-20.93 -5.1,-4.3 -10.32,-8.05 -15.7,-11.269 -8.58,-5.363 -19.05,-9.121 -31.38,-11.274 -11.81,-1.867 -21.47,1.282 -28.98,9.461 -7.52,8.18 -12.67,19.981 -15.5,35.411 -2.81,15.421 -4.69,30.25 -5.63,44.48 -0.94,14.199 -1.41,29.629 -1.41,46.281 0,16.629 -0.13,27.078 -0.4,31.379 1.88,0.801 4.29,1.61 7.25,2.41 2.95,0.809 8.25,1.481 15.9,2.02 7.64,0.531 14.48,-0.141 20.52,-2.02 6.03,-1.871 11.8,-6.5 17.3,-13.871 5.5,-7.39 8.65,-17.25 9.46,-29.578 2.95,-38.91 6.44,-64.801 10.46,-77.68 4.56,4.02 8.86,8.457 12.88,13.278 5.64,6.98 10.32,14.359 14.08,22.14 4.29,8.59 8.05,18.11 11.27,28.582 0,0.52 0.27,1.598 0.81,3.207 -1.88,0.813 -6.84,3.762 -14.89,8.864 -5.11,3.75 -9.53,7.636 -13.28,11.668 -4.3,4.558 -7.92,10.191 -10.87,16.898 -0.8,2.141 -1.47,5.762 -2.01,10.863 0,3.489 0.66,7.508 2.01,12.079 2.68,7.5 7.79,13.41 15.29,17.699 7.25,4.562 15.3,6.301 24.16,5.242 4.28,-0.813 8.44,-2.422 12.47,-4.84 3.22,-2.141 6.29,-5.23 9.25,-9.25 1.88,-2.691 3.75,-6.441 5.64,-11.269 l 2.41,-10.864 c 0.26,-2.418 0.4,-5.91 0.4,-10.468 v -5.231 c -0.26,-1.34 -0.4,-2.949 -0.4,-4.828 -0.8,-8.59 -2.01,-16.902 -3.62,-24.949 1.07,-0.543 2.55,-1.141 4.42,-1.813 1.88,-0.668 5.3,-1.48 10.27,-2.418 4.96,-0.941 9.46,-1 13.48,-0.191 4.02,0.801 8.18,3.211 12.47,7.238 4.29,4.031 7.38,9.793 9.26,17.313" style="fill:#111011;fill-opacity:1;fill-rule:nonzero;stroke:none" id="path112" transform="matrix(0.133333, 0, 0, -0.133333, 0, 736.679993)"/>
</svg>