<?xml version="1.0" encoding="UTF-8" standalone="no"?>
<!-- Created with Inkscape (http://www.inkscape.org/) -->

<svg
   version="1.1"
   id="svg2"
   xml:space="preserve"
   width="567.93335"
   height="736.67999"
   viewBox="0 0 567.93335 736.67999"
   xmlns="http://www.w3.org/2000/svg"
   xmlns:svg="http://www.w3.org/2000/svg"><defs
     id="defs6" /><g
     id="g8"
     transform="matrix(1.3333333,0,0,-1.3333333,0,736.68)"><g
       id="g10"
       transform="scale(0.1)"><path
         d="m 2418.86,2795.34 c 138.14,39.11 566.55,138.54 587.82,119.14 1.14,-0.27 2.24,-0.68 3.29,-1.18 1.05,0.05 2.1,0.08 3.15,0.11 -23.17,154.94 -76.8,486.62 -122.85,648.41 -1.42,-17.88 -1.52,-19.78 -4.37,-58.29 1.92,-20.75 4.52,-29.65 -2.39,-36.87 -3.74,-68.45 11.57,-69.56 4.11,-208.99 -3.22,-61.27 -28.35,-180.05 -36.08,-190.59 -5.72,-9.69 -20.24,-10.96 -27.78,-2.73 -6.83,7.49 -14.32,18.03 -21.75,25.63 -34.5,35.31 -52.72,36.94 -47.41,66.01 15.32,88.21 7.97,437.18 -77.32,580.95 -4.67,-2.72 -33.45,-20.76 -36.85,-24.41 -10.37,-2.08 -9.79,-10 -12.46,-20.68 -35.91,-144 10.84,-11.45 -160.03,-620.69 -45.28,-161.35 -55.93,-259 -52.54,-269.5 0.78,-2.43 1.93,-4.54 3.46,-6.32"
         style="fill:#b82327;fill-opacity:1;fill-rule:nonzero;stroke:none"
         id="path12" /><path
         d="m 1364.32,3335.59 c 0.01,0.23 0.03,0.49 0.03,0.49 -0.02,-0.18 -0.02,-0.31 -0.03,-0.49"
         style="fill:#b82327;fill-opacity:1;fill-rule:nonzero;stroke:none"
         id="path14" /><path
         d="m 1364.3,3335.31 c 0.01,0.15 0.02,0.29 0.02,0.28 -0.01,-0.13 -0.02,-0.28 -0.02,-0.28"
         style="fill:#b82327;fill-opacity:1;fill-rule:nonzero;stroke:none"
         id="path16" /><path
         d="m 1609.76,3138.37 c -2.72,55.06 -130.51,259.57 -192.96,292.38 -47.39,24.69 -58.44,-104.18 -50.89,-148.82 -8.96,-5.29 -7.93,-18.82 0.93,-23.02 21.94,-10.44 28.02,-13.19 38.02,-20.25 h -0.01 v 0 c 0.01,0 0.02,-0.01 0.04,-0.02 0.15,-0.1 0.35,-0.24 0.35,-0.24 0.01,0 0.33,-0.23 0.34,-0.23 l 0.41,-0.24 0.02,0.04 c 0.61,-0.57 1.45,-1.1 2.14,-1.57 l -0.01,0.01 c 3.68,-2.53 2.07,-1.42 7.29,-5.01 l -0.11,0.09 c 51.64,-35.39 105.67,-91.81 159.6,-146.91 1.19,-2.36 2.72,-3.81 4.53,-5.77 9.24,-11.36 18.35,-10.75 24.06,-4.37 7.8,8.65 6.83,52.84 6.25,63.93"
         style="fill:#b82327;fill-opacity:1;fill-rule:nonzero;stroke:none"
         id="path18" /><path
         d="m 4123.97,3499.69 0.16,-0.36 c -33.67,51.67 -51.25,91.37 -178.08,-74.69 -67.65,-88.57 -66.2,-69.82 -151.54,-201.18 -18.24,-28.02 -7.77,-95.15 -14.02,-137.9 -1.21,-8.29 -3.82,-16.88 2.15,-22.85 20.27,-20.21 38.22,17.58 110.79,81.05 22.38,10.51 14.25,39.81 0.18,60.17 20.73,37.79 61.42,72.91 81.71,100.97 13.64,-8.75 23.19,-15.63 44.53,-15.63 42.96,0 36.88,50.47 40.44,75.15 2.16,6.77 71.57,60.94 78.13,64.65 9,5.15 14.67,9.03 13.34,19.4 -0.66,5.29 -24.78,46.75 -27.79,51.22"
         style="fill:#b82327;fill-opacity:1;fill-rule:nonzero;stroke:none"
         id="path20" /><path
         d="m 2708.78,2586.2 c 11.72,-31.12 46.2,-9.95 69.37,14.64 20.82,22.27 66.67,90.45 73.37,100.46 6.34,9.53 14.98,21.21 8,30.29 -6.56,8.57 -13.31,6.96 -26.79,9.02 -61,9.25 -54.04,3.01 -91.98,8.05 -18.59,8.8 -31.69,-13.48 -17.72,-23.28 -14.76,-50.12 -30.24,-96.45 -14.25,-139.18"
         style="fill:#b82327;fill-opacity:1;fill-rule:nonzero;stroke:none"
         id="path22" /><path
         d="m 2990.83,2435.42 c -54.74,-15.39 -174.53,-62.96 -245.86,-92.91 -11.78,-4.95 -32.57,-14.07 -44.61,-16.43 -6.11,30.17 7.51,106.08 -16.93,128.45 -36.01,33.03 -229.98,-60.62 -279.39,-89.69 -2.45,-1.94 -4.13,-4.58 -4.77,-7.69 -6.62,-6.66 -3.77,-18.33 4.57,-21.29 26.74,-9.45 55.37,-19.72 83.56,-30.81 113.54,-44.69 157.7,-40.91 193.81,-47.38 71.46,-12.69 72.99,-25.27 135.82,-12.75 44.83,8.96 46.54,16.25 115.68,50.9 11.07,2.08 19.22,11.32 14.11,21.67 10.22,12.83 73.92,91.01 69.83,106.79 -3.57,14.46 -16.89,17 -25.82,11.14"
         style="fill:#b82327;fill-opacity:1;fill-rule:nonzero;stroke:none"
         id="path24" /><path
         d="m 2930.48,2115.71 c -9.47,6.17 -25.93,5.98 -30.8,3.23 -61.23,-7.61 -38.74,3.86 -314.72,-45.31 -15.91,-2.87 -14.21,-24.92 0.67,-26.41 1.41,-2.85 3.49,-4.94 5.62,-7.03 2.75,-2.74 4.3,-4.24 9.28,-12.1 36.09,-56.99 20.77,-46.87 42.67,-76.61 6.75,-9.32 12.35,-15.22 19.28,-29.57 6.28,-13 18.87,-32.11 36.05,-40.1 21.32,-9.89 28.01,-6.97 127.11,90.06 90.53,88.66 127.67,125.93 104.84,143.84"
         style="fill:#b82327;fill-opacity:1;fill-rule:nonzero;stroke:none"
         id="path26" /><path
         d="m 1889.98,2064.76 c -46.39,89 -82.82,121.8 -91.1,206.9 -5.95,63.22 -24.12,193.21 -82.34,168.59 -27.41,-11.23 -40.95,-82.27 -46.33,-111.74 -68.41,-374.58 -85.82,-399.31 -65.04,-478.16 20.35,-76.73 22.51,-50.35 41.69,-95.5 11.63,-27.53 34.69,-18.5 34.18,-4.06 4.21,1.33 7.42,4.54 8.55,8.56 10,35.53 31.1,105.96 54.09,134.35 33.99,38.73 76.72,66.18 99.17,74.29 -3.01,-0.82 11.05,3.66 14.16,4.57 16.87,4.93 28.98,2.76 41.39,0.88 54.81,-7.74 10.06,55.62 -8.42,91.32"
         style="fill:#b82327;fill-opacity:1;fill-rule:nonzero;stroke:none"
         id="path28" /><path
         d="m 2523.75,3654.85 c 1,14 -5.16,14.3 -15.16,22.17 -132.15,103.92 -340.17,47.26 -455.15,-63.67 -6.74,-6.5 -33.09,-32.99 -35.53,-42.07 -3.63,-13.33 4.59,-22.96 14.07,-24.36 26.68,-14.34 33.59,-22.45 43.66,-16.61 24.44,4.35 156.07,165.03 373.15,101.6 21.93,-6.36 53.19,-24.23 61.47,-32.7 6.01,14.19 13.71,37.55 15.34,52.94 -1.08,1.7 -1.45,2.17 -1.85,2.7"
         style="fill:#5dcbf5;fill-opacity:1;fill-rule:nonzero;stroke:none"
         id="path30" /><path
         d="m 3479.16,3728.57 c -6.61,16.72 -6.13,18.58 -37.36,23.92 -219.88,38.06 -218.06,-29.22 -302.1,-76.52 -5.86,-1.11 -11.87,-6.87 -11.65,-14.22 10,-1.22 44.99,-5.55 62.28,-8.01 84.59,22.37 155.77,22.89 245.81,-4.58 7.11,-2.15 13.14,-3.94 19.67,-6.71 2.8,-2.53 13.58,-7.62 19.8,-8.06 18.3,-0.57 20.73,30.56 18.91,48.2 -2.67,24.65 -8.29,29.86 -15.36,45.98"
         style="fill:#5dcbf5;fill-opacity:1;fill-rule:nonzero;stroke:none"
         id="path32" /><path
         d="m 1437.46,4148.25 c 14.32,-15.46 32.55,-12.04 40.1,3.57 4.92,10.03 37.68,147.66 40.66,162.44 6.49,32.11 9.73,47.49 46.46,121.12 0,0 42.7,88.01 42.72,88.05 11.83,24.39 35.13,63.61 47.66,87.13 57.36,107.12 98.19,149.28 156.89,196.55 57.17,45.96 175.89,121.81 244.8,161.52 231.3,133.78 459.07,211.75 462.14,239.91 2.16,18.7 -18.72,18.21 -36.21,17.78 l 0.91,-0.08 c -1.28,0.06 -0.96,0.07 -2.8,0.03 l 0.01,0.01 h -0.01 v -0.01 c -0.47,-0.03 -8.17,-0.23 -7.11,-0.23 -1.38,0.03 -1.43,-0.03 -1.37,-0.03 -0.6,-0.02 -0.39,-0.02 -0.98,0.02 v 0.04 c -219.47,-7.85 -554.7,-258.54 -598.26,-273.8 1.19,2.46 2.31,4.9 3.42,7.35 l -0.16,-0.24 c 19.8,34.11 49.01,67.37 83.74,104.4 143.62,147.35 157.55,144.26 161.08,165.8 1.61,10 -9.09,18.66 -26.66,7.42 -44.99,-28.69 -258.76,-134.39 -546.66,-450.26 -7.14,-2.96 -11.87,-10.95 -15.97,-17.51 -0.49,-0.8 -0.75,-1.04 -1.53,-1.92 -1.17,-1.3 -1.95,-2.86 -2.42,-4.68 -67.54,-116.29 -109.09,-225.76 -112.67,-445.49 -0.18,-11.49 -0.54,-25.91 0.17,-40.08 2.84,-58 3.22,-108.57 22.05,-128.81"
         style="fill:#5dcbf5;fill-opacity:1;fill-rule:nonzero;stroke:none"
         id="path34" /><path
         d="m 1452.62,3692.85 c -1.28,-88.49 -8.07,-81.4 28.38,-105.01 8.88,-5.74 26.78,-23.05 48.22,-41.19 16.53,-13.94 41.72,-31.16 49.72,-38.92 2.54,-2.55 1.29,-2.64 5.13,-5.55 9.13,-6.89 17.49,-5.8 22.72,-1.2 10.31,9.18 3.72,26.73 -2.53,50.21 -32.55,122.28 -33.69,155.23 -52.15,218.72 -69.79,-54.26 -64.41,-49.45 -99.49,-77.06"
         style="fill:#5dcbf5;fill-opacity:1;fill-rule:nonzero;stroke:none"
         id="path36" /><path
         d="m 4046.68,4824.55 c -12.11,42.46 -40.91,27.36 -45.23,10.36 -5.32,-9.37 -6.26,-12.04 -9.23,-20.67 -4.28,-12.45 -5.07,-14.64 -33.95,-71.56 -19.55,-38.51 -32.99,-79.3 -54.51,-135.81 -3.21,-2.93 -4.79,-7.27 -4.39,-11.5 -4.81,-12.36 2.01,-20.32 10.72,-20.65 18.74,-41.01 17.12,-87.24 57.81,-194.73 31.32,-82.94 19.04,-109.68 42.05,-109.68 14.04,0.15 14.26,12.56 24.46,47.76 23.94,83.82 37.38,100.13 37.38,313.66 0.07,50.88 -9.49,137.39 -25.11,192.82"
         style="fill:#5dcbf5;fill-opacity:1;fill-rule:nonzero;stroke:none"
         id="path38" /><path
         d="m 3069.21,1384.67 c -17.1,-3.52 -15.3,-2.82 -53.72,-5.85 -5.56,4.62 -13.99,3.85 -18.54,-1.61 -10.41,-0.84 -15.47,-12.83 -9.48,-21.06 -38.65,-92.56 -85.56,-195.7 -90.58,-205.8 -3.04,-6.09 -7.79,-14.98 -8.43,-21.44 -1.14,-10.74 5.64,-18.4 14.75,-18.4 3.73,0 11.04,2.98 14.61,4.35 4.39,1.68 13.38,4.21 23.42,5.96 60.28,10.33 56.63,20.16 136.07,41.53 74.21,20.39 46.85,27.88 121.11,189.74 15.48,33.64 26.26,54.11 14,64.5 -14.48,15.57 -44.66,-11.35 -143.21,-31.92"
         style="fill:#5dcbf5;fill-opacity:1;fill-rule:nonzero;stroke:none"
         id="path40" /><path
         d="m 3140.82,725.199 c -70.22,109.43 -122.98,152.34 -148.63,183.762 -173.01,212.119 -173.88,174.649 -220.72,129.599 -37.15,-35.84 -48.95,-44.259 -38.98,-55.9 -5.33,-13.121 2.34,-8.211 41.19,-58.18 28.36,-36.468 65.14,-74.39 79.48,-94.441 -0.26,0.441 -0.57,0.973 -0.82,1.352 38.21,-56.782 92.13,-107.672 154.48,-185.77 45.78,-57.262 40.29,-57.883 50.38,-60.902 12.79,-3.84 20.84,9.09 28.93,18.992 8.85,10.84 32.53,41.328 61.54,83.5 3.57,5.187 2.54,12.617 -2.36,16.898 4.87,7.34 0.34,16.903 -4.49,21.09"
         style="fill:#5dcbf5;fill-opacity:1;fill-rule:nonzero;stroke:none"
         id="path42" /><path
         d="m 2364.6,642.711 c -3.46,-0.789 -7.47,-4.102 -11.06,-6.57 -4.97,-3.411 -6.69,-4.539 -6.69,-4.539 -3.48,22.398 -134.23,133.238 -185.65,163.316 -79.07,46.473 -129.2,67.402 -227.72,164.723 -62.32,61.159 -71.3,86.919 -119.25,154.469 -41.74,59.04 -50.72,62.85 -95.91,141.5 -35.95,62.74 -50.3,71.87 -78.54,123.62 -166.01,304.33 -207.59,328.53 -201.78,382.86 14.08,16.22 13.5,15.33 25.72,93.1 2.83,16.94 3.42,19.98 5.53,45.92 1.86,22.5 13.23,56.4 -11.09,58.92 -10.88,1.04 -20.23,-8.24 -26.94,-16.92 -9.7,-12.44 -29.55,-45.05 -39.89,-67.87 -13.2,10.17 -39.76,-3.4 -89.09,-29.58 -186.89,-99.09 -98.04,-59.67 -249.39,-149.78 -97.159,-57.99 -603.014,-317.22 -604.67,-392.98 -0.227,-8.96 5.133,-15.93 17.695,-17.16 15.703,-1.53 211.797,95.61 233.332,108.12 123.086,71.11 159.426,105.21 273.148,162.41 12.547,6.32 216.385,99.45 269.195,115.5 70.23,21.43 56.21,18.15 85.68,19.07 11.03,0.35 26.3,-0.46 31.67,20.68 1.57,0.25 2.79,0.75 4.08,1.44 6.66,-34.66 27.06,-89.76 32.2,-104.31 l -0.25,1.17 c 39.24,-110.75 305.54,-665.398 697.66,-1022.48 124.3,-112.988 124.27,-90.641 147.49,-75.418 8.18,5.359 9.64,6.816 14.92,13.238 2.83,1.68 26,24.391 30.72,28.59 64.44,57.219 109.15,65.012 91.48,84.879 -3.99,4.449 -7.78,4.473 -12.6,4.082"
         style="fill:#5dcbf5;fill-opacity:1;fill-rule:nonzero;stroke:none"
         id="path44" /><path
         d="m 3871.2,2956.5 c -2.66,7.18 -3.06,7.47 -4.55,9.71 -7.07,10.78 -22.86,8.62 -28.99,0.38 0,0 -43.4,-38.47 -61.01,-52.1 -17.24,-13.38 -38.47,-23.85 -26.78,-38.15 -0.41,-2.05 -4.34,-12.45 -5.09,-14.4 -21.25,-54.89 17.27,-92.77 29.15,-110.78 8.72,-14.84 4.4,-13.7 8.16,-24.81 2.94,-8.7 15.97,-11.57 21.7,-5.69 19.82,20.41 82.29,119.06 88.87,129.06 8.7,13.25 11.38,18.38 5.98,31.04 -32.22,75.15 -16,44.52 -27.44,75.74"
         style="fill:#5dcbf5;fill-opacity:1;fill-rule:nonzero;stroke:none"
         id="path46" /><path
         d="m 1538.91,2697.13 c -0.27,-0.78 -0.48,-1.5 -0.65,-2.22 -0.26,0.81 -0.53,1.62 -0.79,2.43 0.48,-0.1 0.97,-0.17 1.44,-0.21 z m 19.4,-58.75 c 84.8,-53 92.65,-37.64 0,0 z m -25.4,-7.39 c 0.16,-5.38 6.78,-14.4 13.92,-16.42 21.42,-7.77 22.29,19.96 70.15,112.5 41.59,73.04 59.22,74.79 9.19,135 -12.09,14.56 -5.75,7.92 -12.15,17.82 4.7,9.59 -2.42,19.2 -11.75,19.2 -10.26,0 -9.67,-4.96 -33.48,-42.8 -73.29,-116.64 -72.76,-101.75 -71.91,-119.14 0,0 36.03,-106.15 36.03,-106.16"
         style="fill:#5dcbf5;fill-opacity:1;fill-rule:nonzero;stroke:none"
         id="path48" /><path
         d="m 2473.36,3466.72 c -55.03,-62.75 -83.93,-65.85 -159.12,-119.88 -24.58,-17.64 -31.06,-22.6 -29.97,-34.23 0.91,-9.91 11.14,-16.04 20.47,-19.5 75.56,-27.61 175.26,119.2 187.7,145.67 2.46,2.86 2.73,4.92 4.03,8.29 2.5,6.7 4.44,10.78 -0.07,17.75 -5.13,7.33 -16.56,9.29 -23.04,1.9"
         style="fill:#5dcbf5;fill-opacity:1;fill-rule:nonzero;stroke:none"
         id="path50" /><path
         d="m 3303.14,3355.99 c -18.21,16.48 -41.64,34.4 -51.65,42.61 -10.23,8.38 -34.82,34.42 -66.4,29.25 -7.71,-12.93 3.92,-15.72 31.61,-45.32 26.64,-28.53 109.75,-116.9 128.53,-85.33 -9.37,49.29 -4.03,24.19 -42.09,58.79"
         style="fill:#5dcbf5;fill-opacity:1;fill-rule:nonzero;stroke:none"
         id="path52" /><path
         d="m 2959.64,4083.57 c -1.75,-8.14 1.99,-17.18 10.93,-21.3 15.74,-7.1 90.47,34.11 148.21,55.01 199.78,73.65 221.73,73.8 268.94,86.03 22.38,5.82 38.32,13.35 44.84,17.64 20.66,13.63 11.58,42.35 -28.35,43.67 -130.42,3.31 -323.33,-30.42 -443.16,-83.35 -1.31,-67.2 -4.49,-53.77 -1.41,-97.7"
         style="fill:#111011;fill-opacity:1;fill-rule:nonzero;stroke:none"
         id="path54" /><path
         d="m 2310.13,3763.22 c 64.7,-4.25 86.42,-4.88 141.29,-45.57 -75,24.64 -172.01,27.96 -253.66,-3.49 -2.07,-0.24 -4.07,-0.85 -5.56,-2.06 -76.3,-31.36 -117.69,-64.16 -173.74,-123.36 1.68,7.85 3.68,15.67 6.83,23.05 18.49,34.37 182.13,158.4 284.84,151.43 z m 249.97,-167.73 c 0.06,-0.14 0.12,-0.28 0.19,-0.42 -4.59,-13.11 -31.95,-1.7 -43.92,-4.74 -17.85,12.49 -48.85,-19.38 -94.1,-47.8 17.78,30.99 26.57,97.85 7.32,155.49 32.63,-9.31 53.94,-18.48 79.6,-42.26 1.58,-2.94 2.83,-4.89 5.71,-6.78 6.14,-8.31 12.36,-23.16 18.72,-32.27 7.41,-10.61 18.11,-14.13 26.48,-21.22 z m -106.75,-71.05 c -13.19,-14.14 -16.49,-20.7 -31.12,-31.11 -105.15,-69.12 -244.34,-52.5 -329.9,15.29 95.73,-42.62 192.1,-47.12 273.93,-22.45 44.63,13.49 90.79,51.2 118.03,68.55 -11.95,-13.3 -21.59,-20.28 -30.94,-30.28 z m -277.01,-6.35 -0.04,0.04 c -1.15,1.22 -1.05,1.1 0.04,-0.04 z m 196.76,190.42 c 6.06,-18.25 60.96,-70.43 -15.01,-198.43 -40.7,-11.98 -88.84,-21.75 -164.35,-7.26 -0.29,4.32 -2.3,7.35 -4.67,11.52 -26.26,48.94 -23.65,134.47 19.49,176.9 42.43,16.33 100.06,25.88 164.54,17.27 z m -336.15,-139.17 c 60.71,65.34 74.32,70.55 108,90.81 -23.55,-47.25 -18.2,-109.49 2.32,-145.06 -54.36,15 -94.06,44.18 -110.32,54.25 z m -34.74,-10.6 c 1.59,-4.94 19.27,-20.18 23.25,-23.52 46.14,-42.14 78.8,-88.83 202.18,-107.44 19.58,-2.97 37.72,-5.99 60.13,-4.8 41.92,2.34 102.86,19.68 144.18,46.35 18.84,12.17 25.54,21.42 35.57,33.43 14.06,15.6 48.01,42.22 55.8,62.53 12.36,-0.82 47.74,-9.72 59.85,18.12 11.86,27.22 -15.82,36.15 -27.71,46.74 -4.54,5.12 -12.67,22.91 -19.97,33.34 -1.15,4.61 -9.67,17.26 -12.86,21.13 -85.38,103.4 -160.26,100.29 -206.97,103.19 -123.4,7.46 -350.49,-144.44 -321.86,-216.83 0.66,-3.91 3.6,-9.17 8.41,-12.24"
         style="fill:#111011;fill-opacity:1;fill-rule:nonzero;stroke:none"
         id="path56" /><path
         d="m 2303.62,3572.15 c 40.08,14.84 56.57,101.65 -13.62,109.01 -22.39,2.46 -61.52,-31.58 -51.22,-73.51 7.61,-31.2 39.32,-44.88 64.84,-35.5"
         style="fill:#111011;fill-opacity:1;fill-rule:nonzero;stroke:none"
         id="path58" /><path
         d="m 2390.65,3580.05 c 0.01,0.04 0.02,0.07 0.03,0.11 -0.02,-0.07 -0.03,-0.11 -0.03,-0.11"
         style="fill:#111011;fill-opacity:1;fill-rule:nonzero;stroke:none"
         id="path60" /><path
         d="m 3581.74,3689.83 c -129.9,91.31 -237.61,104.2 -378.43,44.6 -2.74,-1.15 -4.92,-3.11 -6.42,-5.47 -10.85,-6.18 -21.94,-12.63 -41.67,-28.28 25.37,37.46 46.79,60.32 91.43,75.83 51.24,15.61 128.96,20.75 193.52,-0.37 130.11,-42.43 99.79,-27.85 141.57,-86.31 z m -42.88,-70.03 c 11.29,-28.49 -48.96,-79.93 -72.69,-96.89 -24.79,-15.15 -73.78,-35.78 -93.87,-41.14 -23.6,-6.27 -76.76,2.56 -97.42,11.91 -41.48,20.78 -58.6,38.12 -69.7,54.05 2.58,-2.1 5.25,-4.1 7.97,-6 28.4,-19.76 22.42,-22.25 48.17,-29.64 15.53,-4.42 33.6,-8.48 59.02,-5.24 34.95,4.37 86.2,25.81 109.39,37.41 20.39,10.16 84.04,59.57 94.04,66.41 4.94,3.17 9.99,6.21 15.09,9.13 z m -198.4,-81.6 c -9.59,12.92 -46.62,4.22 -71.32,57.18 -12.56,26.91 -13.76,36.4 -15.79,55.12 -4.28,58.53 19.52,68.27 25.54,81.31 0.7,0.51 1.22,1.11 1.83,1.66 10,2.94 15.48,5.03 43.37,9.87 36.15,6.29 107.34,-4.74 129.59,-12.27 1.54,-5.23 8.37,-15.75 11.25,-20.38 14.13,-22.87 11.79,-32.43 12.47,-49.21 1.74,-40.33 -14.51,-55.27 -17.31,-65.27 -11.2,-7.32 -53.66,-42.22 -119.63,-58.01 z m -220.87,89.1 c -4.39,3.01 -11.6,7.46 -13.8,12.16 -0.14,0.88 0.7,3.61 0.89,4.57 1.7,2.66 5.02,7.02 7.38,9.21 10,-0.99 25.7,-11.39 32.05,3.43 10,4.93 30.18,38.88 88.35,61.57 -14.67,-30.32 -20.22,-89.45 14.27,-147.35 11.83,-19.83 29.93,-29.53 42.93,-37.92 -36.49,3.18 -41.68,15.14 -58.18,27.13 -18.16,13.14 -10.87,5.68 -29.36,29.44 -13.12,17.02 -28.92,28.99 -50.24,29.23 -23.3,0.12 -27.15,3.64 -34.29,8.53 z m 127.95,176.91 c -58.62,-17.99 -103.29,-54.18 -131.03,-125.03 -15.07,1.98 -25.84,-10.2 -33.03,-23.58 -2,-2.16 -3.18,-4.83 -3.78,-7.72 -3.95,-19.04 5.56,-29.5 21.33,-40.4 12.52,-8.59 20.56,-14.96 52.49,-15.49 1.65,-13.35 28.49,-59.45 45.15,-75.69 40.15,-39.41 92.72,-62.7 158.07,-61.29 58.14,1.3 195.94,80.89 207.5,146.14 3.18,18.4 -2.2,40.5 -14.9,42.98 -4.81,5.54 -11.66,5.93 -15.87,3.41 -10.63,-6.36 -21.49,-12.49 -31.51,-19.8 5.1,22.44 4.42,55.72 -5.98,82.32 32.78,-19.85 64.79,-35.75 107.82,-64.65 11.67,-14.97 36.08,-9.69 27.28,14.82 -5.99,16.76 -31.59,48.97 -49.99,77.65 -13.46,21.12 -27.57,26.79 -52.03,36.95 -36.39,15.15 -107.64,34.91 -117.64,36.73 -53.4,9.73 -126.82,4.07 -163.88,-7.35"
         style="fill:#111011;fill-opacity:1;fill-rule:nonzero;stroke:none"
         id="path62" /><path
         d="m 2365.33,4059.27 c 36.96,-21.77 84.97,-57.67 120.11,-87.42 l -0.31,0.41 c 1.16,-1.13 2.36,-2.17 3.6,-3.17 2.15,-3.06 4.87,-4.38 8.66,-6.07 11.96,-8.69 26.06,-15.62 50.7,-15.62 33.5,0 123.16,35 229.5,-148.18 83.92,-144.37 146.94,-506.17 77.96,-699.6 -0.59,-1.68 -0.8,-3.44 -0.65,-5.2 -1.56,-5.86 -11.2,-36.01 -9.9,-41.65 76.61,124.97 84.89,384.78 48.04,523.85 -9.79,36.94 -43.92,185.17 -99,274.07 -60.25,97.31 -133.3,184.75 -240.91,230.02 -38.28,31.05 -105.89,58.3 -152.04,75.08 -41.82,15.4 -92.58,35.82 -174.63,35.92 -17.1,-0.1 -90.86,5.19 -89.37,5.19 -6.83,0 -12.92,-5.89 -13.31,-12.87 -0.03,-0.67 -0.03,-1.32 0.03,-1.95 -13.01,-31.53 79.91,-28.31 241.52,-122.81"
         style="fill:#111011;fill-opacity:1;fill-rule:nonzero;stroke:none"
         id="path64" /><path
         d="m 3361.27,3770.75 c 0.46,0 0.92,0 1.38,-0.01 -3.02,0.04 -0.86,0.01 -1.38,0.01"
         style="fill:#111011;fill-opacity:1;fill-rule:nonzero;stroke:none"
         id="path66" /><path
         d="m 3376.42,3615.38 c 39.44,8.78 50.17,67.69 7,85.28 -13.18,5.27 -22.42,5.08 -44.92,-5.44 -23.74,-11.17 -24.24,-39.53 -17.68,-56.64 9.17,-24.02 30.32,-28.98 55.6,-23.2"
         style="fill:#111011;fill-opacity:1;fill-rule:nonzero;stroke:none"
         id="path68" /><path
         d="m 2841.46,2712.74 c -1.61,-39.69 -4.44,-70.96 16.46,-162.51 -19.18,-5.04 -86.52,-45.01 -96.52,-49.63 -0.44,0.29 -0.98,0.57 -1.52,0.8 -10,8.53 -46.18,47.27 -78.57,51.67 -9.55,1.29 -21.06,2.38 -33.78,1.23 17.09,59.16 14.83,81.25 22.41,149.78 31.38,6.77 72.66,24.83 171.52,8.66 z m 147.19,-214.21 c 122.3,-19.25 136.52,-40.19 159.68,-53.51 -211.15,-101.07 -288.61,-166.55 -362.51,-173.31 -2.91,1.45 -11.86,1.38 -15.46,1.57 -12.02,0.64 -1.31,-1.66 -110.13,30.23 -29.44,8.84 -56.49,22.28 -97.18,36.04 -10.01,3.39 -169.12,52.4 -199.21,59.98 18.42,8.19 178.75,96.68 287.98,106.98 2.21,-0.59 3.82,-0.51 6.14,-0.28 32.59,2.71 73.75,-56.81 106.39,-68.14 19.32,-6.68 32.88,-2.03 50.38,8.97 101.19,63.69 37.99,73.87 173.92,51.47 z m -72.76,-348.77 c -139.46,7.29 -251.26,-72.7 -319.96,-59.34 -64.1,17.78 -109.34,63.21 -133.17,81.71 -35.54,27.58 -36.84,80.69 -16.41,108.36 493.27,-79.98 313.56,-40.62 669.31,67.34 31.66,-23.46 46,-54.05 31.58,-112.55 0.14,0.58 -2.26,-10.61 -9.49,-24.36 -28.72,-49.8 -36.2,-34.73 -46.57,-47.97 -73.98,-32.11 -142.33,-15 -175.29,-13.19 z m -2.82,-200.39 c -66.04,9.6 -175.21,-13.44 -238.09,-30.34 -0.18,2.24 -1.05,4.41 -2.49,6.22 -5.58,12.11 -3.53,27.32 -33.45,70.2 -32.74,47.73 -34.68,46.19 -45.39,56.06 81.06,-12.63 131.54,22.45 263.84,33.03 26.5,2.15 79.53,2.8 125.77,12.73 -46.38,-73.28 -58.59,-109.79 -70.19,-147.9 z m -414.18,163.84 c 4.8,-3.44 10.16,-7.18 15.04,-10.59 -2.53,1.62 -8.93,6.04 -15.04,10.59 z m 325.09,675.12 c -36.03,-24.69 -48.71,-23.88 -66.34,-24.81 -19.31,-1.04 -37.93,-2.54 -47.93,0.16 -66.63,23.68 -40.45,76.11 -180.43,69.76 -15.69,-0.75 -16.85,-27.3 2.12,-27.3 50.98,0 81.17,5.65 117.23,-32.64 9.44,-9.99 17.66,-19.25 41.06,-30 -0.29,-0.01 -82.78,-10.64 -108.21,-10.86 -13.53,0.76 -31.71,8.1 -44.03,13.77 -19.64,9.07 -17.27,14.83 -37.96,28.14 -7.18,4.71 -12.02,7.89 -17.66,14.32 -4.03,4.54 -22.25,21.05 -38.83,37.43 -2.57,2.47 -7.61,3.41 -10.45,2.69 -28.01,8.3 -59.8,-39.22 -16.17,-64.68 75.76,-45.7 134.49,-77.21 224.05,-65.61 -2.89,-25.05 -15.66,-105.54 -21.59,-128.81 l 0.26,0.39 c -2.12,-7.39 -6.05,-17.68 -8.72,-23.95 -84.96,-22.07 -258.41,-108.1 -301.66,-141.24 -21.84,-1.99 -62.17,-11.71 -74.56,-29.9 -8.04,-11.74 -7.83,-36.14 5.16,-50.01 20.97,-22.43 35.65,-6.17 48.38,5.56 27.41,-12.9 5.78,-26.97 102.99,-42.16 -0.49,-3.12 -0.85,-5.92 -1.21,-8.2 -9.05,-10 -10.48,-80.12 30.1,-126.44 7.75,-8.87 16.45,-16.99 24.87,-24.84 28.39,-26.5 53.19,-55.64 107.27,-70.16 -0.65,-6.09 6.37,-11.18 10.93,-15.27 23.29,-20.75 21.14,-13.13 59.27,-68.82 24.67,-36.59 21.77,-51.61 28.51,-63.31 -13.11,-4.03 -99.93,-29.89 -107.65,-41.34 -35.3,-18.07 -25.36,-37.41 -12.64,-41.38 19.01,-5.89 46.09,7.95 105.6,24.92 l -1.26,-0.2 c 260.18,65.39 320.7,28.45 386.65,28.45 59.79,0 56.34,55.77 -82.58,65.76 15.94,52.65 31.73,78.51 75.09,148.59 1.59,2.57 3.16,5.74 2.68,9.79 77.83,23.26 115.15,40.65 140.14,77.75 8.46,10 27.3,41.08 31.58,81.16 4.32,39.76 4.87,62.67 -28.39,94.58 101.78,20.44 62.83,6.02 123.47,3.73 10.07,-0.51 18.43,-1.46 27.64,-0.68 39.16,3.44 40.8,20.52 43.73,36.05 3.84,21.24 -1.67,43.56 -25.04,46.62 -22.21,2.83 -68.65,-21.25 -98.07,-14.76 -8.31,2.27 -16.99,5.41 -27.63,9.94 -66.75,88.29 -195.02,102.49 -319.72,111.38 -21.22,89.6 -17.91,110.61 -15.81,157.51 132.01,-11.51 234.07,129.46 165.26,129.46 -26.13,0 -61.15,-41.72 -89.12,-60.66 -33.84,-22.74 -100.81,-34.28 -141.64,-31.13 12.4,3.91 41.51,24.27 52.06,31.89 19.79,14.47 15.53,21.93 76.5,39.42 24.75,5.88 36.98,-0.74 39.17,13.78 3.51,23.73 -40.6,12.5 -62.58,5.27 -59.79,-19.93 -35.97,-15.83 -83.89,-49.11"
         style="fill:#111011;fill-opacity:1;fill-rule:nonzero;stroke:none"
         id="path70" /><path
         d="m 1525.88,3022.14 c -74.11,61.87 -70.29,60.52 -100.08,92.28 -14.95,15.87 -21.47,23.74 -26.95,39.63 -17.65,54.88 -8.27,197.89 1.09,232.15 14.87,-13.25 54.09,-66.17 63.78,-80.01 -6.95,-32.47 -7.92,-59.11 -6.9,-83.8 0.42,-10.58 0.27,-32.42 18.03,-42.46 20.23,-11.51 41.67,11.04 56.62,28.16 10.02,-15.12 54.4,-75.99 57.65,-107.07 -8.13,-24.03 -52.36,-45.17 -28.21,-79.58 9.62,-27.88 29.55,-27.74 58.31,-70.85 24.72,-39.78 49.24,-82.31 46.21,-108.35 -51.31,40.65 -17.15,77.09 -139.55,179.9 z m -40.96,254.12 c 0,0 20.86,-30.75 31.61,-46.42 -4.9,-6.06 -21.91,-25.66 -29.64,-26.67 -9.21,7.73 -4.07,60.41 -1.97,73.09 z m 200.19,-378.97 c -11.9,37.63 -41.45,89.19 -79.6,116.72 -4.47,7.87 -10.58,20.4 -10.84,29.45 6.83,22.36 66.54,46.64 28.64,144.01 -10.08,25.95 -156.21,250.49 -193.62,261.49 -10.01,2.98 -33.76,2.41 -46.77,-14.94 -23.35,-31.62 -25.72,-235.26 -23.53,-267.55 -4.69,-6.62 -1.96,-12.87 2.08,-38.93 1.74,-11.43 3.31,-24.54 10.92,-47.22 23.84,-71.82 140.63,-280.52 149.23,-286.64 21,-32.49 24.05,-39.88 34.05,-39.88 7.28,0 13.07,5.65 13.57,12.65 0.49,6.93 -8.32,16.84 -12.73,22.84 -60.83,82.79 -118,221.52 -135.27,273.51 67.16,-67.99 78.68,-62.14 110.04,-87.96 87.27,-71.37 56.31,-137.27 124.12,-169.32 33.14,-15.95 63.33,29.17 29.71,91.77"
         style="fill:#111011;fill-opacity:1;fill-rule:nonzero;stroke:none"
         id="path72" /><path
         d="m 3353.79,890.352 1.93,2.277 c -70.7,-102.688 -108.91,-143.051 -166.9,-192.66 -3.03,4.601 -16.1,21.23 -31.64,38.14 -0.81,0.903 -1.28,1.411 -1.99,2.172 l -0.87,0.938 c -99.32,107.859 -183.09,249.832 -291.76,335.301 99.36,20.27 375.1,118.78 471.14,187.03 30.32,46.93 67.88,105.73 87.72,154.93 -25.99,-34.1 -63.81,-68.38 -93.79,-95.49 -94.69,-85.85 -139.42,-91.75 -230.06,-124.35 -36.04,-12.43 -73.39,-25.78 -98.25,-29.89 -2.66,-0.18 -3.77,0.02 -6.85,-1.44 -296.36,-62.51 -464.24,-57.38 -801.46,108.52 -95.85,49.49 -158.9,101.28 -238.87,174.45 l -0.02,-0.01 c -94.46,100.58 -156.89,148.9 -255.3,299.49 -58.08,84.82 -69,97.15 -85.75,136.23 0.24,0.7 3.8,21.53 4,22.58 17.64,95.58 63.25,153.86 96.1,495.55 -0.13,-1.97 2.08,-5.2 3.13,-6.98 32.03,-54.79 6.58,-17.13 54.19,-87.14 1.88,-10.35 30.46,-121.06 38.22,-140.16 44.23,-108.8 67.1,-140.05 80.94,-161.88 99.79,-145.31 110.6,-156.11 160.53,-207.87 54.84,-67.86 72.72,-105.72 172.16,-217.51 89.38,-101.64 148.52,-125.66 169.62,-143.35 8.69,-7.21 13.9,-11.24 24.41,-16.36 2.38,-2.52 26.46,-17.52 44.79,-24.44 9.14,-3.67 41.09,-12.4 59.64,-15.04 31.07,-5.09 67.9,-21.71 155.51,-31.49 30.83,-3.37 57.49,-7.37 98.57,19.11 80.6,52.12 54.54,164.65 54.84,174.88 l 0.82,-1.07 c 9.16,-6.93 12.64,-22.74 18.27,-42.46 l 0.36,0.53 -0.21,-0.93 c 19.43,-68.77 -51.63,-147.81 81.61,-150.75 54.28,-1.19 45.88,-3.97 86.2,-0.42 59.89,5.23 188.62,14.78 223.62,64.05 29.19,16.58 62.44,96.58 110.3,182.46 23.13,41.18 128.23,225.05 152.71,265.43 14.75,-29.16 171.54,-480.43 -147.61,-972.378 z M 2388.43,689.969 c -70.04,46.84 -73.86,38.972 -181.56,121.621 -236.89,186.609 -344.69,306.56 -490.75,527.91 -125.86,189.65 -220.23,411.62 -238.84,476.33 12.15,48.42 30.97,150.12 40.14,187.69 6.59,-45.57 68.22,-220.73 192.82,-391.76 241.22,-330.93 623.74,-551.38 1051.96,-540.58 -103.06,-100.442 -102.64,-60.02 -373.77,-381.211 z M 1617.74,2245.69 c 0,0 -12.5,-78.43 -20.81,-117.99 0,0 -24.61,-103.27 -25.15,-105.4 -1.99,14.67 -5.28,35.3 -5.78,50.09 0,96.89 10.35,153.96 51.74,173.3 z m -32.37,357.4 c -50.49,73.36 6.77,57.18 -79.48,155.23 -74.47,84.46 -131.94,208.69 -144.8,272.04 -25.28,124.22 -4.93,231.63 1.4,330.25 5.83,78.94 14.95,133.37 44.61,169.54 9.7,12.24 20.37,29.23 44.22,39.06 22.77,4.92 29.32,-0.61 49.13,-16.63 11.21,-9.32 61.68,-42.43 114.62,-117.85 1.41,-1.97 2.99,-3.48 4.71,-4.49 l -0.27,-0.31 c 18.61,-152.93 31.69,-360.67 120.7,-707.92 -0.66,-1.43 4.46,-45.58 4.67,-47.15 -1.02,-19.89 -1.97,-78.03 -43.84,-106.75 -10.72,-5.39 -34.79,-13.47 -55.13,-9.35 -13.52,2.86 -33.34,5.57 -60.54,44.33 z m -90.74,1459.88 c 18.25,144.54 20.88,189.48 53.54,292.29 15.51,46.07 83.84,230.72 147.74,309.18 28.11,33.82 119.12,114.49 194.8,163.2 46.61,29.81 79.64,51.81 363.87,122.65 14.16,3.67 569.59,120.14 677.9,165.14 164.45,66.11 214.21,97.37 263.64,169.65 -2.92,-10 18.89,-53.9 29.1,-68.39 19.78,-28.69 65.82,-56.35 96.64,-72.87 414.96,-223.44 479.01,-212.14 556.1,-519.86 40.27,-160.57 59.09,-207.56 87.28,-416.61 -4.04,-15.73 -35.15,-124.04 -52.88,-228.66 -19.39,-115.45 -91.21,-350.99 -105.55,-491.01 -20.91,-195.16 -75.19,-447.79 -90.4,-565.05 -8.12,19.19 -128.91,308.1 -147.28,320.2 -38.22,-26.64 44.68,-97.79 133.55,-468.75 23.16,-101.71 44.07,-163.2 34.15,-284.38 l 0.65,0.1 -0.51,-0.18 c -1.79,-10 -10.22,-101.3 -35.08,-165.24 -2.2,-5.77 -4.84,-12.65 -7.07,-18.03 -21.79,-52.27 -37.03,-74.06 -56.53,-105.87 -16.37,-26.38 -22.66,-37.6 -30.06,-51.48 -20.62,-38.7 -245.11,-407.68 -251.2,-417.7 -79.85,-130.28 -145.7,-271.89 -182.43,-310.99 -10.05,-2.99 -124.33,-37.29 -137.96,-38.95 -14.32,-2.61 -134.38,6.07 -147.21,17.9 -2.31,8.11 -3.15,25.72 0.27,42.57 7.03,34.57 12.41,32.17 1.01,78.64 -11.97,58.64 -54.28,76.45 -73.61,69.31 -40.86,-12.59 -21.42,-97.28 -20.34,-107.28 2.74,-26.61 -8.61,-64.29 -33.07,-80.51 -61.22,-39.15 -167.86,-0.56 -228.5,7.65 -41.07,5.83 -98.73,35.46 -133.87,55.45 -10.01,5.89 -87.47,77.74 -156.31,157.81 -2.72,3.17 -195.26,237.84 -219.19,268.36 -39.99,50.38 -97.47,143.54 -120.31,187.73 -26.82,49.45 -45.82,98 -63.27,148.39 -20.03,56.7 -30.92,98.79 -37.43,219.66 -10.69,185.23 78.89,404.5 93.15,449.08 l -0.35,0.34 0.68,0.76 0.46,1.34 -0.76,0.63 c 0,0 39.44,132.81 136.93,326.12 3.14,6.14 0.97,14.09 -4.99,18.25 -2.71,14.06 -25.29,13.79 -28.42,-5.26 -86.14,-159.96 -152.64,-320.55 -198.8,-469.23 -1.23,7.43 -4.19,16.14 -8.63,31.77 -21.69,75.4 -28.51,117.06 -42.29,173.16 -0.32,0 -0.64,0.15 -0.99,-0.07 1.86,1.38 -16.49,74.72 -17.03,77.06 l -0.5,-0.05 c 1.08,19.88 -80.56,358.98 -96.57,444.6 -69.54,390.84 -83.93,374.8 -142.07,567.43 z m -35.85,162.59 c -1.24,10 -14.65,86.08 -8.23,181.34 1.32,1.41 2.26,3.6 2.85,6.65 11.12,59.02 11.1,85.84 41.28,173.32 72.19,209.26 82.62,207.61 127.7,291.35 70.47,127.96 107.84,170.86 158.81,224.6 58.5,62.05 75.68,71.88 89.12,81.57 198.18,143.27 332.22,201.4 434.36,235.07 374.28,120.04 548.43,76.06 856.97,-81.85 -0.54,0.03 -0.93,-0.06 -1.41,-1.23 -5.24,-12.36 -12.44,-32.17 -37.86,-57.97 l 0.32,-0.68 -0.38,0.14 c -19.18,-15.48 -67.22,-91.31 -295.92,-128.85 -17.45,-2.85 -129.4,-25.8 -129.4,-25.8 0,0 -201.32,-34.34 -255.42,-47.36 -2.17,-0.53 -33.93,-7.94 -36.09,-8.13 -42.32,-15.68 -445.11,-70.91 -603.09,-235.69 -88.23,-90.45 -245.98,-279.67 -303.4,-438.68 -25.83,-70.9 -34.06,-129.31 -40.21,-167.8 z M 3362.9,5376.39 c 98.88,23.35 197.37,22.68 239.6,13.16 192.6,-63.53 332.99,-267.2 402.96,-457.6 102.9,-279 58.42,-456.53 12.78,-646.75 -138.78,599.18 -214.59,664.88 -624.85,870.73 -19.88,10.14 -32.8,20.41 -56.62,37.16 -57.95,40.69 -69.04,67.54 -87.13,138.18 10,3.88 52.14,27.97 113.26,45.12 z m 778.19,-1897.02 c 8.66,-36.65 -18.4,79.4 -88.24,79.4 -18.3,0 -27.27,-9.03 -77.28,-60.01 -33.68,-34.22 -119,-141.7 -126.36,-153.02 7.94,40.79 25.74,173.65 38.77,238.55 32.18,35.36 114.15,129.36 145.48,109.85 -5.76,3.92 -1.16,0.79 4.71,-3.04 56.76,-41.3 84.12,-142.35 102.92,-211.73 z m 4.41,-188.43 c 0.99,-33.99 1.96,-20.89 -0.23,-78.28 -2.24,-67.69 -9.94,-133.23 -51.6,-184.84 -31.07,-39.96 -97.67,-82.2 -74.66,-100.97 5.95,-4.86 14.89,-4.04 19.73,2.02 13.28,17.44 33.98,37.96 50.63,53.69 -1.98,-4.12 -4.55,-13.87 -5.9,-18.69 -11.43,-39.75 -13.75,-54.7 -25.95,-84.98 -22.79,-56.78 -135.9,-181.95 -187.24,-182.91 -8.96,0.33 -12.16,4.36 -19.32,11.24 -16.08,15.45 -56.48,46.6 -83.96,107.87 0.02,0.37 -0.18,1.3 -0.31,1.93 0.85,1.99 0.95,4.55 0.26,7.36 20.87,111.49 46.95,252.33 58.99,360.5 4.15,6.42 2.5,4.4 23.32,35.88 18.84,-41.11 83.14,-87.41 69.53,-113.2 -27.11,-28.91 -83.92,-14.54 -65.32,-139.83 2.78,-19.61 10.28,-60.17 16.97,-77.9 7.35,-19.73 13.45,-24.72 23.16,-29.57 61.01,-31.82 59.27,74.08 75.33,133.83 26.1,81.15 133.89,92.23 174.77,293.37 3.18,16.37 1.45,9.5 1.8,3.48 z M 4018,3440.13 c 14,-37.61 32.31,-101.16 16.4,-138.11 -0.26,-0.21 -0.55,-0.53 -1.32,-1.17 l -0.62,-0.27 c -35.33,4.13 -57.34,34.25 -73.58,66.5 26.86,34.95 34.3,43.57 59.12,73.05 z m -149.72,-192.47 c 9.42,13.18 49.6,66.16 72.73,96.2 64.63,-111.94 182.06,-101.85 96.24,118.86 2.85,3.19 43.79,49.46 47.62,51.38 -0.01,0 -0.01,-0.01 -0.01,-0.01 0.12,0.09 0.22,0.18 0.05,0.03 0.42,0.25 0.75,0.6 1.14,0.89 11.97,-11.57 40.62,-60.42 50.15,-115.18 -26.23,-168.32 -30.7,-212.9 -137.78,-319.98 -20.57,-20.14 -42.31,-45.17 -52.46,-72.3 -15.44,-40.64 -15.49,-117.75 -32.98,-125.48 -11.58,0.46 -20.8,6.88 -31.89,77.55 -23.37,149.54 53.26,82.41 66.03,148.27 9.05,46.35 -61.18,83.31 -78.84,139.77 z M 4179.15,840.891 c -40.51,41.75 -42.83,60.308 -207.28,193.649 -277.95,226.29 -333.98,261.2 -377,280.46 34.01,183.18 31.07,437.43 -48.41,621.98 162.13,267.5 229.69,360.56 256.28,480.49 5.37,24.56 7.96,59.52 4.07,93.23 -6.21,55.89 -1.25,93.29 -16.86,174.44 14.68,-14.06 26.14,-19.98 35.84,-23.65 0.02,-0.01 23.03,-8.69 23.03,-8.69 3.4,-1.25 5.82,-1.8 9.92,-1.72 0.1,-0.2 0.11,-0.44 0.22,-0.64 5.94,0.42 13.71,1.62 28.32,8.75 0,0 0,0 0,-0.01 1.04,0.52 7.99,4.35 14.88,8.44 0.02,0.02 0.03,0.05 0.05,0.08 74.43,44.16 169.63,158.28 178.12,177.3 18.47,41.26 17.85,42.32 27.13,70.77 10.28,31.71 4.69,46.01 24.9,104.5 40.81,43.68 67.8,176.34 68.6,243.57 l -1.07,0.26 c 2.91,2.36 -2.85,74.94 -3.28,78.69 -2.01,19.66 -2.91,26.94 -9.1,54.87 -4.2,42.07 -7.99,93.07 -46.8,200.98 -37.28,106.35 -39.5,58.95 -53.52,116.28 -23.68,97 -44,280.72 -52.49,380.85 -14.34,-4.53 -14.49,-43.95 -16.22,-86.81 -5.96,-126.6 14.69,-192.8 4.63,-269.45 -6.96,2 -8.63,1.04 -17.46,4.28 -15.76,-2.29 -79.32,-44.32 -100.71,-64.4 l 0.29,0.53 c 17.53,82.17 16.56,121.59 127.26,544.02 -0.13,0.7 -0.46,2.46 -0.58,3.11 55.2,257.66 62.68,218.06 59.54,424.07 -1.19,53.2 -10.13,91.77 -13.94,111.21 -12.37,62.69 -6.21,92.37 -90.78,276.7 -67.11,150.56 -232.98,349.4 -394.65,378.93 -95.87,13.93 -239.39,-0.33 -365.75,-68.41 3.78,11.25 -336.02,250.68 -802.08,151.64 l -0.63,-0.28 c -151.25,-21.95 -543.81,-175.33 -759.06,-452.19 -5.72,-2.17 -8.17,-7.95 -11.33,-13.42 -5.77,-10.01 -63.07,-87.35 -92.83,-146.33 -5.06,-3.53 -25.73,-51.66 -28.19,-57.33 -11.81,-27.33 -14.99,-22.13 -36.64,-83.12 -75.36,-212.54 -149,-332.08 -79.03,-617.49 13.24,-56.95 6.4,-36.29 14.91,-57.93 l 0.37,-0.32 c 1.01,-4.54 0.63,-2.86 1.69,-7.4 l -0.68,3.62 c 10.16,-45.6 23.84,-78.96 36.56,-123.93 l 0.15,0.57 c 13.02,-45.56 7.31,-27.8 23.32,-96.14 59.62,-210.75 76.48,-279.21 78.89,-289.21 l -0.45,0.62 c -16.32,11.19 -15.2,11.34 -25.98,18.73 -2.65,4.27 -30.99,20.8 -35.47,23.08 -23.46,101.55 -41.45,193.92 -44.61,215.28 -0.68,4.82 -1.05,10.62 -3.83,14.43 -5.18,8.85 -19.98,8.4 -24.73,-2.16 -1.64,-3.62 -2.16,-13.04 -0.29,-16.87 2.86,-97.83 -0.56,-206.36 -0.56,-206.36 -163.5,-47.06 -190.6,-694.12 37.32,-877.8 30.9,-24.44 24.71,-21.38 37.34,-69.07 -0.19,-2.48 0.79,-5.14 1.68,-7.43 4.03,-10 13.68,-117.73 124.68,-137.53 l -0.39,-0.11 c -2.7,-27.07 -2.31,-134.79 -10.51,-201.29 -2.48,0.18 -8.7,-5.08 -10.05,-7.28 -78.27,-56.43 -90.38,-112.01 -130.93,-272.7 -48.88,-27.11 -43.21,-42.93 -116.84,-96.01 -268.15,-197.19 -762.661,-492.02 -762.661,-492.02 -13.266,-6.36 -4.313,-33.57 15.633,-23.13 7.679,0 98.378,57.17 143.222,84.02 40.219,24.49 100.485,57.55 141.696,79.58 170.21,90.57 81.203,53.1 436.38,249.59 -10,-8.3 -69.79,-250.25 3.87,-479.87 6.46,-20.11 10.46,-35.2 28.8,-29.43 14.89,5.95 15.68,26.54 -8.47,116.17 3.81,5.1 0.87,9.25 -0.77,19.25 -11.23,74.1 -7.1,44.19 -7.1,108.72 0.27,57.58 6.14,89.77 15.31,124.32 17.91,66.91 42.41,149.79 77.42,212.42 -4.15,-9.87 -27.45,-106.62 -27.62,-109.09 -18.98,-265.09 462.11,-1007.76 919.5,-1217.561 7.41,-3.348 17.72,-8.41 25.54,-8.41 62.37,0 310.67,311.043 443.96,438.091 17.23,-24.15 286.51,-324.591 342.08,-357.548 17.21,-16.82 5.52,-4.973 15.53,-14.563 20.82,-14.589 46.83,-37.05 56.83,-44.578 21.14,15.489 119.7,138.348 148.39,179.36 40.97,58.461 148.76,267.289 189.3,410.549 112.17,-87.43 431.94,-294.69 520.48,-343.1 101.5,-55.371 109.43,-54.918 147.3,-80.16 9.82,-2.309 12.5,-2.821 24.16,-5.692 1.1,0.332 1.81,0.762 2.55,1.551 -2.6,4.91 -76.46,80.609 -80.31,84.602"
         style="fill:#111011;fill-opacity:1;fill-rule:nonzero;stroke:none"
         id="path74" /><path
         d="m 4085.12,3514.22 c -0.08,-0.04 -0.15,-0.07 -0.23,-0.11 -0.09,-0.08 0.05,0 0.23,0.11"
         style="fill:#111011;fill-opacity:1;fill-rule:nonzero;stroke:none"
         id="path76" /><path
         d="m 4084.91,3514.12 c -0.02,-0.01 -0.03,-0.01 -0.04,-0.02 0,0 0.01,0.01 0.02,0.01 0.01,0 0.01,0 0.02,0.01"
         style="fill:#111011;fill-opacity:1;fill-rule:nonzero;stroke:none"
         id="path78" /><path
         d="m 2305.96,3633.82 c 0.06,-0.13 0.11,-0.27 0.17,-0.4 0,-0.03 0.01,-0.07 0.01,-0.1 -0.06,0.17 -0.12,0.33 -0.18,0.5 m -19.49,15.94 c -2.44,-2.17 -3.86,-4.9 -4.96,-7.91 -0.51,-1.42 -0.82,-2.88 -1.13,-4.37 -0.43,-2.11 -0.77,-4.37 -0.63,-6.54 0.27,-3.63 0.97,-5.59 2.47,-8.93 1.34,-2.98 4.94,-5.29 7.98,-6.13 2.36,-0.64 4.87,-0.62 7.21,0.04 3.54,-0.85 8.26,-0.13 11.13,1.8 3.69,2.46 6.33,5.45 7.71,9.73 1.11,3.44 0.94,6.93 0.28,10.43 -0.47,2.47 -1.56,4.79 -2.68,7.03 -2.93,5.93 -9.58,9.62 -16.05,9.65 h -0.05 c -4.29,0 -8.16,-2.05 -11.28,-4.8"
         style="fill:#f7f7f3;fill-opacity:1;fill-rule:nonzero;stroke:none"
         id="path80" /><path
         d="m 3363.68,3681.01 c -7.27,-2 -11.36,-9.59 -9.54,-16.8 1.31,-5.14 3.08,-10.56 7.44,-13.96 2.85,-2.22 3.94,-2.98 7.43,-4.24 5.4,-1.93 10.97,0.37 15.08,3.77 1.36,1.12 2.45,2.66 3.3,4.21 0.66,1.21 1.09,2.25 1.4,3.27 1.04,1.92 1.7,4.04 1.44,6.18 -0.4,3.44 -0.64,5.32 -2.16,8.41 -2.05,4.18 -6.11,6.96 -10.45,8.32 -1.86,0.59 -3.76,0.7 -5.59,0.43 -1.54,0.57 -3.18,0.88 -4.84,0.88 -1.18,0 -2.35,-0.15 -3.51,-0.47"
         style="fill:#f7f7f3;fill-opacity:1;fill-rule:nonzero;stroke:none"
         id="path82" /><path
         d="m 147.309,200.871 c 1.062,-14.5 -2.422,-26.359 -10.469,-35.621 -8.051,-9.262 -18.652,-15.551 -31.789,-18.91 -13.1526,-3.352 -26.3674,-5.641 -39.6487,-6.852 -13.2695,-1.199 -25.8867,-2.008 -37.8203,-2.41 -11.9453,-0.398 -19.25778,-1.269 -21.93356,-2.617 -0.53906,1.891 -1.28125,4.301 -2.21875,7.25 -0.9375,2.961 -1.875,8.25 -2.812502,15.898 -0.937501,7.641 -0.808594,14.411 0.402342,20.321 1.21094,5.902 4.49219,11.39 9.86327,16.488 5.3594,5.102 13.0078,7.91 22.9375,8.461 45.0703,2.141 70.5587,6.43 76.4567,12.883 2.684,2.937 2.684,6.968 0,12.066 -3.761,7.254 -10.058,14.754 -18.9176,22.531 -8.8477,7.782 -17.7031,14.961 -26.5508,21.532 -8.8594,6.57 -17.9102,13.89 -27.168,21.941 -9.2578,8.039 -16.3008,16.898 -21.125,26.559 -4.832,9.66 -7.51951,20.379 -8.05466,32.199 -0.53906,11.789 3.42576,25.808 11.87496,42.051 8.4454,16.23 21.2579,34 38.4375,53.32 7.5,7.508 12.7344,12.48 15.6914,14.891 16.0938,12.878 30.7152,17.168 43.8592,12.878 23.614,-7.25 31.797,-26.031 24.547,-56.351 -3.211,-12.34 -5.965,-26.957 -8.25,-43.848 -2.273,-16.91 -3.418,-28.992 -3.418,-36.23 h -16.492 c 2.41,28.168 4.551,51.238 6.434,69.219 0.265,3.218 -0.946,4.148 -3.622,2.82 -2.414,-1.078 -8.046,-5.899 -16.906,-14.488 -13.6795,-13.684 -23.4764,-26.704 -29.3748,-39.043 -5.9063,-12.34 -8.0469,-23.34 -6.4336,-33 1.6094,-9.661 5.0273,-18.778 10.2617,-27.36 5.2266,-8.59 11.8672,-16.84 19.9141,-24.75 8.0546,-7.918 15.7616,-15.5 23.1446,-22.738 7.371,-7.242 13.945,-15.16 19.715,-23.742 5.773,-8.598 8.918,-17.039 9.465,-25.348"
         style="fill:#111011;fill-opacity:1;fill-rule:nonzero;stroke:none"
         id="path84" /><path
         d="m 249.121,290.199 c -1.609,0 -3.094,0 -4.43,0 -1.347,0 -3.418,-0.738 -6.242,-2.199 -2.812,-1.488 -5.293,-3.57 -7.441,-6.238 -2.149,-2.692 -4.422,-7.051 -6.836,-13.082 -2.422,-6.051 -4.297,-13.219 -5.633,-21.532 19.844,-1.347 33.262,5.082 40.242,19.313 1.067,2.41 1.867,5.301 2.414,8.648 0.535,3.352 -0.136,6.7 -2.011,10.059 -1.887,3.352 -5.235,5.031 -10.063,5.031 z m 83.305,1.61 8.047,-6.43 C 318.195,243.789 290.168,211.988 256.359,190 227.648,171.219 203.371,164.922 183.52,171.078 c -20.657,6.711 -29.778,26.16 -27.364,58.363 0.262,4.289 0.809,8.707 1.61,13.278 2.414,13.679 6.777,25.48 13.078,35.41 6.308,9.922 13.277,17.371 20.926,22.34 7.648,4.961 15.832,8.582 24.55,10.871 8.711,2.269 16.426,3.351 23.145,3.211 6.699,-0.141 12.336,-0.871 16.894,-2.211 5.899,-1.879 10.735,-5.168 14.493,-9.86 3.75,-4.699 5.898,-10.8 6.437,-18.308 0.535,-7.512 -2.148,-15.973 -8.047,-25.352 -9.394,-15.3 -26.836,-22.539 -52.316,-21.73 -2.957,-26.559 2.812,-38.781 17.304,-36.621 15.821,2.41 37.961,19.043 66.399,49.89 16.367,17.981 26.961,31.801 31.797,41.45"
         style="fill:#111011;fill-opacity:1;fill-rule:nonzero;stroke:none"
         id="path86" /><path
         d="m 487.758,286.18 8.855,0.398 c 3.75,-0.797 5.09,-2.949 4.024,-6.437 0,-0.27 -0.946,-3.621 -2.821,-10.051 -1.875,-6.449 -3.886,-13.418 -6.035,-20.93 -2.148,-7.519 -5.234,-16.699 -9.258,-27.57 -4.027,-10.871 -8.253,-21.27 -12.675,-31.192 -4.426,-9.918 -9.856,-19.988 -16.301,-30.179 -6.434,-10.188 -13.074,-18.91 -19.922,-26.16 -6.836,-7.25 -14.687,-13.079 -23.535,-17.508 -8.856,-4.422 -17.977,-6.371 -27.371,-5.832 -7.239,0.269 -13.281,2.621 -18.106,7.043 -4.836,4.429 -8.183,10.539 -10.058,18.308 -1.887,7.789 -3.086,16.102 -3.625,24.95 -0.547,8.859 -0.203,19.179 1.008,30.992 1.199,11.808 2.48,22.468 3.816,31.988 1.34,9.52 2.883,20.191 4.629,31.988 1.75,11.813 3.019,20.93 3.828,27.383 -16.902,0.258 -30.254,1.797 -40.047,4.629 -9.797,2.809 -16.027,6.359 -18.711,10.66 -2.687,4.289 -4.367,9.11 -5.031,14.481 -0.676,5.359 -0.399,10.929 0.812,16.699 1.2,5.769 0.731,11.48 -1.418,17.109 1.614,0.801 3.692,1.61 6.243,2.41 2.546,0.801 7.109,1.743 13.679,2.821 6.575,1.07 12.336,1.07 17.305,0 4.961,-1.078 9.258,-4.16 12.883,-9.25 3.621,-5.11 5.027,-12.481 4.226,-22.141 -0.547,-6.98 5.227,-10.461 17.305,-10.461 4.289,0.262 8.574,0.262 12.871,0 4.289,-0.269 9.395,-1.418 15.293,-3.43 5.899,-2.007 10.801,-4.886 14.688,-8.648 3.886,-3.762 7.043,-9.332 9.464,-16.699 2.411,-7.379 2.95,-16.031 1.61,-25.961 -6.445,-49.36 -9.395,-79.41 -8.856,-90.141 0.536,-20.379 7.508,-23.34 20.926,-8.847 9.387,9.918 18.313,25.679 26.758,47.277 8.457,21.601 14.551,40.711 18.312,57.351 l 5.235,24.95"
         style="fill:#111011;fill-opacity:1;fill-rule:nonzero;stroke:none"
         id="path88" /><path
         d="m 566.621,91.8008 c 1.067,31.9372 0.942,70.8282 -0.398,116.7072 C 516.32,169.07 497.004,138.359 508.273,116.359 519.27,95.6992 531.066,81.75 543.684,74.5 c 12.336,-7.25 19.718,-3.4922 22.14,11.2695 0.528,1.8711 0.797,3.9024 0.797,6.0313 z M 504.652,258.012 c -0.273,-13.422 6.969,-18.114 21.727,-14.094 13.418,4.031 25.617,11.812 36.621,23.34 0.266,0.273 0.539,0.543 0.813,0.812 v 0.399 c -0.813,9.66 -1.348,16.91 -1.614,21.73 -4.297,0 -9.051,-0.398 -14.285,-1.199 -5.234,-0.809 -11.34,-2.16 -18.312,-4.031 -6.981,-1.879 -12.813,-5.168 -17.508,-9.86 -4.699,-4.687 -7.18,-10.398 -7.442,-17.097 z m 200.411,49.097 3.621,-10.058 c -26.297,-13.422 -54.2,-29.391 -83.711,-47.891 6.445,-84.238 8.586,-142.601 6.445,-175.0584 C 628.195,25.2695 617.191,0.71875 598.422,0.460938 595.199,-0.078125 591.508,-0.148438 587.348,0.25 c -4.16,0.398438 -10.598,2.35938 -19.317,5.83984 -8.722,3.48829 -17.304,8.58986 -25.754,15.28126 -8.457,6.7187 -18.047,17.3086 -28.781,31.7969 -10.73,14.4922 -20.652,31.8008 -29.773,51.922 -15.567,30.859 11.808,71.359 82.101,121.531 -0.547,8.051 -0.812,14.219 -0.812,18.508 -9.657,-9.649 -21.602,-18.039 -35.809,-25.149 -14.23,-7.109 -27.637,-9.589 -40.246,-7.441 -13.418,2.41 -22.07,9.109 -25.957,20.109 -3.887,11 -3.016,22.813 2.617,35.422 5.625,12.61 14.348,22.668 26.153,30.18 11.535,7.25 24.746,11.672 39.64,13.281 14.891,1.61 24.61,1.34 29.18,-0.801 -1.074,13.68 -2.149,22.668 -3.223,26.961 0.809,0.27 1.942,0.539 3.418,0.797 1.473,0.274 4.293,0.614 8.457,1.012 4.149,0.41 8.184,0.328 12.071,-0.199 3.886,-0.539 8.308,-1.879 13.281,-4.02 4.961,-2.16 9.258,-5.031 12.879,-8.652 3.625,-3.617 6.836,-9 9.66,-16.098 2.812,-7.109 4.629,-15.492 5.43,-25.152 l 1.21,-21.328 c 13.133,7.5 26.485,14.879 40.04,22.129 13.542,7.25 23.808,12.48 30.789,15.691 l 10.461,5.238"
         style="fill:#111011;fill-opacity:1;fill-rule:nonzero;stroke:none"
         id="path90" /><path
         d="m 740.48,290.199 c -1.609,0 -3.093,0 -4.433,0 -1.348,0 -3.418,-0.738 -6.238,-2.199 -2.813,-1.488 -5.293,-3.57 -7.442,-6.238 -2.148,-2.692 -4.426,-7.051 -6.836,-13.082 -2.422,-6.051 -4.297,-13.219 -5.636,-21.532 19.843,-1.347 33.261,5.082 40.246,19.313 1.062,2.41 1.863,5.301 2.41,8.648 0.539,3.352 -0.137,6.7 -2.012,10.059 -1.883,3.352 -5.234,5.031 -10.059,5.031 z m 83.301,1.61 8.047,-6.43 C 809.555,243.789 781.527,211.988 747.719,190 719.008,171.219 694.73,164.922 674.875,171.078 c -20.652,6.711 -29.773,26.16 -27.363,58.363 0.265,4.289 0.812,8.707 1.609,13.278 2.414,13.679 6.781,25.48 13.078,35.41 6.309,9.922 13.281,17.371 20.93,22.34 7.644,4.961 15.828,8.582 24.551,10.871 8.711,2.269 16.425,3.351 23.144,3.211 6.699,-0.141 12.332,-0.871 16.895,-2.211 5.898,-1.879 10.73,-5.168 14.492,-9.86 3.75,-4.699 5.898,-10.8 6.434,-18.308 0.539,-7.512 -2.149,-15.973 -8.047,-25.352 -9.395,-15.3 -26.836,-22.539 -52.313,-21.73 -2.961,-26.559 2.813,-38.781 17.305,-36.621 15.82,2.41 37.957,19.043 66.394,49.89 16.368,17.981 26.965,31.801 31.797,41.45"
         style="fill:#111011;fill-opacity:1;fill-rule:nonzero;stroke:none"
         id="path92" /><path
         d="m 863.617,355.801 c -5.898,-5.903 -13.008,-8.852 -21.328,-8.852 -8.32,0 -15.43,2.949 -21.328,8.852 -5.898,5.898 -8.848,13.019 -8.848,21.328 0,8.32 2.95,15.43 8.848,21.32 5.898,5.903 13.008,8.86 21.328,8.86 8.32,0 15.43,-2.957 21.328,-8.86 5.899,-5.89 8.856,-13 8.856,-21.32 0,-8.309 -2.957,-15.43 -8.856,-21.328 z m 78.477,-59.961 11.668,-4.43 c -0.266,-0.269 -2.078,-4.16 -5.43,-11.672 -3.359,-7.519 -6.98,-15.359 -10.867,-23.539 -3.887,-8.179 -9.395,-17.508 -16.496,-27.969 -7.117,-10.46 -14.422,-19.66 -21.934,-27.57 -7.519,-7.91 -16.504,-14.551 -26.961,-19.922 -10.469,-5.367 -21.066,-7.91 -31.797,-7.648 -12.074,0.539 -21.125,5.441 -27.16,14.691 -6.043,9.258 -9.258,20.789 -9.656,34.61 -0.41,13.82 0.059,27.57 1.406,41.25 1.336,13.687 2.879,26.429 4.629,38.23 1.738,11.809 2.207,19.059 1.406,21.738 1.61,0.262 3.75,0.602 6.434,1.012 2.687,0.399 7.453,0.399 14.285,0 6.848,-0.41 12.68,-1.609 17.512,-3.633 4.824,-2.008 8.984,-5.84 12.472,-11.468 3.485,-5.641 4.559,-12.872 3.223,-21.731 -7.25,-49.098 -6.039,-75.531 3.621,-79.281 4.024,-1.61 9.524,0 16.496,4.832 8.582,5.898 17.645,15.762 27.168,29.582 9.52,13.816 16.961,26.09 22.332,36.816 l 7.649,16.102"
         style="fill:#111011;fill-opacity:1;fill-rule:nonzero;stroke:none"
         id="path94" /><path
         d="m 1156.17,411.34 c -5.89,0.531 -11.93,-4.301 -18.1,-14.488 -6.17,-10.204 -11.54,-23.071 -16.1,-38.633 -4.57,-15.571 -8.19,-28.778 -10.86,-39.649 -2.69,-10.859 -4.7,-20.32 -6.04,-28.371 v -3.211 c 19.84,13.953 36.22,35.813 49.09,65.602 10.47,24.668 13.68,42.25 9.66,52.711 -1.61,3.75 -4.16,5.758 -7.65,6.039 z m 14.1,16.898 c 16.35,-2.148 24,-13.816 22.93,-35.008 -1.34,-23.89 -11.81,-49.5 -31.39,-76.871 -16.64,-23.328 -35.81,-41.05 -57.55,-53.121 -1.35,-59.297 1.47,-91.078 8.46,-95.367 -2.16,-6.453 -8.25,-12.141 -18.31,-17.109 -10.07,-4.961 -18.99,-7.582 -26.77,-7.84 -9.66,-0.274 -17.44,4.887 -23.34,15.488 -5.91,10.602 -9.66,24.481 -11.27,41.649 -1.61,17.16 -2.41,36.621 -2.41,58.363 0,21.719 1,43.656 3.02,65.789 2.01,22.141 3.68,43.398 5.02,63.789 1.34,20.391 2.55,37.762 3.63,52.109 1.07,14.352 0.66,24.75 -1.21,31.192 1.07,0.258 2.55,0.527 4.43,0.808 1.88,0.262 5.43,0.52 10.66,0.801 5.24,0.262 10.2,0.07 14.9,-0.609 4.68,-0.672 9.85,-2.199 15.49,-4.633 5.63,-2.406 10.39,-5.617 14.28,-9.648 3.89,-4.032 6.97,-9.801 9.26,-17.309 2.28,-7.512 3.02,-16.371 2.21,-26.551 -0.8,-10.469 -1.6,-22.808 -2.42,-37.031 17.45,37.031 37.56,54.062 60.38,51.109"
         style="fill:#111011;fill-opacity:1;fill-rule:nonzero;stroke:none"
         id="path96" /><path
         d="m 1381.14,286.18 8.85,0.398 c 3.75,-0.797 5.09,-2.949 4.03,-6.437 0,-0.27 -0.95,-3.621 -2.83,-10.051 -1.87,-6.449 -3.88,-13.418 -6.03,-20.93 -2.15,-7.519 -5.24,-16.699 -9.26,-27.57 -4.02,-10.871 -8.25,-21.27 -12.67,-31.192 -4.43,-9.918 -9.86,-19.988 -16.3,-30.179 -6.44,-10.188 -13.08,-18.91 -19.93,-26.16 -6.83,-7.25 -14.68,-13.079 -23.53,-17.508 -8.86,-4.422 -17.98,-6.371 -27.37,-5.832 -7.24,0.269 -13.29,2.621 -18.11,7.043 -4.83,4.429 -8.18,10.539 -10.06,18.308 -1.88,7.789 -3.08,16.102 -3.62,24.95 -0.55,8.859 -0.21,19.179 1,30.992 1.21,11.808 2.49,22.468 3.82,31.988 1.34,9.52 2.88,20.191 4.63,31.988 1.75,11.813 3.02,20.93 3.83,27.383 -16.9,0.258 -30.25,1.797 -40.05,4.629 -9.79,2.809 -16.02,6.359 -18.71,10.66 -2.69,4.289 -4.36,9.11 -5.03,14.481 -0.67,5.359 -0.4,10.929 0.81,16.699 1.2,5.769 0.73,11.48 -1.41,17.109 1.61,0.801 3.69,1.61 6.24,2.41 2.54,0.801 7.11,1.743 13.68,2.821 6.57,1.07 12.33,1.07 17.3,0 4.96,-1.078 9.26,-4.16 12.88,-9.25 3.63,-5.11 5.03,-12.481 4.23,-22.141 -0.55,-6.98 5.23,-10.461 17.31,-10.461 4.28,0.262 8.57,0.262 12.87,0 4.28,-0.269 9.39,-1.418 15.29,-3.43 5.9,-2.007 10.8,-4.886 14.69,-8.648 3.88,-3.762 7.04,-9.332 9.46,-16.699 2.41,-7.379 2.95,-16.031 1.61,-25.961 -6.44,-49.36 -9.39,-79.41 -8.86,-90.141 0.54,-20.379 7.51,-23.34 20.93,-8.847 9.39,9.918 18.31,25.679 26.76,47.277 8.46,21.601 14.55,40.711 18.31,57.351 l 5.24,24.95"
         style="fill:#111011;fill-opacity:1;fill-rule:nonzero;stroke:none"
         id="path98" /><path
         d="m 1453.98,298.66 c -5.1,1.602 -10.87,0 -17.31,-4.828 0.54,-1.082 1.61,-2.422 3.23,-4.031 2.13,-2.153 4.42,-3.762 6.83,-4.832 1.34,-1.078 2.82,-1.75 4.42,-2.008 3.23,-0.801 4.97,-1.199 5.24,-1.199 3.22,-0.813 6.43,-1.223 9.66,-1.223 -1.88,10.199 -5.9,16.242 -12.07,18.121 z m -29.79,-93.371 c 6.71,-2.148 13.82,0.609 21.33,8.25 7.51,7.652 13.28,17.91 17.3,30.781 1.08,3.231 2.15,7.508 3.23,12.879 -5.37,-0.527 -9.52,-0.668 -12.47,-0.398 -0.55,0 -1.42,0.058 -2.62,0.199 -1.21,0.141 -2.29,0.258 -3.22,0.41 -0.94,0.129 -1.81,0.328 -2.62,0.602 -1.88,0.269 -4.7,0.929 -8.45,2.019 -4.57,1.328 -9.26,3.75 -14.08,7.227 -1.61,1.082 -2.69,1.883 -3.22,2.433 -0.54,-1.351 -1.89,-4.703 -4.03,-10.07 -4.02,-12.871 -5.16,-24.621 -3.41,-35.211 1.73,-10.601 5.83,-16.969 12.26,-19.121 z m 131.2,101.82 4.83,-8.449 c -1.35,-1.078 -3.23,-2.422 -5.64,-4.019 -0.27,-0.282 -0.8,-0.61 -1.61,-1.02 -0.8,-0.402 -1.34,-0.73 -1.61,-1.012 l -3.61,-2.41 c -0.28,-0.258 -0.88,-0.668 -1.82,-1.199 -0.94,-0.551 -1.68,-0.949 -2.21,-1.211 -0.54,-0.269 -1.34,-0.801 -2.42,-1.609 -1.07,-0.801 -1.87,-1.352 -2.41,-1.61 -2.96,-1.351 -4.7,-2.281 -5.24,-2.808 -0.53,-0.551 -1.47,-1.153 -2.81,-1.821 -1.35,-0.671 -2.28,-1.14 -2.82,-1.41 -0.26,-0.269 -0.74,-0.601 -1.41,-1 -0.67,-0.402 -1.14,-0.613 -1.4,-0.613 l -1.61,-0.797 c -0.28,0 -0.54,-0.141 -0.8,-0.402 -0.28,-0.27 -0.55,-0.41 -0.82,-0.41 -1.07,-0.258 -2.14,-0.797 -3.21,-1.598 -1.08,-0.27 -2.16,-0.813 -3.22,-1.609 -2.96,-1.352 -7.65,-3.364 -14.08,-6.043 -4.04,-1.61 -9,-3.36 -14.9,-5.231 -0.81,-0.277 -1.95,-0.609 -3.41,-1.008 -1.49,-0.402 -2.49,-0.601 -3.03,-0.601 -0.8,-4.828 -2.01,-9.66 -3.61,-14.489 -6.71,-20.921 -18.12,-36.96 -34.21,-48.089 -16.11,-11.129 -32.34,-14.153 -48.7,-9.051 -16.37,5.078 -27.9,16.828 -34.6,35.211 -6.71,18.371 -6.71,38.148 0,59.359 6.7,20.918 18.1,36.949 34.2,48.09 16.1,11.121 32.33,14.141 48.7,9.051 10.99,-3.492 19.98,-10.531 26.96,-21.133 6.97,-10.586 11,-22.867 12.07,-36.809 h 1.21 c 6.7,1.332 11.26,2.27 13.68,2.813 2.14,0.258 6.57,1.469 13.28,3.617 1.61,0.539 2.68,0.941 3.22,1.211 1.61,0.531 2.67,0.801 3.22,0.801 l 1.61,0.801 c 0.26,0 0.53,0.066 0.8,0.207 0.27,0.14 0.54,0.199 0.81,0.199 0.27,0.273 0.73,0.531 1.41,0.801 0.66,0.269 1.13,0.402 1.4,0.402 l 6.04,2.43 c 1.61,0.519 3.35,1.199 5.23,2.007 2.14,1.063 3.75,1.743 4.83,2.012 2.15,1.059 3.62,1.738 4.43,2.008 0.27,0.273 0.87,0.602 1.81,1.012 0.94,0.398 1.54,0.73 1.81,1 l 3.62,1.199 6.04,3.23"
         style="fill:#111011;fill-opacity:1;fill-rule:nonzero;stroke:none"
         id="path100" /><path
         d="m 1619.37,323.199 c -4.83,0 -8.32,-4.09 -10.46,-12.269 -2.15,-8.192 -4.43,-20.731 -6.85,-37.629 -0.53,-4.289 -0.93,-7.512 -1.2,-9.66 16.36,22 24.81,39.039 25.35,51.109 0,5.641 -2.28,8.449 -6.84,8.449 z m 92.97,-18.91 6.83,-3.621 c -0.27,-1.609 -0.8,-3.828 -1.61,-6.637 -0.8,-2.82 -2.62,-8.25 -5.43,-16.301 -2.81,-8.039 -5.77,-15.691 -8.86,-22.941 -3.08,-7.238 -7.23,-15.289 -12.47,-24.148 -5.23,-8.852 -10.73,-16.493 -16.5,-22.942 -5.77,-6.429 -12.61,-11.859 -20.52,-16.301 -7.92,-4.418 -16.17,-6.64 -24.75,-6.64 -8.05,-0.528 -15.3,1.683 -21.73,6.64 -6.44,4.961 -10.87,10.133 -13.28,15.5 l -3.23,7.653 c -9.12,-31.121 -24.81,-46.281 -47.08,-45.481 -8.59,-0.261 -15.49,4.77 -20.72,15.102 -5.23,10.316 -8.52,23.937 -9.86,40.84 -1.35,16.898 -2.01,35.879 -2.01,56.937 0,21.071 0.86,42.332 2.61,63.789 1.74,21.461 3.23,42.051 4.43,61.782 1.21,19.71 2.27,36.41 3.22,50.089 0.94,13.692 0.6,23.34 -1.01,28.981 1.07,0.262 2.42,0.539 4.03,0.808 1.61,0.262 4.75,0.461 9.45,0.614 4.7,0.117 9.12,-0.082 13.28,-0.614 4.16,-0.546 8.72,-1.878 13.68,-4.019 4.96,-2.16 9.19,-5.039 12.68,-8.66 3.49,-3.617 6.24,-8.789 8.25,-15.489 2.01,-6.71 2.75,-14.492 2.22,-23.339 -4.57,-59.559 -7.39,-109.473 -8.46,-149.711 10.2,48.031 24.95,72.039 44.27,72.039 15.83,0 25.09,-7.789 27.77,-23.348 3.22,-18.242 -2.82,-39.031 -18.11,-62.371 -7.24,-10.73 -15.96,-20.672 -26.16,-29.781 0,-2.68 0.21,-5.571 0.61,-8.649 0.4,-3.101 1.27,-7.851 2.62,-14.289 1.33,-6.441 4.22,-11.672 8.65,-15.703 4.42,-4.019 9.85,-6.039 16.3,-6.039 9.92,0 19.44,3.633 28.56,10.871 9.12,7.25 16.71,16.102 22.75,26.57 6.03,10.461 11.39,20.918 16.09,31.379 4.69,10.469 8.12,19.321 10.26,26.571 l 3.23,10.859"
         style="fill:#111011;fill-opacity:1;fill-rule:nonzero;stroke:none"
         id="path102" /><path
         d="m 1777.93,298.66 c -5.1,1.602 -10.87,0 -17.3,-4.828 0.53,-1.082 1.61,-2.422 3.22,-4.031 2.14,-2.153 4.42,-3.762 6.84,-4.832 1.33,-1.078 2.82,-1.75 4.42,-2.008 3.22,-0.801 4.96,-1.199 5.23,-1.199 3.23,-0.813 6.44,-1.223 9.66,-1.223 -1.87,10.199 -5.9,16.242 -12.07,18.121 z m -29.78,-93.371 c 6.71,-2.148 13.82,0.609 21.33,8.25 7.5,7.652 13.28,17.91 17.3,30.781 1.07,3.231 2.15,7.508 3.22,12.879 -5.37,-0.527 -9.52,-0.668 -12.47,-0.398 -0.55,0 -1.41,0.058 -2.62,0.199 -1.21,0.141 -2.28,0.258 -3.22,0.41 -0.94,0.129 -1.8,0.328 -2.62,0.602 -1.87,0.269 -4.69,0.929 -8.44,2.019 -4.57,1.328 -9.26,3.75 -14.08,7.227 -1.62,1.082 -2.69,1.883 -3.23,2.433 -0.53,-1.351 -1.88,-4.703 -4.02,-10.07 -4.02,-12.871 -5.17,-24.621 -3.42,-35.211 1.74,-10.601 5.83,-16.969 12.27,-19.121 z m 131.2,101.82 4.82,-8.449 c -1.35,-1.078 -3.22,-2.422 -5.63,-4.019 -0.28,-0.282 -0.8,-0.61 -1.61,-1.02 -0.8,-0.402 -1.34,-0.73 -1.62,-1.012 l -3.61,-2.41 c -0.27,-0.258 -0.88,-0.668 -1.81,-1.199 -0.94,-0.551 -1.68,-0.949 -2.21,-1.211 -0.55,-0.269 -1.35,-0.801 -2.42,-1.609 -1.08,-0.801 -1.88,-1.352 -2.42,-1.61 -2.95,-1.351 -4.69,-2.281 -5.23,-2.808 -0.54,-0.551 -1.47,-1.153 -2.81,-1.821 -1.35,-0.671 -2.29,-1.14 -2.82,-1.41 -0.27,-0.269 -0.75,-0.601 -1.41,-1 -0.67,-0.402 -1.14,-0.613 -1.41,-0.613 l -1.61,-0.797 c -0.27,0 -0.54,-0.141 -0.8,-0.402 -0.27,-0.27 -0.55,-0.41 -0.81,-0.41 -1.07,-0.258 -2.15,-0.797 -3.21,-1.598 -1.09,-0.27 -2.16,-0.813 -3.23,-1.609 -2.95,-1.352 -7.64,-3.364 -14.08,-6.043 -4.03,-1.61 -8.99,-3.36 -14.89,-5.231 -0.81,-0.277 -1.95,-0.609 -3.42,-1.008 -1.48,-0.402 -2.49,-0.601 -3.03,-0.601 -0.8,-4.828 -2.01,-9.66 -3.61,-14.489 -6.71,-20.921 -18.11,-36.96 -34.21,-48.089 -16.1,-11.129 -32.33,-14.153 -48.7,-9.051 -16.37,5.078 -27.9,16.828 -34.6,35.211 -6.71,18.371 -6.71,38.148 0,59.359 6.7,20.918 18.11,36.949 34.2,48.09 16.1,11.121 32.33,14.141 48.7,9.051 11,-3.492 19.98,-10.531 26.96,-21.133 6.98,-10.586 11,-22.867 12.08,-36.809 h 1.21 c 6.7,1.332 11.26,2.27 13.68,2.813 2.14,0.258 6.56,1.469 13.28,3.617 1.6,0.539 2.67,0.941 3.21,1.211 1.61,0.531 2.68,0.801 3.22,0.801 l 1.62,0.801 c 0.26,0 0.52,0.066 0.8,0.207 0.26,0.14 0.53,0.199 0.81,0.199 0.26,0.273 0.73,0.531 1.4,0.801 0.67,0.269 1.14,0.402 1.41,0.402 l 6.03,2.43 c 1.62,0.519 3.35,1.199 5.24,2.007 2.14,1.063 3.75,1.743 4.82,2.012 2.15,1.059 3.63,1.738 4.44,2.008 0.26,0.273 0.87,0.602 1.8,1.012 0.94,0.398 1.55,0.73 1.82,1 l 3.61,1.199 6.05,3.23"
         style="fill:#111011;fill-opacity:1;fill-rule:nonzero;stroke:none"
         id="path104" /><path
         d="m 1902.68,373.508 c 8.05,11.801 13.14,25.351 15.29,40.652 v 2.008 c 0,1.613 0.07,3.141 0.21,4.633 0.12,1.461 0.12,3.48 0,6.027 -0.14,2.543 -0.35,5.094 -0.61,7.652 -0.27,2.54 -0.67,5.29 -1.21,8.239 -0.54,2.953 -1.14,5.84 -1.81,8.652 -0.67,2.828 -1.68,5.641 -3.01,8.457 -1.35,2.813 -2.83,5.434 -4.44,7.84 -2.41,-47.207 -3.88,-78.609 -4.42,-94.16 z m 99,-80.477 -2.01,-7.652 -73.25,15.691 c 4.56,-27.629 7.05,-52.922 7.45,-75.859 0.4,-22.941 -0.67,-41.652 -3.22,-56.141 -2.55,-14.48 -6.38,-27.289 -11.47,-38.429 -5.1,-11.129 -10.13,-19.379 -15.1,-24.75 -4.96,-5.36 -10.52,-9.8597 -16.69,-13.4808 -6.18,-3.6211 -10.6,-5.7696 -13.29,-6.4414 -2.68,-0.668 -5.09,-1.1407 -7.23,-1.4102 h -0.41 c -11.54,0.2695 -19.86,19.6604 -24.95,58.1524 -5.1,38.5 -7.17,82.559 -6.23,132.199 0.93,49.641 2.2,92.82 3.81,129.59 1.62,36.75 2.83,58.48 3.63,65.191 2.67,26.559 5.36,42.661 8.04,48.297 3.23,6.16 7.91,9.114 14.09,8.84 8.85,0 18.24,-3.359 28.17,-10.047 8.58,-5.64 15.56,-13.152 20.93,-22.543 7.24,-11.269 12.07,-25.359 14.49,-42.258 4.29,-28.968 0.8,-54.191 -10.47,-75.648 -4.3,-7.793 -9.66,-15.16 -16.09,-22.141 -3.5,-96.05 -4.03,-164.871 -1.61,-206.453 9.38,22 14.95,46.821 16.7,74.461 1.73,27.621 1.14,49.621 -1.81,65.992 l -4.43,24.95 c 9.92,-1.352 22.47,-3.692 37.62,-7.039 15.16,-3.364 27.83,-6.383 38.04,-9.051 l 15.29,-4.02"
         style="fill:#111011;fill-opacity:1;fill-rule:nonzero;stroke:none"
         id="path106" /><path
         d="m 2023.81,355.801 c -5.9,-5.903 -13.01,-8.852 -21.33,-8.852 -8.32,0 -15.43,2.949 -21.33,8.852 -5.89,5.898 -8.84,13.019 -8.84,21.328 0,8.32 2.95,15.43 8.84,21.32 5.9,5.903 13.01,8.86 21.33,8.86 8.32,0 15.43,-2.957 21.33,-8.86 5.9,-5.89 8.86,-13 8.86,-21.32 0,-8.309 -2.96,-15.43 -8.86,-21.328 z m 78.48,-59.961 11.67,-4.43 c -0.27,-0.269 -2.08,-4.16 -5.43,-11.672 -3.36,-7.519 -6.98,-15.359 -10.87,-23.539 -3.89,-8.179 -9.4,-17.508 -16.5,-27.969 -7.11,-10.46 -14.42,-19.66 -21.93,-27.57 -7.52,-7.91 -16.5,-14.551 -26.96,-19.922 -10.47,-5.367 -21.07,-7.91 -31.8,-7.648 -12.07,0.539 -21.12,5.441 -27.16,14.691 -6.04,9.258 -9.25,20.789 -9.66,34.61 -0.41,13.82 0.06,27.57 1.41,41.25 1.34,13.687 2.88,26.429 4.63,38.23 1.74,11.809 2.21,19.059 1.41,21.738 1.61,0.262 3.75,0.602 6.43,1.012 2.69,0.399 7.45,0.399 14.29,0 6.84,-0.41 12.67,-1.609 17.51,-3.633 4.82,-2.008 8.98,-5.84 12.47,-11.468 3.49,-5.641 4.56,-12.872 3.22,-21.731 -7.24,-49.098 -6.03,-75.531 3.63,-79.281 4.02,-1.61 9.52,0 16.49,4.832 8.58,5.898 17.65,15.762 27.17,29.582 9.52,13.816 16.96,26.09 22.33,36.816 l 7.65,16.102"
         style="fill:#111011;fill-opacity:1;fill-rule:nonzero;stroke:none"
         id="path108" /><path
         d="m 2163.46,290.199 c -1.61,0 -3.1,0 -4.43,0 -1.35,0 -3.42,-0.738 -6.24,-2.199 -2.82,-1.488 -5.3,-3.57 -7.45,-6.238 -2.14,-2.692 -4.42,-7.051 -6.83,-13.082 -2.42,-6.051 -4.3,-13.219 -5.64,-21.532 19.85,-1.347 33.27,5.082 40.25,19.313 1.06,2.41 1.86,5.301 2.41,8.648 0.54,3.352 -0.14,6.7 -2.01,10.059 -1.89,3.352 -5.24,5.031 -10.06,5.031 z m 83.3,1.61 8.05,-6.43 c -22.28,-41.59 -50.31,-73.391 -84.11,-95.379 -28.72,-18.781 -52.99,-25.078 -72.85,-18.922 -20.65,6.711 -29.77,26.16 -27.36,58.363 0.26,4.289 0.81,8.707 1.61,13.278 2.41,13.679 6.78,25.48 13.08,35.41 6.31,9.922 13.28,17.371 20.93,22.34 7.64,4.961 15.83,8.582 24.55,10.871 8.71,2.269 16.42,3.351 23.14,3.211 6.7,-0.141 12.34,-0.871 16.9,-2.211 5.89,-1.879 10.73,-5.168 14.49,-9.86 3.75,-4.699 5.9,-10.8 6.43,-18.308 0.54,-7.512 -2.14,-15.973 -8.04,-25.352 -9.4,-15.3 -26.84,-22.539 -52.32,-21.73 -2.96,-26.559 2.81,-38.781 17.31,-36.621 15.82,2.41 37.96,19.043 66.39,49.89 16.37,17.981 26.97,31.801 31.8,41.45"
         style="fill:#111011;fill-opacity:1;fill-rule:nonzero;stroke:none"
         id="path110" /><path
         d="m 2340.11,293.832 c 4.29,-3.23 7.51,-5.504 9.66,-6.844 0.26,1.34 0.74,3.75 1.4,7.242 0.68,3.481 1.15,6.168 1.42,8.04 0,0.539 0.06,1.281 0.2,2.218 0.13,0.942 0.2,1.543 0.2,1.821 0.26,0.8 0.4,2.14 0.4,4.019 0.54,2.41 0.54,4.82 0,7.242 0,5.371 -1.07,9.52 -3.22,12.481 -1.6,3.219 -4.02,5.23 -7.24,6.027 -3.22,0.801 -6.84,0.274 -10.87,-1.609 -3.76,-2.149 -6.43,-4.821 -8.04,-8.051 -1.35,-2.957 -1.62,-6.566 -0.81,-10.867 1.07,-4.02 3.35,-7.91 6.84,-11.672 2.41,-3.211 5.76,-6.57 10.06,-10.047 z m 82.5,0.809 8.05,-2.43 c 0,-0.531 -0.14,-1.34 -0.4,-2.41 -0.28,-1.071 -0.95,-3.082 -2.02,-6.031 -1.07,-2.961 -2.41,-5.508 -4.02,-7.649 -1.61,-2.152 -3.96,-4.762 -7.04,-7.851 -3.09,-3.09 -6.71,-5.102 -10.87,-6.04 -4.16,-0.929 -9.26,-1.742 -15.29,-2.41 -6.04,-0.672 -12.95,0.211 -20.72,2.621 -3.23,-12.882 -6.71,-23.89 -10.47,-33 -4.56,-10.742 -9.8,-20.261 -15.7,-28.57 -5.63,-7.793 -11.93,-14.762 -18.91,-20.93 -5.1,-4.3 -10.32,-8.05 -15.7,-11.269 -8.58,-5.363 -19.05,-9.121 -31.38,-11.274 -11.81,-1.867 -21.47,1.282 -28.98,9.461 -7.52,8.18 -12.67,19.981 -15.5,35.411 -2.81,15.421 -4.69,30.25 -5.63,44.48 -0.94,14.199 -1.41,29.629 -1.41,46.281 0,16.629 -0.13,27.078 -0.4,31.379 1.88,0.801 4.29,1.61 7.25,2.41 2.95,0.809 8.25,1.481 15.9,2.02 7.64,0.531 14.48,-0.141 20.52,-2.02 6.03,-1.871 11.8,-6.5 17.3,-13.871 5.5,-7.39 8.65,-17.25 9.46,-29.578 2.95,-38.91 6.44,-64.801 10.46,-77.68 4.56,4.02 8.86,8.457 12.88,13.278 5.64,6.98 10.32,14.359 14.08,22.14 4.29,8.59 8.05,18.11 11.27,28.582 0,0.52 0.27,1.598 0.81,3.207 -1.88,0.813 -6.84,3.762 -14.89,8.864 -5.11,3.75 -9.53,7.636 -13.28,11.668 -4.3,4.558 -7.92,10.191 -10.87,16.898 -0.8,2.141 -1.47,5.762 -2.01,10.863 0,3.489 0.66,7.508 2.01,12.079 2.68,7.5 7.79,13.41 15.29,17.699 7.25,4.562 15.3,6.301 24.16,5.242 4.28,-0.813 8.44,-2.422 12.47,-4.84 3.22,-2.141 6.29,-5.23 9.25,-9.25 1.88,-2.691 3.75,-6.441 5.64,-11.269 l 2.41,-10.864 c 0.26,-2.418 0.4,-5.91 0.4,-10.468 v -5.231 c -0.26,-1.34 -0.4,-2.949 -0.4,-4.828 -0.8,-8.59 -2.01,-16.902 -3.62,-24.949 1.07,-0.543 2.55,-1.141 4.42,-1.813 1.88,-0.668 5.3,-1.48 10.27,-2.418 4.96,-0.941 9.46,-1 13.48,-0.191 4.02,0.801 8.18,3.211 12.47,7.238 4.29,4.031 7.38,9.793 9.26,17.313"
         style="fill:#111011;fill-opacity:1;fill-rule:nonzero;stroke:none"
         id="path112" /></g></g></svg>
