<?xml version="1.0" encoding="UTF-8" standalone="no"?>
<!-- Created with Inkscape (http://www.inkscape.org/) -->

<svg
   version="1.1"
   id="svg2"
   xml:space="preserve"
   width="587.94666"
   height="713.37335"
   viewBox="0 0 587.94666 713.37335"
   xmlns="http://www.w3.org/2000/svg"
   xmlns:svg="http://www.w3.org/2000/svg"><defs
     id="defs6" /><g
     id="g8"
     transform="matrix(1.3333333,0,0,-1.3333333,0,713.37333)"><g
       id="g10"
       transform="scale(0.1)"><path
         d="m 1640.37,3149.52 c 43.1,0.57 88.18,0.15 126.37,-19.85 -11.91,32.14 -22.28,64.85 -31.06,97.98 -29.1,-10.25 -60.79,-8.84 -91.65,-8.93 -58.5,-0.17 -116.99,-6.22 -174.29,-18.03 -32.57,-6.71 -66.94,-16.6 -88.28,-42.09 -1.95,-2.32 -3.84,-4.91 -4.2,-7.92 -0.39,-3.17 0.95,-6.27 2.26,-9.18 3.26,-7.22 10.08,-33.23 16.76,-36.5 8.24,-4.04 19.8,5.96 28.02,9.76 22.36,10.34 46.07,17.5 70.15,22.54 48.02,10.05 97.06,11.19 145.92,12.22"
         style="fill:#5dcbf5;fill-opacity:1;fill-rule:nonzero;stroke:none"
         id="path12" /><path
         d="m 2821.54,3103.19 c 32.13,-7.63 65.23,-17.66 89.09,-40.48 0.51,41.96 -7.42,84.01 -23.18,122.89 -2.04,5.03 -4.63,10.44 -9.59,12.62 -3.02,1.32 -6.44,1.21 -9.72,1.08 -130.21,-5.18 -260.41,-10.36 -390.62,-15.55 -2.1,-0.08 -4.33,-0.2 -6.08,-1.38 -1.95,-1.31 -2.9,-3.65 -3.69,-5.86 -10.52,-29.26 -17.15,-68.51 -7.43,-98.77 24,0.55 57.34,23.87 82.21,30.55 30.55,8.21 62.02,12.67 93.58,14.24 62.29,3.1 124.89,-4.95 185.43,-19.34"
         style="fill:#5dcbf5;fill-opacity:1;fill-rule:nonzero;stroke:none"
         id="path14" /><path
         d="m 2296,2204.01 c 16.96,-43.26 8.92,-98.53 -27.86,-126.92 29.32,0.54 58.64,1.07 87.96,1.61 23.73,25.82 42.18,56.48 53.87,89.54 3.3,9.33 6.09,19.04 5.75,28.92 -0.5,14.37 -7.63,27.77 -16.57,39.04 -22.18,27.95 -81.51,66.61 -119.96,61.37 -69.53,-9.48 2.3,-56.54 16.81,-93.56"
         style="fill:#5dcbf5;fill-opacity:1;fill-rule:nonzero;stroke:none"
         id="path16" /><path
         d="m 3132.9,1586.09 c 46.89,104.99 80.01,216.12 98.25,329.65 2.93,18.3 6.01,37.81 18.38,51.6 7.92,8.82 18.81,14.29 29.42,19.55 33.35,16.53 66.69,33.06 100.03,49.58 1.95,-40.87 15.31,-97.43 7.37,-137.11 -7.41,-37.04 -42.75,-65.42 -67.9,-94.53 -54.87,-63.48 -151.6,-142.35 -185.55,-218.74"
         style="fill:#5dcbf5;fill-opacity:1;fill-rule:nonzero;stroke:none"
         id="path18" /><path
         d="m 1461.36,4633.45 c 100.9,35.6 201.29,72.63 301.13,111.08 9.62,3.7 19.75,7.81 25.87,16.1 5.82,7.91 6.95,18.22 7.88,28 5.56,58.51 11.13,117.02 16.69,175.53 -65.74,-16.28 -130.86,-35.05 -195.18,-56.27 -118.94,-39.24 -129.68,-162.44 -156.39,-274.44"
         style="fill:#5dcbf5;fill-opacity:1;fill-rule:nonzero;stroke:none"
         id="path20" /><path
         d="m 2835.43,4868.05 c 17.57,7.38 35.56,14.78 54.57,16.06 26.71,1.8 52.56,-8.6 77.25,-18.94 106.5,-44.6 219.84,-98.89 272.3,-201.75 -147.16,-15.87 -294.32,-31.75 -441.48,-47.62 -154.27,-16.64 -310.23,-33.66 -456.36,-85.86 -88.12,-31.33 -166.86,-18.83 -258.32,-10.09 102.17,58.04 206.98,93.16 311.2,145.4 144.62,72.52 291.68,140.16 440.84,202.8"
         style="fill:#5dcbf5;fill-opacity:1;fill-rule:nonzero;stroke:none"
         id="path22" /><path
         d="m 2534.85,2707.51 c -14.63,-8.53 -29.25,-17.06 -43.88,-25.59 -6.12,18.37 -58.67,119.1 -48.16,124.95 34.49,19.16 79.94,-106.42 92.04,-99.36"
         style="fill:#5dcbf5;fill-opacity:1;fill-rule:nonzero;stroke:none"
         id="path24" /><path
         d="m 1529.8,225.82 c 83.78,37.282 141.61,118.442 171.64,205.09 30.02,86.653 35.84,179.52 41.4,271.051 2.89,47.418 -56.9,63.371 -85.81,35.039 -32.51,-31.852 -45.48,-120.148 -58.1,-162.781 -17.1,-57.739 -31.5,-116.289 -43.14,-175.379 -3.91,-19.848 -14.45,-167.891 -25.99,-173.02"
         style="fill:#5dcbf5;fill-opacity:1;fill-rule:nonzero;stroke:none"
         id="path26" /><path
         d="m 1957.86,1354.13 c 4.94,-9.43 10.67,-19.77 20.76,-23.16 5.04,-1.7 10.5,-1.38 15.8,-1.03 100.47,6.48 200.93,12.96 301.4,19.44 -5.52,63.25 -20.32,125.68 -43.79,184.67 -1.79,4.49 -3.73,9.11 -7.26,12.41 -6.15,5.74 -15.43,6.11 -23.84,6.14 -53.29,0.22 -106.58,0.44 -159.86,0.66 -43.18,0.18 -116.73,14.2 -156.83,-2.15 -86.75,-35.38 27.07,-146.37 53.62,-196.98"
         style="fill:#b82327;fill-opacity:1;fill-rule:nonzero;stroke:none"
         id="path28" /><path
         d="m 3020.87,2353.51 c 29.42,188.48 84.35,371.9 139.12,554.63 6.91,23.04 13.84,46.16 23.85,68.03 28.26,61.74 81.55,111.58 145.04,135.65 -33.85,-12.84 -13.34,-200.38 -8.7,-229.41 8.92,-55.73 18.86,-88.56 -9.75,-140.42 -76.46,-138.57 -187.91,-267.9 -289.56,-388.48"
         style="fill:#b82327;fill-opacity:1;fill-rule:nonzero;stroke:none"
         id="path30" /><path
         d="m 3849.4,2799.42 c -47.32,13.87 -100.45,6.42 -142.13,-19.93 -40.29,-25.48 -68.38,-66.2 -105.32,-96.35 -14.51,-11.84 -30.82,-22.52 -40.21,-38.72 -10.88,-18.75 -29.12,-102.02 -4.14,-116.02 23.67,-13.28 85.34,55.6 102.32,70.78 20.5,18.33 180.54,202.86 189.48,200.24"
         style="fill:#b82327;fill-opacity:1;fill-rule:nonzero;stroke:none"
         id="path32" /><path
         d="m 3657.67,3545.23 c 10.25,-51.43 16.53,-103.65 18.78,-156.05 40.72,33.53 86.22,61.24 134.7,82.03 -18.15,-97.42 -36.29,-194.84 -54.44,-292.26 -4.71,-25.26 -9.6,-51.04 -22.19,-73.43 -37.32,-66.34 -128.14,-82.53 -176.45,-141.35 -5.54,12.61 -11.09,25.21 -16.63,37.82 -35.03,-54.69 -70.06,-109.38 -105.08,-164.06 -27.2,41.85 -23.56,96.05 -16.38,145.44 14.23,97.99 38.51,194.51 72.32,287.58 -36.52,-21.28 -70.33,-47.2 -100.36,-76.96 16.28,63.54 26.64,128.6 30.9,194.05 81.86,51.18 159.06,97.05 234.83,157.19"
         style="fill:#b82327;fill-opacity:1;fill-rule:nonzero;stroke:none"
         id="path34" /><path
         d="m 1606.25,3303.79 c 4.44,-4.86 9.01,-9.83 14.88,-12.82 21.31,-10.85 46.62,8.69 70.23,4.91 15.43,-2.47 27.37,-14.41 38.16,-25.72 32.77,-34.35 65.88,-69.18 89.13,-110.56 13.4,-23.86 23.32,-49.56 36.89,-73.32 29.15,-51.05 73.85,-91.08 117.77,-130.16 4.44,-3.96 11.11,-8.05 15.76,-4.33 1.84,1.48 2.71,3.82 3.49,6.05 7.53,21.33 15.06,42.66 22.59,63.98 3.84,10.87 7.73,22.19 6.49,33.65 -1.4,12.83 -9.01,24 -16.39,34.58 -62.59,89.71 -125.18,179.43 -187.77,269.14 -5.47,7.84 -11.33,16.01 -19.96,20.11 -8.26,3.92 -17.83,3.52 -26.97,3.03 -53.64,-2.84 -107.28,-5.69 -160.92,-8.53 -15.05,-0.8 -50.42,5.6 -51.17,-13.32 -0.62,-15.59 38.19,-46.17 47.79,-56.69"
         style="fill:#b82327;fill-opacity:1;fill-rule:nonzero;stroke:none"
         id="path36" /><path
         d="m 2411.44,3163.96 c 55.1,23.97 115.15,36.49 175.23,36.53 11.01,0.01 22.48,-0.3 32.46,4.37 6.46,3.02 11.81,7.93 17.11,12.72 79.67,72.03 170.34,131.88 267.89,176.83 -19.32,-9.66 -55.93,-7.78 -77.7,-10.8 -25.9,-3.6 -51.8,-7.21 -77.7,-10.81 -54.57,-7.59 -109.15,-15.17 -163.72,-22.76 -17.48,-2.43 -42.52,-1.01 -58.37,-9.62 -17.04,-9.26 -32.01,-35.61 -43.24,-50.74 -28.83,-38.88 -53.06,-81.16 -71.96,-125.72"
         style="fill:#b82327;fill-opacity:1;fill-rule:nonzero;stroke:none"
         id="path38" /><path
         d="m 1774,2834.97 c -9.27,-2.23 -9.09,-15.6 -5.7,-24.52 3.38,-8.92 7.2,-20.55 -0.11,-26.69 -1.87,-1.57 -4.22,-2.44 -6.51,-3.29 -63.14,-23.21 -126.27,-46.42 -189.4,-69.63 22.85,8.4 36.19,61.82 61.44,77.08 39.01,23.6 97.37,29.6 140.28,47.05"
         style="fill:#b82327;fill-opacity:1;fill-rule:nonzero;stroke:none"
         id="path40" /><path
         d="m 3157.46,1155.53 c -205.68,-69.93 -407.63,-150.85 -604.69,-242.288 43.72,20.289 95.48,113.088 129.55,149.848 47.45,51.19 96.71,100.79 147.87,148.28 50.5,46.9 69.31,60.27 132.22,32.52 65.35,-28.83 128.82,-61.29 195.05,-88.36"
         style="fill:#b82327;fill-opacity:1;fill-rule:nonzero;stroke:none"
         id="path42" /><path
         d="m 3169.58,3268.6 c -10.86,48.9 -146.7,331.43 -146.7,331.43 -266.23,-23.09 -808.2,-218.69 -808.2,-218.69 l -14.94,-150.77 25.81,-12.23 80.14,88.29 c 0,0 104.59,6.8 282.53,-5.43 177.94,-12.22 445.53,13.58 445.53,13.58 l 119.53,-59.76 16.3,13.58"
         style="fill:#111011;fill-opacity:1;fill-rule:nonzero;stroke:none"
         id="path44" /><path
         d="m 1566.84,3108.94 c 20.51,0 37.14,16.63 37.14,37.14 0,20.51 -16.63,37.13 -37.14,37.13 -20.51,0 -37.13,-16.62 -37.13,-37.13 0,-20.51 16.62,-37.14 37.13,-37.14"
         style="fill:#111011;fill-opacity:1;fill-rule:nonzero;stroke:none"
         id="path46" /><path
         d="m 1682.32,2778.77 c 0,0 38.1,40.51 23.81,66.71 0,0 -51.06,-10.72 -106.51,-29.77 -55.44,-19.06 -116.17,-15.48 -116.17,-15.48 9.53,-23.82 48.82,-48.83 94.08,-41.68 45.25,7.14 104.79,20.22 104.79,20.22"
         style="fill:#111011;fill-opacity:1;fill-rule:nonzero;stroke:none"
         id="path48" /><path
         d="m 2722.58,2757.31 c -1.43,10.17 -54.38,7 -108.76,8.43 -54.37,1.43 -125.92,42.32 -125.92,42.32 -28.62,33.73 -62.96,46.4 -62.96,46.4 l 41.49,-64.4 c 0,0 14.31,-38.63 120.21,-68.68 105.89,-30.05 137.37,25.76 135.94,35.93"
         style="fill:#111011;fill-opacity:1;fill-rule:nonzero;stroke:none"
         id="path50" /><path
         d="m 2676,3077.03 c 18.84,0 34.12,15.28 34.12,34.12 0,18.84 -15.28,34.12 -34.12,34.12 -18.85,0 -34.12,-15.28 -34.12,-34.12 0,-18.84 15.27,-34.12 34.12,-34.12"
         style="fill:#111011;fill-opacity:1;fill-rule:nonzero;stroke:none"
         id="path52" /><path
         d="m 2896,3004.1 c 2.2,3.1 38.4,53.4 37.2,81 l 26.4,-31.7 z m 9.5,-69.8 -285.2,-44.6 -33.7,21.7 278,32.5 95,71 z m -331.7,6 -84.7,74.6 c -37.3,67.4 0,151.6 0,151.6 0,0 31.8,-3.5 72,-6.1 -6.1,-17.7 -11.3,-42.1 -7,-68.5 8.4,-51.7 61.4,-113.1 168.5,-77 83.4,28.1 80,112.3 74.4,148.3 48.9,1.8 89.2,3.3 89.2,3.3 l 9.7,-95.1 -19.3,-42.1 c -24.1,-66.2 -98.7,-60.1 -154,-63.7 -55.3,-3.7 -148.8,-25.3 -148.8,-25.3 z m -129.3,107.4 -36,70.7 36.1,39.7 c -17.2,-46.2 -1.4,-105.5 -0.1,-110.4 z m 162.2,110.5 c 17,-0.5 34.1,-0.7 49.7,-0.1 27,0.9 67.4,2.4 106.8,3.8 -1.4,-34.4 -9.7,-108.4 -52.7,-127 -56.5,-24.5 -97.4,-6.8 -110.7,43.8 -8.4,32.3 -0.1,62.2 6.9,79.5 z M 2372.4,3045 c -6,15.6 16.9,40.1 16.9,40.1 l 8.4,-48.5 c 0,0 -19.3,-7.3 -25.3,8.4 z m 564.4,119.1 c -39.7,55.3 -51.8,54.2 -51.8,54.2 -51.7,-9.5 -351.3,2.4 -400.7,0 -49.3,-2.3 -75.8,-13.3 -99.6,-66.2 -23.9,-53 -56.8,-111.9 -30.3,-136 26.4,-24.1 60.5,0 60.5,0 0,0 39.3,-48.1 75.4,-92.1 36.1,-44 96.3,-69.5 96.3,-69.5 0,0 79.4,13.6 170.9,22 91.4,8.4 184.1,47.5 184.1,47.5 l 43.3,78.9 c 0,0 9.6,-12.1 34.9,-33.7 25.3,-21.7 27.7,15.6 27.7,15.6 0,0 -71,123.9 -110.7,179.3"
         style="fill:#111011;fill-opacity:1;fill-rule:nonzero;stroke:none"
         id="path54" /><path
         d="m 1384.88,1530.88 h 113.28 l 75.76,611.31 -35.24,17.62 -153.8,-628.93"
         style="fill:#111011;fill-opacity:1;fill-rule:nonzero;stroke:none"
         id="path56" /><path
         d="m 2718.15,1419.89 64.3,21.14 -128.61,718.78 c 0,0 35.24,-352.35 31.72,-429.86 -3.53,-77.51 32.59,-310.06 32.59,-310.06"
         style="fill:#111011;fill-opacity:1;fill-rule:nonzero;stroke:none"
         id="path58" /><path
         d="m 2264.59,1633.87 c 61.63,12.05 281.35,8.03 281.35,8.03 l 22.77,25.46 c -97.8,37.51 -396.57,45.55 -396.57,45.55 l -30.81,38.85 -54.93,-34.83 -151.39,54.93 v -45.55 l -318.87,-34.83 14.74,-30.82 c 0,0 57.94,-5.98 126.24,-12.41 15.93,-35.6 43.55,-93.19 59.99,-104.15 24.11,-16.08 151.39,-9.38 230.44,-4.02 79.04,5.36 316.18,-9.2 316.18,-9.2 l -21.44,45.38 c 0,0 -490.35,-13.4 -522.5,6.7 -17.25,10.78 -27.9,38.87 -34.11,62.63 53.1,-4.88 108.39,-9.58 145.31,-11.72 92.44,-5.36 271.97,-12.06 333.6,0"
         style="fill:#111011;fill-opacity:1;fill-rule:nonzero;stroke:none"
         id="path60" /><path
         d="m 2984.7,655.602 c -39.5,-33 -79.1,-64 -117.8,-91.704 C 2781,502.5 2694.1,434.699 2614.2,369.5 2422.1,212.902 2270.3,71.6016 2270.3,71.6016 L 2188.1,369.5 2097.3,698.801 c 25.1,-0.199 42.7,-0.199 49,-0.199 23.8,0 116.3,-15.403 191.3,28 32.1,18.597 104.5,77.597 176.9,138.898 52.3,16.801 144.8,48.199 254,92.199 49.5,19.903 128.7,52.501 216.2,88.601 213.4,88.2 476,197.8 476,197.8 l 38.6,-71.6 c 0,0 -255.9,-300.898 -514.6,-516.898 z M 2707.6,1033.5 c 0,0 194.1,179.1 277.1,256.8 10.1,9.5 18.6,17.5 24.9,23.5 57.4,54.6 114.2,116.3 137.3,160.4 23.1,44.2 70.1,223.6 101.6,323.1 10.7,33.6 28.9,103.1 48.3,180.3 16.3,6.9 35.5,15.5 55.9,25.9 l -75.5,-784.7 -292.5,-114 -351.5,-136.898 c 43.8,38.398 74.4,65.598 74.4,65.598 z m 669.8,1275.3 121.9,474.3 -0.2,0.3 c 49.8,58.7 158.5,181.6 216.1,209 76.3,36.2 150.7,74.4 202.2,-11.5 51.5,-85.8 26.7,-145 26.7,-145 0,0 -24.8,-103 -103,-169.8 0,0 64.8,121 61,188.4 -3.8,67.3 -43.9,113.1 -141.2,48.2 -97.3,-64.9 -261.6,-251.9 -261.6,-251.9 0,0 -30.3,-24.8 -16.9,-57.2 13.3,-32.4 40.1,-112.6 26.7,-133.6 -13.4,-20.9 -101.1,-93.4 -99.2,-122.1 1.9,-28.6 9.5,-146.9 9.5,-146.9 0,0 125.9,139.3 146.9,230.9 21,91.6 45.8,230.8 45.8,230.8 l 200.4,105 c 0,0 -28.7,-255.7 -106.9,-349.2 -78.2,-93.5 -116.4,-82 -183.1,-179.3 -57,-83 -134.7,-171.3 -215.5,-211 35,140.8 70.4,290.6 70.4,290.6 z m 83.5,1135.1 c 0,0 7.3,88.5 14.7,228.5 7.4,140.1 23.7,233.5 23.7,233.5 -32.5,263.5 37.8,339.1 37.8,339.1 l 31.9,-137.7 v -199 l -69.7,-499.1 -80.2,-179 z m 339.1,501.3 v -390.7 l -36.9,-221.2 -49.9,-147.4 -31.2,-91 -55.5,-34.9 94.8,260.1 22.2,268.8 z m -34.4,280.1 c 0,0 -14.8,-314.3 -98.3,-625.3 C 3583.7,3289.1 3456,2900.9 3456,2900.9 v 64.2 l 90.9,281.1 68.8,610.5 h 31.9 c 0,0 -27,331.7 0,471.8 l 27.1,-317 44.2,-9.8 -22.1,516 c 0,0 88.4,-86 103.2,-272.7 z m -371.1,378.4 c -54,51.6 -189.2,142.5 -189.2,142.5 0,0 -95.9,-19.3 -220.6,-44.6 -160,-32.3 -367.2,-74.4 -479.3,-97.9 -199.4,-41.8 -285.4,-86 -285.4,-86 0,0 -334.2,95.8 -395.6,181.8 0,0 12.3,275.2 319.4,555.4 0,0 518.5,78.6 761.8,0 30.6,-9.9 56.7,-18.9 79.1,-27.2 155.8,-57.5 132.8,-77.9 188.7,-90.8 63.9,-14.7 56.5,-61.4 147.4,-88.5 90.9,-27 277.6,-201.7 392.4,-179.3 0,0 167.9,-162.2 204.7,-466.9 36.9,-304.7 0,-550.4 0,-550.4 0,0 -7.4,579.9 -117.9,815.8 l -51.6,-9.8 29.5,-196.6 c 0,0 -81.1,108.1 -88.5,159.7 -7.4,51.6 -31.9,132.7 -145,196.6 0,0 -103.2,137.6 -221.1,142.5 l 4.9,-36.9 c 0,0 184.3,-90.9 240.8,-167.1 56.5,-76.1 59,-185.2 59,-185.2 0,0 -44.3,148.4 -208.9,219.6 -164.6,71.3 -307.1,125.4 -307.1,125.4 l -24.6,-22.2 c 0,0 162.2,-152.3 292.4,-196.5 130.2,-44.3 189.2,-164.7 189.2,-164.7 v -184.2 c 0,0 -120.4,203.9 -174.5,255.5 z M 2054.2,647.402 c 0,0 -55.9,-97.8 -85.3,-176.004 -8.5,-22.699 -44.6,-60.199 -92.9,-101.898 -118,-101.898 -309.2,-229.301 -351.6,-229.301 0,0 97.5,129.102 163.6,229.301 27.5,41.898 49.6,78.699 56.8,98.902 24.2,68.598 12.6,241.399 12.6,241.399 10.4,-1.199 21.6,-2.102 33.7,-2.801 89.7,-5 191.2,-7.098 263.1,-7.898 z M 1761.6,3078.8 c 11.9,20.3 12.6,60.3 12.6,60.3 l 24.6,-41.4 z m -387.9,50.3 c 1.8,-9.9 4.2,-22.9 6.1,-34.2 3.5,-21.8 22.4,-53.2 65.1,-88.3 42.8,-35 82.7,-42.7 104.4,-41.3 21.8,1.4 75.7,28.7 98.1,34.3 22.4,5.6 50.5,0 50.5,0 0,0 26.6,7 60.2,29.5 33.7,22.4 58.2,44.1 58.2,44.1 0,38.6 -35.4,102.1 -54.2,133.1 0.1,0 0.2,0 0.2,0 l -4.2,23.9 c 0,0 47.7,-65.2 71.5,-126.2 23.8,-60.9 16.1,-64.4 0,-64.4 -16.1,0 -27.3,0 -27.3,0 l -73.6,-61 c 0,0 -120.5,-23.1 -193.4,-23.1 -72.9,0 -88.3,11.9 -88.3,11.9 l -92.5,136.6 c 0,0 8.3,11.2 19.2,25.1 z m 50.9,52.7 c 3,0.3 20.7,1.6 46.3,3.5 -4.9,-18.2 -9.2,-42.6 -4.3,-63.7 9.2,-39.3 70.1,-81.3 114.3,-77.8 44.1,3.5 74.2,24.5 81.2,70.7 4.8,31.4 -8.8,65 -18.1,83.4 36.7,2.6 69.7,5 91.5,6.5 6,-12.2 13.3,-32.2 14.9,-59 2.8,-47 -18.9,-84.8 -18.9,-84.8 0,0 -149.2,-46.3 -203.9,-55.4 -54.6,-9.1 -90.4,33 -107.2,52.6 -15.1,17.6 -22.3,54.8 -32,89.5 14.6,17.6 29.8,33.9 36.2,34.5 z m 74.7,5.6 c 37.6,2.7 84.2,6.1 127.7,9.2 9.9,-40.9 4.8,-104.8 -37.7,-117.8 -48.4,-14.7 -86.9,10.5 -98.8,47 -7,21.4 1,45.4 8.8,61.6 z m 268.6,1598.1 c 0,0 -346.5,-98.3 -437.4,-226 l 2.5,54 -118,-95.8 c 0,0 115.5,312.1 479.2,346.5 l -118,-98.3 208.9,46.7 z m 1693.5,-3338.6 24,647.5 c 9.2,8.9 17.8,18.2 25.6,27.9 85.9,106.9 99.2,148.9 99.2,148.9 0,0 169.8,70.6 190.8,232.7 0,0 209.9,200.4 206.1,358.7 -3.6,147.4 -86.5,227 -187.2,237.3 22,119.3 170.6,931.4 187.2,1147.5 18,233.4 -194.8,678.2 -194.8,678.2 0,0 -472.9,282.4 -827.6,380.2 -21.1,5.8 -41.8,11 -61.9,15.4 -97.3,21.3 -197.3,29.1 -291.4,29.1 -252.9,0 -463,-56.1 -463,-56.1 -123.9,-49.9 -208.3,-145.7 -265.6,-247.5 -178.6,-51.6 -171.4,-83.6 -338.9,-149.3 -172,-67.6 -243.2,-121.7 -371,-326.6 -79.8,-127.9 -105.9,-238.5 -115.5,-371 -5.7,-79.8 -5.5,-167.5 -7.4,-271.8 -4.9,-277.7 98.3,-393.2 98.3,-393.2 56.5,-98.3 35.8,-297.4 35.8,-297.4 l 31.2,-19.1 108.7,97.8 c 131.8,39.4 622.1,2.8 622.1,2.8 l 61.1,-85.6 c 0,0 13.6,-10.9 28.6,0 14.9,10.9 0,182 0,182 l -36.7,36.7 c 0,0 -114.1,24.4 -202.4,24.4 -88.3,0 -249.9,-16.3 -319.2,-24.4 -69.3,-8.2 -167.1,6.8 -201,-24.5 -14.7,-13.5 -33.9,-50.7 -51,-88.7 l 8.8,90.4 c 0,0 -34.4,164.6 -95.8,280.1 -61.4,115.5 -44.2,203.9 -4.9,434.8 3.3,19.6 7,38.2 11.2,55.7 44.4,188.5 136.9,261.8 329,371 152.2,86.5 252.2,121.7 295.7,134.5 -3.3,-22.3 -4.4,-35.3 -4.4,-35.3 0,0 51.6,-63.8 218.7,-132.6 167.1,-68.8 270.3,-59 270.3,-59 147,42.5 494.3,67.5 710.6,79.6 109.1,6.1 184.9,8.8 184.9,8.8 l 158.6,-63.8 c 0,0 100.7,-398.1 105.6,-562.7 5,-164.7 9.9,-410.4 0,-463.9 -9.8,-53.5 -172.4,-454 -172.4,-454 0,0 23.3,-190 133.3,-300 l -253.3,-1053.3 -120,493.3 60,480 c 0,0 133.3,319 126.7,401.2 l -223.4,-297.8 v -536.7 l 66.7,-403.3 -66.7,-406.5 -6.6,-40.2 c 0,0 -286.7,-263.3 -393.4,-366.698 -106.6,-103.3 -236.6,-246.601 -420,-243.3 -183.3,3.3 -376.6,-3.301 -376.6,-3.301 0,0 -150,23.301 -200,150 -50,126.599 -286.7,653.299 -286.7,653.299 0,0 33.8,281.5 58.6,395.9 24.4,112.7 78.4,508.3 80,520.6 l -69.3,-137.1 c 0,0 2.7,347.3 38.9,387.3 0,0 -7.2,11.7 -17.4,30 -21.7,39 -56.8,108.3 -64.6,158.9 -6.5,42.2 1.2,122.3 15.6,192.4 3.3,-11.8 9.8,-30.2 22.6,-58.2 28,-61.7 79.1,-98.1 79.1,-98.1 0,0 32.3,-16.8 125.4,-16.8 93.2,0 186.4,25.9 186.4,25.9 0,0 13.3,11.9 33.7,41.3 20.3,29.5 41.3,28.1 41.3,28.1 0,0 -2.8,-26 32.9,-7.1 35.8,19 -9.8,90.4 -28.7,131.8 -18.9,41.3 -48.3,92.5 -65.2,100.2 -16.8,7.7 -84.7,-9.1 -84.7,-9.1 0,0 -258.6,-13.3 -283.8,-24.6 l -50.4,-76.4 c 9.7,37.5 21.2,68.8 33.1,84.2 59.1,56.7 377.3,59.8 474.7,43.2 l 148.3,-231.1 c 0,0 -84.3,-123.8 -163.2,-284.6 -41.7,-84.9 -82,-180.2 -107.4,-273.1 -73.6,-268.5 -82.9,-365.9 15.6,-418.8 0,0 37.3,-31.1 73.6,-31.1 36.2,0 484.1,30.1 484.1,30.1 0,0 67.3,3.1 94.3,73.6 26.9,70.4 2.1,154.4 -102.6,176.2 -104.7,21.7 -181.4,11.4 -206.3,-50.8 -24.9,-62.2 40.4,-60.1 49.7,-17.6 9.4,42.5 33.5,69.8 130.6,52.8 97.2,-16.9 114.1,-75.6 106.8,-111.9 -7.2,-36.3 -20.7,-89.2 -118.2,-86.1 -97.4,3.2 -451.9,-4.1 -451.9,-4.1 0,0 -59.1,205.2 -3.1,384.6 23.9,76.5 61.5,176.3 103,276.2 55.8,133.9 119,267.9 166.5,345.7 0,0 -79.8,86.1 -115.1,108.9 -35.2,22.8 -100.5,118.1 -100.5,118.1 0,0 -141,6.2 -249.8,-6.2 -108.9,-12.4 -229.1,-34.2 -229.1,-34.2 0,0 -21.3,-32.5 -40.2,-77.4 -18.9,-44.8 -53.9,-204.6 -56,-227.7 -2.1,-23.1 7,-117.6 31.5,-164.9 12.3,-23.8 20.9,-46.1 26.4,-62.3 5.4,-16.2 7.9,-26.4 7.9,-26.4 0,0 -2.1,-219.4 -11.2,-320.2 -9.1,-100.9 -19.6,-193.4 9.1,-194.1 0,0 -24.5,-152.1 -41.3,-240.4 -16.8,-88.3 -39.2,-229.8 -41.3,-252.2 -2.1,-22.4 -6.3,-151.4 16.1,-253.7 22.4,-102.3 85.5,-309.7 151.3,-430.2 65.9,-120.498 143.7,-218.6 164,-242.401 16.6,-19.5 33.3,-54.5 120.6,-71.199 24.4,-130.098 -78.1,-306.301 -78.1,-306.301 L 1620.9,369.5 1443.8,65.6992 C 1598,96.1016 1804.3,267.102 1914.4,369.5 c 41.2,38.301 68.9,66.898 75.4,75.102 23.9,29.8 64.4,161.097 64.4,161.097 L 2130.3,369.5 2249.4,0 c 0,0 203.1,189 417.8,369.5 111.7,93.902 226.6,185.5 317.5,247 0.5,0.402 1.1,0.699 1.6,1.102 103,69.398 210.4,169.8 303.4,266.699 94.9,19.301 314.2,59 427.4,39.898 146.9,-24.797 692.5,-49.597 692.5,-49.597 L 3461.4,1446.9"
         style="fill:#111011;fill-opacity:1;fill-rule:nonzero;stroke:none"
         id="path62" /><path
         d="m 2505.38,4982.11 c -120.04,-2.46 -391.04,-93.38 -391.04,-93.38 49.14,-71.26 287.49,-76.17 287.49,-76.17 0,0 250.63,29.49 366.12,51.6 115.49,22.11 111.39,71.26 111.39,71.26 -208.04,-17.2 -253.91,49.14 -373.96,46.69"
         style="fill:#111011;fill-opacity:1;fill-rule:nonzero;stroke:none"
         id="path64" /><path
         d="m 3264.3,5023.88 c 0,0 -152.34,78.63 -302.23,110.57 -149.89,31.94 -375.95,-31.94 -375.95,-31.94 19.66,-68.8 167.09,-39.73 167.09,-39.73 81.08,-81.49 287.49,-38.9 287.49,-38.9 l 206.4,-41.71 17.2,41.71"
         style="fill:#111011;fill-opacity:1;fill-rule:nonzero;stroke:none"
         id="path66" /><path
         d="m 2675.7,3119.35 c 0,-4.53 -3.67,-8.2 -8.2,-8.2 -4.53,0 -8.2,3.67 -8.2,8.2 0,4.52 3.67,8.19 8.2,8.19 4.53,0 8.2,-3.67 8.2,-8.19"
         style="fill:#ffffff;fill-opacity:1;fill-rule:nonzero;stroke:none"
         id="path68" /><path
         d="m 1568.09,3158.1 c 0,-6.64 -5.38,-12.02 -12.02,-12.02 -6.64,0 -12.02,5.38 -12.02,12.02 0,6.64 5.38,12.02 12.02,12.02 6.64,0 12.02,-5.38 12.02,-12.02"
         style="fill:#ffffff;fill-opacity:1;fill-rule:nonzero;stroke:none"
         id="path70" /><path
         d="m 277.273,966.52 c -5.371,-126.629 -2.011,-193.028 10.059,-199.2 -2.148,-5.898 -8.113,-11.261 -17.898,-16.101 -9.805,-4.821 -18.586,-7.508 -26.368,-8.039 -8.32,-0.539 -15.226,1.941 -20.722,7.441 -5.5,5.488 -9.328,13.609 -11.465,24.34 -2.16,10.73 -3.625,22.34 -4.434,34.82 -0.8,12.469 -0.605,26.961 0.606,43.461 1.211,16.5 2.41,31.52 3.621,45.067 1.211,13.55 2.746,28.582 4.629,45.07 1.875,16.5 3.078,29.184 3.625,38.043 0.535,5.359 -0.676,8.848 -3.625,10.457 -2.957,1.613 -6.375,1.402 -10.262,-0.609 -3.898,-2.008 -7.043,-4.758 -9.453,-8.239 -1.074,-1.609 -1.75,-2.82 -2.012,-3.621 -3.496,-5.64 -6.308,-11.148 -8.457,-16.508 -4.824,-11 -8.996,-24.691 -12.472,-41.043 -2.149,-10.207 -3.622,-17.98 -4.434,-23.339 -1.602,-8.059 -2.813,-16.239 -3.613,-24.551 l -3.621,-25.77 c 0,-1.328 -0.274,-3.609 -0.813,-6.828 0,-0.269 -0.137,-0.812 -0.398,-1.609 -0.274,-0.801 -0.403,-1.481 -0.403,-2.012 0,-0.281 -0.273,-0.949 -0.808,-2.02 0,-0.8 -0.137,-1.339 -0.403,-1.609 -0.261,-0.269 -0.398,-0.531 -0.398,-0.801 l -0.402,-0.398 -0.399,-0.41 v -0.403 l -0.812,-0.796 c -0.536,-0.551 -1.075,-0.954 -1.61,-1.211 -0.539,-0.543 -1.34,-0.801 -2.414,-0.801 h -0.801 -1.609 c -0.547,0.258 -1.211,0.531 -2.012,0.801 l -0.402,0.398 c -0.547,0 -0.809,0.141 -0.809,0.402 l -1.203,1.207 c -0.273,0 -0.547,0.262 -0.808,0.813 l -0.403,0.797 v 0.402 c -0.273,0.27 -0.398,0.539 -0.398,0.809 -0.547,1.07 -0.949,1.742 -1.211,2.011 0,0.27 -0.07,0.598 -0.207,1.008 -0.137,0.403 -0.195,0.731 -0.195,1.012 -1.075,3.211 -1.746,5.48 -2.012,6.828 -0.274,1.883 -0.742,4.293 -1.406,7.25 -0.672,2.953 -1.153,5.102 -1.414,6.43 -0.266,1.34 -0.598,3.492 -1.008,6.453 -0.399,2.949 -0.742,5.219 -1.004,6.84 -0.539,2.679 -1.27,7.039 -2.207,13.078 -0.949,6.039 -1.68,10.672 -2.219,13.879 -0.535,2.683 -1.277,7.043 -2.215,13.082 -0.937,6.039 -1.679,10.519 -2.207,13.48 -0.273,1.61 -0.742,3.891 -1.418,6.848 -0.664,2.953 -1.14,5.082 -1.406,6.43 -0.801,3.492 -1.875,7.652 -3.211,12.472 -0.547,-1.601 -0.812,-2.551 -0.812,-2.812 -0.274,-0.797 -0.606,-1.879 -1.004,-3.219 -0.403,-1.348 -0.743,-2.281 -1.008,-2.82 l -1.211,-6.028 c -0.535,-1.351 -1.074,-3.363 -1.602,-6.043 -2.683,-14.218 -5.234,-30.179 -7.644,-47.89 -0.547,-3.758 -1.211,-8.649 -2.012,-14.68 -0.812,-6.047 -1.484,-11.418 -2.012,-16.109 -0.547,-4.688 -1.086,-9.051 -1.613,-13.071 -2.957,-23.617 -4.4335,-35.82 -4.4335,-36.617 L 92.5586,774.16 c 0,-0.539 -0.0703,-1.398 -0.1953,-2.621 -0.1485,-1.207 -0.3438,-2.078 -0.6055,-2.609 -0.5469,-2.688 -0.8125,-4.43 -0.8125,-5.231 -0.2617,-0.539 -0.8008,-3.09 -1.6094,-7.64 0,-1.348 -0.1367,-2.289 -0.4023,-2.829 v -0.398 c -1.875,-8.852 -6.1719,-15.953 -12.8711,-21.32 -6.7187,-5.371 -13.0156,-8.793 -18.9141,-10.27 -5.9101,-1.472 -11.8164,-2.222 -17.7148,-2.222 -9.6602,-0.258 -17.4414,4.91 -23.3398,15.5 -5.8985,10.601 -9.66021,24.492 -11.26177,41.652 -1.60937,17.168 -2.42187,36.617 -2.42187,58.348 0,21.742 1.00781,43.671 3.01953,65.8 2.01172,22.141 3.75781,43.321 5.23441,63.59 1.4726,20.25 2.7422,37.56 3.8281,51.91 1.0625,14.35 0.6641,24.75 -1.2109,31.19 1.0625,0.27 2.5468,0.54 4.4218,0.8 1.875,0.27 5.4414,0.54 10.6641,0.81 5.2344,0.27 10.1953,0.06 14.8945,-0.6 4.6875,-0.67 9.8633,-2.22 15.4961,-4.63 5.625,-2.41 10.3906,-5.63 14.2774,-9.66 3.8867,-4.02 6.9843,-9.79 9.2578,-17.3 2.2773,-7.52 3.0195,-16.37 2.2187,-26.571 -3.2226,-36.75 -5.2344,-78.207 -6.0351,-124.347 0.8007,2.679 1.8047,6.5 3.0156,11.468 1.2031,4.961 2.0703,8.52 2.6172,10.668 2.6758,10.192 4.8242,17.973 6.4375,23.344 0.5351,2.668 1.6094,6.699 3.2226,12.067 l 3.6211,12.48 c 0,0.543 0.1953,1.543 0.5977,3.02 0.4101,1.472 0.7422,2.613 1.0039,3.41 1.0738,2.683 1.7498,4.703 2.0118,6.043 0.539,1.609 1.348,3.758 2.422,6.437 0.801,2.422 1.738,4.692 2.812,6.84 0.539,1.613 1.075,2.82 1.614,3.621 0.261,0.809 0.937,2.02 2.011,3.629 l 2.012,2.012 c 1.074,1.07 2.012,1.871 2.82,2.41 0.801,0.809 1.739,1.211 2.813,1.211 0.265,0.258 0.937,0.398 2.012,0.398 h 0.812 0.801 c 1.336,0 2.547,-0.269 3.621,-0.8 1.066,-0.551 1.875,-1.071 2.414,-1.61 1.074,-0.808 1.875,-1.609 2.41,-2.41 0.539,-0.551 1.074,-1.348 1.613,-2.418 0.536,-1.082 1.075,-2.422 1.61,-4.031 1.34,-2.68 2.148,-4.961 2.414,-6.832 1.875,-7.25 2.949,-11.817 3.223,-13.688 0.535,-3.222 1.335,-7.789 2.41,-13.679 1.074,-6.18 2.414,-15.161 4.023,-26.973 0.266,-1.34 0.606,-3.547 1.008,-6.629 0.41,-3.098 0.742,-5.437 1.004,-7.051 0.265,-1.597 0.605,-3.89 1.008,-6.84 0.41,-2.957 0.742,-5.089 1.004,-6.437 l 1.21,-9.66 c 0.266,1.347 0.606,3.09 1.008,5.23 0.399,2.149 0.606,3.758 0.606,4.84 l 3.621,24.949 c 0.527,4.551 2.012,12.61 4.426,24.141 0.535,2.148 1.406,5.769 2.617,10.867 1.211,5.09 2.215,8.981 3.015,11.672 3.75,10.988 6.172,17.84 7.247,20.531 1.875,5.36 4.824,11.52 8.847,18.5 2.949,5.36 6.711,10.598 11.27,15.688 4.562,4.57 8.859,7.92 12.883,10.07 l 0.398,0.4 c 0.539,0 0.812,0.13 0.812,0.4 4.286,2.15 9.247,3.75 14.883,4.84 0.535,0 0.938,0.13 1.211,0.4 1.336,0.26 3.223,0.53 5.633,0.8 2.414,0.26 6.699,0.07 12.871,-0.61 6.172,-0.67 11.602,-2.27 16.301,-4.82 4.695,-2.56 9.062,-7.31 13.086,-14.289 4.023,-6.98 6.16,-15.691 6.433,-26.16 v -1.199 -0.813 -0.398 -4.031"
         style="fill:#111011;fill-opacity:1;fill-rule:nonzero;stroke:none"
         id="path72" /><path
         d="m 330.391,838.152 c -0.539,-13.691 5.234,-18.511 17.304,-14.492 9.657,3.481 19.578,10.731 29.785,21.731 1.063,10.199 2.012,17.839 2.813,22.941 -4.289,0 -8.652,-0.34 -13.078,-1 -4.422,-0.68 -9.656,-1.891 -15.692,-3.633 -6.035,-1.75 -11.007,-4.82 -14.894,-9.258 -3.887,-4.421 -5.977,-9.851 -6.238,-16.289 z m 185.925,39.438 h 13.282 c -1.075,-3.758 -2.684,-8.649 -4.832,-14.688 -2.149,-6.043 -6.973,-16.781 -14.485,-32.203 -7.519,-15.429 -15.566,-29.109 -24.148,-41.039 -8.586,-11.941 -19.992,-22.738 -34.199,-32.398 -14.231,-9.66 -28.985,-14.492 -44.266,-14.492 -9.934,0 -17.648,3.562 -23.148,10.671 -5.497,7.098 -8.79,15.622 -9.864,25.551 -1.074,9.93 -1.199,22.129 -0.398,36.629 -18.781,-18.262 -38.633,-25.629 -59.563,-22.141 -13.144,2.411 -21.601,8.981 -25.351,19.711 -3.75,10.739 -2.879,22.27 2.617,34.61 5.5,12.347 14.016,22.14 25.559,29.39 19.043,11.801 40.644,15.688 64.785,11.668 0.808,12.332 0.535,21.332 -0.801,26.961 1.062,0.27 2.414,0.532 4.023,0.801 1.61,0.27 4.754,0.469 9.453,0.609 4.696,0.122 9.122,-0.07 13.282,-0.609 4.16,-0.531 8.718,-1.879 13.679,-4.019 4.961,-2.153 9.192,-5.032 12.688,-8.653 3.476,-3.629 6.23,-8.789 8.242,-15.5 2.012,-6.707 2.617,-14.617 1.817,-23.738 -4.024,-55.813 -0.95,-83.852 9.257,-84.109 4.024,-0.27 8.985,2.949 14.883,9.66 10.731,12.078 20.059,25.418 27.969,40.039 7.91,14.621 13.211,26.219 15.898,34.808 l 3.621,12.481"
         style="fill:#111011;fill-opacity:1;fill-rule:nonzero;stroke:none"
         id="path74" /><path
         d="m 724.773,878.789 8.848,0.813 c 4.024,-0.27 5.5,-2.282 4.434,-6.032 0,-0.281 -0.672,-3.3 -2.012,-9.07 -1.348,-5.77 -2.75,-11.668 -4.227,-17.699 -1.476,-6.039 -3.828,-13.621 -7.043,-22.738 -3.222,-9.122 -6.582,-17.704 -10.058,-25.754 -3.496,-8.047 -7.988,-16.379 -13.485,-24.95 -5.5,-8.589 -11.339,-15.898 -17.511,-21.929 -6.172,-6.039 -13.477,-11.008 -21.922,-14.899 -8.457,-3.883 -17.383,-5.84 -26.77,-5.84 -25.75,0 -38.367,22.539 -37.832,67.618 -13.679,-21.2 -31.121,-31.258 -52.312,-30.18 -12.07,0.531 -21.125,5.43 -27.16,14.684 -6.043,9.257 -9.258,20.789 -9.657,34.609 -0.41,13.82 0.059,27.57 1.407,41.25 1.336,13.68 2.879,26.43 4.629,38.238 1.738,11.789 2.207,19.039 1.406,21.719 1.609,0.269 3.75,0.613 6.433,1.012 2.688,0.398 7.454,0.398 14.289,0 6.844,-0.399 12.676,-1.61 17.508,-3.621 4.825,-2.008 8.985,-5.829 12.473,-11.469 3.484,-5.629 4.559,-12.879 3.223,-21.738 -6.985,-49.094 -7.383,-76.192 -1.211,-81.293 3.757,-2.938 9.922,0 18.515,8.859 8.309,8.59 14.285,20.66 17.91,36.223 3.622,15.558 5.157,28.98 4.629,40.25 l -0.812,16.89 c 1.078,0.27 2.422,0.539 4.023,0.809 1.614,0.269 4.766,0.461 9.465,0.609 4.688,0.121 9.11,-0.078 13.281,-0.609 4.149,-0.539 8.778,-1.879 13.875,-4.02 5.098,-2.16 9.329,-5.031 12.688,-8.652 3.348,-3.629 6.094,-8.797 8.242,-15.5 2.149,-6.707 2.82,-14.629 2.012,-23.738 -0.539,-7.25 -1.477,-17.309 -2.813,-30.192 -2.961,-31.929 -3.222,-50.039 -0.812,-54.32 2.949,-4.57 9.394,-1.078 19.316,10.461 8.86,10.461 16.367,24.082 22.539,40.84 6.172,16.769 10.059,30.922 11.672,42.472 l 2.82,16.887"
         style="fill:#111011;fill-opacity:1;fill-rule:nonzero;stroke:none"
         id="path76" /><path
         d="m 868.836,863.91 8.859,0.399 c 3.75,-0.809 5.086,-2.957 4.024,-6.45 0,-0.257 -0.949,-3.609 -2.824,-10.058 -1.875,-6.43 -3.887,-13.41 -6.036,-20.922 -2.148,-7.508 -5.234,-16.699 -9.257,-27.559 -4.024,-10.871 -8.25,-21.269 -12.676,-31.191 -4.422,-9.938 -9.852,-19.988 -16.297,-30.188 -6.438,-10.191 -13.078,-18.921 -19.922,-26.152 -6.836,-7.25 -14.687,-13.09 -23.535,-17.508 -8.859,-4.429 -17.981,-6.371 -27.375,-5.84 -7.234,0.27 -13.281,2.618 -18.106,7.051 -4.832,4.418 -8.183,10.528 -10.058,18.309 -1.883,7.781 -3.086,16.09 -3.621,24.949 -0.547,8.852 -0.207,19.172 1.004,30.992 1.203,11.789 2.48,22.457 3.82,31.988 1.336,9.52 2.879,20.192 4.629,31.989 1.746,11.812 3.015,20.933 3.828,27.371 -16.906,0.262 -30.254,1.812 -40.051,4.621 -9.793,2.828 -16.023,6.371 -18.711,10.668 -2.683,4.293 -4.363,9.121 -5.027,14.492 -0.676,5.359 -0.402,10.93 0.809,16.699 1.203,5.762 0.734,11.461 -1.415,17.102 1.61,0.808 3.692,1.609 6.239,2.41 2.551,0.809 7.109,1.75 13.683,2.82 6.571,1.067 12.332,1.067 17.305,0 4.961,-1.07 9.258,-4.16 12.879,-9.25 3.625,-5.101 5.031,-12.472 4.23,-22.132 -0.546,-6.989 5.223,-10.469 17.305,-10.469 4.285,0.258 8.574,0.258 12.871,0 4.285,-0.281 9.395,-1.41 15.293,-3.422 5.899,-2.008 10.801,-4.899 14.688,-8.649 3.886,-3.761 7.039,-9.328 9.461,-16.699 2.414,-7.379 2.949,-16.039 1.613,-25.961 -6.445,-49.359 -9.395,-79.422 -8.86,-90.14 0.54,-20.399 7.512,-23.34 20.93,-8.86 9.383,9.93 18.309,25.692 26.758,47.282 8.457,21.589 14.551,40.718 18.309,57.359 l 5.234,24.949"
         style="fill:#111011;fill-opacity:1;fill-rule:nonzero;stroke:none"
         id="path78" /><path
         d="m 902.234,933.531 c -5.898,-5.91 -13.007,-8.859 -21.328,-8.859 -8.32,0 -15.429,2.949 -21.328,8.859 -5.898,5.899 -8.848,13 -8.848,21.321 0,8.32 2.95,15.418 8.848,21.328 5.899,5.902 13.008,8.859 21.328,8.859 8.321,0 15.43,-2.957 21.328,-8.859 5.899,-5.91 8.86,-13.008 8.86,-21.328 0,-8.321 -2.961,-15.422 -8.86,-21.321 z m 78.477,-59.961 11.672,-4.441 c -0.266,-0.258 -2.082,-4.16 -5.43,-11.668 -3.359,-7.512 -6.984,-15.359 -10.867,-23.531 -3.891,-8.2 -9.398,-17.508 -16.496,-27.981 -7.121,-10.457 -14.426,-19.648 -21.934,-27.558 -7.519,-7.922 -16.504,-14.559 -26.965,-19.922 -10.468,-5.367 -21.062,-7.918 -31.796,-7.649 -12.071,0.539 -21.122,5.43 -27.157,14.692 -6.047,9.258 -9.258,20.789 -9.66,34.609 -0.41,13.82 0.059,27.57 1.406,41.25 1.34,13.68 2.883,26.418 4.629,38.231 1.739,11.796 2.207,19.039 1.407,21.73 1.613,0.258 3.75,0.598 6.437,1.008 2.684,0.402 7.449,0.402 14.285,0 6.848,-0.41 12.676,-1.621 17.512,-3.629 4.824,-2.012 8.984,-5.832 12.469,-11.461 3.488,-5.641 4.562,-12.879 3.222,-21.738 -7.246,-49.09 -6.035,-75.52 3.625,-79.282 4.024,-1.609 9.52,0 16.493,4.84 8.585,5.891 17.648,15.75 27.167,29.582 9.524,13.797 16.965,26.078 22.336,36.809 l 7.645,16.109"
         style="fill:#111011;fill-opacity:1;fill-rule:nonzero;stroke:none"
         id="path80" /><path
         d="m 1048.72,892.469 c 19.32,-6.168 23.48,-22.797 12.48,-49.887 -1.88,0 -3.69,0.328 -5.44,1.008 -1.75,0.66 -2.88,1.402 -3.42,2.199 l -1.21,0.813 c 0.27,0.527 0.54,1.339 0.81,2.418 0.27,1.062 0.53,2.941 0.8,5.632 0.27,2.68 0.21,5.028 -0.19,7.039 -0.41,2.008 -1.55,3.891 -3.43,5.641 -1.87,1.731 -4.56,2.738 -8.05,3.008 -1.61,0.269 -3.01,0.34 -4.22,0.211 -1.21,-0.149 -3.22,-0.949 -6.04,-2.422 -2.81,-1.477 -5.37,-3.699 -7.65,-6.637 -2.27,-2.953 -4.63,-7.582 -7.04,-13.883 -2.41,-6.308 -4.29,-13.89 -5.63,-22.75 -4.56,-28.429 1.07,-41.839 16.9,-40.238 16.1,2.149 38.5,17.438 67.21,45.879 17.97,17.699 29.37,31.52 34.21,41.449 l 8.05,-6.437 c -22.28,-41.582 -50.58,-72.571 -84.92,-92.961 -28.71,-16.899 -53.397,-22 -74.049,-15.289 -20.391,6.707 -30.176,23.468 -29.375,50.301 0.261,4.828 0.8,9.917 1.609,15.289 1.875,11.539 5.234,21.738 10.059,30.589 4.836,8.86 10.324,15.829 16.504,20.93 6.164,5.09 12.675,9.309 19.511,12.668 6.851,3.352 13.681,5.5 20.531,6.441 6.84,0.942 12.94,1.282 18.31,1.012 5.36,-0.273 9.92,-0.941 13.68,-2.023"
         style="fill:#111011;fill-opacity:1;fill-rule:nonzero;stroke:none"
         id="path82" /><path
         d="m 1194,867.93 c -1.61,0 -3.09,0 -4.43,0 -1.35,0 -3.42,-0.739 -6.24,-2.219 -2.81,-1.469 -5.29,-3.551 -7.44,-6.242 -2.15,-2.68 -4.43,-7.039 -6.84,-13.071 -2.42,-6.039 -4.29,-13.218 -5.63,-21.539 19.84,-1.328 33.26,5.102 40.24,19.321 1.07,2.422 1.87,5.3 2.41,8.652 0.54,3.359 -0.13,6.707 -2.01,10.07 -1.88,3.348 -5.23,5.028 -10.06,5.028 z m 83.3,1.609 8.05,-6.437 c -22.27,-41.59 -50.3,-73.383 -84.11,-95.372 -28.71,-18.789 -52.99,-25.089 -72.84,-18.917 -20.66,6.699 -29.78,26.148 -27.37,58.347 0.27,4.289 0.82,8.719 1.62,13.281 2.41,13.68 6.77,25.489 13.07,35.411 6.31,9.918 13.28,17.367 20.93,22.339 7.65,4.969 15.83,8.579 24.55,10.86 8.71,2.281 16.43,3.351 23.15,3.23 6.69,-0.14 12.33,-0.883 16.89,-2.218 5.9,-1.883 10.73,-5.172 14.49,-9.852 3.75,-4.699 5.9,-10.809 6.44,-18.309 0.54,-7.523 -2.15,-15.972 -8.05,-25.371 -9.39,-15.289 -26.83,-22.519 -52.31,-21.722 -2.96,-26.567 2.81,-38.77 17.3,-36.629 15.82,2.422 37.96,19.05 66.4,49.91 16.37,17.969 26.96,31.789 31.79,41.449"
         style="fill:#111011;fill-opacity:1;fill-rule:nonzero;stroke:none"
         id="path84" /><path
         d="m 125.555,556.242 c -5.899,0.27 -11.934,-4.703 -18.106,-14.89 -6.172,-10.2 -11.5427,-23.082 -16.1013,-38.633 -4.5625,-15.559 -8.1836,-28.77 -10.8594,-39.637 -2.6875,-10.863 -4.6992,-20.32 -6.0352,-28.371 v -2.809 c 19.8438,13.68 36.2189,35.528 49.0899,65.59 10.469,24.68 13.684,42.258 9.66,52.719 -1.613,3.75 -4.16,5.769 -7.648,6.031 z m 74.855,-138.043 8.856,-4.418 c -0.274,-0.539 -0.547,-1.351 -0.809,-2.41 l -3.215,-6.441 c -2.957,-5.629 -7.246,-13.008 -12.879,-22.141 -1.886,-3.48 -4.972,-8.32 -9.258,-14.48 -3.222,-4.829 -7.109,-9.93 -11.671,-15.289 -5.098,-5.911 -10.059,-10.868 -14.891,-14.891 -2.414,-2.149 -5.637,-4.297 -9.66,-6.449 -2.684,-1.071 -4.695,-1.75 -6.035,-2.008 -2.149,-0.801 -4.422,-1.203 -6.836,-1.203 -1.61,0 -4.024,0.261 -7.246,0.801 -0.536,0.261 -1.61,0.66 -3.223,1.21 l -0.398,0.399 h -0.403 l -0.398,0.402 h -0.41 l -0.403,0.399 h -0.398 l -0.403,0.41 c -0.546,0.262 -1.074,0.609 -1.609,1.012 -0.539,0.398 -0.949,0.597 -1.211,0.597 -0.265,0 -0.676,0.27 -1.203,0.801 -0.547,0.539 -0.945,0.801 -1.211,0.801 -2.148,1.621 -3.621,2.828 -4.422,3.629 -3.761,3.222 -6.445,5.769 -8.047,7.64 -4.2965,5.102 -6.5817,7.789 -6.8473,8.051 -4.5586,5.899 -8.3203,11.27 -11.2695,16.098 -1.0743,1.621 -2.5469,4.09 -4.4219,7.453 -1.8867,3.348 -3.3594,5.84 -4.4258,7.449 l -2.8203,5.621 c -0.5391,-48.551 2.4101,-74.844 8.8555,-78.883 -2.1563,-6.429 -8.25,-12.117 -18.3086,-17.089 -10.0703,-4.969 -18.9844,-7.579 -26.7696,-7.86 -9.6562,-0.258 -17.4414,4.91 -23.3398,15.5 C 7.77344,313.52 4.02344,327.391 2.41016,344.559 0.800781,361.73 0,381.18 0,402.922 c 0,21.73 1.00391,43.66 3.01563,65.789 2.01171,22.141 3.68359,43.398 5.03125,63.789 1.33593,20.379 2.54692,37.762 3.62112,52.109 1.0742,14.36 0.664,24.762 -1.211,31.192 1.0743,0.269 2.5508,0.539 4.4336,0.808 1.875,0.27 5.4297,0.532 10.6641,0.801 5.2344,0.27 10.1953,0.059 14.8945,-0.601 4.6875,-0.68 9.8516,-2.207 15.4883,-4.629 5.6328,-2.41 10.3906,-5.641 14.2852,-9.66 3.8867,-4.02 6.9726,-9.79 9.2578,-17.301 2.2773,-7.508 3.0195,-16.367 2.207,-26.567 -0.8008,-10.461 -1.6016,-22.8 -2.4102,-37.023 17.168,37.293 37.2857,54.332 60.3707,51.121 16.094,-1.891 23.602,-13.418 22.528,-34.609 -1.074,-23.621 -11.27,-49.11 -30.586,-76.469 -13.418,-19.051 -28.836,-34.473 -46.2775,-46.281 2.4219,-6.43 5.2344,-13.551 8.457,-21.328 3.4766,-7.524 5.7618,-12.344 6.8355,-14.493 2.684,-5.371 5.633,-10.461 8.856,-15.289 2.676,-4.289 6.437,-9.121 11.269,-14.48 0.266,-0.281 0.801,-0.75 1.614,-1.41 0.801,-0.672 1.465,-1.282 2.011,-1.821 0.528,-0.531 1.063,-0.929 1.602,-1.199 0.273,-0.269 0.809,-0.672 1.609,-1.211 l 0.411,-0.398 h 0.402 v -0.403 h 0.398 0.403 v -0.41 c 0.261,0 0.535,-0.07 0.808,-0.187 0.266,-0.141 0.528,-0.211 0.801,-0.211 0.539,-0.27 1.613,-0.399 3.223,-0.399 2.414,0 4.824,0.539 7.238,1.61 0.809,0.258 1.609,0.668 2.422,1.199 0.801,0.539 1.668,1.141 2.617,1.82 0.926,0.66 1.805,1.129 2.606,1.399 4.296,3.492 8.722,7.789 13.281,12.89 0.812,1.059 4.699,5.762 11.672,14.078 0.808,1.071 2.273,3.223 4.433,6.434 2.137,3.227 3.75,5.637 4.824,7.25 2.149,3.488 4.766,7.848 7.852,13.078 3.074,5.231 4.754,7.981 5.027,8.25 0.539,0.809 1.133,1.871 1.809,3.219 0.672,1.34 1.141,2.281 1.414,2.812 l 1.203,2.008"
         style="fill:#111011;fill-opacity:1;fill-rule:nonzero;stroke:none"
         id="path86" /><path
         d="m 224.148,408.152 c -0.535,-13.691 5.235,-18.511 17.305,-14.492 9.66,3.481 19.582,10.731 29.785,21.731 1.067,10.199 2.012,17.839 2.813,22.941 -4.285,0 -8.653,-0.34 -13.074,-1 -4.426,-0.68 -9.661,-1.891 -15.696,-3.633 -6.035,-1.75 -11.004,-4.82 -14.89,-9.258 -3.887,-4.421 -5.977,-9.851 -6.243,-16.289 z m 185.93,39.438 h 13.281 c -1.074,-3.758 -2.687,-8.649 -4.836,-14.688 -2.148,-6.043 -6.972,-16.781 -14.48,-32.203 -7.52,-15.429 -15.566,-29.109 -24.152,-41.039 -8.582,-11.941 -19.989,-22.738 -34.2,-32.398 -14.226,-9.66 -28.984,-14.492 -44.265,-14.492 -9.934,0 -17.649,3.562 -23.145,10.671 -5.5,7.098 -8.789,15.622 -9.863,25.551 -1.074,9.93 -1.203,22.129 -0.402,36.629 -18.778,-18.262 -38.633,-25.629 -59.559,-22.141 -13.144,2.411 -21.602,8.981 -25.352,19.711 -3.75,10.739 -2.882,22.27 2.618,34.61 5.496,12.347 14.011,22.14 25.554,29.39 19.043,11.801 40.645,15.688 64.786,11.668 0.812,12.332 0.539,21.332 -0.801,26.961 1.066,0.27 2.414,0.532 4.023,0.801 1.613,0.27 4.758,0.469 9.453,0.609 4.7,0.122 9.121,-0.07 13.282,-0.609 4.16,-0.531 8.722,-1.879 13.683,-4.019 4.961,-2.153 9.188,-5.032 12.684,-8.653 3.476,-3.629 6.23,-8.789 8.242,-15.5 2.012,-6.707 2.617,-14.617 1.816,-23.738 -4.023,-55.813 -0.945,-83.852 9.258,-84.109 4.024,-0.27 8.985,2.949 14.883,9.66 10.734,12.078 20.059,25.418 27.969,40.039 7.91,14.621 13.215,26.219 15.898,34.808 l 3.625,12.481"
         style="fill:#111011;fill-opacity:1;fill-rule:nonzero;stroke:none"
         id="path88" /><path
         d="m 503.438,441.551 c 4.285,-3.219 7.507,-5.5 9.656,-6.84 0.265,1.34 0.742,3.75 1.406,7.238 0.676,3.492 1.145,6.172 1.418,8.051 0,0.539 0.059,1.27 0.195,2.219 0.137,0.941 0.203,1.531 0.203,1.801 0.266,0.812 0.403,2.152 0.403,4.031 0.535,2.41 0.535,4.828 0,7.238 0,5.371 -1.074,9.531 -3.223,12.481 -1.601,3.222 -4.023,5.23 -7.238,6.043 -3.223,0.796 -6.844,0.257 -10.867,-1.614 -3.762,-2.148 -6.438,-4.84 -8.047,-8.047 -1.348,-2.961 -1.614,-6.582 -0.813,-10.871 1.074,-4.019 3.36,-7.922 6.848,-11.672 2.414,-3.218 5.762,-6.578 10.059,-10.058 z m 82.5,0.801 8.046,-2.411 c 0,-0.539 -0.136,-1.339 -0.402,-2.421 -0.273,-1.071 -0.945,-3.09 -2.012,-6.028 -1.074,-2.953 -2.41,-5.5 -4.023,-7.652 -1.609,-2.149 -3.965,-4.77 -7.039,-7.84 -3.086,-3.09 -6.711,-5.098 -10.871,-6.039 -4.16,-0.941 -9.258,-1.75 -15.293,-2.422 -6.035,-0.66 -12.949,0.211 -20.723,2.621 -3.223,-12.871 -6.707,-23.879 -10.469,-33 -4.558,-10.73 -9.793,-20.25 -15.691,-28.57 -5.637,-7.789 -11.934,-14.758 -18.918,-20.93 -5.098,-4.289 -10.32,-8.051 -15.691,-11.262 -8.586,-5.367 -19.055,-9.117 -31.387,-11.269 -11.809,-1.879 -21.465,1.269 -28.977,9.453 -7.519,8.188 -12.675,19.977 -15.496,35.418 -2.812,15.422 -4.699,30.25 -5.637,44.461 -0.937,14.219 -1.406,29.641 -1.406,46.281 0,16.629 -0.136,27.098 -0.398,31.387 1.875,0.812 4.285,1.613 7.246,2.422 2.949,0.801 8.25,1.469 15.898,2.012 7.645,0.539 14.481,-0.133 20.516,-2.012 6.035,-1.879 11.809,-6.512 17.305,-13.879 5.5,-7.391 8.652,-17.25 9.464,-29.582 2.95,-38.91 6.438,-64.801 10.458,-77.668 4.562,4.019 8.859,8.449 12.882,13.277 5.633,6.973 10.321,14.352 14.082,22.133 4.286,8.578 8.047,18.109 11.27,28.57 0,0.539 0.262,1.618 0.801,3.227 -1.875,0.801 -6.836,3.75 -14.883,8.84 -5.11,3.761 -9.531,7.652 -13.281,11.672 -4.297,4.558 -7.922,10.199 -10.871,16.91 -0.801,2.148 -1.473,5.769 -2.012,10.871 0,3.48 0.664,7.508 2.012,12.07 2.675,7.508 7.785,13.418 15.292,17.699 7.247,4.559 15.293,6.301 24.153,5.239 4.285,-0.801 8.445,-2.41 12.469,-4.828 3.222,-2.161 6.3,-5.231 9.257,-9.25 1.875,-2.692 3.75,-6.45 5.637,-11.27 l 2.41,-10.871 c 0.266,-2.422 0.403,-5.902 0.403,-10.461 v -5.238 c -0.266,-1.34 -0.403,-2.961 -0.403,-4.821 -0.801,-8.589 -2.011,-16.91 -3.621,-24.949 1.074,-0.551 2.547,-1.152 4.422,-1.82 1.875,-0.672 5.305,-1.473 10.266,-2.41 4.961,-0.953 9.461,-1.012 13.484,-0.211 4.023,0.808 8.176,3.23 12.473,7.25 4.285,4.019 7.383,9.801 9.258,17.301"
         style="fill:#111011;fill-opacity:1;fill-rule:nonzero;stroke:none"
         id="path90" /><path
         d="m 648.32,437.93 c -1.613,0 -3.097,0 -4.433,0 -1.348,0 -3.418,-0.739 -6.242,-2.219 -2.813,-1.469 -5.293,-3.551 -7.442,-6.242 -2.148,-2.68 -4.422,-7.039 -6.836,-13.071 -2.422,-6.039 -4.297,-13.218 -5.633,-21.539 19.844,-1.328 33.262,5.102 40.243,19.321 1.066,2.422 1.867,5.3 2.414,8.652 0.535,3.359 -0.137,6.707 -2.012,10.07 -1.887,3.348 -5.234,5.028 -10.059,5.028 z m 83.301,1.609 8.047,-6.437 c -22.277,-41.59 -50.305,-73.383 -84.113,-95.372 -28.711,-18.789 -52.989,-25.089 -72.84,-18.917 -20.656,6.699 -29.777,26.148 -27.363,58.347 0.261,4.289 0.808,8.719 1.609,13.281 2.414,13.68 6.777,25.489 13.078,35.411 6.309,9.918 13.281,17.367 20.926,22.339 7.648,4.969 15.832,8.579 24.551,10.86 8.711,2.281 16.425,3.351 23.144,3.23 6.699,-0.14 12.336,-0.883 16.895,-2.218 5.898,-1.883 10.734,-5.172 14.492,-9.852 3.75,-4.699 5.898,-10.809 6.437,-18.309 0.536,-7.523 -2.148,-15.972 -8.046,-25.371 -9.395,-15.289 -26.836,-22.519 -52.317,-21.722 -2.957,-26.567 2.813,-38.77 17.305,-36.629 15.82,2.422 37.961,19.05 66.398,49.91 16.367,17.969 26.961,31.789 31.797,41.449"
         style="fill:#111011;fill-opacity:1;fill-rule:nonzero;stroke:none"
         id="path92" /><path
         d="m 776.68,484.609 c 9.121,12.61 14.754,26.961 16.902,43.063 v 2.418 c 0,1.34 0.059,2.742 0.195,4.219 0.141,1.472 0.141,3.48 0,6.031 -0.136,2.551 -0.332,5.101 -0.593,7.652 -0.274,2.547 -0.676,5.297 -1.211,8.25 -0.539,2.949 -1.145,5.84 -1.805,8.649 -0.676,2.828 -1.684,5.64 -3.02,8.461 -1.347,2.808 -2.824,5.429 -4.433,7.839 -2.688,-35.679 -4.699,-67.882 -6.035,-96.582 z M 759.773,320.012 c -4.023,-1.871 -8.445,-2.813 -13.281,-2.813 -0.801,-0.269 -2.148,-0.398 -4.023,-0.398 h -0.399 c -24.414,0.258 -34.336,58.75 -29.777,175.461 1.066,23.867 3.078,54.187 6.035,90.937 2.676,26.293 5.363,42.262 8.047,47.903 3.223,6.168 8.047,9.117 14.484,8.847 9.121,0 18.379,-3.219 27.774,-9.66 7.773,-5.098 14.89,-12.609 21.328,-22.527 6.973,-12.082 11.668,-26.172 14.082,-42.262 4.559,-29.781 1.074,-55.141 -10.461,-76.07 -4.832,-8.84 -10.73,-16.758 -17.703,-23.739 -1.348,-29.769 -1.75,-56.07 -1.211,-78.871 0.801,-12.879 2.273,-20.32 4.422,-22.34 2.148,-2.011 7.246,-0.601 15.293,4.231 10.996,6.969 21.398,16.031 31.191,27.16 9.797,11.129 16.836,20.461 21.125,27.969 l 6.446,11.269 11.269,-4.429 c -0.812,-2.41 -4.297,-8.379 -10.469,-17.91 -6.172,-9.52 -13.879,-20.45 -23.136,-32.79 -9.258,-12.339 -20.469,-24.351 -33.602,-36.019 -13.156,-11.672 -25.625,-19.652 -37.434,-23.949"
         style="fill:#111011;fill-opacity:1;fill-rule:nonzero;stroke:none"
         id="path94" /></g></g></svg>
