<?xml version="1.0" encoding="utf-8"?>
<svg viewBox="0.321 573.542 292.236 48.05" xmlns="http://www.w3.org/2000/svg">
  <path d="m 277.273,966.52 c -5.371,-126.629 -2.011,-193.028 10.059,-199.2 -2.148,-5.898 -8.113,-11.261 -17.898,-16.101 -9.805,-4.821 -18.586,-7.508 -26.368,-8.039 -8.32,-0.539 -15.226,1.941 -20.722,7.441 -5.5,5.488 -9.328,13.609 -11.465,24.34 -2.16,10.73 -3.625,22.34 -4.434,34.82 -0.8,12.469 -0.605,26.961 0.606,43.461 1.211,16.5 2.41,31.52 3.621,45.067 1.211,13.55 2.746,28.582 4.629,45.07 1.875,16.5 3.078,29.184 3.625,38.043 0.535,5.359 -0.676,8.848 -3.625,10.457 -2.957,1.613 -6.375,1.402 -10.262,-0.609 -3.898,-2.008 -7.043,-4.758 -9.453,-8.239 -1.074,-1.609 -1.75,-2.82 -2.012,-3.621 -3.496,-5.64 -6.308,-11.148 -8.457,-16.508 -4.824,-11 -8.996,-24.691 -12.472,-41.043 -2.149,-10.207 -3.622,-17.98 -4.434,-23.339 -1.602,-8.059 -2.813,-16.239 -3.613,-24.551 l -3.621,-25.77 c 0,-1.328 -0.274,-3.609 -0.813,-6.828 0,-0.269 -0.137,-0.812 -0.398,-1.609 -0.274,-0.801 -0.403,-1.481 -0.403,-2.012 0,-0.281 -0.273,-0.949 -0.808,-2.02 0,-0.8 -0.137,-1.339 -0.403,-1.609 -0.261,-0.269 -0.398,-0.531 -0.398,-0.801 l -0.402,-0.398 -0.399,-0.41 v -0.403 l -0.812,-0.796 c -0.536,-0.551 -1.075,-0.954 -1.61,-1.211 -0.539,-0.543 -1.34,-0.801 -2.414,-0.801 h -0.801 -1.609 c -0.547,0.258 -1.211,0.531 -2.012,0.801 l -0.402,0.398 c -0.547,0 -0.809,0.141 -0.809,0.402 l -1.203,1.207 c -0.273,0 -0.547,0.262 -0.808,0.813 l -0.403,0.797 v 0.402 c -0.273,0.27 -0.398,0.539 -0.398,0.809 -0.547,1.07 -0.949,1.742 -1.211,2.011 0,0.27 -0.07,0.598 -0.207,1.008 -0.137,0.403 -0.195,0.731 -0.195,1.012 -1.075,3.211 -1.746,5.48 -2.012,6.828 -0.274,1.883 -0.742,4.293 -1.406,7.25 -0.672,2.953 -1.153,5.102 -1.414,6.43 -0.266,1.34 -0.598,3.492 -1.008,6.453 -0.399,2.949 -0.742,5.219 -1.004,6.84 -0.539,2.679 -1.27,7.039 -2.207,13.078 -0.949,6.039 -1.68,10.672 -2.219,13.879 -0.535,2.683 -1.277,7.043 -2.215,13.082 -0.937,6.039 -1.679,10.519 -2.207,13.48 -0.273,1.61 -0.742,3.891 -1.418,6.848 -0.664,2.953 -1.14,5.082 -1.406,6.43 -0.801,3.492 -1.875,7.652 -3.211,12.472 -0.547,-1.601 -0.812,-2.551 -0.812,-2.812 -0.274,-0.797 -0.606,-1.879 -1.004,-3.219 -0.403,-1.348 -0.743,-2.281 -1.008,-2.82 l -1.211,-6.028 c -0.535,-1.351 -1.074,-3.363 -1.602,-6.043 -2.683,-14.218 -5.234,-30.179 -7.644,-47.89 -0.547,-3.758 -1.211,-8.649 -2.012,-14.68 -0.812,-6.047 -1.484,-11.418 -2.012,-16.109 -0.547,-4.688 -1.086,-9.051 -1.613,-13.071 -2.957,-23.617 -4.4335,-35.82 -4.4335,-36.617 L 92.5586,774.16 c 0,-0.539 -0.0703,-1.398 -0.1953,-2.621 -0.1485,-1.207 -0.3438,-2.078 -0.6055,-2.609 -0.5469,-2.688 -0.8125,-4.43 -0.8125,-5.231 -0.2617,-0.539 -0.8008,-3.09 -1.6094,-7.64 0,-1.348 -0.1367,-2.289 -0.4023,-2.829 v -0.398 c -1.875,-8.852 -6.1719,-15.953 -12.8711,-21.32 -6.7187,-5.371 -13.0156,-8.793 -18.9141,-10.27 -5.9101,-1.472 -11.8164,-2.222 -17.7148,-2.222 -9.6602,-0.258 -17.4414,4.91 -23.3398,15.5 -5.8985,10.601 -9.66021,24.492 -11.26177,41.652 -1.60937,17.168 -2.42187,36.617 -2.42187,58.348 0,21.742 1.00781,43.671 3.01953,65.8 2.01172,22.141 3.75781,43.321 5.23441,63.59 1.4726,20.25 2.7422,37.56 3.8281,51.91 1.0625,14.35 0.6641,24.75 -1.2109,31.19 1.0625,0.27 2.5468,0.54 4.4218,0.8 1.875,0.27 5.4414,0.54 10.6641,0.81 5.2344,0.27 10.1953,0.06 14.8945,-0.6 4.6875,-0.67 9.8633,-2.22 15.4961,-4.63 5.625,-2.41 10.3906,-5.63 14.2774,-9.66 3.8867,-4.02 6.9843,-9.79 9.2578,-17.3 2.2773,-7.52 3.0195,-16.37 2.2187,-26.571 -3.2226,-36.75 -5.2344,-78.207 -6.0351,-124.347 0.8007,2.679 1.8047,6.5 3.0156,11.468 1.2031,4.961 2.0703,8.52 2.6172,10.668 2.6758,10.192 4.8242,17.973 6.4375,23.344 0.5351,2.668 1.6094,6.699 3.2226,12.067 l 3.6211,12.48 c 0,0.543 0.1953,1.543 0.5977,3.02 0.4101,1.472 0.7422,2.613 1.0039,3.41 1.0738,2.683 1.7498,4.703 2.0118,6.043 0.539,1.609 1.348,3.758 2.422,6.437 0.801,2.422 1.738,4.692 2.812,6.84 0.539,1.613 1.075,2.82 1.614,3.621 0.261,0.809 0.937,2.02 2.011,3.629 l 2.012,2.012 c 1.074,1.07 2.012,1.871 2.82,2.41 0.801,0.809 1.739,1.211 2.813,1.211 0.265,0.258 0.937,0.398 2.012,0.398 h 0.812 0.801 c 1.336,0 2.547,-0.269 3.621,-0.8 1.066,-0.551 1.875,-1.071 2.414,-1.61 1.074,-0.808 1.875,-1.609 2.41,-2.41 0.539,-0.551 1.074,-1.348 1.613,-2.418 0.536,-1.082 1.075,-2.422 1.61,-4.031 1.34,-2.68 2.148,-4.961 2.414,-6.832 1.875,-7.25 2.949,-11.817 3.223,-13.688 0.535,-3.222 1.335,-7.789 2.41,-13.679 1.074,-6.18 2.414,-15.161 4.023,-26.973 0.266,-1.34 0.606,-3.547 1.008,-6.629 0.41,-3.098 0.742,-5.437 1.004,-7.051 0.265,-1.597 0.605,-3.89 1.008,-6.84 0.41,-2.957 0.742,-5.089 1.004,-6.437 l 1.21,-9.66 c 0.266,1.347 0.606,3.09 1.008,5.23 0.399,2.149 0.606,3.758 0.606,4.84 l 3.621,24.949 c 0.527,4.551 2.012,12.61 4.426,24.141 0.535,2.148 1.406,5.769 2.617,10.867 1.211,5.09 2.215,8.981 3.015,11.672 3.75,10.988 6.172,17.84 7.247,20.531 1.875,5.36 4.824,11.52 8.847,18.5 2.949,5.36 6.711,10.598 11.27,15.688 4.562,4.57 8.859,7.92 12.883,10.07 l 0.398,0.4 c 0.539,0 0.812,0.13 0.812,0.4 4.286,2.15 9.247,3.75 14.883,4.84 0.535,0 0.938,0.13 1.211,0.4 1.336,0.26 3.223,0.53 5.633,0.8 2.414,0.26 6.699,0.07 12.871,-0.61 6.172,-0.67 11.602,-2.27 16.301,-4.82 4.695,-2.56 9.062,-7.31 13.086,-14.289 4.023,-6.98 6.16,-15.691 6.433,-26.16 v -1.199 -0.813 -0.398 -4.031" style="fill:#111011;fill-opacity:1;fill-rule:nonzero;stroke:none" id="path72" transform="matrix(0.133333, 0, 0, -0.133333, 0, 713.373352)"/>
  <path d="m 330.391,838.152 c -0.539,-13.691 5.234,-18.511 17.304,-14.492 9.657,3.481 19.578,10.731 29.785,21.731 1.063,10.199 2.012,17.839 2.813,22.941 -4.289,0 -8.652,-0.34 -13.078,-1 -4.422,-0.68 -9.656,-1.891 -15.692,-3.633 -6.035,-1.75 -11.007,-4.82 -14.894,-9.258 -3.887,-4.421 -5.977,-9.851 -6.238,-16.289 z m 185.925,39.438 h 13.282 c -1.075,-3.758 -2.684,-8.649 -4.832,-14.688 -2.149,-6.043 -6.973,-16.781 -14.485,-32.203 -7.519,-15.429 -15.566,-29.109 -24.148,-41.039 -8.586,-11.941 -19.992,-22.738 -34.199,-32.398 -14.231,-9.66 -28.985,-14.492 -44.266,-14.492 -9.934,0 -17.648,3.562 -23.148,10.671 -5.497,7.098 -8.79,15.622 -9.864,25.551 -1.074,9.93 -1.199,22.129 -0.398,36.629 -18.781,-18.262 -38.633,-25.629 -59.563,-22.141 -13.144,2.411 -21.601,8.981 -25.351,19.711 -3.75,10.739 -2.879,22.27 2.617,34.61 5.5,12.347 14.016,22.14 25.559,29.39 19.043,11.801 40.644,15.688 64.785,11.668 0.808,12.332 0.535,21.332 -0.801,26.961 1.062,0.27 2.414,0.532 4.023,0.801 1.61,0.27 4.754,0.469 9.453,0.609 4.696,0.122 9.122,-0.07 13.282,-0.609 4.16,-0.531 8.718,-1.879 13.679,-4.019 4.961,-2.153 9.192,-5.032 12.688,-8.653 3.476,-3.629 6.23,-8.789 8.242,-15.5 2.012,-6.707 2.617,-14.617 1.817,-23.738 -4.024,-55.813 -0.95,-83.852 9.257,-84.109 4.024,-0.27 8.985,2.949 14.883,9.66 10.731,12.078 20.059,25.418 27.969,40.039 7.91,14.621 13.211,26.219 15.898,34.808 l 3.621,12.481" style="fill:#111011;fill-opacity:1;fill-rule:nonzero;stroke:none" id="path74" transform="matrix(0.133333, 0, 0, -0.133333, 0, 713.373352)"/>
  <path d="m 724.773,878.789 8.848,0.813 c 4.024,-0.27 5.5,-2.282 4.434,-6.032 0,-0.281 -0.672,-3.3 -2.012,-9.07 -1.348,-5.77 -2.75,-11.668 -4.227,-17.699 -1.476,-6.039 -3.828,-13.621 -7.043,-22.738 -3.222,-9.122 -6.582,-17.704 -10.058,-25.754 -3.496,-8.047 -7.988,-16.379 -13.485,-24.95 -5.5,-8.589 -11.339,-15.898 -17.511,-21.929 -6.172,-6.039 -13.477,-11.008 -21.922,-14.899 -8.457,-3.883 -17.383,-5.84 -26.77,-5.84 -25.75,0 -38.367,22.539 -37.832,67.618 -13.679,-21.2 -31.121,-31.258 -52.312,-30.18 -12.07,0.531 -21.125,5.43 -27.16,14.684 -6.043,9.257 -9.258,20.789 -9.657,34.609 -0.41,13.82 0.059,27.57 1.407,41.25 1.336,13.68 2.879,26.43 4.629,38.238 1.738,11.789 2.207,19.039 1.406,21.719 1.609,0.269 3.75,0.613 6.433,1.012 2.688,0.398 7.454,0.398 14.289,0 6.844,-0.399 12.676,-1.61 17.508,-3.621 4.825,-2.008 8.985,-5.829 12.473,-11.469 3.484,-5.629 4.559,-12.879 3.223,-21.738 -6.985,-49.094 -7.383,-76.192 -1.211,-81.293 3.757,-2.938 9.922,0 18.515,8.859 8.309,8.59 14.285,20.66 17.91,36.223 3.622,15.558 5.157,28.98 4.629,40.25 l -0.812,16.89 c 1.078,0.27 2.422,0.539 4.023,0.809 1.614,0.269 4.766,0.461 9.465,0.609 4.688,0.121 9.11,-0.078 13.281,-0.609 4.149,-0.539 8.778,-1.879 13.875,-4.02 5.098,-2.16 9.329,-5.031 12.688,-8.652 3.348,-3.629 6.094,-8.797 8.242,-15.5 2.149,-6.707 2.82,-14.629 2.012,-23.738 -0.539,-7.25 -1.477,-17.309 -2.813,-30.192 -2.961,-31.929 -3.222,-50.039 -0.812,-54.32 2.949,-4.57 9.394,-1.078 19.316,10.461 8.86,10.461 16.367,24.082 22.539,40.84 6.172,16.769 10.059,30.922 11.672,42.472 l 2.82,16.887" style="fill:#111011;fill-opacity:1;fill-rule:nonzero;stroke:none" id="path76" transform="matrix(0.133333, 0, 0, -0.133333, 0, 713.373352)"/>
  <path d="m 868.836,863.91 8.859,0.399 c 3.75,-0.809 5.086,-2.957 4.024,-6.45 0,-0.257 -0.949,-3.609 -2.824,-10.058 -1.875,-6.43 -3.887,-13.41 -6.036,-20.922 -2.148,-7.508 -5.234,-16.699 -9.257,-27.559 -4.024,-10.871 -8.25,-21.269 -12.676,-31.191 -4.422,-9.938 -9.852,-19.988 -16.297,-30.188 -6.438,-10.191 -13.078,-18.921 -19.922,-26.152 -6.836,-7.25 -14.687,-13.09 -23.535,-17.508 -8.859,-4.429 -17.981,-6.371 -27.375,-5.84 -7.234,0.27 -13.281,2.618 -18.106,7.051 -4.832,4.418 -8.183,10.528 -10.058,18.309 -1.883,7.781 -3.086,16.09 -3.621,24.949 -0.547,8.852 -0.207,19.172 1.004,30.992 1.203,11.789 2.48,22.457 3.82,31.988 1.336,9.52 2.879,20.192 4.629,31.989 1.746,11.812 3.015,20.933 3.828,27.371 -16.906,0.262 -30.254,1.812 -40.051,4.621 -9.793,2.828 -16.023,6.371 -18.711,10.668 -2.683,4.293 -4.363,9.121 -5.027,14.492 -0.676,5.359 -0.402,10.93 0.809,16.699 1.203,5.762 0.734,11.461 -1.415,17.102 1.61,0.808 3.692,1.609 6.239,2.41 2.551,0.809 7.109,1.75 13.683,2.82 6.571,1.067 12.332,1.067 17.305,0 4.961,-1.07 9.258,-4.16 12.879,-9.25 3.625,-5.101 5.031,-12.472 4.23,-22.132 -0.546,-6.989 5.223,-10.469 17.305,-10.469 4.285,0.258 8.574,0.258 12.871,0 4.285,-0.281 9.395,-1.41 15.293,-3.422 5.899,-2.008 10.801,-4.899 14.688,-8.649 3.886,-3.761 7.039,-9.328 9.461,-16.699 2.414,-7.379 2.949,-16.039 1.613,-25.961 -6.445,-49.359 -9.395,-79.422 -8.86,-90.14 0.54,-20.399 7.512,-23.34 20.93,-8.86 9.383,9.93 18.309,25.692 26.758,47.282 8.457,21.589 14.551,40.718 18.309,57.359 l 5.234,24.949" style="fill:#111011;fill-opacity:1;fill-rule:nonzero;stroke:none" id="path78" transform="matrix(0.133333, 0, 0, -0.133333, 0, 713.373352)"/>
  <path d="m 902.234,933.531 c -5.898,-5.91 -13.007,-8.859 -21.328,-8.859 -8.32,0 -15.429,2.949 -21.328,8.859 -5.898,5.899 -8.848,13 -8.848,21.321 0,8.32 2.95,15.418 8.848,21.328 5.899,5.902 13.008,8.859 21.328,8.859 8.321,0 15.43,-2.957 21.328,-8.859 5.899,-5.91 8.86,-13.008 8.86,-21.328 0,-8.321 -2.961,-15.422 -8.86,-21.321 z m 78.477,-59.961 11.672,-4.441 c -0.266,-0.258 -2.082,-4.16 -5.43,-11.668 -3.359,-7.512 -6.984,-15.359 -10.867,-23.531 -3.891,-8.2 -9.398,-17.508 -16.496,-27.981 -7.121,-10.457 -14.426,-19.648 -21.934,-27.558 -7.519,-7.922 -16.504,-14.559 -26.965,-19.922 -10.468,-5.367 -21.062,-7.918 -31.796,-7.649 -12.071,0.539 -21.122,5.43 -27.157,14.692 -6.047,9.258 -9.258,20.789 -9.66,34.609 -0.41,13.82 0.059,27.57 1.406,41.25 1.34,13.68 2.883,26.418 4.629,38.231 1.739,11.796 2.207,19.039 1.407,21.73 1.613,0.258 3.75,0.598 6.437,1.008 2.684,0.402 7.449,0.402 14.285,0 6.848,-0.41 12.676,-1.621 17.512,-3.629 4.824,-2.012 8.984,-5.832 12.469,-11.461 3.488,-5.641 4.562,-12.879 3.222,-21.738 -7.246,-49.09 -6.035,-75.52 3.625,-79.282 4.024,-1.609 9.52,0 16.493,4.84 8.585,5.891 17.648,15.75 27.167,29.582 9.524,13.797 16.965,26.078 22.336,36.809 l 7.645,16.109" style="fill:#111011;fill-opacity:1;fill-rule:nonzero;stroke:none" id="path80" transform="matrix(0.133333, 0, 0, -0.133333, 0, 713.373352)"/>
  <path d="m 1048.72,892.469 c 19.32,-6.168 23.48,-22.797 12.48,-49.887 -1.88,0 -3.69,0.328 -5.44,1.008 -1.75,0.66 -2.88,1.402 -3.42,2.199 l -1.21,0.813 c 0.27,0.527 0.54,1.339 0.81,2.418 0.27,1.062 0.53,2.941 0.8,5.632 0.27,2.68 0.21,5.028 -0.19,7.039 -0.41,2.008 -1.55,3.891 -3.43,5.641 -1.87,1.731 -4.56,2.738 -8.05,3.008 -1.61,0.269 -3.01,0.34 -4.22,0.211 -1.21,-0.149 -3.22,-0.949 -6.04,-2.422 -2.81,-1.477 -5.37,-3.699 -7.65,-6.637 -2.27,-2.953 -4.63,-7.582 -7.04,-13.883 -2.41,-6.308 -4.29,-13.89 -5.63,-22.75 -4.56,-28.429 1.07,-41.839 16.9,-40.238 16.1,2.149 38.5,17.438 67.21,45.879 17.97,17.699 29.37,31.52 34.21,41.449 l 8.05,-6.437 c -22.28,-41.582 -50.58,-72.571 -84.92,-92.961 -28.71,-16.899 -53.397,-22 -74.049,-15.289 -20.391,6.707 -30.176,23.468 -29.375,50.301 0.261,4.828 0.8,9.917 1.609,15.289 1.875,11.539 5.234,21.738 10.059,30.589 4.836,8.86 10.324,15.829 16.504,20.93 6.164,5.09 12.675,9.309 19.511,12.668 6.851,3.352 13.681,5.5 20.531,6.441 6.84,0.942 12.94,1.282 18.31,1.012 5.36,-0.273 9.92,-0.941 13.68,-2.023" style="fill:#111011;fill-opacity:1;fill-rule:nonzero;stroke:none" id="path82" transform="matrix(0.133333, 0, 0, -0.133333, 0, 713.373352)"/>
  <path d="m 1194,867.93 c -1.61,0 -3.09,0 -4.43,0 -1.35,0 -3.42,-0.739 -6.24,-2.219 -2.81,-1.469 -5.29,-3.551 -7.44,-6.242 -2.15,-2.68 -4.43,-7.039 -6.84,-13.071 -2.42,-6.039 -4.29,-13.218 -5.63,-21.539 19.84,-1.328 33.26,5.102 40.24,19.321 1.07,2.422 1.87,5.3 2.41,8.652 0.54,3.359 -0.13,6.707 -2.01,10.07 -1.88,3.348 -5.23,5.028 -10.06,5.028 z m 83.3,1.609 8.05,-6.437 c -22.27,-41.59 -50.3,-73.383 -84.11,-95.372 -28.71,-18.789 -52.99,-25.089 -72.84,-18.917 -20.66,6.699 -29.78,26.148 -27.37,58.347 0.27,4.289 0.82,8.719 1.62,13.281 2.41,13.68 6.77,25.489 13.07,35.411 6.31,9.918 13.28,17.367 20.93,22.339 7.65,4.969 15.83,8.579 24.55,10.86 8.71,2.281 16.43,3.351 23.15,3.23 6.69,-0.14 12.33,-0.883 16.89,-2.218 5.9,-1.883 10.73,-5.172 14.49,-9.852 3.75,-4.699 5.9,-10.809 6.44,-18.309 0.54,-7.523 -2.15,-15.972 -8.05,-25.371 -9.39,-15.289 -26.83,-22.519 -52.31,-21.722 -2.96,-26.567 2.81,-38.77 17.3,-36.629 15.82,2.422 37.96,19.05 66.4,49.91 16.37,17.969 26.96,31.789 31.79,41.449" style="fill:#111011;fill-opacity:1;fill-rule:nonzero;stroke:none" id="path84" transform="matrix(0.133333, 0, 0, -0.133333, 0, 713.373352)"/>
  <path d="M 194.043 585.11 C 193.256 585.074 192.452 585.737 191.629 587.095 C 190.806 588.455 190.09 590.173 189.482 592.246 C 188.874 594.321 188.391 596.082 188.034 597.531 C 187.676 598.98 187.407 600.24 187.229 601.314 L 187.229 601.688 C 189.875 599.864 192.058 596.951 193.775 592.943 C 195.17 589.652 195.599 587.309 195.063 585.914 C 194.848 585.414 194.508 585.145 194.043 585.11 Z M 204.024 603.515 L 205.204 604.105 C 205.168 604.176 205.131 604.285 205.096 604.426 L 204.668 605.285 C 204.274 606.035 203.702 607.019 202.951 608.237 C 202.699 608.701 202.288 609.346 201.716 610.167 C 201.287 610.811 200.768 611.491 200.16 612.206 C 199.48 612.994 198.819 613.655 198.175 614.191 C 197.853 614.478 197.423 614.764 196.887 615.051 C 196.529 615.194 196.261 615.285 196.082 615.319 C 195.795 615.426 195.492 615.479 195.17 615.479 C 194.956 615.479 194.634 615.445 194.204 615.373 C 194.133 615.338 193.99 615.285 193.775 615.211 L 193.722 615.158 L 193.668 615.158 L 193.615 615.105 L 193.56 615.105 L 193.506 615.051 L 193.453 615.051 L 193.4 614.997 C 193.327 614.962 193.256 614.915 193.185 614.862 C 193.113 614.809 193.058 614.782 193.024 614.782 C 192.988 614.782 192.933 614.746 192.863 614.675 C 192.79 614.603 192.737 614.569 192.702 614.569 C 192.415 614.352 192.219 614.191 192.112 614.085 C 191.611 613.655 191.253 613.315 191.039 613.066 C 190.466 612.386 190.162 612.027 190.126 611.993 C 189.518 611.206 189.017 610.49 188.624 609.846 C 188.48 609.63 188.284 609.301 188.034 608.852 C 187.782 608.406 187.586 608.074 187.444 607.859 L 187.068 607.11 C 186.996 613.583 187.389 617.089 188.249 617.627 C 187.961 618.485 187.149 619.243 185.807 619.906 C 184.465 620.569 183.276 620.917 182.238 620.954 C 180.951 620.988 179.913 620.299 179.126 618.887 C 178.339 617.473 177.839 615.623 177.624 613.334 C 177.409 611.045 177.302 608.451 177.302 605.552 C 177.302 602.655 177.436 599.731 177.704 596.781 C 177.973 593.828 178.195 590.994 178.375 588.275 C 178.553 585.558 178.715 583.24 178.858 581.328 C 179.001 579.413 178.947 578.026 178.697 577.169 C 178.84 577.133 179.037 577.097 179.288 577.061 C 179.538 577.025 180.012 576.99 180.71 576.954 C 181.407 576.918 182.069 576.946 182.695 577.034 C 183.32 577.125 184.009 577.328 184.761 577.651 C 185.512 577.973 186.146 578.404 186.665 578.939 C 187.183 579.475 187.595 580.245 187.9 581.246 C 188.203 582.247 188.302 583.428 188.194 584.788 C 188.087 586.183 187.98 587.828 187.873 589.725 C 190.162 584.752 192.844 582.481 195.922 582.909 C 198.068 583.161 199.069 584.698 198.926 587.523 C 198.782 590.673 197.423 594.071 194.848 597.719 C 193.058 600.259 191.003 602.315 188.677 603.89 C 189 604.747 189.375 605.697 189.805 606.734 C 190.268 607.737 190.573 608.379 190.716 608.666 C 191.074 609.382 191.467 610.061 191.897 610.705 C 192.254 611.276 192.755 611.921 193.4 612.635 C 193.435 612.673 193.506 612.735 193.615 612.823 C 193.722 612.913 193.81 612.994 193.883 613.066 C 193.953 613.137 194.025 613.19 194.096 613.226 C 194.133 613.262 194.204 613.315 194.311 613.387 L 194.366 613.44 L 194.419 613.44 L 194.419 613.494 L 194.472 613.494 L 194.526 613.494 L 194.526 613.549 C 194.561 613.549 194.598 613.558 194.634 613.574 C 194.669 613.593 194.704 613.602 194.741 613.602 C 194.813 613.638 194.956 613.655 195.17 613.655 C 195.492 613.655 195.814 613.583 196.136 613.44 C 196.243 613.406 196.35 613.351 196.458 613.281 C 196.565 613.209 196.681 613.128 196.807 613.038 C 196.931 612.95 197.048 612.887 197.155 612.851 C 197.728 612.386 198.318 611.813 198.926 611.133 C 199.034 610.991 199.552 610.364 200.482 609.256 C 200.59 609.113 200.785 608.826 201.073 608.398 C 201.358 607.967 201.573 607.646 201.716 607.431 C 202.003 606.966 202.352 606.385 202.763 605.687 C 203.173 604.99 203.397 604.623 203.433 604.587 C 203.505 604.479 203.584 604.338 203.675 604.158 C 203.764 603.979 203.827 603.854 203.863 603.783 L 204.024 603.515" style="fill:#111011;fill-opacity:1;fill-rule:nonzero;stroke:none" id="path86"/>
  <path d="M 207.189 604.855 C 207.117 606.681 207.887 607.323 209.496 606.787 C 210.784 606.323 212.107 605.357 213.467 603.89 C 213.609 602.53 213.735 601.511 213.842 600.831 C 213.271 600.831 212.689 600.876 212.099 600.964 C 211.509 601.055 210.811 601.217 210.006 601.449 C 209.202 601.682 208.539 602.091 208.021 602.683 C 207.503 603.273 207.224 603.997 207.189 604.855 Z M 231.979 599.597 L 233.75 599.597 C 233.607 600.098 233.392 600.75 233.105 601.555 C 232.819 602.361 232.176 603.793 231.175 605.849 C 230.172 607.906 229.099 609.73 227.954 611.321 C 226.81 612.913 225.289 614.352 223.394 615.64 C 221.497 616.928 219.53 617.573 217.492 617.573 C 216.168 617.573 215.139 617.098 214.406 616.15 C 213.673 615.203 213.234 614.067 213.091 612.743 C 212.948 611.419 212.931 609.793 213.038 607.859 C 210.534 610.294 207.887 611.276 205.096 610.811 C 203.344 610.49 202.216 609.614 201.716 608.183 C 201.216 606.751 201.332 605.214 202.065 603.569 C 202.798 601.922 203.933 600.617 205.472 599.65 C 208.012 598.076 210.892 597.558 214.111 598.094 C 214.219 596.45 214.182 595.25 214.004 594.499 C 214.146 594.463 214.326 594.428 214.54 594.393 C 214.755 594.357 215.175 594.33 215.801 594.311 C 216.427 594.295 217.017 594.321 217.571 594.393 C 218.126 594.463 218.734 594.643 219.396 594.928 C 220.057 595.216 220.621 595.599 221.087 596.082 C 221.551 596.566 221.918 597.254 222.186 598.149 C 222.454 599.043 222.535 600.098 222.428 601.314 C 221.892 608.756 222.302 612.494 223.663 612.528 C 224.199 612.564 224.861 612.135 225.647 611.24 C 227.078 609.63 228.321 607.851 229.376 605.902 C 230.431 603.952 231.138 602.406 231.496 601.261 L 231.979 599.597" style="fill:#111011;fill-opacity:1;fill-rule:nonzero;stroke:none" id="path88"/>
  <path d="M 244.427 600.402 C 244.998 600.831 245.428 601.135 245.715 601.314 C 245.75 601.135 245.814 600.814 245.902 600.349 C 245.992 599.883 246.055 599.526 246.091 599.275 C 246.091 599.204 246.099 599.106 246.117 598.98 C 246.135 598.854 246.144 598.775 246.144 598.739 C 246.18 598.631 246.198 598.452 246.198 598.202 C 246.269 597.881 246.269 597.558 246.198 597.237 C 246.198 596.521 246.055 595.966 245.768 595.573 C 245.555 595.143 245.232 594.875 244.803 594.767 C 244.373 594.661 243.891 594.733 243.354 594.982 C 242.853 595.269 242.496 595.628 242.281 596.055 C 242.102 596.45 242.066 596.933 242.173 597.505 C 242.316 598.04 242.621 598.561 243.086 599.061 C 243.408 599.49 243.854 599.938 244.427 600.402 Z M 255.427 600.295 L 256.5 600.617 C 256.5 600.688 256.482 600.795 256.446 600.939 C 256.41 601.082 256.32 601.351 256.178 601.743 C 256.035 602.137 255.857 602.476 255.642 602.763 C 255.427 603.05 255.113 603.399 254.703 603.809 C 254.292 604.221 253.808 604.488 253.254 604.614 C 252.699 604.739 252.019 604.847 251.215 604.937 C 250.41 605.025 249.488 604.909 248.452 604.587 C 248.022 606.303 247.557 607.771 247.056 608.987 C 246.448 610.418 245.75 611.687 244.964 612.797 C 244.212 613.835 243.372 614.764 242.441 615.587 C 241.761 616.159 241.065 616.661 240.349 617.089 C 239.204 617.805 237.808 618.305 236.164 618.591 C 234.59 618.842 233.302 618.422 232.301 617.331 C 231.298 616.239 230.611 614.667 230.234 612.609 C 229.859 610.552 229.608 608.575 229.483 606.681 C 229.358 604.785 229.295 602.728 229.295 600.51 C 229.295 598.293 229.277 596.897 229.242 596.325 C 229.492 596.217 229.814 596.11 230.208 596.002 C 230.602 595.895 231.308 595.806 232.328 595.734 C 233.347 595.662 234.259 595.751 235.064 596.002 C 235.868 596.252 236.638 596.87 237.371 597.852 C 238.104 598.838 238.524 600.152 238.633 601.797 C 239.026 606.985 239.491 610.437 240.027 612.152 C 240.635 611.617 241.208 611.026 241.745 610.382 C 242.496 609.452 243.121 608.469 243.622 607.431 C 244.194 606.287 244.695 605.017 245.125 603.622 C 245.125 603.55 245.16 603.406 245.232 603.191 C 244.982 603.085 244.32 602.691 243.247 602.013 C 242.566 601.511 241.977 600.993 241.477 600.457 C 240.904 599.849 240.42 599.097 240.027 598.202 C 239.92 597.916 239.831 597.433 239.759 596.752 C 239.759 596.288 239.847 595.751 240.027 595.143 C 240.384 594.142 241.065 593.354 242.066 592.783 C 243.032 592.175 244.105 591.943 245.286 592.085 C 245.858 592.192 246.412 592.406 246.949 592.728 C 247.379 593.017 247.789 593.426 248.183 593.962 C 248.433 594.321 248.683 594.822 248.935 595.464 L 249.256 596.914 C 249.292 597.237 249.31 597.701 249.31 598.309 L 249.31 599.007 C 249.274 599.186 249.256 599.402 249.256 599.65 C 249.149 600.795 248.988 601.905 248.773 602.976 C 248.917 603.05 249.113 603.13 249.363 603.219 C 249.613 603.309 250.07 603.415 250.732 603.54 C 251.393 603.667 251.993 603.675 252.53 603.569 C 253.066 603.461 253.62 603.138 254.193 602.602 C 254.764 602.066 255.177 601.295 255.427 600.295" style="fill:#111011;fill-opacity:1;fill-rule:nonzero;stroke:none" id="path90"/>
  <path d="M 263.745 600.885 C 263.53 600.885 263.332 600.885 263.154 600.885 C 262.974 600.885 262.698 600.983 262.321 601.181 C 261.946 601.376 261.616 601.654 261.329 602.013 C 261.043 602.37 260.739 602.951 260.418 603.756 C 260.095 604.561 259.845 605.518 259.667 606.627 C 262.312 606.805 264.101 605.947 265.032 604.051 C 265.174 603.728 265.281 603.345 265.354 602.898 C 265.425 602.45 265.336 602.003 265.086 601.555 C 264.834 601.109 264.388 600.885 263.745 600.885 Z M 274.851 600.67 L 275.924 601.528 C 272.954 607.074 269.217 611.313 264.709 614.245 C 260.881 616.75 257.644 617.59 254.997 616.767 C 252.243 615.874 251.027 613.281 251.349 608.987 C 251.384 608.415 251.457 607.825 251.564 607.217 C 251.885 605.393 252.467 603.818 253.307 602.495 C 254.148 601.173 255.078 600.18 256.097 599.517 C 257.117 598.854 258.208 598.373 259.371 598.069 C 260.532 597.764 261.561 597.622 262.457 597.638 C 263.35 597.657 264.101 597.756 264.709 597.934 C 265.496 598.185 266.141 598.623 266.642 599.247 C 267.142 599.874 267.428 600.688 267.5 601.688 C 267.571 602.691 267.213 603.818 266.427 605.071 C 265.174 607.11 262.849 608.074 259.452 607.967 C 259.057 611.51 259.827 613.137 261.759 612.851 C 263.868 612.528 266.82 610.311 270.612 606.197 C 272.794 603.801 274.207 601.958 274.851 600.67" style="fill:#111011;fill-opacity:1;fill-rule:nonzero;stroke:none" id="path92"/>
  <path d="M 280.859 594.661 C 282.075 592.98 282.827 591.066 283.113 588.919 L 283.113 588.597 C 283.113 588.418 283.121 588.231 283.139 588.034 C 283.158 587.838 283.158 587.57 283.139 587.23 C 283.121 586.89 283.095 586.55 283.06 586.21 C 283.023 585.87 282.97 585.504 282.898 585.11 C 282.827 584.717 282.746 584.331 282.658 583.957 C 282.568 583.58 282.433 583.205 282.255 582.828 C 282.075 582.454 281.879 582.105 281.664 581.783 C 281.306 586.54 281.037 590.834 280.859 594.661 Z M 278.605 616.607 C 278.069 616.857 277.479 616.982 276.834 616.982 C 276.727 617.018 276.548 617.035 276.298 617.035 L 276.245 617.035 C 272.989 617.001 271.667 609.202 272.274 593.64 C 272.417 590.458 272.685 586.416 273.079 581.516 C 273.436 578.01 273.794 575.881 274.152 575.129 C 274.582 574.306 275.225 573.913 276.083 573.949 C 277.299 573.949 278.534 574.378 279.786 575.237 C 280.823 575.917 281.772 576.918 282.63 578.24 C 283.56 579.851 284.186 581.73 284.508 583.875 C 285.116 587.846 284.651 591.228 283.113 594.018 C 282.469 595.197 281.682 596.252 280.753 597.183 C 280.573 601.152 280.519 604.659 280.591 607.699 C 280.698 609.417 280.894 610.409 281.181 610.678 C 281.467 610.946 282.147 610.758 283.22 610.114 C 284.686 609.185 286.073 607.976 287.378 606.493 C 288.685 605.009 289.623 603.764 290.195 602.763 L 291.055 601.261 L 292.557 601.851 C 292.449 602.173 291.984 602.969 291.161 604.239 C 290.338 605.509 289.311 606.966 288.076 608.611 C 286.842 610.257 285.347 611.858 283.596 613.414 C 281.842 614.97 280.18 616.034 278.605 616.607" style="fill:#111011;fill-opacity:1;fill-rule:nonzero;stroke:none" id="path94"/>
</svg>
