<?xml version="1.0" encoding="utf-8"?>
<svg version="1.1" id="svg2" width="587.94666" height="713.37335" viewBox="142.644 0 445.302 713.373" xmlns="http://www.w3.org/2000/svg">
  <g id="g8" transform="matrix(1.3333333,0,0,-1.3333333,0,713.37333)">
    <g id="g10" transform="scale(0.1)">
      <path d="m 1640.37,3149.52 c 43.1,0.57 88.18,0.15 126.37,-19.85 -11.91,32.14 -22.28,64.85 -31.06,97.98 -29.1,-10.25 -60.79,-8.84 -91.65,-8.93 -58.5,-0.17 -116.99,-6.22 -174.29,-18.03 -32.57,-6.71 -66.94,-16.6 -88.28,-42.09 -1.95,-2.32 -3.84,-4.91 -4.2,-7.92 -0.39,-3.17 0.95,-6.27 2.26,-9.18 3.26,-7.22 10.08,-33.23 16.76,-36.5 8.24,-4.04 19.8,5.96 28.02,9.76 22.36,10.34 46.07,17.5 70.15,22.54 48.02,10.05 97.06,11.19 145.92,12.22" style="fill:#5dcbf5;fill-opacity:1;fill-rule:nonzero;stroke:none" id="path12"/>
      <path d="m 2821.54,3103.19 c 32.13,-7.63 65.23,-17.66 89.09,-40.48 0.51,41.96 -7.42,84.01 -23.18,122.89 -2.04,5.03 -4.63,10.44 -9.59,12.62 -3.02,1.32 -6.44,1.21 -9.72,1.08 -130.21,-5.18 -260.41,-10.36 -390.62,-15.55 -2.1,-0.08 -4.33,-0.2 -6.08,-1.38 -1.95,-1.31 -2.9,-3.65 -3.69,-5.86 -10.52,-29.26 -17.15,-68.51 -7.43,-98.77 24,0.55 57.34,23.87 82.21,30.55 30.55,8.21 62.02,12.67 93.58,14.24 62.29,3.1 124.89,-4.95 185.43,-19.34" style="fill:#5dcbf5;fill-opacity:1;fill-rule:nonzero;stroke:none" id="path14"/>
      <path d="m 2296,2204.01 c 16.96,-43.26 8.92,-98.53 -27.86,-126.92 29.32,0.54 58.64,1.07 87.96,1.61 23.73,25.82 42.18,56.48 53.87,89.54 3.3,9.33 6.09,19.04 5.75,28.92 -0.5,14.37 -7.63,27.77 -16.57,39.04 -22.18,27.95 -81.51,66.61 -119.96,61.37 -69.53,-9.48 2.3,-56.54 16.81,-93.56" style="fill:#5dcbf5;fill-opacity:1;fill-rule:nonzero;stroke:none" id="path16"/>
      <path d="m 3132.9,1586.09 c 46.89,104.99 80.01,216.12 98.25,329.65 2.93,18.3 6.01,37.81 18.38,51.6 7.92,8.82 18.81,14.29 29.42,19.55 33.35,16.53 66.69,33.06 100.03,49.58 1.95,-40.87 15.31,-97.43 7.37,-137.11 -7.41,-37.04 -42.75,-65.42 -67.9,-94.53 -54.87,-63.48 -151.6,-142.35 -185.55,-218.74" style="fill:#5dcbf5;fill-opacity:1;fill-rule:nonzero;stroke:none" id="path18"/>
      <path d="m 1461.36,4633.45 c 100.9,35.6 201.29,72.63 301.13,111.08 9.62,3.7 19.75,7.81 25.87,16.1 5.82,7.91 6.95,18.22 7.88,28 5.56,58.51 11.13,117.02 16.69,175.53 -65.74,-16.28 -130.86,-35.05 -195.18,-56.27 -118.94,-39.24 -129.68,-162.44 -156.39,-274.44" style="fill:#5dcbf5;fill-opacity:1;fill-rule:nonzero;stroke:none" id="path20"/>
      <path d="m 2835.43,4868.05 c 17.57,7.38 35.56,14.78 54.57,16.06 26.71,1.8 52.56,-8.6 77.25,-18.94 106.5,-44.6 219.84,-98.89 272.3,-201.75 -147.16,-15.87 -294.32,-31.75 -441.48,-47.62 -154.27,-16.64 -310.23,-33.66 -456.36,-85.86 -88.12,-31.33 -166.86,-18.83 -258.32,-10.09 102.17,58.04 206.98,93.16 311.2,145.4 144.62,72.52 291.68,140.16 440.84,202.8" style="fill:#5dcbf5;fill-opacity:1;fill-rule:nonzero;stroke:none" id="path22"/>
      <path d="m 2534.85,2707.51 c -14.63,-8.53 -29.25,-17.06 -43.88,-25.59 -6.12,18.37 -58.67,119.1 -48.16,124.95 34.49,19.16 79.94,-106.42 92.04,-99.36" style="fill:#5dcbf5;fill-opacity:1;fill-rule:nonzero;stroke:none" id="path24"/>
      <path d="m 1529.8,225.82 c 83.78,37.282 141.61,118.442 171.64,205.09 30.02,86.653 35.84,179.52 41.4,271.051 2.89,47.418 -56.9,63.371 -85.81,35.039 -32.51,-31.852 -45.48,-120.148 -58.1,-162.781 -17.1,-57.739 -31.5,-116.289 -43.14,-175.379 -3.91,-19.848 -14.45,-167.891 -25.99,-173.02" style="fill:#5dcbf5;fill-opacity:1;fill-rule:nonzero;stroke:none" id="path26"/>
      <path d="m 1957.86,1354.13 c 4.94,-9.43 10.67,-19.77 20.76,-23.16 5.04,-1.7 10.5,-1.38 15.8,-1.03 100.47,6.48 200.93,12.96 301.4,19.44 -5.52,63.25 -20.32,125.68 -43.79,184.67 -1.79,4.49 -3.73,9.11 -7.26,12.41 -6.15,5.74 -15.43,6.11 -23.84,6.14 -53.29,0.22 -106.58,0.44 -159.86,0.66 -43.18,0.18 -116.73,14.2 -156.83,-2.15 -86.75,-35.38 27.07,-146.37 53.62,-196.98" style="fill:#b82327;fill-opacity:1;fill-rule:nonzero;stroke:none" id="path28"/>
      <path d="m 3020.87,2353.51 c 29.42,188.48 84.35,371.9 139.12,554.63 6.91,23.04 13.84,46.16 23.85,68.03 28.26,61.74 81.55,111.58 145.04,135.65 -33.85,-12.84 -13.34,-200.38 -8.7,-229.41 8.92,-55.73 18.86,-88.56 -9.75,-140.42 -76.46,-138.57 -187.91,-267.9 -289.56,-388.48" style="fill:#b82327;fill-opacity:1;fill-rule:nonzero;stroke:none" id="path30"/>
      <path d="m 3849.4,2799.42 c -47.32,13.87 -100.45,6.42 -142.13,-19.93 -40.29,-25.48 -68.38,-66.2 -105.32,-96.35 -14.51,-11.84 -30.82,-22.52 -40.21,-38.72 -10.88,-18.75 -29.12,-102.02 -4.14,-116.02 23.67,-13.28 85.34,55.6 102.32,70.78 20.5,18.33 180.54,202.86 189.48,200.24" style="fill:#b82327;fill-opacity:1;fill-rule:nonzero;stroke:none" id="path32"/>
      <path d="m 3657.67,3545.23 c 10.25,-51.43 16.53,-103.65 18.78,-156.05 40.72,33.53 86.22,61.24 134.7,82.03 -18.15,-97.42 -36.29,-194.84 -54.44,-292.26 -4.71,-25.26 -9.6,-51.04 -22.19,-73.43 -37.32,-66.34 -128.14,-82.53 -176.45,-141.35 -5.54,12.61 -11.09,25.21 -16.63,37.82 -35.03,-54.69 -70.06,-109.38 -105.08,-164.06 -27.2,41.85 -23.56,96.05 -16.38,145.44 14.23,97.99 38.51,194.51 72.32,287.58 -36.52,-21.28 -70.33,-47.2 -100.36,-76.96 16.28,63.54 26.64,128.6 30.9,194.05 81.86,51.18 159.06,97.05 234.83,157.19" style="fill:#b82327;fill-opacity:1;fill-rule:nonzero;stroke:none" id="path34"/>
      <path d="m 1606.25,3303.79 c 4.44,-4.86 9.01,-9.83 14.88,-12.82 21.31,-10.85 46.62,8.69 70.23,4.91 15.43,-2.47 27.37,-14.41 38.16,-25.72 32.77,-34.35 65.88,-69.18 89.13,-110.56 13.4,-23.86 23.32,-49.56 36.89,-73.32 29.15,-51.05 73.85,-91.08 117.77,-130.16 4.44,-3.96 11.11,-8.05 15.76,-4.33 1.84,1.48 2.71,3.82 3.49,6.05 7.53,21.33 15.06,42.66 22.59,63.98 3.84,10.87 7.73,22.19 6.49,33.65 -1.4,12.83 -9.01,24 -16.39,34.58 -62.59,89.71 -125.18,179.43 -187.77,269.14 -5.47,7.84 -11.33,16.01 -19.96,20.11 -8.26,3.92 -17.83,3.52 -26.97,3.03 -53.64,-2.84 -107.28,-5.69 -160.92,-8.53 -15.05,-0.8 -50.42,5.6 -51.17,-13.32 -0.62,-15.59 38.19,-46.17 47.79,-56.69" style="fill:#b82327;fill-opacity:1;fill-rule:nonzero;stroke:none" id="path36"/>
      <path d="m 2411.44,3163.96 c 55.1,23.97 115.15,36.49 175.23,36.53 11.01,0.01 22.48,-0.3 32.46,4.37 6.46,3.02 11.81,7.93 17.11,12.72 79.67,72.03 170.34,131.88 267.89,176.83 -19.32,-9.66 -55.93,-7.78 -77.7,-10.8 -25.9,-3.6 -51.8,-7.21 -77.7,-10.81 -54.57,-7.59 -109.15,-15.17 -163.72,-22.76 -17.48,-2.43 -42.52,-1.01 -58.37,-9.62 -17.04,-9.26 -32.01,-35.61 -43.24,-50.74 -28.83,-38.88 -53.06,-81.16 -71.96,-125.72" style="fill:#b82327;fill-opacity:1;fill-rule:nonzero;stroke:none" id="path38"/>
      <path d="m 1774,2834.97 c -9.27,-2.23 -9.09,-15.6 -5.7,-24.52 3.38,-8.92 7.2,-20.55 -0.11,-26.69 -1.87,-1.57 -4.22,-2.44 -6.51,-3.29 -63.14,-23.21 -126.27,-46.42 -189.4,-69.63 22.85,8.4 36.19,61.82 61.44,77.08 39.01,23.6 97.37,29.6 140.28,47.05" style="fill:#b82327;fill-opacity:1;fill-rule:nonzero;stroke:none" id="path40"/>
      <path d="m 3157.46,1155.53 c -205.68,-69.93 -407.63,-150.85 -604.69,-242.288 43.72,20.289 95.48,113.088 129.55,149.848 47.45,51.19 96.71,100.79 147.87,148.28 50.5,46.9 69.31,60.27 132.22,32.52 65.35,-28.83 128.82,-61.29 195.05,-88.36" style="fill:#b82327;fill-opacity:1;fill-rule:nonzero;stroke:none" id="path42"/>
      <path d="m 3169.58,3268.6 c -10.86,48.9 -146.7,331.43 -146.7,331.43 -266.23,-23.09 -808.2,-218.69 -808.2,-218.69 l -14.94,-150.77 25.81,-12.23 80.14,88.29 c 0,0 104.59,6.8 282.53,-5.43 177.94,-12.22 445.53,13.58 445.53,13.58 l 119.53,-59.76 16.3,13.58" style="fill:#111011;fill-opacity:1;fill-rule:nonzero;stroke:none" id="path44"/>
      <path d="m 1566.84,3108.94 c 20.51,0 37.14,16.63 37.14,37.14 0,20.51 -16.63,37.13 -37.14,37.13 -20.51,0 -37.13,-16.62 -37.13,-37.13 0,-20.51 16.62,-37.14 37.13,-37.14" style="fill:#111011;fill-opacity:1;fill-rule:nonzero;stroke:none" id="path46"/>
      <path d="m 1682.32,2778.77 c 0,0 38.1,40.51 23.81,66.71 0,0 -51.06,-10.72 -106.51,-29.77 -55.44,-19.06 -116.17,-15.48 -116.17,-15.48 9.53,-23.82 48.82,-48.83 94.08,-41.68 45.25,7.14 104.79,20.22 104.79,20.22" style="fill:#111011;fill-opacity:1;fill-rule:nonzero;stroke:none" id="path48"/>
      <path d="m 2722.58,2757.31 c -1.43,10.17 -54.38,7 -108.76,8.43 -54.37,1.43 -125.92,42.32 -125.92,42.32 -28.62,33.73 -62.96,46.4 -62.96,46.4 l 41.49,-64.4 c 0,0 14.31,-38.63 120.21,-68.68 105.89,-30.05 137.37,25.76 135.94,35.93" style="fill:#111011;fill-opacity:1;fill-rule:nonzero;stroke:none" id="path50"/>
      <path d="m 2676,3077.03 c 18.84,0 34.12,15.28 34.12,34.12 0,18.84 -15.28,34.12 -34.12,34.12 -18.85,0 -34.12,-15.28 -34.12,-34.12 0,-18.84 15.27,-34.12 34.12,-34.12" style="fill:#111011;fill-opacity:1;fill-rule:nonzero;stroke:none" id="path52"/>
      <path d="m 2896,3004.1 c 2.2,3.1 38.4,53.4 37.2,81 l 26.4,-31.7 z m 9.5,-69.8 -285.2,-44.6 -33.7,21.7 278,32.5 95,71 z m -331.7,6 -84.7,74.6 c -37.3,67.4 0,151.6 0,151.6 0,0 31.8,-3.5 72,-6.1 -6.1,-17.7 -11.3,-42.1 -7,-68.5 8.4,-51.7 61.4,-113.1 168.5,-77 83.4,28.1 80,112.3 74.4,148.3 48.9,1.8 89.2,3.3 89.2,3.3 l 9.7,-95.1 -19.3,-42.1 c -24.1,-66.2 -98.7,-60.1 -154,-63.7 -55.3,-3.7 -148.8,-25.3 -148.8,-25.3 z m -129.3,107.4 -36,70.7 36.1,39.7 c -17.2,-46.2 -1.4,-105.5 -0.1,-110.4 z m 162.2,110.5 c 17,-0.5 34.1,-0.7 49.7,-0.1 27,0.9 67.4,2.4 106.8,3.8 -1.4,-34.4 -9.7,-108.4 -52.7,-127 -56.5,-24.5 -97.4,-6.8 -110.7,43.8 -8.4,32.3 -0.1,62.2 6.9,79.5 z M 2372.4,3045 c -6,15.6 16.9,40.1 16.9,40.1 l 8.4,-48.5 c 0,0 -19.3,-7.3 -25.3,8.4 z m 564.4,119.1 c -39.7,55.3 -51.8,54.2 -51.8,54.2 -51.7,-9.5 -351.3,2.4 -400.7,0 -49.3,-2.3 -75.8,-13.3 -99.6,-66.2 -23.9,-53 -56.8,-111.9 -30.3,-136 26.4,-24.1 60.5,0 60.5,0 0,0 39.3,-48.1 75.4,-92.1 36.1,-44 96.3,-69.5 96.3,-69.5 0,0 79.4,13.6 170.9,22 91.4,8.4 184.1,47.5 184.1,47.5 l 43.3,78.9 c 0,0 9.6,-12.1 34.9,-33.7 25.3,-21.7 27.7,15.6 27.7,15.6 0,0 -71,123.9 -110.7,179.3" style="fill:#111011;fill-opacity:1;fill-rule:nonzero;stroke:none" id="path54"/>
      <path d="m 1384.88,1530.88 h 113.28 l 75.76,611.31 -35.24,17.62 -153.8,-628.93" style="fill:#111011;fill-opacity:1;fill-rule:nonzero;stroke:none" id="path56"/>
      <path d="m 2718.15,1419.89 64.3,21.14 -128.61,718.78 c 0,0 35.24,-352.35 31.72,-429.86 -3.53,-77.51 32.59,-310.06 32.59,-310.06" style="fill:#111011;fill-opacity:1;fill-rule:nonzero;stroke:none" id="path58"/>
      <path d="m 2264.59,1633.87 c 61.63,12.05 281.35,8.03 281.35,8.03 l 22.77,25.46 c -97.8,37.51 -396.57,45.55 -396.57,45.55 l -30.81,38.85 -54.93,-34.83 -151.39,54.93 v -45.55 l -318.87,-34.83 14.74,-30.82 c 0,0 57.94,-5.98 126.24,-12.41 15.93,-35.6 43.55,-93.19 59.99,-104.15 24.11,-16.08 151.39,-9.38 230.44,-4.02 79.04,5.36 316.18,-9.2 316.18,-9.2 l -21.44,45.38 c 0,0 -490.35,-13.4 -522.5,6.7 -17.25,10.78 -27.9,38.87 -34.11,62.63 53.1,-4.88 108.39,-9.58 145.31,-11.72 92.44,-5.36 271.97,-12.06 333.6,0" style="fill:#111011;fill-opacity:1;fill-rule:nonzero;stroke:none" id="path60"/>
      <path d="m 2984.7,655.602 c -39.5,-33 -79.1,-64 -117.8,-91.704 C 2781,502.5 2694.1,434.699 2614.2,369.5 2422.1,212.902 2270.3,71.6016 2270.3,71.6016 L 2188.1,369.5 2097.3,698.801 c 25.1,-0.199 42.7,-0.199 49,-0.199 23.8,0 116.3,-15.403 191.3,28 32.1,18.597 104.5,77.597 176.9,138.898 52.3,16.801 144.8,48.199 254,92.199 49.5,19.903 128.7,52.501 216.2,88.601 213.4,88.2 476,197.8 476,197.8 l 38.6,-71.6 c 0,0 -255.9,-300.898 -514.6,-516.898 z M 2707.6,1033.5 c 0,0 194.1,179.1 277.1,256.8 10.1,9.5 18.6,17.5 24.9,23.5 57.4,54.6 114.2,116.3 137.3,160.4 23.1,44.2 70.1,223.6 101.6,323.1 10.7,33.6 28.9,103.1 48.3,180.3 16.3,6.9 35.5,15.5 55.9,25.9 l -75.5,-784.7 -292.5,-114 -351.5,-136.898 c 43.8,38.398 74.4,65.598 74.4,65.598 z m 669.8,1275.3 121.9,474.3 -0.2,0.3 c 49.8,58.7 158.5,181.6 216.1,209 76.3,36.2 150.7,74.4 202.2,-11.5 51.5,-85.8 26.7,-145 26.7,-145 0,0 -24.8,-103 -103,-169.8 0,0 64.8,121 61,188.4 -3.8,67.3 -43.9,113.1 -141.2,48.2 -97.3,-64.9 -261.6,-251.9 -261.6,-251.9 0,0 -30.3,-24.8 -16.9,-57.2 13.3,-32.4 40.1,-112.6 26.7,-133.6 -13.4,-20.9 -101.1,-93.4 -99.2,-122.1 1.9,-28.6 9.5,-146.9 9.5,-146.9 0,0 125.9,139.3 146.9,230.9 21,91.6 45.8,230.8 45.8,230.8 l 200.4,105 c 0,0 -28.7,-255.7 -106.9,-349.2 -78.2,-93.5 -116.4,-82 -183.1,-179.3 -57,-83 -134.7,-171.3 -215.5,-211 35,140.8 70.4,290.6 70.4,290.6 z m 83.5,1135.1 c 0,0 7.3,88.5 14.7,228.5 7.4,140.1 23.7,233.5 23.7,233.5 -32.5,263.5 37.8,339.1 37.8,339.1 l 31.9,-137.7 v -199 l -69.7,-499.1 -80.2,-179 z m 339.1,501.3 v -390.7 l -36.9,-221.2 -49.9,-147.4 -31.2,-91 -55.5,-34.9 94.8,260.1 22.2,268.8 z m -34.4,280.1 c 0,0 -14.8,-314.3 -98.3,-625.3 C 3583.7,3289.1 3456,2900.9 3456,2900.9 v 64.2 l 90.9,281.1 68.8,610.5 h 31.9 c 0,0 -27,331.7 0,471.8 l 27.1,-317 44.2,-9.8 -22.1,516 c 0,0 88.4,-86 103.2,-272.7 z m -371.1,378.4 c -54,51.6 -189.2,142.5 -189.2,142.5 0,0 -95.9,-19.3 -220.6,-44.6 -160,-32.3 -367.2,-74.4 -479.3,-97.9 -199.4,-41.8 -285.4,-86 -285.4,-86 0,0 -334.2,95.8 -395.6,181.8 0,0 12.3,275.2 319.4,555.4 0,0 518.5,78.6 761.8,0 30.6,-9.9 56.7,-18.9 79.1,-27.2 155.8,-57.5 132.8,-77.9 188.7,-90.8 63.9,-14.7 56.5,-61.4 147.4,-88.5 90.9,-27 277.6,-201.7 392.4,-179.3 0,0 167.9,-162.2 204.7,-466.9 36.9,-304.7 0,-550.4 0,-550.4 0,0 -7.4,579.9 -117.9,815.8 l -51.6,-9.8 29.5,-196.6 c 0,0 -81.1,108.1 -88.5,159.7 -7.4,51.6 -31.9,132.7 -145,196.6 0,0 -103.2,137.6 -221.1,142.5 l 4.9,-36.9 c 0,0 184.3,-90.9 240.8,-167.1 56.5,-76.1 59,-185.2 59,-185.2 0,0 -44.3,148.4 -208.9,219.6 -164.6,71.3 -307.1,125.4 -307.1,125.4 l -24.6,-22.2 c 0,0 162.2,-152.3 292.4,-196.5 130.2,-44.3 189.2,-164.7 189.2,-164.7 v -184.2 c 0,0 -120.4,203.9 -174.5,255.5 z M 2054.2,647.402 c 0,0 -55.9,-97.8 -85.3,-176.004 -8.5,-22.699 -44.6,-60.199 -92.9,-101.898 -118,-101.898 -309.2,-229.301 -351.6,-229.301 0,0 97.5,129.102 163.6,229.301 27.5,41.898 49.6,78.699 56.8,98.902 24.2,68.598 12.6,241.399 12.6,241.399 10.4,-1.199 21.6,-2.102 33.7,-2.801 89.7,-5 191.2,-7.098 263.1,-7.898 z M 1761.6,3078.8 c 11.9,20.3 12.6,60.3 12.6,60.3 l 24.6,-41.4 z m -387.9,50.3 c 1.8,-9.9 4.2,-22.9 6.1,-34.2 3.5,-21.8 22.4,-53.2 65.1,-88.3 42.8,-35 82.7,-42.7 104.4,-41.3 21.8,1.4 75.7,28.7 98.1,34.3 22.4,5.6 50.5,0 50.5,0 0,0 26.6,7 60.2,29.5 33.7,22.4 58.2,44.1 58.2,44.1 0,38.6 -35.4,102.1 -54.2,133.1 0.1,0 0.2,0 0.2,0 l -4.2,23.9 c 0,0 47.7,-65.2 71.5,-126.2 23.8,-60.9 16.1,-64.4 0,-64.4 -16.1,0 -27.3,0 -27.3,0 l -73.6,-61 c 0,0 -120.5,-23.1 -193.4,-23.1 -72.9,0 -88.3,11.9 -88.3,11.9 l -92.5,136.6 c 0,0 8.3,11.2 19.2,25.1 z m 50.9,52.7 c 3,0.3 20.7,1.6 46.3,3.5 -4.9,-18.2 -9.2,-42.6 -4.3,-63.7 9.2,-39.3 70.1,-81.3 114.3,-77.8 44.1,3.5 74.2,24.5 81.2,70.7 4.8,31.4 -8.8,65 -18.1,83.4 36.7,2.6 69.7,5 91.5,6.5 6,-12.2 13.3,-32.2 14.9,-59 2.8,-47 -18.9,-84.8 -18.9,-84.8 0,0 -149.2,-46.3 -203.9,-55.4 -54.6,-9.1 -90.4,33 -107.2,52.6 -15.1,17.6 -22.3,54.8 -32,89.5 14.6,17.6 29.8,33.9 36.2,34.5 z m 74.7,5.6 c 37.6,2.7 84.2,6.1 127.7,9.2 9.9,-40.9 4.8,-104.8 -37.7,-117.8 -48.4,-14.7 -86.9,10.5 -98.8,47 -7,21.4 1,45.4 8.8,61.6 z m 268.6,1598.1 c 0,0 -346.5,-98.3 -437.4,-226 l 2.5,54 -118,-95.8 c 0,0 115.5,312.1 479.2,346.5 l -118,-98.3 208.9,46.7 z m 1693.5,-3338.6 24,647.5 c 9.2,8.9 17.8,18.2 25.6,27.9 85.9,106.9 99.2,148.9 99.2,148.9 0,0 169.8,70.6 190.8,232.7 0,0 209.9,200.4 206.1,358.7 -3.6,147.4 -86.5,227 -187.2,237.3 22,119.3 170.6,931.4 187.2,1147.5 18,233.4 -194.8,678.2 -194.8,678.2 0,0 -472.9,282.4 -827.6,380.2 -21.1,5.8 -41.8,11 -61.9,15.4 -97.3,21.3 -197.3,29.1 -291.4,29.1 -252.9,0 -463,-56.1 -463,-56.1 -123.9,-49.9 -208.3,-145.7 -265.6,-247.5 -178.6,-51.6 -171.4,-83.6 -338.9,-149.3 -172,-67.6 -243.2,-121.7 -371,-326.6 -79.8,-127.9 -105.9,-238.5 -115.5,-371 -5.7,-79.8 -5.5,-167.5 -7.4,-271.8 -4.9,-277.7 98.3,-393.2 98.3,-393.2 56.5,-98.3 35.8,-297.4 35.8,-297.4 l 31.2,-19.1 108.7,97.8 c 131.8,39.4 622.1,2.8 622.1,2.8 l 61.1,-85.6 c 0,0 13.6,-10.9 28.6,0 14.9,10.9 0,182 0,182 l -36.7,36.7 c 0,0 -114.1,24.4 -202.4,24.4 -88.3,0 -249.9,-16.3 -319.2,-24.4 -69.3,-8.2 -167.1,6.8 -201,-24.5 -14.7,-13.5 -33.9,-50.7 -51,-88.7 l 8.8,90.4 c 0,0 -34.4,164.6 -95.8,280.1 -61.4,115.5 -44.2,203.9 -4.9,434.8 3.3,19.6 7,38.2 11.2,55.7 44.4,188.5 136.9,261.8 329,371 152.2,86.5 252.2,121.7 295.7,134.5 -3.3,-22.3 -4.4,-35.3 -4.4,-35.3 0,0 51.6,-63.8 218.7,-132.6 167.1,-68.8 270.3,-59 270.3,-59 147,42.5 494.3,67.5 710.6,79.6 109.1,6.1 184.9,8.8 184.9,8.8 l 158.6,-63.8 c 0,0 100.7,-398.1 105.6,-562.7 5,-164.7 9.9,-410.4 0,-463.9 -9.8,-53.5 -172.4,-454 -172.4,-454 0,0 23.3,-190 133.3,-300 l -253.3,-1053.3 -120,493.3 60,480 c 0,0 133.3,319 126.7,401.2 l -223.4,-297.8 v -536.7 l 66.7,-403.3 -66.7,-406.5 -6.6,-40.2 c 0,0 -286.7,-263.3 -393.4,-366.698 -106.6,-103.3 -236.6,-246.601 -420,-243.3 -183.3,3.3 -376.6,-3.301 -376.6,-3.301 0,0 -150,23.301 -200,150 -50,126.599 -286.7,653.299 -286.7,653.299 0,0 33.8,281.5 58.6,395.9 24.4,112.7 78.4,508.3 80,520.6 l -69.3,-137.1 c 0,0 2.7,347.3 38.9,387.3 0,0 -7.2,11.7 -17.4,30 -21.7,39 -56.8,108.3 -64.6,158.9 -6.5,42.2 1.2,122.3 15.6,192.4 3.3,-11.8 9.8,-30.2 22.6,-58.2 28,-61.7 79.1,-98.1 79.1,-98.1 0,0 32.3,-16.8 125.4,-16.8 93.2,0 186.4,25.9 186.4,25.9 0,0 13.3,11.9 33.7,41.3 20.3,29.5 41.3,28.1 41.3,28.1 0,0 -2.8,-26 32.9,-7.1 35.8,19 -9.8,90.4 -28.7,131.8 -18.9,41.3 -48.3,92.5 -65.2,100.2 -16.8,7.7 -84.7,-9.1 -84.7,-9.1 0,0 -258.6,-13.3 -283.8,-24.6 l -50.4,-76.4 c 9.7,37.5 21.2,68.8 33.1,84.2 59.1,56.7 377.3,59.8 474.7,43.2 l 148.3,-231.1 c 0,0 -84.3,-123.8 -163.2,-284.6 -41.7,-84.9 -82,-180.2 -107.4,-273.1 -73.6,-268.5 -82.9,-365.9 15.6,-418.8 0,0 37.3,-31.1 73.6,-31.1 36.2,0 484.1,30.1 484.1,30.1 0,0 67.3,3.1 94.3,73.6 26.9,70.4 2.1,154.4 -102.6,176.2 -104.7,21.7 -181.4,11.4 -206.3,-50.8 -24.9,-62.2 40.4,-60.1 49.7,-17.6 9.4,42.5 33.5,69.8 130.6,52.8 97.2,-16.9 114.1,-75.6 106.8,-111.9 -7.2,-36.3 -20.7,-89.2 -118.2,-86.1 -97.4,3.2 -451.9,-4.1 -451.9,-4.1 0,0 -59.1,205.2 -3.1,384.6 23.9,76.5 61.5,176.3 103,276.2 55.8,133.9 119,267.9 166.5,345.7 0,0 -79.8,86.1 -115.1,108.9 -35.2,22.8 -100.5,118.1 -100.5,118.1 0,0 -141,6.2 -249.8,-6.2 -108.9,-12.4 -229.1,-34.2 -229.1,-34.2 0,0 -21.3,-32.5 -40.2,-77.4 -18.9,-44.8 -53.9,-204.6 -56,-227.7 -2.1,-23.1 7,-117.6 31.5,-164.9 12.3,-23.8 20.9,-46.1 26.4,-62.3 5.4,-16.2 7.9,-26.4 7.9,-26.4 0,0 -2.1,-219.4 -11.2,-320.2 -9.1,-100.9 -19.6,-193.4 9.1,-194.1 0,0 -24.5,-152.1 -41.3,-240.4 -16.8,-88.3 -39.2,-229.8 -41.3,-252.2 -2.1,-22.4 -6.3,-151.4 16.1,-253.7 22.4,-102.3 85.5,-309.7 151.3,-430.2 65.9,-120.498 143.7,-218.6 164,-242.401 16.6,-19.5 33.3,-54.5 120.6,-71.199 24.4,-130.098 -78.1,-306.301 -78.1,-306.301 L 1620.9,369.5 1443.8,65.6992 C 1598,96.1016 1804.3,267.102 1914.4,369.5 c 41.2,38.301 68.9,66.898 75.4,75.102 23.9,29.8 64.4,161.097 64.4,161.097 L 2130.3,369.5 2249.4,0 c 0,0 203.1,189 417.8,369.5 111.7,93.902 226.6,185.5 317.5,247 0.5,0.402 1.1,0.699 1.6,1.102 103,69.398 210.4,169.8 303.4,266.699 94.9,19.301 314.2,59 427.4,39.898 146.9,-24.797 692.5,-49.597 692.5,-49.597 L 3461.4,1446.9" style="fill:#111011;fill-opacity:1;fill-rule:nonzero;stroke:none" id="path62"/>
      <path d="m 2505.38,4982.11 c -120.04,-2.46 -391.04,-93.38 -391.04,-93.38 49.14,-71.26 287.49,-76.17 287.49,-76.17 0,0 250.63,29.49 366.12,51.6 115.49,22.11 111.39,71.26 111.39,71.26 -208.04,-17.2 -253.91,49.14 -373.96,46.69" style="fill:#111011;fill-opacity:1;fill-rule:nonzero;stroke:none" id="path64"/>
      <path d="m 3264.3,5023.88 c 0,0 -152.34,78.63 -302.23,110.57 -149.89,31.94 -375.95,-31.94 -375.95,-31.94 19.66,-68.8 167.09,-39.73 167.09,-39.73 81.08,-81.49 287.49,-38.9 287.49,-38.9 l 206.4,-41.71 17.2,41.71" style="fill:#111011;fill-opacity:1;fill-rule:nonzero;stroke:none" id="path66"/>
      <path d="m 2675.7,3119.35 c 0,-4.53 -3.67,-8.2 -8.2,-8.2 -4.53,0 -8.2,3.67 -8.2,8.2 0,4.52 3.67,8.19 8.2,8.19 4.53,0 8.2,-3.67 8.2,-8.19" style="fill:#ffffff;fill-opacity:1;fill-rule:nonzero;stroke:none" id="path68"/>
      <path d="m 1568.09,3158.1 c 0,-6.64 -5.38,-12.02 -12.02,-12.02 -6.64,0 -12.02,5.38 -12.02,12.02 0,6.64 5.38,12.02 12.02,12.02 6.64,0 12.02,-5.38 12.02,-12.02" style="fill:#ffffff;fill-opacity:1;fill-rule:nonzero;stroke:none" id="path70"/>
    </g>
  </g>
</svg>