<?xml version="1.0" encoding="utf-8"?>
<svg viewBox="211.028 3553.18 1615.448 238.364" width="1615.452" height="238.365" xmlns="http://www.w3.org/2000/svg">
  <path d="m 1935.46,2398.5 c 0,-5.7 0,-9.5 0,-13.3 221.09,152.5 358.32,581.3 242.05,588.9 -121.98,7.7 -224.9,-482.2 -242.05,-575.6 z m 638.5,-99.1 c 0,0 -1.91,-3.8 -3.81,-11.4 -3.82,-7.6 -9.53,-17.2 -15.25,-30.5 -13.34,-24.8 -34.31,-61 -60.99,-104.8 -11.44,-21 -26.69,-43.9 -43.84,-68.6 -15.25,-22.9 -34.31,-47.7 -55.28,-72.5 -19.05,-22.9 -41.92,-47.6 -70.51,-70.5 -13.35,-11.4 -28.59,-21 -45.75,-30.5 -9.53,-3.8 -19.06,-7.6 -28.59,-9.5 -9.52,-3.8 -20.96,-5.7 -32.4,-5.7 -11.44,0 -22.87,1.9 -34.31,3.8 -3.81,1.9 -9.52,3.8 -15.24,5.7 l -1.91,1.9 h -1.91 l -1.9,1.9 h -1.91 l -1.9,1.9 h -1.91 l -1.91,1.9 c -5.71,1.9 -9.53,5.7 -13.34,7.6 -3.81,1.9 -7.62,5.8 -11.43,7.7 -7.63,5.7 -15.25,11.4 -20.97,17.1 -13.34,11.4 -26.68,22.9 -38.12,36.2 -11.43,13.4 -22.87,24.8 -32.4,38.1 -19.06,24.8 -38.12,51.5 -53.37,76.3 -15.24,24.8 -28.59,49.5 -41.93,70.5 -3.81,9.5 -9.53,19.1 -13.34,26.7 -1.91,-196.3 7.62,-352.6 41.93,-373.6 -22.87,-64.8 -148.67,-116.2 -213.47,-118.2 -339.26,-7.6 -72.42,1360.9 -125.79,1555.3 0,0 365.94,82 337.36,-270.6 -3.82,-51.5 -7.63,-110.6 -11.44,-175.4 62.9,135.4 158.19,259.2 285.89,242.1 230.63,-28.6 66.71,-524.2 -257.3,-745.2 9.53,-26.7 22.87,-61 40.02,-101.1 9.53,-20.9 19.07,-43.8 32.41,-68.6 11.43,-22.8 26.68,-49.5 41.92,-72.4 15.25,-24.8 34.32,-47.7 53.37,-68.6 5.72,-5.7 11.44,-9.6 17.16,-15.3 1.91,-1.9 3.81,-3.8 7.62,-5.7 1.91,-1.9 5.72,-3.8 7.63,-5.7 l 1.9,-1.9 c 1.91,0 0,0 0,0 h 1.91 v -1.9 h 1.9 1.91 v -1.9 c 1.91,0 5.72,-1.9 7.62,-1.9 3.81,-1.9 9.53,-1.9 15.25,-1.9 9.53,0 20.97,1.9 34.31,7.6 11.44,5.7 22.87,13.3 36.21,20.9 22.87,19.1 43.84,40.1 62.9,61 20.96,22.9 38.12,45.8 55.28,66.8 15.24,22.8 30.49,43.8 43.83,64.8 26.68,40 45.75,76.2 60.99,101 5.72,11.4 11.44,20.9 15.25,28.6 3.81,5.7 5.72,9.5 5.72,9.5 l 41.93,-21" style="fill:#100f0d;fill-opacity:1;fill-rule:nonzero;stroke:none" id="path14" transform="matrix(0.133333, 0, 0, -0.133333, 0, 4000)"/>
  <path d="m 2831.24,2430.9 c 3.81,-7.6 9.53,-13.3 15.24,-19 9.54,-9.5 19.07,-17.2 32.41,-22.9 5.71,-3.8 13.34,-7.6 20.96,-9.5 7.63,-1.9 15.25,-5.7 24.78,-5.7 15.25,-3.8 30.5,-5.8 45.75,-5.8 -7.63,43.9 -26.69,76.3 -57.19,85.8 -24.77,7.6 -53.36,-1.9 -81.95,-22.9 z m 123.89,-234.4 c 7.62,21 11.43,40 15.25,61 -19.07,-1.9 -40.03,-3.8 -59.09,-1.9 -13.35,1.9 -26.69,1.9 -40.03,5.7 -13.34,1.9 -26.68,5.7 -40.02,9.5 -24.78,7.7 -47.65,21 -66.71,34.3 -5.72,3.9 -11.44,7.7 -15.25,11.5 -7.62,-15.3 -13.34,-32.4 -19.06,-47.7 -38.12,-121.9 -19.06,-238.2 41.93,-257.3 62.9,-19 144.86,62.9 182.98,184.9 z m 461.24,257.3 c 0,0 -9.53,-7.6 -26.68,-19 -3.82,-3.9 -9.53,-5.8 -15.25,-9.6 -5.72,-3.8 -11.44,-7.6 -17.15,-11.4 -5.72,-3.8 -13.34,-7.6 -19.06,-11.4 -7.62,-5.8 -15.25,-9.6 -22.87,-15.3 -7.63,-3.8 -17.16,-7.6 -24.78,-13.3 -7.63,-5.8 -17.16,-9.6 -26.69,-15.3 -3.81,-1.9 -9.52,-5.7 -13.34,-7.6 -3.81,-1.9 -5.72,-1.9 -7.62,-3.8 -1.91,-1.9 -5.72,-1.9 -7.63,-3.8 -5.72,-1.9 -9.52,-3.8 -15.24,-7.7 -5.72,-1.9 -9.53,-3.8 -15.25,-7.6 -20.97,-9.5 -43.84,-19 -66.71,-28.6 -22.87,-9.5 -45.74,-17.1 -70.52,-24.8 -11.44,-1.9 -20.97,-5.7 -30.5,-7.6 -3.81,-22.8 -9.53,-45.7 -17.15,-68.6 -62.9,-198.2 -238.25,-320.2 -392.63,-270.6 -154.38,47.6 -226.81,247.7 -163.92,447.9 62.9,198.2 238.25,318.3 392.64,270.6 106.73,-34.3 175.35,-144.8 184.87,-274.4 1.91,0 3.82,0 5.72,0 20.97,3.8 43.84,7.6 64.81,13.3 20.96,3.8 43.83,11.4 62.89,17.2 5.72,1.9 11.44,3.8 15.25,5.7 5.72,1.9 11.44,3.8 15.25,3.8 3.81,1.9 5.72,1.9 7.62,3.8 1.91,0 5.72,1.9 7.63,1.9 3.81,1.9 9.52,3.8 13.34,5.7 9.53,3.8 19.06,7.6 28.59,11.5 7.62,1.9 17.15,5.7 24.78,9.5 7.62,3.8 15.24,7.6 22.87,9.5 7.62,3.8 15.25,7.6 20.97,9.5 5.71,3.9 13.34,5.8 17.15,9.6 5.72,1.9 11.43,3.8 17.15,5.7 17.16,9.5 28.59,15.2 28.59,15.2 l 22.87,-40" style="fill:#100f0d;fill-opacity:1;fill-rule:nonzero;stroke:none" id="path16" transform="matrix(0.133333, 0, 0, -0.133333, 0, 4000)"/>
  <path d="m 3723.21,2478.6 c -114.36,7.6 -209.66,-507 -209.66,-507 190.6,131.5 310.67,501.3 209.66,507 z m -297.33,-640.4 c -30.5,-13.4 -60.99,-17.2 -85.77,-17.2 -301.15,-7.6 -64.8,1332.3 -110.55,1503.8 0,0 324.02,72.5 299.24,-242 -15.25,-204 -41.93,-598.5 -40.03,-861.5 49.56,144.8 144.86,345 291.62,325.9 228.72,-30.5 7.62,-588.9 -354.51,-709" style="fill:#100f0d;fill-opacity:1;fill-rule:nonzero;stroke:none" id="path18" transform="matrix(0.133333, 0, 0, -0.133333, 0, 4000)"/>
  <path d="m 4152.05,2209.8 c 123.89,-7.6 171.54,53.4 190.6,91.5 13.34,26.7 28.59,110.6 -45.75,112.5 -22.87,1.9 -108.64,7.6 -144.85,-204 z m 577.51,181.1 c -322.11,-600.4 -960.61,-771.9 -865.31,-202 57.18,343.1 369.75,360.2 466.96,329.7 76.24,-24.8 144.85,-118.2 60.99,-253.5 -57.18,-93.4 -179.16,-104.8 -247.78,-102.9 -51.46,-459.3 480.31,122 547.02,259.2 l 38.12,-30.5" style="fill:#100f0d;fill-opacity:1;fill-rule:nonzero;stroke:none" id="path20" transform="matrix(0.133333, 0, 0, -0.133333, 0, 4000)"/>
  <path d="m 5488.1,2366.1 c -15.25,-45.7 -188.7,-819.5 -558.46,-802.4 -253.49,11.5 -116.26,543.2 -87.67,817.7 -423.13,9.5 -264.93,169.6 -304.96,301.1 0,0 276.37,118.2 257.31,-123.9 -3.81,-51.4 80.05,-49.5 81.95,-49.5 81.96,5.7 285.9,-7.6 255.41,-259.2 -40.03,-312.6 -93.39,-630.9 57.18,-468.9 150.57,160.1 238.24,613.7 238.24,613.7 0,0 76.24,17.2 61,-28.6" style="fill:#100f0d;fill-opacity:1;fill-rule:nonzero;stroke:none" id="path22" transform="matrix(0.133333, 0, 0, -0.133333, 0, 4000)"/>
  <path d="m 6122.78,2423.3 c 0,0 -247.78,-688 -621.35,-659.5 -188.69,7.7 -167.73,585.2 -141.04,1040.7 -22.88,-1.9 -43.84,-1.9 -62.9,-3.8 -20.97,0 -41.93,0 -60.99,-1.9 -38.12,0 -68.61,0 -89.58,0 -11.44,0 -20.97,0 -26.69,0 -5.71,0 -7.62,0 -7.62,0 l -5.72,59.1 c 0,0 3.81,0 9.53,1.9 5.72,0 13.35,1.9 24.78,3.8 20.97,3.8 51.46,7.6 89.58,13.3 17.15,1.9 38.12,5.8 59.09,7.7 20.96,3.8 43.83,5.7 66.71,7.6 3.81,1.9 5.71,1.9 7.62,1.9 13.34,209.6 22.87,381.2 9.53,434.6 0,0 324.01,72.4 299.24,-242.1 -1.91,-45.8 -5.72,-104.8 -9.53,-167.7 17.15,0 36.21,1.9 53.37,1.9 20.96,1.9 40.02,1.9 59.08,1.9 19.06,0 36.21,1.9 51.46,1.9 15.25,0 28.59,0 40.03,0 20.96,0 34.3,0 34.3,0 l 3.82,-59.1 c 0,0 -11.44,-3.8 -32.4,-7.6 -11.44,-1.9 -24.78,-3.8 -40.03,-5.7 -15.25,-1.9 -32.4,-5.8 -49.55,-7.7 -19.07,-1.9 -40.03,-5.7 -61,-7.6 -19.06,-1.9 -41.93,-5.7 -62.9,-7.6 -5.71,-102.9 -9.52,-219.2 -11.43,-331.7 1.91,-333.5 -19.06,-640.4 129.61,-518.4 125.79,101 303.04,474.6 303.04,474.6 l 41.94,-30.5" style="fill:#100f0d;fill-opacity:1;fill-rule:nonzero;stroke:none" id="path24" transform="matrix(0.133333, 0, 0, -0.133333, 0, 4000)"/>
  <path d="m 6601.1,1676.2 c 0,0 -116.27,310.6 133.42,324 327.82,15.2 402.15,41.9 362.13,118.2 -144.85,270.6 -840.53,375.4 -243.96,1042.5 15.24,15.3 41.93,43.9 74.33,70.5 55.27,43.9 131.51,85.8 207.75,61 121.98,-38.1 146.76,-139.1 116.27,-266.8 -32.41,-125.8 -55.28,-318.3 -55.28,-379.3 h -78.14 c 0,0 17.15,200.1 30.49,327.8 3.81,42 -43.83,-3.8 -97.2,-55.2 -478.4,-478.4 198.22,-629 221.09,-928.2 30.5,-367.9 -587.04,-274.5 -670.9,-314.5" style="fill:#100f0d;fill-opacity:1;fill-rule:nonzero;stroke:none" id="path26" transform="matrix(0.133333, 0, 0, -0.133333, 0, 4000)"/>
  <path d="m 7845.66,2293.7 c -30.49,0 -47.64,19.1 -47.64,19.1 0,0 38.12,108.6 -47.65,112.4 -20.97,1.9 -108.65,7.6 -144.86,-215.4 -78.14,-480.3 489.84,82 560.36,223 l 38.12,-30.4 c -322.11,-602.3 -968.24,-707.2 -884.38,-202.1 57.19,341.2 369.77,360.2 466.97,329.7 76.24,-24.7 121.98,-81.9 59.08,-236.3" style="fill:#100f0d;fill-opacity:1;fill-rule:nonzero;stroke:none" id="path28" transform="matrix(0.133333, 0, 0, -0.133333, 0, 4000)"/>
  <path d="m 9105.48,2377.6 c 0,0 -162.01,-459.4 -329.74,-425.1 -165.82,34.3 -102.92,617.6 -230.62,617.6 -129.61,0 -20.96,-737.6 -356.42,-730 -301.14,-7.6 -64.8,1332.3 -110.55,1503.8 0,0 324.02,72.4 299.24,-240.2 -13.34,-169.6 -34.3,-465 -40.02,-709 36.21,169.7 101.01,341.2 211.56,341.2 221.09,0 133.42,-659.5 243.97,-690 97.2,-26.7 276.36,343.1 276.36,343.1 l 36.22,-11.4" style="fill:#100f0d;fill-opacity:1;fill-rule:nonzero;stroke:none" id="path30" transform="matrix(0.133333, 0, 0, -0.133333, 0, 4000)"/>
  <path d="m 10092.7,2440.5 c -13.3,-47.7 -118.15,-676.7 -487.91,-676.7 -142.94,0 -181.06,146.8 -179.16,320.3 -55.27,-85.8 -135.32,-148.7 -247.77,-143 -303.06,11.4 -116.27,632.8 -139.14,712.8 0,0 287.8,53.4 255.4,-169.6 -41.93,-291.6 -53.37,-482.2 81.95,-343.1 133.42,137.3 102.93,442.2 102.93,442.2 0,0 325.92,72.4 301.14,-242 -24.77,-314.5 -68.61,-516.6 74.34,-350.7 142.94,167.7 175.32,474.5 175.32,474.5 0,0 76.3,21 62.9,-24.7" style="fill:#100f0d;fill-opacity:1;fill-rule:nonzero;stroke:none" id="path32" transform="matrix(0.133333, 0, 0, -0.133333, 0, 4000)"/>
  <path d="m 10380.5,2497.6 c 0,2 0,2 0,2 -1.9,0 0,0 0,-2 z m 1040.6,-135.3 c 0,0 -272.5,-579.4 -608,-579.4 -285.9,0 106.8,834.8 -120,789.1 -1.9,0 -1.9,-1.9 -1.9,-1.9 -17.2,-5.7 -36.3,-17.2 -53.4,-34.3 -17.2,-19.1 -34.3,-42 -47.7,-70.6 -13.3,-28.5 -24.7,-62.8 -34.3,-99.1 -7.6,-36.2 -15.2,-74.3 -22.8,-116.2 -2,-11.5 -3.9,-21 -5.8,-32.4 -1.9,-5.7 -1.9,-11.5 -3.8,-17.2 -1.9,-3.8 -3.8,-7.6 -3.8,-11.4 -1.9,-3.8 -3.8,-7.6 -7.6,-13.4 -1.9,-1.9 -5.7,-5.7 -9.5,-9.5 -3.9,-1.9 -5.8,-1.9 -9.6,-3.8 -1.9,0 -3.8,-1.9 -7.6,-1.9 0,0 -1.9,0 -3.8,0 -7.6,0 -15.2,1.9 -21,5.7 -3.8,1.9 -7.6,5.7 -9.5,7.6 -5.7,7.7 -7.6,11.5 -9.5,15.3 -1.9,3.8 -3.8,7.6 -3.8,11.4 -3.9,13.4 -5.8,24.8 -7.7,36.2 -3.8,22.9 -5.7,45.8 -9.5,68.6 -1.9,22.9 -3.8,43.9 -5.7,66.8 -3.8,20.9 -5.7,41.9 -9.5,62.9 -5.8,19 -9.6,40 -17.2,53.3 -1.9,3.8 -3.8,5.7 -5.7,7.6 -1.9,-1.9 -3.8,-3.8 -5.7,-5.7 -3.8,-7.6 -9.6,-15.2 -13.4,-22.8 -7.6,-15.3 -15.2,-34.4 -22.8,-51.5 -5.8,-17.2 -11.5,-36.2 -17.2,-53.4 -11.4,-36.2 -21,-70.5 -28.6,-102.9 -15.2,-62.9 -26.7,-118.2 -36.2,-156.3 -3.8,-24.8 -7.6,-43.8 -9.5,-53.4 -32.4,-133.4 -116.3,-150.5 -169.7,-152.4 -278.24,-7.7 -57.1,628.9 -100.98,817.6 0,0 299.28,80.1 276.38,-263 0,-17.1 -1.9,-34.3 -3.8,-49.5 5.7,13.3 9.5,26.6 15.2,41.9 7.6,19 17.2,40 28.6,61 5.7,9.5 11.4,20.9 21,32.4 3.8,5.7 9.5,9.5 15.2,15.2 5.7,5.7 13.4,11.5 24.8,17.2 3.8,1.9 11.4,3.8 17.2,3.8 1.9,0 3.8,0 5.7,1.9 h 1.9 1.9 l 3.8,-1.9 c 1.9,0 3.8,0 5.7,0 11.4,-1.9 22.9,-5.7 30.5,-11.4 9.5,-7.7 15.3,-13.4 21,-21 3.8,-7.6 7.6,-13.4 11.4,-21 5.7,-13.3 9.5,-24.8 13.4,-36.2 3.8,-13.3 5.7,-24.8 7.6,-36.2 3.8,-24.8 5.7,-47.7 7.6,-70.5 1.9,-22.9 3.8,-45.8 3.8,-66.7 0,-1.9 0,-3.8 0,-5.8 7.6,26.7 13.4,51.5 21,74.4 11.4,38.1 26.7,74.3 43.8,104.8 17.2,32.4 38.1,57.2 61,78.2 22.9,19 45.8,30.4 66.7,38.1 1.9,0 7.6,1.9 9.5,1.9 21,3.8 322.2,61 299.3,-242.1 -24.8,-314.5 -78.2,-487.9 93.4,-346.9 175.3,143 303,356.5 303,356.5 l 36.2,-7.7" style="fill:#100f0d;fill-opacity:1;fill-rule:nonzero;stroke:none" id="path34" transform="matrix(0.133333, 0, 0, -0.133333, 0, 4000)"/>
  <path d="m 11674.6,2307.1 c 3.8,38.1 7.6,74.3 13.3,108.6 -57.2,0 -232.5,-11.4 -236.3,-143 -5.7,-139.1 139.1,-57.1 223,34.4 z m 720.4,152.4 c 0,0 -186.7,-638.5 -577.5,-638.5 -150.5,0 -169.6,162 -158.2,345 -64.8,-62.9 -152.4,-125.8 -282.1,-104.8 -196.3,34.3 -152.4,293.5 13.4,396.4 122,76.3 249.7,64.8 306.9,55.3 3.8,51.5 3.8,97.2 -3.9,127.7 0,0 324.1,72.4 299.3,-242.1 -22.9,-314.4 -7.6,-487.9 114.3,-352.6 173.5,194.4 224.9,413.6 224.9,413.6 h 62.9" style="fill:#100f0d;fill-opacity:1;fill-rule:nonzero;stroke:none" id="path36" transform="matrix(0.133333, 0, 0, -0.133333, 0, 4000)"/>
  <path d="m 13065.9,2423.3 c 0,0 -83.9,-163.9 -118.2,-223 -15.2,-28.6 -34.3,-61 -59.1,-91.5 -13.3,-15.2 -26.6,-30.5 -43.8,-43.8 -3.8,-3.8 -9.5,-5.7 -13.3,-9.5 -5.8,-1.9 -9.6,-5.8 -15.3,-7.7 -3.8,0 -5.7,-1.9 -9.5,-3.8 h -5.7 c 0,-1.9 -1.9,-1.9 -1.9,-1.9 h -7.7 c 1.9,0 -1.9,0 -1.9,0 h -1.9 -1.9 c -1.9,0 -3.8,0 -5.7,0 -7.6,0 -15.2,1.9 -22.9,7.6 -7.6,3.9 -15.2,11.5 -19,19.1 -9.6,13.3 -11.5,28.6 -15.3,41.9 -3.8,26.7 -3.8,51.5 -3.8,74.4 1.9,47.6 5.7,93.4 9.5,139.1 1.9,22.9 3.8,45.8 3.8,66.7 0,21 0,41.9 -1.9,57.2 -1.9,7.6 -5.7,9.5 -9.5,11.4 -3.8,1.9 -11.4,-1.9 -15.2,-5.7 -3.8,-3.8 -7.7,-7.6 -11.5,-11.4 -9.5,-13.4 -19,-30.5 -26.7,-45.8 -9.5,-17.1 -17.1,-34.3 -24.7,-51.4 -13.4,-34.3 -26.7,-66.7 -36.2,-99.1 -21,-62.9 -36.3,-118.2 -45.8,-154.4 -5.7,-19.1 -17.1,-62.9 -17.1,-62.9 -34.3,-133.4 -114.4,-150.6 -165.9,-152.5 -278.2,-9.5 -57.1,592.8 -101,800.5 0,0 299.3,85.8 276.4,-289.7 0,-3.8 0,-7.6 0,-9.5 38.1,66.7 110.5,171.5 175.3,169.6 80.1,-1.9 64.8,-144.8 53.4,-238.2 0,-13.4 -1.9,-28.6 -3.8,-42 0,-3.8 0,-7.6 0,-11.4 -3.8,-24.8 -5.7,-49.6 -7.6,-72.4 0,-21 0,-43.9 1.9,-61 1.9,-7.6 3.8,-15.3 5.7,-19.1 1.9,-1.9 1.9,-1.9 1.9,-1.9 1.9,0 1.9,-1.9 3.8,-1.9 0,0 0,0 1.9,0 l 5.7,1.9 c 1.9,0 3.8,0 3.8,0 h 1.9 c 0,1.9 2,1.9 3.9,1.9 1.9,1.9 5.7,1.9 9.5,3.8 1.9,1.9 5.7,3.8 9.5,7.7 11.5,7.6 22.9,20.9 34.3,32.4 22.9,26.6 42,55.2 57.2,83.8 32.4,55.3 114.4,211.6 114.4,211.6 l 40,-19.1" style="fill:#100f0d;fill-opacity:1;fill-rule:nonzero;stroke:none" id="path38" transform="matrix(0.133333, 0, 0, -0.133333, 0, 4000)"/>
  <path d="m 13698.6,2423.3 c 0,0 -83.8,-163.9 -118.1,-223 -15.3,-28.6 -34.3,-61 -59.1,-91.5 -13.4,-15.2 -26.7,-30.5 -43.9,-43.8 -3.8,-3.8 -9.5,-5.7 -13.3,-9.5 -5.7,-1.9 -9.5,-5.8 -15.2,-7.7 -3.9,0 -5.8,-1.9 -9.6,-3.8 h -5.7 c 0,-1.9 -1.9,-1.9 -1.9,-1.9 h -7.6 c 1.9,0 -1.9,0 -1.9,0 h -1.9 -1.9 c -1.9,0 -3.9,0 -5.8,0 -7.6,0 -15.2,1.9 -22.8,7.6 -7.7,3.9 -15.3,11.5 -19.1,19.1 -9.5,13.3 -11.4,28.6 -15.2,41.9 -3.9,26.7 -3.9,51.5 -3.9,74.4 2,47.6 5.8,93.4 9.6,139.1 1.9,22.9 3.8,45.8 3.8,66.7 0,21 0,41.9 -1.9,57.2 -1.9,7.6 -5.7,9.5 -9.5,11.4 -3.9,1.9 -11.5,-1.9 -15.3,-5.7 -3.8,-3.8 -7.6,-7.6 -11.4,-11.4 -9.6,-13.4 -19.1,-30.5 -26.7,-45.8 -9.5,-17.1 -17.2,-34.3 -24.8,-51.4 -13.3,-34.3 -26.7,-66.7 -36.2,-99.1 -21,-62.9 -36.2,-118.2 -45.7,-154.4 -5.8,-19.1 -17.2,-62.9 -17.2,-62.9 -34.3,-133.4 -114.4,-150.6 -165.8,-152.5 -278.3,-9.5 -57.2,592.8 -101,800.5 0,0 299.2,85.8 276.3,-289.7 0,-3.8 0,-7.6 0,-9.5 38.1,66.7 110.6,171.5 175.4,169.6 80,-1.9 64.8,-144.8 53.3,-238.2 0,-13.4 -1.9,-28.6 -3.8,-42 0,-3.8 0,-7.6 0,-11.4 -3.8,-24.8 -5.7,-49.6 -7.6,-72.4 0,-21 0,-43.9 1.9,-61 1.9,-7.6 3.8,-15.3 5.7,-19.1 1.9,-1.9 1.9,-1.9 1.9,-1.9 1.9,0 1.9,-1.9 3.9,-1.9 0,0 0,0 1.9,0 l 5.7,1.9 c 1.9,0 3.8,0 3.8,0 h 1.9 c 0,1.9 1.9,1.9 3.8,1.9 1.9,1.9 5.7,1.9 9.5,3.8 1.9,1.9 5.8,3.8 9.6,7.7 11.4,7.6 22.8,20.9 34.3,32.4 22.8,26.6 41.9,55.2 57.2,83.8 32.4,55.3 114.3,211.6 114.3,211.6 l 40,-19.1" style="fill:#100f0d;fill-opacity:1;fill-rule:nonzero;stroke:none" id="path40" transform="matrix(0.133333, 0, 0, -0.133333, 0, 4000)"/>
</svg>