<?xml version="1.0" encoding="UTF-8" standalone="no"?>
<!-- Created with Inkscape (http://www.inkscape.org/) -->

<svg
   version="1.1"
   id="svg2"
   xml:space="preserve"
   width="632.97333"
   height="703.77332"
   viewBox="0 0 632.97333 703.77332"
   xmlns="http://www.w3.org/2000/svg"
   xmlns:svg="http://www.w3.org/2000/svg"><defs
     id="defs6" /><g
     id="g8"
     transform="matrix(1.3333333,0,0,-1.3333333,0,703.77333)"><g
       id="g10"
       transform="scale(0.1)"><path
         d="m 2212.81,3539.11 c 8.34,-4.95 13.16,-7.74 19.43,-13.57 27.44,-25.61 29.51,-21.21 45.84,-36.86 10,-9.42 13.87,-17.32 29.96,-29.6 1.67,-1.28 1.69,-1.16 6.45,-5.53 26.55,-24.51 38.71,-23.66 47.01,-44.39 6.74,-16.4 16.13,-36.23 27.56,-49.78 9.71,-22.95 39.02,-14.41 65.45,-10.71 4.1,0.37 7.38,0.39 11.08,1.14 11.19,2.14 21.05,27.82 22.58,37.82 2.29,14.82 -0.79,20.54 -0.11,41.98 -34.76,29.73 -44.8,37.57 -123.55,111.75 -7.48,0.41 -113.79,5.35 -121.48,3.2 -4.57,3.99 -21.16,16.63 -27.21,16.63 -7.25,0 -12.5,-6.58 -10.74,-13.68 1.2,-4.82 3.87,-6.13 7.73,-8.4"
         style="fill:#b82327;fill-opacity:1;fill-rule:nonzero;stroke:none"
         id="path12" /><path
         d="m 2335.77,3241.03 c -3.55,4.87 -10.75,6.12 -15.58,2.47 -6.08,-4.59 -12.49,-8.75 -19,-12.74 -6.24,-1.61 -11.93,-6.07 -17.51,-9.83 -52.73,-25.99 -361.25,-77.66 -413.94,-85.44 -10.01,1.34 -27.54,-7.05 -8.75,-29.46 6.79,-8.14 21.15,-24.55 29.89,-33.45 14.5,-25.79 22.12,-20.99 46.39,-11.11 128.36,52.03 356.66,130.1 375.79,150.96 14.55,8.38 31.17,16.95 22.71,28.6"
         style="fill:#b82327;fill-opacity:1;fill-rule:nonzero;stroke:none"
         id="path14" /><path
         d="m 1281.51,3071.77 c 1.44,-1.5 2.7,-2.09 4.38,-2.91 0.31,-19.07 1.74,-42.74 2.2,-47.06 -1.1,-6.16 1.02,-12.82 7.15,-15.46 2.3,-3.96 36.7,-21.68 41.67,-25.53 3.84,-12.05 22.13,-9.65 22.22,3.74 0.13,16.73 -0.79,33.67 -0.64,50.57 0.18,0.54 0.43,1.28 0.54,1.76 13.27,-9.21 17.72,-11.33 27.98,-18.12 -0.57,-1.9 -0.97,-2.89 -0.7,-5.17 -2.82,-10 -10.57,-38.39 -15.33,-57.49 -0.82,-3.32 0.03,-6.94 2.27,-9.69 0.62,-2.25 1.74,-4.04 3.14,-5.06 37.71,-27.61 54.07,-41.33 54.07,-41.33 5.46,-6.73 16.13,-4.73 18.66,1.8 2.83,7.27 7.74,20.02 10.47,27.47 6.32,-5.83 41.71,-37.63 50.13,-39.39 7.56,-8.67 22.07,-2.41 19.37,10.4 -10.5,49.07 -18.81,47.99 -70.31,159.21 -13.92,30.27 -23.95,45.01 -37.52,64.75 -37.48,54.68 -102.38,90.22 -123.74,90.22 -7.71,0 -14.68,-2.79 -21.31,-6.92 -27.94,-17.3 -28.37,-55.99 -32.71,-75.49 -3.9,-17.58 -8.33,-29.58 -2.13,-36.13 2.46,-6.76 9.74,-8.88 40.14,-24.17"
         style="fill:#b82327;fill-opacity:1;fill-rule:nonzero;stroke:none"
         id="path16" /><path
         d="m 1437.46,2698.61 c -11.29,10.43 -26.55,-6.1 -14.84,-16.45 -0.85,-5.25 0.96,-8.04 4.32,-12.26 10.48,-13.19 50,-95.61 91.48,-110.29 10.4,-3.63 22.67,-3.36 29.54,4.99 11.07,11.07 2.17,48.9 -3.52,64.65 -2.78,7.7 -6.33,14.62 -14.56,15.91 -27.06,13.3 -70.4,33.19 -92.42,53.45"
         style="fill:#b82327;fill-opacity:1;fill-rule:nonzero;stroke:none"
         id="path18" /><path
         d="m 3530.83,3328.73 c -16.55,-2.27 -21.17,-9.06 -46.42,-16.35 -21.67,-6.26 -59.51,-20.58 -69.52,-24.73 -38.67,-16.03 -34.51,-7.1 -89.16,-31.85 -30.23,-13.76 -84.38,-36.08 -141.25,-54.9 -13.73,1.34 -49.47,21.86 -68.97,32.24 -1.65,5.2 -7.35,9.1 -12.72,7.82 -58.62,-13.69 -121.31,-19.89 -151.08,-26.77 -10,0.56 -28.24,-5.32 -21.32,-22.63 3.96,-10.01 13.93,-30.88 27.91,-51.22 3.67,-5.37 18.04,-25.96 20.53,-31.88 -0.12,-2.82 1.01,-5.49 1.16,-5.49 4.14,-7.99 13.53,-8.08 18.98,-3.89 15.89,5.71 28.89,13.46 55.11,21.77 165.78,52.82 327.25,103 484.07,176.35 4.46,2.08 7.14,6.75 6.68,11.62 11.08,10.08 -0.86,25.64 -14,19.91"
         style="fill:#b82327;fill-opacity:1;fill-rule:nonzero;stroke:none"
         id="path20" /><path
         d="m 2452.62,2550.19 c -3.94,2.35 -11.03,1.11 -14.3,-4.42 -8.28,-0.96 -12.41,-10.77 -7.63,-17.47 11.19,-15.75 28.28,-38.54 44.24,-49.6 44.86,-31.3 146.13,-44 194.81,-32.47 -10.26,-120.05 -21.91,-132.39 39.23,-99.45 55.03,29.55 125.84,87.69 135.84,96.71 10.21,-0.33 128.8,78.39 134.83,85.15 5.88,6.64 1.31,18.16 -8.44,18.16 -6.7,0 -6.18,-2.85 -10.58,-5.63 -1.4,0.16 -6.9,-1.04 -9.07,-2.27 -51.74,-9.3 -46.72,-8.56 -63.97,-9.66 -293.74,-20.24 -256.82,-36.95 -402.72,6.49 -10.92,3.61 -16.17,4.92 -32.24,14.46"
         style="fill:#b82327;fill-opacity:1;fill-rule:nonzero;stroke:none"
         id="path22" /><path
         d="m 2433.2,2161.53 c 33.87,4.12 58.16,7.62 63.75,7.85 178.96,7.26 75.23,8.24 145.74,3.25 10.01,-1.97 10.3,-2.18 41.33,-2.66 94.51,-1.5 100.26,-5.94 107.17,-0.72 25.69,0.49 122.87,5.15 151.75,11.26 14.19,2.97 19.23,17.6 22.95,31.7 1.54,6.14 -0.38,12.08 -6.58,15.87 -4.85,2.94 -13.67,2.14 -19.46,2.21 -80.01,0.28 -50.77,-6.41 -273.39,-14.4 6.67,15.13 -5.91,23.47 -18.43,20.04 -10,-0.65 -110.34,-20.33 -223.14,-45.93 -81.54,-18.51 -113.66,-14.4 -107.29,-34.18 4.1,-12.89 10.54,-7.9 97.02,10 4.07,-6.22 11.26,-5.18 18.58,-4.29"
         style="fill:#b82327;fill-opacity:1;fill-rule:nonzero;stroke:none"
         id="path24" /><path
         d="m 2661.99,1244.36 c 5.86,-1.59 12.07,3.88 17.32,7.4 175.86,117.97 262.46,145.99 324.53,189.09 66.23,46.22 71.65,80.33 30.76,86.1 -184.4,25.8 -548.29,-126.76 -571.09,-151.01 -13.1,-7.52 -25.36,-41.26 -33.21,-51.26 -1.86,-2.4 -3.2,-5.15 -4.49,-7.82 -12.91,-26.46 -15.16,-34 7.52,-45.37 62.6,-31.41 199.92,-36.21 228.66,-27.13"
         style="fill:#b82327;fill-opacity:1;fill-rule:nonzero;stroke:none"
         id="path26" /><path
         d="m 4150.35,3126.97 c -2.02,6.56 -3.31,22.63 -6.7,33.09 -4.26,13.17 -18.24,37.98 -28.49,47.17 -14.1,12.67 -49.2,35.03 -67.91,35.03 -4.67,0 -10.71,-1.54 -14.55,-3.21 -21.38,-9.37 -138.29,-154.21 -164.17,-232.3 -20.85,-62.88 -14.84,-109.45 -33.45,-198.08 -2.82,-13.27 -5.08,-19.21 2.09,-26.86 3.88,-4.14 12.47,-4.64 19.41,4.3 71.82,92.37 304.75,335.03 295.52,325.03 4.11,4.45 3.16,12.09 -1.75,15.83"
         style="fill:#b82327;fill-opacity:1;fill-rule:nonzero;stroke:none"
         id="path28" /><path
         d="m 3020.96,543.762 c -31.53,49.597 -7.73,38.179 -87.94,136.32 -8.43,10.32 -19.61,30.238 -25.09,42.199 -19.84,43.5 -25.92,43.192 -40.92,70.692 -34.54,65.418 -82.01,222.867 -136.81,169.429 -0.66,-0.621 -1.15,-1.55 -1.58,-2.472 -1.51,-1.578 -99.96,-103.93 -100.6,-106.008 -2.69,-3.5 -3.24,-8.199 -0.31,-12.922 20.96,-33.598 286.79,-344.09 295.73,-354.109 77.49,-86.918 50.92,-88.301 110.82,-52.95 20.87,12.309 30.35,18.34 26.33,28.348 5.21,12.621 -33.27,71.473 -39.63,81.473"
         style="fill:#b82327;fill-opacity:1;fill-rule:nonzero;stroke:none"
         id="path30" /><path
         d="m 1667.99,1325.49 c -27.64,52.03 -53.98,87.45 -78.27,131.13 -1.71,3.1 -4.52,5.65 -8.3,6.14 -10.01,12.66 -9.68,-3.38 -323.77,-117.81 C 781.996,1171.66 744,1140.01 1137.69,1150.88 c 160.06,4.22 430.45,46.83 504.25,54.53 100.27,10.47 86.41,6.56 26.05,120.08"
         style="fill:#b82327;fill-opacity:1;fill-rule:nonzero;stroke:none"
         id="path32" /><path
         d="m 2358.82,2998.64 c 9.33,22.87 -15.83,27.15 -19.97,13.34 -0.69,-0.23 -34.03,-17.9 -35.09,-18.44 -167.64,-74.46 -335.36,-80.85 -515.12,-113.87 -10,1.68 -27.98,-7.06 -19.8,-19.91 1.63,-3.17 21.23,-18.79 24.75,-22.12 73.77,-68.96 56.32,-93.1 91.79,-93.1 119.41,0.32 345.99,108.33 426.58,194.16 2.94,3.15 45.13,55.73 46.86,59.94"
         style="fill:#5dcbf5;fill-opacity:1;fill-rule:nonzero;stroke:none"
         id="path34" /><path
         d="m 2837.44,3543.99 c -16.53,5.57 -40.44,2.72 -65.31,2.3 -19.43,-0.34 -101.49,7.78 -113.13,-15.71 -4.22,-8.4 -0.43,-14.85 5.66,-21.8 29.6,-32.85 38.98,-44.02 38.98,-44.02 6.14,-6.52 40.79,-30.21 50.79,-31.99 9.39,-1.65 16.54,6.06 31.66,16.46 11.84,3.13 76.7,25.51 83.96,35.49 1.87,1.36 2.91,3.17 4.35,5.22 17.43,24.97 -20.38,48.46 -36.96,54.05"
         style="fill:#5dcbf5;fill-opacity:1;fill-rule:nonzero;stroke:none"
         id="path36" /><path
         d="m 3269.85,3027.28 c 0,0 -196.13,-37.65 -196.18,-37.66 l -0.64,0.01 c -1.59,0 -2.95,-0.18 -4.55,-0.62 -1.02,-0.26 -2.01,-0.56 -3.01,-0.87 -6.39,-2.02 -11.68,-6.54 -14.15,-12.11 -4.45,-10.02 0.9,-27.99 6.28,-54.44 l -0.03,0.19 c 2.56,-13.21 5.53,-37.4 4.75,-51.62 -0.41,-7.62 -0.52,-13.82 5.18,-18.9 8.82,-7.81 22.46,-0.7 35.15,4.27 176.95,69.34 178.54,62.99 265.26,95.42 105.4,39.35 149.13,41.05 206.78,58.13 22.38,6.63 17.88,26.06 -1.41,26.06 -3.58,0 -7.19,-0.34 -10.77,-0.49 -165.44,-6.99 -284.76,12.36 -292.66,-7.37"
         style="fill:#5dcbf5;fill-opacity:1;fill-rule:nonzero;stroke:none"
         id="path38" /><path
         d="m 3460.12,2595.54 c -26.68,-15 -9.22,-59.04 -29.1,-170.44 -6.39,-35.8 -33.97,-150.22 -36.28,-160.23 -3.33,-14.66 8.19,-27.45 26.87,-15.48 18.66,12.13 58.84,67.15 71.77,85.32 12.94,18.14 26.42,36.8 41.55,60.25 45.87,70.75 118.04,224.54 121.94,234.54 13.77,35.21 5.63,17.18 24.12,65.83 12.76,33.4 24.77,99.71 14.57,109.26 0.48,6.39 -4.64,12.01 -11.24,12.01 -5.23,0 -7.17,-2.66 -10.91,-6.45 l 1.24,1.14 c -91.81,-87.74 -204.53,-205.79 -214.53,-215.75"
         style="fill:#5dcbf5;fill-opacity:1;fill-rule:nonzero;stroke:none"
         id="path40" /><path
         d="m 2768.23,2035.76 c -110.1,-16.35 -255.98,-30.62 -390.97,-141.48 -14.98,-12.31 -59.29,-50.72 -65.3,-69.06 -3.25,-9.94 1.5,-18.89 13.52,-18.35 11.92,0.59 34.12,9.21 44.13,12.09 58.85,15.47 111.75,14.5 183.9,30.34 66.63,14.84 98.26,-1.24 120.77,37.26 16.38,28.03 36.05,51.77 58.02,75.4 9.29,10 30.77,30.89 46.77,44.36 3.25,2.73 4.76,6.92 3.94,10.92 7.26,7.6 2.1,21.15 -14.78,18.52"
         style="fill:#5dcbf5;fill-opacity:1;fill-rule:nonzero;stroke:none"
         id="path42" /><path
         d="m 1793.87,4243.66 c 325.75,390.77 482.94,450.75 675.73,626.4 6.17,5.59 15.18,12.71 18.9,19.53 3.82,7.1 -0.74,17.05 -11.44,16.59 -6.25,-0.21 -11.68,-4.76 -24.72,-10.73 -112.15,-52 -186.5,-95.93 -280.27,-156.29 -181.41,-116.08 -315.7,-228.65 -356.43,-241.01 34.57,124.28 368.76,416.1 388.59,442.75 1.44,1.95 3.08,4.03 3.53,6.42 2.5,14.39 -6.99,18.39 -14.72,14.38 -9.93,-5.17 -21.57,-12.33 -42.58,-24.87 -7.67,-4.59 -13.91,-8.47 -22.36,-13.57 -270.68,-163.56 -599.17,-488.72 -691.23,-543.65 8.68,21.07 16.87,39.46 31.14,66.08 -0.08,-0.07 -81.87,-69.48 -81.87,-69.48 -79.35,-161.27 -76.29,-137.55 -33.08,-452.17 5.72,-41.1 3.24,-33.39 8.42,-62.4 6.64,-37.79 20.98,-75.61 29.54,-127.89 6.37,-39.81 -3.47,9.75 14.55,-71.45 9.85,-0.36 7.4,-10.6 15.35,-72.56 150.65,37.64 128.24,-6.06 163.86,144.93 33.61,142.02 39.98,167.82 48.43,195.24 4.99,16.1 10.64,31.85 16.13,47.41 12.82,36.57 24.67,64.06 39.28,97.63 19.23,44.43 26.65,59.31 50.86,97.65 12.82,20.31 19.29,28.31 29.36,40.61 12.04,14.67 8.1,10.15 25.03,30.45"
         style="fill:#5dcbf5;fill-opacity:1;fill-rule:nonzero;stroke:none"
         id="path44" /><path
         d="m 3755.78,3758.43 -0.13,0.64 c 44.79,-143.11 36.52,-132.81 46.52,-140.71 14.8,-11.63 61.57,-5.58 80.17,-3.61 44.46,4.74 48.75,-9.25 77.53,155.98 6.08,34.67 48.57,230.27 54.41,270.3 8.6,58.72 54.01,356.66 5.92,395.64 -0.8,1.89 -2.07,3.49 -3.65,4.63 -13.82,9.86 -16.95,-11.56 -58.28,-49.3 -30.18,-27.62 -204.26,-186.97 -202.04,-229.77 2.32,-43.57 88.42,-12.35 108.67,-9.85 2.63,-31.95 -135.55,-148.81 -161.03,-182.94 -18.26,-24.44 -3.46,-40.24 51.91,-211.01"
         style="fill:#5dcbf5;fill-opacity:1;fill-rule:nonzero;stroke:none"
         id="path46" /><path
         d="m 3411.27,1637.24 c 7.39,31.56 7.83,42.96 -1.22,54.44 -19.87,14.77 -31.55,-5.18 -123.71,-54.05 -29.54,-15.71 -42.62,-131.18 -83.67,-188.64 -32.12,-42.92 -78.41,-67.4 -91.04,-71.9 -5.94,5.6 -15.65,2.79 -18,-5.51 -62.54,-220.11 -75.91,-215.49 -62.4,-226.71 12.02,-11.39 27.95,6.04 71.3,31.73 77.6,45.96 148.28,105.36 214.93,139.63 18.46,9.44 14.96,40.71 37.26,109.06 3.25,10 29.45,96.59 56.55,211.95"
         style="fill:#5dcbf5;fill-opacity:1;fill-rule:nonzero;stroke:none"
         id="path48" /><path
         d="m 4457.4,1052.66 c -105.84,9.1 -317.23,16.18 -503.23,7.32 -4.44,-0.2 -28.47,-1.52 -33.23,-1.95 -176.96,-15.98 -155.43,-17.56 -295.17,-39.91 -50.92,-8.16 -44.34,-9.54 -82.09,-22.557 -25.68,-8.872 -33.86,-8.344 -36.91,-18.321 -12.82,-15.113 -13.86,-16.98 -39.05,-55.711 h -0.01 C 3364.14,763.75 3319.92,741.492 3439.56,756.41 c 110.14,13.871 215.24,36.129 283.55,50.141 l -1.11,-0.172 c 1.86,0.371 102.24,20.91 100.61,20.91 l 0.33,0.051 0.01,-0.039 0.37,0.109 v -0.027 c 0.64,0.117 31.39,6.379 31.39,6.379 l -0.36,-0.012 c 342.85,67.48 217.68,59.73 513.54,130.762 26.11,6.269 133.77,34.609 143.56,59.748 8.74,22.38 -30.97,26.39 -54.05,28.4"
         style="fill:#5dcbf5;fill-opacity:1;fill-rule:nonzero;stroke:none"
         id="path50" /><path
         d="m 1483.75,3217.6 c 1.91,5.17 -0.38,11.38 -5.69,13.89 -0.99,7.84 -9.47,12.22 -16.56,8.45 -4.02,-2.13 -10.75,-10.59 -13.95,-14.24 -48.51,-55.05 -50.65,-62.78 -36.51,-83.79 0.91,-5.11 3.5,-9.84 5.79,-14.62 2.8,-7.8 4.67,-15.9 7.68,-23.62 4.32,-11.03 7.33,-14.43 11.62,-24.43 8.03,-20.53 10.09,-26.57 27.37,-60.55 21.87,-43.14 40.67,-23.05 43.45,11.02 6.77,86.92 -8.3,170.55 -23.2,187.89"
         style="fill:#5dcbf5;fill-opacity:1;fill-rule:nonzero;stroke:none"
         id="path52" /><path
         d="m 2070.97,3336.75 c 7.02,2.38 15.12,4.99 23.3,7.47 -7.81,-2.76 -15.19,-5.07 -23.3,-7.47 z M 2017,3319.61 c -0.4,-0.06 -0.39,-0.06 0.02,0.01 -0.01,-0.01 -0.01,-0.01 -0.02,-0.01 z m -3.25,-1.24 c 0.64,0.64 2.1,0.94 2.99,1.14 -1,-0.39 -1.99,-0.76 -2.99,-1.14 z m 179.94,70.64 c -10,0 -72.71,-10.69 -161.94,-42.4 -12.67,-4.52 -23.83,-6.53 -24.14,-6.63 -21.67,-7 -25.39,-40.89 -7.75,-46.47 5.17,-15.58 23.46,-2.48 77.28,10.36 57.19,13.69 63.35,19.65 122.7,36.03 4.1,-0.14 9.16,2.48 12.3,5.22 5.95,5.21 3.24,14.48 1.82,22.06 -2.63,14.24 -6.21,21.83 -20.27,21.83"
         style="fill:#5dcbf5;fill-opacity:1;fill-rule:nonzero;stroke:none"
         id="path54" /><path
         d="m 2923.66,3370.93 c -0.42,-0.11 -0.84,-0.21 -1.27,-0.31 -1.24,4.14 -1.37,8 -0.95,10.11 0.85,0.95 1.67,1.84 2.66,2.48 -2.42,-3.93 -2.49,-8.79 -0.44,-12.28 z m 215.43,26.65 c 0.63,0 93.29,-22.43 102.06,-25.33 54.55,-17.98 73.33,-37.18 81.98,-15.89 1.14,2.75 2.9,7.08 2.65,9.97 4,16.75 11.47,31.01 -2.25,34.21 -1.49,0.35 -2.98,0.35 -4.39,0.07 -3.33,1.74 -5.43,1.51 -8.6,0.71 -6.85,-0.59 -13.36,0.86 -20.68,2.35 -362.44,72.89 -185.31,77.5 -355.17,7.41 -20.28,-8.44 -41.66,-14.98 -32.79,-46.13 4.35,-15.32 11.14,-18.4 21.26,-16.22 0.01,0 106.41,27.49 106.42,27.49 32.26,9.04 95.84,17.59 109.51,21.36"
         style="fill:#5dcbf5;fill-opacity:1;fill-rule:nonzero;stroke:none"
         id="path56" /><path
         d="m 3127.69,3395.14 c -0.62,-0.09 -1.23,-0.22 -1.84,-0.32 1.97,0.34 3.82,0.65 1.84,0.32"
         style="fill:#5dcbf5;fill-opacity:1;fill-rule:nonzero;stroke:none"
         id="path58" /><path
         d="m 2076.84,3321.97 c 2.6,-19.17 39.64,-28.83 56.79,0.32 16.56,28.11 -44.79,60.44 -58.18,15.8 -1.54,-5.19 -0.77,-11.62 1.39,-16.12"
         style="fill:#111011;fill-opacity:1;fill-rule:nonzero;stroke:none"
         id="path60" /><path
         d="m 2680.88,3870.42 c -29.76,-105.31 -69.22,-150.29 -104.86,-177.8 -55.65,-3.71 -197.6,23.49 -207.6,23.49 -3.4,0 -6.98,-1.7 -9.3,-4.96 5.38,-17.23 15.81,-46.86 17.51,-51.06 0.02,0 0.04,0.01 0.05,0.01 4.36,-10.78 4.18,-9.58 14.42,-26.43 v 0 c 0.01,0 0.01,0 0.01,0 27.85,-3.81 -6.7,-1.86 132.53,-17.23 25.22,7.4 93.07,39.09 136.05,114.52 15.4,27.11 56.06,128.79 43.32,150.56 -5.88,10 -21.98,4.59 -22.13,-11.1"
         style="fill:#111011;fill-opacity:1;fill-rule:nonzero;stroke:none"
         id="path62" /><path
         d="m 3200.79,3409.22 c -14,-2.66 -23.26,-17.16 -20.82,-31.84 5.18,-32.43 46.82,-34.42 62.2,-7.63 15.7,27.25 -10.19,53.67 -41.38,39.47"
         style="fill:#111011;fill-opacity:1;fill-rule:nonzero;stroke:none"
         id="path64" /><path
         d="m 1992.23,2122.53 c -0.02,-0.02 -0.04,-0.03 -0.06,-0.06 2.19,-1.65 17.39,-11.81 19.89,-13.62 6.7,19.78 6.92,38.87 15.97,253.91 1.79,36.47 2.07,63.05 2.42,78.03 0.28,12.19 1.34,37.03 0.88,25.52 1.78,39.4 0.84,39.55 1.3,73.86 0.26,20.39 2,42.39 0.43,71.46 -0.73,13.77 -3.42,16.84 -8.24,21.22 -5.18,4.65 -18.5,9.65 -24.72,12.22 -2.85,1.18 -5.73,1.45 -8.59,0.43 -0.64,-0.24 -1.15,-0.69 -1.74,-1.04 -1.57,-0.31 -3.08,-0.84 -4.38,-1.81 1.71,-70.49 1.43,-232.9 1.54,-302.29 1.86,-61.54 -1.37,-40.38 0.27,-110.91 0.59,-20.13 0.51,-41.21 0.25,-55.42 -0.13,-6.73 -1.34,-23.88 -2.28,-30.16 -0.43,-2.9 -0.48,-3.42 -0.91,-6.76 -0.31,-2.58 -0.62,-5 -0.95,-7.39 3.32,-2.82 4.92,-4.15 8.92,-7.19"
         style="fill:#111011;fill-opacity:1;fill-rule:nonzero;stroke:none"
         id="path66" /><path
         d="m 3450.96,2710.1 c -10.05,-1.79 -14.73,-8.49 -16.71,-16.9 -19.36,-82.71 -44.65,-357.57 -58.24,-447.39 -2.15,-14.31 -3.39,-24.85 6.88,-28.05 14.97,56.27 22.17,78.12 26.38,91.75 0,-0.01 0,-0.01 0,-0.02 0.23,0.76 9.27,30.13 9.62,30.84 v 0 c 5.86,21.27 7.86,27.13 12.41,42.05 0,0.01 0,0.01 0,0.02 15.44,50.29 22.99,152.52 27.37,184.7 h 0.01 c 3.97,29.81 5.95,51.76 6.16,53.32 v 0 c 4.09,29.81 6.04,43.59 8.17,74.4 0.01,0 0.01,0 0.01,0.01 0.01,0.07 0.18,17.63 0.22,18.89 -6.37,4.14 -14.75,-0.52 -22.28,-3.62"
         style="fill:#111011;fill-opacity:1;fill-rule:nonzero;stroke:none"
         id="path68" /><path
         d="m 3341.11,767.539 c -83.87,-108.738 -267.94,-257.82 -290.59,-271.547 -46,87.129 -217.65,414.629 -257.42,476.258 0,0 436.4,275.93 436.62,276.07 71.96,45.23 310.14,175.59 415.33,229.76 -56.79,-252.79 -121.2,-476.23 -303.94,-710.541 z m -698.09,221.293 c -53.73,-1.031 -74.64,4.117 -102.12,9.758 -189.39,37.21 -318.58,148.93 -447.86,294.28 -81.9,92.33 -82.76,105.02 -132.88,186.35 -19.05,31.14 -21.95,26.02 -59.79,97.47 0.97,26.37 3.27,48.16 6.31,107.73 43.08,-45.98 148.93,-146.88 164.52,-160.52 348.4,-304.79 445.59,-348.61 861.63,-224.46 383.52,108.69 329.31,219.05 340.82,290.56 0,0 116.25,73.4 116.3,73.44 0,0 -84.16,-276.76 -107.22,-334.97 -1.01,-2.54 -2.05,-5.17 -2.47,-7.93 -59.93,-29.02 -315.21,-199.21 -472.63,-288.47 -70.86,-39.16 -88.86,-42.57 -164.61,-43.238 z m 22.27,-53.152 C 2551.57,798.352 2501.8,754.973 2440.36,677.281 2409.44,638.359 2370.37,591.34 2333.72,557.691 l -0.01,-0.089 c -118.89,38.82 -234.23,169.378 -308.36,270.48 -74.41,101.367 -257.95,381.048 -254.26,511.848 2.21,129.26 -2.35,81.05 1.9,129.64 0.84,8.49 5.55,67.69 5.41,65.61 3.91,56.15 15.97,101.65 18.16,174.27 74.7,-176.14 289.95,-511.64 445.73,-628.56 99.64,-75.25 211.97,-135.788 340.32,-135.788 46,0.468 62.36,-1.172 95.16,4.711 -2.59,-2.153 -11.05,-10.864 -12.48,-14.133 z m -1029.24,110.17 c -358.9,-27.37 -912.632,-15.32 -999.105,-2.82 -44.445,5.99 -49.23,9.89 -72.832,28.09 -10.117,7.71 -12.933,12.71 -16.242,22.72 66.594,53.3 294.461,139.04 444.305,206.05 71.674,32.24 156.444,68.17 231.054,93.97 68.09,22.93 208.47,76.58 261.01,102.95 65.03,-141.6 172.19,-328.88 281.74,-442.15 -33.76,0.42 -95.89,-6.34 -129.93,-8.81 z M 2774.9,2310.53 c -1.23,5.34 -3.78,8.76 -6.12,10.3 -16.14,10.79 -82.27,-0.33 -93.73,-2.72 10.33,23.17 24.57,157.86 26.27,190.17 21.18,-2.74 104.01,2.76 115.82,3.46 0,0 0.78,-64.49 -2.47,-111.65 -7.35,-111.59 -20.3,-122.02 -22.84,-132.02 -9.29,-0.88 -40.82,-5.39 -49.93,-1.95 l 0.52,0.37 c 4.51,10.29 36.61,24.13 32.48,44.04 z m -1260.85,731.78 0.36,-2.04 c 97.86,-204.33 22.55,-53.18 133.43,-283.68 6.13,-42.28 161.69,-178.8 234.64,-249.76 -1.64,4 -14.4,23.96 -16.93,28 -61.94,99.09 -27.53,47.9 -99.72,146.2 -100.68,135.22 -58.15,74.33 -231.64,448.62 15.95,30.56 32.67,95.68 32.16,154.26 48.47,-146.22 125.21,-290.47 129.71,-300.47 0.5,-3.11 2.56,-7.39 5.58,-9.6 0.69,-2.39 7.99,-10.04 13.22,-11.54 50.75,-34.7 574.15,-80.49 726.87,111.45 89.71,113.4 120.15,370.53 116.4,387.81 0.17,-0.07 0.66,25.27 0.65,25.45 17.25,8.52 22.2,14.52 32.2,22.67 2.03,0.86 4.88,3.29 6.49,4.69 4.7,-1.21 31.9,0.68 36.96,0.79 26.11,-19.38 16.26,-13.95 32.98,-27.1 0,0 45.76,-39.25 88.23,-96.46 l 0.27,0.77 c 0,0 66.87,-99.15 81.12,-126.34 60.45,-115.36 129.75,-339.71 132.13,-482.39 1.32,-82.64 -9.16,-222.27 -9.16,-222.27 -67.1,-18.13 -232.72,-16.51 -242.72,-16.72 -89,-1.93 -226.9,-10.71 -253.55,10.42 -4.38,3.49 -15.94,11.33 -17.08,16.67 l 0.12,0.31 c 10,4.15 14.25,8.85 39.54,14.3 67.14,-8.36 100.01,-12.8 183.83,-15.09 15.23,-0.42 156.46,-1.71 171.65,-0.06 36.26,4.7 39.66,32.46 13.32,42.48 -37.81,15.07 -147.65,36.6 -297.41,19.94 -11.35,-1.36 -27.78,-4.42 -27.78,-4.42 l -0.42,-0.14 c -2.7,0.02 -34.62,-6.19 -56.78,-13.66 -11.49,-3.75 -17.74,-7.11 -25.33,-12.31 -39.46,-12.32 -38.95,-41.12 -33.84,-52 14.12,-29.42 98.39,-31.51 138.98,-36.21 l -0.42,0.78 c 25.56,-3.63 88.48,-5.97 110.45,-6.6 -2.74,-70.85 -11.35,-123.82 -41.9,-202.03 -5.82,-0.39 -100.32,-27.82 -101.05,-28.3 -66.02,-19.08 -67.19,-28.43 -111.25,-28.43 -0.57,0 -1.18,-0.08 -1.83,-0.26 -12.36,1.94 -18.23,-10.3 -11.85,-18.52 21.48,-26.33 185.44,32.05 326.53,47.55 -2.2,-0.98 -13.46,-13.84 -15.64,-22.17 -11.84,-47.75 77.92,-21.45 127.28,-13.66 122.05,18.98 72.37,10.61 131.78,13.19 -0.69,-0.25 -1.16,-1.31 -1.46,-3.19 -4.38,-28.57 51.63,-21.6 231.92,-42.77 15.97,-2.05 34.25,-2.71 71.43,-14.58 0,0 -31.51,-6.82 -51.16,-9.18 -54.84,-8.04 -401.37,8.05 -572.95,8.05 -65.31,0 -184.49,2.98 -342.96,-16.07 -10,-2.18 -20.38,-0.42 -65.12,-20.16 -3.02,0 -10.92,-4.9 -13.57,-10.03 -4.91,-8.98 0.6,-19.85 17.87,-18.53 16.13,1.52 39.84,7.5 49.84,9.63 45.22,10.09 59.26,15.06 138.35,25.3 l -1.07,-0.68 c -28.46,-32.83 -66.9,-88.91 -30.4,-112.99 -13.89,-20.66 -101.81,-202.22 -118.8,-230.43 -6.38,-10.99 0.15,-19.26 10.77,-19.26 0,0 55.68,14.47 112.99,24.83 2.75,-0.48 13.16,2.21 16.01,2.79 47.45,10.39 74.58,9.68 114.17,15.68 53.34,7.7 14.48,6.18 173.47,24.63 155.08,17.58 289.11,28.07 394.45,-30.85 86.24,-48.5 152.88,-164.44 129.26,-294.72 -22.72,-105.56 -126.3,-154.71 -228.98,-190.08 l 0.4,-0.32 c -86.13,-20.89 -71.38,-32.18 -129.92,-43.86 -166.64,-33.55 -101.72,-32.83 -183.77,-37.73 -41.23,-2.92 -63.8,-11.8 -124.56,-3.31 -122.46,18.43 -224.81,65.65 -314.53,136.3 -225.02,183.74 -223.62,194.79 -367.67,351.49 l 0.22,-1.41 c -26.16,36.02 -117.51,109.25 -172.19,307.24 -8.11,28.58 -18.03,82.95 -24.32,115.34 -57.32,297.1 -160.43,736.98 -168.3,864.75 z m -224.95,151.84 c -4.81,-21.68 -8.16,-65.19 -8.96,-77.5 l 0.79,0.9 c -16.7,-133.46 35.31,-397.46 64.49,-392.87 6.54,13.08 7.95,17.36 12.42,27.37 -36.75,133.1 -63.34,284.16 -37.14,419.68 0,0 4.36,-4.7 15.5,-18.05 -15.47,-65.61 -2.45,-260.5 28.95,-257.37 18.84,4.24 15.51,16 35.38,102.23 5.9,25.67 4.94,30.18 13.14,55.17 0.25,-0.7 0.12,-0.46 0.7,-1.34 l 0.01,0.89 v -0.91 c 0.27,-0.41 0.16,-0.25 0.48,-0.7 l 0.16,0.64 0.39,-1.49 c 1.5,-2.19 0.99,-1.41 2.71,-4.03 l 0.18,0.59 c 1.97,-3.7 4.69,-7.77 10.7,-16.15 -39.72,-104.72 -94.39,-415.73 81.78,-482.05 16.75,-6.68 25.31,-10.31 35.31,-4.28 12.1,6.6 14.88,23.23 16.13,34.46 0,0 45.44,-188.49 53.03,-227.05 -371.63,175.2 -408.04,873.83 -326.15,841.86 z m 71.98,-69.48 c 17.46,-22.49 19.71,-22.58 36.3,-46.97 -23.44,-78.97 -36.04,-115.74 -36.04,-115.74 -5.23,59.72 -3.28,137.76 -0.26,162.71 z m 67.17,209.01 c 1.45,-1.03 5.45,-2.22 7.13,-2.72 63.68,-286.45 21.03,-96.75 41.94,-194.66 -3.56,-35.85 2.26,-80.84 2.48,-99.92 -3.18,9.95 -50.36,95.14 -62.81,115.82 -20.63,34.81 -73.44,96.77 -114.38,96.77 -4.11,0 -7.51,-0.56 -10.68,-1.77 37.4,79.47 109.03,94.08 136.32,86.48 z m -4.73,132.05 c 4.79,1.4 20.58,7 25.97,8.83 2.64,1.98 4.6,3.3 8.21,3.8 l 0.4,0.18 0.41,-0.06 c 0,0 9.19,1.12 17.68,-4.55 5.02,-1.06 6.16,-1.24 9.45,-5.18 0.13,-28.19 2.31,-21.37 6.7,-88.13 7.53,-118.93 1.47,-115.11 -0.44,-168.46 -2.53,5.16 -5.43,9.19 -7.34,15.25 -0.75,2.43 -1.22,4.65 -2.53,6.59 -4.84,19.18 5.45,-27.02 -25.87,110.2 -15.33,68.14 -20.6,68.93 -32.64,121.53 z m 100.21,-685.63 c 11.33,-96.35 15.65,-99.98 23.12,-133.8 -20.57,32.96 -69.5,63.7 -45.14,110.5 3.65,7.23 9.29,21.11 15.25,27.16 0.43,0.23 0.69,0.32 0.95,0.39 2.04,-0.64 4.45,-2.75 5.82,-4.25 z m -44.26,-4.45 c -8.87,-13.04 -12.65,-18.53 -14.87,-42.94 -2.84,-38.58 6.47,-34.27 46.35,-76.53 24.03,-41.17 24.27,-52.49 18.87,-67.41 -1.65,-1.85 -1.68,-2.79 -2.76,-4.63 -23.44,-25.84 -79.19,39.46 -94.61,131.87 -11.18,86.88 21.46,209.71 38.74,257.78 0,0 9.11,-13.92 27.86,-47.03 7.62,-58.32 0.31,0.26 19.02,-112.38 -10.99,0 -19.83,-10.95 -38.6,-38.73 z m -59.07,871.48 c 1.63,5.16 -2.59,17.85 -3.94,23.43 -6.34,24.94 -16.37,71.69 -20.24,93.18 -17.79,99.12 -20.84,64.96 -32.37,171.26 -18.5,173.82 -25.85,154.59 -25.85,304.9 l -0.78,-2.67 c 0.38,2.79 0.58,5.79 0.7,9.43 121.78,266.07 475.34,661.8 646.72,850.39 102.05,52.59 424.89,106.86 489.59,113.01 l -2.68,0.1 c 77.86,1.89 597.99,86.64 1020.22,-131.13 6.81,-3.54 13.48,-7.8 19.35,-11.55 68.4,-43.59 101.34,-80.62 275.74,-303.66 77.34,-98.8 151.44,-216.41 210.85,-335.4 58.75,-120.59 1.42,-260.21 -72.05,-702.97 0.23,0.05 0.35,0.17 0.4,0.34 -0.66,-2 -1.06,-4.46 -1.4,-6.56 -6.56,1.91 -77.65,14.35 -131.94,19.75 -111.51,199.8 -217.2,689.69 -332.73,784.73 -41.46,34.31 -48.2,35.13 -124.11,56.55 -10.87,3.06 -44.46,11.59 -53.36,4.74 -159.95,-7.43 -357.6,-82.52 -420.47,-125.42 -124.81,-83.77 -318.29,-260.37 -444.61,-301.68 l 0.67,0.82 c 7.67,36.76 90.51,109.24 116.04,136.2 29.76,31.42 132.45,133.21 127.22,166.42 -11.55,47.23 -134.6,-45.32 -286.61,-135.96 l 0.64,-0.21 -0.79,0.04 c -124.34,-69.74 -96.91,-42.6 -173.9,-75.13 25.61,54.44 126.43,175.13 62.31,175.42 -8.58,0.23 -22.15,-9.87 -29.01,-15.08 -4.61,-0.41 -12.19,-5.44 -13.94,-8.23 -55.71,-40.98 -198.71,-163.4 -258.28,-167.51 12.87,82.05 125.63,183.74 60.53,213.41 -8.96,4.36 -15.91,5.46 -27.46,3.16 -98.83,-21.95 -160.43,-101.16 -215.89,-177.52 -14.74,-20.33 -34.25,-48.75 -34.28,-48.79 -41.19,-56.63 -37.74,-27.6 -77.23,-117.8 -52.45,-120.1 -123.85,-402.06 -122.29,-411.07 -4.59,2.13 -28.55,0.52 -33.63,-5.74 -19.74,-3.8 -78.69,-35.89 -91.14,-43.2 z m 2576.08,-246.57 c 1.76,0.09 3.56,0.82 5.21,1.42 13.54,-0.47 33.04,-11.93 43.84,-21.18 9.14,-13.98 50.79,-119.26 54.16,-129.39 -48.34,67.32 -100.78,40.74 -107.36,29.91 -10,-7.58 -74.03,-71.06 -100.9,-105.08 4.92,24.87 1.73,96.3 -6.11,141.33 14.55,12.3 78.83,70.16 111.16,82.99 z m 146.36,-416.71 c 1.15,-65.66 -30.13,-218.3 -56.28,-296.74 -14.28,-42.88 -9.63,-31.68 -41.67,-88.06 -22.08,-39.22 -21.44,-27.2 -48.03,-65.89 -5.55,-8.71 -19.89,-25.79 -30.76,-34.56 -26.24,-21.07 -28.43,-29.5 -54.1,-40.14 -42.45,-17.56 -25.6,-23.44 -121.34,-30.24 -1.55,1.67 -3.92,2.84 -6.48,3.19 9.78,58.84 -6.32,-41.96 79.51,508.21 8.53,-10.02 29.69,-38 35.79,-55.16 37.08,-101.46 -1.32,-60.24 -44.81,-150.04 -12.69,-25.09 -16.78,-84.35 18.53,-95.65 25.87,-9.03 55,8.68 78.64,22.79 53.94,32.33 62.34,48.89 74.11,79.52 27.82,71.78 43.13,137.69 9.7,202.87 -29.26,56.06 -32.5,62.15 -67.63,95.11 -23.48,22.41 -24.41,23.53 -40.78,34.45 26.38,36.84 6.24,9.05 28.48,40.05 75.58,-135.56 107.84,-111.05 111.68,-46.3 2.12,39.58 -19.73,99.36 -35.61,145.79 4.61,5.95 6.51,8.2 12.73,16.94 28.19,-10.77 36.27,-20.95 52.35,-45.45 42.93,-67.62 45.37,-122.6 45.97,-200.69 z m -265.69,375.94 c -4.38,21.45 -11.13,73.28 -29.22,157.41 -2.81,14.29 -3.74,21.38 -4.85,32.95 19.74,7.29 65.91,12.15 82.71,13.88 -10.74,-37.3 -25.22,-166.14 -27.57,-187.4 -11.07,-6.71 -11.68,-6.22 -21.07,-16.84 z m -6.87,-377.01 1.48,8.97 c 13.3,19.65 31.34,46.91 35.12,52.47 10,-7.45 61.92,-37.07 100.02,-108.44 13.47,-25.52 12.77,-31.1 15.35,-48.08 0.17,-1.1 4.36,-30.3 4.8,-31.27 2.56,-35.77 -2.97,-59.22 -18.53,-88.15 -68.39,-127.52 -186.59,-144.44 -106.35,-17.54 15.4,23.58 33.68,54.95 35.11,80.23 2.94,51.58 -18.46,108.72 -67,151.81 z m 142.15,205.53 c 10.31,-30.52 32.45,-107.8 25.14,-139.17 -16.31,14.96 -50.52,76.91 -59.94,94.39 8.05,10.79 5.19,7.46 34.8,44.78 z M 2994.8,3549.54 c -2.65,-1.75 -63.81,-59.49 -75.18,-68.67 1.34,30.12 8.73,41.91 11.03,54.82 10,4.28 23.78,11.23 75.75,25.5 -1.67,-0.55 -11.35,-10.34 -12.59,-11.58 z m 668.08,-136.14 c -165.31,52.14 -490.13,165.29 -533.07,177.54 82.79,14.03 85.19,32.41 330.69,53.65 11.53,0.9 202.21,18.36 224.81,2.38 7.61,-5.26 24.84,-25.8 29.45,-39.21 11.37,-45.38 -8.2,-45.4 -51.88,-194.36 z m -1262.67,-38.9 c -1.31,1.45 -4,5.57 -5.05,6.44 -14.22,25.66 -5.65,14.52 -19.16,44.61 -13.63,30.35 -19.53,22.95 -74.91,70.68 -28.65,24.52 -51.25,34.17 -67.62,50.04 83.57,-12.25 190.66,-6.01 216.69,-41.73 0.63,-2.02 0.87,-2.88 2.22,-5.49 l 0.42,0.52 c -0.88,-1.1 2.29,-6.29 3.19,-7.44 5.14,-36.15 9.66,-50.82 1.59,-124.9 -2.08,0.27 -55.54,6.88 -57.37,7.27 z m -164.55,49.99 c -91.99,-16.08 -58.53,-12.49 -152.41,-35.67 l -0.4,0.02 c 0,0 -45.86,-11.41 -208.2,-61.69 -27.96,-8.62 -119.01,-38.32 -143.2,-44.39 8.57,10 97.54,76.52 174.68,124.18 92.01,56.79 174.32,92.95 272.03,129.1 2.14,0 2.4,0.38 4.05,0.89 41.06,-17.35 103.68,-65.49 136.72,-95.36 -17.32,-0.74 -65.68,-15.65 -83.27,-17.08 z m -32.36,-151.04 c 20.81,12.7 41.93,76.89 16.45,120.11 19.2,2.88 40.49,9.08 50.49,10.85 3.81,0.81 53.12,8.95 65.41,11.51 1.6,-0.32 2.56,0.13 4.19,0.27 1.89,-2.18 36.53,-62.64 38.44,-64.31 4.52,-10.9 17.71,-3.23 41.91,-10.05 l -0.24,-0.71 c -0.21,-6.86 -6.18,-27.66 -9.65,-33.59 -0.58,-0.43 -1.27,-0.87 -1.8,-1.18 -1.35,-1.72 -2.81,-2.41 -4.87,-3.03 -3.39,-0.57 -21.22,1.19 -24.29,3.18 -6.14,0.9 -9.29,1.17 -15.14,1.92 -18.48,1.56 -150.34,-31.76 -160.9,-34.97 z m -49.16,-33.34 c 16.21,3.43 182.73,44.67 199.38,46.37 -1.04,-0.18 -3.09,-2.22 -3.93,-2.97 -24.97,-20.95 -111.15,-63.15 -148.75,-68.93 -49.36,-9.32 -127.7,-13.18 -137.71,-13.22 -38.45,-0.51 -65.59,0.93 -102.71,10.24 30.14,-0.88 183.71,26.42 193.72,28.51 z m -152.03,93.78 c 0,0 92.73,28.43 183.94,51.48 l 0.07,-0.54 c 4.32,-6.57 8.86,-30.14 5.04,-45.66 -15.81,-70.74 -44.18,-63.77 -54.92,-74.12 -8.66,-1.3 -33.89,-3.47 -35.84,-3.45 -4.28,0 -15.77,-0.1 -19.7,-1.79 -51.19,7.69 -83.11,49.82 -78.59,74.08 z m 30.8,-92.97 c -1.36,0.04 -57.17,-6.48 -58.52,-6.64 -119.62,-16.08 -127.98,0 -175.68,35.42 l 0.66,-0.44 0.03,-0.04 h 0.01 c 0,0 168.38,54.13 170.22,54.72 -1.26,-12.19 27.53,-72.56 63.28,-83.02 z m -142.34,322.75 c 4.15,-1.67 51.89,-3.14 56.37,-3.24 10.01,-0.14 109.55,-0.96 180.23,-8.8 -11.71,-1.98 -414.63,-168.99 -427.84,-282.12 -1.26,-9.23 7.09,-15.35 16.39,-13.51 13.78,2.96 26.04,6.87 37.77,10.43 21.62,-39.4 77.89,-75.08 149.05,-72.04 8.72,-0.19 12.35,-2.58 20.43,-5.76 15.28,-6.37 12.71,-4.82 35.04,-10.28 42.22,-10.43 39.59,-10.58 60.95,-10.18 142.77,5.58 255.4,8.53 360.2,104.41 1.76,0.81 2.09,1.35 3.7,3.02 5.14,-1.53 32.09,-1.72 37.48,-1.83 10.16,-0.25 14.08,3.94 19.25,11.77 -2.35,-13.76 -2.52,-26.96 -6.41,-39.25 -4.62,-15.83 -1.43,-13.01 -5.47,-27.34 -16.19,-59.46 -6.03,-43.71 -18.98,-70.86 -8.9,-18.83 -8.64,-22.3 -21.15,-35.84 -39.33,-45.1 -58.78,-46.03 -87.65,-54.8 -22.78,-6.59 -197.73,-45.51 -326.04,-43.32 -25.57,1.2 -128.85,11.8 -181.23,20.98 -3.78,-1.46 -11.62,0.85 -14.2,2.69 -6.08,1.28 -13.97,2.58 -15.95,8.45 -40.91,39.08 -188.47,449.55 -171.8,488.8 3.03,17.15 25.88,28.96 42.71,33.7 0,0 9.72,2.32 21.49,2.32 0,0 119.1,-8.58 165.26,-8.58 24.4,0 40.25,1.37 71.01,0.4 z m 899.23,172.95 c -22.19,122.04 -9.33,175.68 -32.58,175.68 -19.63,0 -10.91,-27.8 -9.01,-110.82 0,-35.81 8.88,-129.38 9.64,-139.38 0.7,-26.11 -8.3,-25.68 19.7,-68.83 -2.65,3.72 -106.66,-6.15 -110.69,-6.33 -196.12,-12.25 -133.57,1.17 -305.81,20.32 -14.03,1.45 -37.37,5.05 -43.35,6.27 -413.85,71.78 -677.2,70.05 -732.87,77.65 59.72,193.07 94.08,462.39 338.12,676.86 2.5,2.19 16.1,13.23 17.47,16.24 12.38,9.58 34.93,25.66 49.03,32.33 0.77,-0.69 1.83,-1.22 3.12,-1.57 -11.23,-36.79 -46.39,-105.5 -52.04,-116.9 -47.94,-96.27 -16.05,-160.01 170.17,-8.96 28.77,24.2 66.49,49.58 108.59,81.99 -22.68,-32.57 -87.68,-140.6 -56.72,-166.01 25.55,-21.21 65.13,0.93 128.58,34.83 63.28,33.94 53.38,25.62 122.74,71 96.27,63.13 53.29,31.04 181.29,108.96 -17.25,-15.16 -16.14,-14.99 -111.92,-124.21 -24.37,-27.87 -49.64,-65.03 -69.49,-94.79 -13.25,-19.8 -36.32,-54.42 -19.59,-71.02 55.52,-54.12 234.79,153.52 427.76,255.96 18.46,9.77 95.98,53.21 153.44,83.57 52.96,27.1 224.02,92.32 318.85,83.79 48.79,-4.13 76.89,-7.68 128.18,-46.6 103.59,-87.87 188.49,-496.52 336.86,-765.6 l -0.36,0.55 c -10,1.86 -158.14,9.07 -305.39,-1.24 -177.66,-14.47 -414.88,-76.99 -556.57,-131.77 l -0.13,0.43 c -33.49,40.76 -5.65,-2.02 -107.02,127.6 z m 59.69,-341.45 c 13.89,-93.19 5.7,-34.17 12.82,-86.57 -9.45,37.96 -158.91,197.6 -167.5,207.6 l 0.69,-0.52 c 0,0 110.58,6.74 143.01,5.45 0.3,-1.35 0.27,-2.83 -0.1,-4.16 2.81,-13.95 8.65,-106.36 11.08,-121.8 z M 2935,3290.4 c 55.16,10.04 68.19,-25.61 174.89,-71.98 44.54,-19.44 45.11,-26.83 128.49,-7.32 45.14,10.41 331.83,107.72 344.44,129.78 6.56,11.11 -1.42,23.3 -12.01,29 -6.45,3.56 -20.02,6.29 -27.28,7.51 -17.11,2.55 -90.39,23.01 -107.25,25.22 -5.5,0.7 -208.19,40.78 -210.46,41.33 l 1.01,-1.03 c -17.92,5.54 -85.28,16.49 -95.28,18.75 -63.87,14.18 -52.61,17.72 -84.67,22.62 -33.81,4.75 -40.03,-18.6 -126.62,-57.6 -0.52,-0.24 -0.88,-0.42 -1.35,-0.57 -0.08,4.02 -0.14,8.01 -0.15,12.02 85.34,66.04 -29.96,-31.54 149.06,125.28 64.46,-19.99 25.8,-8.3 72.17,-24.51 109.17,-38.69 360.92,-111.12 495.92,-176.81 0.75,-1.22 5.66,-3.61 6.99,-4.16 0,0 -15.14,-35.91 -24.05,-53.15 -1.41,-2.65 -2.49,-4.71 -3.49,-6.98 -82.1,-185.62 -41.95,-246.91 -191.36,-238.1 -52.57,2.99 -40.92,3.35 -103.81,2.02 -77.65,-1.89 -64.74,5.28 -139.34,9.1 -46.71,2.94 -60.08,7.08 -114.89,14.82 -44.94,6.08 -57.68,8.96 -103.38,91.06 -14.25,23.37 -27.38,54.5 -35.57,112.42 1.16,-0.33 6.82,1.01 7.99,1.28 z m 290.89,-53.34 c -86.12,-12.5 -59.82,-4.94 -138.87,29.26 -38.27,16.8 -77.8,42.26 -97.61,50.42 105.05,-14.62 87.8,-72.59 236.48,-79.68 z m 74.62,111.79 -1.51,-1.37 c -9.67,-18.48 -18.25,-34.15 -47.94,-48.76 -3.86,-1.79 -6.28,-2.92 -10.17,-3.71 -30.16,-17.38 -95.18,-3.54 -110.54,48.22 -4.76,15.27 -5.7,31.47 -5.7,31.47 l 0.33,0.15 c -0.32,15.27 1.57,20.51 4.8,34.71 0.83,3.72 4.94,22.66 7.53,25.46 60.99,-14.5 73.88,-11.71 176.04,-38.88 0.61,-4.16 -2.63,-25.24 -13.8,-47.61 z m -380.47,43.41 c 49.87,29.81 34.33,18.32 116.46,61.2 10.01,-0.78 40.91,-5.01 73.17,-12.79 -14.01,-25 -19.98,-89.01 8.68,-128.34 67.99,-95.87 213.67,-34.19 216.44,67.75 l -0.78,-0.87 c 1.11,4.07 0.57,8.4 0.13,12.53 14.11,-4.37 53.81,-9.62 64.26,-11 l -0.5,0.86 c 0.01,0 137.03,-33.81 137.04,-33.81 -84.11,-10.18 -246.14,-135.51 -406.76,-69.42 -28.35,12.17 -46.22,33.95 -92.25,49.23 -33.52,7.92 -35.32,19.54 -112.07,-0.69 -1.46,15.19 -2.61,15.78 -3.82,65.35 z M 2454.78,2161.57 c 3.51,2.6 5.86,3.07 7.42,7.98 174.95,2.8 512.52,0.55 614.44,-7.37 -0.23,-0.01 -0.41,-0.35 -0.6,-1.07 -16.24,-26.02 -26.86,-31.08 -36.86,-40.82 l -0.02,0.03 c -30.18,-24.19 -57.13,-35.81 -89.31,-44.39 -37.54,-9.43 -175.75,-19.01 -314.03,-15.12 -118.5,3.36 -212.3,-10.72 -232.83,12.46 -7.71,20.77 34.66,73.06 51.79,88.3 z m 164.18,-192.85 c 100.39,33.55 132.22,44.41 286.59,66.69 14.9,2.18 34.33,6.59 34.38,6.6 -14.81,-27.08 -42.84,-99.16 -49,-111.28 -2.12,-2.29 -4.48,-7.34 -5.03,-9.59 -0.02,0.97 -97.79,-0.77 -98.77,-0.84 -175.04,-13.37 -438.1,-79.24 -451.43,-82.43 82.02,59.32 174.9,94.75 283.26,130.85 z m 1123.2,456.25 0.28,0.69 c -40.46,-192.51 -24.28,-145.97 -44.64,-278.44 l 0.36,1.09 c -7.04,-35.66 -48.59,-187.17 -45.76,-177.14 -5.87,-20.78 -18.94,-46.01 -27.79,-61.2 -40.23,-68.98 -70.64,-81.29 -358.21,-248.98 -24.48,102.36 -97.48,158.99 -129.28,189.44 -13.24,12.89 -31.74,25.42 -43.78,31.46 -44.65,24.33 -54.11,22.32 -109.91,31.37 -22.81,3.46 -49.52,6.68 -73.43,8.03 2.96,3.06 7.04,14.46 8.5,18.46 l -1.07,-0.53 c 4.29,8.32 44.67,99.32 52.56,121.2 31.33,8.45 88.47,38.11 120.49,84.42 0.98,1.34 0.65,0.91 1.51,1.98 l -0.68,0.31 0.55,-0.23 c 2.11,2.27 8.1,10.4 9.37,13.87 78.25,-9.96 192.64,9.22 199.44,30.25 31.74,42.2 -271.8,52.52 -313.05,63.6 10.93,12.43 8.93,29.22 -10.79,32.64 -33.78,7.46 -123.92,-7.87 -133.93,-9.96 14.58,38.48 9.47,203.97 6.1,236.88 l 0.48,-0.15 c 10,0 105.34,9.96 129.35,22.57 7.61,3.81 13.77,9.96 15.42,30.42 8.73,16.32 17.11,127.52 11.85,231.54 -2.09,43.23 4.03,77.01 -41.18,245.09 0.12,-0.29 0.46,-0.45 0.78,-0.58 37.46,-28.28 89.23,-28.98 185.11,-42.78 99.62,-14.2 371.61,4.32 381.61,4.8 42.74,2.55 76.07,3.22 94.05,30.94 30.18,43.38 9.97,13.74 52.15,109.33 0.13,0.29 13.4,43.58 18.46,57.69 64.47,177.78 41.05,152.82 106.6,299.7 0.01,-0.33 1.33,-3.29 1.47,-3.62 14.52,-36.93 29.62,-121 32.21,-131.01 l -0.03,-0.01 c 17.13,-83.56 24.3,-215.77 9.65,-308.21 -76.67,-80.02 -175.07,-200.12 -207.65,-238.04 -39.49,-88.96 -15.26,-34.62 -72.22,-173.52 0.01,0 260.74,303.23 260.75,303.24 l -0.33,-0.48 c -1.42,-5.34 -15.01,-97.64 -15.01,-98.58 -3.95,-11.25 -10.2,-81.04 -14.77,-114.6 -4.05,-30.28 -1.11,-9.08 -11.66,-64.52 -43.91,-227 -25.36,-129.01 -43.93,-248.43 z m 863.2,-1316.26 c -252.63,43.51 -538.99,74.29 -792.33,71.24 -87.84,-1.28 -103.14,11.81 -208.16,7.2 5.14,9.77 87.79,307.08 86.04,319.9 1.51,3.11 1.42,7.06 -0.23,10.03 -6.5,11.44 -10.81,5.19 -69.54,-20.12 -54.18,-22.23 -207.5,-104.19 -256.86,-130.5 7.22,12.7 30.02,98.81 46.27,149.73 3.15,10 10.71,33.62 16.42,50.65 11.52,32.76 18.07,54.04 18.07,54.04 l -0.78,-0.69 c 6.17,12.12 11.14,36.74 16.15,52.68 1.41,3.94 13.83,34.72 13.88,38.47 181.57,101.05 211.88,184.5 232.05,252.4 l -1.1,-0.96 c 18.27,46.75 72.73,426.21 74.29,436.21 1.48,-3.61 39.62,-4.6 43.58,-4.51 28.92,0.68 81.71,24.45 91.71,28.6 38.22,16.31 55.61,29.85 79.17,54.04 17.1,17.71 90.64,100.83 119.84,184.21 125.42,349.75 36.15,684.06 -77.24,753.93 -33.87,20.87 -51.1,28.6 -102.75,-11.27 1.69,8.65 26.41,151.21 29.26,168.75 4.31,1.25 13.81,7.76 17.37,10.61 27.55,21.98 20.31,53.41 25.87,81.15 -3.59,10.01 -5.33,14.48 -10.62,31.37 -3.52,2.29 -22.92,9.14 -27.07,10.77 10.38,6.75 79.44,443.66 81.43,455.21 40.89,236.77 38.21,218.45 -122.17,473.8 -168.8,269.38 -182.2,266.36 -208.79,301.72 -55.52,73.86 -62.88,77.77 -72.78,90.4 -16.84,21.5 -470.82,329.21 -1128.43,231.33 -25.4,-3.81 -54.02,-8.3 -54.02,-8.3 -113.45,-17.37 -286.63,-45.11 -399.12,-84.96 -164.03,-57.78 -100.63,-30.65 -224.45,-121.15 -0.84,-0.88 -3.3,-2.49 -3.3,-2.49 -29.04,-23.16 -35.36,-2.81 -331.15,-364.76 -128.93,-158.21 -133.92,-157.42 -161.04,-204.64 -59.91,-103.88 -45.59,-185.32 -44.52,-271.36 1.62,-165.63 69.81,-439.01 97.03,-569.98 -45.82,-32.12 -55.73,-67.1 -56.8,-123.3 -0.39,-18.2 3.12,-35.37 14.02,-49.78 15.85,-19.59 43.91,4.59 52.26,-11.31 2.82,-5.19 15.92,-62.82 17.36,-68.83 -23.55,3.63 -75.12,-17.39 -85.12,-24.06 -32.64,-21.95 -33.52,-26.16 -61.12,-69.86 -16.11,-26.76 -35.89,-79.6 -41.33,-101.4 -3.41,-13.78 -4.79,-20.32 -8.11,-50.97 l 0.48,0.23 c -6.84,-43.02 1.12,-96.77 4.16,-149.62 36.96,-297.96 113.57,-512.87 388.69,-660.37 15.14,-75.49 29.89,-139.96 13.92,-216.71 -12.71,-61.05 -29.33,-121.44 -45.9,-181.52 -22.31,-80.87 -47.89,-160.75 -70.85,-241.41 -5.08,-18.03 -6.31,-28.01 -23.15,-50.25 -39.3,-57.79 -136.13,-115.41 -203.3,-146.79 -220.56,-103.52 -543.402,-238.01 -533.402,-233.71 -46.257,-19.86 -166.753,-91.75 -156.71,-85.64 -14.77,-8.99 -23.395,-16.86 -38.579,-26.03 -22.851,-13.88 -38.078,-28.63 -42.382,-34.86 -3.524,-5.01 -4.325,-9.98 -3.735,-15.84 -5.836,-25.69 25.621,-42.85 50.528,-54.62 63.546,-30.94 150.589,-27.9 932.76,-54.318 19.74,-0.66 12.8,-0.601 35.95,-0.941 225.46,-3.309 264.38,-10.301 338.99,-2.52 66.87,-159.718 337.58,-468.492 439.84,-468.492 10,0 22.41,1.922 42.34,22.602 46.9,49.32 312.26,375.64 378.76,443.199 213.15,-309.039 287.81,-553.758 319.15,-520.348 2.14,1.078 60.87,52.078 63.91,54.84 99.61,91.07 250.66,195.438 388.47,454.168 l 0.57,-0.238 c 109.14,-3.61 678.01,36.879 856.72,39.448 341.61,6.07 379.62,11.34 381.43,44.68 4.18,41.03 -100.94,55.11 -141.8,61.82"
         style="fill:#111011;fill-opacity:1;fill-rule:nonzero;stroke:none"
         id="path70" /><path
         d="m 3212.62,3382.86 c 0.16,-4.65 4.06,-8.05 8.6,-8.05 4.53,0 8.21,4.17 8.05,8.59 -0.15,4.65 -4.06,8.06 -8.59,8.06 -4.54,0 -8.21,-4.17 -8.06,-8.6"
         style="fill:#f7f7f3;fill-opacity:1;fill-rule:nonzero;stroke:none"
         id="path72" /><path
         d="m 2099.83,3332.18 c 0.15,-4.79 4.18,-8.29 8.86,-8.29 4.68,0 8.46,4.3 8.3,8.86 -0.15,4.79 -4.19,8.3 -8.87,8.3 -4.67,0 -8.45,-4.3 -8.29,-8.87"
         style="fill:#f7f7f3;fill-opacity:1;fill-rule:nonzero;stroke:none"
         id="path74" /><path
         d="M 75.6563,213.781 C 71.8945,138.652 72.5703,91.6992 77.6641,72.9297 91.6211,87.4102 102.754,113.91 111.074,152.41 c 8.313,38.5 12.129,73.84 11.465,106.039 -0.676,32.203 -5.168,48.551 -13.476,49.102 -5.372,0.262 -10.2075,-2.75 -14.4927,-9.051 -4.2969,-6.309 -7.5117,-14.098 -9.6601,-23.348 -2.1446,-9.25 -4.0196,-18.511 -5.6329,-27.769 -1.6132,-9.254 -2.5507,-17.242 -2.8125,-23.942 z m 47.4887,110.668 c 10.722,-1.34 18.449,-11 23.144,-28.976 4.688,-17.973 5.625,-39.711 2.813,-65.192 -2.813,-25.492 -7.852,-51.25 -15.086,-77.269 -7.246,-26.032 -17.981,-49.43 -32.2,-70.2307 C 87.5898,61.9922 72.0313,48.7813 55.1367,43.1523 47.8906,40.4688 41.8555,39.1211 37.0234,39.1211 27.3633,38.8594 19.582,44.0195 13.6797,54.6211 7.77344,65.2227 4.02344,79.0898 2.41406,96.2695 0.800781,113.441 0,132.891 0,154.621 c 0,21.738 1.00781,43.66 3.01953,65.801 2.01172,22.129 3.67969,43.32 5.02735,63.578 1.33984,20.262 2.54692,37.563 3.62112,51.922 1.0742,14.34 0.6679,24.738 -1.2071,31.187 1.0704,0.262 2.5469,0.532 4.4336,0.801 1.875,0.262 5.4297,0.539 10.6602,0.813 5.2344,0.269 10.1992,0.058 14.8945,-0.602 4.6875,-0.68 9.8516,-2.219 15.4883,-4.629 5.6367,-2.422 10.3906,-5.64 14.2852,-9.66 3.8867,-4.019 6.9765,-9.801 9.2578,-17.312 2.2773,-7.52 3.0195,-16.36 2.2109,-26.559 0,-2.68 -0.1406,-4.832 -0.4023,-6.43 12.8789,15.821 26.8239,22.789 41.8559,20.918"
         style="fill:#111011;fill-opacity:1;fill-rule:nonzero;stroke:none"
         id="path76" /><path
         d="m 455.945,170.313 7.649,-1.602 c -1.614,-3.219 -3.828,-7.59 -6.641,-13.078 -2.812,-5.504 -8.855,-15.301 -18.105,-29.383 C 429.59,112.172 420.266,99.7617 410.879,89.0195 401.484,78.2891 389.805,68.5 375.859,59.6523 c -13.945,-8.8632 -27.5,-13.2812 -40.644,-13.2812 -8.047,0 -13.953,3.2187 -17.703,9.6602 -3.762,6.4296 -5.571,14.8203 -5.434,25.1484 0.129,10.3203 1.067,21.5903 2.817,33.8003 1.746,12.211 3.679,24.352 5.835,36.43 2.141,12.07 3.684,22.992 4.629,32.789 0.942,9.793 0.2,17.371 -2.214,22.731 -2.415,5.383 -6.844,7.39 -13.282,6.05 l -0.398,-0.41 c -4.027,-1.34 -7.785,-3.757 -11.274,-7.238 -4.296,-4.832 -7.644,-9.801 -10.054,-14.891 -2.688,-5.628 -5.102,-12.621 -7.246,-20.929 -1.887,-8.59 -3.489,-16.762 -4.836,-24.551 -0.266,-0.801 -0.535,-1.941 -0.801,-3.418 -0.274,-1.473 -0.399,-2.613 -0.399,-3.41 0,-0.551 -0.136,-1.211 -0.402,-2.024 -0.273,-0.808 -0.41,-1.339 -0.41,-1.609 -0.535,-1.07 -0.801,-1.879 -0.801,-2.41 -0.539,-1.078 -1.074,-2.02 -1.609,-2.82 l -2.016,-2.008 c -0.269,-0.282 -0.601,-0.403 -1.004,-0.403 -0.398,0 -0.742,-0.14 -1.008,-0.398 l -0.796,-0.41 c -0.278,0 -0.547,0 -0.813,0 h -0.801 c -1.609,0 -3.086,0.41 -4.425,1.211 -0.543,0.258 -1.207,0.801 -2.02,1.609 -0.801,1.059 -1.477,2.141 -2.012,3.219 -0.539,1.07 -0.8,1.871 -0.8,2.41 -0.54,1.879 -1.075,4.43 -1.614,7.652 -0.269,1.61 -0.601,4.02 -1.004,7.25 -0.398,3.207 -0.742,5.618 -1.007,7.227 l -1.208,14.094 c -0.265,1.34 -0.597,3.476 -1.007,6.437 -0.403,2.949 -0.743,5.231 -1.004,6.84 -2.153,6.98 -3.352,10.73 -3.614,11.262 -0.277,0.539 -0.675,1.078 -1.21,1.617 l -1.211,-1.207 c -0.266,-0.543 -0.746,-1.34 -1.411,-2.422 -0.671,-1.07 -1.14,-1.871 -1.406,-2.41 l -4.832,-10.867 -3.625,-11.262 c -2.41,-7.52 -4.422,-14.762 -6.031,-21.738 -1.074,-4.563 -2.484,-10.524 -4.223,-17.91 -1.746,-7.372 -2.886,-12.411 -3.426,-15.083 -0.539,-3.488 -1.203,-7.25 -2.011,-11.269 C 210.996,82.0391 199.055,71.3203 180.281,70.5195 169.277,70.25 161.301,74.7422 156.34,84 c -4.973,9.25 -7.043,20.922 -6.242,35 0.8,14.102 2.011,29.313 3.625,45.68 1.609,16.371 3.418,31.39 5.425,45.082 2.012,13.679 1.946,24.808 -0.195,33.39 0.805,0.27 2.016,0.539 3.613,0.821 1.614,0.257 4.563,0.519 8.86,0.797 4.289,0.261 8.379,0.062 12.273,-0.61 3.891,-0.668 8.117,-2.148 12.68,-4.418 4.559,-2.293 8.445,-5.371 11.668,-9.262 3.223,-3.89 5.691,-9.519 7.441,-16.91 1.746,-7.379 2.356,-16.031 1.817,-25.949 0,-2.691 -0.274,-6.172 -0.801,-10.461 0.527,1.063 1.133,2.621 1.809,4.629 0.664,2.012 1.128,3.422 1.406,4.231 1.875,4.55 3.886,8.839 6.035,12.871 2.144,3.761 3.621,6.031 4.434,6.839 l 3.21,3.219 c 1.336,1.34 3.086,2.543 5.235,3.621 1.062,0.539 2.273,0.809 3.625,0.809 0.535,0 0.933,0.133 1.211,0.402 h 0.398 0.403 l 0.796,-0.402 h 1.211 c 2.676,-0.547 4.828,-1.348 6.438,-2.41 1.875,-1.348 3.359,-2.817 4.433,-4.438 0.262,-0.531 0.665,-1.269 1.204,-2.199 0.535,-0.953 0.933,-1.68 1.211,-2.223 0.796,-1.879 1.738,-4.418 2.808,-7.648 0.539,-1.879 1.074,-4.422 1.613,-7.641 0.536,-3.488 1.075,-8.449 1.614,-14.898 0.535,-6.43 0.797,-11.133 0.797,-14.082 v -1.211 c 0.265,0.812 0.941,3.16 2.011,7.043 1.074,3.891 1.875,6.777 2.422,8.648 2.414,8.059 5.5,15.43 9.262,22.141 3.211,6.18 7.5,11.672 12.871,16.508 4.019,3.472 8.719,6.16 14.09,8.043 l 0.801,0.398 c 0.539,0 0.937,0 1.211,0 2.949,0.539 5.964,1.012 9.05,1.41 3.078,0.403 8.45,0.141 16.098,-0.8 7.644,-0.95 14.148,-2.891 19.519,-5.84 5.364,-2.95 9.993,-8.321 13.887,-16.09 3.875,-7.789 5.43,-17.711 4.617,-29.789 -0.535,-8.051 -1.597,-19.18 -3.211,-33.399 -2.683,-26.832 -2.96,-42.5309 -0.808,-47.0817 2.945,-5.6289 10.867,-3.2187 23.75,7.2422 10.996,8.8595 21.785,19.5785 32.39,32.1995 10.594,12.597 18.45,22.937 23.543,30.98 l 8.047,12.071"
         style="fill:#111011;fill-opacity:1;fill-rule:nonzero;stroke:none"
         id="path78" /><path
         d="m 487.336,245.172 c -5.898,-5.902 -13.012,-8.852 -21.328,-8.852 -8.32,0 -15.434,2.95 -21.328,8.852 -5.903,5.898 -8.852,13.008 -8.852,21.32 0,8.328 2.949,15.43 8.852,21.328 5.894,5.903 13.008,8.86 21.328,8.86 8.316,0 15.43,-2.957 21.328,-8.86 5.894,-5.898 8.855,-13 8.855,-21.328 0,-8.312 -2.961,-15.422 -8.855,-21.32 z m 78.477,-59.961 11.667,-4.43 c -0.261,-0.269 -2.082,-4.16 -5.429,-11.672 -3.36,-7.519 -6.985,-15.359 -10.867,-23.539 -3.887,-8.187 -9.399,-17.507 -16.496,-27.968 C 537.566,107.141 530.266,97.9414 522.754,90.0313 515.234,82.1211 506.25,75.4805 495.793,70.1094 485.32,64.7422 474.727,62.1992 463.992,62.4609 451.926,63 442.871,67.9023 436.836,77.1523 c -6.043,9.2579 -9.258,20.7891 -9.656,34.6097 -0.41,13.82 0.054,27.57 1.406,41.25 1.336,13.687 2.879,26.418 4.629,38.23 1.734,11.809 2.207,19.047 1.402,21.738 1.613,0.262 3.75,0.59 6.438,1.012 2.683,0.399 7.453,0.399 14.289,0 6.844,-0.422 12.676,-1.621 17.508,-3.633 4.824,-2.007 8.984,-5.839 12.468,-11.468 3.489,-5.641 4.563,-12.871 3.227,-21.731 -7.246,-49.097 -6.035,-75.531 3.621,-79.2811 4.023,-1.6094 9.52,0 16.492,4.8321 8.586,5.891 17.649,15.762 27.168,29.578 9.524,13.813 16.965,26.09 22.336,36.82 l 7.649,16.102"
         style="fill:#111011;fill-opacity:1;fill-rule:nonzero;stroke:none"
         id="path80" /><path
         d="m 703.047,188.031 8.848,-6.449 c -0.801,-2.152 -1.875,-4.891 -3.211,-8.25 -1.348,-3.352 -4.368,-10.062 -9.055,-20.121 -4.695,-10.051 -9.602,-19.59 -14.695,-28.57 -5.098,-8.989 -11.606,-18.918 -19.512,-29.7816 C 657.5,84 649.453,74.7422 641.27,67.0898 633.086,59.4414 623.621,53.2109 612.898,48.3789 602.168,43.5625 591.438,41.5313 580.703,42.3398 574.27,42.6211 568.762,45.832 564.211,52 c -4.57,6.1719 -7.988,15.2305 -10.266,27.1719 -2.285,11.9297 -4.023,24.3481 -5.234,37.2191 -1.211,12.879 -1.68,28.5 -1.406,46.879 0.261,18.382 0.664,34.679 1.203,48.902 0.535,14.219 1.347,30.848 2.422,49.898 -1.614,0 -3.899,-0.07 -6.848,-0.199 -2.949,-0.141 -5.098,-0.34 -6.437,-0.601 -5.907,0 -10.204,-0.149 -12.879,-0.411 h -18.914 -5.637 -1.602 l -1.211,12.481 c 0.536,0 1.211,0.129 2.012,0.402 0.274,0 2.012,0.258 5.234,0.809 1.336,0.269 2.95,0.531 4.825,0.801 1.875,0.269 4.226,0.609 7.043,1.007 2.82,0.403 5.164,0.731 7.047,1 0.8,0 2.675,0.211 5.625,0.614 2.953,0.398 5.238,0.726 6.847,1.007 2.949,0.532 7.649,1.059 14.082,1.61 0.535,0.262 1.074,0.402 1.613,0.402 3.485,53.117 4.161,83.699 2.008,91.75 1.075,0.27 2.414,0.528 4.028,0.809 1.609,0.262 4.761,0.461 9.461,0.601 4.687,0.129 9.113,-0.07 13.281,-0.601 4.148,-0.539 8.711,-1.891 13.68,-4.031 4.96,-2.149 9.179,-5.028 12.675,-8.649 3.489,-3.621 6.242,-8.789 8.254,-15.5 2.012,-6.711 2.61,-14.621 1.809,-23.742 -0.278,-4.816 -0.949,-16.637 -2.016,-35.406 1.067,0 2.949,0.058 5.637,0.199 2.676,0.129 4.558,0.199 5.637,0.199 2.949,0.27 7.097,0.399 12.468,0.399 1.336,0 3.223,0.062 5.633,0.21 2.426,0.122 4.16,0.192 5.235,0.192 h 8.449 7.246 l 0.808,-12.473 c -1.609,-0.547 -3.894,-1.07 -6.843,-1.609 -2.41,-0.539 -5.235,-0.949 -8.45,-1.211 -1.082,0 -2.75,-0.199 -5.039,-0.609 -2.273,-0.399 -4.089,-0.731 -5.425,-1 -1.348,0 -3.418,-0.2 -6.243,-0.598 -2.812,-0.41 -5.031,-0.742 -6.64,-1 -1.074,0 -3.153,-0.211 -6.231,-0.609 -3.086,-0.403 -5.437,-0.743 -7.043,-1 -1.082,-21.211 -1.882,-44.551 -2.421,-70.032 0.265,-48.832 0.675,-76.332 1.21,-82.492 1.875,-22.0077 6.575,-32.8671 14.082,-32.5976 3.489,0 7.512,1.8594 12.083,5.6289 7.773,6.4414 17.031,17.9687 27.761,34.6097 10.727,16.633 19.453,31.789 26.164,45.472 l 10.059,20.129"
         style="fill:#111011;fill-opacity:1;fill-rule:nonzero;stroke:none"
         id="path82" /><path
         d="m 886.555,175.551 8.855,0.398 c 3.75,-0.797 5.086,-2.949 4.024,-6.437 0,-0.27 -0.95,-3.621 -2.825,-10.063 -1.875,-6.437 -3.882,-13.41 -6.035,-20.918 -2.144,-7.519 -5.23,-16.699 -9.258,-27.57 C 877.297,100.09 873.066,89.6914 868.645,79.7695 864.219,69.8398 858.789,59.7813 852.344,49.5898 845.906,39.4023 839.27,30.6719 832.422,23.4297 825.586,16.1797 817.734,10.3516 808.887,5.92188 800.027,1.5 790.906,-0.449219 781.516,0.0898438 774.277,0.359375 768.23,2.71094 763.406,7.12891 c -4.832,4.42189 -8.179,10.54299 -10.054,18.31249 -1.887,7.7813 -3.086,16.0899 -3.625,24.9492 -0.547,8.8594 -0.207,19.1797 1.003,30.9883 1.204,11.8008 2.485,22.4731 3.821,31.9921 1.34,9.52 2.883,20.192 4.629,31.988 1.75,11.813 3.015,20.93 3.828,27.383 -16.903,0.258 -30.254,1.797 -40.047,4.617 -9.797,2.821 -16.027,6.371 -18.715,10.672 -2.683,4.289 -4.363,9.11 -5.027,14.481 -0.672,5.359 -0.403,10.929 0.808,16.699 1.203,5.769 0.735,11.469 -1.414,17.109 1.614,0.801 3.692,1.61 6.242,2.41 2.547,0.801 7.11,1.743 13.68,2.809 6.57,1.082 12.332,1.082 17.305,0 4.961,-1.066 9.258,-4.156 12.883,-9.238 3.621,-5.11 5.027,-12.481 4.226,-22.141 -0.547,-6.988 5.227,-10.461 17.305,-10.461 4.289,0.262 8.574,0.262 12.871,0 4.285,-0.277 9.395,-1.418 15.293,-3.429 5.898,-2.008 10.801,-4.891 14.687,-8.649 3.887,-3.762 7.04,-9.332 9.461,-16.699 2.414,-7.383 2.954,-16.039 1.614,-25.961 -6.446,-49.3594 -9.395,-79.4102 -8.86,-90.1407 0.539,-20.3906 7.512,-23.3398 20.93,-8.8476 9.387,9.9179 18.313,25.6796 26.758,47.2773 8.457,21.59 14.551,40.711 18.308,57.352 l 5.239,24.949"
         style="fill:#111011;fill-opacity:1;fill-rule:nonzero;stroke:none"
         id="path84" /><path
         d="m 919.949,245.172 c -5.894,-5.902 -13.008,-8.852 -21.328,-8.852 -8.316,0 -15.43,2.95 -21.324,8.852 -5.902,5.898 -8.852,13.008 -8.852,21.32 0,8.328 2.95,15.43 8.852,21.328 5.894,5.903 13.008,8.86 21.324,8.86 8.32,0 15.434,-2.957 21.328,-8.86 5.903,-5.898 8.86,-13 8.86,-21.328 0,-8.312 -2.957,-15.422 -8.86,-21.32 z m 78.481,-59.961 11.67,-4.43 c -0.27,-0.269 -2.08,-4.16 -5.43,-11.672 -3.36,-7.519 -6.982,-15.359 -10.869,-23.539 -3.891,-8.187 -9.399,-17.507 -16.496,-27.968 C 970.188,107.141 962.883,97.9414 955.371,90.0313 947.852,82.1211 938.867,75.4805 928.406,70.1094 917.938,64.7422 907.344,62.1992 896.609,62.4609 884.543,63 875.488,67.9023 869.453,77.1523 c -6.047,9.2579 -9.258,20.7891 -9.656,34.6097 -0.41,13.82 0.058,27.57 1.402,41.25 1.34,13.687 2.883,26.418 4.629,38.23 1.738,11.809 2.207,19.047 1.406,21.738 1.614,0.262 3.75,0.59 6.438,1.012 2.683,0.399 7.449,0.399 14.289,0 6.844,-0.422 12.676,-1.621 17.508,-3.633 4.824,-2.007 8.984,-5.839 12.469,-11.468 3.488,-5.641 4.562,-12.871 3.222,-21.731 -7.242,-49.097 -6.031,-75.531 3.625,-79.2811 4.024,-1.6094 9.524,0 16.492,4.8321 8.586,5.891 17.649,15.762 27.168,29.578 9.524,13.813 16.965,26.09 22.336,36.82 l 7.649,16.102"
         style="fill:#111011;fill-opacity:1;fill-rule:nonzero;stroke:none"
         id="path86" /><path
         d="m 1234.25,90.2422 c 1.06,-14.5 -2.42,-26.3633 -10.47,-35.6211 -8.05,-9.2617 -18.65,-15.5586 -31.79,-18.9219 -13.15,-3.3476 -26.36,-5.6289 -39.65,-6.8398 -13.27,-1.1992 -25.88,-2.0078 -37.82,-2.4102 -11.94,-0.3984 -19.26,-1.2695 -21.93,-2.6172 -0.54,1.8789 -1.28,4.3008 -2.22,7.25 -0.94,2.9493 -1.87,8.25 -2.81,15.8907 -0.94,7.6484 -0.81,14.4179 0.4,20.3281 1.21,5.8906 4.49,11.3906 9.86,16.4883 5.36,5.1015 13.01,7.9101 22.94,8.4609 45.07,2.1406 70.56,6.4297 76.46,12.879 2.68,2.941 2.68,6.973 0,12.07 -3.76,7.242 -10.06,14.742 -18.92,22.531 -8.85,7.782 -17.7,14.961 -26.55,21.532 -8.86,6.57 -17.91,13.89 -27.17,21.929 -9.26,8.051 -16.3,16.911 -21.12,26.571 -4.84,9.648 -7.52,20.379 -8.06,32.187 -0.54,11.801 3.43,25.813 11.88,42.051 8.44,16.242 21.26,34.012 38.43,53.32 7.5,7.512 12.74,12.493 15.7,14.899 16.09,12.883 30.71,17.172 43.85,12.883 23.62,-7.25 31.8,-26.032 24.55,-56.352 -3.21,-12.34 -5.96,-26.961 -8.25,-43.859 -2.27,-16.899 -3.42,-28.981 -3.42,-36.219 h -16.49 c 2.41,28.168 4.55,51.238 6.44,69.219 0.26,3.211 -0.95,4.148 -3.63,2.808 -2.41,-1.07 -8.04,-5.886 -16.9,-14.476 -13.68,-13.684 -23.48,-26.703 -29.38,-39.043 -5.9,-12.348 -8.04,-23.34 -6.43,-33 1.61,-9.66 5.03,-18.778 10.26,-27.36 5.23,-8.597 11.87,-16.84 19.91,-24.75 8.06,-7.918 15.77,-15.5 23.15,-22.738 7.37,-7.242 13.94,-15.16 19.72,-23.742 5.77,-8.598 8.91,-17.0392 9.46,-25.3478"
         style="fill:#111011;fill-opacity:1;fill-rule:nonzero;stroke:none"
         id="path88" /><path
         d="m 1461.62,174.34 7.65,-2.418 c -0.81,-2.68 -2.08,-6.172 -3.83,-10.449 -1.75,-4.301 -5.23,-11.883 -10.46,-22.754 -5.23,-10.86 -10.47,-20.317 -15.69,-28.367 -5.24,-8.039 -11.48,-15.0903 -18.72,-21.1215 -7.24,-6.0391 -14.22,-8.3907 -20.92,-7.0391 -7.79,1.5977 -13.96,9.3789 -18.52,23.3396 -4.57,13.942 -7.52,28.84 -8.85,44.668 -1.34,15.832 -3.76,30.18 -7.24,43.051 -3.5,12.883 -8.19,19.32 -14.09,19.32 -4.83,0 -8.59,-5.371 -11.27,-16.09 -2.69,-10.738 -4.96,-23.691 -6.84,-38.839 -1.88,-15.161 -4.42,-30.321 -7.64,-45.469 -3.23,-15.172 -9,-27.9728 -17.31,-38.4415 -8.32,-10.461 -19.05,-15.5586 -32.2,-15.2891 -8.58,-0.2695 -15.48,4.7578 -20.72,15.0977 -5.23,10.3203 -8.59,23.9414 -10.06,40.8439 -1.48,16.898 -2.21,35.867 -2.21,56.937 0,21.063 0.93,42.321 2.81,63.789 1.87,21.461 3.43,42.051 4.63,61.782 1.21,19.711 2.27,36.41 3.22,50.089 0.94,13.68 0.6,23.34 -1.01,28.981 1.88,0.531 4.36,1 7.44,1.41 3.09,0.399 8.46,0.27 16.11,-0.41 7.64,-0.672 14.29,-2.41 19.92,-5.219 5.64,-2.82 10.6,-8.191 14.88,-16.101 4.29,-7.911 5.9,-18.051 4.84,-30.391 -4.57,-59.559 -7.39,-109.461 -8.46,-149.699 10.2,48.019 25.09,72.039 44.68,72.039 10.46,0 18.57,-7.32 24.34,-21.938 5.77,-14.621 9.19,-30.793 10.27,-48.492 1.06,-17.711 2.88,-34.347 5.43,-49.898 2.55,-15.571 6.36,-24.02 11.46,-25.352 6.17,-1.617 14.09,3.621 23.75,15.692 9.66,12.07 17.84,24.55 24.55,37.418 l 10.06,19.32"
         style="fill:#111011;fill-opacity:1;fill-rule:nonzero;stroke:none"
         id="path90" /><path
         d="m 1535.26,188.031 c -5.09,1.598 -10.87,0 -17.3,-4.84 0.54,-1.07 1.61,-2.41 3.22,-4.019 2.14,-2.152 4.43,-3.762 6.84,-4.832 1.34,-1.078 2.82,-1.75 4.42,-2.02 3.22,-0.8 4.96,-1.199 5.24,-1.199 3.22,-0.808 6.43,-1.211 9.65,-1.211 -1.87,10.199 -5.89,16.231 -12.07,18.121 z m -29.78,-93.3708 c 6.71,-2.1485 13.82,0.6015 21.33,8.2498 7.51,7.653 13.28,17.91 17.3,30.781 1.08,3.231 2.15,7.508 3.22,12.879 -5.37,-0.531 -9.52,-0.668 -12.47,-0.398 -0.54,0 -1.41,0.058 -2.61,0.199 -1.21,0.129 -2.29,0.258 -3.23,0.41 -0.93,0.129 -1.8,0.328 -2.61,0.59 -1.88,0.281 -4.7,0.942 -8.45,2.031 -4.57,1.328 -9.26,3.75 -14.08,7.227 -1.61,1.082 -2.69,1.883 -3.23,2.422 -0.53,-1.34 -1.88,-4.692 -4.02,-10.059 -4.02,-12.883 -5.17,-24.621 -3.42,-35.211 1.74,-10.609 5.83,-16.9685 12.27,-19.1208 z m 131.2,101.8198 4.82,-8.449 c -1.34,-1.09 -3.22,-2.422 -5.63,-4.031 -0.27,-0.27 -0.8,-0.598 -1.61,-1.008 -0.8,-0.402 -1.34,-0.73 -1.61,-1.012 l -3.62,-2.41 c -0.27,-0.257 -0.88,-0.668 -1.81,-1.199 -0.94,-0.551 -1.68,-0.949 -2.21,-1.211 -0.55,-0.269 -1.35,-0.801 -2.42,-1.609 -1.08,-0.801 -1.88,-1.352 -2.41,-1.61 -2.96,-1.351 -4.7,-2.281 -5.24,-2.82 -0.54,-0.539 -1.47,-1.141 -2.81,-1.808 -1.35,-0.68 -2.29,-1.153 -2.82,-1.411 -0.27,-0.273 -0.75,-0.601 -1.41,-1 -0.67,-0.41 -1.14,-0.613 -1.41,-0.613 l -1.61,-0.797 c -0.27,0 -0.53,-0.14 -0.8,-0.402 -0.27,-0.27 -0.54,-0.41 -0.81,-0.41 -1.07,-0.27 -2.15,-0.801 -3.21,-1.598 -1.09,-0.281 -2.16,-0.812 -3.22,-1.609 -2.96,-1.352 -7.65,-3.364 -14.09,-6.043 -4.03,-1.61 -8.99,-3.36 -14.89,-5.231 -0.81,-0.277 -1.95,-0.609 -3.42,-1.008 -1.48,-0.402 -2.49,-0.609 -3.02,-0.609 -0.8,-4.82 -2.02,-9.652 -3.62,-14.48 -6.71,-20.93 -18.11,-36.9614 -34.21,-48.0903 -16.1,-11.1406 -32.33,-14.1523 -48.7,-9.0625 -16.36,5.0899 -27.9,16.8399 -34.6,35.2228 -6.71,18.367 -6.71,38.148 0,59.348 6.7,20.929 18.11,36.96 34.2,48.101 16.11,11.121 32.34,14.141 48.7,9.051 11,-3.492 19.98,-10.531 26.97,-21.133 6.97,-10.598 10.99,-22.867 12.07,-36.816 h 1.21 c 6.7,1.34 11.26,2.277 13.68,2.816 2.14,0.262 6.56,1.473 13.28,3.621 1.6,0.539 2.68,0.942 3.21,1.211 1.61,0.531 2.68,0.801 3.23,0.801 l 1.61,0.801 c 0.26,0 0.52,0.066 0.8,0.207 0.26,0.133 0.54,0.199 0.81,0.199 0.26,0.273 0.73,0.531 1.4,0.801 0.67,0.269 1.14,0.402 1.41,0.402 l 6.04,2.418 c 1.61,0.531 3.35,1.211 5.23,2.02 2.14,1.062 3.75,1.73 4.82,2.011 2.15,1.059 3.63,1.739 4.44,2.008 0.26,0.262 0.87,0.602 1.81,1.012 0.93,0.398 1.54,0.73 1.81,1 l 3.61,1.199 6.05,3.23"
         style="fill:#111011;fill-opacity:1;fill-rule:nonzero;stroke:none"
         id="path92" /><path
         d="m 1639.48,47.9805 c 2.42,-2.6797 6.05,-5.6407 10.87,-8.8594 l 2.41,-1.1992 c 9.12,-3.2227 14.76,-1.3516 16.91,5.6406 2.15,7.2266 1.81,15.0781 -1.01,23.5273 -2.81,8.461 -6.37,15.9024 -10.66,22.3321 -4.3,6.4492 -10.87,15.5581 -19.72,27.3791 -1.35,1.601 -2.28,2.808 -2.82,3.609 -2.15,-4.558 -3.89,-9.789 -5.23,-15.687 -1.61,-7.7933 -2.28,-15.1605 -2.01,-22.1332 0.27,-2.1484 0.67,-5.6406 1.2,-10.4687 0.27,-0.8008 0.54,-1.8711 0.81,-3.2109 0.27,-1.3477 0.53,-2.5586 0.81,-3.6289 0.26,-1.0704 0.53,-2.0118 0.8,-2.8204 1.34,-5.0898 3.88,-9.9218 7.64,-14.4804 z m 123.96,121.5315 1.61,-9.66 c -1.61,0.8 -3.9,1.949 -6.85,3.418 -2.95,1.48 -8.51,3.691 -16.7,6.64 -8.18,2.949 -15.89,5.031 -23.14,6.242 -7.24,1.207 -15.09,1.27 -23.54,0.207 -8.45,-1.089 -15.36,-4.039 -20.73,-8.859 2.95,-4.57 7.18,-10.801 12.69,-18.711 5.49,-7.918 9.92,-14.359 13.27,-19.316 3.36,-4.973 7.38,-11.141 12.08,-18.512 4.69,-7.379 8.25,-13.5587 10.66,-18.5196 2.42,-4.9609 4.9,-10.5898 7.44,-16.8906 2.55,-6.3086 3.89,-11.8203 4.03,-16.5078 0.13,-4.6836 -0.27,-9.4532 -1.2,-14.2813 -0.95,-4.832 -3.1,-9.2617 -6.45,-13.2812 -3.36,-4.0313 -7.71,-7.6485 -13.07,-10.8594 -19.06,-9.1211 -35.15,-12.21094 -48.3,-9.2617 h -0.4 c -0.81,0 -1.34,0.1406 -1.61,0.4023 -3.49,0.5391 -6.84,1.4688 -10.06,2.8086 -3.76,1.0899 -8.45,3.3594 -14.09,6.8516 -6.17,4.0195 -11.27,8.5898 -15.29,13.6797 -5.1,6.4297 -8.85,13.6797 -11.27,21.7304 0,0.5391 -0.07,1.1485 -0.2,1.8086 -0.13,0.6719 -0.2,1.1407 -0.2,1.4102 l -0.4,0.8086 v 0.8008 l -0.4,1.6093 -0.4,1.2032 v 1.6093 c -0.28,0.8203 -0.41,1.8789 -0.41,3.2305 -0.8,4.0195 -1.2,8.3086 -1.2,12.8789 0,9.6602 1.06,18.6406 3.21,26.9606 2.42,8.309 5.9,16.758 10.47,25.348 0,0.27 0.13,0.402 0.4,0.402 l 0.4,0.797 c -4.29,5.903 -8.72,12.352 -13.28,19.321 -7.51,11.812 -12.68,22.742 -15.49,32.8 -2.82,10.059 -3.49,18.45 -2.01,25.16 1.46,6.7 4.02,12.731 7.64,18.102 3.63,5.367 7.98,9.59 13.08,12.68 5.1,3.09 9.86,5.687 14.29,7.847 4.42,2.141 8.25,3.481 11.46,4.032 l 4.84,1.199 c -6.99,-16.899 0.13,-42.399 21.32,-76.461 8.32,4.551 17.37,7.312 27.17,8.242 9.79,0.942 18.65,0.469 26.56,-1.402 7.92,-1.879 15.29,-4.156 22.13,-6.84 6.85,-2.68 12.14,-5.227 15.9,-7.637 l 6.04,-3.23"
         style="fill:#111011;fill-opacity:1;fill-rule:nonzero;stroke:none"
         id="path94" /><path
         d="m 1895.44,188.031 8.85,-6.449 c -0.8,-2.152 -1.88,-4.891 -3.22,-8.25 -1.34,-3.352 -4.36,-10.062 -9.05,-20.121 -4.7,-10.051 -9.6,-19.59 -14.7,-28.57 -5.09,-8.989 -11.6,-18.918 -19.51,-29.7816 -7.92,-10.8594 -15.96,-20.1172 -24.15,-27.7696 -8.18,-7.6484 -17.64,-13.8789 -28.37,-18.7109 -10.73,-4.8164 -21.46,-6.8476 -32.19,-6.0391 -6.44,0.2813 -11.95,3.4922 -16.5,9.6602 -4.57,6.1719 -7.99,15.2305 -10.26,27.1719 -2.29,11.9297 -4.03,24.3481 -5.24,37.2191 -1.21,12.879 -1.68,28.5 -1.4,46.879 0.26,18.382 0.66,34.679 1.2,48.902 0.54,14.219 1.35,30.848 2.42,49.898 -1.61,0 -3.9,-0.07 -6.85,-0.199 -2.94,-0.141 -5.09,-0.34 -6.43,-0.601 -5.91,0 -10.21,-0.149 -12.88,-0.411 h -18.92 -5.63 -1.6 l -1.22,12.481 c 0.54,0 1.22,0.129 2.02,0.402 0.27,0 2.01,0.258 5.23,0.809 1.34,0.269 2.95,0.531 4.83,0.801 1.87,0.269 4.22,0.609 7.04,1.007 2.82,0.403 5.16,0.731 7.05,1 0.8,0 2.67,0.211 5.62,0.614 2.95,0.398 5.24,0.726 6.85,1.007 2.95,0.532 7.64,1.059 14.08,1.61 0.54,0.262 1.07,0.402 1.61,0.402 3.49,53.117 4.16,83.699 2.01,91.75 1.08,0.27 2.41,0.528 4.03,0.809 1.61,0.262 4.76,0.461 9.46,0.601 4.69,0.129 9.11,-0.07 13.28,-0.601 4.15,-0.539 8.71,-1.891 13.68,-4.031 4.96,-2.149 9.18,-5.028 12.68,-8.649 3.48,-3.621 6.24,-8.789 8.25,-15.5 2.01,-6.711 2.61,-14.621 1.81,-23.742 -0.28,-4.816 -0.95,-16.637 -2.02,-35.406 1.07,0 2.95,0.058 5.64,0.199 2.68,0.129 4.56,0.199 5.63,0.199 2.95,0.27 7.1,0.399 12.47,0.399 1.34,0 3.23,0.062 5.64,0.21 2.42,0.122 4.16,0.192 5.23,0.192 h 8.45 7.25 l 0.81,-12.473 c -1.61,-0.547 -3.9,-1.07 -6.85,-1.609 -2.41,-0.539 -5.23,-0.949 -8.44,-1.211 -1.09,0 -2.76,-0.199 -5.04,-0.609 -2.28,-0.399 -4.1,-0.731 -5.43,-1 -1.35,0 -3.42,-0.2 -6.24,-0.598 -2.82,-0.41 -5.03,-0.742 -6.64,-1 -1.08,0 -3.16,-0.211 -6.24,-0.609 -3.08,-0.403 -5.43,-0.743 -7.04,-1 -1.08,-21.211 -1.88,-44.551 -2.42,-70.032 0.27,-48.832 0.68,-76.332 1.21,-82.492 1.88,-22.0077 6.58,-32.8671 14.09,-32.5976 3.48,0 7.5,1.8594 12.08,5.6289 7.77,6.4414 17.03,17.9687 27.76,34.6097 10.72,16.633 19.45,31.789 26.16,45.472 l 10.06,20.129"
         style="fill:#111011;fill-opacity:1;fill-rule:nonzero;stroke:none"
         id="path96" /><path
         d="m 1897.85,149.801 c -0.54,-13.692 5.24,-18.52 17.31,-14.5 9.65,3.488 19.58,10.738 29.78,21.73 1.07,10.199 2.01,17.84 2.81,22.942 -4.28,0 -8.65,-0.332 -13.07,-1 -4.43,-0.684 -9.66,-1.883 -15.7,-3.621 -6.03,-1.75 -11,-4.832 -14.89,-9.262 -3.88,-4.43 -5.97,-9.86 -6.24,-16.289 z m 185.93,39.429 h 13.28 c -1.07,-3.757 -2.68,-8.648 -4.83,-14.691 -2.15,-6.027 -6.98,-16.769 -14.49,-32.199 -7.52,-15.418 -15.56,-29.11 -24.15,-41.039 -8.58,-11.9416 -19.99,-22.7307 -34.2,-32.3908 -14.22,-9.6602 -28.98,-14.4883 -44.26,-14.4883 -9.93,0 -17.65,3.5586 -23.15,10.6601 -5.5,7.1094 -8.79,15.6172 -9.86,25.5586 -1.08,9.9224 -1.2,22.1214 -0.4,36.6214 -18.78,-18.262 -38.63,-25.633 -59.56,-22.133 -13.15,2.41 -21.6,8.98 -25.35,19.711 -3.75,10.73 -2.88,22.269 2.61,34.609 5.5,12.34 14.02,22.133 25.56,29.383 19.04,11.809 40.65,15.688 64.79,11.668 0.81,12.332 0.53,21.332 -0.81,26.961 1.07,0.269 2.42,0.539 4.03,0.809 1.61,0.269 4.75,0.46 9.45,0.601 4.7,0.129 9.12,-0.07 13.28,-0.601 4.16,-0.54 8.72,-1.879 13.68,-4.028 4.97,-2.152 9.19,-5.031 12.69,-8.652 3.48,-3.617 6.23,-8.789 8.24,-15.488 2.01,-6.711 2.62,-14.629 1.82,-23.743 -4.02,-55.808 -0.95,-83.8473 9.26,-84.109 4.02,-0.2773 8.98,2.9492 14.88,9.66 10.73,12.07 20.06,25.41 27.97,40.031 7.91,14.622 13.21,26.219 15.9,34.821 l 3.62,12.468"
         style="fill:#111011;fill-opacity:1;fill-rule:nonzero;stroke:none"
         id="path98" /><path
         d="m 2171.5,212.57 c -4.82,0 -8.32,-4.09 -10.46,-12.281 -2.14,-8.18 -4.42,-20.719 -6.84,-37.617 -0.54,-4.293 -0.94,-7.512 -1.2,-9.66 16.36,22 24.8,39.039 25.35,51.109 0,5.641 -2.29,8.449 -6.85,8.449 z m 92.97,-18.91 6.84,-3.621 c -0.27,-1.609 -0.8,-3.828 -1.61,-6.637 -0.8,-2.82 -2.62,-8.25 -5.43,-16.3 -2.81,-8.051 -5.77,-15.692 -8.86,-22.942 -3.09,-7.238 -7.24,-15.289 -12.47,-24.148 -5.23,-8.852 -10.73,-16.492 -16.5,-22.9417 -5.78,-6.4297 -12.61,-11.8594 -20.52,-16.3008 -7.92,-4.4179 -16.17,-6.6406 -24.76,-6.6406 -8.04,-0.5391 -15.29,1.6836 -21.73,6.6406 -6.43,4.961 -10.87,10.1328 -13.28,15.5 l -3.22,7.6525 c -9.12,-31.129 -24.81,-46.2814 -47.08,-45.4806 -8.59,-0.2695 -15.5,4.7578 -20.72,15.0977 -5.24,10.3203 -8.53,23.9414 -9.87,40.8439 -1.34,16.898 -2.01,35.867 -2.01,56.937 0,21.063 0.87,42.321 2.62,63.789 1.74,21.461 3.22,42.051 4.42,61.782 1.21,19.711 2.28,36.41 3.23,50.089 0.93,13.68 0.6,23.34 -1.01,28.981 1.06,0.262 2.41,0.531 4.02,0.809 1.61,0.261 4.76,0.46 9.46,0.601 4.69,0.129 9.12,-0.07 13.28,-0.601 4.16,-0.547 8.72,-1.887 13.68,-4.028 4.96,-2.152 9.19,-5.031 12.68,-8.652 3.48,-3.617 6.24,-8.801 8.25,-15.5 2.01,-6.699 2.75,-14.481 2.21,-23.34 -4.57,-59.559 -7.38,-109.461 -8.45,-149.699 10.19,48.019 24.95,72.039 44.26,72.039 15.83,0 25.09,-7.789 27.78,-23.348 3.22,-18.242 -2.82,-39.031 -18.12,-62.371 -7.23,-10.738 -15.95,-20.672 -26.15,-29.781 0,-2.68 0.21,-5.578 0.61,-8.649 0.4,-3.101 1.27,-7.851 2.61,-14.289 1.34,-6.441 4.22,-11.6715 8.66,-15.7028 4.42,-4.0273 9.85,-6.039 16.29,-6.039 9.93,0 19.45,3.6289 28.57,10.8711 9.12,7.2497 16.71,16.1017 22.74,26.5587 6.04,10.461 11.4,20.93 16.1,31.39 4.68,10.469 8.11,19.321 10.26,26.559 l 3.22,10.871"
         style="fill:#111011;fill-opacity:1;fill-rule:nonzero;stroke:none"
         id="path100" /><path
         d="m 2330.06,188.031 c -5.1,1.598 -10.87,0 -17.31,-4.84 0.54,-1.07 1.62,-2.41 3.23,-4.019 2.14,-2.152 4.42,-3.762 6.83,-4.832 1.34,-1.078 2.82,-1.75 4.43,-2.02 3.22,-0.8 4.96,-1.199 5.23,-1.199 3.22,-0.808 6.44,-1.211 9.66,-1.211 -1.88,10.199 -5.9,16.231 -12.07,18.121 z m -29.79,-93.3708 c 6.71,-2.1485 13.82,0.6015 21.33,8.2498 7.51,7.653 13.28,17.91 17.31,30.781 1.07,3.231 2.14,7.508 3.22,12.879 -5.37,-0.531 -9.52,-0.668 -12.47,-0.398 -0.55,0 -1.42,0.058 -2.62,0.199 -1.21,0.129 -2.28,0.258 -3.22,0.41 -0.94,0.129 -1.81,0.328 -2.62,0.59 -1.87,0.281 -4.7,0.942 -8.45,2.031 -4.57,1.328 -9.25,3.75 -14.08,7.227 -1.61,1.082 -2.68,1.883 -3.22,2.422 -0.54,-1.34 -1.89,-4.692 -4.02,-10.059 -4.03,-12.883 -5.17,-24.621 -3.42,-35.211 1.74,-10.609 5.83,-16.9685 12.26,-19.1208 z m 131.2,101.8198 4.83,-8.449 c -1.35,-1.09 -3.22,-2.422 -5.64,-4.031 -0.27,-0.27 -0.8,-0.598 -1.61,-1.008 -0.8,-0.402 -1.34,-0.73 -1.61,-1.012 l -3.61,-2.41 c -0.28,-0.257 -0.88,-0.668 -1.82,-1.199 -0.94,-0.551 -1.68,-0.949 -2.21,-1.211 -0.54,-0.269 -1.34,-0.801 -2.42,-1.609 -1.07,-0.801 -1.87,-1.352 -2.41,-1.61 -2.96,-1.351 -4.7,-2.281 -5.23,-2.82 -0.54,-0.539 -1.48,-1.141 -2.82,-1.808 -1.34,-0.68 -2.28,-1.153 -2.82,-1.411 -0.26,-0.273 -0.74,-0.601 -1.4,-1 -0.68,-0.41 -1.15,-0.613 -1.41,-0.613 l -1.61,-0.797 c -0.28,0 -0.54,-0.14 -0.8,-0.402 -0.28,-0.27 -0.55,-0.41 -0.81,-0.41 -1.08,-0.27 -2.15,-0.801 -3.22,-1.598 -1.08,-0.281 -2.15,-0.812 -3.22,-1.609 -2.96,-1.352 -7.65,-3.364 -14.08,-6.043 -4.03,-1.61 -9,-3.36 -14.89,-5.231 -0.81,-0.277 -1.96,-0.609 -3.42,-1.008 -1.49,-0.402 -2.49,-0.609 -3.03,-0.609 -0.8,-4.82 -2.01,-9.652 -3.61,-14.48 -6.71,-20.93 -18.12,-36.9614 -34.21,-48.0903 -16.1,-11.1406 -32.34,-14.1523 -48.7,-9.0625 -16.37,5.0899 -27.9,16.8399 -34.6,35.2228 -6.71,18.367 -6.71,38.148 0,59.348 6.7,20.929 18.1,36.96 34.2,48.101 16.1,11.121 32.33,14.141 48.7,9.051 10.99,-3.492 19.98,-10.531 26.96,-21.133 6.97,-10.598 11,-22.867 12.07,-36.816 h 1.21 c 6.7,1.34 11.26,2.277 13.68,2.816 2.14,0.262 6.57,1.473 13.29,3.621 1.6,0.539 2.67,0.942 3.21,1.211 1.61,0.531 2.67,0.801 3.22,0.801 l 1.61,0.801 c 0.27,0 0.53,0.066 0.8,0.207 0.27,0.133 0.54,0.199 0.81,0.199 0.27,0.273 0.74,0.531 1.41,0.801 0.66,0.269 1.13,0.402 1.41,0.402 l 6.03,2.418 c 1.61,0.531 3.35,1.211 5.24,2.02 2.13,1.062 3.75,1.73 4.82,2.011 2.15,1.059 3.62,1.739 4.43,2.008 0.27,0.262 0.87,0.602 1.81,1.012 0.94,0.398 1.54,0.73 1.82,1 l 3.61,1.199 6.04,3.23"
         style="fill:#111011;fill-opacity:1;fill-rule:nonzero;stroke:none"
         id="path102" /><path
         d="m 2501.09,183.191 c 4.29,-3.218 7.51,-5.492 9.66,-6.832 0.27,1.34 0.74,3.75 1.41,7.231 0.67,3.492 1.14,6.18 1.41,8.051 0,0.539 0.06,1.281 0.2,2.218 0.14,0.942 0.2,1.543 0.2,1.813 0.27,0.808 0.41,2.141 0.41,4.027 0.53,2.41 0.53,4.821 0,7.231 0,5.383 -1.08,9.531 -3.23,12.48 -1.6,3.231 -4.02,5.242 -7.23,6.039 -3.23,0.801 -6.85,0.262 -10.87,-1.609 -3.76,-2.149 -6.44,-4.828 -8.05,-8.051 -1.35,-2.957 -1.61,-6.566 -0.81,-10.867 1.07,-4.02 3.36,-7.91 6.85,-11.672 2.41,-3.211 5.76,-6.57 10.05,-10.059 z m 82.5,0.809 8.05,-2.418 c 0,-0.531 -0.14,-1.34 -0.4,-2.41 -0.27,-1.07 -0.95,-3.09 -2.01,-6.031 -1.08,-2.961 -2.41,-5.512 -4.02,-7.649 -1.62,-2.152 -3.97,-4.769 -7.05,-7.851 -3.08,-3.09 -6.7,-5.102 -10.87,-6.039 -4.16,-0.93 -9.25,-1.75 -15.29,-2.411 -6.03,-0.671 -12.95,0.211 -20.72,2.622 -3.22,-12.883 -6.71,-23.891 -10.47,-33 -4.56,-10.743 -9.79,-20.2622 -15.69,-28.5708 -5.64,-7.793 -11.94,-14.7617 -18.92,-20.9297 -5.1,-4.3008 -10.32,-8.0508 -15.69,-11.2734 -8.59,-5.3594 -19.05,-9.1172 -31.39,-11.2696 -11.81,-1.8789 -21.46,1.2813 -28.97,9.461 -7.52,8.1797 -12.68,19.9804 -15.5,35.4101 -2.81,15.4224 -4.7,30.2504 -5.64,44.4684 -0.93,14.211 -1.4,29.641 -1.4,46.282 0,16.629 -0.14,27.089 -0.4,31.39 1.87,0.801 4.28,1.61 7.24,2.41 2.95,0.809 8.26,1.481 15.9,2.008 7.65,0.543 14.48,-0.129 20.52,-2.008 6.03,-1.871 11.81,-6.5 17.3,-13.871 5.5,-7.39 8.66,-17.25 9.47,-29.578 2.95,-38.91 6.43,-64.801 10.46,-77.6795 4.56,4.0195 8.85,8.4575 12.88,13.2775 5.63,6.973 10.32,14.359 14.08,22.14 4.29,8.583 8.05,18.102 11.27,28.571 0,0.531 0.26,1.601 0.8,3.219 -1.88,0.812 -6.84,3.761 -14.88,8.851 -5.11,3.75 -9.54,7.649 -13.29,11.668 -4.29,4.563 -7.92,10.203 -10.86,16.91 -0.81,2.141 -1.48,5.762 -2.02,10.864 0,3.476 0.67,7.507 2.02,12.078 2.67,7.5 7.78,13.41 15.29,17.699 7.24,4.562 15.29,6.301 24.15,5.242 4.29,-0.812 8.45,-2.43 12.47,-4.84 3.22,-2.152 6.3,-5.23 9.26,-9.25 1.87,-2.691 3.75,-6.441 5.63,-11.269 l 2.41,-10.864 c 0.27,-2.429 0.4,-5.91 0.4,-10.468 v -5.231 c -0.26,-1.34 -0.4,-2.961 -0.4,-4.828 -0.8,-8.59 -2.01,-16.91 -3.62,-24.953 1.08,-0.539 2.55,-1.137 4.43,-1.809 1.87,-0.668 5.3,-1.48 10.26,-2.418 4.96,-0.941 9.46,-1.011 13.49,-0.203 4.02,0.801 8.17,3.223 12.47,7.25 4.28,4.024 7.38,9.793 9.25,17.301"
         style="fill:#111011;fill-opacity:1;fill-rule:nonzero;stroke:none"
         id="path104" /><path
         d="m 2612.97,245.172 c -5.9,-5.902 -13.01,-8.852 -21.33,-8.852 -8.32,0 -15.43,2.95 -21.33,8.852 -5.9,5.898 -8.85,13.008 -8.85,21.32 0,8.328 2.95,15.43 8.85,21.328 5.9,5.903 13.01,8.86 21.33,8.86 8.32,0 15.43,-2.957 21.33,-8.86 5.9,-5.898 8.86,-13 8.86,-21.328 0,-8.312 -2.96,-15.422 -8.86,-21.32 z m 78.48,-59.961 11.67,-4.43 c -0.27,-0.269 -2.08,-4.16 -5.43,-11.672 -3.36,-7.519 -6.99,-15.359 -10.87,-23.539 -3.89,-8.187 -9.4,-17.507 -16.5,-27.968 -7.12,-10.461 -14.42,-19.6606 -21.93,-27.5707 -7.52,-7.9102 -16.51,-14.5508 -26.96,-19.9219 -10.47,-5.3672 -21.07,-7.9102 -31.8,-7.6485 -12.07,0.5391 -21.12,5.4414 -27.16,14.6914 -6.04,9.2579 -9.26,20.7891 -9.66,34.6097 -0.41,13.82 0.06,27.57 1.41,41.25 1.34,13.687 2.88,26.418 4.63,38.23 1.74,11.809 2.2,19.047 1.4,21.738 1.62,0.262 3.75,0.59 6.44,1.012 2.69,0.399 7.45,0.399 14.29,0 6.84,-0.422 12.67,-1.621 17.51,-3.633 4.82,-2.007 8.98,-5.839 12.47,-11.468 3.48,-5.641 4.56,-12.871 3.22,-21.731 -7.25,-49.097 -6.04,-75.531 3.62,-79.2811 4.03,-1.6094 9.52,0 16.5,4.8321 8.58,5.891 17.64,15.762 27.16,29.578 9.53,13.813 16.97,26.09 22.34,36.82 l 7.65,16.102"
         style="fill:#111011;fill-opacity:1;fill-rule:nonzero;stroke:none"
         id="path106" /><path
         d="m 2759.45,204.121 c 19.32,-6.172 23.48,-22.801 12.48,-49.902 -1.88,0 -3.69,0.332 -5.44,1.011 -1.74,0.661 -2.88,1.399 -3.41,2.211 l -1.21,0.801 c 0.26,0.539 0.53,1.34 0.81,2.41 0.26,1.078 0.52,2.95 0.8,5.637 0.26,2.691 0.2,5.031 -0.2,7.043 -0.41,2.02 -1.55,3.887 -3.43,5.641 -1.87,1.738 -4.56,2.75 -8.04,3.007 -1.61,0.282 -3.02,0.34 -4.23,0.211 -1.2,-0.14 -3.21,-0.949 -6.04,-2.41 -2.81,-1.492 -5.37,-3.699 -7.64,-6.64 -2.28,-2.961 -4.63,-7.59 -7.04,-13.891 -2.42,-6.309 -4.3,-13.891 -5.64,-22.738 -4.56,-28.442 1.07,-41.8518 16.91,-40.2425 16.09,2.1407 38.49,17.4295 67.2,45.8825 17.97,17.7 29.38,31.52 34.21,41.438 l 8.05,-6.43 c -22.28,-41.59 -50.58,-72.578 -84.91,-92.9608 -28.72,-16.8984 -53.4,-22 -74.06,-15.289 -20.39,6.6992 -30.17,23.4609 -29.37,50.3008 0.26,4.82 0.8,9.918 1.61,15.289 1.87,11.539 5.23,21.73 10.06,30.59 4.83,8.851 10.32,15.82 16.5,20.93 6.16,5.082 12.68,9.312 19.51,12.671 6.85,3.348 13.69,5.489 20.53,6.438 6.85,0.941 12.94,1.273 18.31,1.004 5.36,-0.274 9.92,-0.942 13.68,-2.012"
         style="fill:#111011;fill-opacity:1;fill-rule:nonzero;stroke:none"
         id="path108" /><path
         d="m 3030.29,174.34 7.65,-2.418 c -0.81,-2.68 -2.08,-6.172 -3.83,-10.449 -1.75,-4.301 -5.22,-11.883 -10.46,-22.754 -5.23,-10.86 -10.47,-20.317 -15.69,-28.367 -5.24,-8.039 -11.48,-15.0903 -18.72,-21.1215 -7.24,-6.0391 -14.22,-8.3907 -20.92,-7.0391 -7.79,1.5977 -13.95,9.3789 -18.52,23.3396 -4.57,13.942 -7.51,28.84 -8.85,44.668 -1.34,15.832 -3.76,30.18 -7.24,43.051 -3.5,12.883 -8.19,19.32 -14.09,19.32 -4.83,0 -8.58,-5.371 -11.27,-16.09 -2.69,-10.738 -4.96,-23.691 -6.84,-38.839 -1.88,-15.161 -4.42,-30.321 -7.64,-45.469 -3.23,-15.172 -9,-27.9728 -17.31,-38.4415 -8.32,-10.461 -19.05,-15.5586 -32.19,-15.2891 -8.59,-0.2695 -15.49,4.7578 -20.73,15.0977 -5.23,10.3203 -8.59,23.9414 -10.06,40.8439 -1.48,16.898 -2.21,35.867 -2.21,56.937 0,21.063 0.93,42.321 2.81,63.789 1.87,21.461 3.43,42.051 4.63,61.782 1.21,19.711 2.27,36.41 3.22,50.089 0.94,13.68 0.61,23.34 -1,28.981 1.87,0.531 4.35,1 7.44,1.41 3.08,0.399 8.45,0.27 16.1,-0.41 7.65,-0.672 14.29,-2.41 19.92,-5.219 5.64,-2.82 10.6,-8.191 14.89,-16.101 4.28,-7.911 5.89,-18.051 4.83,-30.391 -4.57,-59.559 -7.38,-109.461 -8.46,-149.699 10.2,48.019 25.09,72.039 44.68,72.039 10.46,0 18.57,-7.32 24.35,-21.938 5.76,-14.621 9.18,-30.793 10.26,-48.492 1.06,-17.711 2.88,-34.347 5.43,-49.898 2.55,-15.571 6.37,-24.02 11.46,-25.352 6.18,-1.617 14.1,3.621 23.75,15.692 9.66,12.07 17.85,24.55 24.55,37.418 l 10.06,19.32"
         style="fill:#111011;fill-opacity:1;fill-rule:nonzero;stroke:none"
         id="path110" /></g></g></svg>
