<?xml version="1.0" encoding="UTF-8" standalone="no"?>
<!-- Created with Inkscape (http://www.inkscape.org/) -->

<svg
   width="134.38188mm"
   height="16.955698mm"
   viewBox="0 0 134.38188 16.955698"
   version="1.1"
   id="svg1516"
   xmlns="http://www.w3.org/2000/svg"
   xmlns:svg="http://www.w3.org/2000/svg">
  <defs
     id="defs1513" />
  <g
     id="layer1"
     transform="translate(-64.680671,-129.39287)">
    <path
       d="m 69.110149,132.26313 c -0.208139,-0.0187 -0.421217,0.1517 -0.63888,0.51118 -0.217664,0.35983 -0.407106,0.81386 -0.567973,1.36278 -0.160866,0.54927 -0.288925,1.01494 -0.383116,1.39841 -0.0949,0.38347 -0.165806,0.71685 -0.213078,1.00083 v 0.1136 c 0.700264,-0.49213 1.277761,-1.26365 1.731786,-2.31423 0.369358,-0.8703 0.482953,-1.49048 0.340783,-1.85984 -0.0568,-0.13229 -0.146755,-0.2032 -0.269522,-0.21273 z m 0.497064,-0.59619 c 0.577145,0.0759 0.846667,0.48754 0.80892,1.23507 -0.04727,0.84244 -0.416631,1.74625 -1.10737,2.71145 -0.587022,0.82339 -1.263297,1.44816 -2.030236,1.87396 -0.04762,2.09197 0.05221,3.21345 0.29845,3.36479 -0.0762,0.22719 -0.291042,0.42828 -0.645936,0.60325 -0.355248,0.17534 -0.669925,0.26741 -0.944387,0.27694 -0.340783,0.01 -0.615244,-0.17287 -0.823383,-0.54646 -0.208492,-0.37394 -0.340783,-0.8636 -0.39758,-1.46932 -0.0568,-0.60572 -0.08502,-1.29187 -0.08502,-2.05881 0,-0.76623 0.03563,-1.54023 0.106539,-2.32092 0.07091,-0.78105 0.129822,-1.53106 0.177447,-2.25037 0.04692,-0.71932 0.08996,-1.33209 0.127706,-1.83868 0.03775,-0.50588 0.02328,-0.87277 -0.04269,-1.09996 0.03775,-0.01 0.08996,-0.019 0.15628,-0.0286 0.06632,-0.009 0.191559,-0.0187 0.376414,-0.0282 0.184503,-0.01 0.359481,-0.002 0.525286,0.0212 0.165453,0.024 0.347486,0.078 0.546453,0.16333 0.198614,0.085 0.366536,0.19862 0.503767,0.34079 0.13723,0.14181 0.246239,0.34537 0.326672,0.6103 0.08043,0.26529 0.106539,0.5775 0.07796,0.93698 -0.02822,0.36936 -0.05644,0.80469 -0.08502,1.30634 0.615245,-1.30634 1.325034,-1.90712 2.12972,-1.80305"
       style="fill:#111011;fill-opacity:1;fill-rule:nonzero;stroke:none;stroke-width:0.0352778"
       id="path80" />
    <path
       d="m 76.009777,143.90445 c 0.189089,-0.58667 0.281517,-1.21144 0.276578,-1.87396 -0.0046,-0.66251 -0.04939,-1.1691 -0.134408,-1.51906 -0.08537,-0.34995 -0.179917,-0.67169 -0.283986,-0.9652 -0.0194,1.92123 0.02822,3.37397 0.141816,4.35822 z m 2.441928,-7.63764 0.283986,0.17004 -2.441928,3.09492 c 0.245887,1.03187 0.397581,1.95933 0.454378,2.78271 0.05644,0.82374 0.0448,1.45979 -0.03563,1.90959 -0.08043,0.44943 -0.206023,0.83255 -0.376414,1.1497 -0.170039,0.31715 -0.316795,0.52775 -0.439914,0.63182 -0.12312,0.10407 -0.236714,0.17533 -0.340783,0.21308 -0.141817,0.066 -0.312562,0.10866 -0.511175,0.12771 -0.369006,0.0286 -0.664987,-0.22261 -0.887237,-0.75248 -0.222602,-0.52987 -0.36195,-1.20191 -0.418747,-2.01577 -0.0568,-0.81421 -0.09737,-1.69898 -0.12065,-2.65501 -0.02364,-0.95567 -0.01658,-1.84538 0.02152,-2.66876 -0.511528,1.4478 -1.292226,2.153 -2.342798,2.11525 -0.425803,-0.0187 -0.745067,-0.19367 -0.958144,-0.52528 -0.213078,-0.33126 -0.326673,-0.74048 -0.340784,-1.22802 -0.01446,-0.48754 0.0021,-0.97261 0.04974,-1.45521 0.04727,-0.48295 0.1016,-0.93204 0.163336,-1.34867 0.06138,-0.41628 0.07761,-0.67204 0.04939,-0.76658 0.02822,-0.01 0.06879,-0.0166 0.12065,-0.0212 0.05221,-0.005 0.151342,-0.01 0.29845,-0.0145 0.146403,-0.005 0.283986,0 0.411692,0.0145 0.127705,0.0141 0.267405,0.0473 0.418394,0.0991 0.151695,0.0522 0.279047,0.12312 0.38347,0.21308 0.104069,0.09 0.182386,0.21766 0.234244,0.38311 0.05221,0.16581 0.06385,0.36231 0.03563,0.58914 -0.246239,1.73214 -0.26035,2.68817 -0.04269,2.86809 0.132644,0.10407 0.349955,0 0.652991,-0.31257 0.529873,-0.53939 0.795161,-1.44321 0.795161,-2.71145 l -0.02857,-0.56797 c 0.0381,-0.01 0.08537,-0.0215 0.14217,-0.0356 0.0568,-0.0141 0.165453,-0.0282 0.326319,-0.0423 0.160867,-0.0145 0.317148,-0.0166 0.468842,-0.007 0.150989,0.01 0.316794,0.0494 0.496711,0.1203 0.179917,0.0713 0.333728,0.17286 0.461434,0.30551 0.128058,0.13264 0.236361,0.3242 0.326672,0.57502 0.08961,0.25083 0.129822,0.5514 0.12065,0.90135 0,0.17039 -0.0025,0.47343 -0.0074,0.9084 -0.0046,0.43568 -0.0067,0.77647 -0.0067,1.02235 0.473075,-0.51117 0.924983,-1.02235 1.355725,-1.53317 0.430389,-0.51117 0.745419,-0.89429 0.94368,-1.15005 l 0.284339,-0.38312"
       style="fill:#111011;fill-opacity:1;fill-rule:nonzero;stroke:none;stroke-width:0.0352778"
       id="path82" />
    <path
       d="m 80.850947,136.23823 c -0.179917,-0.0568 -0.383469,0 -0.610658,0.1704 0.01905,0.0381 0.05715,0.0854 0.113947,0.14217 0.07549,0.0758 0.155928,0.13264 0.240947,0.17039 0.04727,0.0377 0.09984,0.0614 0.156281,0.0709 0.113594,0.0282 0.174978,0.0423 0.184503,0.0423 0.113594,0.0286 0.227188,0.0427 0.340783,0.0427 -0.06632,-0.35948 -0.208139,-0.57255 -0.425803,-0.63888 z m -1.050925,3.29354 c 0.236714,0.0762 0.487539,-0.0212 0.752475,-0.29069 0.264936,-0.26988 0.468489,-0.63183 0.610658,-1.0862 0.03775,-0.1136 0.07585,-0.26494 0.113595,-0.45438 -0.189442,0.019 -0.335845,0.0236 -0.439914,0.0141 -0.0194,0 -0.05009,-0.002 -0.09243,-0.007 -0.04269,-0.005 -0.08043,-0.009 -0.113594,-0.0141 -0.03316,-0.005 -0.06385,-0.0116 -0.09243,-0.0212 -0.06597,-0.01 -0.165806,-0.0332 -0.298097,-0.0713 -0.16122,-0.0473 -0.32632,-0.13229 -0.496711,-0.25541 -0.0568,-0.0377 -0.09454,-0.066 -0.113595,-0.0854 -0.01905,0.0476 -0.06667,0.16581 -0.141817,0.35525 -0.142169,0.45402 -0.182386,0.86854 -0.12065,1.24213 0.06138,0.37394 0.20567,0.59866 0.432506,0.67416 z m 4.628445,-3.59163 0.170391,0.29809 c -0.04763,0.0381 -0.113594,0.0854 -0.198966,0.14182 -0.0095,0.01 -0.02822,0.0215 -0.0568,0.0356 -0.02822,0.0141 -0.04692,0.0261 -0.0568,0.0356 l -0.127352,0.085 c -0.0095,0.01 -0.03105,0.024 -0.06421,0.0427 -0.03316,0.019 -0.05927,0.0332 -0.07761,0.0427 -0.0194,0.01 -0.04762,0.0282 -0.08572,0.0564 -0.03775,0.0286 -0.06597,0.0476 -0.08502,0.0572 -0.104422,0.0473 -0.165805,0.0804 -0.184502,0.0991 -0.01905,0.0194 -0.05221,0.0406 -0.09948,0.0642 -0.04727,0.0236 -0.08043,0.0402 -0.09948,0.0494 -0.0092,0.01 -0.02611,0.0215 -0.04939,0.0356 -0.02399,0.0141 -0.04057,0.0212 -0.04974,0.0212 l -0.0568,0.0286 c -0.0099,0 -0.01905,0.005 -0.02822,0.0141 -0.0099,0.01 -0.0194,0.0141 -0.02857,0.0141 -0.0381,0.01 -0.07585,0.0282 -0.113595,0.0568 -0.0381,0.01 -0.07585,0.0286 -0.113594,0.0568 -0.104422,0.0473 -0.269875,0.11854 -0.496711,0.21308 -0.14217,0.0568 -0.317147,0.11853 -0.525286,0.1845 -0.02858,0.01 -0.06914,0.0212 -0.12065,0.0356 -0.05256,0.0141 -0.08784,0.0212 -0.106892,0.0212 -0.02822,0.17039 -0.07091,0.34078 -0.127353,0.51117 -0.236714,0.73802 -0.639233,1.30387 -1.206853,1.69651 -0.567972,0.39264 -1.14053,0.49918 -1.718027,0.31927 -0.577498,-0.17957 -0.984251,-0.59373 -1.220612,-1.24213 -0.236714,-0.64841 -0.236714,-1.3462 0,-2.09409 0.236361,-0.73801 0.638528,-1.30352 1.2065,-1.69651 0.567973,-0.39264 1.140531,-0.49918 1.718028,-0.31962 0.387703,0.12347 0.70485,0.37183 0.951089,0.74542 0.245886,0.37395 0.388056,0.80716 0.425803,1.29893 h 0.04269 c 0.236361,-0.0469 0.397228,-0.0801 0.4826,-0.0991 0.0755,-0.01 0.231775,-0.0519 0.468842,-0.12771 0.05644,-0.019 0.09419,-0.0332 0.113242,-0.0427 0.0568,-0.0187 0.09419,-0.0282 0.113594,-0.0282 l 0.0568,-0.0286 c 0.0095,0 0.0187,-0.002 0.02822,-0.007 0.0095,-0.005 0.01905,-0.007 0.02858,-0.007 0.0095,-0.01 0.02611,-0.019 0.04974,-0.0286 0.02328,-0.009 0.03986,-0.0141 0.04974,-0.0141 l 0.212725,-0.0854 c 0.0568,-0.0187 0.11818,-0.0423 0.184855,-0.0709 0.07514,-0.0377 0.132292,-0.0614 0.170039,-0.0709 0.07585,-0.0377 0.127706,-0.0614 0.156281,-0.0709 0.0095,-0.01 0.03069,-0.0212 0.06385,-0.0356 0.03316,-0.0141 0.05433,-0.0261 0.06421,-0.0353 l 0.127353,-0.0427 0.213078,-0.11359"
       style="fill:#111011;fill-opacity:1;fill-rule:nonzero;stroke:none;stroke-width:0.0352778"
       id="path84" />
    <path
       d="m 88.98565,136.23823 0.312209,0.22719 c -0.02822,0.0759 -0.06597,0.17286 -0.113242,0.29104 -0.04762,0.11854 -0.154164,0.3549 -0.319264,0.70979 -0.165805,0.3549 -0.338667,0.6911 -0.518583,1.00789 -0.179917,0.3175 -0.409222,0.66746 -0.68827,1.05057 -0.2794,0.38347 -0.563386,0.71014 -0.851958,0.97967 -0.288925,0.26987 -0.622653,0.48965 -1.000831,0.66004 -0.37853,0.17039 -0.757414,0.24166 -1.135944,0.21308 -0.226836,-0.01 -0.421217,-0.12312 -0.581731,-0.34078 -0.161219,-0.21767 -0.281869,-0.53693 -0.362303,-0.95815 -0.08043,-0.42121 -0.141816,-0.85901 -0.184502,-1.31304 -0.04269,-0.45473 -0.05927,-1.00577 -0.04974,-1.65417 0.0095,-0.64805 0.02364,-1.22308 0.04233,-1.72508 0.01905,-0.5013 0.04762,-1.08832 0.08572,-1.76037 -0.05715,0 -0.137583,0.002 -0.241653,0.007 -0.104069,0.005 -0.179916,0.0116 -0.227188,0.0212 -0.208139,0 -0.359834,0.005 -0.454378,0.0141 h -0.667103 -0.198967 -0.05644 l -0.04269,-0.43991 c 0.01905,0 0.04269,-0.005 0.07091,-0.0145 0.0099,0 0.07091,-0.009 0.184856,-0.0282 0.04692,-0.01 0.104069,-0.019 0.170039,-0.0282 0.06632,-0.01 0.149225,-0.0215 0.248355,-0.036 0.09948,-0.0141 0.182386,-0.0258 0.248708,-0.0353 0.02822,0 0.09454,-0.007 0.198614,-0.0212 0.10407,-0.0145 0.184503,-0.0261 0.2413,-0.0356 0.10407,-0.0187 0.269875,-0.0377 0.496711,-0.0568 0.01905,-0.009 0.0381,-0.0141 0.05715,-0.0141 0.122767,-1.87395 0.146756,-2.9531 0.07091,-3.23709 0.03775,-0.009 0.08502,-0.0187 0.141817,-0.0282 0.0568,-0.01 0.168275,-0.0166 0.333727,-0.0212 0.165453,-0.005 0.321734,0.002 0.468842,0.0212 0.146403,0.019 0.307269,0.0663 0.4826,0.14217 0.174978,0.0755 0.32385,0.17709 0.446969,0.30515 0.12312,0.12771 0.220134,0.31009 0.291042,0.54646 0.07126,0.23671 0.09208,0.51576 0.06385,0.83749 -0.0095,0.17039 -0.03351,0.58702 -0.07091,1.24954 0.03739,0 0.104069,-0.002 0.198614,-0.007 0.09454,-0.005 0.161219,-0.007 0.198966,-0.007 0.10407,-0.01 0.250472,-0.0145 0.439914,-0.0145 0.04727,0 0.113595,-0.002 0.198614,-0.007 0.08572,-0.005 0.147108,-0.007 0.184856,-0.007 h 0.298097 0.255411 l 0.02857,0.44027 c -0.0568,0.0191 -0.137231,0.0378 -0.2413,0.0568 -0.08502,0.0187 -0.184856,0.0332 -0.298097,0.0423 -0.0381,0 -0.09701,0.007 -0.1778,0.0215 -0.08008,0.0141 -0.144286,0.0261 -0.191559,0.0353 -0.04762,0 -0.12065,0.007 -0.220133,0.0212 -0.09913,0.0145 -0.177447,0.0265 -0.234244,0.0356 -0.03775,0 -0.111125,0.007 -0.219781,0.0215 -0.109008,0.0141 -0.191911,0.0261 -0.248356,0.0353 -0.0381,0.74789 -0.06668,1.57127 -0.08537,2.4705 0.0092,1.72262 0.02364,2.6924 0.04269,2.91007 0.06597,0.77611 0.231775,1.15958 0.496711,1.15005 0.12312,0 0.264937,-0.066 0.426156,-0.19896 0.274108,-0.22684 0.600781,-0.63359 0.979311,-1.22061 0.378531,-0.58703 0.686506,-1.12184 0.92322,-1.60444 l 0.354541,-0.70979"
       style="fill:#111011;fill-opacity:1;fill-rule:nonzero;stroke:none;stroke-width:0.0352778"
       id="path86" />
    <path
       d="m 95.459476,136.67815 0.312561,-0.0141 c 0.132292,0.0286 0.179564,0.10442 0.141817,0.22754 0,0.009 -0.03351,0.12735 -0.09948,0.35454 -0.06632,0.22719 -0.13723,0.47343 -0.213078,0.73836 -0.07549,0.26529 -0.184502,0.58914 -0.326319,0.97226 -0.142169,0.38347 -0.291394,0.75036 -0.447322,1.10067 -0.155928,0.34995 -0.347486,0.7052 -0.575028,1.06468 -0.226836,0.35948 -0.461081,0.6671 -0.702733,0.92251 -0.2413,0.25577 -0.518231,0.46179 -0.830439,0.61772 -0.312209,0.15628 -0.633942,0.22472 -0.965553,0.20602 -0.255059,-0.01 -0.468489,-0.0924 -0.638528,-0.24871 -0.170744,-0.15593 -0.288925,-0.37147 -0.354895,-0.64593 -0.06668,-0.27447 -0.109008,-0.56762 -0.128058,-0.88019 -0.01905,-0.3122 -0.0071,-0.67627 0.03563,-1.09325 0.04233,-0.41628 0.08749,-0.79234 0.134761,-1.12854 0.04727,-0.33584 0.1016,-0.71191 0.163336,-1.12854 0.06174,-0.41663 0.106539,-0.73836 0.135114,-0.96555 -0.596547,-0.009 -1.067506,-0.0638 -1.412875,-0.16333 -0.345722,-0.0991 -0.565503,-0.22437 -0.660048,-0.37607 -0.0949,-0.15134 -0.154163,-0.32173 -0.177447,-0.51117 -0.02399,-0.18909 -0.01411,-0.38559 0.02858,-0.58914 0.04233,-0.2032 0.02575,-0.40464 -0.05009,-0.60325 0.0568,-0.0286 0.130175,-0.0568 0.220133,-0.085 0.08996,-0.0286 0.250825,-0.0617 0.4826,-0.0995 0.232128,-0.0377 0.435328,-0.0377 0.610659,0 0.174977,0.0377 0.326672,0.14675 0.454377,0.32632 0.127706,0.17991 0.177448,0.44026 0.149225,0.78105 -0.0194,0.24624 0.18415,0.369 0.610306,0.369 0.151342,-0.009 0.302683,-0.009 0.454025,0 0.151342,0.01 0.331611,0.0497 0.53975,0.12065 0.207786,0.0709 0.381,0.17286 0.517878,0.30516 0.13723,0.13264 0.248355,0.32914 0.33408,0.58913 0.08502,0.26071 0.10407,0.56586 0.0568,0.91582 -0.227542,1.74166 -0.331611,2.80176 -0.312561,3.18029 0.01905,0.71896 0.264936,0.82338 0.738363,0.31221 0.330906,-0.35031 0.645937,-0.90629 0.944034,-1.66829 0.298097,-0.76165 0.513292,-1.43581 0.645936,-2.02283 l 0.184503,-0.88053"
       style="fill:#111011;fill-opacity:1;fill-rule:nonzero;stroke:none;stroke-width:0.0352778"
       id="path88" />
    <path
       d="m 101.66343,140.75273 c -0.0762,0.22719 -0.29105,0.42827 -0.64594,0.6036 -0.35525,0.17498 -0.66993,0.26741 -0.94439,0.27658 -0.34078,0.01 -0.615241,-0.17251 -0.82338,-0.54645 -0.208491,-0.37359 -0.340783,-0.8636 -0.39758,-1.46932 -0.0568,-0.60572 -0.08502,-1.29187 -0.08502,-2.05846 0,-0.76658 0.03563,-1.54058 0.106539,-2.32128 0.07091,-0.78069 0.129823,-1.52823 0.177448,-2.24296 0.04727,-0.71473 0.08996,-1.32503 0.127705,-1.83162 0.03775,-0.50624 0.02328,-0.87313 -0.04269,-1.10031 0.03775,-0.009 0.08996,-0.0187 0.156281,-0.0282 0.06632,-0.01 0.191558,-0.019 0.376413,-0.0286 0.184503,-0.009 0.359484,-0.002 0.525294,0.0212 0.16545,0.024 0.34748,0.0783 0.54645,0.16333 0.19861,0.0854 0.36654,0.19897 0.50377,0.34078 0.13723,0.14217 0.24624,0.34573 0.32667,0.61066 0.0804,0.26494 0.10654,0.57715 0.078,0.93698 -0.41663,5.5178 -0.41169,8.40952 0.0145,8.6741"
       style="fill:#111011;fill-opacity:1;fill-rule:nonzero;stroke:none;stroke-width:0.0352778"
       id="path90" />
    <path
       d="m 104.63029,134.88956 c 0.32173,-0.44485 0.5207,-0.95108 0.59654,-1.51906 v -0.0854 c 0,-0.0469 0.002,-0.0967 0.007,-0.14887 0.005,-0.0519 0.005,-0.12312 0,-0.21308 -0.005,-0.0896 -0.0116,-0.17956 -0.0208,-0.26952 -0.01,-0.09 -0.024,-0.18697 -0.043,-0.29104 -0.0187,-0.10407 -0.0402,-0.20603 -0.0635,-0.30551 -0.024,-0.0991 -0.0593,-0.19861 -0.10653,-0.2981 -0.0476,-0.0995 -0.0995,-0.19155 -0.15628,-0.27693 -0.0949,1.25907 -0.16581,2.39501 -0.21308,3.40748 z m -0.5962,5.80673 c -0.14217,0.0663 -0.29809,0.0991 -0.46849,0.0991 -0.0282,0.01 -0.0758,0.0141 -0.14217,0.0141 h -0.0141 c -0.86113,-0.009 -1.21108,-2.07257 -1.05022,-6.18949 0.0374,-0.84243 0.10831,-1.91205 0.21273,-3.20886 0.0945,-0.92746 0.18909,-1.49049 0.28399,-1.68946 0.11359,-0.21731 0.28398,-0.32138 0.51082,-0.31221 0.32173,0 0.6484,0.1136 0.97966,0.34079 0.27446,0.17991 0.52564,0.44485 0.75248,0.79516 0.24624,0.4258 0.41169,0.92251 0.49671,1.49048 0.16122,1.05058 0.0381,1.94522 -0.36866,2.68323 -0.17074,0.31256 -0.37888,0.59161 -0.62476,0.8375 -0.0476,1.05057 -0.0617,1.97838 -0.0427,2.78271 0.0282,0.45438 0.0804,0.71684 0.15593,0.78775 0.0758,0.0713 0.25576,0.0215 0.53975,-0.14887 0.3877,-0.24589 0.75459,-0.5655 1.10031,-0.95815 0.34537,-0.39299 0.59373,-0.72178 0.74507,-0.98671 l 0.22754,-0.39759 0.39758,0.15629 c -0.0286,0.085 -0.15169,0.29598 -0.36936,0.63147 -0.21766,0.33619 -0.48965,0.72213 -0.81633,1.15711 -0.32667,0.43533 -0.72213,0.85901 -1.18533,1.2707 -0.46426,0.4117 -0.90417,0.69321 -1.32045,0.84491"
       style="fill:#111011;fill-opacity:1;fill-rule:nonzero;stroke:none;stroke-width:0.0352778"
       id="path92" />
    <path
       d="m 112.86447,143.90445 c 0.18909,-0.58667 0.28152,-1.21144 0.27658,-1.87396 -0.005,-0.66251 -0.0494,-1.1691 -0.13476,-1.51906 -0.085,-0.34995 -0.17956,-0.67169 -0.28363,-0.9652 -0.0194,1.92123 0.0282,3.37397 0.14181,4.35822 z m 2.44193,-7.63764 0.28399,0.17004 -2.44193,3.09492 c 0.24589,1.03187 0.39758,1.95933 0.45438,2.78271 0.0564,0.82374 0.0448,1.45979 -0.0356,1.90959 -0.0804,0.44943 -0.20602,0.83255 -0.37642,1.1497 -0.17039,0.31715 -0.31714,0.52775 -0.43991,0.63182 -0.12312,0.10407 -0.23671,0.17533 -0.34078,0.21308 -0.14182,0.066 -0.31256,0.10866 -0.51118,0.12771 -0.369,0.0286 -0.66498,-0.22261 -0.88723,-0.75248 -0.22261,-0.52987 -0.36195,-1.20191 -0.41875,-2.01577 -0.0571,-0.81421 -0.0974,-1.69898 -0.12065,-2.65501 -0.024,-0.95567 -0.0166,-1.84538 0.0212,-2.66876 -0.51117,1.4478 -1.29187,2.153 -2.34244,2.11525 -0.4258,-0.0187 -0.74542,-0.19367 -0.95814,-0.52528 -0.21344,-0.33126 -0.32668,-0.74048 -0.34079,-1.22802 -0.0145,-0.48754 0.002,-0.97261 0.0497,-1.45521 0.0469,-0.48295 0.1016,-0.93204 0.16334,-1.34867 0.061,-0.41628 0.0776,-0.67204 0.0494,-0.76658 0.0282,-0.01 0.0684,-0.0166 0.12065,-0.0212 0.0519,-0.005 0.15134,-0.01 0.29845,-0.0145 0.1464,-0.005 0.28363,0 0.41169,0.0145 0.12771,0.0141 0.26705,0.0473 0.41839,0.0991 0.1517,0.0522 0.27905,0.12312 0.38347,0.21308 0.10407,0.09 0.18239,0.21766 0.23425,0.38311 0.0522,0.16581 0.0639,0.36231 0.0356,0.58914 -0.24659,1.73214 -0.2607,2.68817 -0.0427,2.86809 0.13265,0.10407 0.34996,0 0.653,-0.31257 0.52987,-0.53939 0.79516,-1.44321 0.79516,-2.71145 l -0.0286,-0.56797 c 0.0378,-0.01 0.0854,-0.0215 0.14182,-0.0356 0.0571,-0.0141 0.1658,-0.0282 0.32667,-0.0423 0.16087,-0.0145 0.31715,-0.0166 0.46849,-0.007 0.15134,0.01 0.31715,0.0494 0.49671,0.1203 0.17992,0.0713 0.33408,0.17286 0.46179,0.30551 0.1277,0.13264 0.23636,0.3242 0.32667,0.57502 0.0896,0.25083 0.12982,0.5514 0.12065,0.90135 0,0.17039 -0.002,0.47343 -0.007,0.9084 -0.005,0.43568 -0.007,0.77647 -0.007,1.02235 0.47272,-0.51117 0.92498,-1.02235 1.35537,-1.53317 0.43074,-0.51117 0.74577,-0.89429 0.94403,-1.15005 l 0.28434,-0.38312"
       style="fill:#111011;fill-opacity:1;fill-rule:nonzero;stroke:none;stroke-width:0.0352778"
       id="path94" />
    <path
       d="m 116.31394,134.22246 c -0.20814,0.20814 -0.45862,0.31221 -0.75248,0.31221 -0.29351,0 -0.54398,-0.10407 -0.75212,-0.31221 -0.20814,-0.20814 -0.31221,-0.45931 -0.31221,-0.75247 0,-0.29351 0.10407,-0.54434 0.31221,-0.75248 0.20814,-0.20814 0.45861,-0.31256 0.75212,-0.31256 0.29386,0 0.54434,0.10442 0.75248,0.31256 0.20813,0.20814 0.31256,0.45897 0.31256,0.75248 0,0.29316 -0.10443,0.54433 -0.31256,0.75247 z m 2.7686,2.11526 0.41169,0.15628 c -0.009,0.009 -0.0734,0.14675 -0.19156,0.41169 -0.11853,0.26494 -0.24624,0.54187 -0.38347,0.83044 -0.13723,0.28857 -0.33126,0.61771 -0.58173,0.98672 -0.25118,0.369 -0.50906,0.69321 -0.774,0.97225 -0.26528,0.2794 -0.58208,0.51365 -0.95108,0.70274 -0.36936,0.18979 -0.74295,0.2794 -1.12184,0.26987 -0.4258,-0.019 -0.74506,-0.19156 -0.95814,-0.51823 -0.21308,-0.32632 -0.32632,-0.73342 -0.34043,-1.22096 -0.0145,-0.48719 0.002,-0.97226 0.0494,-1.45521 0.0473,-0.4826 0.1016,-0.93204 0.16333,-1.34867 0.0614,-0.41628 0.078,-0.67204 0.0497,-0.76659 0.0568,-0.01 0.1323,-0.0212 0.22684,-0.0356 0.0949,-0.0141 0.26282,-0.0141 0.50412,0 0.24165,0.0145 0.44732,0.0568 0.61771,0.12806 0.17004,0.0709 0.3168,0.20567 0.43992,0.40464 0.12312,0.19861 0.16086,0.45402 0.11359,0.76658 -0.25541,1.73214 -0.21272,2.66418 0.12806,2.79683 0.14182,0.0568 0.33584,0 0.58173,-0.1704 0.30268,-0.20813 0.62265,-0.55597 0.9585,-1.04351 0.33584,-0.48754 0.59831,-0.9204 0.78775,-1.29893 l 0.26988,-0.56797"
       style="fill:#111011;fill-opacity:1;fill-rule:nonzero;stroke:none;stroke-width:0.0352778"
       id="path96" />
    <path
       d="m 121.48213,135.67061 c 0.68121,0.21767 0.82797,0.80434 0.44027,1.76001 -0.0667,0 -0.13018,-0.0116 -0.19191,-0.0353 -0.0617,-0.0236 -0.1016,-0.0498 -0.12065,-0.078 l -0.0427,-0.0286 c 0.009,-0.0187 0.0191,-0.0473 0.0286,-0.085 0.009,-0.0377 0.0187,-0.10407 0.0282,-0.19897 0.009,-0.0945 0.007,-0.17745 -0.007,-0.24836 -0.0148,-0.0709 -0.055,-0.13687 -0.121,-0.19861 -0.0663,-0.0617 -0.16087,-0.097 -0.28398,-0.10654 -0.0568,-0.01 -0.10654,-0.012 -0.14923,-0.007 -0.0423,0.005 -0.11324,0.0335 -0.21272,0.0854 -0.0995,0.0522 -0.18945,0.13017 -0.26988,0.23424 -0.0804,0.10442 -0.16334,0.26741 -0.24836,0.48966 -0.085,0.2226 -0.15169,0.49 -0.19896,0.80221 -0.16087,1.00366 0.0381,1.47638 0.59655,1.41993 0.56761,-0.0758 1.35784,-0.61524 2.37101,-1.61854 0.63359,-0.62477 1.03611,-1.11231 1.2065,-1.46227 l 0.28399,0.22719 c -0.78564,1.46721 -1.784,2.56011 -2.99544,3.27943 -1.01282,0.59619 -1.88383,0.77611 -2.61231,0.53939 -0.71932,-0.23636 -1.06469,-0.82797 -1.03647,-1.77447 0.01,-0.17039 0.0282,-0.34995 0.0568,-0.53975 0.0663,-0.40675 0.18486,-0.76659 0.3549,-1.07879 0.17074,-0.31221 0.36406,-0.55845 0.58243,-0.73837 0.21731,-0.17956 0.44697,-0.32879 0.68827,-0.44697 0.2413,-0.11818 0.4826,-0.19402 0.7239,-0.22719 0.24165,-0.0332 0.4565,-0.0448 0.64629,-0.0356 0.18909,0.01 0.34996,0.0335 0.4826,0.0713"
       style="fill:#111011;fill-opacity:1;fill-rule:nonzero;stroke:none;stroke-width:0.0352778"
       id="path98" />
    <path
       d="m 131.03641,136.72119 0.26952,0.085 c -0.0286,0.0945 -0.0734,0.21766 -0.13476,0.369 -0.0617,0.15134 -0.1845,0.41875 -0.369,0.80222 -0.18486,0.38347 -0.36936,0.71684 -0.55386,1.00083 -0.18451,0.28399 -0.40464,0.53234 -0.6604,0.74542 -0.25506,0.21272 -0.50165,0.29598 -0.73802,0.24835 -0.27481,-0.0568 -0.49212,-0.33125 -0.65299,-0.82338 -0.16122,-0.49212 -0.26529,-1.01741 -0.31256,-1.57586 -0.0473,-0.55844 -0.13264,-1.06468 -0.25506,-1.51906 -0.12347,-0.45438 -0.28927,-0.68157 -0.49741,-0.68157 -0.17004,0 -0.30269,0.18945 -0.39758,0.56798 -0.0945,0.37853 -0.17498,0.83537 -0.24095,1.37019 -0.0667,0.53481 -0.15628,1.06962 -0.26988,1.60408 -0.11359,0.53481 -0.31714,0.98672 -0.6103,1.35572 -0.29351,0.36936 -0.6724,0.54892 -1.13595,0.5394 -0.30268,0.01 -0.54645,-0.16792 -0.73095,-0.53234 -0.18486,-0.36407 -0.30339,-0.84455 -0.3549,-1.44075 -0.0526,-0.59654 -0.0783,-1.26576 -0.0783,-2.00907 0,-0.74295 0.0332,-1.49295 0.0991,-2.25037 0.0663,-0.75706 0.121,-1.48343 0.16333,-2.17911 0.0427,-0.69532 0.0804,-1.28481 0.11395,-1.76741 0.0328,-0.4826 0.0212,-0.82339 -0.0356,-1.02235 0.066,-0.0187 0.15346,-0.0353 0.26247,-0.0497 0.10901,-0.0141 0.29845,-0.009 0.56797,0.0145 0.26987,0.0236 0.50412,0.085 0.70309,0.1845 0.19861,0.0995 0.37359,0.28893 0.52493,0.56798 0.15134,0.27904 0.20814,0.63641 0.17039,1.07173 -0.16122,2.10115 -0.26035,3.86151 -0.2981,5.28109 0.35948,-1.69404 0.88477,-2.54106 1.57586,-2.54106 0.36901,0 0.65546,0.25788 0.85902,0.77364 0.2032,0.51612 0.3242,1.0862 0.36195,1.71097 0.0377,0.62442 0.1016,1.21144 0.19155,1.76036 0.09,0.54893 0.22472,0.84702 0.40464,0.8943 0.21766,0.0568 0.49706,-0.12771 0.83785,-0.55351 0.34078,-0.42616 0.62935,-0.86607 0.86607,-1.32045 l 0.35489,-0.68121"
       style="fill:#111011;fill-opacity:1;fill-rule:nonzero;stroke:none;stroke-width:0.0352778"
       id="path100" />
    <path
       d="m 140.24496,130.14608 c 0.009,0.0381 0.0191,0.0903 0.0286,0.15628 0.009,0.0663 0.0187,0.19156 0.0282,0.37606 0.009,0.18486 0.002,0.35984 -0.0212,0.52564 -0.024,0.16545 -0.078,0.34784 -0.16334,0.54645 -0.0854,0.19862 -0.20143,0.36689 -0.34783,0.50412 -0.14676,0.13723 -0.35278,0.24589 -0.61772,0.32632 -0.26493,0.0808 -0.57714,0.10654 -0.93698,0.078 l -0.49671,-0.0423 c -0.35983,5.12022 -0.34078,7.80804 0.0568,8.0638 -0.0759,0.22719 -0.29104,0.42792 -0.64593,0.60325 -0.3549,0.17533 -0.66958,0.2674 -0.94439,0.27693 -0.82338,0.0187 -1.25871,-1.07879 -1.30598,-3.29353 -0.019,-0.98425 0.0804,-2.8254 0.29845,-5.52274 0.009,-0.13264 0.0187,-0.25083 0.0282,-0.35489 -1.155,-0.0759 -1.81258,0.0191 -1.97344,0.28398 -0.22684,-0.0759 -0.42828,-0.29104 -0.60325,-0.64593 -0.17533,-0.35525 -0.26776,-0.66958 -0.27693,-0.94439 -0.009,-0.47308 0.2106,-0.81633 0.66004,-1.02905 0.44944,-0.21308 1.00789,-0.30516 1.67535,-0.27693 0.66745,0.0282 1.37936,0.0758 2.13677,0.14217 0.75671,0.0663 1.43581,0.14428 2.03694,0.23424 0.60113,0.09 1.06257,0.0875 1.3843,-0.007"
       style="fill:#111011;fill-opacity:1;fill-rule:nonzero;stroke:none;stroke-width:0.0352778"
       id="path102" />
    <path
       d="m 142.2752,135.51289 c 0.68156,0.21766 0.82832,0.80433 0.44026,1.76001 -0.0667,0 -0.13017,-0.0116 -0.19191,-0.0353 -0.0617,-0.0236 -0.1016,-0.0497 -0.12065,-0.078 l -0.0427,-0.0286 c 0.009,-0.0187 0.019,-0.0473 0.0286,-0.085 0.009,-0.0377 0.0187,-0.10407 0.0282,-0.19896 0.01,-0.0945 0.007,-0.17745 -0.007,-0.24836 -0.0145,-0.0709 -0.055,-0.13688 -0.121,-0.19861 -0.0663,-0.0617 -0.16087,-0.097 -0.28399,-0.10654 -0.0568,-0.01 -0.10653,-0.012 -0.14922,-0.007 -0.0423,0.005 -0.11324,0.0335 -0.21273,0.0854 -0.0991,0.0522 -0.18944,0.13018 -0.26987,0.23425 -0.0801,0.10442 -0.16334,0.2674 -0.24836,0.48965 -0.085,0.2226 -0.15169,0.49001 -0.19861,0.80222 -0.16087,1.00365 0.0377,1.47637 0.59619,1.41993 0.56762,-0.0759 1.3582,-0.61525 2.37102,-1.61855 0.63395,-0.62477 1.03611,-1.1123 1.20686,-1.46226 l 0.28363,0.22719 c -0.78564,1.4672 -1.784,2.56011 -2.99544,3.27942 -1.01282,0.5962 -1.88383,0.77611 -2.61232,0.5394 -0.71931,-0.23636 -1.06468,-0.82797 -1.03646,-1.77447 0.009,-0.1704 0.0282,-0.34996 0.0568,-0.53975 0.0663,-0.40676 0.18486,-0.76659 0.3549,-1.0788 0.17074,-0.31221 0.36442,-0.55845 0.58243,-0.73836 0.21731,-0.17957 0.44697,-0.32879 0.68827,-0.44697 0.2413,-0.11818 0.4826,-0.19403 0.72426,-0.22719 0.2413,-0.0332 0.45649,-0.0448 0.64593,-0.0356 0.18909,0.01 0.34996,0.0335 0.4826,0.0713"
       style="fill:#111011;fill-opacity:1;fill-rule:nonzero;stroke:none;stroke-width:0.0352778"
       id="path104" />
    <path
       d="m 151.82983,136.56346 0.26952,0.085 c -0.0286,0.0945 -0.0734,0.21767 -0.13476,0.36901 -0.0617,0.15134 -0.1845,0.41874 -0.369,0.80221 -0.18486,0.38347 -0.36936,0.71685 -0.55386,1.00083 -0.18451,0.28399 -0.40464,0.53235 -0.6604,0.74542 -0.25506,0.21273 -0.5013,0.29598 -0.73766,0.24836 -0.27517,-0.0568 -0.49248,-0.33126 -0.65335,-0.82338 -0.16122,-0.49213 -0.26529,-1.01741 -0.31256,-1.57586 -0.0473,-0.55845 -0.13264,-1.06469 -0.25506,-1.51906 -0.12347,-0.45438 -0.28927,-0.68157 -0.49741,-0.68157 -0.17004,0 -0.30269,0.18944 -0.39723,0.56797 -0.0949,0.37853 -0.17533,0.83538 -0.2413,1.37019 -0.0667,0.53481 -0.15593,1.06962 -0.26988,1.60408 -0.11359,0.53481 -0.31714,0.98672 -0.6103,1.35573 -0.29351,0.36936 -0.67204,0.54892 -1.13595,0.53939 -0.30268,0.01 -0.54645,-0.16792 -0.73095,-0.53234 -0.18486,-0.36406 -0.30339,-0.84455 -0.3549,-1.44074 -0.0522,-0.59655 -0.0783,-1.26577 -0.0783,-2.00907 0,-0.74295 0.0332,-1.49296 0.0995,-2.25037 0.066,-0.75706 0.12065,-1.48343 0.16299,-2.17911 0.043,-0.69532 0.0804,-1.28482 0.11394,-1.76742 0.0328,-0.4826 0.0212,-0.82338 -0.0356,-1.02235 0.0663,-0.0187 0.15382,-0.0353 0.26247,-0.0497 0.10901,-0.0141 0.29845,-0.009 0.56833,0.0145 0.26952,0.0236 0.50376,0.085 0.70273,0.1845 0.19861,0.0995 0.37359,0.28892 0.52493,0.56797 0.15135,0.27905 0.20814,0.63641 0.1704,1.07174 -0.16122,2.10114 -0.26035,3.86151 -0.2981,5.28108 0.35948,-1.69404 0.88512,-2.54106 1.57621,-2.54106 0.36865,0 0.65511,0.25789 0.85866,0.77365 0.2032,0.51611 0.3242,1.0862 0.36195,1.71097 0.0377,0.62442 0.10195,1.21144 0.19156,1.76036 0.09,0.54892 0.22472,0.84702 0.40463,0.89429 0.21767,0.0568 0.49707,-0.1277 0.83785,-0.55351 0.34079,-0.42615 0.62936,-0.86607 0.86607,-1.32044 l 0.3549,-0.68122"
       style="fill:#111011;fill-opacity:1;fill-rule:nonzero;stroke:none;stroke-width:0.0352778"
       id="path106" />
    <path
       d="m 152.42532,137.42918 c -0.0187,0.4826 0.18486,0.65299 0.61066,0.51117 0.34078,-0.12276 0.69074,-0.37853 1.05057,-0.76658 0.0378,-0.35948 0.0709,-0.62936 0.0995,-0.80927 -0.15134,0 -0.3055,0.012 -0.46143,0.0356 -0.15593,0.0236 -0.34079,0.0663 -0.55351,0.1277 -0.21308,0.0614 -0.38841,0.17004 -0.52564,0.32632 -0.13688,0.15628 -0.21061,0.34784 -0.22013,0.57503 z m 6.5592,-1.39136 h 0.46849 c -0.0378,0.13265 -0.0945,0.30551 -0.1704,0.51823 -0.0759,0.21308 -0.24588,0.59161 -0.51082,1.13595 -0.26529,0.54433 -0.54927,1.02693 -0.85196,1.4478 -0.30303,0.42157 -0.7052,0.80222 -1.2065,1.143 -0.502,0.34078 -1.0227,0.51117 -1.56174,0.51117 -0.35031,0 -0.62266,-0.12559 -0.81668,-0.37641 -0.19368,-0.25047 -0.30974,-0.55104 -0.34784,-0.90135 -0.0377,-0.34995 -0.0423,-0.78069 -0.0141,-1.29187 -0.66252,0.64382 -1.36278,0.90382 -2.10115,0.7807 -0.46355,-0.085 -0.762,-0.3168 -0.89429,-0.69568 -0.13229,-0.37818 -0.1016,-0.78528 0.0924,-1.22096 0.19368,-0.43533 0.49424,-0.7807 0.90135,-1.03647 0.67204,-0.41627 1.43404,-0.5535 2.28565,-0.41169 0.0286,-0.43497 0.0187,-0.75212 -0.0282,-0.95109 0.0374,-0.009 0.085,-0.0187 0.14181,-0.0282 0.0568,-0.01 0.16792,-0.0166 0.33338,-0.0215 0.1658,-0.005 0.32173,0.002 0.46849,0.0215 0.14675,0.019 0.30797,0.0663 0.48295,0.14182 0.17498,0.0759 0.3242,0.17745 0.44732,0.3055 0.12277,0.12736 0.21978,0.30974 0.29069,0.54646 0.0713,0.23671 0.0924,0.51576 0.0642,0.83749 -0.14182,1.96885 -0.0335,2.95804 0.32667,2.96722 0.14182,0.01 0.3168,-0.10407 0.52493,-0.34079 0.37854,-0.4258 0.70768,-0.89641 0.98672,-1.41252 0.27905,-0.51576 0.46602,-0.92498 0.56092,-1.22802 l 0.12771,-0.44027"
       style="fill:#111011;fill-opacity:1;fill-rule:nonzero;stroke:none;stroke-width:0.0352778"
       id="path108" />
    <path
       d="m 160.38963,134.06474 c -0.20778,0.20814 -0.45861,0.31221 -0.75212,0.31221 -0.29351,0 -0.54434,-0.10407 -0.75248,-0.31221 -0.20813,-0.20814 -0.3122,-0.45932 -0.3122,-0.75248 0,-0.29351 0.10407,-0.54433 0.3122,-0.75247 0.20814,-0.20814 0.45897,-0.31256 0.75248,-0.31256 0.29351,0 0.54434,0.10442 0.75212,0.31256 0.20814,0.20814 0.31256,0.45896 0.31256,0.75247 0,0.29316 -0.10442,0.54434 -0.31256,0.75248 z m 2.7686,2.11525 0.41169,0.15628 c -0.009,0.009 -0.0734,0.14676 -0.19155,0.4117 -0.11854,0.26493 -0.24624,0.54186 -0.38347,0.83043 -0.13688,0.28858 -0.33126,0.61772 -0.58173,0.98672 -0.25118,0.36901 -0.50906,0.69321 -0.774,0.97226 -0.26494,0.2794 -0.58208,0.51364 -0.95109,0.70273 -0.36936,0.1898 -0.74295,0.2794 -1.12148,0.26988 -0.42615,-0.0191 -0.74542,-0.19156 -0.95814,-0.51823 -0.21343,-0.32632 -0.32668,-0.73343 -0.34079,-1.22097 -0.0145,-0.48718 0.002,-0.97225 0.0494,-1.45521 0.0473,-0.4826 0.10196,-0.93203 0.16334,-1.34866 0.0614,-0.41628 0.078,-0.67205 0.0497,-0.76659 0.0568,-0.01 0.13229,-0.0212 0.22719,-0.0356 0.0945,-0.0141 0.26282,-0.0141 0.50377,0 0.24165,0.0145 0.44732,0.0568 0.61771,0.12806 0.17039,0.0709 0.31715,0.20567 0.43991,0.40463 0.12312,0.19862 0.16087,0.45403 0.11395,0.76659 -0.25576,1.73214 -0.21308,2.66418 0.12771,2.79682 0.14181,0.0568 0.33584,0 0.58173,-0.17039 0.30303,-0.20814 0.62265,-0.55598 0.95849,-1.04352 0.33585,-0.48754 0.59832,-0.92039 0.78811,-1.29892 l 0.26952,-0.56798"
       style="fill:#111011;fill-opacity:1;fill-rule:nonzero;stroke:none;stroke-width:0.0352778"
       id="path110" />
    <path
       d="m 165.84181,135.21444 c -0.17039,0 -0.29351,0.14464 -0.369,0.43321 -0.0759,0.28857 -0.15628,0.73096 -0.24166,1.3275 -0.0191,0.15135 -0.0332,0.26494 -0.0423,0.34043 0.57715,-0.77575 0.87489,-1.37689 0.8943,-1.80269 0,-0.19897 -0.0804,-0.29845 -0.2413,-0.29845 z m 3.27943,0.6671 0.2413,0.12806 c -0.01,0.0568 -0.0282,0.13476 -0.0568,0.23425 -0.0282,0.0995 -0.0924,0.29104 -0.19156,0.57502 -0.0991,0.28364 -0.20355,0.55351 -0.31256,0.80928 -0.10865,0.25541 -0.25506,0.53939 -0.43991,0.8516 -0.18451,0.31221 -0.37853,0.58208 -0.58209,0.80927 -0.20355,0.22719 -0.44485,0.41875 -0.7239,0.57503 -0.2794,0.15593 -0.57044,0.23425 -0.87348,0.23425 -0.28363,0.0191 -0.53939,-0.0589 -0.76623,-0.23425 -0.22719,-0.17498 -0.38347,-0.35736 -0.46884,-0.54645 l -0.1136,-0.26988 c -0.32173,1.09785 -0.87524,1.63266 -1.66087,1.60408 -0.30304,0.01 -0.54681,-0.16792 -0.73096,-0.53234 -0.18486,-0.36406 -0.30092,-0.84455 -0.34784,-1.44074 -0.0476,-0.59655 -0.0713,-1.26577 -0.0713,-2.00907 0,-0.74295 0.0307,-1.49296 0.0924,-2.25037 0.0614,-0.75706 0.1136,-1.48343 0.15628,-2.17911 0.0427,-0.69532 0.0801,-1.28482 0.1136,-1.76742 0.0332,-0.4826 0.0212,-0.82338 -0.0356,-1.02235 0.0377,-0.009 0.085,-0.0187 0.14217,-0.0282 0.0568,-0.009 0.16757,-0.0162 0.33337,-0.0215 0.16581,-0.005 0.32173,0.003 0.46849,0.0215 0.14676,0.0191 0.30762,0.0663 0.4826,0.14182 0.17498,0.0762 0.3242,0.1778 0.44732,0.30515 0.12277,0.12806 0.22014,0.31045 0.29104,0.54681 0.0709,0.23671 0.097,0.51117 0.0783,0.82338 -0.16122,2.10114 -0.2607,3.86151 -0.29845,5.28108 0.35948,-1.69404 0.88018,-2.54106 1.56175,-2.54106 0.55845,0 0.88477,0.27482 0.97966,0.82339 0.1136,0.64382 -0.0995,1.37724 -0.63923,2.20063 -0.25506,0.37853 -0.56268,0.72884 -0.92251,1.05057 0,0.0945 0.007,0.1965 0.0215,0.30515 0.0141,0.10901 0.0448,0.27693 0.0921,0.50412 0.0473,0.22719 0.14887,0.41169 0.3055,0.55351 0.15593,0.14217 0.34749,0.21308 0.57503,0.21308 0.34996,0 0.6858,-0.12771 1.00753,-0.38312 0.32174,-0.25576 0.5895,-0.56797 0.80222,-0.93733 0.21308,-0.36901 0.40217,-0.73801 0.56797,-1.10737 0.16546,-0.36901 0.28611,-0.68157 0.36195,-0.93698 l 0.1136,-0.38347"
       style="fill:#111011;fill-opacity:1;fill-rule:nonzero;stroke:none;stroke-width:0.0352778"
       id="path112" />
    <path
       d="m 171.43511,136.08051 c -0.17992,-0.0568 -0.38347,0 -0.61031,0.17039 0.0187,0.0381 0.0568,0.0854 0.1136,0.14217 0.0755,0.0759 0.15592,0.13265 0.24094,0.17039 0.0473,0.0378 0.0998,0.0614 0.15628,0.0709 0.1136,0.0282 0.17498,0.0423 0.18451,0.0423 0.11394,0.0286 0.22719,0.0427 0.34078,0.0427 -0.066,-0.35948 -0.20814,-0.57256 -0.4258,-0.63888 z m -1.05057,3.29353 c 0.23636,0.0762 0.48718,-0.0212 0.75212,-0.29069 0.26493,-0.26987 0.46849,-0.63182 0.61066,-1.0862 0.0377,-0.11359 0.0758,-0.26493 0.11359,-0.45438 -0.18944,0.019 -0.33584,0.0236 -0.43991,0.0141 -0.0194,0 -0.0501,-0.002 -0.0924,-0.007 -0.0427,-0.005 -0.0804,-0.009 -0.1136,-0.0141 -0.0332,-0.005 -0.0638,-0.0116 -0.0924,-0.0212 -0.066,-0.01 -0.16546,-0.0332 -0.29775,-0.0713 -0.16122,-0.0473 -0.32667,-0.13229 -0.49706,-0.25541 -0.0568,-0.0377 -0.0946,-0.066 -0.1136,-0.0854 -0.0191,0.0476 -0.0663,0.1658 -0.14181,0.35524 -0.14217,0.45403 -0.18239,0.86854 -0.12065,1.24213 0.0614,0.37395 0.20567,0.59867 0.43286,0.67416 z m 4.62844,-3.59163 0.17004,0.2981 c -0.0476,0.0381 -0.1136,0.0854 -0.19861,0.14182 -0.01,0.01 -0.0282,0.0215 -0.0571,0.0356 -0.0282,0.0141 -0.0469,0.0261 -0.0568,0.0356 l -0.12735,0.085 c -0.01,0.01 -0.0311,0.024 -0.0642,0.0427 -0.0328,0.019 -0.0593,0.0332 -0.0776,0.0427 -0.0194,0.01 -0.0476,0.0282 -0.0857,0.0564 -0.0377,0.0286 -0.066,0.0476 -0.085,0.0572 -0.10442,0.0473 -0.16545,0.0804 -0.1845,0.0991 -0.019,0.0194 -0.0522,0.0406 -0.0991,0.0642 -0.0476,0.0236 -0.0808,0.0402 -0.0998,0.0494 -0.009,0.01 -0.0261,0.0215 -0.0494,0.0356 -0.024,0.0141 -0.0406,0.0212 -0.0498,0.0212 l -0.0568,0.0286 c -0.01,0 -0.019,0.005 -0.0282,0.0141 -0.01,0.01 -0.0194,0.0141 -0.0286,0.0141 -0.0381,0.01 -0.0759,0.0282 -0.11324,0.0568 -0.0384,0.01 -0.0762,0.0286 -0.11395,0.0568 -0.10442,0.0473 -0.26952,0.11853 -0.49671,0.21308 -0.14217,0.0568 -0.31715,0.11853 -0.52529,0.1845 -0.0286,0.01 -0.0688,0.0212 -0.12065,0.0356 -0.0522,0.0141 -0.0878,0.0212 -0.10689,0.0212 -0.0282,0.17039 -0.0709,0.34078 -0.12735,0.51117 -0.23671,0.73801 -0.63923,1.30387 -1.20685,1.69651 -0.56798,0.39264 -1.14053,0.49918 -1.71803,0.31926 -0.5775,-0.17956 -0.98425,-0.59372 -1.22061,-1.24213 -0.23672,-0.6484 -0.23672,-1.3462 0,-2.09409 0.23636,-0.73801 0.63888,-1.30351 1.2065,-1.69651 0.56797,-0.39264 1.14053,-0.49918 1.71803,-0.31961 0.38805,0.12347 0.70485,0.37183 0.95108,0.74542 0.24624,0.37394 0.38806,0.80715 0.42581,1.29893 h 0.0427 c 0.23636,-0.0469 0.39723,-0.0801 0.48296,-0.0991 0.0751,-0.01 0.23142,-0.0519 0.46848,-0.1277 0.0564,-0.019 0.0942,-0.0332 0.11325,-0.0427 0.0568,-0.0187 0.0945,-0.0282 0.11359,-0.0282 l 0.0568,-0.0286 c 0.01,0 0.0187,-0.002 0.0286,-0.007 0.009,-0.005 0.0187,-0.007 0.0286,-0.007 0.009,-0.01 0.0258,-0.019 0.0494,-0.0286 0.0236,-0.009 0.0399,-0.0141 0.0497,-0.0141 l 0.21272,-0.0854 c 0.0568,-0.0187 0.11818,-0.0423 0.18486,-0.0709 0.0755,-0.0377 0.13229,-0.0614 0.17004,-0.0709 0.0759,-0.0377 0.1277,-0.0614 0.15663,-0.0709 0.009,-0.01 0.0303,-0.0212 0.0635,-0.0356 0.0332,-0.0141 0.0547,-0.0261 0.0642,-0.0353 l 0.12735,-0.0427 0.21343,-0.1136"
       style="fill:#111011;fill-opacity:1;fill-rule:nonzero;stroke:none;stroke-width:0.0352778"
       id="path114" />
    <path
       d="m 177.46902,136.2509 c 0.15099,0.1136 0.26494,0.19403 0.34043,0.2413 0.01,-0.0473 0.0265,-0.13229 0.0497,-0.25541 0.0236,-0.12312 0.0402,-0.21766 0.0501,-0.28399 0,-0.019 0.002,-0.0448 0.007,-0.0783 0.005,-0.0328 0.007,-0.054 0.007,-0.0639 0.009,-0.0282 0.0141,-0.0755 0.0141,-0.14181 0.0187,-0.085 0.0187,-0.17039 0,-0.25541 0,-0.18945 -0.0381,-0.33585 -0.11395,-0.44027 -0.0564,-0.11359 -0.14182,-0.1845 -0.25506,-0.21308 -0.11359,-0.0282 -0.24165,-0.009 -0.38347,0.0568 -0.13264,0.0759 -0.22719,0.17039 -0.28398,0.28399 -0.0476,0.10442 -0.0568,0.23212 -0.0286,0.38346 0.0381,0.14182 0.11854,0.2794 0.24166,0.4117 0.085,0.11359 0.2032,0.23212 0.35489,0.35489 z m 2.91042,-0.0286 0.28363,0.0854 c 0,0.019 -0.005,0.0476 -0.0141,0.0854 -0.01,0.0378 -0.0332,0.10866 -0.0709,0.21273 -0.0378,0.10442 -0.085,0.19402 -0.14182,0.26987 -0.0568,0.0759 -0.14005,0.16792 -0.24835,0.27693 -0.10901,0.10866 -0.23672,0.17957 -0.38347,0.21273 -0.14676,0.0332 -0.32667,0.0617 -0.53975,0.0854 -0.21273,0.0236 -0.45685,-0.007 -0.73096,-0.0924 -0.11359,0.45438 -0.23671,0.84243 -0.36936,1.16417 -0.16086,0.37888 -0.34536,0.71473 -0.5535,1.00788 -0.19897,0.27482 -0.42087,0.5207 -0.66746,0.73837 -0.17956,0.15134 -0.36407,0.28398 -0.55351,0.39723 -0.30268,0.18944 -0.67204,0.32208 -1.10737,0.39758 -0.41628,0.0663 -0.75706,-0.0448 -1.02199,-0.33338 -0.26529,-0.28857 -0.44733,-0.70485 -0.54681,-1.24954 -0.0991,-0.54398 -0.16581,-1.0668 -0.19861,-1.5688 -0.0332,-0.5013 -0.0498,-1.04563 -0.0498,-1.63266 0,-0.58667 -0.005,-0.95567 -0.0141,-1.10701 0.066,-0.0286 0.15134,-0.0568 0.25577,-0.0854 0.10371,-0.0286 0.29104,-0.0519 0.56056,-0.0709 0.26988,-0.019 0.51118,0.005 0.7239,0.0709 0.21308,0.0663 0.41663,0.22966 0.61066,0.48966 0.19367,0.2607 0.30515,0.60854 0.33373,1.04352 0.10407,1.37266 0.22683,2.286 0.369,2.74002 0.16087,-0.14181 0.31256,-0.2981 0.45438,-0.46849 0.19861,-0.24588 0.36407,-0.50623 0.49671,-0.78069 0.15134,-0.30304 0.28399,-0.63888 0.39758,-1.00824 0,-0.0187 0.009,-0.0564 0.0282,-0.11324 -0.066,-0.0286 -0.24094,-0.13265 -0.52493,-0.31257 -0.18027,-0.13229 -0.3362,-0.26952 -0.46849,-0.41169 -0.15169,-0.16086 -0.2794,-0.35948 -0.38347,-0.59619 -0.0282,-0.0755 -0.0522,-0.20356 -0.0709,-0.38312 0,-0.12312 0.0233,-0.26494 0.0709,-0.42615 0.0942,-0.26459 0.27446,-0.47308 0.5394,-0.62477 0.25576,-0.16087 0.5394,-0.2219 0.85196,-0.18451 0.15134,0.0286 0.2981,0.0854 0.43991,0.17039 0.1136,0.0759 0.22225,0.18451 0.32667,0.32668 0.066,0.0945 0.1323,0.22719 0.19862,0.39758 l 0.0854,0.38311 c 0.009,0.0854 0.0141,0.20814 0.0141,0.36936 v 0.18415 c -0.01,0.0476 -0.0141,0.10443 -0.0141,0.17039 -0.0282,0.30339 -0.0713,0.59655 -0.12806,0.88019 0.0381,0.0194 0.09,0.0406 0.15628,0.0642 0.066,0.0236 0.18698,0.0522 0.36195,0.085 0.17498,0.0335 0.33373,0.0356 0.4759,0.007 0.14182,-0.0282 0.28822,-0.11325 0.43991,-0.25542 0.15135,-0.14216 0.26035,-0.34536 0.32668,-0.61065"
       style="fill:#111011;fill-opacity:1;fill-rule:nonzero;stroke:none;stroke-width:0.0352778"
       id="path116" />
    <path
       d="m 180.94706,141.02116 c 0.0854,0.0942 0.21307,0.19862 0.38347,0.31221 l 0.085,0.0427 c 0.32174,0.11359 0.5207,0.0473 0.59655,-0.19897 0.0755,-0.25541 0.0639,-0.53234 -0.0356,-0.83044 -0.0991,-0.2981 -0.22507,-0.56092 -0.37606,-0.78775 -0.15169,-0.22719 -0.38347,-0.54892 -0.69568,-0.96555 -0.0476,-0.0568 -0.0808,-0.0995 -0.0995,-0.12771 -0.0759,0.16122 -0.13723,0.34572 -0.1845,0.55386 -0.0568,0.27446 -0.0804,0.53481 -0.0709,0.7807 0.009,0.0758 0.0233,0.19861 0.0423,0.369 0.009,0.0286 0.019,0.0663 0.0286,0.1136 0.01,0.0476 0.0187,0.09 0.0282,0.1277 0.01,0.0381 0.019,0.0713 0.0282,0.0995 0.0476,0.17956 0.13723,0.34995 0.26988,0.51117 z m 4.37268,-4.28731 0.0572,0.34043 c -0.0572,-0.0282 -0.13759,-0.0684 -0.24166,-0.12065 -0.10407,-0.0519 -0.30056,-0.13017 -0.58914,-0.23424 -0.28857,-0.10407 -0.56091,-0.17745 -0.81632,-0.22013 -0.25541,-0.0427 -0.53234,-0.0448 -0.83044,-0.007 -0.29845,0.0381 -0.54187,0.14217 -0.73131,0.31256 0.10407,0.16087 0.25329,0.381 0.44732,0.66005 0.19368,0.27905 0.35031,0.50624 0.46849,0.68121 0.11853,0.17533 0.26035,0.393 0.42616,0.653 0.1651,0.2607 0.29104,0.47836 0.37606,0.65334 0.085,0.17533 0.17251,0.37394 0.26246,0.59619 0.09,0.22261 0.13723,0.41663 0.14182,0.58209 0.005,0.16545 -0.009,0.33373 -0.0423,0.50412 -0.0332,0.17039 -0.10901,0.32632 -0.22719,0.46849 -0.11853,0.14181 -0.27235,0.26952 -0.46143,0.38311 -0.67205,0.32174 -1.23967,0.43074 -1.70357,0.32667 h -0.0141 c -0.0286,0 -0.0476,-0.005 -0.0568,-0.0141 -0.12347,-0.019 -0.24165,-0.0522 -0.35489,-0.0995 -0.13265,-0.0381 -0.29845,-0.11853 -0.49707,-0.2413 -0.21766,-0.14217 -0.39758,-0.30304 -0.53939,-0.48295 -0.17992,-0.22684 -0.31221,-0.4826 -0.39758,-0.76624 0,-0.0194 -0.002,-0.0406 -0.007,-0.0642 -0.005,-0.0233 -0.007,-0.0399 -0.007,-0.0497 l -0.0141,-0.0282 v -0.0282 l -0.0141,-0.0568 -0.0141,-0.0427 v -0.0568 c -0.01,-0.0286 -0.0148,-0.0663 -0.0148,-0.11359 -0.0282,-0.14182 -0.0423,-0.29351 -0.0423,-0.45438 0,-0.34078 0.0378,-0.65758 0.1136,-0.95109 0.0854,-0.29316 0.20814,-0.59161 0.36936,-0.89464 0,-0.009 0.004,-0.0141 0.0141,-0.0141 l 0.0141,-0.0282 c -0.15134,-0.20814 -0.30762,-0.43532 -0.46884,-0.68156 -0.26459,-0.41628 -0.44697,-0.80222 -0.5461,-1.15711 -0.0998,-0.3549 -0.12312,-0.65053 -0.0713,-0.88724 0.0519,-0.23636 0.14217,-0.44944 0.26988,-0.63888 0.12771,-0.18909 0.28152,-0.33832 0.46143,-0.44732 0.17992,-0.10866 0.34784,-0.20073 0.50377,-0.27658 0.15628,-0.0759 0.29139,-0.12312 0.40464,-0.14217 l 0.17039,-0.0423 c -0.24624,0.59619 0.005,1.49542 0.75247,2.69733 0.29316,-0.16086 0.61242,-0.25788 0.9585,-0.29104 0.34502,-0.0332 0.65758,-0.0166 0.93662,0.0497 0.2794,0.066 0.53975,0.14676 0.78105,0.2413 0.24166,0.0945 0.42828,0.18451 0.56092,0.26953 l 0.21273,0.11394"
       style="fill:#111011;fill-opacity:1;fill-rule:nonzero;stroke:none;stroke-width:0.0352778"
       id="path118" />
    <path
       d="m 188.24426,135.21444 c -0.17039,0 -0.29386,0.14464 -0.369,0.43321 -0.0759,0.28857 -0.15628,0.73096 -0.24165,1.3275 -0.0191,0.15135 -0.0332,0.26494 -0.0423,0.34043 0.57715,-0.77575 0.87489,-1.37689 0.89429,-1.80269 0,-0.19897 -0.0804,-0.29845 -0.2413,-0.29845 z m 3.27943,0.6671 0.2413,0.12806 c -0.01,0.0568 -0.0282,0.13476 -0.0568,0.23425 -0.0282,0.0995 -0.0924,0.29104 -0.19156,0.57502 -0.0991,0.28364 -0.20355,0.55351 -0.31256,0.80928 -0.10866,0.25541 -0.25506,0.53939 -0.43991,0.8516 -0.18451,0.31221 -0.37853,0.58208 -0.58209,0.80927 -0.20355,0.22719 -0.44485,0.41875 -0.7239,0.57503 -0.2794,0.15593 -0.57044,0.23425 -0.87347,0.23425 -0.28364,0.0191 -0.5394,-0.0589 -0.76659,-0.23425 -0.22684,-0.17498 -0.38312,-0.35736 -0.46849,-0.54645 l -0.11359,-0.26988 c -0.32174,1.09785 -0.87525,1.63266 -1.66088,1.60408 -0.30304,0.01 -0.54681,-0.16792 -0.73096,-0.53234 -0.18485,-0.36406 -0.30092,-0.84455 -0.34784,-1.44074 -0.0476,-0.59655 -0.0713,-1.26577 -0.0713,-2.00907 0,-0.74295 0.0307,-1.49296 0.0924,-2.25037 0.0614,-0.75706 0.11359,-1.48343 0.15593,-2.17911 0.043,-0.69532 0.0804,-1.28482 0.11394,-1.76742 0.0328,-0.4826 0.0212,-0.82338 -0.0356,-1.02235 0.0378,-0.009 0.085,-0.0187 0.14182,-0.0282 0.0571,-0.009 0.16792,-0.0162 0.33373,-0.0215 0.16545,-0.005 0.32173,0.003 0.46849,0.0215 0.14675,0.0191 0.30762,0.0663 0.4826,0.14182 0.17498,0.0762 0.3242,0.1778 0.44732,0.30515 0.12277,0.12806 0.22013,0.31045 0.29104,0.54681 0.0709,0.23671 0.097,0.51117 0.0783,0.82338 -0.16157,2.10114 -0.2607,3.86151 -0.29845,5.28108 0.35948,-1.69404 0.88018,-2.54106 1.56175,-2.54106 0.55844,0 0.88476,0.27482 0.97966,0.82339 0.11359,0.64382 -0.0995,1.37724 -0.63923,2.20063 -0.25506,0.37853 -0.56268,0.72884 -0.92252,1.05057 0,0.0945 0.007,0.1965 0.0215,0.30515 0.0141,0.10901 0.0448,0.27693 0.0921,0.50412 0.0473,0.22719 0.14887,0.41169 0.3055,0.55351 0.15593,0.14217 0.34749,0.21308 0.57503,0.21308 0.34996,0 0.6858,-0.12771 1.00753,-0.38312 0.32174,-0.25576 0.5895,-0.56797 0.80222,-0.93733 0.21308,-0.36901 0.40217,-0.73801 0.56797,-1.10737 0.16546,-0.36901 0.28611,-0.68157 0.36195,-0.93698 l 0.1136,-0.38347"
       style="fill:#111011;fill-opacity:1;fill-rule:nonzero;stroke:none;stroke-width:0.0352778"
       id="path120" />
    <path
       d="m 196.33663,143.74672 c 0.18909,-0.58667 0.28152,-1.21144 0.27658,-1.87395 -0.005,-0.66252 -0.0494,-1.16911 -0.13476,-1.51906 -0.085,-0.34996 -0.17956,-0.67169 -0.28363,-0.9652 -0.0194,1.92122 0.0282,3.37396 0.14181,4.35821 z m 2.44193,-7.63764 0.28399,0.17004 -2.44193,3.09492 c 0.24589,1.03188 0.39758,1.95933 0.45438,2.78271 0.0564,0.82374 0.0448,1.4598 -0.0356,1.90959 -0.0804,0.44944 -0.20602,0.83256 -0.37642,1.1497 -0.17039,0.31715 -0.31714,0.52776 -0.43991,0.63183 -0.12312,0.10407 -0.23671,0.17533 -0.34078,0.21308 -0.14182,0.066 -0.31256,0.10865 -0.51118,0.1277 -0.369,0.0286 -0.66498,-0.2226 -0.88723,-0.75247 -0.22261,-0.52988 -0.36195,-1.20192 -0.41875,-2.01578 -0.0572,-0.81421 -0.0974,-1.69897 -0.12065,-2.655 -0.024,-0.95568 -0.0166,-1.84538 0.0212,-2.66877 -0.51117,1.4478 -1.29187,2.15301 -2.34244,2.11526 -0.4258,-0.0187 -0.74542,-0.19367 -0.95814,-0.52529 -0.21343,-0.33125 -0.32668,-0.74048 -0.34079,-1.22802 -0.0145,-0.48753 0.002,-0.9726 0.0497,-1.4552 0.0469,-0.48296 0.1016,-0.93204 0.16334,-1.34867 0.061,-0.41628 0.0776,-0.67205 0.0494,-0.76659 0.0282,-0.01 0.0684,-0.0166 0.12065,-0.0212 0.0519,-0.005 0.15134,-0.01 0.29845,-0.0145 0.1464,-0.005 0.28363,0 0.41169,0.0145 0.12771,0.0141 0.26705,0.0473 0.4184,0.0991 0.15169,0.0522 0.27904,0.12312 0.38346,0.21308 0.10407,0.09 0.18239,0.21767 0.23425,0.38312 0.0522,0.1658 0.0639,0.3623 0.0356,0.58914 -0.24659,1.73214 -0.2607,2.68816 -0.0427,2.86808 0.13265,0.10407 0.34996,0 0.653,-0.31256 0.52987,-0.5394 0.79516,-1.44321 0.79516,-2.71145 l -0.0286,-0.56797 c 0.0378,-0.01 0.0854,-0.0215 0.14182,-0.0356 0.0572,-0.0141 0.1658,-0.0282 0.32667,-0.0423 0.16087,-0.0145 0.31715,-0.0166 0.46849,-0.007 0.15134,0.01 0.31715,0.0494 0.49706,0.1203 0.17957,0.0713 0.33373,0.17286 0.46144,0.3055 0.1277,0.13265 0.23636,0.3242 0.32667,0.57503 0.0896,0.25082 0.12982,0.55139 0.12065,0.90135 0,0.17039 -0.002,0.47342 -0.007,0.9084 -0.005,0.43568 -0.007,0.77646 -0.007,1.02235 0.47272,-0.51118 0.92498,-1.02235 1.35537,-1.53317 0.43074,-0.51118 0.74577,-0.89429 0.94403,-1.15006 l 0.28434,-0.38312"
       style="fill:#111011;fill-opacity:1;fill-rule:nonzero;stroke:none;stroke-width:0.0352778"
       id="path122" />
  </g>
</svg>
