<?xml version="1.0" encoding="UTF-8" standalone="no"?>
<!-- Created with Inkscape (http://www.inkscape.org/) -->

<svg
   version="1.1"
   id="svg2"
   width="463.51859"
   height="701.60724"
   viewBox="0 0 463.51859 701.60724"
   xmlns="http://www.w3.org/2000/svg"
   xmlns:svg="http://www.w3.org/2000/svg">
  <defs
     id="defs6" />
  <g
     id="g8"
     transform="matrix(1.3333333,0,0,-1.3333333,0,701.60723)">
    <g
       id="g10"
       transform="scale(0.1)">
      <path
         d="m 1330.96,3223.13 c 5.93,-11.06 12.51,-23.44 24.42,-27.39 8.51,-2.82 17.74,-0.59 26.61,0.73 49.87,7.41 99.18,-15.35 141.93,-42.08 51.75,-32.37 100.81,-73.49 126.33,-128.94 16.63,24.06 20.15,54.52 23.18,83.6 3.9,37.42 7.8,74.83 11.7,112.24 1.23,11.86 -200.12,64.04 -220.18,69.45 -37.9,10.2 -76.01,19.59 -114.31,28.14 -29.17,6.51 -82.32,27.46 -110.04,19.49 31.07,-38.87 66.17,-70.13 90.36,-115.24"
         style="fill:#b82327;fill-opacity:1;fill-rule:nonzero;stroke:none"
         id="path12" />
      <path
         d="m 2009.14,3085.72 c -0.39,-11.4 5.33,-22.02 10.88,-31.99 17.53,-31.5 35.06,-63 52.58,-94.5 17.79,5.01 35.57,10.01 53.35,15.02 -18.52,22.31 -16.15,56.44 -2.14,81.84 14,25.39 37.37,44.04 60.14,62 39.8,31.39 79.6,62.77 119.39,94.16 -7.4,-5.84 -28.67,-7.09 -38.14,-10.32 -13.74,-4.69 -27.14,-10.33 -40.35,-16.34 -26.64,-12.1 -52.36,-26.12 -78.78,-38.71 -25.91,-12.34 -52.57,-23.74 -80.66,-30.13 -19.67,-4.48 -55.29,-2.21 -56.27,-31.03"
         style="fill:#b82327;fill-opacity:1;fill-rule:nonzero;stroke:none"
         id="path14" />
      <path
         d="m 1525.83,2038.49 c 23.54,-28.69 60.77,-45.63 97.87,-44.52 8.6,0.26 17.65,1.35 25.42,-2.35 7.34,-3.49 12.15,-10.62 16.5,-17.48 9.03,-14.24 17.84,-29 30.55,-40.09 24.47,-21.38 59.15,-25.79 91.62,-27.05 41.79,-1.62 83.72,0.41 125.16,6.07 -33.85,-25.84 -67.69,-51.68 -101.54,-77.52 -43.05,-3.9 -86.73,-0.85 -128.83,9 -23.25,5.44 -48.37,12.81 -70.19,3.1 -5.49,-2.44 -10.88,-5.99 -16.89,-5.74 -3.29,0.14 -6.41,1.43 -9.45,2.7 -68.43,28.64 -136.87,57.28 -205.3,85.92 -8.43,3.53 -17.3,7.4 -22.6,14.85 -7.13,10.04 -5.8,23.66 -3.27,35.7 11.04,52.39 41.06,104.59 83.43,137.97 59.31,46.72 61.12,-48.38 87.52,-80.56"
         style="fill:#b82327;fill-opacity:1;fill-rule:nonzero;stroke:none"
         id="path16" />
      <path
         d="m 2230.89,2011.05 c -20.39,-36.28 -42.78,-71.42 -67.05,-105.22 -6.29,10.71 -12.59,21.42 -18.88,32.13 -1.7,2.9 -3.46,6.14 -2.77,9.43 0.94,4.47 5.78,6.72 9.74,8.99 17.51,10.08 25.29,30.86 31.77,50 7.65,22.59 21.44,118.55 55.45,113.62 49.29,-7.15 2.6,-89.61 -8.26,-108.95"
         style="fill:#b82327;fill-opacity:1;fill-rule:nonzero;stroke:none"
         id="path18" />
      <path
         d="m 668.066,2829.73 c -87.671,51.05 -164.347,120.88 -223.343,203.41 -7.625,10.67 -57.84,-82.93 -60.059,-91.7 -7.348,-29.02 -12.242,-81.95 8.746,-107.24 23.578,-28.42 85.004,-6.79 116.887,-4.25 52.476,4.18 105.348,5.41 157.769,-0.22"
         style="fill:#b82327;fill-opacity:1;fill-rule:nonzero;stroke:none"
         id="path20" />
      <path
         d="m 3411.27,2854.55 c 2.94,0.72 5.98,1.48 8.38,3.32 2.77,2.14 4.33,5.45 5.64,8.69 13.06,32.41 9.45,69.75 -3.28,102.3 -12.73,32.54 -33.9,61.05 -56.06,88.07 -62.82,-58.52 -99.01,-137.92 -146.79,-207.85 -5.73,-8.38 -32.73,-34.49 -22.8,-44.6 6.89,-7.01 59.13,12.22 69.18,14.66 48.58,11.81 97.16,23.61 145.73,35.41"
         style="fill:#b82327;fill-opacity:1;fill-rule:nonzero;stroke:none"
         id="path22" />
      <path
         d="m 2962.27,2027.3 c 3.46,3.55 6.99,7.2 9.11,11.68 3.14,6.65 2.84,14.31 3.44,21.63 1.69,20.78 10.98,40.48 11.83,61.31 1.37,33.77 -22.44,66.96 -54.88,76.47 11.63,-3.41 -41.65,-166.67 -46.15,-182.3 -3.65,-12.68 -21.27,-58.4 4.64,-60.55 14.67,-1.22 61.08,60.55 72.01,71.76"
         style="fill:#b82327;fill-opacity:1;fill-rule:nonzero;stroke:none"
         id="path24" />
      <path
         d="m 887.086,1829.63 c -29.492,84.6 -49.125,172.63 -58.387,261.75 -1.539,14.82 -2.922,30.12 -9.863,43.31 -6.941,13.19 -21.059,23.85 -35.828,21.86 -11.16,-35.93 -21.477,-72.11 -30.938,-108.52 -6.664,-25.64 -23.695,-60.17 -7.5,-84.02 15.575,-22.94 50.895,-41.1 71.516,-60.15 19.539,-18.04 62.137,-48.81 71,-74.23"
         style="fill:#b82327;fill-opacity:1;fill-rule:nonzero;stroke:none"
         id="path26" />
      <path
         d="m 1681.42,1696.72 c -6.47,-11.79 -12.93,-23.58 -19.4,-35.37 26.13,-4.21 50.45,12.3 73.21,25.8 28.76,17.06 59.71,30.41 91.85,39.61 -5.63,-15.58 -10.19,-31.55 -13.64,-47.76 -0.75,-3.52 -1.4,-7.38 0.3,-10.54 3.07,-5.73 11.27,-5.45 17.65,-4.21 51.91,10.02 101.33,29.86 152.07,44.68 67.26,19.64 137.08,30.46 207.13,32.09 -30.64,-38.68 -60.1,-78.28 -88.34,-118.74 -31.87,7.19 -60.39,25.72 -92.43,32.11 -60.73,12.13 -120.31,-20.74 -181.06,-32.78 -66.31,-13.14 -140.37,-2.67 -196.81,-39.87 -17.45,-11.51 -31.97,-26.95 -48.81,-39.34 -28.95,-21.29 -63.72,-32.87 -97.85,-44.13 -52.53,-17.32 -109.75,-34.67 -161.95,-16.41 -4.06,1.42 16.42,35.68 18.77,38.55 9.2,11.23 16.81,15.02 29.58,19.87 33.76,12.84 65.5,30.4 97.78,47.05 70.65,36.46 141.3,72.93 211.95,109.39"
         style="fill:#b82327;fill-opacity:1;fill-rule:nonzero;stroke:none"
         id="path28" />
      <path
         d="m 1121.3,1039 c 167.1,-84.039 324.66,-187.039 468.69,-306.379 33.66,-27.891 68.63,-57.699 111.5,-66.23 48.08,-9.571 96.82,9.379 145.7,13.129 29.19,2.242 87.16,-24.11 116.32,-26.649 114.73,-9.969 201.69,13.738 316.31,24.84 6.99,0.68 15.13,0.98 19.78,-4.281 3.29,-3.711 3.73,-9.078 3.91,-14.032 4.25,-115.429 -45.41,-231.718 -131.73,-308.468 -28.77,20.14 -61.31,34.152 -93.92,47.179 -184.89,73.86 -381.06,120.782 -557.3,213.411 -181.57,95.449 -335.04,235.769 -483.64,377.179 -18,17.121 -36.32,34.781 -47.264,57.081 -6.855,13.97 -12.566,34.4 -7.797,49.92 6.465,21.05 18.016,10.96 32.451,1.65 34.29,-22.11 70.59,-40.04 106.99,-58.35"
         style="fill:#b82327;fill-opacity:1;fill-rule:nonzero;stroke:none"
         id="path30" />
      <path
         d="m 2819.49,1043.71 c 188.56,79.23 396.63,111.55 600.35,93.27 -28.32,37.29 -74.12,57.51 -119.92,67.2 -45.81,9.69 -93.02,10.33 -139.39,16.8 -86.06,12.01 -167.85,43.86 -250.1,71.89 -6.61,2.26 -13.99,4.46 -20.37,1.63 -5.38,-2.4 -8.67,-7.8 -11.62,-12.9 -10.57,-18.24 -21.13,-36.47 -31.7,-54.71 -6.4,-11.04 -12.86,-22.23 -16.25,-34.53 -3.35,-12.16 -3.57,-24.94 -3.77,-37.55 -0.56,-35.78 -1.11,-71.55 -1.67,-107.33 15.35,11.17 30.69,22.33 46.04,33.5"
         style="fill:#b82327;fill-opacity:1;fill-rule:nonzero;stroke:none"
         id="path32" />
      <path
         d="m 2471.07,3008.68 c 26.59,-8.05 52.87,-20.99 69.82,-43 5.25,-6.82 15.47,-14.85 20.53,-7.89 1.34,1.84 1.61,4.22 1.82,6.49 1.74,18.86 2.25,37.84 1.54,56.77 -0.13,3.7 -0.39,7.62 -2.46,10.69 -1.71,2.53 -4.44,4.15 -7.16,5.54 -29.09,14.86 -64.03,11.12 -95.58,19.58 -17.23,4.61 -33.23,12.81 -49.52,20.06 -25.15,11.19 -51.26,20.2 -77.95,26.91 -4.49,1.12 -9.14,2.19 -13.69,1.39 -4.8,-0.85 -8.97,-3.68 -12.98,-6.44 -17.03,-11.73 -34.07,-23.46 -51.1,-35.19 1.12,-12.4 -1.06,-68 9.9,-73.42 9.04,-4.47 53.18,19.29 65.03,22.14 47.09,11.34 95.34,9.42 141.8,-3.63"
         style="fill:#5dcbf5;fill-opacity:1;fill-rule:nonzero;stroke:none"
         id="path34" />
      <path
         d="m 1300.97,3012.26 c 25.7,-2.33 53.01,-6.73 72.08,-24.12 0.08,20.5 -0.79,41 -2.59,61.42 -0.58,6.53 -1.32,13.27 -4.62,18.93 -3.91,6.69 -10.85,10.94 -17.51,14.91 -15.37,9.17 -30.75,18.34 -46.12,27.51 -2.32,1.39 -4.74,2.8 -7.43,3.02 -3.77,0.31 -7.28,-1.77 -10.51,-3.75 -53.19,-32.53 -111.65,-56.41 -172.41,-70.42 -3.16,-0.73 6.62,-51 13.39,-53.76 8.56,-3.48 43.44,17.1 54.31,19.93 39.44,10.3 81.09,10 121.41,6.33"
         style="fill:#5dcbf5;fill-opacity:1;fill-rule:nonzero;stroke:none"
         id="path36" />
      <path
         d="m 1415.95,4847.16 c 37.87,-7.46 80.59,-18.36 98.76,-52.42 35.75,25.94 71.51,51.87 107.26,77.8 -132.15,11.51 -241.32,104.05 -364.18,154.06 -15.27,6.21 -31,11.83 -47.4,13.53 -19.53,2.01 -39.15,-1.61 -58.45,-5.22 -60.85,-11.39 -121.68,-22.84 -182.506,-34.36 -10.485,-1.98 -21.727,-4.37 -28.954,-12.22 -5.425,-5.9 -7.691,-13.96 -9.777,-21.7 -5.223,-19.33 -13.406,-40.53 -13.973,-59.95 84.16,-6.7 167.89,-4.23 252.26,-15.81 82.78,-11.37 165.11,-26.97 246.96,-43.71"
         style="fill:#5dcbf5;fill-opacity:1;fill-rule:nonzero;stroke:none"
         id="path38" />
      <path
         d="m 1027.55,4729.48 c -4.37,-33.38 -32.726,-57.71 -59.136,-78.59 -144.348,-114.11 -290.285,-226.22 -437.754,-336.28 39.574,114.61 120.063,208.53 205.477,292.09 32.203,31.5 67.527,78.17 106.929,99.91 15.633,8.63 185.854,33.39 184.484,22.87"
         style="fill:#5dcbf5;fill-opacity:1;fill-rule:nonzero;stroke:none"
         id="path40" />
      <path
         d="m 1143.31,2844.26 c 6.92,-18.47 14.82,-36.59 23.64,-54.24 -30.45,0.73 -59.4,13.62 -85.16,29.87 -15.86,10 -108.606,84.82 -58.73,95.59 18.95,4.09 40.43,-23.6 54.1,-33.42 11.03,-7.92 62.69,-28.55 66.15,-37.8"
         style="fill:#5dcbf5;fill-opacity:1;fill-rule:nonzero;stroke:none"
         id="path42" />
      <path
         d="m 2724.65,2848.89 c -3.43,-16.9 6,-33.35 11.96,-49.53 0.68,-1.83 1.32,-3.76 1.06,-5.7 -0.78,-5.89 -8.43,-7.52 -14.37,-7.74 -72.19,-2.68 -144.19,-10.65 -215.21,-23.85 23.46,22.88 38.54,56.27 71.34,65.1 15.98,4.3 142.31,7.38 145.22,21.72"
         style="fill:#5dcbf5;fill-opacity:1;fill-rule:nonzero;stroke:none"
         id="path44" />
      <path
         d="m 1776.32,3133.61 c 3.29,3.75 6.71,7.61 11.22,9.75 4.24,2.01 9.07,2.32 13.76,2.6 74.72,4.44 149.44,8.88 224.17,13.32 2.74,0.17 5.81,0.22 7.83,-1.65 2.16,-2 2.2,-5.36 1.87,-8.29 -3.19,-28.34 -25.09,-50.51 -46.07,-69.84 -2.89,-2.66 -5.87,-5.37 -9.5,-6.91 -4.07,-1.73 -8.62,-1.84 -13.05,-1.93 -17.79,-0.35 -35.59,-0.69 -53.39,-1.04 -42.8,-0.83 -85.69,-1.71 -128.43,1.3 -61.97,4.35 -39.32,27.45 -8.41,62.69"
         style="fill:#5dcbf5;fill-opacity:1;fill-rule:nonzero;stroke:none"
         id="path46" />
      <path
         d="m 984.141,2038.02 c -45.719,70.47 -66.317,154.06 -81.657,236.65 -2.445,13.17 -4.953,26.8 -12.476,37.89 -6.188,9.11 -15.289,15.77 -24.203,22.24 -22.196,16.1 -44.387,32.21 -66.578,48.32 7.781,-5.65 2.242,-109.24 4.082,-124.96 3.371,-28.73 4.277,-68.64 16.961,-95.42 11.992,-25.31 37.898,-36.23 60.589,-50.67 35.754,-22.75 70.254,-47.49 103.282,-74.05"
         style="fill:#5dcbf5;fill-opacity:1;fill-rule:nonzero;stroke:none"
         id="path48" />
      <path
         d="m 1573.35,1083.49 c 22.98,-19.86 45.97,-39.71 68.96,-59.56 6.32,-5.46 13.06,-11.65 14.31,-19.91 0.96,-6.372 -1.58,-12.68 -4.07,-18.618 -26.71,-63.781 -53.41,-127.55 -80.11,-191.32 64.51,42 129.02,84 193.53,126 33.07,21.539 66.7,43.34 104.46,54.816 37.75,11.481 80.86,11.454 114.49,-9.187 -52.39,-68.352 -100.61,-139.902 -144.3,-214.121 43.06,-28.57 102.13,-7.719 143.07,23.82 40.94,31.539 75.25,73.621 123.17,92.988 -35.7,-65.589 -65.62,-134.316 -89.31,-205.136 -82.33,14.66 -166.49,19.027 -249.9,12.957 -26.58,-1.93 -53.76,-4.867 -79.53,1.91 -19.03,5 -36.27,15.062 -53.25,25 -53,31.043 -106.01,62.09 -159.02,93.141 -30.07,17.609 -61.79,36.949 -77.07,68.269 -41.55,85.141 118.14,180.341 174.57,218.951"
         style="fill:#5dcbf5;fill-opacity:1;fill-rule:nonzero;stroke:none"
         id="path50" />
      <path
         d="m 2812.27,1276.58 c -7.86,-30.48 -15.72,-60.96 -23.57,-91.44 -5.53,-21.44 -11.16,-43.13 -21.72,-62.59 -9.6,-17.69 -22.99,-32.99 -36.26,-48.13 -20.55,-23.44 -41.09,-46.87 -61.64,-70.3 -27.68,-31.569 -56.35,-63.921 -93.92,-82.64 6.51,3.25 13.63,98 16.56,111.1 8.31,37.17 16.81,89.53 37.99,121.74 35.77,54.38 126.08,91.57 182.56,122.26"
         style="fill:#5dcbf5;fill-opacity:1;fill-rule:nonzero;stroke:none"
         id="path52" />
      <path
         d="m 3337.94,3741.93 c -13.32,-101.88 -26.63,-203.75 -39.95,-305.63 -15.46,-118.27 -31.63,-238.97 -84.25,-346.01 -14.37,-29.23 -31.41,-57.32 -41.96,-88.13 -9.59,-27.98 -13.59,-57.51 -17.55,-86.81 -13.42,-99.55 -26.84,-199.1 -40.26,-298.65 -26.76,7.16 -54.89,9.15 -82.38,5.81 -24.27,72.96 -15.98,152.28 -6.21,228.55 22.59,176.37 51.67,351.84 80.74,527.26 11.46,69.15 11.4,148.97 52.92,207.08 21.73,30.41 178.9,134.72 178.9,156.53"
         style="fill:#5dcbf5;fill-opacity:1;fill-rule:nonzero;stroke:none"
         id="path54" />
      <path
         d="m 655.98,3697.44 c -3.695,-48.1 0.84,-96.82 13.348,-143.41 45.442,39.81 87.824,83.11 126.649,129.39 18.535,-52.51 32.832,-106.51 42.699,-161.31 1.535,-8.53 2.941,-17.48 0.301,-25.73 -2.5,-7.82 -8.317,-14.05 -13.84,-20.12 -67.719,-74.43 -115.918,-166.46 -138.528,-264.51 -10.039,-43.54 -15.183,-88.41 -30.382,-130.43 5.836,16.14 -73.442,132.22 -83.774,155.9 -25.781,59.12 -47.379,121.08 -61.398,184.11 -23.961,107.74 73.781,201.88 144.925,276.11"
         style="fill:#5dcbf5;fill-opacity:1;fill-rule:nonzero;stroke:none"
         id="path56" />
      <path
         d="m 2067.65,1596.13 c -1.69,11.1 -4.78,22 -9.18,32.33 -1.54,3.62 -3.44,7.39 -6.87,9.31 -3.25,1.81 -7.2,1.59 -10.9,1.3 -71.32,-5.63 -141.98,-19.39 -210.2,-40.93 -14.35,-4.53 -28.68,-9.44 -41.91,-16.62 -16.58,-9 -31.06,-21.37 -45.4,-33.63 -22.56,-19.3 -52.01,-38.36 -70.11,-61.5 27.17,-0.13 65.98,24.7 92.67,34.39 33.1,12.01 66.62,22.86 100.47,32.52 16.49,4.71 200.44,48.77 201.43,42.83"
         style="fill:#5dcbf5;fill-opacity:1;fill-rule:nonzero;stroke:none"
         id="path58" />
      <path
         d="M 982.871,945.082 C 874.887,1071.06 785.477,1212.94 718.43,1364.71 725.066,1349.68 600.883,1203.99 586.719,1183.94 541.383,1119.78 496.551,1055.26 449.926,992.02 404.734,930.719 358.078,870.43 307.992,813.031 274.129,774.219 166.574,695.84 163.82,649.98 c 134.606,33.141 269.348,111.411 400.922,159.379 137.699,50.2 277.192,95.493 418.129,135.723"
         style="fill:#5dcbf5;fill-opacity:1;fill-rule:nonzero;stroke:none"
         id="path60" />
      <path
         d="m 1576.2,3031 -169.9,128.6 c 28.4,14.8 43.7,22.7 43.7,22.7 0,0 122.6,-79.4 127.8,-95.8 2.5,-8.2 0.8,-32.8 -1.6,-55.5 z m -62.3,-52.7 c 0,0 -41.2,26.8 -65.9,18.5 -9.6,-3.2 -32.5,-14.3 -58.6,-26.7 3.4,20.5 8.9,61.9 4.1,90.4 28.3,-8.1 53.5,-14.8 63.7,-16.3 28.9,-4.1 81.4,-34 81.4,-34 z m -163.8,-26.4 c -29.3,-13.2 -56.6,-24.1 -68.9,-24.1 -20.4,0 -79.9,-2.3 -125.6,1.4 -7.4,26.8 -20.6,79.1 -18.7,107.7 19,4.5 38.9,10.3 59.4,17.9 -10,-10.5 -16.2,-24.8 -16.2,-40.5 0,-32.4 26.3,-58.7 58.7,-58.7 32.5,0 58.7,26.3 58.7,58.7 0,32.2 -25.8,58.3 -57.9,58.7 6.2,3 12.5,6 18.8,9.3 7.8,4.1 15.4,8.1 22.8,12 0,0 39.9,-12.4 82.2,-25 2.8,-29.9 1.3,-83.4 -13.3,-117.4 z m 116.4,117 -134.8,51.9 c 15.9,8.3 30.4,15.8 43.3,22.5 z M 980.199,3052.5 925.602,3037 c 0,0 98.898,77.3 202.998,106.1 104,28.9 266.8,33 266.8,33 0,0 -177.2,-96.1 -247.2,-115 -70.1,-18.9 -168.001,-8.6 -168.001,-8.6 z M 1618,3100.9 c -22.7,21.6 -143.2,104 -168,106.1 -24.7,2.1 -230.8,-9.3 -334.8,-48.4 -104.1,-39.2 -208.098,-88.6 -300.899,-169 v -26.8 l 25.801,-12.3 c 0,0 96.796,80.3 141.097,75.2 22.601,-2.7 62.401,-4.4 112.101,2.8 0,-16.2 1.7,-53.5 15.9,-90.7 -17.6,7.3 -45.7,21.1 -69.7,35.2 -22.3,13.1 -41,26.7 -44.398,35.7 3.398,-12.3 26.698,-78.6 131.798,-96.4 116,-19.5 158.3,-22.6 202.6,0 44.3,22.7 135,78.3 172,45.4 l -31.9,-45.4 c 0,0 -35,32 -52.5,22.7 -17.6,-9.3 -40.2,-102 -145.3,-102 -105.1,0 -137.1,22.6 -159.7,55.6 0,0 -20.6,-46.3 75.2,-70 95.8,-23.7 163.8,-3.1 186.5,19.6 22.7,22.6 54.1,51.2 56.7,74.1 2.5,23 23.6,-22.6 41.2,-26.8 17.5,-4.1 79.3,83.5 79.3,83.5 0,0 23.6,47.9 23.6,48.3 -2,-17.2 -4,-30.8 -4,-30.8 l 3.1,-15.4 -66,-103.1 c 0,0 -6.2,-12.3 2.1,-35 8.2,-22.7 10.3,-23.7 1,-39.1 -9.3,-15.5 -74.2,-119.6 -86.5,-139.1 -12.4,-19.6 -273.1,-318.4 -273.1,-318.4 0,0 -6.1,-23.7 12.4,-13.4 18.5,10.3 181.3,183.4 239,250.4 57.7,66.9 95.9,151.4 106.2,164.8 10.3,13.4 36,39.2 34,54.6 -2.1,15.5 -6.2,60.8 -6.2,60.8 0,0 85.5,141.2 86.5,155.6 0,0 35,-52.6 55.7,-47.4 20.6,5.1 -38.2,117.4 -60.8,139.1"
         style="fill:#111011;fill-opacity:1;fill-rule:nonzero;stroke:none"
         id="path62" />
      <path
         d="m 2143.34,2253.02 -11.14,-16.1 c 0,0 64.38,-77.99 68.09,-112.66 3.71,-34.66 -39.62,-147.32 -39.62,-147.32 h -39.62 c 0,0 -32.18,47.04 -65.61,47.04 -33.43,0 -40.86,-49.52 -70.57,-86.66 -29.71,-37.14 -224.08,-16.1 -264.94,-4.95 -40.85,11.14 -78,107.71 -78,107.71 l -28.47,4.95 -91.62,-82.95 -60.66,40.85 86.66,185.71 -47.04,1.24 c 0,0 -39.62,-105.24 -55.71,-151.04 -16.1,-45.81 9.9,-66.86 9.9,-66.86 0,0 35.9,-13.62 75.52,-49.53 39.62,-35.92 74.28,-9.89 74.28,-9.89 l 58.19,30.95 c 24.76,-52 75.52,-48.51 75.52,-48.51 0,0 61.9,2.7 104,0.22 42.09,-2.47 151.04,16.1 163.42,27.23 12.38,11.13 43.33,48.29 43.33,48.29 0,0 27.24,-8.66 53.23,-19.8 26,-11.15 77.38,8.66 77.38,8.66 0,0 53.86,146.09 47.67,179.52 -6.19,33.42 -84.19,113.9 -84.19,113.9"
         style="fill:#111011;fill-opacity:1;fill-rule:nonzero;stroke:none"
         id="path64" />
      <path
         d="m 1054.58,3385.24 c 18.45,-2.64 253.01,-108.06 253.01,-108.06 0,0 118.59,-39.53 189.75,-54.02 71.16,-14.5 115.96,-59.3 115.96,-59.3 0,0 141,7.9 154.18,36.89 13.17,28.99 9.22,120.35 14.49,160.33 5.27,39.97 -36.89,125.62 -36.89,125.62 0,0 14.49,-105.42 14.49,-131.77 0,-26.36 -19.77,-29.65 -19.77,-29.65 0,0 -201.61,44.14 -254.32,59.96 -52.71,15.81 -226.65,73.79 -287.26,84.33 -60.62,10.54 -109.38,11.86 -167.36,-35.58 -57.973,-47.44 -134.403,-117.28 -134.403,-117.28 0,0 139.683,71.16 158.123,68.53"
         style="fill:#111011;fill-opacity:1;fill-rule:nonzero;stroke:none"
         id="path66" />
      <path
         d="m 2564.4,3055.7 c 0,0 -103.7,7.3 -163.7,32.8 -60,25.4 -94.6,41.8 -94.6,41.8 0,0 -64.6,-31.1 -105.5,-69.2 -40.9,-38.1 -69.1,-57.2 -69.1,-57.2 0,0 -24.6,27.3 52.7,82.7 77.3,55.5 130.1,77.3 130.1,77.3 0,0 203.7,-92.7 250.1,-108.2 z m -16.4,-80.9 c -6.4,-27.2 -28.6,-58.9 -37.8,-71.1 -56.1,-10 -104.9,-17.3 -144.5,-19.6 -21.2,10.6 -69.3,39.7 -86,91.6 -10.2,31.7 -3.5,61.4 6.4,84.2 l 53.6,32.2 c 13.3,-11.6 32.9,-21.1 55,-29 -22.9,-3.7 -40.4,-23.4 -40.4,-47.4 0,-26.6 21.6,-48.2 48.2,-48.2 26.6,0 48.2,21.6 48.2,48.2 0,14 -6.1,26.5 -15.6,35.3 42.3,-10.7 85.6,-16.5 108.3,-19.1 4.3,-11.5 10.2,-33.4 4.6,-57.1 z m -264.6,-83.7 c -51.9,20 -38.2,42.8 -60.1,71.9 -21.8,29.1 -59.1,23.6 -59.1,23.6 l 72.6,43.6 c -3.9,-24.9 -3.8,-63.2 22.9,-95.4 21.4,-25.9 39.9,-41.2 53.2,-50.1 -11.3,1.2 -21.4,3.3 -29.5,6.4 z m 467.1,511.3 c 0,0 -189.7,-31.7 -300.4,-62 -110.7,-30.3 -449.4,-102.7 -449.4,-102.7 l -9.2,25 v 210.8 l -24.2,-15.8 c 0,0 -10.1,-129.1 -7.4,-197.6 1.5,-40.5 27.5,-102.7 48.5,-146.7 l -35.9,-29.5 h -247.6 l -11.2,-15 c 0,0 198.1,-17.9 239,-8.4 0,0 2.5,-324.6 28.5,-504.2 2.2,-14.9 4.3,-30.2 6.5,-45.6 v -0.1 c 24.2,-170.5 49.2,-364 49.2,-364 h 18.5 c 0,0 -20.4,243.6 -31.6,387.1 -2.3,29.8 -4.2,55.3 -5.5,73.4 -7.4,105.2 -24.8,440.7 -24.8,440.7 l 29.6,35.7 c 7.1,-13.8 11.9,-22.4 11.9,-22.4 0,0 64.2,29.2 138.6,59.6 -17.1,-11.9 -33.6,-24.8 -47.6,-38.6 -62.7,-61.8 -5.4,-102.8 -5.4,-102.8 -19.1,-22.7 -4.6,-51.8 23.6,-55.4 28.2,-3.7 55.5,35.4 55.5,35.4 18.2,1.8 20.9,-45.5 33.6,-61.8 12.8,-16.4 91.9,-45.5 117.4,-45.5 25.4,0 214.6,22.7 262.8,37.3 3.4,1 6.2,2.1 8.6,3.1 h 0.1 c 3.2,1.4 5.7,2.9 7.5,4.3 l 0.1,0.1 c 15.5,12.5 -21.8,25.2 -21.8,25.2 -19,-3.7 -37.5,-7.2 -55.4,-10.6 8.7,13.7 20.6,36.2 21.8,57.9 1.1,21.9 -3.2,44.6 -6.5,58.2 89.7,-28.7 232,-23.6 232,-23.6 l -40.9,20.9 c 0,0 -97.3,23.6 -223.7,72.8 -82.6,32 -141,67.9 -171.6,89 127,33.7 311.7,70.8 311.7,70.8 13.2,-31.6 137,-93.5 137,-93.5 l 5.3,-25.1 35.6,13.2 c -22.4,87 -102.8,250.4 -102.8,250.4"
         style="fill:#111011;fill-opacity:1;fill-rule:nonzero;stroke:none"
         id="path68" />
      <path
         d="m 2621.67,2842.93 c 0,0 -110.95,-15.48 -208.26,-31.85 -97.32,-16.37 -106.41,1.82 -127.33,20.01 -20.91,18.18 -35.46,10 -35.46,10 0,0 28.19,-24.56 45.47,-39.11 17.28,-14.55 55.47,-28.19 85.49,-24.55 30.01,3.64 247.36,36.38 247.36,36.38 0,0 11.83,1.82 10.01,17.28 -1.82,15.46 -17.28,11.84 -17.28,11.84"
         style="fill:#111011;fill-opacity:1;fill-rule:nonzero;stroke:none"
         id="path70" />
      <path
         d="m 2279.52,2548.91 c -85.42,86.66 -107.71,184.47 -138.66,241.42 -30.95,56.95 -66.85,32.18 -66.85,32.18 0,0 -3.71,32.19 -8.05,55.72 -4.33,23.52 16.72,145.96 16.72,145.96 l -33.43,-6.62 -12.38,-201.25 c 0,0 38.38,-18.57 53.23,-18.57 14.86,0 70.57,-139.89 115.14,-217.89 44.57,-78 128.76,-149.8 159.71,-165.9 30.95,-16.09 61.9,-70.57 73.04,-80.47 11.14,-9.9 35.9,11.14 35.9,11.14 -2.47,28.48 -108.94,117.62 -194.37,204.28"
         style="fill:#111011;fill-opacity:1;fill-rule:nonzero;stroke:none"
         id="path72" />
      <path
         d="m 3410.5,2827.6 c -15.4,35.4 -35.1,67.1 -53.4,57.1 -37.9,-20.7 48.4,-139.6 48.4,-139.6 0,0 -28,-171.9 -33.9,-221.5 -5.8,-49.5 -209.8,-218.5 -300.1,-308.9 -53.6,-53.6 -91.8,-37.4 -114,-15.4 53.7,100 148.9,284.5 148.9,330.1 0,34.7 8,67 24.7,103.5 l 3.8,2.7 c 0,0 0.5,2.8 1.4,7.8 9.2,18.8 20.4,38.8 34.3,60.9 43.7,69.9 201,332.7 201,332.7 l 52.5,-66.9 c 0,0 -11.7,123.8 -61.2,124.2 -34.8,0.3 -122,-103 -171,-164.7 10.6,49.2 20.6,90.8 27.9,110.7 25.2,69.5 110.1,164.6 110.1,164.6 0,0 68,-82.9 94.2,-167.9 20.6,-66.8 -2.7,-168.8 -13.6,-209.4 z m -422.9,-988.7 c 3.9,-47.8 -9.9,-102.4 -16.9,-126.4 -26.4,0.7 -52.1,2.6 -76.9,5.2 0.8,86.7 5.5,375.9 36.3,431.5 2.5,4.3 5.4,9.6 8.7,15.6 8.9,-10.6 18.1,-17.5 27.3,-21.6 l -7.6,-165.4 c 0,0 24,-75.4 29.1,-138.9 z m -262.1,-729.5 c -14.1,-34.2 -118.7,-132.701 -118.7,-132.701 l 80.5,201.101 c 0,4.2 -1,7.3 -2.8,9.5 -12.4,15.9 -63.6,-13.5 -63.6,-13.5 l -87.3,-175.499 -0.1,-0.199 -59.6,-120 c -84.7,-60.301 -136.6,-164.903 -136.6,-164.903 0,0 -23.3,-3.199 -55.6,-8 h -0.1 c -44.9,-6.801 -107.3,-16.801 -149.4,-26.199 -72.4,-16.098 -173,-8 -253.4,16.102 C 1798.3,719.301 1683.7,679 1683.7,679 l -48.3,30.199 C 1723.9,749.398 1699.8,852 1699.8,852 l 92.5,267.5 -44.3,18.1 -189,-307.702 c -26.2,92.5 -119.2,108.602 -119.2,108.602 27.7,58.301 30.7,199.1 30.7,199.1 l -30.7,26.1 -130.2,-179.001 C 1074.3,1002.8 974.699,1218 974.699,1218 c 39.201,36.2 73.401,100.6 73.401,100.6 l -73.401,36.2 -39.199,-50.3 c -46.898,39.8 -65.699,134.8 -72.602,187.1 24,-22.5 62.102,-53.3 94.704,-58.4 52.298,-8 150.898,22.2 199.098,32.2 48.3,10.1 144.8,0 144.8,0 0,0 20.2,-34.2 36.2,-32.2 16.1,2.1 44.3,16.1 44.3,16.1 0,0 0,0 10,-16.1 10.1,-16 150.9,38.3 150.9,38.3 0,0 10,-24.2 32.2,-34.2 22.1,-10.1 66.3,10 66.3,10 0,0 6.1,-16.1 26.2,-44.2 20.1,-28.2 90.5,-2 90.5,-2 14.1,-42.3 50.3,-52.3 179,-56.4 128.7,-4 126.7,-46.2 148.8,-26.1 22.1,20.1 -4,110.6 -4,110.6 l 44.2,-2 c 0,0 44.3,-36.2 146.9,-38.2 102.5,-2 156.8,56.3 156.8,56.3 0,0 175,-16.1 193.1,28.2 18.1,44.2 -63.2,92.5 -63.2,92.5 0,0 208,-12.1 293.6,6 19.2,4.1 43.3,10.8 69.9,19 -18.6,-43.6 -47.1,-111 -69.9,-167.8 -2.1,-5.2 -4.3,-10.8 -6.7,-16.6 -38.9,-96.6 -107.8,-264.9 -121.1,-297.2 z M 2604.6,904.5 c 46.2,48.602 121.2,130.1 191.9,217.6 -0.9,-151.299 1.1,-597.6 1.1,-597.6 z M 2517.8,507.102 C 2479.9,338 2462.4,64.1016 2462.4,64.1016 c 0,0 -241.8,125.2964 -387.5,215.6994 -31,19.199 -74.2,43.301 -123,69.398 -180.2,96.301 -436.6,219.102 -436.6,219.102 0,0 -340,244.699 -424.9,335.097 -85,90.301 -297.701,265.202 -300.701,422.502 -0.801,47.5 -2.597,142.2 -4.5,251.3 -3.801,206.1 -8.398,463.6 -10,551.2 l 30.903,-22.1 c 10.296,-85.4 30.296,-293.8 8.199,-492 -0.403,-3.3 -0.699,-6.5 -1,-9.7 C 788.898,1354.2 913.398,1254.2 913.398,1254.2 967.699,980.699 1237.2,944.5 1237.2,944.5 L 1355.8,844 c 0,0 239.4,-148.898 299.7,-183.102 60.4,-34.199 197.1,2.004 197.1,2.004 83.9,-36.004 283.6,-26.101 283.6,-26.101 0,0 45,6.199 97.3,14.801 59.5,9.796 128.5,22.796 152.1,33.5 44.2,20.097 36.2,66.296 70.4,92.5 15.3,11.699 37.8,29.097 57.9,44.699 10.8,-48.801 34,-181.102 3.9,-315.199 z M 728.301,2253 c -34.102,35 -215.199,182.6 -215.199,255.6 0,73 10.097,207.8 -18.102,246 h -34.102 l 8,-46.2 -74.398,134.9 c 0,0 10,149.6 50.301,174.3 0,0 144.801,-160.1 185,-207.5 25.398,-30 63.597,-46.6 88.398,-54.8 -3.301,-24.1 -5.398,-44.9 -5.898,-61 -3.602,-113.1 -27.199,-206 65.199,-307.3 l 19.199,-198.5 c -21,18.9 -49.097,44.8 -68.398,64.5 z m -257.403,841.3 c 0,0 88,-56.8 122.704,-89.5 l 143.796,-135.5 c -4.296,-22.4 -8.199,-44 -11.597,-64.3 -31.801,30.6 -96.903,92.2 -138.199,122.1 -56.403,40.7 -102.602,106.7 -130.801,109.9 -28.102,3.2 -56.102,-16.9 -50.301,-48.9 0,0 -30.102,73.8 64.398,106.2 z m 57.602,809.3 c 2.301,73.4 91.801,275.3 91.801,275.3 H 595 L 484.898,3988.5 c 0,0 27.5,252.4 105.5,403.8 78.102,151.4 201.903,257 263.903,300.59 61.898,43.61 25.199,84.81 -6.903,59.61 -32.097,-25.2 -41.296,13.8 -41.296,13.8 0,0 34.398,75.7 55.097,98.59 20.602,23 146.801,32.21 146.801,32.21 l 6.9,43.5 -80.298,-16 c 0,0 9.199,43.6 29.796,61.9 20.704,18.39 222.602,45.89 222.602,45.89 l 348.7,-188.09 c 0,0 -468,-192.7 -639.2,-660.8 -171.301,-468 -82.199,-681.4 -82.199,-681.4 C 791,3482 771,3456.2 753.801,3427.6 c -74.5,-124.6 -94.5,-303 -94.5,-303 -24.602,75.1 -44.903,152.7 -61.602,228.6 -56.398,256.6 -71,493.7 -69.199,550.4 z m 358.699,-2178.7 13.199,-38.1 18.204,-52.7 c -8.903,-7.1 -16.801,-14.2 -23.704,-21.1 l -4.5,64.6 v 0.1 z m 142.401,-25 c -6.4,-2.9 -12.9,-6 -19.7,-9.2 -8.2,-4 -15.9,-8 -23.298,-12 -5.204,14.4 -13.704,38.2 -23.102,65.7 -17,49.9 -36.699,111.8 -44.102,150.6 -14.097,73.5 -49.898,165.7 -49.898,165.7 l -60.898,295.8 c 4.597,-4 9.296,-8.1 14.296,-12.2 14.903,-12.2 28.704,-23.2 41.5,-33.2 l 142.702,-528 z m 607.8,-208.3 -28.1,8 14,56.3 146.9,42.3 z m 154.9,74.4 244.6,44.2 28.9,-44.2 118.7,-39.9 c 0,0 -30.2,-74.8 -70.4,-74.8 -40.3,0 -116.2,14.1 -178.8,14.1 -62.6,0 -126.9,-2 -197.3,-32.2 -70.4,-30.1 -80.5,18.1 -80.5,18.1 z m 557.1,124.7 c -76.4,20.1 -203.1,80.4 -203.1,80.4 l -32.2,-10 c 0,0 285.6,-195.1 412.3,-211.2 0,0 -122.7,-12.1 -257.5,34.2 -134.7,46.2 -259.4,150.8 -259.4,150.8 l -158.9,-44.2 2,30.1 c 0,0 -86.5,-16 -189,-84.4 -99.1,-66.1 -285.9,-147.1 -298.4,-152.6 9.2,5.5 105.3,63.4 120,128.4 l 53.4,32.2 v 24.2 c 0,0 -64.1,-10.6 -110.4,-43.5 -46.2,-33 -187.5,-105.4 -267.7,-73.2 0,0 -132.5,-34.2 -185.801,-36.2 -53.301,-2 -105.199,-10.1 -105.199,-10.1 l 15.699,20.5 128.701,126.4 c 0,0 68.4,52.3 211.2,52.3 142.8,0 241.4,76.4 241.4,76.4 l 124.7,-46.3 144.7,58.2 c -1.1,-2.7 -20.6,-50.4 32.2,-60.2 54.3,-10 89.6,68.4 122.2,76.4 0,0 22.7,-32.1 101.1,-28.1 0,0 10.5,-42.3 45.5,-32.2 34.9,10.1 34.9,60.3 34.9,60.3 l -18.1,28.2 c 0,0 134.8,8 239.4,-14.1 104.6,-22.1 181,-30.2 285.6,-74.4 104.3,-44.1 333,-96.3 387.8,-82.6 -7.3,-3.7 -152.4,-73.8 -301.4,-41.3 -152.8,33.4 -239.3,45.5 -315.7,65.6 z m 6,-248.3 c 0,0 -76.5,-51.1 -150.8,-19.1 l 88.5,38.1 z m -104.8,115.5 c 0,0 137,-26.1 223.3,-31.8 82.3,-5.3 77.1,16.6 76.5,18.7 56,-51.2 34.3,-61.3 34.3,-61.3 -110.6,-78.5 -334.1,74.4 -334.1,74.4 z m 792.5,1544.2 c 4.6,-81.8 -9.2,-149.9 -32.1,-250.1 -21.7,-94.7 -16.7,-278.1 36.2,-274.6 -23,-39.9 -69.4,-115.1 -124.3,-176.2 0,0 -54.7,-282.6 -69.6,-370.1 -12.6,-73.6 -43.5,-246.4 -53,-299.1 -45.3,8.9 -83.1,19.2 -109,27.1 -92.5,28.1 -311.7,130.7 -398.2,163.4 -86.5,32.6 -241.4,0 -241.4,0 -15,-42.4 -96.5,-38.7 -130.7,-38.7 -34.2,0 -154.9,-16.1 -207.3,-14.1 -52.3,2 -56.2,52.8 -56.2,52.8 0,0 -130.7,-64.9 -177,-107.1 -46.2,-42.3 -257.4,-76.5 -257.4,-76.5 0,0 -31.4,21.8 -135.4,-15.3 l -26,107.1 -99.802,411.2 c 35.5,-21.8 48.402,-24.3 48.402,-24.3 l 21.7,24.2 c 0,0 -150.801,110.6 -209.102,183 -58.398,72.4 -88.5,197.1 -60.398,374.1 27.199,170.4 58.102,436.2 60.199,455.4 -3.699,-14.6 -43.097,-175.7 -73.801,-326.7 l -27.699,39.9 c 0,0 6.903,337.3 114.699,447.4 l 25.301,71.8 c 0,0 -0.097,0.7 -0.398,2 -5.102,29.1 -61.903,374.5 85.301,701.7 153.698,341.9 646.998,594.2 646.998,594.2 l 43.6,-29.8 c 0,0 248.2,2.3 330.6,29.8 0,0 73.2,-78 98.4,-156 25.2,-78 149.1,-162.9 185.8,-149.1 36.8,13.8 105.6,45.89 174.4,139.89 68.8,94.11 247.8,149.21 247.8,149.21 0,0 120.6,-87.21 179.6,-105.6 59,-18.3 153.1,-107.8 189.8,-243.2 9.5,-34.8 16,-67.7 21.1,-98.1 14.9,-87.8 18.1,-153.9 45.4,-179.5 0,0 34.4,-273 0,-495.6 0,0 25.3,-135.3 -11.4,-243.2 -34,-99.5 -56.1,-202.3 -55.7,-281.9 v -0.1 c 0,-6.6 0.2,-13 0.6,-19.3 z M 1577,5174.7 c 87.2,11.4 289.1,-55.1 337.3,-23 0,0 176.6,-199.6 231.7,-160.6 0,0 9.2,36.7 0,66.6 -9.2,29.8 -94.1,146.8 -160.6,146.8 0,0 -103.2,-11.5 -151.4,0 l 11.4,25.2 289.1,-16 c 0,0 59.7,-52.81 101,-34.4 0,0 78.5,-56.8 181.2,-268.5 0,0 75.7,-68.8 130.8,-20.6 0,0 55.1,-27.6 29.8,25.19 -25.2,52.81 -73.4,201.91 -73.4,201.91 0,0 176.7,-49.2 220.3,-65.91 43.6,-16.69 110.1,-85.5 162.9,-236.89 l 41.3,-11.5 c 0,0 199.6,-142.3 279.9,-215.7 42,-38.41 104.6,-102.41 148,-188.6 39.6,-78.7 63.1,-175.8 40.1,-288.6 -48.2,-236.3 -59.6,-268.4 -59.6,-268.4 0,0 -23,-11.5 -62,-208.8 -29.1,-147.3 -67.2,-347.5 -84.7,-439.5 v -0.1 c -5.9,-31.2 -9.4,-50 -9.4,-50 l -25.2,-18.7 -61.9,-471.4 -36.7,-29.8 c 0,0 55,434.2 48.1,519.9 0,0 0.7,3.6 1.9,10.2 10.8,59.6 65.4,367.6 71.6,539 6.8,190.5 11.4,413 -39.1,504.8 0,0 -7.2,61.6 -20.9,137.09 v 0.11 c -17.3,95.39 -45.2,212.8 -82.3,255.1 -66.5,75.7 -282.2,153.7 -314.3,190.4 l -66.6,18.39 c 0,0 -151.4,-29.79 -220.2,-121.59 -68.8,-91.8 -133.1,-165.2 -181.3,-156 -48.1,9.2 -114.7,36.7 -192.7,217.9 0,0 -82.6,128.5 -257,185.9 l -16,-13.8 c 0,0 -190.4,142.3 -302.9,121.59 0,0 4.6,130.81 91.8,142.31 z M 3438.6,3092.1 c 0,0 -52.5,120.1 -102.2,148.1 1.1,5.9 2.3,12.4 3.6,19.5 18.8,104.1 58.6,332.9 72.5,476.4 18.3,190.5 48.2,550.7 0,658.5 -2.6,5.9 -6.1,12.5 -10.2,19.6 -70.1,122 -338.6,404.8 -338.6,404.8 0,0 -18.3,112.5 -84.9,176.7 -66.5,64.3 -394.6,218 -564.4,181.3 0,0 -236.3,89.39 -371.6,84.89 -135.4,-4.59 -229.5,0.11 -229.5,0.11 l -27.5,-46 c 0,0 -174.4,18.3 -224.9,-2.3 -50.4,-20.7 -121.5,-55.1 -121.5,-156 0,0 -167.5,27.5 -316.7,2.3 -149.098,-25.3 -174.302,-29.9 -190.399,-48.2 -16.102,-18.41 -48.199,-107.91 -48.199,-107.91 0,0 -50.5,18.41 -87.204,-66.5 -36.699,-84.89 -45.796,-123.89 -11.398,-126.19 0,0 -158.301,-123.9 -263.898,-348.7 -105.5,-224.9 -100.903,-484.1 -71.102,-738.8 11.898,-101.4 21.898,-206 29.699,-295.1 7.403,-84.7 12.801,-155.4 15.801,-196.3 -49.199,2.4 -113.602,-2.6 -125.699,-114.7 -12,-112.1 -22.102,-186.6 -22.102,-186.6 l 30.199,-36.2 c 0,0 40.102,-134.7 106.5,-138.7 0,0 -46.296,-136.8 0,-207.2 40,-60.7 221.903,-251.5 271.204,-302.8 -16.403,-17.8 -41.301,-59.2 -65.403,-155.8 -40.801,-163.2 -157.398,-574 -137,-635.2 0,0 -169,-154.5 -282.699,-358.498 C 157.398,792.602 110.801,737.301 110.801,737.301 L 0,553.699 h 102 l 413.801,459.201 224.398,248.9 c 0,0 193.301,-317.601 350.201,-425.499 156.9,-107.801 442.4,-370 646.4,-477.903 40,-21.199 92.2,-47.796 150.2,-77 C 2124.4,161.898 2459.5,0 2459.5,0 l 43.7,29.1016 c 0,0 37.2,384.6994 56.5,577.0004 13.3,132.699 2.2,211.296 -6,247.296 3.7,2.903 6,4.602 6,4.602 0,0 7.8,7.898 21,21.602 46.4,-109.2 188.3,-432.204 234.3,-410.403 46.5,22 33.5,544.801 28.1,712.301 16.6,21.9 32.4,43.9 47.1,65.4 79.8,-43.5 267.2,-34.6 267.2,-34.6 l 231.7,-55.4 49.5,46.6 -476.4,170 c 51,116.1 47,201 39.2,243.7 73.4,26.2 147.5,56.3 180.6,73.5 58.4,30.1 44.3,62.3 44.3,62.3 -54.2,-21.9 -111.8,-33.5 -168.6,-38.2 -12.5,-1 -25.1,-1.7 -37.5,-2.1 7,50.7 -14.1,209.8 -14.1,209.8 0,0 -9.9,57 -19.7,89.6 -7.2,24.1 7,93.2 14.9,127.5 34.2,6.7 61.4,39 61.4,39 0,0 297.3,231.4 342.8,313 45.5,81.6 33.1,256.4 33.1,256.4 0,0 -6.8,24.4 -17.3,52.6 20.2,32.7 52.6,94.6 54.9,156.8 3.3,90.8 -37.6,134.7 -37.6,134.7"
         style="fill:#111011;fill-opacity:1;fill-rule:nonzero;stroke:none"
         id="path74" />
      <path
         d="m 1268.99,3030.98 c 0,-11.2 -9.08,-20.29 -20.29,-20.29 -11.21,0 -20.29,9.09 -20.29,20.29 0,11.21 9.08,20.3 20.29,20.3 11.21,0 20.29,-9.09 20.29,-20.3"
         style="fill:#ffffff;fill-opacity:1;fill-rule:nonzero;stroke:none"
         id="path76" />
      <path
         d="m 2432.36,3024.19 c 0,-7.46 -6.04,-13.5 -13.5,-13.5 -7.45,0 -13.49,6.04 -13.49,13.5 0,7.45 6.04,13.49 13.49,13.49 7.46,0 13.5,-6.04 13.5,-13.49"
         style="fill:#ffffff;fill-opacity:1;fill-rule:nonzero;stroke:none"
         id="path78" />
    </g>
  </g>
</svg>
